<?xml version="1.0" encoding="UTF-8"?>
<svg id="Layer_2" data-name="Layer 2" xmlns="http://www.w3.org/2000/svg" xmlns:xlink="http://www.w3.org/1999/xlink" viewBox="0 0 730.7 98.53">
  <defs>
    <style>
      .cls-1 {
        fill: #fff;
      }

      .cls-2 {
        stroke-linecap: round;
        stroke-linejoin: round;
        stroke-width: 5.45px;
      }

      .cls-2, .cls-3 {
        stroke: #fff;
      }

      .cls-2, .cls-3, .cls-4 {
        fill: #ea5a24;
      }

      .cls-3 {
        stroke-miterlimit: 10;
        stroke-width: 2.34px;
      }

      .cls-5 {
        clip-path: url(#clippath);
      }
    </style>
    <clipPath id="clippath">
      <path class="cls-4" d="M116,25.19l-37.72,65.34c-5.26,9.11-18.4,9.11-23.66,0L16.88,25.19c-5.26-9.11,1.31-20.49,11.83-20.49H104.16c10.52,0,17.09,11.38,11.83,20.49Z"/>
    </clipPath>
  </defs>
  <g id="object">
    <g>
      <g>
        <path d="M121.12,45.81c0-12,9-20.48,21.68-20.48,7.8,0,14.03,3.23,17.1,9.3l-7.2,4.2c-2.4-3.83-6-5.55-9.98-5.55-6.9,0-12.15,4.8-12.15,12.53s5.25,12.53,12.15,12.53c3.98,0,7.58-1.73,9.98-5.55l7.2,4.2c-3.08,6-9.3,9.38-17.1,9.38-12.68,0-21.68-8.55-21.68-20.56Z"/>
        <path d="M164.1,45.81c0-12,9-20.48,21.31-20.48s21.38,8.48,21.38,20.48-8.93,20.56-21.38,20.56-21.31-8.55-21.31-20.56Zm33.23,0c0-7.65-5.1-12.53-11.93-12.53s-11.85,4.88-11.85,12.53,5.1,12.53,11.85,12.53,11.93-4.88,11.93-12.53Z"/>
        <path d="M282.78,42.88v22.96h-9.38v-21.76c0-7.13-3.3-10.58-9-10.58-6.15,0-10.43,4.05-10.43,12v20.33h-9.38v-21.76c0-7.13-3.3-10.58-9-10.58-6.23,0-10.43,4.05-10.43,12v20.33h-9.38V25.78h8.93v5.1c3-3.6,7.65-5.55,13.13-5.55,5.85,0,10.73,2.18,13.5,6.68,3.23-4.13,8.63-6.68,15-6.68,9.68,0,16.43,5.48,16.43,17.56Z"/>
        <path d="M361.77,42.88v22.96h-9.38v-21.76c0-7.13-3.3-10.58-9-10.58-6.15,0-10.43,4.05-10.43,12v20.33h-9.38v-21.76c0-7.13-3.3-10.58-9-10.58-6.23,0-10.43,4.05-10.43,12v20.33h-9.38V25.78h8.93v5.1c3-3.6,7.65-5.55,13.13-5.55,5.85,0,10.73,2.18,13.5,6.68,3.23-4.13,8.63-6.68,15-6.68,9.68,0,16.43,5.48,16.43,17.56Z"/>
        <path d="M411.66,48.81h-31.43c1.13,5.85,6,9.6,12.98,9.6,4.5,0,8.03-1.43,10.88-4.35l5.03,5.78c-3.6,4.28-9.23,6.53-16.13,6.53-13.43,0-22.13-8.63-22.13-20.56s8.78-20.48,20.7-20.48,20.26,8.18,20.26,20.71c0,.75-.07,1.87-.15,2.78Zm-31.51-6.23h22.73c-.75-5.78-5.18-9.75-11.33-9.75s-10.5,3.9-11.4,9.75Z"/>
        <path d="M443.99,25.32v8.93c-.82-.15-1.5-.23-2.18-.23-7.13,0-11.63,4.2-11.63,12.38v19.43h-9.38V25.78h8.93v5.85c2.7-4.2,7.58-6.3,14.25-6.3Z"/>
        <path d="M448.26,45.81c0-12,9-20.48,21.68-20.48,7.8,0,14.03,3.23,17.1,9.3l-7.2,4.2c-2.4-3.83-6-5.55-9.98-5.55-6.9,0-12.15,4.8-12.15,12.53s5.25,12.53,12.15,12.53c3.98,0,7.58-1.73,9.98-5.55l7.2,4.2c-3.08,6-9.3,9.38-17.1,9.38-12.68,0-21.68-8.55-21.68-20.56Z"/>
        <path d="M532.06,48.81h-31.43c1.13,5.85,6,9.6,12.98,9.6,4.5,0,8.03-1.43,10.88-4.35l5.03,5.78c-3.6,4.28-9.23,6.53-16.13,6.53-13.43,0-22.13-8.63-22.13-20.56s8.78-20.48,20.71-20.48,20.26,8.18,20.26,20.71c0,.75-.07,1.87-.15,2.78Zm-31.51-6.23h22.73c-.75-5.78-5.18-9.75-11.33-9.75s-10.5,3.9-11.4,9.75Z"/>
      </g>
      <g>
        <path class="cls-4" d="M588.77,14.75v52.52h-8.03l-28.96-35.56v35.56h-9.68V14.75h8.03l28.96,35.56V14.75h9.68Z"/>
        <path class="cls-4" d="M600.69,14.97c0-3.15,2.55-5.63,6-5.63s6,2.33,6,5.4c0,3.3-2.48,5.85-6,5.85s-6-2.47-6-5.63Zm1.28,12.23h9.38v40.06h-9.38V27.2Z"/>
        <path class="cls-4" d="M663.11,44.31v22.96h-9.38v-21.76c0-7.13-3.53-10.58-9.53-10.58-6.68,0-11.18,4.05-11.18,12.08v20.26h-9.38V27.2h8.93v5.18c3.08-3.68,7.95-5.63,13.8-5.63,9.6,0,16.73,5.48,16.73,17.56Z"/>
        <path class="cls-4" d="M661.9,80.02l2.7-6.98c1.43,1.05,3.38,1.58,5.48,1.58,3.45,0,5.4-2.1,5.4-6.38V27.2h9.38v40.81c0,8.78-5.03,14.33-13.95,14.33-3.45,0-6.83-.67-9-2.33Zm12.23-65.04c0-3.15,2.55-5.63,6-5.63s6,2.33,6,5.4c0,3.3-2.47,5.85-6,5.85s-6-2.47-6-5.63Z"/>
        <path class="cls-4" d="M730.7,43.78v23.48h-8.85v-4.88c-2.25,3.45-6.6,5.4-12.6,5.4-9.15,0-14.93-5.03-14.93-12s4.5-11.93,16.65-11.93h10.35v-.6c0-5.48-3.3-8.7-9.98-8.7-4.5,0-9.15,1.5-12.15,3.98l-3.68-6.83c4.28-3.3,10.5-4.95,16.96-4.95,11.55,0,18.23,5.48,18.23,17.03Zm-9.38,10.95v-4.65h-9.68c-6.38,0-8.1,2.4-8.1,5.33,0,3.38,2.85,5.55,7.65,5.55s8.55-2.1,10.13-6.23Z"/>
      </g>
      <g>
        <g>
          <path class="cls-4" d="M100.96,20.49L63.24,85.83c-5.26,9.11-18.4,9.11-23.66,0L1.85,20.49C-3.41,11.38,3.17,0,13.68,0H89.13c10.52,0,17.09,11.38,11.83,20.49Z"/>
          <g>
            <path class="cls-3" d="M116,25.19l-37.72,65.34c-5.26,9.11-18.4,9.11-23.66,0L16.88,25.19c-5.26-9.11,1.31-20.49,11.83-20.49H104.16c10.52,0,17.09,11.38,11.83,20.49Z"/>
            <g>
              <path class="cls-4" d="M116,25.19l-37.72,65.34c-5.26,9.11-18.4,9.11-23.66,0L16.88,25.19c-5.26-9.11,1.31-20.49,11.83-20.49H104.16c10.52,0,17.09,11.38,11.83,20.49Z"/>
              <g class="cls-5">
                <path class="cls-2" d="M109.77,35.97c-4.16-.14-8.32-.29-12.48-.43-4.25,7.32-8.5,14.64-12.75,21.96H52.52c-2.58-11.45-5.15-22.9-7.73-34.35,13.99-.13,27.97-.27,41.96-.4-2.08,4.99-4.15,9.98-6.23,14.98-6.34,.11-12.69,.22-19.03,.34"/>
              </g>
            </g>
          </g>
        </g>
        <ellipse class="cls-1" cx="59.1" cy="69.67" rx="3" ry="2.84"/>
        <ellipse class="cls-1" cx="74.37" cy="69.67" rx="3" ry="2.84"/>
      </g>
    </g>
  </g>
</svg>