<svg xmlns="http://www.w3.org/2000/svg" xmlns:xlink="http://www.w3.org/1999/xlink" width="93" height="84" viewBox="0 0 93 84"><defs><style>.a{fill:#a52020;}.b{clip-path:url(#a);}.c{fill:#a5dbe8;}.d{fill:#0056ac;}.e{fill:#6bdddd;}.f{fill:#f26322;}</style><clipPath id="a"><rect class="a" width="93" height="84" transform="translate(281 1074)"/></clipPath></defs><g class="b" transform="translate(-281 -1074)"><g transform="translate(281 1074)"><path class="c" d="M4.542,54.942V51.984a.784.784,0,0,0-.788-.784H.784A.784.784,0,0,1,0,50.415V37.721a.784.784,0,0,1,.784-.784H3.753a.784.784,0,0,0,.784-.784V33.2a.784.784,0,0,1,1.376-.516l9.492,10.873a.784.784,0,0,1,0,1.032L5.917,55.456a.766.766,0,0,1-.585.27.783.783,0,0,1-.791-.784Zm0-32.411V19.573a.784.784,0,0,0-.788-.784H.784A.784.784,0,0,1,0,18V5.313a.784.784,0,0,1,.784-.784H3.753a.784.784,0,0,0,.784-.784V.785A.784.784,0,0,1,5.917.27l9.489,10.873a.784.784,0,0,1,0,1.032L5.917,23.046a.766.766,0,0,1-.585.27.783.783,0,0,1-.791-.786Z" transform="translate(77.4 21.559)"/><path class="d" d="M3.075,83.641A3.079,3.079,0,0,1,0,80.566V3.075A3.079,3.079,0,0,1,3.075,0H63.388a3.079,3.079,0,0,1,3.075,3.075V80.566a3.079,3.079,0,0,1-3.075,3.074Zm-1.5-3.074a1.508,1.508,0,0,0,1.5,1.5H63.388a1.508,1.508,0,0,0,1.5-1.5V17.792H1.569Zm53.038-3.435V22.925a1.527,1.527,0,1,1,3.054,0V77.132a1.527,1.527,0,1,1-3.054,0Zm-9.161,0V22.925a1.527,1.527,0,0,1,3.054,0V77.132a1.527,1.527,0,1,1-3.054,0Zm-9.162,0V22.925a1.527,1.527,0,1,1,3.054,0V77.132a1.527,1.527,0,1,1-3.054,0Zm-9.161,0V22.925a1.527,1.527,0,1,1,3.054,0V77.132a1.527,1.527,0,1,1-3.054,0Zm-9.162,0V22.925a1.527,1.527,0,1,1,3.054,0V77.132a1.527,1.527,0,1,1-3.054,0Zm-9.161,0V22.925a1.527,1.527,0,1,1,3.054,0V77.132a1.527,1.527,0,1,1-3.054,0Z" transform="translate(12.269)"/><circle class="e" cx="5.11" cy="5.11" r="5.11" transform="translate(40.39 3.785)"/><path class="f" d="M6.694,51.582V48.125a.392.392,0,0,0-.392-.392H.392A.392.392,0,0,1,0,47.341V36.456a.392.392,0,0,1,.392-.392H6.3a.392.392,0,0,0,.392-.392V32.215a.392.392,0,0,1,.664-.282l10.026,9.683a.392.392,0,0,1,0,.563L7.359,51.864a.385.385,0,0,1-.27.111.392.392,0,0,1-.4-.393ZM32.238,32.429V28.973a.392.392,0,0,0-.392-.392H25.934a.392.392,0,0,1-.392-.392V17.3a.392.392,0,0,1,.392-.392h5.912a.392.392,0,0,0,.392-.392V13.064a.392.392,0,0,1,.664-.282L42.93,22.464a.392.392,0,0,1,0,.563L32.9,32.712a.384.384,0,0,1-.269.111.392.392,0,0,1-.4-.393ZM6.694,19.76V16.3a.392.392,0,0,0-.392-.392H.392A.392.392,0,0,1,0,15.518V4.635a.392.392,0,0,1,.392-.392H6.3a.392.392,0,0,0,.389-.4V.393A.392.392,0,0,1,7.358.112L17.386,9.8a.392.392,0,0,1,0,.563L7.359,20.042a.385.385,0,0,1-.27.111.392.392,0,0,1-.4-.393Z" transform="translate(0 23.435)"/></g></g></svg>