<svg xmlns="http://www.w3.org/2000/svg" width="71.877" height="83.862" viewBox="0 0 71.877 83.862"><defs><style>.a{fill:#a4c639;}</style></defs><path class="a" d="M39.759,78.494V66.635H31.8V78.474a5.169,5.169,0,0,1-4.94,5.368,5.157,5.157,0,0,1-4.94-5.368V66.615H16.462c-1.646,0-3.841-2.425-3.841-4.042v-34.5H58.944V62.594c0,1.886-2.2,4.041-3.84,4.041H49.639V78.494a4.957,4.957,0,1,1-9.88,0ZM62,53.144V32.685a5.156,5.156,0,0,1,4.94-5.368v-.023a5.171,5.171,0,0,1,4.94,5.368V53.144a4.957,4.957,0,1,1-9.88,0Zm-62,0V32.685a5.156,5.156,0,0,1,4.94-5.368v-.023a5.171,5.171,0,0,1,4.94,5.368V53.144a5.157,5.157,0,0,1-4.94,5.368A5.169,5.169,0,0,1,0,53.144ZM12.891,25.4c0-7.812,4.938-14.553,12.07-18.056L21.121.612h.028a.931.931,0,0,1-.274-.537.956.956,0,0,1,.546.269l4.1,6.737a24.96,24.96,0,0,1,20.3,0L49.931.344s.273-.537.546-.269c.546.269.273.537.273.537L46.91,7.349c7.13,3.5,12.07,10.241,12.07,18.056ZM45.346,14.439a2.174,2.174,0,0,0,0,3.068,2.184,2.184,0,0,0,1.561.622,2.348,2.348,0,0,0,2.2-2.156,2.348,2.348,0,0,0-2.2-2.156h-.033A2.181,2.181,0,0,0,45.346,14.439Zm-21.946,0a2.174,2.174,0,0,0,0,3.068,2.184,2.184,0,0,0,1.561.622,2.348,2.348,0,0,0,2.2-2.156,2.348,2.348,0,0,0-2.2-2.156h-.033A2.181,2.181,0,0,0,23.4,14.439Z" transform="translate(0 0)"/></svg>