<svg xmlns="http://www.w3.org/2000/svg" width="69.747" height="83" viewBox="0 0 69.747 83"><path d="M62.314,75.861c-.037-6.8,3.039-11.933,9.265-15.714-3.484-4.985-8.746-7.727-15.7-8.264-6.578-.519-13.768,3.836-16.4,3.836-2.78,0-9.154-3.65-14.157-3.65C14.988,52.235,4,60.314,4,76.75A46.185,46.185,0,0,0,6.668,91.8C9.04,98.6,17.6,115.275,26.533,115c4.67-.111,7.968-3.317,14.046-3.317,5.893,0,8.95,3.317,14.157,3.317,9.006-.13,16.751-15.287,19.012-22.106C61.666,87.2,62.314,76.213,62.314,75.861ZM51.826,45.434A17.453,17.453,0,0,0,56.274,32a19.649,19.649,0,0,0-12.582,6.467A17.726,17.726,0,0,0,38.948,51.79C43.784,52.161,48.194,49.678,51.826,45.434Z" transform="translate(-4 -32)"/></svg>