<svg xmlns="http://www.w3.org/2000/svg" xmlns:xlink="http://www.w3.org/1999/xlink" width="83.5" height="83.5" viewBox="0 0 83.5 83.5"><defs><style>.a{fill:#c13838;}.b{clip-path:url(#a);}.c{fill:#1f3595;}.d{fill:#4f66cf;}.e{fill:#0ab59e;}.f{fill:#0ed1b2;}.g{fill:#008a80;}.h{fill:#01988c;}.i{fill:#fff5f5;}.j{fill:#fd2aa7;}.k{fill:#fd4fb6;}.l{fill:#01cffa;}.m{fill:#62dafa;}</style><clipPath id="a"><rect class="a" width="83.5" height="83.5" transform="translate(792 1320)"/></clipPath></defs><g class="b" transform="translate(-792 -1320)"><g transform="translate(791.502 1320)"><path class="c" d="M78.734,24.316a1.6,1.6,0,0,1,1.478.973A41.5,41.5,0,1,1,6.153,20.579a2.29,2.29,0,0,1,1.979-1.126A6.956,6.956,0,0,0,15.088,12.5V10.452A1.161,1.161,0,0,1,15.5,9.56,41.505,41.505,0,0,1,64.678,6.742a1.459,1.459,0,0,1,.664,1.221v2.962A13.392,13.392,0,0,0,78.734,24.316Zm0,0" transform="translate(0)"/><path class="d" d="M164.857,125.542H153.764v16.631a41.76,41.76,0,0,1-4.053,3.261V125.542H119.953v-4.053h29.758v-30.4h4.053v30.4H166.08a41.126,41.126,0,0,1-1.223,4.053ZM100.5,120.273h4.053V86.23H100.5Zm55.117-36.707H108.605v4.053h47.012Zm0,0" transform="translate(-83.791 -70.02)"/><path class="e" d="M93.648,234.77H53.121a1.621,1.621,0,0,1-1.621-1.621V192.621A1.621,1.621,0,0,1,53.121,191H93.648a1.621,1.621,0,0,1,1.621,1.621v40.527A1.621,1.621,0,0,1,93.648,234.77Zm0,0" transform="translate(-42.734 -160.037)"/><path class="f" d="M126.326,234.77H92.121a1.621,1.621,0,0,1-1.621-1.621V192.621A1.621,1.621,0,0,1,92.121,191h34.205a1.621,1.621,0,0,1,1.621,1.621v40.527A1.621,1.621,0,0,1,126.326,234.77Zm0,0" transform="translate(-75.412 -160.037)"/><path class="g" d="M151.09,292.211H138.121a1.621,1.621,0,0,1-1.621-1.621V277.621A1.621,1.621,0,0,1,138.121,276H151.09a1.621,1.621,0,0,1,1.621,1.621V290.59A1.621,1.621,0,0,1,151.09,292.211Zm0,0" transform="translate(-113.955 -231.258)"/><path class="h" d="M176.227,292.211h-8.105a1.621,1.621,0,0,1-1.621-1.621V277.621A1.621,1.621,0,0,1,168.121,276h8.105a1.621,1.621,0,0,1,1.621,1.621V290.59A1.621,1.621,0,0,1,176.227,292.211Zm0,0" transform="translate(-139.092 -231.258)"/><path class="i" d="M117.574,176.811v4.863a.81.81,0,0,1-.811.811h-3.242a.81.81,0,0,1-.811-.811v-4.863a.81.81,0,0,1,.811-.811h3.242A.81.81,0,0,1,117.574,176.811ZM108.658,176h-3.242a.81.81,0,0,0-.811.811v4.863a.81.81,0,0,0,.811.811h3.242a.81.81,0,0,0,.811-.811v-4.863A.81.81,0,0,0,108.658,176Zm-8.105,0H97.311a.81.81,0,0,0-.811.811v4.863a.81.81,0,0,0,.811.811h3.242a.81.81,0,0,0,.811-.811v-4.863A.81.81,0,0,0,100.553,176Zm24.316,0h-3.242a.81.81,0,0,0-.811.811v4.863a.81.81,0,0,0,.811.811h3.242a.81.81,0,0,0,.811-.811v-4.863A.81.81,0,0,0,124.869,176Zm-8.105,42.148h-3.242a.81.81,0,0,0-.811.811v4.863a.81.81,0,0,0,.811.811h3.242a.81.81,0,0,0,.811-.811v-4.863A.81.81,0,0,0,116.764,218.148Zm-8.105,0h-3.242a.81.81,0,0,0-.811.811v4.863a.81.81,0,0,0,.811.811h3.242a.81.81,0,0,0,.811-.811v-4.863A.81.81,0,0,0,108.658,218.148Zm-8.105,0H97.311a.81.81,0,0,0-.811.811v4.863a.81.81,0,0,0,.811.811h3.242a.81.81,0,0,0,.811-.811v-4.863A.81.81,0,0,0,100.553,218.148Zm24.316,0h-3.242a.81.81,0,0,0-.811.811v4.863a.81.81,0,0,0,.811.811h3.242a.81.81,0,0,0,.811-.811v-4.863A.81.81,0,0,0,124.869,218.148Zm0,0" transform="translate(-80.439 -147.469)"/><path class="i" d="M42.984,244.916v3.242a.81.81,0,0,1-.811.811H37.311a.81.81,0,0,1-.811-.811v-3.242a.81.81,0,0,1,.811-.811h4.863A.81.81,0,0,1,42.984,244.916Zm-.811,7.295H37.311a.81.81,0,0,0-.811.811v3.242a.81.81,0,0,0,.811.811h4.863a.81.81,0,0,0,.811-.811v-3.242A.81.81,0,0,0,42.174,252.211Zm0,8.105H37.311a.81.81,0,0,0-.811.811v3.242a.81.81,0,0,0,.811.811h4.863a.81.81,0,0,0,.811-.811v-3.242A.81.81,0,0,0,42.174,260.316Zm0-24.316H37.311a.81.81,0,0,0-.811.811v3.242a.81.81,0,0,0,.811.811h4.863a.81.81,0,0,0,.811-.811v-3.242A.81.81,0,0,0,42.174,236Zm42.148,8.105H79.459a.81.81,0,0,0-.811.811v3.242a.81.81,0,0,0,.811.811h4.863a.81.81,0,0,0,.811-.811v-3.242A.81.81,0,0,0,84.322,244.105Zm0,8.105H79.459a.81.81,0,0,0-.811.811v3.242a.81.81,0,0,0,.811.811h4.863a.81.81,0,0,0,.811-.811v-3.242A.81.81,0,0,0,84.322,252.211Zm0,8.105H79.459a.81.81,0,0,0-.811.811v3.242a.81.81,0,0,0,.811.811h4.863a.81.81,0,0,0,.811-.811v-3.242A.81.81,0,0,0,84.322,260.316Zm0-24.316H79.459a.81.81,0,0,0-.811.811v3.242a.81.81,0,0,0,.811.811h4.863a.81.81,0,0,0,.811-.811v-3.242A.81.81,0,0,0,84.322,236Zm0,0" transform="translate(-30.166 -197.743)"/><path class="j" d="M346.924,59.719l-10,10a3.242,3.242,0,0,1-4.585,0L319.733,57.105a3.242,3.242,0,0,1,0-4.585l11.493-11.493a41.652,41.652,0,0,1,15.7,18.691Zm0,0" transform="translate(-266.689 -34.377)"/><path class="k" d="M381.877,68.493l-10,10a3.125,3.125,0,0,1-.241.218c-.013-.013-.027-.025-.04-.039l-8.285-8.285a9.612,9.612,0,0,1,0-13.592l5.291-5.291a41.641,41.641,0,0,1,13.271,16.994Zm0,0" transform="translate(-301.641 -43.152)"/><path class="l" d="M59.943,61.621v8.105a1.621,1.621,0,0,1-1.621,1.621h-22.7a1.613,1.613,0,0,1-.943-.3A41.689,41.689,0,0,1,43.949,60H58.322A1.621,1.621,0,0,1,59.943,61.621Zm36.8,37.285a4.863,4.863,0,1,0,4.863,4.863A4.863,4.863,0,0,0,96.742,98.906Zm0,0" transform="translate(-28.644 -50.274)"/><path class="m" d="M77.656,61.621v6.206a4.856,4.856,0,0,1-1.621.278H59.824a4.857,4.857,0,0,1-4-2.1A41.722,41.722,0,0,1,61.662,60H76.035a1.621,1.621,0,0,1,1.621,1.621Zm38.852,37.74a4.863,4.863,0,0,0,0,8.817,4.864,4.864,0,0,0,0-8.817Zm0,0" transform="translate(-46.357 -50.274)"/></g></g></svg>