<svg xmlns="http://www.w3.org/2000/svg" width="83.052" height="83" viewBox="0 0 83.052 83"><defs><style>.a{fill:#34313f;}</style></defs><path class="a" d="M.71,83a.726.726,0,0,1-.5-1.241L34.224,47.9V71.282a.65.65,0,0,0,.645.6H56.815c7.994,0,12.115-4.915,12.115-11.072a10.037,10.037,0,0,0-6.107-9.483.578.578,0,0,1-.05-1.093,9.789,9.789,0,0,0,5.958-8.788c0-5.412-4.667-10.377-12.562-10.377H51.1L82.087.182c.4-.4,1.092-.1.943.447V82.453a.551.551,0,0,1-.546.547ZM43.757,64.182a.656.656,0,0,1-.646-.645V55.444a.65.65,0,0,1,.646-.6H54.581c3.426,0,5.313,2.085,5.313,4.667,0,2.979-1.986,4.667-5.313,4.667Zm0-16.93a.649.649,0,0,1-.646-.6V39.307a.65.65,0,0,1,.646-.6H54.233c2.979,0,4.866,1.787,4.866,4.27,0,2.632-1.887,4.27-4.866,4.27Z" transform="translate(0 0)"/></svg>