<?xml version="1.0" encoding="utf-8"?>
<!-- Generator: Adobe Illustrator 16.0.0, SVG Export Plug-In . SVG Version: 6.00 Build 0)  -->
<!DOCTYPE svg PUBLIC "-//W3C//DTD SVG 1.1//EN" "http://www.w3.org/Graphics/SVG/1.1/DTD/svg11.dtd">
<svg version="1.1" id="Layer_1" xmlns="http://www.w3.org/2000/svg" xmlns:xlink="http://www.w3.org/1999/xlink" x="0px" y="0px"
	 width="83px" height="83px" viewBox="-25.5 -25.5 83 83" enable-background="new -25.5 -25.5 83 83" xml:space="preserve">
<path fill="#21759B" d="M16-25.25c-22.743,0-41.249,18.506-41.249,41.249c0,22.745,18.506,41.252,41.249,41.252
	c22.744,0,41.249-18.507,41.249-41.252C57.249-6.744,38.744-25.25,16-25.25z M-21.085,15.999c0-5.377,1.152-10.479,3.211-15.092
	l17.689,48.466C-12.555,43.366-21.085,30.677-21.085,15.999z M16,53.087c-3.641,0-7.154-0.531-10.475-1.508l11.127-32.335
	l11.399,31.231c0.076,0.182,0.166,0.351,0.265,0.509C24.462,52.344,20.32,53.087,16,53.087z M21.11-1.39
	c2.231-0.116,4.243-0.35,4.243-0.35c1.996-0.238,1.765-3.173-0.237-3.058c0,0-6.005,0.472-9.884,0.472
	c-3.646,0-9.769-0.472-9.769-0.472C3.466-4.916,3.23-1.862,5.228-1.74c0,0,1.894,0.234,3.891,0.35l5.777,15.834L6.78,38.784
	L-6.721-1.39c2.236-0.116,4.244-0.35,4.244-0.35c1.993-0.238,1.764-3.173-0.237-3.058c0,0-6.007,0.472-9.887,0.472
	c-0.697,0-1.517-0.017-2.388-0.047C-8.352-14.44,3.045-21.086,16-21.086c9.655,0,18.444,3.688,25.046,9.737
	c-0.161-0.013-0.317-0.034-0.483-0.034c-3.641,0-6.229,3.173-6.229,6.585c0,3.058,1.765,5.641,3.646,8.699
	c1.409,2.467,3.059,5.641,3.059,10.229c0,3.171-1.221,6.854-2.822,11.988l-3.701,12.356L21.11-1.39z M48.543-1.792
	c2.896,5.285,4.542,11.344,4.542,17.791c0,13.687-7.414,25.625-18.439,32.06l11.33-32.753c2.114-5.29,2.819-9.521,2.819-13.279
	C48.795,0.657,48.704-0.608,48.543-1.792z"/>
</svg>
