<?xml version="1.0" encoding="utf-8"?>
<!-- Generator: Adobe Illustrator 16.0.0, SVG Export Plug-In . SVG Version: 6.00 Build 0)  -->
<!DOCTYPE svg PUBLIC "-//W3C//DTD SVG 1.1//EN" "http://www.w3.org/Graphics/SVG/1.1/DTD/svg11.dtd">
<svg version="1.1" id="Capa_1" xmlns="http://www.w3.org/2000/svg" xmlns:xlink="http://www.w3.org/1999/xlink" x="0px" y="0px"
	 width="78px" height="83px" viewBox="11 0 78 83" enable-background="new 11 0 78 83" xml:space="preserve">
<polygon fill="#00D4E8" points="11.812,30.173 26.529,4.907 54.345,9.135 30.685,52.814 "/>
<path fill="#8752F6" d="M49.634,78.239l13.083-22.66l10.272-17.792c3.147-5.454-0.787-12.272-7.087-12.272H19.193
	c-6.298,0-10.234,6.818-7.084,12.272l23.354,40.452C38.612,83.692,46.485,83.692,49.634,78.239z"/>
<path fill="#FFC400" d="M64.467,52.725l13.082-22.66l10.272-17.792C90.969,6.818,87.035,0,80.735,0H34.026
	c-6.298,0-10.235,6.818-7.085,12.272l23.354,40.452C53.445,58.179,61.318,58.179,64.467,52.725z"/>
<path id="SVGCleanerId_0" fill="#FF397F" d="M72.992,37.791L63.82,53.679c0,0.009,0,0.009-0.009,0.009
	c-3.468,4.479-10.567,4.149-13.515-0.964L34.591,25.515h31.312C72.2,25.515,76.14,32.331,72.992,37.791z"/>
<g>
	<path id="SVGCleanerId_0_1_" fill="#FF397F" d="M72.992,37.791L63.82,53.679c0,0.009,0,0.009-0.009,0.009
		c-3.468,4.479-10.567,4.149-13.515-0.964L34.591,25.515h31.312C72.2,25.515,76.14,32.331,72.992,37.791z"/>
</g>
</svg>
