<?xml version="1.0" encoding="utf-8"?>
<!-- Generator: Adobe Illustrator 16.0.0, SVG Export Plug-In . SVG Version: 6.00 Build 0)  -->
<!DOCTYPE svg PUBLIC "-//W3C//DTD SVG 1.1//EN" "http://www.w3.org/Graphics/SVG/1.1/DTD/svg11.dtd">
<svg version="1.1" id="Layer_1" xmlns="http://www.w3.org/2000/svg" xmlns:xlink="http://www.w3.org/1999/xlink" x="0px" y="0px"
	 width="140px" height="83px" viewBox="58 35 140 83" enable-background="new 58 35 140 83" xml:space="preserve">
<g>
	<path fill="#9B5C8F" d="M70.942,35h113.513c7.184,0,12.999,5.815,12.999,12.999v43.33c0,7.184-5.815,12.999-12.999,12.999h-40.707
		l5.587,13.683l-24.572-13.683H71C63.816,104.328,58,98.513,58,91.329v-43.33C57.943,40.873,63.759,35,70.942,35L70.942,35z"/>
	<path fill="#FFFFFF" d="M65.941,46.848c0.794-1.077,1.985-1.644,3.572-1.757c2.891-0.227,4.535,1.133,4.932,4.081
		c1.757,11.848,3.685,21.882,5.726,30.103l12.415-23.639c1.133-2.155,2.551-3.289,4.251-3.402c2.494-0.17,4.025,1.417,4.648,4.762
		c1.417,7.54,3.231,13.946,5.386,19.387c1.474-14.398,3.968-24.772,7.482-31.178c0.851-1.587,2.098-2.381,3.742-2.494
		c1.304-0.113,2.495,0.283,3.572,1.134c1.077,0.85,1.643,1.927,1.757,3.231c0.057,1.02-0.114,1.87-0.567,2.721
		c-2.211,4.082-4.025,10.941-5.498,20.464c-1.418,9.241-1.928,16.44-1.588,21.599c0.113,1.417-0.114,2.663-0.681,3.741
		c-0.68,1.248-1.7,1.927-3.004,2.041c-1.474,0.113-3.005-0.566-4.479-2.098c-5.272-5.385-9.467-13.435-12.528-24.15
		c-3.685,7.255-6.406,12.699-8.164,16.327c-3.344,6.405-6.179,9.694-8.56,9.863c-1.53,0.113-2.835-1.189-3.968-3.912
		c-2.892-7.425-6.009-21.768-9.354-43.025C64.808,49.172,65.147,47.868,65.941,46.848z M187.766,55.748
		c-2.041-3.571-5.045-5.725-9.069-6.576c-1.078-0.227-2.099-0.339-3.063-0.339c-5.441,0-9.863,2.834-13.321,8.503
		c-2.948,4.819-4.422,10.147-4.422,15.986c0,4.366,0.907,8.107,2.722,11.224c2.041,3.571,5.045,5.726,9.069,6.576
		c1.077,0.227,2.098,0.34,3.061,0.34c5.499,0,9.922-2.834,13.322-8.502c2.949-4.876,4.422-10.205,4.422-16.044
		C190.543,62.494,189.58,58.81,187.766,55.748z M180.623,71.451c-0.793,3.742-2.21,6.519-4.309,8.391
		c-1.645,1.474-3.175,2.097-4.592,1.813c-1.36-0.283-2.494-1.475-3.344-3.686c-0.682-1.756-1.021-3.515-1.021-5.159
		c0-1.417,0.113-2.834,0.396-4.138c0.511-2.325,1.475-4.592,3.005-6.746c1.871-2.778,3.854-3.911,5.896-3.515
		c1.36,0.283,2.495,1.474,3.345,3.685c0.681,1.757,1.021,3.515,1.021,5.159C181.02,68.73,180.907,70.147,180.623,71.451z
		 M152.278,55.748c-2.041-3.571-5.102-5.725-9.069-6.576c-1.078-0.227-2.098-0.339-3.063-0.339c-5.441,0-9.863,2.834-13.32,8.503
		c-2.949,4.819-4.423,10.147-4.423,15.986c0,4.366,0.907,8.107,2.721,11.224c2.041,3.571,5.045,5.726,9.071,6.576
		c1.076,0.227,2.097,0.34,3.06,0.34c5.499,0,9.922-2.834,13.322-8.502c2.949-4.876,4.422-10.205,4.422-16.044
		C154.999,62.494,154.092,58.81,152.278,55.748z M145.08,71.451c-0.794,3.742-2.211,6.519-4.31,8.391
		c-1.645,1.474-3.174,2.097-4.591,1.813c-1.361-0.283-2.495-1.475-3.346-3.686c-0.681-1.756-1.02-3.515-1.02-5.159
		c0-1.417,0.112-2.834,0.396-4.138c0.511-2.325,1.475-4.592,3.005-6.746c1.871-2.778,3.855-3.911,5.896-3.515
		c1.36,0.283,2.494,1.474,3.344,3.685c0.681,1.757,1.021,3.515,1.021,5.159C145.532,68.73,145.363,70.147,145.08,71.451
		L145.08,71.451L145.08,71.451z"/>
</g>
</svg>
