<svg xmlns="http://www.w3.org/2000/svg" xmlns:xlink="http://www.w3.org/1999/xlink" width="67.026" height="83" viewBox="0 0 67.026 83"><defs><style>.a{clip-path:url(#a);}.b{fill:#39cefd;}.c{fill:#03569b;}.d{fill:url(#e);}.e{fill:#16b9fd;}.f{fill:url(#g);}</style><clipPath id="a"><path d="M74.458,39.575,52.116,61.925l22.342,22.35H48.927l-22.35-22.35,22.35-22.35Zm-25.53-38.3-41.5,41.5L20.2,55.541,74.458,1.276Z" transform="translate(-7.431 -1.276)"/></clipPath><linearGradient id="e" x1="0.197" y1="1.193" x2="0.699" y2="0.448" gradientUnits="objectBoundingBox"><stop offset="0" stop-color="#1a237e" stop-opacity="0.4"/><stop offset="1" stop-color="#1a237e" stop-opacity="0"/></linearGradient><radialGradient id="g" cx="0.028" cy="0.068" r="1.223" gradientTransform="matrix(1.238, 0, 0, -1, -2.189, -5.539)" gradientUnits="objectBoundingBox"><stop offset="0" stop-color="#fff" stop-opacity="0.102"/><stop offset="1" stop-color="#fff" stop-opacity="0"/></radialGradient></defs><g class="a"><path class="b" d="M22.2,53.16,34.963,65.929,70.074,30.81H44.544Z" transform="translate(-3.048 7.49)"/></g><g class="a"><path class="b" d="M48.927,1.276h25.53L20.2,55.541,7.431,42.772Z" transform="translate(-7.431 -1.276)"/></g><g class="a"><path class="c" d="M32.042,60.814l9.581,9.573h25.53L44.812,48.045Z" transform="translate(-0.127 12.605)"/></g><g class="a"><path class="d" d="M50.98,54.254l-6.169-6.209L32.042,60.814Z" transform="translate(-0.127 12.605)"/></g><g class="a"><path class="e" d="M22.2,50.964l12.77-12.77,12.77,12.77L34.97,63.734Z" transform="translate(-3.048 9.681)"/></g><path class="f" d="M74.458,39.575,52.116,61.925l22.342,22.35H48.927l-22.35-22.35,22.35-22.35Zm-25.53-38.3-41.5,41.5L20.2,55.541,74.458,1.276Z" transform="translate(-7.431 -1.276)"/></svg>