<svg height="512" viewBox="0 0 512 512" width="512" xmlns="http://www.w3.org/2000/svg"><g id="flat"><path d="m448 296h-40l16-96h24z" fill="#dbdbdb"/><path d="m352 296h-40l16-96h24z" fill="#dbdbdb"/><path d="m256 296h-40l16-96h24z" fill="#dbdbdb"/><path d="m480 432h-96v-136l96-40z" fill="#dc4d41"/><path d="m384 328 96-40v-32l-96 40z" fill="#a83b32"/><path d="m384 432h-96v-136l96-40z" fill="#dc4d41"/><path d="m48 384h16v40h-16z" fill="#6f7478" transform="matrix(.6 -.8 .8 .6 -300.8 206.4)"/><path d="m128 384h16v40h-16z" fill="#6f7478" transform="matrix(.6 -.8 .8 .6 -268.8 270.4)"/><path d="m34.486 101.292-13.305-8.892a88.1 88.1 0 0 1 99.619-35.145l-4.8 15.265a72.1 72.1 0 0 0 -81.514 28.772z" fill="#27c5a7"/><path d="m156.144 104.185a72.505 72.505 0 0 0 -25.753-25.33l8.009-13.849a88.563 88.563 0 0 1 31.452 30.933z" fill="#27c5a7"/><path d="m61.111 119.042-13.3-8.887a56.5 56.5 0 0 1 18.579-17.43l8.01 13.847a40.435 40.435 0 0 0 -13.289 12.47z" fill="#27c5a7"/><path d="m128.7 120.649a39.725 39.725 0 0 0 -34.3-19.425 40.453 40.453 0 0 0 -6.675.553l-2.653-15.777a56.077 56.077 0 0 1 57.343 26.4z" fill="#27c5a7"/><path d="m101.248 137.123a7.982 7.982 0 0 0 -13.51-.33l-13.3-8.887a23.981 23.981 0 0 1 40.525.971z" fill="#27c5a7"/><path d="m56 256a24 24 0 0 1 24 24v104a0 0 0 0 1 0 0h-48a0 0 0 0 1 0 0v-104a24 24 0 0 1 24-24z" fill="#007af6"/><path d="m136 256a24 24 0 0 1 24 24v104a0 0 0 0 1 0 0h-48a0 0 0 0 1 0 0v-104a24 24 0 0 1 24-24z" fill="#007af6"/><g fill="#a8a8a8"><path d="m32 384h16v56h-16z"/><path d="m80 432-16 8v-56h16z"/><path d="m112 384h16v56h-16z"/><path d="m144 384h16v56h-16z"/><path d="m80 288h32v24h-32z"/><path d="m80 344h32v24h-32z"/></g><path d="m24 432h464v32h-464z" fill="#e78244"/><path d="m24 432h464v16h-464z" fill="#fd9226"/><path d="m288 432h-96v-136l96-40z" fill="#dc4d41"/><path d="m192 328 96-40v-32l-96 40z" fill="#a83b32"/><path d="m288 328 96-40v-32l-96 40z" fill="#a83b32"/><path d="m256 400v32h-32v-32a16 16 0 1 1 32 0z" fill="#c7463b"/><path d="m248 400v32h-24v-32a16.012 16.012 0 0 1 12-15.5 15.987 15.987 0 0 1 12 15.5z" fill="#a23930"/><path d="m192 344h288v16h-288z" fill="#fd9226"/><path d="m432 188.281a8 8 0 0 1 -8-8 4.282 4.282 0 0 0 -6.657-3.562 45.566 45.566 0 0 1 -50.686 0l-3.094-2.062a8 8 0 0 1 8.874-13.314l3.094 2.063a29.611 29.611 0 0 0 32.937 0 20.282 20.282 0 0 1 31.532 16.875 8 8 0 0 1 -8 8z" fill="#fbedbf"/><path d="m296 184.393a45.546 45.546 0 0 1 -25.344-7.674l-3.093-2.062a8 8 0 0 1 8.874-13.314l3.094 2.063a29.6 29.6 0 0 0 16.469 4.987 8 8 0 0 1 0 16z" fill="#fbedbf"/><path d="m336 200a8 8 0 0 1 -8-8v-11.719a4.282 4.282 0 0 0 -6.657-3.562 8 8 0 1 1 -8.874-13.313 20.281 20.281 0 0 1 31.531 16.875v11.719a8 8 0 0 1 -8 8z" fill="#fbedbf"/><path d="m200.081 184.38a45.951 45.951 0 0 1 -25.425-7.661l-3.093-2.062a8 8 0 1 1 8.874-13.314l3.094 2.063a29.852 29.852 0 0 0 22.773 4.311 8 8 0 0 1 3.392 15.637 45.385 45.385 0 0 1 -9.615 1.026z" fill="#fbedbf"/><path d="m240 200a8 8 0 0 1 -8-8v-11.719a4.3 4.3 0 0 0 -2.789-4.016 8 8 0 0 1 5.578-15 20.369 20.369 0 0 1 13.211 19.016v11.719a8 8 0 0 1 -8 8z" fill="#fbedbf"/><path d="m144.56 224.73c0-.25.01-.49.01-.73s-.01-.48-.01-.73l2.9-3.27 12.54-14.14-2.8-4.85-13.2-22.87-22.78 4.67c-.43-.26-.86-.5-1.29-.74l-7.36-22.07h-32l-7.35 22.07c-.43.24-.86.48-1.29.74l-22.78-4.67-13.2 22.87-2.8 4.85 12.54 14.14 2.9 3.27c0 .25-.02.49-.02.73s.02.48.02.73l-12.64 14.26-2.8 3.15 16 27.72 22.78-4.67c.43.26.86.5 1.29.74l7.35 22.07h32l7.36-22.07c.43-.24.86-.48 1.29-.74l22.78 4.67 16-27.72-2.8-3.15zm-63.49-4.73a16.028 16.028 0 1 1 -.5 4 16.021 16.021 0 0 1 .5-4z" fill="#c38325"/><path d="m147.46 220-2.9-3.27c0-.25.01-.49.01-.73s-.01-.48-.01-.73l12.64-14.26-13.2-22.87-22.78 4.67c-.43-.26-.86-.5-1.29-.74l-7.36-22.07h-32l-7.35 22.07c-.43.24-.86.48-1.29.74l-22.78-4.67-13.2 22.87 12.64 14.26c0 .25-.02.49-.02.73s.02.48.02.73l-2.9 3.27-12.54 14.14 2.8 4.85 13.2 22.87 22.78-4.67c.43.26.86.5 1.29.74l7.35 22.07h32l7.36-22.07c.43-.24.86-.48 1.29-.74l22.78 4.67 13.2-22.87 2.8-4.85zm-35.39 0a16.028 16.028 0 1 1 .5-4 16.012 16.012 0 0 1 -.5 4z" fill="#fbb540"/><path d="m80 304h32v8h-32z" fill="#878787"/><path d="m80 360h32v8h-32z" fill="#878787"/><path d="m288 320h8v112h-8z" fill="#a83b32"/><path d="m384 320h8v112h-8z" fill="#a83b32"/><path d="m448 224v16h-30.67l2.67-16z" fill="#04957c"/><path d="m352 224v16h-30.67l2.67-16z" fill="#04957c"/><path d="m256 224v16h-30.67l2.67-16z" fill="#04957c"/><path d="m32 368h48v16h-48z" fill="#0060c1"/><path d="m112 368h48v16h-48z" fill="#0060c1"/><path d="m352 400v32h-32v-32a16 16 0 1 1 32 0z" fill="#c7463b"/><path d="m344 400v32h-24v-32a16.012 16.012 0 0 1 12-15.5 15.987 15.987 0 0 1 12 15.5z" fill="#a23930"/><path d="m448 400v32h-32v-32a16 16 0 1 1 32 0z" fill="#c7463b"/><path d="m440 400v32h-24v-32a16.012 16.012 0 0 1 12-15.5 15.987 15.987 0 0 1 12 15.5z" fill="#a23930"/></g></svg>