<svg height="512" viewBox="0 0 64 64" width="512" xmlns="http://www.w3.org/2000/svg"><g id="wrench-service-tool-hardware-shop"><path d="m2 60h60v2h-60z" fill="#3e3d42"/><path d="m4 14h56v46h-56z" fill="#00ddc2"/><path d="m24 28h32v28h-32z" fill="#57a4ff"/><path d="m60 3v3h-56v-3a1 1 0 0 1 1-1h54a1 1 0 0 1 1 1z" fill="#ffda44"/><path d="m3 6h58v8h-58z" fill="#ff7956"/><path d="m8 35h12v3h-12z" fill="#898890"/><path d="m8 32h12v3h-12z" fill="#e0e0e2"/><path d="m8 38h12v22h-12z" fill="#c6c5ca"/><path d="m52 15h-48v6a4 4 0 0 0 8 0 4 4 0 0 0 8 0 4 4 0 0 0 8 0 4 4 0 0 0 8 0 4 4 0 0 0 8 0 4 4 0 0 0 8 0 4 4 0 0 0 8 0v-6z" fill="#2d2d30"/><path d="m20 14v6a4 4 0 0 1 -8 0v-6z" fill="#ffda44"/><path d="m36 14v6a4 4 0 0 1 -8 0v-6z" fill="#ffda44"/><path d="m52 14v6a4 4 0 0 1 -8 0v-6z" fill="#ffda44"/><g fill="#ff9478"><path d="m60 14v6a4 4 0 0 1 -8 0v-6z"/><path d="m44 14v6a4 4 0 0 1 -8 0v-6z"/><path d="m28 14v6a4 4 0 0 1 -8 0v-6z"/><path d="m12 14v6a4 4 0 0 1 -8 0v-6z"/></g><path d="m33 28-9 8v5l14-13z" fill="#81bbff"/><path d="m44.882 28-20.882 19.094v6.906l28-26z" fill="#81bbff"/><rect fill="#ff9f85" height="3" rx="1.5" width="11" x="5" y="8"/><path d="m9 35h-1l4-3h1z" fill="#fff"/><path d="m12 35h-1l4-3h1z" fill="#fff"/><path d="m10 46h2v4h-2z" fill="#3e3d42"/><path d="m4 14h8v1h-8z" fill="#ff8464"/><path d="m12 14h8v1h-8z" fill="#fbb040"/><path d="m20 14h8v1h-8z" fill="#ff8464"/><path d="m28 14h8v1h-8z" fill="#fbb040"/><path d="m36 14h8v1h-8z" fill="#ff8464"/><path d="m52 14h8v1h-8z" fill="#ff8464"/><path d="m44 14h8v1h-8z" fill="#fbb040"/><path d="m24 56h32v1h-32z" fill="#006df0"/><path d="m8 38h12v1h-12z" fill="#acabb1"/><path d="m49.77 35.06-3.99 3.99-2.83-2.83 3.99-3.99a5.985 5.985 0 0 0 -8.37 6.95l-5.79 5.8a4 4 0 1 0 4.24 4.24l5.8-5.79a5.985 5.985 0 0 0 6.95-8.37zm-16.77 15.94a2 2 0 1 1 2-2 2 2 0 0 1 -2 2z" fill="#ff5023"/></g></svg>