<svg xmlns="http://www.w3.org/2000/svg" width="72.944" height="87.508" viewBox="0 0 72.944 87.508"><defs><style>.a{fill:#3b3b3b;}.b{fill:#f9c295;}.c{fill:#e8a26a;}.d{fill:#fee9a1;}.e{fill:#fdca67;}.f{fill:#dda84a;}.g{fill:#fd7ba2;}.h{fill:#e9488e;}.i{fill:#606572;}.j{fill:#3b4254;}.k{fill:#ff7870;}.l{fill:#d7352e;}.m{fill:#78baf6;}.n{fill:#1885da;}.o{fill:#ff9794;}</style></defs><path class="a" d="M97.64,77.084H86.627a22.714,22.714,0,0,1-22.718-22.71V28.215A28.219,28.219,0,0,1,92.133,0h0a28.219,28.219,0,0,1,28.224,28.215V54.374A22.714,22.714,0,0,1,97.64,77.084Z" transform="translate(-59.332)"/><path class="b" d="M135.554,304.822H87.125l.408-6.479a11.036,11.036,0,0,1,8.368-10.02l7.038-1.739a.776.776,0,0,0,.591-.755V270.077h15.7v15.771a.778.778,0,0,0,.591.755l6.958,1.72a11.036,11.036,0,0,1,8.368,10.02Z" transform="translate(-78.579 -223.929)"/><path class="c" d="M271.461,298.343a11.035,11.035,0,0,0-8.368-10.02l-6.958-1.72a.778.778,0,0,1-.591-.755V270.078h-3.992v15.771a.778.778,0,0,0,.591.755l6.958,1.72a11.036,11.036,0,0,1,8.368,10.02l.408,6.479h3.992Z" transform="translate(-216.166 -223.93)"/><path class="c" d="M183.085,283.245a15.281,15.281,0,0,0,15.7,0V270.077h-15.7Z" transform="translate(-158.931 -223.92)"/><path class="b" d="M153.509,123.661c-2.436,12.488-12.528,19.675-20.242,19.675-7.265,0-16.644-6.376-19.741-17.554,13.807-1.966,25.446-14.768,28.358-22.2C141.884,103.585,141.884,119.944,153.509,123.661Z" transform="translate(-101.175 -85.885)"/><path class="c" d="M237.81,202.727c-.655,13.66-9.278,21.933-16.236,22.736.429.042.853.065,1.269.065,7.713,0,17.806-7.187,20.242-19.675A13.6,13.6,0,0,1,237.81,202.727Z" transform="translate(-191.161 -168.082)"/><g transform="translate(47.993 5.501)"><path class="d" d="M335.29,32.725c-.959,3.531-2.292,4.864-5.823,5.823a.746.746,0,0,0,0,1.438c3.531.959,4.864,2.292,5.823,5.823a.746.746,0,0,0,1.438,0c.959-3.531,2.292-4.864,5.823-5.823a.746.746,0,0,0,0-1.438c-3.531-.959-4.864-2.292-5.823-5.823A.746.746,0,0,0,335.29,32.725Z" transform="translate(-328.918 -32.176)"/></g><g transform="translate(50.501 43.322)"><path class="d" d="M353.835,271.768l-9.213-8.514a3.211,3.211,0,0,1,1.081-5.375l11.356-4.133a3.211,3.211,0,0,1,4.283,3.423l-1.585,12.444Z" transform="translate(-343.589 -253.548)"/><path class="e" d="M408.418,253.746l-2.878,1.047c1.806-.657,3.842,1.309,3.746,3.618l-.5,12.051,2.335-.85,1.585-12.444A3.211,3.211,0,0,0,408.418,253.746Z" transform="translate(-394.949 -253.548)"/><g transform="translate(3.144 0.573)"><path class="f" d="M405.86,260.927a12.018,12.018,0,0,0-1.527-4.03l-2.479.9a8.87,8.87,0,0,1,1.479,3.569l.581,3.327a1.282,1.282,0,0,0,2.526-.441Z" transform="translate(-395.037 -256.897)"/><path class="f" d="M363.4,276.382l1.694,2.922a1.282,1.282,0,0,0,2.219-1.286l-1.694-2.922a8.873,8.873,0,0,1-1.161-3.685l-2.477.9A12.018,12.018,0,0,0,363.4,276.382Z" transform="translate(-361.981 -268.93)"/></g><path class="g" d="M400.4,348.219l5.113,14.048a3.893,3.893,0,0,0,4.99,2.327h0a3.893,3.893,0,0,0,2.327-4.99l-5.113-14.048a1.3,1.3,0,0,0-1.669-.778l-4.869,1.772A1.3,1.3,0,0,0,400.4,348.219Z" transform="translate(-390.621 -329.116)"/><path class="h" d="M428.281,359.6l-5.113-14.048a1.3,1.3,0,0,0-1.669-.778l-2.54.924c.394-.143.913.288,1.159.964l5.113,14.048c.615,1.689.462,3.351-.292,4.1a3.9,3.9,0,0,0,1.015-.222h0A3.893,3.893,0,0,0,428.281,359.6Z" transform="translate(-406.074 -329.115)"/><path class="i" d="M415.5,370.064l-.877-2.41h0l-7.316,2.663h0l.877,2.41h0Z" transform="translate(-396.417 -348.146)"/><path class="j" d="M435.317,367.654l-3.049,1.11.877,2.41,3.05-1.11-.877-2.41Z" transform="translate(-417.107 -348.146)"/></g><g transform="translate(0 49.137)"><path class="k" d="M58.965,294.216v12.628H47.331V288.86a1.178,1.178,0,0,1,.149-.593c.723-1.25,3.844-.8,6.973,1.009C57.143,290.829,58.965,292.876,58.965,294.216Z" transform="translate(-45.588 -287.56)"/><path class="l" d="M92.573,299.772v17.2h3.9V304.34C96.472,303.1,94.923,301.268,92.573,299.772Z" transform="translate(-83.096 -297.684)"/><path class="m" d="M50.526,400.351H38.869a1.731,1.731,0,0,0-1.731,1.731v15.626a1.731,1.731,0,0,0,1.731,1.731H50.526a1.731,1.731,0,0,0,1.731-1.731V402.082A1.731,1.731,0,0,0,50.526,400.351Z" transform="translate(-37.138 -381.068)"/><path class="n" d="M96.539,400.351h-3.9a1.731,1.731,0,0,1,1.731,1.731v15.626a1.731,1.731,0,0,1-1.731,1.731h3.9a1.731,1.731,0,0,0,1.731-1.731V402.082A1.731,1.731,0,0,0,96.539,400.351Z" transform="translate(-83.151 -381.068)"/><path class="o" d="M58.965,294.216a1.16,1.16,0,0,1-.151.6c-.721,1.25-3.844.8-6.973-1.009-2.69-1.553-4.509-3.6-4.509-4.942a1.178,1.178,0,0,1,.149-.593c.723-1.25,3.844-.8,6.973,1.009C57.144,290.829,58.965,292.876,58.965,294.216Z" transform="translate(-45.589 -287.56)"/><rect class="i" width="15.119" height="2.564" transform="translate(0 23.223)"/><rect class="j" width="3.899" height="2.564" transform="translate(11.22 23.223)"/></g></svg>