<svg xmlns="http://www.w3.org/2000/svg" width="80" height="80" viewBox="0 0 80 80"><defs><style>.a{fill:#ff757c;}.b{fill:#0e7886;}.c{fill:#15bdb1;}.d{fill:#fbb429;}.e{fill:#fff;}.f{fill:#c8cacc;}</style></defs><path class="a" d="M40,80A40,40,0,1,0,0,40,40.077,40.077,0,0,0,40,80Z"/><path class="b" d="M64.6,127.644c19.426,0,35.171,16.642,35.171,37.171q0,1.934-.183,3.817C92.875,181.774,79.726,190.7,64.6,190.7s-28.272-8.928-34.988-22.069q-.182-1.882-.183-3.818C29.431,144.285,45.178,127.644,64.6,127.644Z" transform="translate(-24.603 -110.702)"/><path class="c" d="M90.994,172.946a37.6,37.6,0,0,1,12.657,22.585,3.329,3.329,0,0,1-.323-.733,6.65,6.65,0,0,1-1.518.4l-.036.052c-.322.486.016.28-.55.787a17.351,17.351,0,0,1-1.866,1.905,14,14,0,0,1-.135,2.049c-.079.372-.473,1.372-.934,1.3a10.3,10.3,0,0,1-.911-2.1,17.854,17.854,0,0,1-.708-2.2c-.1-.468-.169-1.363-.27-1.678-.483.076-.462.4-.923.058-.326-.249-.179-.4-.36-.772-.382-.381-.776-.762-1.169-1.144-.3-.1-1.474.076-1.97.019-.888-.086-.966-.029-1.495-.781-.935.049-.855.419-1.767-.41-.6-.534-.483-1.391-1.349-.905-.033.781.327.954.653,1.315a2.584,2.584,0,0,1,.652.838c.011.011.068.362.08.41.844.058,1.046-.371,1.507-.733.45.447.011.524.664.876.517.277.416.115.753.562.169.6-1.157,2.23-1.6,2.526-.337.229-.516.1-.821.361-.45.4.057.344-.73.649a9.816,9.816,0,0,1-2.565,1.068c-.191-.554-.382-1.115-.574-1.677-.563-1.916-.54-1.172-1.114-2.163-.27-.43-.158-.705-.337-1.087-.125-.286-.314-.41-.484-.762-.258-.543-.561-1.391-1.158-1.306a6.125,6.125,0,0,0,.719,2.229c.169.353.439.505.518,1.011.112.695-.022.609.337,1.075.754.962-.034.791,1.137,1.734.877.706.653.915,1.023,1.859.574.17,2.283-.638,2.575-.4.349.657-.4,1.7-.6,2.277-.63,1.916-1.733,1.888-2.576,3.355a13.926,13.926,0,0,0-1.1,1.85c-.484,1.077.978,4.059.1,5.309-.191.285-.81.457-1.586,1.325-.822.943.022.781-.293,2.353-.247.362-.551.381-.854.64a7.053,7.053,0,0,1-.214,1.124c-.2.552-.236.257-.529.705a6.669,6.669,0,0,1-.438.819,3.243,3.243,0,0,1-.528.572,4.388,4.388,0,0,1-3.262.848c-.5-.447-.158-.562-.281-1.19a5.44,5.44,0,0,0-.629-1.443l-.024-.044a3.374,3.374,0,0,1-.27-.6c-.405-1.353-.258-2.381-.967-3.754-.889-1.773.494-2.7.438-3.7-.022-.267-.112-.429-.135-.639a5.719,5.719,0,0,0-.966-2.964c-.766-.943-.664-.61-.417-2.163.314-1.782-.4-1.325-1.417-1.372-.5-1.619-1.463-.83-2.43-.352-.608.295-.832-.086-1.519.019-1.53.219-.326.915-2.374-.8-.855-.715-.281-.353-.787-1.249a12.972,12.972,0,0,0-.923-1.078c-.776-1.029.147-2.068.011-3.249-.236-2.192-.574-.286.585-2.936.608-1.41,1.53-1.419,1.767-2.049.2-.562.067-.962.45-1.477.337-.419.822-.333,1.013-.991.27-.81-.248-.914-.81-.934-.236-.848-.236-.639-.057-1.42.1-.439.011-.649.1-1.087.225-1.1,1.991-.009,2.5-.458a1.336,1.336,0,0,0,0-1.372c-.282-.448-.653-.391-.844-.819.428-.3.112-.038.483-.124.438-.1.382-.239.9-.343.462-.1.755-.543,1.2-.848.641-.439.337-.83,1.114-.962,1.248-.23.438-.191.574-1.421.191-.076.37-.163.55-.248.394.543-.1.324.371.686.124-.076.27-.152.405-.227-.068-.592-.326-.477-.495-1.21-.619.1-.844.657-1.338.457s-.506-.924-.483-1.534c.18-.457,1.079-.7,1.427-.82.564-.2.484-.6,1-1.144.675-.714.18.01.506-.914.743-.03.394-.058.832-.3l.022-.009.045-.02c.259-.124.6-.152.934-.276a2.9,2.9,0,0,1,2.643.17c.7.305,2.8.315,2.959,1.249-.506.561-.989.152-1.721.2.135.724.191.724.81.924.1-.343-.045-.209.124-.429.2.048.405.086.607.125.2-.734.439-.629,1.126-.715-.113-.505-.237-.362.022-.762.71.077.135.011.484.611.495-.067.979-.649,1.664-.725.428-.048.405.124,1.012.057.495-.057.472-.248.968-.028.179-.353,0-.344.438-.429.674-.124,1.26.314,1.912.41-.483-.628-.945-.505-.348-1.553.753-.162.821-.048,1.147.553a4.428,4.428,0,0,0,.355-.277ZM53.159,224.354h0q-1.755-.812-3.418-1.794c-.014-.049-.026-.1-.037-.163-.168-1.059.259-1.173-.214-2.936-.31-1.166-.185-3.929-.514-5.345a2.349,2.349,0,0,0-.195-.564c-.3-.533-1.046-.78-1.641-1.21a.1.1,0,0,1-.067-.038c-.822-.61-1.6-3-2.25-3.9-.3-.43-.494-.24-.63-.915-.146-.619.079-.514.271-1.03-1-1.944,1.293-1.916.822-4.25a2.654,2.654,0,0,0-.641-1.218c-.473.219-.249.342-.5.762-.382-.229-.764-.458-1.135-.686-1.159-1.182-.541-.325-.866-1.1-.7-1.62-1.362-.714-2.194-1.515-.372-.334-.439-.859-1.057-.762-.934.133-.417.286-1.384-.192a9.4,9.4,0,0,1-2.25-1.439c-.022-.858.271-.9-.236-1.7a4.337,4.337,0,0,0-.293-.418,37.663,37.663,0,0,1,10.627-19.439,3.668,3.668,0,0,0,1.354.034c.145-.286.236-.534.495-.639a.975.975,0,0,1,.393-.038c.022.142.057.286.09.428,0,.011.023.105.011.086.011-.02.022.057.033.085.71-.438.113-.448.495-1.239-.6-.124-.517-.049-.889-.449a1.989,1.989,0,0,1,1.575-.524c-.034.382-.2.372-.067.7.4-.267.686-.981,1.338-.848.124.095.271.181.405.267-.338.333-.844.353-1.282.543-.192,2.069.619.334.348,1.754a1.487,1.487,0,0,0,1.136-.791c-.18-.248-.439-.248-.584-.543a1.344,1.344,0,0,1,.7-.842,1.821,1.821,0,0,1,.822-.178c3.577.029,1.878.2,2.981.734.247.114.685.172.832.4.225.362.011.7.371.991.315.248.36-.01.776.544a.79.79,0,0,1-.742.648c-.607.009-.248-.43-.9-.362.012.647.619.9.056,1.248-.495.315-.18-.114-.551.105-.011.01-.045.029-.056.039a.313.313,0,0,0-.057.067c-.067.076-.124.143-.179.211-.9-.258-.731-.143-1.271-.772-.2-.238-.236-.3-.6-.267-.225.009-.517.114-.731-.1.439-.581.653-.019,1.294-.363a8.362,8.362,0,0,0,.934-.772c-.191-.458-.023-.077-.3-.372-.63-.676-.811-.505-1.664-.505a6.116,6.116,0,0,1-1.136,1.354.994.994,0,0,1-.991.009c.191.82.686.191.73,1.181-.326-.067-.495-.239-.832-.114-.72.286-.079.257-.023.41,0,.01.337.048,0,.181-.372.142-.057-.076-.776-.524.1-.19.2-.39.3-.59a14.414,14.414,0,0,0-2,.848,8.98,8.98,0,0,0-1.947,1.306c-.011.715.112.238.18,1.087,1.046.066.708.4,1.755.714a7.947,7.947,0,0,0,.776.172c0,.534-.45.934-.136,1.488.731.542.753-.515.934-1.191,2.476-.547,1.283-1.317,1.922-2.758a3.238,3.238,0,0,1,.428-.693c.191.01.967.1,1.136.133.563.1.259.248.867.534-.011.515-.258,1.182.461,1.059.551-.1.428-.562,1.1-.677a7.048,7.048,0,0,1,.36,1.982c1.62.668.9,1.21.584,2.46.2.1.416.2.63.295-.011.362-.023.715-.034,1.068-.034,0-1.733-.392-1.845-.429.258-.782.731-.791,1.035-1.591-.607.114-.563.314-1,.457a6.1,6.1,0,0,1-1.113.1c-.146.514-.011-.449.034.208.022.249.135.011-.023.277-.563-.277-.371-.924-1.417-.324.236.114.472.219.72.324-.033.733-.089.18-.236.667-.36,1.248.978.476,1.327.41-.09.658-.473.658-1.013.838-.6.191-.776.449-1.248.563,0-.782-.112-.124.213-.667a4.065,4.065,0,0,0-1.271.477l-.044.018c-.578.249-.665.286-.732,1.068a3.272,3.272,0,0,0-1.417.725c-.348.352-.7.7-1.036,1.047-.033.029-.057.058-.077.077.124.981,0,1-.564,1.383a6.113,6.113,0,0,0-1.068.724c-1.406,1.334-.73.714-.653,3.011-.292-.095-.573-.2-.843-.3-.214-1.525.078-1.019-1.08-1.372-1.249-.381-1.081.267-1.6.381-.574.133-.855-.553-1.687.019-.461.333-.9.552-1.012,1.143a7.521,7.521,0,0,0-.394,2.03c.08,2.145,1.924,2.268,2.4,1.268.314-.667.236-1.029,1.26-.858a2.794,2.794,0,0,1-.192,1.43c-.089.257-.337.724-.213,1.078.731.315.753-.277,1.721.333.068,1.019-.438,2.163.3,2.754.573.448.607.048,1.113-.047.563-.1.462.267.98.353a1.311,1.311,0,0,0,.36-.611c.337-.808.427-.428,1.226-.923.078-.048.145-.1.225-.153.089.2.191.391.28.581.585-.734.653-.019,1.328.181a2.515,2.515,0,0,0,.657.117c.491.008.541-.245,1.21.006a2.044,2.044,0,0,0,.271.1c.011,0,.044.019.044.039l.057.049a2.86,2.86,0,0,1,.214.409l1.372,1.391c.888.372.888-.324,1.9.714.428.429.236.42.472.972.034.086.1.171.146.277.09.258.191.5.293.752.461.639,1.091.239,1.732.9.371.381.09.267.911.419,1.271.219.777.1,1.744.868.371.286.461.124.809.371a1.843,1.843,0,0,1-.044,2.116c-1.249,1.925-.822,1.61-.878,3.136-.045.876-.281,2.687-1.058,2.906-2.823.84-1.181,1.421-1.923,2.9-.213.42-.372.524-.506.859-.561,1.39-.168,1.858-1.833,1.544.158.295.057.095.214.361.495.81.574,1.421-.439,1.619-.844.172-.483,0-.562.991-.327.143-.473,0-.686.229l.08.157Zm-7.413-50.207h0c.218-.03.217-.13.787-.277a.57.57,0,0,0-.124-.276l-.018-.038c-.217.194-.433.392-.645.591ZM75.813,185.2h0l-.022-.017a1.86,1.86,0,0,1-.224-.18c-.495-.468-.6-.886-1.147-.781a.857.857,0,0,0,.247.743c.765,1.01.529.668,1.124,1.039l.022.014a6.293,6.293,0,0,1,.529.377c-.765.713-.056.79-.529,1.028l-.022.011a1.07,1.07,0,0,0-.123.057c-.158-.42.191-.219-.214-.829a1.739,1.739,0,0,0-.787-.583c-.878-.438-.765-.78-1.3-1.353-.608.02-.472.22-.9.449-.517.266-.438-.047-1.046.009-.495.925.213.153-.686.915-1.08.886-.191,1.81-1.923,2.088a1.054,1.054,0,0,0-.292.047c-.327.124-.136.019-.327.219.147.363-.056.3.529.391,1.069.152,1.2-.543,1.98-.715a23.557,23.557,0,0,1,2.946-.143c.517.611.09,1.04.09,1.554.564.314,1.361.391,1.688.715.371.371.191.314.371.38l.022.008c.068.021.166.058.338.126.45.161.427.257.91.295.439-1.554-.011-1.391,2.1-.677,2.2.764,1.215.067,2.149.172.462.049.338.2.979.114.123-.267,1.034-2.688-.147-2.382-.349.095-.112.228-.607.095-.517-.142-.022-.247-.6-.162s-1.238.611-1.677-1.19c-.168-.649-.473-1.21-1.169-.23.18.333.3.362.506.687a4.405,4.405,0,0,1-.314.41c-.382.4.158.21-.461.295-.337-.267-.269-.61-.6-1.086-.574-.887-.2-.477-.495-1.325a8.48,8.48,0,0,0-.923-.583h0Zm12.013,25.657h0c-.494.267-.562.878-.933,1.22-.4.391-.945.211-1.1.934-.2.9.337.629-.258,1.81a2.219,2.219,0,0,0,.1,1.859c.978,1,1.507-1.525,1.732-2.316.169-.562.327-1.2.506-1.725A1.722,1.722,0,0,0,87.826,210.855Zm-1.619-26.589h0a3.214,3.214,0,0,0,1.192,2.144,4.806,4.806,0,0,0-.169,1.181,1.673,1.673,0,0,0,1.677.468c.1-.934-.18-.887-.45-1.525a.959.959,0,0,1,.191-.19c.2-.286.1.114.2-.372-.529-.18-1.384-.753-1.45-1.5.258-.219.18-.086.37-.219.416-.286.1.152.349-.334-.213-.438-.45-.515-.967-.3a6.782,6.782,0,0,0-.945.648Zm-4.6.305h0c-.348-.514-.327-.772-1-.791a3.644,3.644,0,0,0-.73,1.229c-.225.705-.067.219-.045.982a.267.267,0,0,0,0,.1c-.011.457-.113-.086-.045.333.529-.115.125-.105.519-.239a5.773,5.773,0,0,1,1.833-.409c.776.19,1.428.839,2.306.19-.046-.829-.991-1.144-1.643-1.506.034-.762.225-.161.18-.9a1.063,1.063,0,0,0-.574.048c-.506.238-.225.305-.225.391.022.409.506-.086-.011.42a.985.985,0,0,1-.563.152h0ZM68.468,178.8h0c-.022,1.334.417.886.832,1.544-.191.562-.225.124-.438.7-.191.486.044.049-.08.9a11.133,11.133,0,0,0,1.238-.142c.608-.058.6-.114.81-.772-.337-.438-.675-.877-1.023-1.315-.44-.706,0-.22-.135-.811-.1-.21-.192-.418-.281-.629A1.648,1.648,0,0,0,68.468,178.8Z" transform="translate(-29.036 -147.855)"/><path class="d" d="M368.051,187.356l-.36-.36-1.484-1.484-.36-.36c-1.171.444-2.636,2.363-3.214,3.574l.18.18,1.484,1.484.18.18c1.211-.579,3.13-2.044,3.574-3.214Z" transform="translate(-306.167 -156.322)"/><path class="e" d="M380.132,187.356l-.36-.36-1.484-1.484-.36-.36a3.223,3.223,0,0,0-.843.517l2.53,2.53a3.222,3.222,0,0,0,.517-.843h0Z" transform="translate(-318.276 -156.276)"/><path class="d" d="M383.2,230.361l-.36-.36-1.484-1.484-.36-.36c-1.171.444-2.636,2.363-3.214,3.574l.18.18,1.484,1.484.18.18c1.211-.579,3.13-2.044,3.574-3.215Z" transform="translate(-318.954 -192.63)"/><path class="e" d="M395.277,230.366l-.36-.359-1.484-1.484-.36-.359a3.184,3.184,0,0,0-.843.517l2.53,2.53a3.2,3.2,0,0,0,.517-.843h0Z" transform="translate(-331.059 -192.58)"/><path class="d" d="M270.952,90.26l.36.36L272.8,92.1l.36.36c-.444,1.171-2.363,2.636-3.574,3.215l-.18-.18-1.484-1.484-.18-.18c.579-1.21,2.044-3.13,3.214-3.574Z" transform="translate(-226.047 -76.205)"/><path class="e" d="M283.036,90.26l.36.36L284.88,92.1l.36.36a3.173,3.173,0,0,1-.517.843l-2.53-2.53A3.173,3.173,0,0,1,283.036,90.26Z" transform="translate(-238.183 -76.183)"/><path class="d" d="M227.946,75.117l.36.36,1.484,1.484.36.36c-.444,1.171-2.363,2.636-3.574,3.214l-.18-.18-1.484-1.484-.18-.18c.579-1.21,2.044-3.13,3.214-3.574Z" transform="translate(-189.738 -62.792)"/><g transform="translate(24.097 11.301)"><path class="e" d="M240.031,75.12l.36.36,1.484,1.484.359.36a3.19,3.19,0,0,1-.516.843l-2.531-2.53A3.165,3.165,0,0,1,240.031,75.12Z" transform="translate(-226.567 -74.097)"/><path class="e" d="M170.452,103.357l4.353,6.189,1.388-1.679-2.464-6.509a13.022,13.022,0,0,0,1-.882c1.271-1.144,6.859-6.28,11.919-10.394l14.574,20.6,1.329-1.329L194.5,83.678c3.293-2.714,5.84-4.879,6.527-5.664,2.1-2.4,4-5.6,2.5-8.592-3-1.5-6.195.4-8.592,2.5-.785.687-2.949,3.234-5.664,6.527L163.587,70.39l-1.329,1.329,20.6,14.574c-4.113,5.061-9.25,10.647-10.394,11.919a12.647,12.647,0,0,0-.882,1l-6.509-2.464L163.4,98.137l6.189,4.353c-.672,1.156-.289,1.539.867.867h0Z" transform="translate(-162.258 -68.885)"/></g><g transform="translate(24.228 12.399)"><path class="f" d="M212.205,277.357l4.353,6.189.335-.4-4.22-6.108-.468.323h0Z" transform="translate(-204.01 -245.206)"/><path class="f" d="M169.6,245.141l-.4.335,6.189,4.353.323-.468-6.108-4.221Z" transform="translate(-168.056 -218.546)"/><path class="f" d="M310.931,194.51l14.574,20.6.512-.513-14.226-20.792Z" transform="translate(-286.539 -175.634)"/><path class="f" d="M162.765,83.036l-.512.513,20.6,14.574.7-.861L162.764,83.037Z" transform="translate(-162.253 -83.036)"/></g><path class="c" d="M388.144,75.894a2.532,2.532,0,0,0-1.048-.626l-.24.671a3.6,3.6,0,0,1,1.244,1.244l.671-.24a2.542,2.542,0,0,0-.626-1.048h0Zm-1.584-.74h0a4.108,4.108,0,0,0-1.947.278,3.805,3.805,0,0,1,1.753.262Zm1.784,2.518h0a3.8,3.8,0,0,1,.262,1.753,4.1,4.1,0,0,0,.278-1.947Z" transform="translate(-324.68 -62.805)"/><path class="e" d="M135.509,287.039l.005-.005.088-.085.087-.084.089-.086.089-.086.089-.086.089-.086.089-.086.09-.086.091-.087.09-.087.091-.088.091-.089.092-.089.092-.089.092-.089.093-.089.093-.09.093-.09.094-.091.094-.092.095-.092.095-.092.095-.093.1-.093.1-.093.1-.094.1-.094.1-.095.1-.1.1-.1-.542-.552-.1.095-.1.095-.1.094-.1.095-.1.093-.095.093-.095.093-.095.092-.094.092-.094.091-.094.091-.093.091-.093.09-.093.09-.092.089-.092.089-.092.089-.092.088-.091.089-.091.088-.091.087-.09.087-.09.086-.089.086-.089.086-.089.086-.089.086-.088.085-.088.086-.088.084-.005.005.536.557Zm43.324-.319h0l-.092.24-.092.236-.092.233-.092.229-.092.226-.093.222-.092.219-.092.215-.093.212-.093.208-.092.206-.093.2-.093.2-.093.2,0,.009.695.34.007-.014.1-.2.1-.2.095-.207.1-.21.095-.213.095-.217.095-.22L179,288.4l.094-.226.095-.23.093-.233.094-.236.093-.24.093-.244-.723-.274Zm-2.377,5.07h0l-.048.079-.095.156-.095.153-.095.151-.1.147-.1.144-.1.142-.1.139-.1.136-.1.133-.1.131-.1.128-.1.126-.1.123-.1.12-.1.118-.1.115-.1.113-.1.11-.1.108-.1.105-.1.1-.1.1-.1.1-.017.017.542.552.023-.023.1-.105.1-.108.1-.11.1-.112.1-.114.1-.117.1-.12.1-.122.1-.125.1-.126.1-.13.1-.132.1-.134.1-.137.1-.14.1-.142.1-.146.1-.148.1-.151.1-.153.1-.156.1-.159.1-.162.047-.08-.663-.4Zm-4.012,4.388h0l-.1.06-.1.058-.1.056-.1.055-.1.053-.1.051-.1.05-.1.048-.1.046-.1.045-.1.043-.1.042-.1.04-.1.039-.1.037-.1.036-.1.035-.1.033-.1.033-.1.03-.1.03-.1.029-.1.027-.1.026-.1.024-.1.023-.1.022-.1.021-.1.02-.1.019-.105.018-.105.017-.105.016-.106.015h-.006l.1.768.013,0,.114-.016.113-.017.112-.018.113-.019.113-.021.113-.021.112-.023.112-.024.111-.025.112-.027.112-.028.112-.03.112-.03.111-.032.111-.033.111-.035.111-.036.111-.038.111-.039.11-.041.111-.042.11-.044.11-.045.11-.048.11-.049.109-.051.109-.052.109-.054.109-.056.109-.058.108-.06.108-.061.108-.063.108-.065h0l-.4-.659ZM166.7,297.5h-.349l-.113,0-.113,0-.113,0-.114,0-.114,0-.114,0-.114,0-.114,0-.114,0-.115,0-.116,0-.116,0-.116,0-.116-.005-.116,0-.117,0-.117,0-.117,0-.117,0-.117,0-.118,0-.118,0-.119,0-.119,0-.119,0-.12,0-.12,0-.12,0-.12,0-.12,0h-.012l-.014.774h.011l.118,0,.118,0,.118,0,.117,0,.118,0,.118,0,.117,0,.117,0,.117,0,.117,0,.117,0,.117,0,.117,0,.117,0,.117,0,.117,0,.117,0,.117,0,.117,0,.116,0,.116,0,.117,0,.115,0,.116,0,.116,0,.116,0,.116,0,.116,0,.115,0,.115,0h.358l0-.774Zm-6.217-.069h0l-.1.008-.126.011-.127.011-.126.012-.127.013-.127.014-.127.015-.127.016-.128.017-.128.019-.129.02-.129.021-.129.021-.129.023-.13.024-.13.025-.13.027-.13.028-.13.03-.131.031-.131.033-.132.033-.131.034-.132.036-.132.038-.132.039-.133.041-.133.043-.133.044-.133.046-.017.006.262.728.011,0,.126-.043.125-.041.125-.04.125-.039.125-.036.125-.036.124-.034.124-.033L158,298.6l.124-.03.124-.03.124-.027.124-.027.123-.025.123-.024.124-.023.123-.021.123-.021.123-.02.122-.018.123-.017.122-.017.122-.015.122-.014.121-.014.121-.013.122-.012.12-.011.121-.01.1-.008-.061-.771Zm-6.055,1.76h0l-.1.058-.137.079-.137.081-.137.083-.138.086-.137.087-.138.089-.137.091-.138.094-.138.1-.139.1-.139.1-.138.1-.139.1-.139.108-.139.11-.139.112-.139.114-.139.117-.14.119-.14.123-.139.124-.14.126-.035.033.527.566.03-.027.135-.123.135-.12.134-.117.134-.114.133-.112.134-.11.133-.108.133-.1.133-.1.133-.1.133-.1.132-.1.132-.093.132-.092.131-.089.131-.087.131-.085.131-.083.13-.08.13-.079.13-.076.13-.075.1-.058-.383-.673Zm-4.833,4.019h0l-.014.014-.142.162-.139.159-.139.157-.139.155-.138.153-.138.152-.138.149-.137.147-.137.146-.136.144-.136.142-.136.14-.136.138-.136.136-.136.134-.135.133-.135.131-.134.129-.134.127-.026.023.527.566.029-.027.138-.13.138-.132.138-.133.138-.136.139-.138.139-.139.139-.142.139-.142.139-.145.14-.146.139-.148.14-.151.14-.152.141-.154.141-.156.141-.158.142-.16.142-.161.138-.158.014-.014-.579-.513Zm-4.372,4.269h0l-.093.074-.129.1-.13.1-.129.1-.129.1-.128.095-.127.092-.127.091-.127.089-.126.088-.126.086-.126.085-.126.083-.125.082-.125.08-.125.078-.124.077-.124.075-.124.074-.123.072-.123.071-.123.069-.122.068-.122.066-.121.065-.058.03.355.688.064-.033.127-.068.127-.069.127-.071.128-.073.128-.073.128-.075.129-.077.129-.078.13-.08.13-.082.13-.083.13-.085.13-.086.131-.088.131-.089.132-.091.132-.093.132-.095.133-.1.133-.1.133-.1.133-.1.134-.1.133-.1.092-.073-.478-.609Zm-5.238,2.971h0l-.1.033-.114.036-.114.035-.113.034-.112.033-.112.031-.111.03-.111.029-.111.027-.11.026-.11.024-.11.023-.109.022-.108.021-.108.02-.108.019-.107.017-.107.016-.107.015-.106.014-.105.013-.105.011-.1.011-.1.009-.1.008-.1.007-.1.005-.1,0-.1,0-.1,0h-.44l-.028.773h.048l.108,0h.327l.11,0,.11,0,.111,0,.112-.007.111-.008.112-.008.112-.01.113-.011.114-.013.114-.014.114-.015.114-.016.115-.017.115-.019.116-.021.116-.021.117-.023.117-.023.117-.025.117-.027.118-.028.118-.029.118-.03.119-.032.12-.033.12-.035.12-.036.12-.037.12-.039.1-.033-.239-.736Zm-5.862.24h0l-.038-.011-.089-.026-.088-.027-.089-.028-.088-.029-.088-.03-.087-.03-.086-.031-.086-.033-.086-.033-.085-.034-.085-.035-.084-.036-.083-.036-.083-.037-.083-.039-.082-.039-.082-.039-.082-.04-.08-.041L132.4,310l-.08-.043-.08-.043-.079-.045-.078-.045-.078-.045-.078-.047-.076-.047-.077-.048-.076-.049-.076-.049-.075-.05-.075-.05-.074-.052-.074-.052-.073-.053-.073-.053-.072-.054-.071-.055-.071-.055-.071-.055-.032-.026-.487.6.036.03.076.06.076.059.077.058.078.058.078.058.079.056.08.056.08.055.08.054.081.054.082.053.082.052.083.052.083.051.083.05.085.049.085.049.086.048.086.047.086.046.087.045.088.045.088.043.089.043.089.042.089.041.09.04.091.039.092.039.091.038.092.037.093.036.093.035.094.035.095.033.095.033.1.031.1.03.1.03.1.029.038.011.215-.743Zm-4.856-3.286h0l-.032-.039-.056-.07-.056-.07-.055-.071-.055-.071-.054-.071-.053-.071-.053-.072-.052-.073-.052-.073-.052-.073-.05-.074-.05-.073-.049-.074-.049-.074-.049-.075-.047-.075-.047-.076-.046-.076-.045-.076-.045-.076-.045-.076-.044-.077-.043-.076-.042-.077-.042-.078-.042-.077-.041-.078-.041-.078-.039-.079-.039-.078-.039-.079-.038-.08-.037-.08-.036-.08-.036-.08-.036-.08-.035-.08-.034-.08-.033-.08-.033-.08-.033-.08-.027-.067-.721.28.029.074.034.086.035.086.036.086.036.085.036.085.038.086.039.085.039.085.039.084.04.084.041.084.042.084.042.083.042.083.043.083.045.083.045.082.045.083.046.082.047.082.048.081.048.081.049.081.049.08.049.08.051.08.051.08.052.08.052.079.053.078.054.078.055.078.055.077.056.077.056.077.057.076.058.076.058.076.058.075.059.075.06.075.033.039.6-.488Zm-2.493-5.382h0a9.286,9.286,0,0,1,.01-3.689l-.756-.167a10.044,10.044,0,0,0-.015,3.995l.761-.14Zm.743-5.789h0a15.78,15.78,0,0,1,2.084-3.138l-.6-.493a16.37,16.37,0,0,0-2.183,3.293Zm3.605-4.857h0l.005-.005.066-.07.066-.07.067-.07.067-.071.067-.071.067-.071.068-.071.069-.071.069-.071.069-.071.07-.071.071-.072.071-.072.071-.072.071-.072.072-.073.073-.074.073-.073.073-.073.074-.073.074-.074.075-.074.075-.074.075-.074.076-.075.076-.075.076-.075.077-.076.077-.076.077-.076.078-.076.078-.076.079-.076.079-.077.08-.077.08-.077.08-.078.005,0-.54-.555-.005.005-.08.078-.08.078-.08.077-.08.078-.079.076-.079.077-.078.076-.078.076-.077.076-.077.076-.077.076-.077.076-.076.075-.076.076-.075.075-.075.074-.075.075-.074.074-.073.074-.074.074-.073.073-.073.074-.072.073-.072.073-.071.073-.071.073-.071.073-.071.072-.07.072-.07.072-.069.072-.069.072-.068.071-.067.071-.068.071-.067.071-.067.071-.005.006.564.53v0Z" transform="translate(-109.182 -241.231)"/></svg>