<svg xmlns="http://www.w3.org/2000/svg" width="85.099" height="65.894" viewBox="0 0 85.099 65.894"><defs><style>.a{fill:#ff592a;}.b{fill:#f63511;}.c{fill:#fff;}.d{fill:#848489;}.e{fill:#545353;}</style></defs><path class="a" d="M126.357,0a19.792,19.792,0,0,0-15.448,7.435,1.468,1.468,0,0,1-2.288,0,19.834,19.834,0,0,0-35.314,12.36c-.038,20.57,27.677,40.743,34.8,45.59a2.942,2.942,0,0,0,3.309,0c7.127-4.847,34.84-25.02,34.8-45.59A19.891,19.891,0,0,0,126.357,0Zm0,0" transform="translate(-61.123 0)"/><path class="b" d="M201.441.332a1.466,1.466,0,0,0,1.929.234Q202.42.4,201.441.332Zm0,0" transform="translate(-167.96 -0.277)"/><path class="c" d="M127,99.917a1.283,1.283,0,0,1-1.227-.91l-3.9-12.8H110.2a1.283,1.283,0,1,1,0-2.566h12.626a1.283,1.283,0,0,1,1.227.909L127,94.228l4.3-14.14a1.283,1.283,0,0,1,2.455,0l1.863,6.12H146.9a1.283,1.283,0,1,1,0,2.567H134.67a1.283,1.283,0,0,1-1.228-.91l-.912-3-4.3,14.14a1.283,1.283,0,0,1-1.228.91Zm0,0" transform="translate(-90.812 -66.019)"/><path class="d" d="M59.535,246.176h36.23v7.941H59.535Zm0,0" transform="translate(-49.64 -205.259)"/><g transform="translate(0 32.85)"><path class="d" d="M266.793,221.843H263.9a1.662,1.662,0,0,1-1.662-1.662V199.3a1.662,1.662,0,0,1,1.662-1.662h2.892a1.662,1.662,0,0,1,1.662,1.662v20.877A1.662,1.662,0,0,1,266.793,221.843Zm0,0" transform="translate(-218.652 -197.641)"/><path class="d" d="M304.2,234.166H301.3a1.662,1.662,0,0,1-1.662-1.662V217.764A1.662,1.662,0,0,1,301.3,216.1H304.2a1.662,1.662,0,0,1,1.662,1.662V232.5A1.662,1.662,0,0,1,304.2,234.166Zm0,0" transform="translate(-249.837 -213.033)"/><path class="d" d="M39.064,197.641h2.893A1.662,1.662,0,0,1,43.62,199.3v20.877a1.662,1.662,0,0,1-1.662,1.662H39.064a1.663,1.663,0,0,1-1.662-1.662V199.3A1.662,1.662,0,0,1,39.064,197.641Zm0,0" transform="translate(-31.186 -197.641)"/><path class="d" d="M1.662,216.1H4.555a1.662,1.662,0,0,1,1.662,1.662V232.5a1.662,1.662,0,0,1-1.662,1.662H1.662A1.662,1.662,0,0,1,0,232.5V217.764A1.662,1.662,0,0,1,1.662,216.1Zm0,0" transform="translate(0 -213.034)"/></g><path class="e" d="M275.766,197.641h-2.645a1.763,1.763,0,0,1,1.763,1.763V220.08a1.763,1.763,0,0,1-1.763,1.763h2.645a1.763,1.763,0,0,0,1.763-1.763V199.4A1.763,1.763,0,0,0,275.766,197.641Zm0,0" transform="translate(-227.726 -164.791)"/><path class="e" d="M313.172,216.1h-2.645a1.763,1.763,0,0,1,1.763,1.763V232.4a1.763,1.763,0,0,1-1.763,1.763h2.645a1.763,1.763,0,0,0,1.763-1.763V217.865A1.763,1.763,0,0,0,313.172,216.1Zm0,0" transform="translate(-258.914 -180.184)"/><path class="e" d="M50.934,197.641H48.289a1.763,1.763,0,0,1,1.763,1.763V220.08a1.763,1.763,0,0,1-1.763,1.763h2.645A1.763,1.763,0,0,0,52.7,220.08V199.4A1.763,1.763,0,0,0,50.934,197.641Zm0,0" transform="translate(-40.263 -164.791)"/><path class="e" d="M13.528,216.1H10.883a1.763,1.763,0,0,1,1.763,1.763V232.4a1.763,1.763,0,0,1-1.763,1.763h2.645a1.763,1.763,0,0,0,1.763-1.763V217.865A1.763,1.763,0,0,0,13.528,216.1Zm0,0" transform="translate(-9.074 -180.184)"/></svg>