<?xml version="1.0" encoding="iso-8859-1"?>
<!-- Generator: Adobe Illustrator 19.0.0, SVG Export Plug-In . SVG Version: 6.00 Build 0)  -->
<svg version="1.1" id="Layer_1" xmlns="http://www.w3.org/2000/svg" xmlns:xlink="http://www.w3.org/1999/xlink" x="0px" y="0px"
	 viewBox="0 0 401.342 401.342" style="enable-background:new 0 0 401.342 401.342;" xml:space="preserve">
<g>
	<rect x="22.309" y="28.618" style="fill:#6EBEFF;" width="356.725" height="344.107"/>
	<rect x="22.309" y="356.451" style="fill:#2278B2;" width="356.725" height="5.333"/>
	<rect x="22.309" y="35.951" style="fill:#2278B2;" width="356.725" height="5.333"/>
	<rect x="149.674" y="144.781" style="fill:#2278B2;" width="101.994" height="227.943"/>
	<rect x="156.129" y="150.954" style="fill:#3496F7;" width="89.369" height="152.148"/>
	<rect x="161.218" y="157.264" style="fill:#2278B2;" width="79.188" height="139.527"/>
	<rect x="166.008" y="161.783" style="fill:#2D4151;" width="69.607" height="130.489"/>
	<rect x="155.74" y="308.464" style="fill:#3496F7;" width="89.368" height="58.072"/>
	<rect x="160.828" y="313.35" style="fill:#2278B2;" width="79.188" height="48.299"/>
	<rect x="166.828" y="319.35" style="fill:#3496F7;" width="67.188" height="36.299"/>
	<circle style="fill:#D8D4D5;" cx="200.39" cy="212.73" r="2.469"/>
	<g>
		<polygon style="fill:#C1B9BC;" points="212.34,222.087 200.43,213.067 189.068,221.865 188.732,221.432 200.427,212.378 
			212.672,221.647 		"/>
	</g>
	<path style="fill:#F93030;" d="M217.552,229.628c0,2.201-1.8,4-4,4h-25.763c-2.2,0-4-1.799-4-4v-5.293c0-2.199,1.8-4,4-4h25.763
		c2.2,0,4,1.801,4,4V229.628z"/>
	<g>
		<path style="fill:#FAFCFC;" d="M192.616,222.725c0.601,0,1.112,0.213,1.533,0.636s0.631,0.933,0.631,1.529v4.935
			c0,0.602-0.212,1.112-0.635,1.533s-0.933,0.631-1.529,0.631c-0.601,0-1.111-0.211-1.529-0.635
			c-0.418-0.423-0.628-0.933-0.628-1.529v-4.935c0-0.601,0.212-1.112,0.635-1.533C191.516,222.936,192.024,222.725,192.616,222.725z
			 M193.359,224.86c0-0.217-0.076-0.4-0.227-0.553c-0.152-0.151-0.335-0.227-0.552-0.227c-0.216,0-0.401,0.075-0.555,0.227
			c-0.154,0.152-0.231,0.336-0.231,0.553v4.949c0,0.216,0.077,0.4,0.231,0.551c0.154,0.152,0.339,0.228,0.555,0.228
			c0.217,0,0.4-0.075,0.552-0.228c0.151-0.15,0.227-0.335,0.227-0.551V224.86z"/>
		<path style="fill:#FAFCFC;" d="M198.134,222.839c0.664,0,1.193,0.209,1.587,0.628c0.365,0.398,0.548,0.908,0.548,1.529v1.313
			c0,0.597-0.208,1.106-0.624,1.529c-0.416,0.424-0.92,0.635-1.512,0.635h-0.786v3.406h-1.364v-9.04L198.134,222.839
			L198.134,222.839z M198.95,225.02c0-0.236-0.071-0.426-0.213-0.57s-0.331-0.217-0.566-0.217h-0.822v2.894h0.822
			c0.217,0,0.4-0.077,0.552-0.231c0.151-0.153,0.227-0.338,0.227-0.555L198.95,225.02L198.95,225.02z"/>
		<path style="fill:#FAFCFC;" d="M201.359,231.882v-9.047h3.881v1.37h-2.518v2.468h1.84v1.371h-1.84v2.467h2.518v1.371H201.359z"/>
		<path style="fill:#FAFCFC;" d="M207.709,222.835l1.81,6.08v-6.08h1.364v9.047h-1.465l-1.875-5.793v5.793h-1.364v-9.047H207.709z"
			/>
	</g>
	<rect x="22.309" y="65.666" style="fill:#2278B2;" width="356.725" height="5.333"/>
	<rect x="22.309" y="112.879" style="fill:#2278B2;" width="356.725" height="5.333"/>
	<rect x="22.309" y="56.666" style="fill:#2278B2;" width="356.725" height="5.333"/>
	<rect x="31.174" y="144.781" style="fill:#2278B2;" width="110" height="199.503"/>
	<rect x="38.174" y="153.283" style="fill:#2D4151;" width="96" height="182.497"/>
	<rect x="259.423" y="144.781" style="fill:#2278B2;" width="110" height="199.503"/>
	<rect x="266.423" y="153.283" style="fill:#2D4151;" width="96" height="182.497"/>
	<rect x="38.174" y="277.53" style="fill:#3496F7;" width="96" height="6.5"/>
	<rect x="266.423" y="281.616" style="fill:#3496F7;" width="96" height="6.5"/>
	<rect x="38.174" y="205.035" style="fill:#3496F7;" width="96" height="6.5"/>
	<path style="fill:#FC7070;" d="M83.552,267.784H50.047c-2.691,0-4.873,2.182-4.873,4.873l0,0c0,2.691,2.182,4.873,4.873,4.873
		h33.504c2.691,0,4.873-2.182,4.873-4.873l0,0C88.424,269.966,86.243,267.784,83.552,267.784z"/>
	<path style="fill:#F9DF70;" d="M78.802,258.039H54.797c-2.691,0-4.873,2.182-4.873,4.873l0,0c0,2.691,2.182,4.873,4.873,4.873
		h24.004c2.691,0,4.873-2.182,4.873-4.873l0,0C83.674,260.221,81.493,258.039,78.802,258.039z"/>
	<path style="fill:#76DD91;" d="M73.552,248.292H60.047c-2.691,0-4.873,2.182-4.873,4.873l0,0c0,2.691,2.182,4.873,4.873,4.873
		h13.504c2.691,0,4.873-2.182,4.873-4.873l0,0C78.424,250.475,76.243,248.292,73.552,248.292z"/>
	<path style="fill:#FC7070;" d="M66.799,238.548L66.799,238.548c2.691,0,4.873,2.182,4.873,4.873l0,0
		c0,2.691-2.182,4.873-4.873,4.873l0,0c-2.691,0-4.873-2.182-4.873-4.873l0,0C61.927,240.729,64.108,238.548,66.799,238.548z"/>
	<g>
		<circle style="fill:#CCCCCC;" cx="289.008" cy="268.223" r="8.833"/>
		<circle style="fill:#808080;" cx="333.189" cy="261.513" r="20.1"/>
		<circle style="fill:#CCCCCC;" cx="333.189" cy="261.513" r="14.173"/>
		<path style="fill:#808080;" d="M288.894,254.936c7.37,0,13.34,5.97,13.34,13.34c0,7.36-5.97,13.34-13.34,13.34
			s-13.34-5.98-13.34-13.34C275.554,260.906,281.524,254.936,288.894,254.936z M296.494,268.276c0-4.2-3.4-7.6-7.6-7.6
			c-4.19,0-7.59,3.4-7.59,7.6c0,4.19,3.4,7.59,7.59,7.59C293.094,275.866,296.494,272.466,296.494,268.276z"/>
		<path style="fill:#E6E6E6;" d="M334.684,225.345v36.17c0,0.83-0.67,1.5-1.5,1.5c-0.82,0-1.5-0.67-1.5-1.5v-27.47
			c-19.65,0.67-36.42,14.25-41.07,33.49l-0.26,1.09c-0.17,0.69-0.78,1.15-1.46,1.15c-0.11,0-0.23-0.02-0.35-0.05
			c-0.81-0.19-1.3-1-1.11-1.81l0.27-1.08c2.22-9.2,7.03-17.19,13.56-23.28l-2.14-7.6c-0.22-0.8,0.24-1.63,1.04-1.85
			c0.8-0.22,1.63,0.24,1.85,1.04l1.75,6.24c7.73-6.24,17.44-10.01,27.92-10.34v-5.7c0-1.89-1.53-3.42-3.42-3.42h-2.08v1.44
			c0,0.83-0.67,1.5-1.5,1.5s-1.5-0.67-1.5-1.5v-1.44h-5.26c-0.83,0-1.5-0.67-1.5-1.5s0.67-1.5,1.5-1.5h5.26v-1.45
			c0-0.83,0.67-1.5,1.5-1.5s1.5,0.67,1.5,1.5v1.45h2.08C331.804,218.925,334.684,221.805,334.684,225.345z"/>
		<path style="fill:#808080;" d="M326.184,217.475v5.89c0,0.83-0.67,1.5-1.5,1.5s-1.5-0.67-1.5-1.5v-1.44h-5.26
			c-0.83,0-1.5-0.67-1.5-1.5s0.67-1.5,1.5-1.5h5.26v-1.45c0-0.83,0.67-1.5,1.5-1.5S326.184,216.645,326.184,217.475z"/>
		<path style="fill:#FC7070;" d="M308.433,231.512l-10.427-3.59c-2.106-0.725-4.401,0.394-5.126,2.5l0,0
			c-0.965,2.803,1.322,5.654,4.267,5.32l10.957-1.242C309.736,234.316,309.986,232.048,308.433,231.512z"/>
	</g>
	<g>
		<path style="fill:#76DD91;" d="M79.391,313.72H63.32c-1.654,0-2.995,1.341-2.995,2.995v16.07c0,1.654,1.341,2.995,2.995,2.995
			h16.07c1.654,0,2.995-1.341,2.995-2.995v-16.07C82.386,315.062,81.045,313.72,79.391,313.72z"/>
		<path style="fill:#A637F4;" d="M93.665,291.659h-16.07c-1.654,0-2.995,1.341-2.995,2.995v16.07c0,1.654,1.341,2.995,2.995,2.995
			h16.07c1.654,0,2.995-1.341,2.995-2.995v-16.07C96.661,293.001,95.32,291.659,93.665,291.659z"/>
		<path style="fill:#FC7070;" d="M107.94,313.72H91.87c-1.654,0-2.995,1.341-2.995,2.995v16.07c0,1.654,1.341,2.995,2.995,2.995
			h16.07c1.654,0,2.995-1.341,2.995-2.995v-16.07C110.936,315.062,109.594,313.72,107.94,313.72z"/>
		<g>
			<path style="fill:#F9DF70;" d="M99.38,325.299h-1.457c-0.304,0-0.549-0.246-0.549-0.549v-5.129c0-0.303,0.246-0.549,0.549-0.549
				h1.457c1.717,0,3.114,1.397,3.114,3.114C102.494,323.903,101.097,325.299,99.38,325.299z M98.473,324.202h0.907
				c1.111,0,2.015-0.904,2.015-2.015c0-1.111-0.904-2.016-2.015-2.016h-0.907V324.202z"/>
			<path style="fill:#F9DF70;" d="M100.489,330.428h-2.565c-0.304,0-0.549-0.246-0.549-0.549v-5.129
				c0-0.303,0.246-0.549,0.549-0.549h2.565c1.717,0,3.114,1.397,3.114,3.114C103.602,329.032,102.205,330.428,100.489,330.428z
				 M98.473,329.331h2.016c1.111,0,2.015-0.904,2.015-2.016s-0.904-2.016-2.015-2.016h-2.016V329.331z"/>
		</g>
		<path style="fill:#F9DF70;" d="M71.355,330.428c-1.717,0-3.114-1.397-3.114-3.114v-5.128c0-1.717,1.397-3.114,3.114-3.114
			c1.717,0,3.114,1.397,3.114,3.114c0,0.303-0.246,0.549-0.549,0.549s-0.549-0.246-0.549-0.549c0-1.111-0.904-2.016-2.016-2.016
			c-1.111,0-2.015,0.904-2.015,2.016v5.128c0,1.111,0.904,2.016,2.015,2.016c1.112,0,2.016-0.904,2.016-2.016
			c0-0.303,0.246-0.549,0.549-0.549s0.549,0.246,0.549,0.549C74.47,329.032,73.073,330.428,71.355,330.428z"/>
		<g>
			<path style="fill:#F9DF70;" d="M88.283,308.368c-0.244,0-0.467-0.164-0.531-0.412l-2.121-8.203l-2.121,8.203
				c-0.076,0.294-0.378,0.468-0.669,0.394c-0.294-0.076-0.47-0.376-0.394-0.669l2.653-10.258c0.124-0.485,0.938-0.485,1.063,0
				l2.653,10.258c0.076,0.294-0.1,0.593-0.394,0.669C88.374,308.363,88.328,308.368,88.283,308.368z"/>
			<rect x="83.59" y="304.901" style="fill:#F9DF70;" width="4.08" height="1.098"/>
		</g>
	</g>
	<g>
		<g>
			<rect x="104.092" y="243.018" style="fill:#FC7070;" width="19.914" height="5.9"/>
			<path style="fill:#E6E6E6;" d="M124.184,277.53h-20.27c-0.949,0-1.719-0.77-1.719-1.719v-25.175c0-0.949,0.77-1.719,1.719-1.719
				h20.27c0.949,0,1.719,0.77,1.719,1.719v25.175C125.903,276.76,125.133,277.53,124.184,277.53z"/>
			<path style="fill:#F9C032;" d="M117.121,235.792l0.152-3.41c0.082-1.838-1.385-3.372-3.225-3.372l0,0
				c-1.839,0-3.307,1.535-3.225,3.372l0.152,3.41c0.055,1.235-0.931,2.266-2.167,2.266l0,0c-1.198,0-2.169,0.971-2.169,2.169v2.789
				h14.818v-2.789c0-1.198-0.971-2.169-2.169-2.169l0,0C118.052,238.059,117.066,237.027,117.121,235.792z"/>
		</g>
	</g>
	<g>
		<path style="fill:#F9C032;" d="M91.916,205.005c0,0-13.279,0.847-19.002-6.446c-5.712-7.301-1.714-19.992-1.714-19.992
			s13.28-0.857,19.002,6.446C95.924,192.315,91.916,205.005,91.916,205.005z"/>
		
			<rect x="95.721" y="173.698" transform="matrix(-0.6167 -0.7872 0.7872 -0.6167 15.8618 366.7548)" style="fill:#F9C032;" width="3" height="11.636"/>
		<path style="fill:#76DD91;" d="M76.407,201.626c-0.185,0.211-0.393,0.407-0.622,0.587c-2.02,1.583-4.942,1.229-6.525-0.791
			s-1.228-4.942,0.793-6.525c0.229-0.18,0.47-0.334,0.719-0.463"/>
		<path style="fill:#76DD91;" d="M84.228,180.661c3.086-2.3,7.459-1.728,9.846,1.318c2.387,3.046,1.896,7.429-1.075,9.875"/>
		<g>
			<path style="fill:#FC7070;" d="M91.916,205.005L71.2,178.567c0,0,13.28-0.857,19.002,6.446
				C95.924,192.315,91.916,205.005,91.916,205.005z"/>
		</g>
		<path style="fill:#FC7070;" d="M109.206,170.121L109.206,170.121c-0.916-1.169-2.606-1.374-3.775-0.458l-4.819,3.776
			c-1.169,0.916-1.374,2.606-0.458,3.775l0,0c0.916,1.169,2.606,1.374,3.775,0.458l4.819-3.776
			C109.917,172.98,110.122,171.29,109.206,170.121z"/>
		<path style="fill:#76DD91;" d="M66.52,204.917c-0.381-0.046-0.744-0.238-1-0.564c-0.511-0.652-0.397-1.595,0.256-2.106l2.56-2.006
			c0.652-0.511,1.595-0.397,2.106,0.255c0.511,0.652,0.397,1.595-0.256,2.106l-2.56,2.006
			C67.3,204.865,66.901,204.964,66.52,204.917z"/>
	</g>
	<path style="opacity:0.2;fill:#FCFAFA;enable-background:new    ;" d="M128.816,179.65v150.984H42.445
		C42.445,330.634,118.235,306.388,128.816,179.65z"/>
	<path style="fill:#2278B2;" d="M298.963,129.042H108.548c-5.408,0-9.793-4.384-9.793-9.793V60.336c0-5.408,4.384-9.793,9.793-9.793
		h190.415c5.408,0,9.793,4.384,9.793,9.793v58.915C308.756,124.659,304.371,129.042,298.963,129.042z"/>
	<path style="fill:#CCC6AA;" d="M295.878,125.959H105.464c-5.408,0-9.793-4.384-9.793-9.793V57.251c0-5.408,4.384-9.793,9.793-9.793
		h190.415c5.408,0,9.793,4.384,9.793,9.793v58.915C305.671,121.574,301.287,125.959,295.878,125.959z"/>
	<path style="fill:#FCF6D2;" d="M105.464,121.959c-3.194,0-5.793-2.598-5.793-5.792V57.251c0-3.194,2.599-5.793,5.793-5.793h190.415
		c3.194,0,5.793,2.599,5.793,5.793v58.915c0,3.194-2.599,5.792-5.793,5.792L105.464,121.959L105.464,121.959z"/>
	<path style="opacity:0.2;fill:#FCFAFA;enable-background:new    ;" d="M357.608,179.65v150.984h-86.371
		C271.237,330.634,347.028,306.388,357.608,179.65z"/>
	<path style="opacity:0.2;fill:#FCFAFA;enable-background:new    ;" d="M231.863,180.348v108.481h-62.057
		C169.806,288.829,224.261,271.409,231.863,180.348z"/>
	<path style="fill:#CCC6AA;" d="M131.602,76.512l-5.557,0.792c-1.235,0.176-2.033,0.129-2.393-0.142
		c-0.361-0.27-0.629-1.024-0.805-2.259l-1.126-7.904c-0.176-1.235-0.129-2.032,0.142-2.393c0.27-0.36,1.023-0.629,2.258-0.805
		l26.675-3.8c1.207-0.172,1.999-0.117,2.376,0.166c0.376,0.282,0.65,1.027,0.822,2.235l1.126,7.904
		c0.176,1.235,0.128,2.033-0.142,2.394s-1.023,0.629-2.258,0.804l-5.928,0.844l5.682,39.89c0.176,1.235,0.128,2.033-0.142,2.393
		c-0.271,0.361-1.024,0.629-2.259,0.805l-9.591,1.366c-1.235,0.176-2.033,0.129-2.393-0.142c-0.361-0.27-0.629-1.023-0.805-2.258
		L131.602,76.512z"/>
	<path style="fill:#CCC6AA;" d="M185.29,60.577c4.574-0.039,8.62,1.367,12.137,4.22c6.253,5.075,9.43,13.475,9.532,25.2
		c0.079,9.176-2.019,16.499-6.297,21.969c-1.81,2.317-3.998,4.137-6.565,5.462c-2.567,1.297-5.278,1.958-8.133,1.983
		c-4.186,0.036-8.106-1.246-11.76-3.849c-6.835-4.903-10.304-13.509-10.41-25.816c-0.081-9.341,2.088-16.61,6.507-21.804
		C174.417,63.083,179.413,60.628,185.29,60.577z M185.414,74.881c-1.802,0.016-3.218,1.379-4.247,4.091
		c-1.03,2.712-1.525,6.396-1.485,11.053c0.041,4.768,0.565,8.471,1.572,11.11c1.006,2.639,2.397,3.95,4.171,3.935
		s3.162-1.337,4.166-3.965c1.002-2.629,1.484-6.243,1.445-10.845C190.947,79.976,189.073,74.85,185.414,74.881z"/>
	<path style="fill:#CCC6AA;" d="M220.736,93.675l-9.96-30.331c-0.304-0.946-0.441-1.584-0.411-1.916
		c0.05-0.552,0.292-0.927,0.726-1.124c0.435-0.197,1.192-0.248,2.269-0.151l9.815,0.884c1.16,0.104,1.868,0.273,2.126,0.505
		c0.257,0.232,0.517,0.902,0.779,2.012l1.476,6.312c0.781,3.383,1.377,6.498,1.789,9.346c1.412-3.936,2.54-6.868,3.382-8.797
		l2.588-6.029c0.1-0.186,0.204-0.413,0.312-0.682c0.283-0.67,0.59-1.074,0.923-1.211c0.332-0.137,1.023-0.158,2.073-0.064
		l9.815,0.884c0.966,0.087,1.609,0.215,1.928,0.383c0.556,0.301,0.805,0.782,0.746,1.445c-0.03,0.331-0.264,0.923-0.701,1.774
		l-14.392,28.137l-1.903,21.121c-0.112,1.242-0.342,2.008-0.687,2.297c-0.347,0.289-1.141,0.377-2.383,0.266l-9.649-0.869
		c-1.243-0.112-2.009-0.341-2.297-0.687c-0.289-0.346-0.378-1.14-0.266-2.383L220.736,93.675z"/>
	<path style="fill:#CCC6AA;" d="M256.537,115.985l-0.995-10.222c-0.183-1.876,0.139-2.854,0.967-2.935
		c0.386-0.038,1.294,0.417,2.724,1.364c1.848,1.241,3.819,1.759,5.917,1.555c1.407-0.137,2.504-0.584,3.295-1.344
		c0.789-0.759,1.131-1.69,1.024-2.794c-0.105-1.076-0.443-1.899-1.013-2.471c-0.572-0.571-2.163-1.691-4.776-3.358
		c-2.553-1.617-4.557-3.177-6.012-4.679c-2.787-2.876-4.377-6.342-4.771-10.398c-0.346-3.559,0.261-7.044,1.823-10.455
		c1.49-3.292,3.683-5.803,6.579-7.533c2.024-1.227,4.238-1.958,6.637-2.192c1.987-0.193,4.204-0.089,6.653,0.313
		c2.448,0.403,3.967,0.909,4.555,1.52c0.278,0.28,0.472,0.985,0.582,2.116l0.914,9.395c0.183,1.877-0.14,2.855-0.967,2.935
		c-0.304,0.03-0.752-0.135-1.344-0.496c-2.493-1.568-4.718-2.257-6.677-2.066c-1.104,0.107-2.023,0.531-2.758,1.271
		c-0.737,0.74-1.06,1.565-0.971,2.476c0.097,0.993,0.513,1.837,1.249,2.531c0.735,0.695,2.373,1.782,4.913,3.261
		c3.422,1.979,5.958,4.127,7.604,6.446c1.645,2.319,2.628,5.12,2.948,8.403c0.548,5.629-0.715,10.403-3.787,14.322
		c-3.072,3.92-7.16,6.128-12.265,6.625c-1.848,0.18-3.997,0.138-6.445-0.125c-2.449-0.263-4.029-0.611-4.74-1.043
		c-0.297-0.194-0.494-0.425-0.59-0.695C256.713,117.444,256.623,116.868,256.537,115.985z"/>
	<path style="fill:#F93030;" d="M127.673,72.583l-5.557,0.792c-1.235,0.176-2.033,0.129-2.393-0.142
		c-0.361-0.27-0.629-1.024-0.805-2.259l-1.126-7.904c-0.176-1.235-0.129-2.032,0.142-2.393c0.27-0.36,1.023-0.629,2.258-0.805
		l26.675-3.8c1.207-0.172,1.999-0.117,2.376,0.166c0.376,0.282,0.65,1.027,0.822,2.235l1.126,7.904
		c0.176,1.235,0.128,2.033-0.142,2.394s-1.023,0.629-2.258,0.804l-5.928,0.844l5.682,39.89c0.176,1.235,0.128,2.033-0.142,2.393
		c-0.271,0.361-1.024,0.629-2.259,0.805l-9.591,1.366c-1.235,0.176-2.033,0.129-2.393-0.142c-0.361-0.27-0.629-1.023-0.805-2.258
		L127.673,72.583z"/>
	<path style="fill:#3496F7;" d="M181.362,56.648c4.574-0.039,8.62,1.367,12.137,4.22c6.253,5.075,9.431,13.475,9.532,25.2
		c0.079,9.176-2.019,16.499-6.297,21.969c-1.81,2.317-3.998,4.137-6.565,5.462c-2.567,1.297-5.278,1.958-8.133,1.983
		c-4.186,0.036-8.106-1.246-11.76-3.849c-6.835-4.903-10.304-13.509-10.41-25.816c-0.081-9.341,2.088-16.61,6.507-21.804
		C170.488,59.155,175.485,56.7,181.362,56.648z M181.485,70.953c-1.802,0.016-3.218,1.379-4.247,4.091
		c-1.03,2.712-1.525,6.396-1.485,11.053c0.041,4.768,0.565,8.471,1.572,11.11c1.006,2.639,2.397,3.95,4.171,3.935
		s3.162-1.337,4.166-3.965c1.002-2.629,1.484-6.243,1.445-10.845C187.018,76.047,185.144,70.921,181.485,70.953z"/>
	<path style="fill:#F9C032;" d="M216.807,89.747l-9.96-30.331c-0.304-0.946-0.441-1.584-0.411-1.916
		c0.05-0.552,0.292-0.927,0.726-1.124c0.435-0.197,1.192-0.248,2.269-0.151l9.815,0.884c1.16,0.104,1.868,0.273,2.126,0.505
		c0.257,0.232,0.517,0.902,0.779,2.012l1.476,6.312c0.781,3.383,1.377,6.498,1.789,9.346c1.412-3.936,2.54-6.868,3.382-8.797
		l2.588-6.029c0.1-0.186,0.204-0.413,0.312-0.682c0.283-0.67,0.59-1.074,0.923-1.211c0.332-0.137,1.023-0.158,2.073-0.064
		l9.815,0.884c0.966,0.087,1.609,0.215,1.928,0.383c0.556,0.301,0.805,0.782,0.746,1.445c-0.03,0.331-0.264,0.923-0.701,1.774
		L232.09,91.123l-1.903,21.121c-0.112,1.242-0.342,2.008-0.687,2.297c-0.347,0.289-1.141,0.377-2.383,0.266l-9.649-0.869
		c-1.243-0.112-2.009-0.341-2.297-0.687c-0.289-0.346-0.378-1.14-0.266-2.383L216.807,89.747z"/>
	<path style="fill:#F482F4;" d="M252.608,112.056l-0.995-10.222c-0.183-1.876,0.139-2.854,0.967-2.935
		c0.386-0.038,1.294,0.417,2.724,1.364c1.848,1.241,3.819,1.759,5.917,1.555c1.407-0.137,2.504-0.584,3.295-1.344
		c0.789-0.759,1.131-1.69,1.023-2.794c-0.105-1.076-0.443-1.899-1.013-2.471c-0.572-0.571-2.163-1.691-4.776-3.358
		c-2.553-1.617-4.557-3.177-6.012-4.679c-2.787-2.876-4.377-6.342-4.771-10.398c-0.346-3.559,0.261-7.044,1.823-10.455
		c1.49-3.292,3.683-5.803,6.579-7.533c2.024-1.227,4.238-1.958,6.637-2.192c1.987-0.193,4.205-0.089,6.653,0.313
		c2.448,0.403,3.967,0.909,4.555,1.52c0.278,0.28,0.472,0.985,0.582,2.116l0.914,9.395c0.183,1.877-0.14,2.855-0.967,2.935
		c-0.304,0.03-0.752-0.135-1.344-0.496c-2.493-1.568-4.718-2.257-6.677-2.066c-1.104,0.107-2.023,0.531-2.758,1.271
		c-0.737,0.74-1.06,1.565-0.971,2.476c0.097,0.993,0.513,1.837,1.249,2.531c0.735,0.695,2.373,1.782,4.913,3.261
		c3.422,1.979,5.958,4.127,7.604,6.446c1.645,2.319,2.628,5.12,2.948,8.403c0.548,5.629-0.715,10.403-3.787,14.322
		c-3.072,3.92-7.16,6.128-12.265,6.625c-1.848,0.18-3.997,0.138-6.445-0.125c-2.449-0.263-4.029-0.611-4.74-1.043
		c-0.297-0.194-0.494-0.425-0.59-0.695C252.784,113.516,252.694,112.94,252.608,112.056z"/>
	<rect y="28.618" style="fill:#6EBEFF;" width="401.342" height="7.333"/>
</g>
<g>
</g>
<g>
</g>
<g>
</g>
<g>
</g>
<g>
</g>
<g>
</g>
<g>
</g>
<g>
</g>
<g>
</g>
<g>
</g>
<g>
</g>
<g>
</g>
<g>
</g>
<g>
</g>
<g>
</g>
</svg>
