<svg height="512" viewBox="0 0 64 64" width="512" xmlns="http://www.w3.org/2000/svg"><g id="Fill_Outline" data-name="Fill Outline"><g id="Color"><g><g><g><path d="m33 40h18a7 7 0 0 1 7 7v14a0 0 0 0 1 0 0h-32a0 0 0 0 1 0 0v-14a7 7 0 0 1 7-7z" fill="#57b7eb"/><path d="m52 52v-3a2 2 0 0 0 -2 2v1h-7a8 8 0 0 1 -8-8v-2.947a8.923 8.923 0 0 0 9.63-1.053h-11.63a7 7 0 0 0 -7 7v14h32v-9z" fill="#4891d3"/><path d="m37 32h10a0 0 0 0 1 0 0v8a5 5 0 0 1 -5 5 5 5 0 0 1 -5-5v-8a0 0 0 0 1 0 0z" fill="#fcbc04"/><path d="m41.064 41.753a9.018 9.018 0 0 0 5.936-4.647v-5.106h-10v8a4.974 4.974 0 0 0 8.2 3.813 9 9 0 0 1 -4.136-2.06z" fill="#e59730"/><path d="m42 11a9 9 0 0 1 9 9v1a0 0 0 0 1 0 0h-18a0 0 0 0 1 0 0v-1a9 9 0 0 1 9-9z" fill="#57b7eb"/><path d="m48 18a8 8 0 0 1 -7.9-6.795 9 9 0 0 0 -7.1 8.795v1h18v-1a8.971 8.971 0 0 0 -.231-2z" fill="#4891d3"/><path d="m25 20v3h4v-3a13 13 0 0 1 13-13 13 13 0 0 1 13 13v3h4v-3a17 17 0 0 0 -17-17 17 17 0 0 0 -17 17z" fill="#e9f1f2"/><path d="m42 7a13 13 0 0 1 13 13v3h4v-3a17.1 17.1 0 0 0 -.147-2.124 4.082 4.082 0 0 1 -2.861-2.609 16.985 16.985 0 0 0 -16.833-11.247 16.4 16.4 0 0 0 -5.91 1.425 16.975 16.975 0 0 0 -8.249 14.555v3h4v-3a13 13 0 0 1 13-13z" fill="#d0d8da"/><path d="m51 20a4 4 0 0 1 4 4v4a4 4 0 0 1 -4 4 0 0 0 0 1 0 0v-12a0 0 0 0 1 0 0z" fill="#84d2f4"/><path d="m55 23h4a2 2 0 0 1 2 2v2a2 2 0 0 1 -2 2h-4a0 0 0 0 1 0 0v-6a0 0 0 0 1 0 0z" fill="#84d2f4"/><path d="m29 20a4 4 0 0 1 4 4v4a4 4 0 0 1 -4 4 0 0 0 0 1 0 0v-12a0 0 0 0 1 0 0z" fill="#57b7eb" transform="matrix(-1 0 0 -1 62 52)"/><path d="m23 23h4a2 2 0 0 1 2 2v2a2 2 0 0 1 -2 2h-4a0 0 0 0 1 0 0v-6a0 0 0 0 1 0 0z" fill="#57b7eb" transform="matrix(-1 0 0 -1 52 52)"/><path d="m42 39a9 9 0 0 1 -9-9v-9a9.656 9.656 0 0 0 6.828-2.828l.172-.172.172.172a9.656 9.656 0 0 0 6.828 2.828h4v9a9 9 0 0 1 -9 9z" fill="#f9e109"/><path d="m44 24h2.132a9.641 9.641 0 0 1 -.96-.828l-.172-.172-.172.172a9.755 9.755 0 0 1 -.952.822c.041 0 .082.006.124.006z" fill="#f9e109"/><path d="m47 21a9.656 9.656 0 0 1 -6.828-2.828l-.172-.172-.172.172a9.656 9.656 0 0 1 -6.828 2.828v9a8.991 8.991 0 0 0 13.127 7.992c-.043 0-.084.008-.127.008a9 9 0 0 1 -9-9v-5.879a9.636 9.636 0 0 0 2.828-1.949l.172-.172.172.172a9.656 9.656 0 0 0 6.828 2.828h4v-3z" fill="#fcbc04"/><path d="m52 49v6h-7a3 3 0 0 0 -3 3 3 3 0 0 0 3 3h13v-12z" fill="#f9e109"/><path d="m28 49h4v8h-4z" fill="#fcbc04"/><path d="m57 24v-1h-2v6h4a2 2 0 0 0 2-2h-1a3 3 0 0 1 -3-3z" fill="#57b7eb"/><path d="m27 24v-1h2v6h-4a2 2 0 0 1 -2-2h1a3 3 0 0 0 3-3z" fill="#4891d3"/><path d="m53 27v-6.445a3.955 3.955 0 0 0 -2-.555v12a3.991 3.991 0 0 0 3.863-3.014 1.993 1.993 0 0 1 -1.863-1.986z" fill="#57b7eb"/><path d="m31 27v-6.445a3.955 3.955 0 0 1 2-.555v12a3.991 3.991 0 0 1 -3.863-3.014 1.993 1.993 0 0 0 1.863-1.986z" fill="#4891d3"/><path d="m28 49v2.184a2.99 2.99 0 0 1 2 2.816v3h2v-8z" fill="#e59730"/></g><g><path d="m28 57h6a4 4 0 0 1 4 4 0 0 0 0 1 0 0h-10a0 0 0 0 1 0 0v-4a0 0 0 0 1 0 0z" fill="#93999a"/><path d="m7 41h17a4 4 0 0 1 4 4v16a0 0 0 0 1 0 0h-21a4 4 0 0 1 -4-4v-12a4 4 0 0 1 4-4z" fill="#d0d8da"/><circle cx="15" cy="51" fill="#f9e109" r="3"/><path d="m21 57a14 14 0 0 1 -14-14v-2a4 4 0 0 0 -4 4v12a4 4 0 0 0 4 4h21v-4z" fill="#93999a"/><path d="m24 41h-11a4 4 0 0 0 4 4h5a2 2 0 0 1 2 2 4 4 0 0 0 4 4v-6a4 4 0 0 0 -4-4z" fill="#e9f1f2"/><path d="m33 59a2.99 2.99 0 0 1 -2.816-2h-2.184v4h10a3.955 3.955 0 0 0 -.555-2z" fill="#656b76"/><path d="m16 52a3 3 0 0 1 -3-3c0-.083.018-.16.024-.242a2.991 2.991 0 1 0 4.952 2.484 2.98 2.98 0 0 1 -1.976.758z" fill="#fcbc04"/></g></g><path d="m3 24h4v13h-4z" fill="#f9e109"/><path d="m11 29h4v8h-4z" fill="#f9e109"/><path d="m19 33h4v4h-4z" fill="#f9e109"/><g fill="#fcbc04"><path d="m55 55v-6h-3v6h-2a3 3 0 0 1 -3 3h-5a3 3 0 0 0 3 3h13v-3a3 3 0 0 1 -3-3z"/><path d="m5 33v-9h-2v13h4v-2a2 2 0 0 1 -2-2z"/><path d="m13 33v-4h-2v8h4v-2a2 2 0 0 1 -2-2z"/><path d="m21 33h-2v4h4v-2a2 2 0 0 1 -2-2z"/></g></g></g><g id="Outline_copy" data-name="Outline copy"><g fill="#464a51"><circle cx="46" cy="26" r="1"/><circle cx="38" cy="26" r="1"/><path d="m60 22.184v-2.184a17.953 17.953 0 0 0 -2.654-9.374 1 1 0 1 0 -1.7 1.044 15.961 15.961 0 0 1 2.354 8.33v2h-2v-2a13.994 13.994 0 0 0 -27.611-3.23 1 1 0 1 0 1.945.46 11.994 11.994 0 0 1 23.666 2.77v.026a4.944 4.944 0 0 0 -2.046-.93 9.994 9.994 0 0 0 -19.908 0 5.013 5.013 0 0 0 -3.622 2.904h-2.424v-2a16 16 0 0 1 27.326-11.3 1 1 0 0 0 1.416-1.412 18 18 0 0 0 -30.742 12.712v2.184a3 3 0 0 0 -2 2.816v2a3 3 0 0 0 3 3h3.424a4.992 4.992 0 0 0 4.019 2.944 10.029 10.029 0 0 0 3.557 5.037v2.019a6 6 0 0 0 11.91 1h3.09a6.006 6.006 0 0 1 6 6v1h-5a1 1 0 0 0 -1 1v5h-6a4 4 0 0 0 0 8h13a1 1 0 0 0 0-2h-13a2 2 0 0 1 0-4h7a1 1 0 0 0 1-1v-5h4v7a1 1 0 0 0 2 0v-10a8.009 8.009 0 0 0 -8-8h-3v-1.019a10.048 10.048 0 0 0 1.129-.981h1.871a5.006 5.006 0 0 0 5-5v-2h3a3 3 0 0 0 3-3v-2a3 3 0 0 0 -2-2.816zm-6 1.816v4a3.006 3.006 0 0 1 -2 2.829v-9.658a3.006 3.006 0 0 1 2 2.829zm-12-12a8.009 8.009 0 0 1 8 8h-3a8.6 8.6 0 0 1 -6.122-2.537l-.172-.171a1 1 0 0 0 -1.412 0l-.173.172a8.589 8.589 0 0 1 -5.121 2.473 8.008 8.008 0 0 1 8-7.937zm-17 16a1 1 0 0 1 -1-1v-2a1 1 0 0 1 1-1h3v4zm9 2v-4.929a1 1 0 1 0 -2 0v4.929c0 .28.019.555.042.829a3 3 0 0 1 -2.042-2.829v-4a3 3 0 0 1 2.035-2.827.986.986 0 0 0 .965.827 10.574 10.574 0 0 0 7-2.621 10.576 10.576 0 0 0 7 2.621h3v8a7.956 7.956 0 0 1 -1.765 5h-1.235a1 1 0 0 0 -1 1 .989.989 0 0 0 .318.724 7.987 7.987 0 0 1 -12.318-6.724zm12 10a4 4 0 0 1 -8 0v-.841a9.933 9.933 0 0 0 8 0zm5-5h-.353a9.971 9.971 0 0 0 .91-2.056 4.943 4.943 0 0 0 2.443-.97v.026a3 3 0 0 1 -3 3zm9-8a1 1 0 0 1 -1 1h-3v-4h3a1 1 0 0 1 1 1z"/><path d="m38.293 32.293a1 1 0 0 0 0 1.414 5.249 5.249 0 0 0 7.414 0 1 1 0 0 0 -1.414-1.414 3.247 3.247 0 0 1 -4.586 0 1 1 0 0 0 -1.414 0z"/><path d="m34 56h-1v-7a1 1 0 0 0 -1-1h-3v-3a4.964 4.964 0 0 0 -.435-2.021 5.926 5.926 0 0 1 4.435-1.979 1 1 0 0 0 0-2 8 8 0 0 0 -5.615 2.343 4.968 4.968 0 0 0 -3.385-1.343h-17a5.006 5.006 0 0 0 -5 5v6a1 1 0 0 0 2 0v-6a3 3 0 0 1 3-3h17a3 3 0 0 1 3 3v15h-20a3 3 0 0 1 -3-3v-2a1 1 0 0 0 -2 0v2a5.006 5.006 0 0 0 5 5h31a1 1 0 0 0 1-1 5.006 5.006 0 0 0 -5-5zm-3-6v6h-2v-6zm-2 10v-2h5a3.006 3.006 0 0 1 2.829 2z"/><path d="m15 53a1 1 0 0 0 0 2 4 4 0 1 0 -4-4 1 1 0 0 0 2 0 2 2 0 1 1 2 2z"/><path d="m3 38h4a1 1 0 0 0 1-1v-13a1 1 0 0 0 -1-1h-4a1 1 0 0 0 -1 1v13a1 1 0 0 0 1 1zm1-13h2v11h-2z"/><path d="m11 28a1 1 0 0 0 -1 1v8a1 1 0 0 0 1 1h4a1 1 0 0 0 1-1v-8a1 1 0 0 0 -1-1zm3 8h-2v-6h2z"/><path d="m18 33v4a1 1 0 0 0 1 1h4a1 1 0 0 0 1-1v-4a1 1 0 0 0 -1-1h-4a1 1 0 0 0 -1 1zm2 1h2v2h-2z"/><path d="m4 19a1 1 0 0 0 1-1v-1.586l6.293 6.293a1 1 0 0 0 .707.293h4.307l2.756 7.351a1 1 0 0 0 .937.649 1.038 1.038 0 0 0 .352-.063 1 1 0 0 0 .585-1.288l-3-8a1 1 0 0 0 -.937-.649h-4.586l-6-6h1.586a1 1 0 0 0 0-2h-4a1 1 0 0 0 -1 1v4a1 1 0 0 0 1 1z"/><path d="m13 14h8a1 1 0 0 0 0-2h-8a1 1 0 0 0 0 2z"/><path d="m21 16h-5a1 1 0 0 0 0 2h5a1 1 0 0 0 0-2z"/></g></g></g></svg>