<svg height="512" viewBox="0 0 60 59" width="512" xmlns="http://www.w3.org/2000/svg"><g id="Page-1" fill="none" fill-rule="evenodd"><g id="014---Stacked-Present" fill-rule="nonzero" transform="translate(0 -1)"><path id="Shape" d="m30 7c0-.92-1.693-4.537-5.08-5.863-.6133744-.23911732-1.3047751-.16449231-1.853.2-1.5546954 1.18766742-2.7821016 2.75091564-3.567 4.543-.3566106.72090517-.2466907 1.58529268.279 2.194 1.8603097 1.9887288 4.501043 3.0587725 7.221 2.926z" fill="#f0c419"/><path id="Shape" d="m30 7c0-.92 1.693-4.537 5.08-5.863.6133744-.23911732 1.3047751-.16449231 1.853.2 1.5565265 1.1870496 2.7856958 2.75035188 3.572 4.543.3566106.72090517.2466907 1.58529268-.279 2.194-1.8614603 1.9900971-4.5043289 3.060265-7.226 2.926z" fill="#f0c419"/><path id="Rectangle-path" d="m20 16h20v10h-20z" fill="#c03a2b"/><path id="Shape" d="m20 11h20c1.1045695 0 2 .8954305 2 2v3c0 .5522847-.4477153 1-1 1h-22c-.5522847 0-1-.4477153-1-1v-3c0-1.1045695.8954305-2 2-2z" fill="#e64c3c"/><path id="Rectangle-path" d="m26 11h8v6h-8z" fill="#f0c419"/><g fill="#f29c1f"><path id="Rectangle-path" d="m27 17h6v8h-6z"/><path id="Shape" d="m28.955 8.978c-.155207-.00016578-.308245-.03645666-.447-.106l-3.955-1.972c-.4942949-.24687128-.6948713-.84770515-.448-1.342s.8477051-.69487128 1.342-.448l3.953 1.973c.415621.20714245.6339515.67314892.5271118 1.12507155-.1068398.45192262-.5107327.77082825-.9751118.76992845z"/><path id="Shape" d="m31.188 8.907c-.4684292.00574593-.8780642-.31446766-.985575-.77042863-.1075108-.45596096.1159217-.92544521.537575-1.12957137l3.813-1.907c.4942949-.24687128 1.0951287-.04629485 1.342.448s.0462949 1.09512872-.448 1.342l-3.813 1.91c-.138254.07005231-.2910116.10670043-.446.107z"/></g><path id="Shape" d="m13.707 17.293c-.3904999-.3903819-1.0235001-.3903819-1.414 0l-.293.293-.293-.293c-.3923789-.3789722-1.0160848-.3735524-1.4018186.0121814-.38573377.3857338-.39115361 1.0094397-.0121814 1.4018186l.293.293-.293.293c-.2599566.2510745-.3642126.6228779-.2726972.9725073.0915155.3496295.3645604.6226744.7141899.7141899.3496294.0915154.7214328-.0127406.9725073-.2726972l.293-.293.293.293c.3923789.3789722 1.0160848.3735524 1.4018186-.0121814s.3911536-1.0094397.0121814-1.4018186l-.293-.293.293-.293c.3903819-.3904999.3903819-1.0235001 0-1.414z" fill="#f0c419"/><path id="Shape" d="m29 7h2c1.1045695 0 2 .8954305 2 2v2h-6v-2c0-1.1045695.8954305-2 2-2z" fill="#f3d55b"/><path id="Rectangle-path" d="m15 30h30v12h-30z" fill="#2980ba"/><path id="Shape" d="m15 25h30c1.1045695 0 2 .8954305 2 2v3c0 .5522847-.4477153 1-1 1h-32c-.5522847 0-1-.4477153-1-1v-3c0-1.1045695.8954305-2 2-2z" fill="#3b97d3"/><path id="Rectangle-path" d="m25 25h10v6h-10z" fill="#f0c419"/><path id="Rectangle-path" d="m26 31h8v10h-8z" fill="#f29c1f"/><path id="Shape" d="m53.707 32.293c-.3904999-.3903819-1.0235001-.3903819-1.414 0l-.293.293-.293-.293c-.3923789-.3789722-1.0160848-.3735524-1.4018186.0121814s-.3911536 1.0094397-.0121814 1.4018186l.293.293-.293.293c-.2599566.2510745-.3642126.6228779-.2726972.9725073.0915155.3496295.3645604.6226744.7141899.7141899.3496294.0915154.7214328-.0127406.9725073-.2726972l.293-.293.293.293c.3923789.3789722 1.0160848.3735524 1.4018186-.0121814s.3911536-1.0094397.0121814-1.4018186l-.293-.293.293-.293c.3903819-.3904999.3903819-1.0235001 0-1.414z" fill="#f0c419"/><path id="Shape" d="m49.707 19.293-.293-.293.293-.293c.3789722-.3923789.3735524-1.0160848-.0121814-1.4018186s-1.0094397-.3911536-1.4018186-.0121814l-.293.293-.293-.293c-.3923789-.3789722-1.0160848-.3735524-1.4018186.0121814s-.3911536 1.0094397-.0121814 1.4018186l.293.293-.293.293c-.2599566.2510745-.3642126.6228779-.2726972.9725073.0915155.3496295.3645604.6226744.7141899.7141899.3496294.0915154.7214328-.0127406.9725073-.2726972l.293-.293.293.293c.3923789.3789722 1.0160848.3735524 1.4018186-.0121814s.3911536-1.0094397.0121814-1.4018186z" fill="#f0c419"/><path id="Shape" d="m56.414 25 .293-.293c.3789722-.3923789.3735524-1.0160848-.0121814-1.4018186s-1.0094397-.3911536-1.4018186-.0121814l-.293.293-.293-.293c-.3923789-.3789722-1.0160848-.3735524-1.4018186.0121814s-.3911536 1.0094397-.0121814 1.4018186l.293.293-.293.293c-.2599566.2510745-.3642126.6228779-.2726972.9725073.0915155.3496295.3645604.6226744.7141899.7141899.3496294.0915154.7214328-.0127406.9725073-.2726972l.293-.293.293.293c.3923789.3789722 1.0160848.3735524 1.4018186-.0121814s.3911536-1.0094397.0121814-1.4018186z" fill="#955ba5"/><path id="Shape" d="m9.707 32.293c-.39049985-.3903819-1.02350015-.3903819-1.414 0l-.293.293-.293-.293c-.39237889-.3789722-1.01608478-.3735524-1.40181858.0121814-.38573379.3857338-.39115363 1.0094397-.01218142 1.4018186l.293.293-.293.293c-.25995658.2510745-.3642126.6228779-.27269716.9725073.09151544.3496295.3645604.6226744.71418984.7141899.34962943.0915154.72143285-.0127406.97250732-.2726972l.293-.293.293.293c.39237889.3789722 1.01608478.3735524 1.40181858-.0121814.38573382-.3857338.39115362-1.0094397.01218142-1.4018186l-.293-.293.293-.293c.3903819-.3904999.3903819-1.0235001 0-1.414z" fill="#f0c419"/><path id="Shape" d="m6 27c.4043959-.0000863.76893405-.2437275.92367798-.6173454.15474393-.373618.06922994-.8036603-.21667798-1.0896546l-.293-.293.293-.293c.37897221-.3923789.37355237-1.0160848-.01218142-1.4018186-.3857338-.3857338-1.00943969-.3911536-1.40181858-.0121814l-.293.293-.293-.293c-.39237889-.3789722-1.01608478-.3735524-1.40181858.0121814-.38573379.3857338-.39115363 1.0094397-.01218142 1.4018186l.293.293-.293.293c-.25995658.2510745-.3642126.6228779-.27269716.9725073.09151544.3496295.3645604.6226744.71418984.7141899.34962943.0915154.72143285-.0127406.97250732-.2726972l.293-.293.293.293c.18749273.1875494.44180519.2929434.707.293z" fill="#955ba5"/><path id="Shape" d="m9 46h42v12c0 .5522847-.4477153 1-1 1h-40c-.55228475 0-1-.4477153-1-1z" fill="#894b9d"/><path id="Shape" d="m9 41h42c1.1045695 0 2 .8954305 2 2v3c0 .5522847-.4477153 1-1 1h-44c-.55228475 0-1-.4477153-1-1v-3c0-1.1045695.8954305-2 2-2z" fill="#955ba5"/><path id="Rectangle-path" d="m25 41h10v6h-10z" fill="#f0c419"/><path id="Rectangle-path" d="m26 47h8v12h-8z" fill="#f29c1f"/><path id="Shape" d="m3 60h-2c-.55228475 0-1-.4477153-1-1s.44771525-1 1-1h2c.55228475 0 1 .4477153 1 1s-.44771525 1-1 1z" fill="#35495e"/><path id="Shape" d="m59 60h-2c-.5522847 0-1-.4477153-1-1s.4477153-1 1-1h2c.5522847 0 1 .4477153 1 1s-.4477153 1-1 1z" fill="#35495e"/><path id="Shape" d="m53 60h-46c-.55228475 0-1-.4477153-1-1s.44771525-1 1-1h46c.5522847 0 1 .4477153 1 1s-.4477153 1-1 1z" fill="#35495e"/></g></g></svg>