<svg height="464pt" viewBox="0 0 464 464" width="464pt" xmlns="http://www.w3.org/2000/svg"><path d="m344 256c-4.417969 0-8-3.582031-8-8v-32c.015625-2.675781 1.363281-5.167969 3.601562-6.640625l24-16c2.363282-1.902344 5.601563-2.304687 8.359376-1.039063 2.757812 1.269532 4.5625 3.988282 4.652343 7.023438.09375 3.035156-1.539062 5.859375-4.214843 7.296875l-20.398438 13.679687v27.679688c0 4.417969-3.582031 8-8 8zm0 0" fill="#2d72bc"/><path d="m120 256c-4.417969 0-8-3.582031-8-8v-27.679688l-20.398438-13.679687c-3.21875-2.59375-3.933593-7.207031-1.652343-10.648437 2.28125-3.445313 6.8125-4.585938 10.449219-2.632813l24 16c2.238281 1.472656 3.585937 3.964844 3.601562 6.640625v32c0 4.417969-3.582031 8-8 8zm0 0" fill="#2d72bc"/><path d="m232 32c-4.417969 0-8-3.582031-8-8v-16c0-4.417969 3.582031-8 8-8s8 3.582031 8 8v16c0 4.417969-3.582031 8-8 8zm0 0" fill="#4891d3"/><g fill="#fcbc04"><path d="m88 288h288v32h-288zm0 0"/><path d="m248 320-8 48h-16l-8-48h-32l16 112h64l16-112zm0 0"/><path d="m192 432h80c17.671875 0 32 14.328125 32 32h-144c0-17.671875 14.328125-32 32-32zm0 0"/></g><path d="m360 240h-48l8 48h32zm0 0" fill="#57b7eb"/><path d="m104 240h48l-8 48h-32zm0 0" fill="#57b7eb"/><path d="m184 48h96c13.253906 0 24 10.746094 24 24v16h-144v-16c0-13.253906 10.746094-24 24-24zm0 0" fill="#fcbc04"/><path d="m216 16h32c8.835938 0 16 7.164062 16 16v16h-64v-16c0-8.835938 7.164062-16 16-16zm0 0" fill="#4891d3"/><path d="m184 48h96c13.253906 0 24 10.746094 24 24h-96c-13.253906 0-24-10.746094-24-24zm0 0" fill="#f9e109"/><path d="m216 16h32c8.835938 0 16 7.164062 16 16h-32c-8.835938 0-16-7.164062-16-16zm0 0" fill="#57b7eb"/><path d="m112 288h272v16h-256c-8.835938 0-16-7.164062-16-16zm0 0" fill="#f9e109"/><path d="m258.640625 352c.855469-4.664062 4.9375-8.039062 9.679687-8h8l3.679688-24h-32l-8 48c9.308594-.007812 17.21875-6.800781 18.640625-16zm0 0" fill="#e59730"/><path d="m211.921875 403.679688-6.160156-43.28125c-.457031-4.058594.835937-8.121094 3.550781-11.171876 2.71875-3.050781 6.601562-4.804687 10.6875-4.828124l-4-24.398438h-32l16 112h64l2.320312-16h-40c-7.195312.039062-13.328124-5.207031-14.398437-12.320312zm0 0" fill="#e59730"/><path d="m192 448h80c11.390625.039062 21.902344 6.132812 27.601562 16h4.398438c0-17.671875-14.328125-32-32-32h-80c-17.671875 0-32 14.328125-32 32h4.398438c5.699218-9.867188 16.210937-15.960938 27.601562-16zm0 0" fill="#f9e109"/><path d="m448 272h16v72c-8.835938 0-16-7.164062-16-16zm0 0" fill="#f9e109"/><path d="m456 464c-4.417969 0-8-3.582031-8-8v-64c0-4.417969 3.582031-8 8-8s8 3.582031 8 8v64c0 4.417969-3.582031 8-8 8zm0 0" fill="#e59730"/><path d="m360 464c-4.417969 0-8-3.582031-8-8v-64c0-4.417969 3.582031-8 8-8s8 3.582031 8 8v64c0 4.417969-3.582031 8-8 8zm0 0" fill="#e59730"/><path d="m464 400h-112v-32h112zm0 0" fill="#fcbc04"/><path d="m464 368h-32v-96h32zm0 0" fill="#fcbc04"/><path d="m352 368h56c0 8.835938-7.164062 16-16 16h-40zm0 0" fill="#f9e109"/><path d="m16 272h16v80c-8.835938 0-16-7.164062-16-16zm0 0" fill="#f9e109"/><path d="m8 464c-4.417969 0-8-3.582031-8-8v-64c0-4.417969 3.582031-8 8-8s8 3.582031 8 8v64c0 4.417969-3.582031 8-8 8zm0 0" fill="#e59730"/><path d="m104 464c-4.417969 0-8-3.582031-8-8v-64c0-4.417969 3.582031-8 8-8s8 3.582031 8 8v64c0 4.417969-3.582031 8-8 8zm0 0" fill="#e59730"/><path d="m0 368h112v32h-112zm0 0" fill="#fcbc04"/><path d="m0 272h32v96h-32zm0 0" fill="#fcbc04"/><path d="m32 368h48c0 8.835938-7.164062 16-16 16h-16c-8.835938 0-16-7.164062-16-16zm0 0" fill="#f9e109"/><path d="m349.519531 272c-7.898437.109375-14.695312-5.566406-16-13.359375l-2.878906-18.640625h-18.640625l8 48h32l2.640625-16zm0 0" fill="#4891d3"/><path d="m141.519531 272c-7.898437.109375-14.695312-5.566406-16-13.359375l-2.878906-18.640625h-18.640625l8 48h32l2.640625-16zm0 0" fill="#4891d3"/><path d="m264 248c-.039062-11.390625-6.132812-21.902344-16-27.601562v-20.398438h-32v20.398438c-8.203125 4.8125-13.84375 13.019531-15.390625 22.40625-1.546875 9.382812 1.164063 18.96875 7.390625 26.15625v19.039062h48v-19.039062c5.109375-5.792969 7.949219-13.238282 8-20.960938zm0 0" fill="#d0d8da"/><path d="m256 168h24c0 17.671875-14.328125 32-32 32h-16v-8c0-13.253906 10.746094-24 24-24zm0 0" fill="#c4f236"/><path d="m232 200h-16c-17.671875 0-32-14.328125-32-32h24c13.253906 0 24 10.746094 24 24zm0 0" fill="#c4f236"/><path d="m229.625 180.3125-11.3125-11.316406c-12.496094-12.496094-12.496094-32.757813 0-45.253906l16.96875 16.972656c9.375 9.371094 9.375 24.566406 0 33.9375zm0 0" fill="#c4f236"/><path d="m224 268.960938c-6.226562-7.1875-8.9375-16.773438-7.390625-26.15625 1.546875-9.386719 7.1875-17.59375 15.390625-22.40625v-4.398438h16v-16h-32v20.398438c-8.203125 4.8125-13.84375 13.019531-15.390625 22.40625-1.546875 9.382812 1.164063 18.96875 7.390625 26.15625v19.039062h35.039062c-10.496093-.042969-18.996093-8.542969-19.039062-19.039062zm0 0" fill="#93999a"/><path d="m248 184h-14.558594c-.933594 2.566406-1.417968 5.269531-1.441406 8v8h16c17.671875 0 32-14.328125 32-32h-4.398438c-5.699218 9.867188-16.210937 15.960938-27.601562 16zm0 0" fill="#a1d51c"/><path d="m216 184c-11.390625-.039062-21.902344-6.132812-27.601562-16h-4.398438c0 17.671875 14.328125 32 32 32h16v-8c-.023438-2.730469-.507812-5.433594-1.441406-8zm0 0" fill="#a1d51c"/><path d="m237.679688 164.320312-11.359376-11.359374c-7.371093-7.414063-10.65625-17.957032-8.800781-28.242188-11.613281 12.585938-11.261719 32.085938.800781 44.242188l11.359376 11.359374 5.601562-5.679687c3.917969-3.9375 6.347656-9.113281 6.878906-14.640625zm0 0" fill="#a1d51c"/></svg>