<svg height="512pt" viewBox="0 -3 512.00125 512" width="512pt" xmlns="http://www.w3.org/2000/svg"><path d="m47.742188 403.117188-37.863282-37.863282c-3.183594-3.183594-3.183594-8.339844 0-11.523437l316.722656-316.722657 49.386719 49.386719-316.722656 316.722657c-3.183594 3.179687-8.339844 3.179687-11.523437 0zm0 0" fill="#cfd8dc"/><path d="m355.988281 66.390625-322.484375 322.484375 14.238282 14.242188c3.183593 3.179687 8.339843 3.179687 11.519531 0l316.726562-316.726563zm0 0" fill="#90a4ae"/><path d="m47.742188 403.117188-37.863282-37.863282c-3.183594-3.183594-3.183594-8.339844 0-11.523437l136.234375-136.234375 49.386719 49.386718-136.234375 136.234376c-3.183594 3.179687-8.339844 3.179687-11.523437 0zm0 0" fill="#ffa726"/><path d="m175.5 246.878906-141.996094 141.996094 14.238282 14.242188c3.183593 3.179687 8.339843 3.179687 11.519531 0l136.238281-136.238282zm0 0" fill="#f57c00"/><path d="m146.113281 217.492188 49.386719 49.386718-27.738281 27.738282-49.382813-49.386719zm0 0" fill="#78909c"/><path d="m140.300781 495.675781-37.863281-37.863281c-3.179688-3.183594-3.179688-8.339844 0-11.523438l135.613281-135.613281c.34375-.34375.902344-.34375 1.242188 0l48.144531 48.144531c.34375.34375.34375.898438 0 1.242188l-135.613281 135.613281c-3.183594 3.179688-8.339844 3.179688-11.523438 0zm0 0" fill="#ffa726"/><path d="m287.4375 358.816406-48.140625-48.140625c-.34375-.34375-.902344-.34375-1.242187 0l-14.378907 14.378907 33.761719 33.765624c.34375.34375.34375.898438 0 1.242188l-126.375 126.371094 9.238281 9.242187c3.183594 3.179688 8.339844 3.179688 11.523438 0l135.613281-135.617187c.34375-.339844.34375-.898438 0-1.242188zm0 0" fill="#f57c00"/><path d="m260.320312 387.175781-49.386718-49.382812 27.117187-27.117188c.34375-.34375.902344-.34375 1.242188 0l48.144531 48.140625c.34375.34375.34375.898438 0 1.242188zm0 0" fill="#78909c"/><path d="m147.757812 274.617188 27.738282-27.738282 20 20-27.738282 27.738282zm0 0" fill="#455a64"/><path d="m287.4375 358.816406-48.140625-48.140625c-.34375-.34375-.902344-.34375-1.242187 0l-14.378907 14.378907 26.898438 26.902343c4.132812 4.132813 4.132812 10.835938 0 14.96875l-5.253907 5.253907 15 15 27.117188-27.117188c.34375-.34375.34375-.902344 0-1.246094zm0 0" fill="#455a64"/><path d="m375.988281 86.390625-49.386719-49.382813 18.75-18.75c1.21875-1.21875 3.199219-1.21875 4.421876 0l44.960937 44.964844c1.222656 1.21875 1.222656 3.199219 0 4.421875zm0 0" fill="#78909c"/><path d="m394.734375 63.222656-44.960937-44.960937c-1.222657-1.222657-3.203126-1.222657-4.421876 0l-8.789062 8.789062 23.050781 23.050781c3.496094 3.496094 3.496094 9.167969 0 12.664063l-3.625 3.628906 20 20 18.746094-18.75c1.222656-1.222656 1.222656-3.199219 0-4.421875zm0 0" fill="#455a64"/><path d="m390.425781 58.910156-36.339843-36.339844 13.875-13.878906c1.585937-1.585937 4.160156-1.585937 5.746093 0l30.59375 30.597656c1.589844 1.585938 1.589844 4.15625 0 5.746094zm0 0" fill="#78909c"/><path d="m281.226562 352.605469-35.71875-35.71875 35.707032-35.707031c1.535156-1.539063 4.03125-1.539063 5.566406 0l30.152344 30.152343c1.535156 1.535157 1.535156 4.03125 0 5.566407zm0 0" fill="#cfd8dc"/><path d="m316.933594 311.332031-30.152344-30.152343c-1.535156-1.539063-4.03125-1.539063-5.566406 0l-12.214844 12.214843 10.191406 10.195313c5.816406 5.8125 5.816406 15.238281 0 21.050781l-12.964844 12.96875 15 15 35.707032-35.707031c1.539062-1.542969 1.539062-4.035156 0-5.570313zm0 0" fill="#90a4ae"/><path d="m383.152344 214.960938c10.234375 10.234374 10.234375 26.828124 0 37.0625l-41.273438 41.273437c-1.59375 1.597656-4.179687 1.597656-5.777344 0l-31.285156-31.285156c-1.597656-1.597657-1.597656-4.183594 0-5.777344l41.273438-41.273437c10.234375-10.234376 26.828125-10.234376 37.0625 0zm0 0" fill="#42a5f5"/><path d="m383.152344 214.960938c-9.128906-9.128907-23.308594-10.109376-33.53125-2.957032 1.238281.867188 2.425781 1.847656 3.53125 2.957032 10.234375 10.234374 10.234375 26.828124 0 37.0625l-29.160156 29.164062 12.109374 12.109375c1.597657 1.597656 4.183594 1.597656 5.777344 0l41.273438-41.273437c10.234375-10.234376 10.234375-26.828126 0-37.0625zm0 0" fill="#1976d2"/><path d="m458.453125 93.441406 46.042969 46.042969-42.113282 42.113281-46.042968-46.042968zm0 0" fill="#cfd8dc"/><path d="m475.816406 195.03125-72.734375-72.734375c-1.839843-1.839844-4.820312-1.839844-6.660156 0l-92.359375 92.359375c-1.835938 1.835938-1.835938 4.820312 0 6.660156l17.835938 17.832032 24.191406-24.1875c10.234375-10.234376 26.828125-10.234376 37.0625 0 10.234375 10.234374 10.234375 26.828124 0 37.0625l-24.1875 24.191406 17.832031 17.835937c1.839844 1.835938 4.824219 1.835938 6.660156 0l92.359375-92.359375c1.839844-1.839844 1.839844-4.820312 0-6.660156zm0 0" fill="#42a5f5"/><path d="m458.457031 93.445312-15 15 21.585938 21.585938c5.222656 5.222656 5.222656 13.691406 0 18.914062l-17.65625 17.65625 15 15 42.113281-42.113281zm0 0" fill="#90a4ae"/><path d="m475.816406 195.03125-72.734375-72.734375c-1.839843-1.839844-4.820312-1.839844-6.660156 0l-16.671875 16.671875 34.722656 34.71875c13.625 13.628906 13.625 35.71875 0 49.347656l-54.34375 54.34375 16.667969 16.671875c1.839844 1.835938 4.820313 1.835938 6.660156 0l92.359375-92.359375c1.839844-1.839844 1.839844-4.820312 0-6.660156zm0 0" fill="#1976d2"/><path d="m290.113281 315.5c0 4.144531-3.359375 7.5-7.5 7.5-4.144531 0-7.5-3.355469-7.5-7.5 0-4.140625 3.355469-7.5 7.5-7.5 4.140625 0 7.5 3.359375 7.5 7.5zm0 0"/><path d="m459.503906 130.179688c0 4.140624-3.359375 7.5-7.5 7.5s-7.5-3.359376-7.5-7.5c0-4.144532 3.359375-7.5 7.5-7.5s7.5 3.355468 7.5 7.5zm0 0"/><path d="m475.433594 146.109375c0 4.144531-3.355469 7.5-7.5 7.5-4.140625 0-7.5-3.355469-7.5-7.5 0-4.140625 3.359375-7.5 7.5-7.5 4.144531 0 7.5 3.359375 7.5 7.5zm0 0"/><path d="m400.039062 72.945312c3.804688-3.804687 4.105469-9.796874.917969-13.960937l8.648438-8.648437c4.503906-4.507813 4.503906-11.84375 0-16.351563l-30.59375-30.59375c-4.519531-4.519531-11.832031-4.519531-16.355469 0l-8.644531 8.644531c-4.195313-3.21875-10.164063-2.882812-13.964844.921875-101.148437 101.140625-52.660156 52.660157-66.382813 66.382813-2.929687 2.929687-2.929687 7.675781 0 10.605468 2.929688 2.929688 7.675782 2.929688 10.605469 0l42.332031-42.332031 38.777344 38.777344-169.878906 169.882813-38.777344-38.777344 102.800782-102.800782c2.925781-2.929687 2.925781-7.679687 0-10.605468-2.933594-2.929688-7.679688-2.929688-10.609376 0-84.992187 84.992187 24.316407-24.316406-244.339843 244.339844-6.097657 6.097656-6.101563 16.023437 0 22.125l37.863281 37.863281c6.113281 6.117187 16.015625 6.117187 22.128906 0 23.304688-23.304688 311.164063-311.164063 335.472656-335.472657zm-3.46875-30.785156-6.144531 6.144532-25.734375-25.734376 6.144532-6.140624zm-49.007812-15.503906c78.402344 78.390625 8.652344 8.652344 38.777344 38.777344l-10.351563 10.351562-38.777343-38.777344zm-162.667969 240.222656c-3.023437 3.023438-7.574219 7.574219-17.132812 17.132813l-38.777344-38.777344 17.128906-17.132813zm-131.847656 130.933594-37.863281-37.863281c-.710938-.710938-7.042969 6.128906 103.195312-104.109375l38.777344 38.78125c-110.246094 110.242187-103.398438 103.902344-104.109375 103.191406zm0 0"/><path d="m292.085938 275.875c-4.46875-4.46875-11.707032-4.46875-16.175782 0l-30.40625 30.40625-.902344-.90625c-3.222656-3.230469-8.523437-3.324219-11.855468-.003906l-135.613282 135.617187c-6.109374 6.109375-6.113281 16.011719.003907 22.125l37.863281 37.863281c6.109375 6.117188 16.011719 6.117188 22.128906 0l49.164063-49.164062c2.929687-2.929688 2.929687-7.675781 0-10.605469-2.929688-2.925781-7.679688-2.929687-10.609375 0-52.09375 52.09375-49.367188 49.875-50.078125 49.164063l-37.863281-37.863282c-.710938-.710937-7.042969 6.128907 103.195312-104.109374l38.777344 38.78125-29.28125 29.28125c-2.929688 2.925781-2.929688 7.675781 0 10.605468 2.929687 2.929688 7.679687 2.929688 10.609375 0 35.417969-35.421875-35.074219 35.074219 61.691406-61.695312 1.585937-1.582032 2.460937-3.6875 2.460937-5.929688 0-3.425781-1.75-5.222656-3.363281-6.835937l30.402344-30.402344c4.46875-4.464844 4.472656-11.707031.003906-16.175781zm-31.765626 100.695312-38.777343-38.777343 17.128906-17.132813c18.136719 18.132813 20.332031 20.332032 38.78125 38.777344zm20.90625-34.570312c-15.054687-15.054688-9.472656-9.46875-25.113281-25.113281l27.886719-27.882813 25.113281 25.109375zm0 0"/><path d="m268.886719 154.082031c-1.035157-4.011719-5.121094-6.425781-9.136719-5.390625l-28.757812 7.417969c-5.609376 1.449219-7.527344 8.46875-3.429688 12.566406l7.917969 7.917969-19.90625 6.0625c-3.960938 1.207031-6.195313 5.394531-4.988281 9.359375.984374 3.234375 3.957031 5.316406 7.171874 5.316406 1.59375 0-.667968.542969 34.046876-10.03125 5.402343-1.644531 7.125-8.472656 3.121093-12.476562l-7.46875-7.46875 16.039063-4.140625c4.011718-1.03125 6.425781-5.121094 5.390625-9.132813zm0 0"/><path d="m509.804688 134.183594-46.042969-46.042969c-2.929688-2.925781-7.679688-2.929687-10.609375 0l-36.808594 36.808594-7.957031-7.953125c-4.769531-4.773438-12.496094-4.773438-17.269531 0l-92.355469 92.355468c-4.773438 4.769532-4.773438 12.496094 0 17.269532l12.53125 12.527344-11.78125 11.78125c-4.507813 4.511718-4.542969 11.839843 0 16.386718l31.285156 31.285156c4.53125 4.527344 11.859375 4.527344 16.386719 0l11.78125-11.777343 12.53125 12.53125c4.769531 4.765625 12.496094 4.773437 17.265625-.003907l10.714843-10.710937c2.929688-2.929687 2.929688-7.679687 0-10.609375-2.929687-2.925781-7.679687-2.929688-10.605468 0l-8.742188 8.742188-10.558594-10.554688 18.886719-18.886719c6.367188-6.367187 9.875-14.832031 9.875-23.835937 0-30.183594-36.53125-44.851563-57.546875-23.835938l-18.886718 18.886719-10.558594-10.5625 88.410156-88.410156 68.789062 68.785156-54.921874 54.921875c-4.738282 4.742188-1.316407 12.804688 5.304687 12.804688 1.917969 0 3.839844-.734376 5.304687-2.199219l56.890626-56.890625c4.773437-4.773438 4.777343-12.496094.003906-17.269532l-8.128906-8.128906 36.8125-36.808594c2.929687-2.925781 2.929687-7.675781 0-10.605468zm-158.410157 86.078125c7.3125-7.3125 19.144531-7.308594 26.453125 0 7.3125 7.3125 7.316406 19.148437 0 26.460937l-38.855468 38.859375-26.457032-26.460937c111.816406-111.816406-68.304687 68.304687 38.859375-38.859375zm110.992188-49.265625-35.4375-35.4375 31.507812-31.507813 35.4375 35.4375zm0 0"/></svg>