<?xml version="1.0" encoding="utf-8"?>
<!-- Generator: Adobe Illustrator 16.0.0, SVG Export Plug-In . SVG Version: 6.00 Build 0)  -->
<!DOCTYPE svg PUBLIC "-//W3C//DTD SVG 1.1//EN" "http://www.w3.org/Graphics/SVG/1.1/DTD/svg11.dtd">
<svg version="1.1" id="Layer_1" xmlns="http://www.w3.org/2000/svg" xmlns:xlink="http://www.w3.org/1999/xlink" x="0px" y="0px"
	 width="83.333px" height="83.333px" viewBox="0 0 83.333 83.333" enable-background="new 0 0 83.333 83.333" xml:space="preserve">
<title></title>
<path fill="#00BBFF" d="M72.108,13.806l-20.23,25.269l-5.168-18.087L65.7,8.07C47.209-5.323,21.363-1.191,7.97,17.298
	C-1.918,30.95-2.527,49.237,6.43,63.517c1.23-0.774,2.655-1.187,4.107-1.188h36.172c4.281,0,7.752,3.473,7.752,7.752
	s-3.471,7.752-7.752,7.752h-25.19C41.48,88.917,66.646,81.72,77.73,61.76C86.354,46.226,84.09,26.922,72.108,13.806z M51.877,50.185
	c0,2.424-1.967,4.394-4.393,4.394l0,0H7.179c-2.426,0-4.393-1.97-4.393-4.394l0,0V35.716c0-2.426,1.967-4.392,4.393-4.392h16.277
	V17.112c0-2.14,1.734-3.875,3.876-3.875h13.9c1.72-0.013,3.237,1.116,3.722,2.764l6.924,23.074V50.185L51.877,50.185z"/>
<circle fill="none" stroke="#000000" stroke-width="3" stroke-linecap="round" stroke-linejoin="round" cx="46.709" cy="70.08" r="7.751"/>
<circle fill="none" stroke="#000000" stroke-width="3" stroke-linecap="round" stroke-linejoin="round" cx="10.538" cy="70.08" r="7.751"/>
<line fill="none" stroke="#000000" stroke-width="3" stroke-linecap="round" stroke-linejoin="round" x1="46.709" y1="77.831" x2="10.77" y2="77.831"/>
<line fill="none" stroke="#000000" stroke-width="3" stroke-linecap="round" stroke-linejoin="round" x1="31.207" y1="70.081" x2="20.873" y2="70.081"/>
<line fill="none" stroke="#000000" stroke-width="3" stroke-linecap="round" stroke-linejoin="round" x1="46.709" y1="62.329" x2="10.77" y2="62.329"/>
<line fill="none" stroke="#000000" stroke-width="3" stroke-linecap="round" stroke-linejoin="round" x1="23.456" y1="59.745" x2="23.456" y2="57.161"/>
<line fill="none" stroke="#000000" stroke-width="3" stroke-linecap="round" stroke-linejoin="round" x1="33.792" y1="59.745" x2="33.792" y2="57.161"/>
<path fill="none" stroke="#000000" stroke-width="3" stroke-linecap="round" stroke-linejoin="round" d="M23.456,31.324H7.179
	c-2.426,0-4.393,1.966-4.393,4.392v14.469c0,2.424,1.967,4.394,4.393,4.394l0,0h40.306c2.426,0,4.393-1.97,4.393-4.394l0,0v-11.11
	L23.456,31.324z"/>
<path fill="none" stroke="#000000" stroke-width="3" stroke-linecap="round" stroke-linejoin="round" d="M51.877,39.075
	l-6.924-23.074c-0.492-1.642-2.006-2.768-3.722-2.764h-13.9c-2.142,0-3.876,1.734-3.876,3.875V30.29"/>
<path fill="none" stroke="#000000" stroke-width="3" stroke-linecap="round" stroke-linejoin="round" d="M10.538,28.739v-4.106
	c0.004-0.688-0.266-1.349-0.75-1.836l-1.833-1.809"/>
<line fill="none" stroke="#000000" stroke-width="3" stroke-linecap="round" stroke-linejoin="round" x1="33.792" y1="15.821" x2="33.792" y2="32.874"/>
<path fill="none" stroke="#000000" stroke-width="3" stroke-linecap="round" stroke-linejoin="round" d="M51.877,39.075
	l22.453-28.034c1.229-1.621,0.918-3.932-0.697-5.167l0,0c-1.309-0.927-3.059-0.927-4.365,0L46.709,20.988"/>
<path fill="none" stroke="#000000" stroke-width="3" stroke-linecap="round" stroke-linejoin="round" d="M75.131,9.361v29.714
	c-2.854-0.013-5.178,2.292-5.188,5.147c-0.017,2.85,2.291,5.174,5.146,5.187c1.384,0.006,2.713-0.543,3.687-1.523"/>
</svg>
