<?xml version="1.0" encoding="iso-8859-1"?>
<!-- Generator: Adobe Illustrator 19.0.0, SVG Export Plug-In . SVG Version: 6.00 Build 0)  -->
<svg version="1.1" id="Capa_1" xmlns="http://www.w3.org/2000/svg" xmlns:xlink="http://www.w3.org/1999/xlink" x="0px" y="0px"
	 viewBox="0 0 468.293 468.293" style="enable-background:new 0 0 468.293 468.293;" xml:space="preserve">
<path style="fill:#DC8744;" d="M195.633,343.755c0,0,12.12,43.089,20.506,57.171c1.268,2.129,1.303,4.768,0.132,6.952
	c-5.184,9.668-21.594,33.047-57.512,28.848c-3.818-0.446-6.657-3.758-6.428-7.595l4.225-70.776L195.633,343.755z"/>
<path style="fill:#F6C358;" d="M189.092,303.592l14.836,36.532c0.865,2.131,0.673,4.546-0.548,6.495
	c-5.546,8.855-23.119,33.212-50.055,35.936c-4.051,0.41-7.608-2.728-7.827-6.794l-3.494-64.684L189.092,303.592z"/>
<path style="fill:#DC8744;" d="M180.76,244.344c0,0,12.12,43.089,20.506,57.171c1.268,2.129,1.303,4.768,0.132,6.952
	c-5.184,9.668-21.594,33.047-57.512,28.848c-3.818-0.446-6.657-3.758-6.428-7.595l4.225-70.776L180.76,244.344z"/>
<path style="fill:#F6C358;" d="M176.351,208.982l14.836,36.532c0.865,2.131,0.673,4.546-0.548,6.495
	c-5.546,8.855-23.119,33.212-50.055,35.936c-4.051,0.41-7.608-2.728-7.827-6.794l-3.494-64.684L176.351,208.982z"/>
<path style="fill:#DC8744;" d="M165.031,151.809c0,0,12.12,43.089,20.506,57.171c1.268,2.129,1.303,4.768,0.132,6.952
	c-5.184,9.668-21.594,33.047-57.512,28.848c-3.818-0.446-6.657-3.758-6.428-7.595l4.225-70.776L165.031,151.809z"/>
<path style="fill:#F6C358;" d="M157.278,115.81l14.836,36.532c0.865,2.131,0.673,4.546-0.548,6.495
	c-5.546,8.855-23.119,33.212-50.055,35.936c-4.051,0.41-7.608-2.728-7.827-6.794l-3.494-64.684L157.278,115.81z"/>
<path style="fill:#44C4A1;" d="M270.04,214.321c0,0-19.252-41.456-60.376-64.291l8.489-14.219l-22.338,7.613l-33.659,0.693
	l13.653-26.387l-26.887,24.74c0,0-2.489,1.358-8.31-1.397c-8.74-4.158-14.448-12.868-15.301-22.522l-1.11-12.441l-0.033-0.318
	c0,0,22.536-38.72,87.643-2.53l5.434,20.23l8.388-13.603l31.511,21.615l-2.696,21.66l7.669-12.484c0,0,4.789,9.684,7.817,25.168
	C272.44,178.727,273.743,195.639,270.04,214.321z"/>
<path style="fill:#3EA69B;" d="M269.934,165.846c-6.359-3.281-12.243-7.47-17.378-12.435c-5.114-4.939-9.555-10.616-15.267-14.831
	c-5.533-4.097-12.035-6.622-18.141-9.799c-12.219-6.307-23.192-15.238-36.338-19.339c-15.586-4.889-32.066-2.396-48.077-1.923
	c-3.371,0.088-7.042-0.32-10.532-1.408l-0.033-0.318c0,0,22.536-38.72,87.643-2.53l5.434,20.23l8.388-13.603l31.511,21.615
	l-2.696,21.66l7.669-12.484C262.117,140.679,266.906,150.363,269.934,165.846z"/>
<path style="fill:#44C4A1;" d="M287.011,63.908c0,0-41.785-9.606-82.371,7.706l-5.644-14.473l-7.221,20.927l-18.863,25.327
	L161.23,78.094l2.845,34.155c0,0-0.427,2.625-5.818,5.35c-8.11,4.08-17.847,3.292-25.488-1.633l-9.853-6.34l-0.255-0.159
	c0,0-15.703-38.98,48.578-66.366l18.111,7.621l-5.246-14.043l34.148-10.895l14.489,14.465l-4.831-12.866
	c0,0,9.929,2.028,23.139,8.699C262.031,41.64,275.307,50.411,287.011,63.908z"/>
<path style="fill:#3EA69B;" d="M251.049,36.081c-6.091,2.821-12.58,4.767-19.213,5.712c-6.602,0.944-13.363,0.966-19.773,2.769
	c-6.219,1.739-11.832,5.101-17.7,7.795c-11.705,5.419-24.636,8.405-35.241,15.78c-12.593,8.729-20.233,22.37-29.1,34.5
	c-1.875,2.547-4.291,5.031-7.105,6.99l-0.255-0.159c0,0-15.703-38.98,48.578-66.366l18.111,7.621l-5.246-14.043l34.148-10.895
	l14.489,14.465l-4.831-12.866C227.91,27.383,237.839,29.411,251.049,36.081z"/>
<path style="fill:#44C4A1;" d="M13.803,252.027c0,0,7.033-45.162,40.236-78.481l-12.092-11.316l23.573,1.137l32.538-8.644
	l-20.421-21.58l32.682,16.337c0,0,2.768,0.616,7.599-3.641c7.249-6.413,10.324-16.362,8.473-25.874l-2.375-12.262l-0.056-0.315
	c0,0-32.369-30.975-84.925,21.809l0.374,20.944l-11.824-10.752L3.285,168.876l8.583,20.068l-10.824-9.876
	c0,0-1.923,10.631-0.549,26.347C1.65,218.486,5.076,235.099,13.803,252.027z"/>
<path style="fill:#3EA69B;" d="M0.495,205.415c5.204-4.912,9.699-10.565,13.26-16.756c3.548-6.16,6.246-12.844,10.568-18.475
	c4.184-5.467,9.733-9.692,14.723-14.434c9.998-9.44,18.072-21.058,29.571-28.635c13.626-9.009,30.153-11.171,45.67-15.146
	c3.264-0.848,6.679-2.256,9.732-4.266l-0.056-0.315c0,0-32.369-30.975-84.925,21.809l0.374,20.944l-11.824-10.752L3.285,168.876
	l8.583,20.068l-10.824-9.876C1.044,179.068-0.879,189.699,0.495,205.415z"/>
<path style="fill:#44C4A1;" d="M3.757,15.393c0,0,37.644,5.862,65.415,33.538l9.432-10.079l-0.948,19.649l7.205,27.121
	l17.988-17.021L89.232,95.843c0,0-0.514,2.307,3.035,6.334c5.345,6.042,13.638,8.606,21.567,7.063l10.221-1.979l0.263-0.047
	c0,0,25.819-26.98-18.178-70.787l-17.457,0.312l8.962-9.856L73.066,6.626L56.339,13.78l8.232-9.022c0,0-8.861-1.603-21.961-0.458
	C31.714,5.263,17.868,8.119,3.757,15.393z"/>
<path style="fill:#3EA69B;" d="M42.609,4.3c4.094,4.337,8.806,8.085,13.967,11.052c5.135,2.957,10.706,5.206,15.399,8.809
	c4.557,3.487,8.079,8.113,12.031,12.272c7.868,8.333,17.552,15.064,23.868,24.648c7.509,11.357,9.312,25.133,12.624,38.067
	c0.707,2.72,1.88,5.567,3.556,8.112l0.263-0.047c0,0,25.819-26.98-18.178-70.787l-17.457,0.312l8.962-9.856L73.066,6.626
	L56.339,13.78l8.232-9.022C64.57,4.759,55.709,3.156,42.609,4.3z"/>
<path style="fill:#DC8744;" d="M298.624,367.203c0,0-14.084,25.167-21.459,32.726c-1.115,1.143-1.534,2.791-1.13,4.335
	c1.791,6.838,8.549,23.955,31.682,26.736c2.459,0.296,4.736-1.351,5.171-3.789l8.015-44.974L298.624,367.203z"/>
<path style="fill:#F6C358;" d="M308.772,343.028l-14.798,20.65c-0.863,1.205-1.106,2.746-0.635,4.152
	c2.14,6.382,9.479,24.288,25.943,30.053c2.476,0.867,5.177-0.563,5.927-3.077l11.934-39.995L308.772,343.028z"/>
<path style="fill:#DC8744;" d="M322.917,307.167c0,0-14.084,25.167-21.459,32.726c-1.115,1.143-1.534,2.791-1.13,4.335
	c1.791,6.838,8.549,23.955,31.682,26.736c2.459,0.296,4.736-1.351,5.171-3.789l8.015-44.974L322.917,307.167z"/>
<path style="fill:#F6C358;" d="M331.007,285.678l-14.798,20.65c-0.863,1.205-1.106,2.746-0.635,4.152
	c2.14,6.382,9.479,24.288,25.943,30.053c2.476,0.867,5.177-0.563,5.927-3.077l11.933-39.995L331.007,285.678z"/>
<path style="fill:#DC8744;" d="M346.711,251.568c0,0-14.084,25.167-21.459,32.726c-1.115,1.143-1.534,2.791-1.13,4.335
	c1.791,6.838,8.549,23.955,31.682,26.736c2.459,0.296,4.736-1.351,5.171-3.79l8.015-44.974L346.711,251.568z"/>
<path style="fill:#F6C358;" d="M356.992,230.184l-14.798,20.65c-0.863,1.205-1.106,2.746-0.635,4.152
	c2.14,6.382,9.479,24.288,25.943,30.053c2.476,0.867,5.177-0.563,5.927-3.077l11.934-39.995L356.992,230.184z"/>
<path style="fill:#44C4A1;" d="M271.511,274.909c0,0,18.306-23.07,47.508-31.18l-3.176-10.186l12.847,8.134l20.981,5.505
	l-4.578-18.587l13.117,19.549c0,0,1.355,1.226,5.416,0.377c6.101-1.288,10.989-5.885,12.978-11.804l2.57-7.626l0.069-0.194
	c0,0-8.285-27.651-54.523-14.788l-6.452,11.855l-3.205-9.785l-22.996,8.794l-1.574,13.975l-2.923-8.976
	c0,0-4.459,5.345-8.688,14.589C275.37,252.25,272.006,262.648,271.511,274.909z"/>
<path style="fill:#3EA69B;" d="M278.88,244.558c4.478-1.097,8.795-2.835,12.76-5.172c3.948-2.324,7.585-5.211,11.798-6.991
	c4.083-1.733,8.537-2.335,12.841-3.406c8.605-2.11,16.824-6.052,25.678-6.641c10.5-0.715,20.449,3.33,30.408,6.038
	c2.098,0.563,4.46,0.86,6.81,0.705l0.069-0.194c0,0-8.285-27.651-54.523-14.788l-6.452,11.855l-3.205-9.785l-22.996,8.794
	l-1.574,13.975l-2.923-8.976C287.568,229.969,283.109,235.315,278.88,244.558z"/>
<path style="fill:#44C4A1;" d="M283.539,178.126c0,0,27.624,0.277,50.44,17.236l5.716-8.216l1.371,14.197l8.001,18.708l11.13-14.09
	l-6.927,20.968c0,0-0.128,1.709,2.839,4.228c4.466,3.777,10.684,4.751,16.213,2.817l7.128-2.487l0.184-0.061
	c0,0,15.71-22.053-20.434-48.893l-12.494,2.046l5.402-8.007l-19.751-11.969l-11.256,6.879l4.965-7.332c0,0-6.526-0.225-15.806,1.963
	C302.542,167.94,292.905,171.434,283.539,178.126z"/>
<path style="fill:#3EA69B;" d="M310.26,166.112c3.391,2.685,7.163,4.882,11.176,6.473c3.993,1.586,8.226,2.618,11.969,4.713
	c3.634,2.027,6.644,4.978,9.914,7.549c6.516,5.158,14.167,8.977,19.7,15.194c6.574,7.365,9.305,17.061,13.033,25.996
	c0.791,1.878,1.93,3.798,3.398,5.449l0.184-0.061c0,0,15.71-22.053-20.434-48.893l-12.494,2.046l5.402-8.007l-19.751-11.969
	l-11.256,6.879l4.965-7.332C326.066,164.148,319.54,163.923,310.26,166.112z"/>
<path style="fill:#44C4A1;" d="M426.35,337.132c0,0,2.398-29.352-13.383-55.226l9.28-5.267l-14.939-2.839l-19.081-10.316
	l16.044-10.443l-22.935,5.311c0,0-1.827-0.031-4.212-3.426c-3.575-5.109-4.003-11.805-1.41-17.486l3.335-7.324l0.083-0.189
	c0,0,24.944-14.528,49.916,26.456l-3.39,13.064l9.027-4.954l10.782,22.133l-8.4,11.279l8.268-4.556c0,0-0.397,6.949-3.625,16.588
	C439.017,317.951,434.368,327.841,426.35,337.132z"/>
<path style="fill:#3EA69B;" d="M441.71,309.936c-2.52-3.861-4.485-8.079-5.782-12.495c-1.295-4.394-1.978-8.987-3.837-13.166
	c-1.797-4.055-4.637-7.538-7.048-11.26c-4.841-7.42-8.149-15.914-14.211-22.393c-7.179-7.696-17.206-11.541-26.328-16.368
	c-1.917-1.023-3.844-2.419-5.454-4.138l0.083-0.189c0,0,24.944-14.528,49.916,26.456l-3.39,13.064l9.027-4.954l10.782,22.133
	l-8.4,11.279l8.268-4.556C445.335,293.349,444.938,300.298,441.71,309.936z"/>
<path style="fill:#44C4A1;" d="M468.293,190.406c0,0-24.465-1.998-46.032,11.155l-4.39-7.735l-2.366,12.452l-8.599,15.905
	l-8.704-13.373l4.427,19.117c0,0-0.026,1.523-2.855,3.511c-4.259,2.98-9.84,3.336-14.575,1.176l-6.105-2.78l-0.157-0.069
	c0,0-12.109-20.791,22.052-41.606l10.889,2.825l-4.13-7.524l18.448-8.987l9.401,7.001l-3.798-6.892c0,0,5.792,0.331,13.826,3.021
	C452.305,179.848,460.549,183.723,468.293,190.406z"/>
<path style="fill:#3EA69B;" d="M445.625,177.604c-3.218,2.1-6.734,3.738-10.415,4.82c-3.662,1.079-7.491,1.649-10.974,3.198
	c-3.38,1.498-6.283,3.865-9.386,5.875c-6.185,4.035-13.265,6.793-18.665,11.845c-6.415,5.984-9.62,14.342-13.643,21.945
	c-0.852,1.598-2.016,3.204-3.449,4.546l-0.157-0.069c0,0-12.109-20.791,22.052-41.606l10.889,2.825l-4.13-7.524l18.448-8.987
	l9.401,7.001l-3.798-6.892C431.798,174.582,437.591,174.913,445.625,177.604z"/>
<path style="fill:#F6C358;" d="M113.669,464.404c-5.182,0-9.084-4.705-8.128-9.798c0.992-5.28,1.897-10.939,2.895-12.157
	c9.281-11.326,25.229-10.328,38.872-8.447l-0.386-1.774c-3.129-14.361,5.951-28.583,19.148-29.68
	c11.233-0.934,23.071-0.784,30.802-9.137c2.428-2.623,4.371-6.04,7.491-7.488c9.206-4.273,17.536,11.544,27.41,10.009
	c3.097-0.481,5.745-2.646,8.633-3.985c14.628-6.779,29.911,8.329,45.7,9.724c6.005,0.531,12.174-0.959,18.007,0.721
	c5.199,1.497,9.546,5.342,14.009,8.675c13.855,10.346,30.265,16.357,46.907,17.272c3.954,0.218,7.591,2.18,10.168,5.536
	c5.624,7.325,12.073,13.859,19.137,19.416c4.276,3.363,2.009,10.94-3.22,11.015l-6.797,0.097H113.669z"/>
<g>
</g>
<g>
</g>
<g>
</g>
<g>
</g>
<g>
</g>
<g>
</g>
<g>
</g>
<g>
</g>
<g>
</g>
<g>
</g>
<g>
</g>
<g>
</g>
<g>
</g>
<g>
</g>
<g>
</g>
</svg>
