<?xml version="1.0" encoding="utf-8"?>
<!-- Generator: Adobe Illustrator 16.0.0, SVG Export Plug-In . SVG Version: 6.00 Build 0)  -->
<!DOCTYPE svg PUBLIC "-//W3C//DTD SVG 1.1//EN" "http://www.w3.org/Graphics/SVG/1.1/DTD/svg11.dtd">
<svg version="1.1" id="Line" xmlns="http://www.w3.org/2000/svg" xmlns:xlink="http://www.w3.org/1999/xlink" x="0px" y="0px"
	 width="85.5px" height="85.5px" viewBox="0 0 85.5 85.5" enable-background="new 0 0 85.5 85.5" xml:space="preserve">
<path fill="#EF6662" d="M68.547,2H32.083c-1.007,0-1.823,0.816-1.823,1.823v80.222h40.111V3.823C70.371,2.816,69.555,2,68.547,2z"/>
<path fill="#316596" d="M15.674,27.525c-0.503,0-0.912-0.408-0.912-0.912V15.674c0-0.503,0.408-0.912,0.912-0.912
	c0.503,0,0.912,0.408,0.912,0.912v10.939C16.586,27.117,16.177,27.525,15.674,27.525z"/>
<path fill="#F2BE07" d="M30.26,25.702v58.343H3.823C2.816,84.045,2,83.229,2,82.222V27.525c0-1.007,0.816-1.823,1.823-1.823H30.26z"
	/>
<g>
	<path fill="#EFEFEF" d="M6.558,30.26h7.293v7.293H6.558V30.26z"/>
	<path fill="#EFEFEF" d="M18.409,30.26h7.292v7.293h-7.292V30.26z"/>
	<path fill="#EFEFEF" d="M6.558,42.111h7.293v7.293H6.558V42.111z"/>
	<path fill="#EFEFEF" d="M18.409,42.111h7.292v7.293h-7.292V42.111z"/>
	<path fill="#EFEFEF" d="M6.558,53.962h7.293v7.292H6.558V53.962z"/>
	<path fill="#EFEFEF" d="M18.409,53.962h7.292v7.292h-7.292V53.962z"/>
	<path fill="#EFEFEF" d="M34.818,6.558h7.293v7.293h-7.293V6.558z"/>
	<path fill="#EFEFEF" d="M46.669,6.558h7.293v7.293h-7.293V6.558z"/>
	<path fill="#EFEFEF" d="M58.52,6.558h7.292v7.293H58.52V6.558z"/>
	<path fill="#EFEFEF" d="M34.818,18.409h7.293v7.292h-7.293V18.409z"/>
	<path fill="#EFEFEF" d="M46.669,18.409h7.293v7.292h-7.293V18.409z"/>
	<path fill="#EFEFEF" d="M58.52,18.409h7.292v7.292H58.52V18.409z"/>
	<path fill="#EFEFEF" d="M34.818,30.26h7.293v7.293h-7.293V30.26z"/>
	<path fill="#EFEFEF" d="M46.669,30.26h7.293v7.293h-7.293V30.26z"/>
	<path fill="#EFEFEF" d="M58.52,30.26h7.292v7.293H58.52V30.26z"/>
	<path fill="#EFEFEF" d="M34.818,42.111h7.293v7.293h-7.293V42.111z"/>
	<path fill="#EFEFEF" d="M46.669,42.111h7.293v7.293h-7.293V42.111z"/>
	<path fill="#EFEFEF" d="M58.52,42.111h7.292v7.293H58.52V42.111z"/>
</g>
<path fill="#316596" d="M74.017,63.078c-0.503,0-0.912-0.409-0.912-0.912v-2.735c0-1.507-1.227-2.735-2.735-2.735h-5.47
	c-1.508,0-2.735,1.228-2.735,2.735v2.735c0,0.503-0.408,0.912-0.911,0.912c-0.503,0-0.912-0.409-0.912-0.912v-2.735
	c0-2.513,2.045-4.558,4.558-4.558h5.47c2.513,0,4.558,2.044,4.558,4.558v2.735C74.929,62.669,74.521,63.078,74.017,63.078z"/>
<path fill="#316596" d="M82.222,84.045H53.05c-1.007,0-1.823-0.816-1.823-1.823V63.989c0-1.007,0.816-1.823,1.823-1.823h29.171
	c1.007,0,1.823,0.816,1.823,1.823v18.232C84.045,83.229,83.229,84.045,82.222,84.045z"/>
<path fill="#6EBAED" d="M82.222,84.045H53.05c-1.007,0-1.823-0.816-1.823-1.823V71.282h32.818v10.939
	C84.045,83.229,83.229,84.045,82.222,84.045z"/>
<path fill="#316596" d="M57.608,69.459h3.647v4.558h-3.647V69.459z"/>
<path fill="#316596" d="M74.017,69.459h3.646v4.558h-3.646V69.459z"/>
<path fill="#F2BE07" d="M56.696,84.045c0-3.023-2.446-5.47-5.469-5.47v3.646c0,1.007,0.816,1.823,1.823,1.823H56.696z"/>
<path fill="#F2BE07" d="M78.575,84.045c0-3.023,2.447-5.47,5.47-5.47v3.646c0,1.007-0.816,1.823-1.823,1.823H78.575z"/>
<path fill="#3BA1E3" d="M14.736,6.336c0.39-0.39,1.038-0.347,1.377,0.088c2.498,3.218,2.269,7.868-0.688,10.825
	c-2.957,2.956-7.605,3.185-10.825,0.687c-0.436-0.338-0.479-0.986-0.088-1.377L14.736,6.336z"/>
<path fill="#316596" d="M35.729,84.045V65.813c0-1.007,0.816-1.823,1.823-1.823h7.293c1.007,0,1.823,0.816,1.823,1.823v18.232
	h-7.293H35.729z"/>
<path fill="#F2BE07" d="M61.255,68.547h-3.647c-0.503,0-0.912,0.409-0.912,0.912v4.558c0,0.503,0.409,0.912,0.912,0.912h0.912v1.823
	c0,0.503,0.408,0.912,0.911,0.912c0.503,0,0.912-0.408,0.912-0.912v-1.823h0.912c0.503,0,0.911-0.408,0.911-0.912v-4.558
	C62.166,68.956,61.758,68.547,61.255,68.547z M60.343,73.105H58.52v-2.735h1.823V73.105z"/>
<path fill="#F2BE07" d="M77.664,68.547h-3.646c-0.503,0-0.912,0.409-0.912,0.912v4.558c0,0.503,0.409,0.912,0.912,0.912h0.912v1.823
	c0,0.503,0.408,0.912,0.912,0.912s0.912-0.408,0.912-0.912v-1.823h0.912c0.503,0,0.912-0.408,0.912-0.912v-4.558
	C78.575,68.956,78.167,68.547,77.664,68.547z M76.752,73.105h-1.823v-2.735h1.823V73.105z"/>
<circle fill="#E05551" cx="37.553" cy="60.343" r="0.912"/>
<circle fill="#E05551" cx="41.199" cy="60.343" r="0.912"/>
<circle fill="#E05551" cx="44.846" cy="60.343" r="0.912"/>
</svg>
