<svg xmlns="http://www.w3.org/2000/svg" width="95.269" height="91.176" viewBox="0 0 95.269 91.176"><defs><style>.a{fill:#8bc34a;}.b{fill:#74727f;}.c{fill:#5f5e6a;}.d{fill:#eeefeb;}.e{fill:#d6d6d0;}.f{fill:#363540;}.g{fill:#21212b;}.h{fill:#ffc743;}.i{fill:#fbb031;}.j{fill:#f7991e;}.k{fill:#4b4a55;}.l{fill:#ed8718;}.m{fill:#c6c6c1;}</style></defs><g transform="translate(0 -11)"><path class="a" d="M105.633,77.29a51.588,51.588,0,0,0,3.1-17.692c0-26.84-20.283-48.6-45.3-48.6C45.146,11,29.395,22.618,22.236,39.346L22.45,77.29Z" transform="translate(-17.825)"/><path class="b" d="M23.391,345.193l.017,3.09C30.65,364.726,46.214,376.1,64.25,376.1c19.145,0,35.508-12.815,42.084-30.906Z" transform="translate(-18.751 -273.923)"/><path class="c" d="M58.832,345.193H23.391l.019,3.09a48.764,48.764,0,0,0,26.852,24.724C38.769,365.682,42.744,345.193,58.832,345.193Z" transform="translate(-18.751 -273.923)"/><path class="d" d="M77.7,88.428A1.575,1.575,0,0,0,76.2,87.311H70.072a1.575,1.575,0,0,0-1.507,1.117L66.2,96.212H80.07Z" transform="translate(-53.068 -62.206)"/><path class="e" d="M74.749,87.311H70.072a1.575,1.575,0,0,0-1.507,1.117L66.2,96.213h6.49l1.259-7.785C74.055,87.764,74.38,87.311,74.749,87.311Z" transform="translate(-53.068 -62.206)"/><path class="f" d="M75.386,129.963H61.515a1.159,1.159,0,0,0-1.159,1.159v3.125q3.21-.289,6.435-.421c1.866-.073,3.728-.116,5.535-.116a22.118,22.118,0,0,1,4.219.455v-3.044A1.159,1.159,0,0,0,75.386,129.963Z" transform="translate(-48.384 -96.895)"/><path class="g" d="M68.076,129.963H61.515a1.159,1.159,0,0,0-1.159,1.159v3.125q3.21-.289,6.435-.421,1.021-.04,2.036-.066a1.872,1.872,0,0,0-.378-.431C66.381,131.585,68.076,129.963,68.076,129.963Z" transform="translate(-48.384 -96.895)"/><path class="h" d="M93.785,169.847c-2.939-2.494-10.481-7.339-24.717-7.339H60.444a13.441,13.441,0,0,1-7.531-2.325c-6.532-4.409-21.193-13.552-30.454-13.552-1.695,0-3.441.043-5.192.116a113.029,113.029,0,0,0-13.13,1.326q-.809,1.878-1.467,3.841L.127,164.73c-.082,1.188-.127,2.386-.127,3.6a51.456,51.456,0,0,0,2.4,15.6H59.015c-.005-.147-.01-.293-.01-.441,0-6.541,4.992-11.863,11.128-11.863s11.128,5.322,11.128,11.863a12.493,12.493,0,0,1-.708,4.16h.894a28.889,28.889,0,0,0,6.475-.736l4.244-.976a4.141,4.141,0,0,0,3.1-4.1v-8.706a4.3,4.3,0,0,0-1.484-3.281Z" transform="translate(0 -111.611)"/><path class="i" d="M29.287,183.474c-4.716-1.346-5.137-6.63-5.137-6.63l-1.677-10.963-2.349-15.416a2.281,2.281,0,0,1-.059-3.532q-.827.024-1.658.056a128.2,128.2,0,0,0-14,1.326q-.862,1.878-1.564,3.841L.135,164.972C.048,166.16,0,167.358,0,168.568a48.537,48.537,0,0,0,2.558,15.6H29.8a.709.709,0,0,0-.514-.695Z" transform="translate(0 -111.677)"/><path class="e" d="M457.154,244.231a30.393,30.393,0,0,0-9.258-4.81l-1.385,1.584a3.867,3.867,0,0,0,.178,5.278l1.243,1.243a3.866,3.866,0,0,0,2.734,1.132h8.071v-1.147A4.192,4.192,0,0,0,457.154,244.231Z" transform="translate(-363.466 -186.213)"/><path class="d" d="M479.473,257.385a4.192,4.192,0,0,0-1.582-3.281,25.3,25.3,0,0,0-3.612-2.367,4.586,4.586,0,0,0-2.081,6.795h7.275Z" transform="translate(-384.204 -196.165)"/><path class="i" d="M474.071,313.379a2.654,2.654,0,0,0-2.646,2.646v1.213a2.654,2.654,0,0,0,2.646,2.646h.8l1.291-.279a4.194,4.194,0,0,0,3.309-4.1v-2.127Z" transform="translate(-384.204 -246.381)"/><path class="j" d="M475.448,317.238v-1.213a2.654,2.654,0,0,1,2.646-2.646H474.07a2.654,2.654,0,0,0-2.646,2.646v1.213a2.654,2.654,0,0,0,2.646,2.646h.8l1.291-.279a4.176,4.176,0,0,0,.5-.146A2.648,2.648,0,0,1,475.448,317.238Z" transform="translate(-384.203 -246.381)"/><path class="i" d="M55.37,236.916a11.018,11.018,0,0,1-6.569,1.853L.147,236.827Q0,238.71,0,240.63a48.537,48.537,0,0,0,2.558,15.6H57.679V240.647a1.866,1.866,0,0,0-.367-1.111Z" transform="translate(0 -184.499)"/><path class="j" d="M29.287,255.536c-4.716-1.346-5.137-6.63-5.137-6.63l-1.677-10.963-.035-.227-22.291-.89Q0,238.71,0,240.63a48.537,48.537,0,0,0,2.558,15.6H29.8A.709.709,0,0,0,29.287,255.536Z" transform="translate(0 -184.499)"/><path class="f" d="M52.773,275.661H.786q.133,1.67.377,3.308h51.61a1.654,1.654,0,0,0,0-3.308Z" transform="translate(-0.63 -215.529)"/><path class="g" d="M22.99,277.316a1.654,1.654,0,0,1,1.654-1.654H.786q.133,1.67.377,3.308H24.644a1.654,1.654,0,0,1-1.654-1.654Z" transform="translate(-0.63 -215.53)"/><path class="f" d="M136.425,177.9q-.35-.2-.691-.416c-12.894-8.164-24.369-13.039-30.7-13.039-1.2,0-2.482.02-3.817.059l-.058,7.437,2.372,7.752-.292.213,26.654,1.064a11.019,11.019,0,0,0,6.569-1.853A.717.717,0,0,0,136.425,177.9Z" transform="translate(-83.011 -125.276)"/><path class="g" d="M11.657,182.955l.177-6.755L9.5,168.8q-3.063.359-6.118.867A48.355,48.355,0,0,0,.663,182.516Z" transform="translate(-0.531 -128.766)"/><path class="c" d="M72.772,165.026l2.27,14.9,5.769.23-2.349-15.416q-.782.023-1.588.054Q74.823,164.874,72.772,165.026Z" transform="translate(-58.158 -125.488)"/><path class="k" d="M47.368,180.862l5.579.223-2.27-14.9q-2.735.2-5.467.517Z" transform="translate(-36.243 -126.655)"/><path class="g" d="M231.843,211.308q-.35-.2-.691-.417c-2.758-1.747-5.451-3.341-8.043-4.771,0,.006,1.71,5.523-2.917,8.054l5.124.2a11.019,11.019,0,0,0,6.569-1.853A.716.716,0,0,0,231.843,211.308Z" transform="translate(-179.582 -159.036)"/><path class="d" d="M215.569,226.637h-3.715a1.856,1.856,0,0,0-1.85,1.85v6.024a1.856,1.856,0,0,0,1.85,1.85h3.715a4.191,4.191,0,0,0,4.178-4.178v-1.368A4.191,4.191,0,0,0,215.569,226.637Z" transform="translate(-171.202 -175.807)"/><path class="e" d="M213.158,232.183v-1.368a4.193,4.193,0,0,1,3.294-4.081,4.142,4.142,0,0,0-.884-.1h-3.715a1.856,1.856,0,0,0-1.85,1.85v6.024a1.856,1.856,0,0,0,1.85,1.85h3.715a4.153,4.153,0,0,0,.884-.1A4.193,4.193,0,0,1,213.158,232.183Z" transform="translate(-171.102 -175.807)"/><path class="j" d="M317.312,258.085a14.763,14.763,0,0,0-14.746,14.746c0,.148.007.294.011.441h2.884c-.005-.147-.011-.293-.011-.441a11.863,11.863,0,1,1,22.97,4.16h.953c.7,0,1.4-.025,2.1-.07a14.737,14.737,0,0,0-14.165-18.836Z" transform="translate(-248.84 -201.842)"/><path class="j" d="M12.174,332.427a48.277,48.277,0,0,0,2.244,5.623H74.079a11.787,11.787,0,0,1-1.42-5.623Z" transform="translate(-9.759 -261.861)"/><path class="l" d="M39.391,333.313a.7.7,0,0,0,.026-.887H12.174a48.276,48.276,0,0,0,2.244,5.623H40.356C37.618,336.229,38.479,334.372,39.391,333.313Z" transform="translate(-9.759 -261.86)"/><path class="g" d="M327.629,295.342a12.193,12.193,0,1,1,12.193-12.193A12.207,12.207,0,0,1,327.629,295.342Z" transform="translate(-259.381 -212.654)"/><path d="M335.549,296.548c-2.185-.316-2.405-1.638-2.308-2.486a.855.855,0,0,0-.557-.9,1.715,1.715,0,0,1-1.219-1.41.848.848,0,0,0-.613-.693c-5.558-1.595-5.392-6.425-5.115-8.255a.862.862,0,0,0-.477-.913,1.364,1.364,0,0,1-.807-1.706.855.855,0,0,0-.428-.956,2.142,2.142,0,0,1-1.152-2.47.859.859,0,0,0-.128-.64,12.189,12.189,0,1,0,12.8,20.429Z" transform="translate(-257.7 -216.818)"/><circle class="e" cx="6.883" cy="6.883" r="6.883" transform="translate(63.016 63.77)"/><path class="m" d="M353.365,313.056a1.652,1.652,0,0,1-.442-.924.848.848,0,0,0-.613-.693c-5.558-1.595-5.392-6.425-5.115-8.255a.862.862,0,0,0-.477-.913,1.418,1.418,0,0,1-.764-.729,6.88,6.88,0,1,0,7.41,11.513Z" transform="translate(-279.049 -237.032)"/><path class="d" d="M343.266,307.11a8.324,8.324,0,1,1,8.324-8.324A8.334,8.334,0,0,1,343.266,307.11Zm0-13.767a5.443,5.443,0,1,0,5.443,5.443A5.449,5.449,0,0,0,343.266,293.344Z" transform="translate(-273.425 -228.171)"/><path class="e" d="M348.763,307.674a.849.849,0,0,0-.443-.37,1.714,1.714,0,0,1-1.219-1.41.83.83,0,0,0-.193-.424,5.441,5.441,0,1,1-5.645-9.1.823.823,0,0,0-.366-.338,1.364,1.364,0,0,1-.807-1.706.851.851,0,0,0-.059-.567,8.322,8.322,0,1,0,8.733,13.913Z" transform="translate(-273.267 -230.831)"/></g></svg>