<?xml version="1.0" ?><svg id="katman_1" style="enable-background:new 0 0 512 512;" version="1.1" viewBox="0 0 512 512" xml:space="preserve" xmlns="http://www.w3.org/2000/svg" xmlns:xlink="http://www.w3.org/1999/xlink"><style type="text/css">
	.st0{fill:#1B2836;}
	.st1{fill:#5D67AD;}
	.st2{fill-rule:evenodd;clip-rule:evenodd;fill:#EE7477;}
	.st3{fill-rule:evenodd;clip-rule:evenodd;fill:#EA515A;}
	.st4{fill:#409BD6;}
	.st5{fill:#65A8B1;}
</style><ellipse class="st0" cx="254.9" cy="259.2" rx="33.7" ry="33.7" transform="matrix(0.9962 -8.722012e-02 8.722012e-02 0.9962 -21.6377 23.2201)"/><path class="st0" d="M256.7,298.4L256.7,298.4L208.3,170c-11.4,19.3-47.8,72.5-116.2,104.9l15.5,41.2h0L120,349  c73.4-21.4,135-6.9,155.5-0.6L256.7,298.4z"/><path class="st0" d="M21,303.8c-12.7,8.7-18.4,25.3-12.8,40.3l0.5,1.3l0,0l2.7,7.3c5.7,15,20.9,23.7,36.2,21.9L21,303.8z"/><path class="st0" d="M141.2,454.6l-2.6-6.8c-0.9-2.5-3.8-3.7-6.2-2.8c0,0-8.8-17.8-11.8-26c-3.9-10.3-14.2-37.6-17.6-46.6l8.1-6.6  c1.6-1.3,2.1-3.3,1.5-5.1l-25.9,9.8l0,0l-29.5,11.1c0.2,0.3,0.3,0.6,0.5,0.9l10.1,12.4c1.6,2,4.6,2.3,6.7,0.7l24.2,67.2l0.9,2.4  l1.6,4.3c0.9,2.5,3.7,3.7,6.2,2.8l30.9-11.7C140.9,459.9,142.1,457.1,141.2,454.6z"/><polygon class="st1" points="103.1,372.5 115.5,387.8 110.7,392.5 "/><path class="st1" d="M92.1,274.9c-1.9-4.9-7.4-7.4-12.3-5.6l-53.9,20.3c-4.9,1.9-7.4,7.4-5.6,12.3L35.8,343l0,0l12,31.9  c1.9,4.9,7.4,7.5,12.4,5.6l53.9-20.3c4.9-1.9,7.4-7.4,5.6-12.4L92.1,274.9z"/><path class="st1" d="M295.9,345.3l-33.1-87.9l-37.2-98.8c-1.5-4.1-6.2-6.2-10.3-4.7l-3.9,1.5c-4.1,1.6-6.2,6.2-4.7,10.3L277,352.4  c1.5,4.1,6.2,6.2,10.3,4.7l3.9-1.5C295.3,354.1,297.4,349.4,295.9,345.3z"/><path class="st2" d="M436.6,215.2c-27,9.7-41.1,39.4-31.4,66.4c9.7,27,39.4,41.1,66.4,31.4s41.1-39.4,31.4-66.4  C493.3,219.6,463.6,205.6,436.6,215.2z M464.5,261.8c5.3,14.8-1,28.3-15.6,33.5c-14.3,5.1-30.1-2.2-35.1-16.2  c-5-14.1,2.5-29.7,16.9-34.8c6.3-2.2,13.1-2.2,19.3,0.2l-3.9,9.8c-3.8-1.4-8-1.5-11.8-0.1c-8.8,3.1-13.4,12.7-10.3,21.3  c3.1,8.6,12.7,13.1,21.5,9.9c7.4-2.7,11-8,10.3-14.9l-13.7,4.9l-3.5-9.9l24.4-8.7L464.5,261.8z M487.1,255.5l3.2,9l-6.5,2.3l-3.2-9  l-9,3.2l-2.3-6.5l9-3.2l-3.2-9l6.5-2.3l3.2,9l9-3.2l2.3,6.5L487.1,255.5z"/><path class="st3" d="M353.3,317.6c27-9.7,56.7,4.4,66.4,31.4c9.7,27-4.4,56.7-31.4,66.4c-4.9,1.7-9.8,2.7-14.7,3  c0.3-2.8,1-6,1.2-7.1c0.9-6.4-1.5-18.5-1.1-20.1c1.6,1.3,3.6,2.1,5.5,2.4c1.9,0.3,4.7,0.3,6.6-0.1c4.7-1.1,9.5-4.5,12-7.5  c5.5-6.3,7.3-14.7,6.6-23.2c-0.9-10.7-4.5-19.1-12-24.9c-5.6-4.4-14-7.2-23.5-5.9c-9.8,1.3-19.5,6.9-24.9,13.4  c-4.9,5.8-8.4,13.4-8,22.5c0.2,4.9,1.7,9.9,4.4,14.3c5.4,8.7,14.4,10.3,15.4,8c0.3-0.7,0-5.8-0.6-6.7c-0.9-1.5-5.5-2-8.2-10.4  c-3-9.7,0.3-18.6,5.3-23.7c6.4-6.7,17.3-10.3,25.5-7.5c8.2,2.7,12.8,10.5,14.1,21.9c0.5,4.7,0.3,9-1,12.7c-0.7,1.9-1.4,3.7-2.8,5.3  c-5.6,6.4-14.4,4.3-15.6-2.9c-0.7-4.3-0.5-9.2-0.9-13.6c-1.2-13.1-9.5-12.4-13.2-8.4c-4.6,4.9-3,13.6,1,19c0.9,1.2,1.5,1.4,1.7,2.9  l1.2,10.3c0.9,7.1,1.2,13.3,2.4,19.5c0.7,3.4,1.4,6.6,2.2,9.8c-19.8-1.5-37.8-14.4-44.9-34.3C312.2,357,326.3,327.3,353.3,317.6z"/><path class="st4" d="M294.7,44.3C268.7,32,237.8,43,225.5,69c-12.3,25.9-1.2,56.9,24.7,69.2c9.9,4.7,20.6,6,30.6,4.3l-13.9-38.9  l-11,3.9l-4.7-13.2l11-3.9l-2.6-7.2c-3.2-9,1.5-18.9,10.5-22.1l13.3-4.8l4.8,13.4l-6.9,2.5c-3,1.1-4.6,4.4-3.5,7.4l1.7,4.7l12.3-4.4  l4.7,13.2l-12.3,4.4l13.9,39c8.9-5.1,16.5-12.9,21.2-22.9C331.6,87.5,320.6,56.5,294.7,44.3z"/><path class="st5" d="M429.3,85.8c-25.9-12.3-56.9-1.2-69.2,24.7c-12.3,25.9-1.2,56.9,24.7,69.2c25.9,12.3,56.9,1.2,69.2-24.7  C466.3,129,455.2,98,429.3,85.8z M428.5,109.5c13.9,34.1-18.2,63.6-47,55.7c7.5-1.8,13.8-5.5,17.9-12.4c-5.8,1.5-11.2,0-16.3-5.2  c2.3-0.4,4.5-0.9,6.3-2.3c-7.7,1-13-3.1-15.7-9.7c2.5,0.3,4.3,0.2,6.5-0.6c-7.4-2.3-11.5-8.3-10.4-16.3c11.6,7.1,22.4,7.8,32.6,4  c-7.4-15,7.7-26.7,19.1-20.7c3.3-2.3,5.8-4.3,7.3-6.4c0.5,3.4-0.7,6.5-3,9.5c2.6-1.2,4.9-2.7,6.8-4.7  C432,103.7,430.7,106.8,428.5,109.5z"/><path class="st1" d="M287.2,191.5l-2.9-1.4l-7.6,16.1l2.9,1.4c26.5,12.5,37.9,44.3,25.3,70.8l-1.4,2.9l16.1,7.6l1.4-2.9  C337.7,250.6,322.5,208.2,287.2,191.5z"/><path class="st1" d="M307,163.7l-3.9-1.8l-8.9,18.8l3.9,1.8c18.7,8.9,32.9,24.5,39.9,44.1c6.9,19.4,6,40.2-2.6,58.8l-3.6,3.8  l19.2,9.1l2.6-2.7l0.3-0.6c11.3-23.8,12.6-50.5,3.7-75.3C348.8,194.8,330.8,174.9,307,163.7z"/></svg>