<svg xmlns="http://www.w3.org/2000/svg" width="79.654" height="82" viewBox="0 0 79.654 82"><defs><style>.a{fill:#ff2d20;fill-rule:evenodd;}</style></defs><path class="a" d="M79.609,18.551a1.3,1.3,0,0,1,.045.335v17.6a1.283,1.283,0,0,1-.645,1.113L64.236,46.106V62.964a1.287,1.287,0,0,1-.642,1.113L32.757,81.829a1.378,1.378,0,0,1-.225.093c-.029.01-.056.027-.087.035a1.291,1.291,0,0,1-.658,0c-.035-.01-.067-.029-.1-.042a1.335,1.335,0,0,1-.212-.087L.645,64.077A1.285,1.285,0,0,1,0,62.964v-52.8a1.312,1.312,0,0,1,.045-.337c.01-.037.032-.071.045-.107a1.265,1.265,0,0,1,.082-.2A1.2,1.2,0,0,1,.26,9.4a1.307,1.307,0,0,1,.114-.149,1.253,1.253,0,0,1,.127-.1,1.046,1.046,0,0,1,.141-.111h0L16.059.172a1.287,1.287,0,0,1,1.283,0L32.759,9.048h0a1.573,1.573,0,0,1,.141.109,1.518,1.518,0,0,1,.125.1,1.5,1.5,0,0,1,.116.151,1.183,1.183,0,0,1,.087.114,1.339,1.339,0,0,1,.083.2c.013.037.035.071.045.109a1.3,1.3,0,0,1,.045.335v32.98l12.846-7.4V18.884a1.3,1.3,0,0,1,.045-.334c.011-.038.032-.072.045-.109a1.446,1.446,0,0,1,.083-.2c.024-.042.059-.075.087-.114a1.321,1.321,0,0,1,.116-.149,1.233,1.233,0,0,1,.125-.1,1.3,1.3,0,0,1,.141-.111h0L62.311,8.9a1.285,1.285,0,0,1,1.283,0l15.416,8.876a1.417,1.417,0,0,1,.144.109c.04.032.087.061.124.1a1.5,1.5,0,0,1,.115.151.969.969,0,0,1,.087.114,1.272,1.272,0,0,1,.083.2.917.917,0,0,1,.045.109ZM77.084,35.744V21.108l-5.395,3.106L64.236,28.5V43.141l12.849-7.4ZM61.668,62.221V47.575l-7.331,4.187L33.4,63.71V78.494L61.668,62.221ZM2.57,12.383V62.221L30.832,78.493V63.712L16.067,55.355l0,0-.006,0a59.765,59.765,0,0,0-.26-.2l0,0a1.222,1.222,0,0,1-.106-.135,1.371,1.371,0,0,1-.1-.125l0,0a1.023,1.023,0,0,1-.067-.16.949.949,0,0,1-.061-.144v0a1.228,1.228,0,0,1-.026-.188,1.113,1.113,0,0,1-.019-.144V19.779L7.965,15.487l-5.395-3.1ZM16.7,2.767,3.858,10.161,16.7,17.554l12.843-7.4L16.7,2.767Zm6.68,46.143,7.451-4.29V12.383l-5.395,3.106-7.453,4.291V52.017l5.4-3.107Zm39.57-37.418L50.11,18.886,62.953,26.28l12.841-7.4L62.953,11.492ZM61.668,28.5l-7.453-4.291L48.82,21.108V35.744l7.451,4.29,5.4,3.107V28.5ZM32.116,61.488,50.954,50.734,60.37,45.36,47.537,37.971,32.761,46.478,19.293,54.231l12.822,7.257Z" transform="translate(0 0)"/></svg>