<svg xmlns="http://www.w3.org/2000/svg" xmlns:xlink="http://www.w3.org/1999/xlink" width="97" height="74" viewBox="0 0 97 74"><defs><style>.a{fill:#a14e4e;}.b{clip-path:url(#a);}.c{fill:#78b9eb;}.d{fill:#ff7956;}.e{fill:#ffb655;}.f{fill:#acabb1;}.g{fill:#5aaae7;}.h{fill:#787680;}.i{fill:#ff9811;}.j{fill:#1e81ce;}</style><clipPath id="a"><rect class="a" width="97" height="74" transform="translate(279 1816)"/></clipPath></defs><g class="b" transform="translate(-279 -1816)"><g transform="translate(279 1817)"><path class="c" d="M128,48h43.218v53.191H128Zm0,0" transform="translate(-101.404 -38.027)"/><path class="d" d="M387.324,272H397.3a3.325,3.325,0,0,1,3.324,3.324V285.3a3.325,3.325,0,0,1-3.324,3.324h-9.973A3.325,3.325,0,0,1,384,285.3v-9.973A3.325,3.325,0,0,1,387.324,272Zm0,0" transform="translate(-304.213 -215.484)"/><path class="d" d="M387.324,136H397.3a3.325,3.325,0,0,1,3.324,3.324V149.3a3.325,3.325,0,0,1-3.324,3.324h-9.973A3.325,3.325,0,0,1,384,149.3v-9.973A3.325,3.325,0,0,1,387.324,136Zm0,0" transform="translate(-304.213 -107.742)"/><path class="d" d="M387.324,0H397.3a3.325,3.325,0,0,1,3.324,3.324V13.3a3.325,3.325,0,0,1-3.324,3.324h-9.973A3.325,3.325,0,0,1,384,13.3V3.324A3.325,3.325,0,0,1,387.324,0Zm0,0" transform="translate(-304.213)"/><path class="d" d="M3.324,272H13.3a3.325,3.325,0,0,1,3.324,3.324V285.3a3.325,3.325,0,0,1-3.324,3.324H3.324A3.325,3.325,0,0,1,0,285.3v-9.973A3.325,3.325,0,0,1,3.324,272Zm0,0" transform="translate(0 -215.484)"/><path class="d" d="M3.324,136H13.3a3.325,3.325,0,0,1,3.324,3.324V149.3a3.325,3.325,0,0,1-3.324,3.324H3.324A3.325,3.325,0,0,1,0,149.3v-9.973A3.325,3.325,0,0,1,3.324,136Zm0,0" transform="translate(0 -107.742)"/><path class="d" d="M3.324,0H13.3a3.325,3.325,0,0,1,3.324,3.324V13.3A3.325,3.325,0,0,1,13.3,16.622H3.324A3.325,3.325,0,0,1,0,13.3V3.324A3.325,3.325,0,0,1,3.324,0Zm0,0"/><path class="e" d="M211.3,145.944A6.662,6.662,0,1,1,206.6,144a6.663,6.663,0,0,1,4.7,1.945Zm0,0" transform="translate(-158.392 -114.08)"/><path class="f" d="M128,304h43.218v3.324a6.649,6.649,0,0,1-6.649,6.649h-29.92A6.649,6.649,0,0,1,128,307.324Zm0,0" transform="translate(-101.404 -240.836)"/><path class="f" d="M134.649,0h29.92a6.649,6.649,0,0,1,6.649,6.649V9.973H128V6.649A6.649,6.649,0,0,1,134.649,0Zm0,0" transform="translate(-101.404)"/><path class="g" d="M202.907,136v34.907H168Zm0,0" transform="translate(-133.093 -107.742)"/><path class="h" d="M208,320h9.973v3.324H208Zm0,0" transform="translate(-164.782 -253.511)"/><path class="h" d="M168,16h3.324v3.324H168Zm0,0" transform="translate(-133.093 -12.676)"/><path class="h" d="M200,16h6.649v3.324H200Zm0,0" transform="translate(-158.444 -12.676)"/><path class="i" d="M199.271,133.3v-3.324H195.78a8.254,8.254,0,0,0-1.217-2.914l2.477-2.477-2.35-2.35-2.477,2.477a8.244,8.244,0,0,0-2.915-1.218V120h-3.324v3.491a8.254,8.254,0,0,0-2.914,1.217l-2.477-2.477-2.35,2.35,2.477,2.477a8.244,8.244,0,0,0-1.218,2.915H176V133.3h3.491a8.253,8.253,0,0,0,1.217,2.914l-2.477,2.477,2.35,2.35,2.477-2.477a8.244,8.244,0,0,0,2.915,1.218v3.491H189.3V139.78a8.253,8.253,0,0,0,2.914-1.217l2.477,2.477,2.351-2.35-2.477-2.477a8.244,8.244,0,0,0,1.218-2.915Zm-11.636,3.324a4.987,4.987,0,1,1,4.987-4.987A4.987,4.987,0,0,1,187.636,136.622Zm0,0" transform="translate(-139.431 -95.067)"/><path class="j" d="M304,168h11.636v3.324H304Zm0,0" transform="translate(-240.836 -133.093)"/><path class="j" d="M282.34,57.3,297.3,42.34l2.35,2.35-14.96,14.96Zm0,0" transform="translate(-223.676 -33.543)"/><path class="j" d="M282.344,228.694l2.351-2.35,14.96,14.96-2.351,2.35Zm0,0" transform="translate(-223.679 -179.314)"/><path class="j" d="M104,168h11.636v3.324H104Zm0,0" transform="translate(-82.391 -133.093)"/><path class="j" d="M98.348,44.694l2.35-2.35,14.96,14.96-2.35,2.35Zm0,0" transform="translate(-77.913 -33.546)"/><path class="j" d="M98.34,241.308l14.961-14.96,2.35,2.35-14.96,14.96Zm0,0" transform="translate(-77.907 -179.318)"/></g></g></svg>