<svg xmlns="http://www.w3.org/2000/svg" width="90.05" height="83" viewBox="0 0 90.05 83"><defs><style>.a{fill:#679e63;}</style></defs><path class="a" d="M33.611,82.145,23.458,76.134c-1.519-.844-.777-1.148-.27-1.328a19.984,19.984,0,0,0,4.593-2.093.79.79,0,0,1,.754.057l7.8,4.637a1,1,0,0,0,.946,0L67.694,59.846a.95.95,0,0,0,.462-.822v-35.1a.956.956,0,0,0-.473-.833L37.269,5.558a.927.927,0,0,0-.934,0L5.944,23.107a.976.976,0,0,0-.484.833v35.1a.927.927,0,0,0,.484.811l8.329,4.818c4.524,2.263,7.294-.406,7.294-3.073V26.933a.875.875,0,0,1,.889-.878h3.861a.873.873,0,0,1,.878.878V61.591c0,6.034-3.287,9.49-9.005,9.49-1.756,0-3.14,0-7-1.9L3.208,64.585A6.4,6.4,0,0,1,0,59.035V23.928A6.383,6.383,0,0,1,3.185,18.39L33.611.819A6.65,6.65,0,0,1,40,.819L70.419,18.39a6.421,6.421,0,0,1,3.2,5.539v35.1a6.439,6.439,0,0,1-3.2,5.549L40,82.133a6.366,6.366,0,0,1-6.394.012ZM30.1,47.577a.879.879,0,0,1,.878-.878h3.929a.884.884,0,0,1,.877.743c.6,4.007,2.364,6.022,10.412,6.022,6.4,0,9.14-1.452,9.14-4.851,0-1.958-.777-3.411-10.727-4.39C36.29,43.4,31.135,41.566,31.135,34.9c0-6.134,5.178-9.792,13.845-9.792,9.748,0,14.566,3.377,15.174,10.636a.878.878,0,0,1-.237.676.917.917,0,0,1-.642.282H55.324a.89.89,0,0,1-.855-.687c-.946-4.21-3.254-5.561-9.5-5.561-7,0-7.812,2.443-7.812,4.266,0,2.218.957,2.859,10.4,4.109,9.343,1.238,13.789,2.983,13.789,9.557.012,6.629-5.515,10.423-15.151,10.423C32.89,58.811,30.1,52.7,30.1,47.577ZM78.321,22a5.864,5.864,0,1,1,5.864,5.864A5.881,5.881,0,0,1,78.321,22Zm.957-.022a4.913,4.913,0,1,0,4.9-4.9A4.914,4.914,0,0,0,79.277,21.981Zm6.055,3.3c-.033-.3-.248-1.981-.248-2.082-.09-.372-.214-.563-.687-.563H83.251v2.634H81.978V18.716h2.274c.777,0,2.3,0,2.3,1.733a1.517,1.517,0,0,1-1.238,1.61c.9.068.957.653,1.081,1.485a6.748,6.748,0,0,0,.338,1.733Zm-2.1-3.68h1.024a.884.884,0,0,0,.99-.934c0-.9-.619-.9-.957-.9H83.228Z" transform="translate(0 0)"/></svg>