<svg xmlns="http://www.w3.org/2000/svg" width="101" height="53.674" viewBox="0 0 101 53.674"><defs><style>.a{fill:#34313f;stroke:rgba(0,0,0,0);stroke-miterlimit:10;}</style></defs><path class="a" d="M0,26.337C0,11.8,22.388,0,50,0s50,11.8,50,26.337S77.612,52.674,50,52.674,0,40.877,0,26.337ZM60.03,40.919h5.7l1.5-7,5.327.042s9.378.754,12.011-8.4c2.2-7.682-2.512-11.071-7.3-10.979s-12.1,0-12.1,0Zm-44.947,0h5.7l1.5-7,5.325.042s9.367.754,12.022-8.408c2.2-7.673-2.512-11.063-7.307-10.97s-12.1,0-12.1,0Zm24-6.95h5.643l3.01-15.111s3.572.009,5.958.02c2.858,0,1.777,2.97,1.532,4.714-.6,4.245-1.971,10.368-1.971,10.368H58.9S60.651,27,61.591,20.48s-6.959-5.9-6.959-5.9H48.674L50.122,7.51H44.347Zm33.724-4.141H67.886l2.165-11.133h5.263a3.4,3.4,0,0,1,3.755,3.918c-.265,7.075-5.8,7.215-6.237,7.215Zm-44.949,0H22.939L25.1,18.694h5.266a3.4,3.4,0,0,1,3.755,3.918c-.265,7.075-5.8,7.215-6.239,7.215Z" transform="translate(0.5 0.5)"/></svg>