<svg xmlns="http://www.w3.org/2000/svg" width="93.288" height="83" viewBox="0 0 93.288 83"><defs><style>.a{fill:#00d8ff;}</style></defs><path class="a" d="M57.937,80.96a40.519,40.519,0,0,1-8.6-5.819c-.856-.739-1.7-1.513-2.522-2.3-.663.641-1.318,1.244-1.946,1.794A41.476,41.476,0,0,1,35.828,80.8a18.932,18.932,0,0,1-8.107,2.169A8.8,8.8,0,0,1,23.27,81.87a8.5,8.5,0,0,1-3.011-3.053,14.957,14.957,0,0,1-1.75-4.759,35.9,35.9,0,0,1,.339-13.421c.211-1.109.458-2.23.733-3.331-.85-.243-1.7-.508-2.523-.788a37.234,37.234,0,0,1-12.387-6.7C1.615,47.139,0,44.235,0,41.421a8.5,8.5,0,0,1,1.14-4.133,14.969,14.969,0,0,1,3.248-3.894,35.915,35.915,0,0,1,11.8-6.411c1.079-.376,2.24-.742,3.453-1.086-.256-1.021-.488-2.061-.69-3.09a37.249,37.249,0,0,1-.463-13.681A15.212,15.212,0,0,1,20.2,4.275a8.382,8.382,0,0,1,3-3.1A8.637,8.637,0,0,1,27.588.091a18.828,18.828,0,0,1,8.249,2.289,43.874,43.874,0,0,1,9.305,6.5c.521.464,1.042.944,1.546,1.428.757-.731,1.539-1.448,2.323-2.131a41.927,41.927,0,0,1,8.8-6.042A18.008,18.008,0,0,1,65.614,0a8.411,8.411,0,0,1,4.26,1.056A8.626,8.626,0,0,1,73.005,4.31a16,16,0,0,1,1.769,5.131,39.15,39.15,0,0,1-.612,14.466c-.14.675-.3,1.364-.464,2.048,1.009.29,2.019.609,3,.946a37.237,37.237,0,0,1,12.071,6.453,15.2,15.2,0,0,1,3.34,3.915,8.382,8.382,0,0,1,1.175,4.151,8.634,8.634,0,0,1-1.254,4.337,16,16,0,0,1-3.561,4.1,39.13,39.13,0,0,1-12.837,6.7c-.541.179-1.108.357-1.735.542.217.874.405,1.714.559,2.494a37.235,37.235,0,0,1,.409,14.076c-.788,3.987-2.492,6.84-4.927,8.25A8.586,8.586,0,0,1,65.582,83,17.878,17.878,0,0,1,57.937,80.96Zm-.525-20.908a93.6,93.6,0,0,1-7.82,9.929c.785.755,1.574,1.475,2.346,2.139a37.637,37.637,0,0,0,7.545,5.159,14.393,14.393,0,0,0,6.076,1.743,4.721,4.721,0,0,0,2.386-.558c1.43-.828,2.515-2.885,3.054-5.791a33.692,33.692,0,0,0-.448-12.312c-.141-.712-.311-1.471-.5-2.257A93,93,0,0,1,57.411,60.052ZM22.764,61.38c-1.6,8.408-.593,15.255,2.5,17.037a4.9,4.9,0,0,0,2.464.56,12.486,12.486,0,0,0,4.079-.806,33.693,33.693,0,0,0,10.443-6.537c.607-.532,1.205-1.083,1.777-1.637A96.836,96.836,0,0,1,36.017,60.1a93.853,93.853,0,0,1-12.571-1.82C23.19,59.307,22.961,60.349,22.764,61.38ZM46.8,67.129a85.056,85.056,0,0,0,5.477-6.737c-1.863.083-3.758.125-5.632.125-1.84,0-3.677-.036-5.458-.106C43.023,62.832,44.911,65.092,46.8,67.129ZM29.659,41.517c1.225,2.543,2.565,5.072,3.98,7.517s2.955,4.889,4.559,7.232c2.727.177,5.569.267,8.446.267s5.757-.1,8.543-.3c1.562-2.346,3.068-4.776,4.476-7.221s2.767-5,4.009-7.551c-1.253-2.524-2.605-5.043-4.022-7.485s-2.921-4.85-4.495-7.177c-2.8-.214-5.667-.322-8.511-.322s-5.687.107-8.495.32c-1.591,2.331-3.113,4.754-4.523,7.2h0C32.217,36.44,30.882,38.971,29.659,41.517ZM24.521,54.439a85.029,85.029,0,0,0,8.6,1.382c-1.016-1.576-2-3.188-2.928-4.791-.915-1.581-1.805-3.205-2.645-4.827C26.362,49.009,25.345,51.78,24.521,54.439ZM63.115,51c-.918,1.592-1.881,3.189-2.864,4.747a84.8,84.8,0,0,0,8.7-1.483A84.9,84.9,0,0,0,65.82,46.06C64.961,47.715,64.051,49.378,63.115,51ZM17.5,30.747C9.415,33.564,3.985,37.854,3.985,41.421c0,1.652,1.237,3.622,3.482,5.546a33.7,33.7,0,0,0,10.88,5.78c.76.258,1.535.5,2.3.721a96.878,96.878,0,0,1,4.6-11.949,95.525,95.525,0,0,1-4.547-11.782C19.633,30.04,18.552,30.38,17.5,30.747Zm50.6,10.694a93.528,93.528,0,0,1,4.724,11.818c.564-.168,1.077-.328,1.567-.49A37.069,37.069,0,0,0,85.306,47.3a13.839,13.839,0,0,0,2.965-3.015A5.167,5.167,0,0,0,89.3,41.421a4.9,4.9,0,0,0-.958-2.69,13.026,13.026,0,0,0-2.754-2.841A35.149,35.149,0,0,0,75.4,30.67c-.862-.3-1.8-.592-2.773-.875A93.347,93.347,0,0,1,68.091,41.441ZM63.1,31.979c.921,1.59,1.824,3.223,2.684,4.854A85.187,85.187,0,0,0,68.768,28.8c-2.684-.613-5.546-1.113-8.506-1.487C61.236,28.84,62.191,30.41,63.1,31.979ZM24.576,28.758c.812,2.617,1.809,5.333,2.964,8.072.838-1.624,1.724-3.247,2.633-4.824s1.875-3.163,2.86-4.7C30.074,27.676,27.228,28.164,24.576,28.758Zm27.051-17.58c-.726.634-1.448,1.3-2.145,1.967a93.6,93.6,0,0,1,7.886,9.842,95.343,95.343,0,0,1,12.473,1.97c.148-.6.289-1.229.42-1.855a37.064,37.064,0,0,0,.719-12.194,13.838,13.838,0,0,0-1.13-4.074,5.17,5.17,0,0,0-1.965-2.326,4.548,4.548,0,0,0-2.293-.533C62.028,3.976,56.808,6.669,51.627,11.178ZM23.5,24.916a97.188,97.188,0,0,1,12.449-1.934,95.367,95.367,0,0,1,7.946-9.834c-.492-.47-.95-.893-1.4-1.292a41.122,41.122,0,0,0-8.249-5.812,15.376,15.376,0,0,0-6.632-1.979,4.777,4.777,0,0,0-2.416.563A4.9,4.9,0,0,0,23.351,6.8a13.014,13.014,0,0,0-1.078,3.807,35.161,35.161,0,0,0,.586,11.432h0C23.048,23,23.263,23.971,23.5,24.916Zm23.139-2.425c1.84,0,3.7.044,5.54.131A85.361,85.361,0,0,0,46.689,16c-1.869,2.016-3.731,4.245-5.536,6.625,1.824-.085,3.67-.128,5.486-.128ZM38.314,41.421a8.33,8.33,0,1,1,8.33,8.331A8.331,8.331,0,0,1,38.314,41.421Z"/></svg>