<svg xmlns="http://www.w3.org/2000/svg" width="73.204" height="83" viewBox="0 0 73.204 83"><path d="M69.374,24.061a.78.78,0,0,0-.736-.669c-.335,0-6.23-.134-6.23-.134s-3.616-3.484-4.956-4.824V90.843l21.032-5.221S69.441,24.463,69.374,24.061ZM52.7,18.434a19.522,19.522,0,0,0-1.206-2.947c-1.747-3.348-4.354-5.164-7.436-5.164a2.51,2.51,0,0,0-.669.067c-.067-.134-.2-.2-.268-.335A6.394,6.394,0,0,0,37.96,7.98c-4.016.134-8.032,3.012-11.253,8.171a31.855,31.855,0,0,0-4.488,11.723c-4.622,1.406-7.836,2.411-7.9,2.478-2.343.736-2.411.8-2.677,3.012C11.438,35.038,5.28,82.2,5.28,82.2l50.631,8.782V17.63a6.97,6.97,0,0,0-.736.067S54.238,17.965,52.7,18.434Zm-9.243,2.881c-2.677.8-5.627,1.74-8.507,2.612a20.606,20.606,0,0,1,4.287-8.367,10.773,10.773,0,0,1,2.88-2.144A18.682,18.682,0,0,1,43.453,21.315ZM37.96,10.731a4.6,4.6,0,0,1,2.413.6,12.753,12.753,0,0,0-3.147,2.411,23.891,23.891,0,0,0-5.291,11.119C29.521,25.6,27.11,26.332,24.906,27,26.372,20.577,31.8,10.865,37.96,10.731ZM30.191,47.573c.268,4.285,11.588,5.224,12.257,15.338.469,7.972-4.22,13.4-10.985,13.8A16.435,16.435,0,0,1,18.8,72.423l1.74-7.363s4.488,3.417,8.106,3.149A3.234,3.234,0,0,0,31.8,64.793c-.335-5.626-9.578-5.291-10.18-14.534-.535-7.771,4.555-15.607,15.808-16.345,4.351-.268,6.564.8,6.564.8l-2.545,9.638a13.987,13.987,0,0,0-6.3-1.071C30.191,43.622,30.124,46.768,30.191,47.573ZM46.132,20.51a21.309,21.309,0,0,0-1.206-7.3c3.082.6,4.555,4.016,5.226,6.1Q48.343,19.807,46.132,20.51Z" transform="translate(-5.28 -7.977)"/></svg>