<svg id="Component_114_1" data-name="Component 114 – 1" xmlns="http://www.w3.org/2000/svg" xmlns:xlink="http://www.w3.org/1999/xlink" width="264" height="325.346" viewBox="0 0 264 325.346">
  <defs>
    <clipPath id="clip-path">
      <rect id="Rectangle_3981" data-name="Rectangle 3981" width="264" height="325.346" fill="none"/>
    </clipPath>
    <filter id="Path_19171" x="0.711" y="214.043" width="128.766" height="123.304" filterUnits="userSpaceOnUse">
      <feOffset dy="3" input="SourceAlpha"/>
      <feGaussianBlur stdDeviation="3" result="blur"/>
      <feFlood flood-opacity="0.161"/>
      <feComposite operator="in" in2="blur"/>
      <feComposite in="SourceGraphic"/>
    </filter>
    <filter id="Path_19172" x="134.521" y="214.044" width="128.766" height="123.302" filterUnits="userSpaceOnUse">
      <feOffset dy="3" input="SourceAlpha"/>
      <feGaussianBlur stdDeviation="3" result="blur-2"/>
      <feFlood flood-opacity="0.161"/>
      <feComposite operator="in" in2="blur-2"/>
      <feComposite in="SourceGraphic"/>
    </filter>
    <filter id="Path_19173" x="-9" y="-6" width="282" height="270.955" filterUnits="userSpaceOnUse">
      <feOffset dy="3" input="SourceAlpha"/>
      <feGaussianBlur stdDeviation="3" result="blur-3"/>
      <feFlood flood-opacity="0.161"/>
      <feComposite operator="in" in2="blur-3"/>
      <feComposite in="SourceGraphic"/>
    </filter>
  </defs>
  <g id="Group_11693" data-name="Group 11693">
    <g id="Group_11692" data-name="Group 11692" clip-path="url(#clip-path)">
      <path id="Path_19169" data-name="Path 19169" d="M52.178,196.762l29.413,23.312,17.173-49.447a46.566,46.566,0,0,1-11.935,1.854,24.723,24.723,0,0,1-7.749-1.166c-9.074-2.946-14.883-10.784-20.5-18.362-3.584-4.838-6.969-9.406-10.865-12.241-3.154-2.295-7.243-3.927-11.676-5.479l-21.39,61.592Z" transform="translate(9.553 88.193)" fill="#287dbc"/>
      <path id="Path_19170" data-name="Path 19170" d="M140.815,196.762l37.53.063-21.389-61.592c-4.434,1.551-8.523,3.184-11.679,5.479-3.9,2.835-7.281,7.4-10.866,12.241-5.617,7.58-11.426,15.416-20.5,18.364a25.069,25.069,0,0,1-7.747,1.165,46.611,46.611,0,0,1-11.934-1.852L111.4,220.074Z" transform="translate(61.454 88.193)" fill="#287dbc"/>
      <g transform="matrix(1, 0, 0, 1, 0, 0)" filter="url(#Path_19171)">
        <path id="Path_19171-2" data-name="Path 19171" d="M111.436,169.9c-1.575.489-3.162.98-4.758,1.442L88.213,224.513,57.247,199.97l-39.515.064,22.255-64.081-1.743-.591c-2.073-.7-4.16-1.409-6.217-2.178L5.878,208.48l48.44-.079,37.963,30.087,24.363-70.152c-1.705.487-3.44,1.019-5.208,1.568" transform="translate(3.83 86.86)" fill="#00aeff"/>
      </g>
      <g transform="matrix(1, 0, 0, 1, 0, 0)" filter="url(#Path_19172)">
        <path id="Path_19172-2" data-name="Path 19172" d="M165.267,135.364l-1.741.591,22.255,64.081-39.513-.066L115.3,224.512,96.835,171.348c-1.6-.463-3.184-.953-4.758-1.442-1.768-.549-3.5-1.08-5.208-1.568l24.363,70.151L149.2,208.4l48.44.079-26.149-75.3c-2.057.768-4.145,1.477-6.219,2.178" transform="translate(56.65 86.86)" fill="#00aeff"/>
      </g>
      <g transform="matrix(1, 0, 0, 1, 0, 0)" filter="url(#Path_19173)">
        <path id="Path_19173-2" data-name="Path 19173" d="M264,126.478c0,13.548-14.66,24.614-18.63,36.838-4.114,12.67,1.1,30.211-6.576,40.757-7.75,10.651-26.1,11.076-36.749,18.828C191.5,230.575,185.47,247.936,172.8,252.05c-12.226,3.969-27.252-6.4-40.8-6.4s-28.576,10.369-40.8,6.4C78.53,247.936,72.5,230.575,61.954,222.9c-10.651-7.752-29-8.177-36.749-18.828-7.676-10.546-2.462-28.088-6.576-40.757C14.661,151.091,0,140.025,0,126.478s14.661-24.614,18.63-36.838c4.114-12.67-1.1-30.211,6.576-40.757,7.752-10.651,26.1-11.076,36.749-18.828C72.5,22.38,78.53,5.019,91.2.905c12.224-3.968,27.252,6.4,40.8,6.4s28.576-10.369,40.8-6.4c12.67,4.114,18.7,21.473,29.246,29.149,10.651,7.75,29,8.177,36.749,18.826,7.674,10.546,2.46,28.088,6.574,40.757,3.97,12.224,18.63,23.29,18.63,36.838" transform="translate(0 0)" fill="#00aeff"/>
      </g>
      <path id="Path_19174" data-name="Path 19174" d="M235.734,120.658A111.734,111.734,0,1,1,124,8.924,111.734,111.734,0,0,1,235.734,120.658" transform="translate(7.999 5.82)" fill="#fff"/>
      <circle id="Ellipse_225" data-name="Ellipse 225" cx="103.407" cy="103.407" r="103.407" transform="translate(28.592 23.071)" fill="none" stroke="#287dbc" stroke-width="2"/>
      <path id="Path_19175" data-name="Path 19175" d="M212.561,114.1a95.119,95.119,0,1,1-95.118-95.118A95.12,95.12,0,0,1,212.561,114.1Z" transform="translate(14.558 12.379)" fill="none" stroke="#287dbc" stroke-width="2"/>
      <path id="Path_19176" data-name="Path 19176" d="M43.222,72.976c-.165-2.929-.788-5.117-1.535-5.117s-1.37,2.186-1.535,5.117c-2.929.165-5.117.788-5.117,1.535s2.187,1.37,5.117,1.535c.165,2.929.788,5.117,1.535,5.117s1.37-2.187,1.535-5.117c2.931-.165,5.117-.788,5.117-1.535s-2.186-1.37-5.117-1.535" transform="translate(22.849 44.255)" fill="#00aeff"/>
      <path id="Path_19177" data-name="Path 19177" d="M124.922,72.976c-.165-2.929-.788-5.117-1.535-5.117s-1.37,2.186-1.535,5.117c-2.929.165-5.117.788-5.117,1.535s2.187,1.37,5.117,1.535c.165,2.929.788,5.117,1.535,5.117s1.37-2.187,1.535-5.117c2.931-.165,5.117-.788,5.117-1.535s-2.186-1.37-5.117-1.535" transform="translate(76.13 44.255)" fill="#00aeff"/>
    </g>
  </g>
  <text id="C" transform="matrix(0.673, -0.74, 0.74, 0.673, 80.249, 91.869)" fill="#ff5800" font-size="23" font-family="Poppins-ExtraBold, Poppins" font-weight="800"><tspan x="0" y="0">C</tspan></text>
  <text id="E" transform="matrix(0.839, -0.545, 0.545, 0.839, 92.377, 77.501)" fill="#ff5800" font-size="22" font-family="Poppins-ExtraBold, Poppins" font-weight="800"><tspan x="0" y="0">E</tspan></text>
  <text id="R" transform="matrix(0.944, -0.331, 0.331, 0.944, 104.36, 71.821)" fill="#ff5800" font-size="24" font-family="Poppins-ExtraBold, Poppins" font-weight="800"><tspan x="0" y="0">R</tspan></text>
  <text id="T" transform="matrix(0.996, -0.087, 0.087, 0.996, 119.294, 66.603)" fill="#ff5800" font-size="24" font-family="Poppins-ExtraBold, Poppins" font-weight="800"><tspan x="0" y="0">T</tspan></text>
  <text id="I" transform="matrix(0.996, 0.09, -0.09, 0.996, 133.779, 65.621)" fill="#ff5800" font-size="24" font-family="Poppins-ExtraBold, Poppins" font-weight="800"><tspan x="0" y="0">I</tspan></text>
  <text id="F" transform="matrix(0.966, 0.26, -0.26, 0.966, 141.01, 65.953)" fill="#ff5800" font-size="24" font-family="Poppins-ExtraBold, Poppins" font-weight="800"><tspan x="0" y="0">F</tspan></text>
  <text id="I-2" data-name="I" transform="matrix(0.906, 0.423, -0.423, 0.906, 154.149, 69.738)" fill="#ff5800" font-size="24" font-family="Poppins-ExtraBold, Poppins" font-weight="800"><tspan x="0" y="0">I</tspan></text>
  <text id="E-2" data-name="E" transform="matrix(0.822, 0.57, -0.57, 0.822, 161.981, 70.896)" fill="#ff5800" font-size="22" font-family="Poppins-ExtraBold, Poppins" font-weight="800"><tspan x="0" y="0">E</tspan></text>
  <text id="D" transform="matrix(0.652, 0.758, -0.758, 0.652, 172.612, 79.054)" fill="#ff5800" font-size="23" font-family="Poppins-ExtraBold, Poppins" font-weight="800"><tspan x="0" y="0">D</tspan></text>
  <text id="P" transform="matrix(-0.357, 0.934, -0.934, -0.357, 193.461, 141.719)" fill="#ff5800" font-size="23" font-family="Poppins-ExtraBold, Poppins" font-weight="800"><tspan x="0" y="0">P</tspan></text>
  <text id="R-2" data-name="R" transform="matrix(-0.557, 0.83, -0.83, -0.557, 188.543, 154.865)" fill="#ff5800" font-size="23" font-family="Poppins-ExtraBold, Poppins" font-weight="800"><tspan x="0" y="0">R</tspan></text>
  <text id="O" transform="matrix(-0.746, 0.665, -0.665, -0.746, 182.055, 168.511)" fill="#ff5800" font-size="21" font-family="Poppins-ExtraBold, Poppins" font-weight="800"><tspan x="0" y="0">O</tspan></text>
  <text id="F-2" data-name="F" transform="matrix(-0.881, 0.473, -0.473, -0.881, 167.973, 179.39)" fill="#ff5800" font-size="22" font-family="Poppins-ExtraBold, Poppins" font-weight="800"><tspan x="0" y="0">F</tspan></text>
  <text id="E-3" data-name="E" transform="matrix(-0.956, 0.293, -0.293, -0.956, 156.851, 185.379)" fill="#ff5800" font-size="22" font-family="Poppins-ExtraBold, Poppins" font-weight="800"><tspan x="0" y="0">E</tspan></text>
  <text id="S" transform="matrix(-0.996, 0.093, -0.093, -0.996, 145.104, 188.073)" fill="#ff5800" font-size="23" font-family="Poppins-ExtraBold, Poppins" font-weight="800"><tspan x="0" y="0">S</tspan></text>
  <text id="S-2" data-name="S" transform="matrix(-0.993, -0.119, 0.119, -0.993, 131.591, 189.407)" fill="#ff5800" font-size="23" font-family="Poppins-ExtraBold, Poppins" font-weight="800"><tspan x="0" y="0">S</tspan></text>
  <text id="I-3" data-name="I" transform="matrix(-0.961, -0.278, 0.278, -0.961, 117.456, 189.448)" fill="#ff5800" font-size="21" font-family="Poppins-ExtraBold, Poppins" font-weight="800"><tspan x="0" y="0">I</tspan></text>
  <text id="O-2" data-name="O" transform="matrix(-0.89, -0.457, 0.457, -0.89, 110.643, 188.057)" fill="#ff5800" font-size="21" font-family="Poppins-ExtraBold, Poppins" font-weight="800"><tspan x="0" y="0">O</tspan></text>
  <text id="N" transform="matrix(-0.735, -0.678, 0.678, -0.735, 95.289, 179.08)" fill="#ff5800" font-size="22" font-family="Poppins-ExtraBold, Poppins" font-weight="800"><tspan x="0" y="0">N</tspan></text>
  <text id="A" transform="matrix(-0.532, -0.847, 0.847, -0.532, 83.46, 166.91)" fill="#ff5800" font-size="23" font-family="Poppins-ExtraBold, Poppins" font-weight="800"><tspan x="0" y="0">A</tspan></text>
  <text id="L" transform="matrix(-0.336, -0.942, 0.942, -0.336, 72.896, 153.292)" fill="#ff5800" font-size="21" font-family="Poppins-ExtraBold, Poppins" font-weight="800"><tspan x="0" y="0">L</tspan></text>
  <g id="Group_11695" data-name="Group 11695">
    <g id="Group_11694" data-name="Group 11694" clip-path="url(#clip-path)">
      <path id="Path_19178" data-name="Path 19178" d="M79.357,85.414,73.45,91.322l18.988,18.988,42.2-42.2-5.908-5.908L92.439,98.5Zm51.058,8.018A33.757,33.757,0,1,1,96.658,59.675a32.9,32.9,0,0,1,9.283,1.266l6.751-6.751a51.339,51.339,0,0,0-16.034-2.954,42.2,42.2,0,1,0,42.2,42.2Z" transform="translate(35.518 33.414)" fill="#00a185"/>
    </g>
  </g>
</svg>
