<svg xmlns="http://www.w3.org/2000/svg" width="230" height="45.37" viewBox="0 0 230 45.37">
  <g id="Group_33491" data-name="Group 33491" transform="translate(-950 -1209)">
    <g id="Group_33489" data-name="Group 33489" transform="translate(950 1209)">
      <rect id="Rectangle_14124" data-name="Rectangle 14124" width="39.504" height="45.37" fill="#ed1c24"/>
      <path id="Path_35809" data-name="Path 35809" d="M74.99,51.32h7.345V68.912Z" transform="translate(-52.639 -42.246)" fill="#fff"/>
      <path id="Path_35810" data-name="Path 35810" d="M59.806,51.32H52.45V68.912Z" transform="translate(-42.631 -42.246)" fill="#fff"/>
      <path id="Path_35811" data-name="Path 35811" d="M67.768,62.98l4.682,11.1H69.386l-1.4-3.536H64.56Z" transform="translate(-48.008 -47.423)" fill="#fff"/>
      <path id="Path_35812" data-name="Path 35812" d="M53.858,93.8l-.322,1.529c0,.056,0,.067-.078.067H52.5c-.061,0-.078,0-.072-.1l1.284-5.56a2.024,2.024,0,0,0,.039-.556c0-.039,0-.056.061-.056h1.334c.044,0,.067,0,.078.067l1.5,6.116c0,.061,0,.078-.061.078h-1.04c-.05,0-.078-.028-.078-.067L55.2,93.785Zm1.168-1.051c-.133-.717-.389-1.8-.489-2.491h0c-.095.678-.284,1.629-.45,2.491Z" transform="translate(-42.621 -59.029)" fill="#fff"/>
      <path id="Path_35813" data-name="Path 35813" d="M60.45,92.745a2.25,2.25,0,0,1,2.157-2.508h.156V88.57s0-.05.061-.05h1.034a.044.044,0,0,1,.05.05v5.56a4.287,4.287,0,0,0,0,.651.076.076,0,0,1-.039.067,3.164,3.164,0,0,1-1.407.339C61.273,95.2,60.45,94.408,60.45,92.745Zm2.313-1.473a.556.556,0,0,0-.211,0c-.556,0-.951.495-.951,1.462s.406,1.451.94,1.451a.934.934,0,0,0,.222,0Z" transform="translate(-46.183 -58.763)" fill="#fff"/>
      <path id="Path_35814" data-name="Path 35814" d="M71.305,94.079c0,1.529-.639,2.5-1.763,2.5-1.257,0-1.763-1.112-1.763-2.508s.639-2.458,1.785-2.458S71.305,92.516,71.305,94.079Zm-2.391,0c0,.9.195,1.49.628,1.49s.623-.506.623-1.485-.156-1.468-.612-1.468S68.914,93.072,68.914,94.079Z" transform="translate(-49.438 -60.135)" fill="#fff"/>
      <path id="Path_35815" data-name="Path 35815" d="M76.346,88.52c.033,0,.044,0,.044.061v1.712a2.5,2.5,0,0,1,.523-.056c1,0,1.774.773,1.774,2.274,0,1.751-1,2.691-2.224,2.691a3.731,3.731,0,0,1-1.112-.172.089.089,0,0,1-.061-.078V88.581a.056.056,0,0,1,.061-.061Zm.395,2.741a1.206,1.206,0,0,0-.35.05v2.858a.929.929,0,0,0,.206,0c.434,0,.945-.445.956-1.668C77.564,91.6,77.186,91.261,76.741,91.261Z" transform="translate(-52.772 -58.763)" fill="#fff"/>
      <path id="Path_35816" data-name="Path 35816" d="M83.323,94.357c0,.745.284,1.2,1.068,1.2a2.013,2.013,0,0,0,.734-.133c.05,0,.078,0,.078.05v.8a.128.128,0,0,1-.067.128,2.135,2.135,0,0,1-.962.172c-1.423,0-1.974-1.045-1.974-2.413,0-1.451.639-2.552,1.774-2.552s1.54,1.051,1.54,1.913a5.7,5.7,0,0,1-.05.728c0,.05-.039.067-.089.078s-.395,0-.917,0Zm.823-.906a1.374,1.374,0,0,0,.289,0,.378.378,0,0,0,0-.106c0-.373-.117-.756-.512-.756s-.556.395-.589.873Z" transform="translate(-55.84 -60.135)" fill="#fff"/>
    </g>
    <g id="Group_33490" data-name="Group 33490" transform="translate(1000.783 1211.78)">
      <path id="Path_35817" data-name="Path 35817" d="M142.779,28.131c0-.072,0-.111.078-.122.434,0,1.668-.039,2.552-.039,2.663,0,3.1,1.362,3.1,2.191a1.913,1.913,0,0,1-.762,1.585,2.063,2.063,0,0,1,1.162,1.929c0,1.529-1.329,2.541-3.481,2.541h-2.563a.1.1,0,0,1-.089-.111Zm1.7,3.064h.851a9.708,9.708,0,0,1,1.112.067,1.045,1.045,0,0,0,.373-.851c0-.639-.473-.979-1.423-.979h-.917Zm0,3.542h.917c1.073,0,1.712-.339,1.712-1.068a.89.89,0,0,0-.762-.934,3.431,3.431,0,0,0-.79-.078h-1.079Z" transform="translate(-141.86 -27.87)"/>
      <path id="Path_35818" data-name="Path 35818" d="M157.52,36.188c-.072,0-.1,0-.1-.111V28.131c0-.061,0-.122.089-.122,1.112-.028,1.6-.039,2.619-.039,2.074,0,3.236.89,3.236,2.5A2.352,2.352,0,0,1,161.8,32.7c.411.556,1.829,2.691,2.224,3.336.039.078.05.15-.033.15h-1.8c-.111,0-.15,0-.172-.072-.361-.556-1.151-1.89-1.668-2.741-.089-.15-.15-.211-.289-.211h-.912v2.925a.089.089,0,0,1-.1.1Zm2.569-4.5c.94,0,1.54-.373,1.54-1.112S161,29.46,160.078,29.46h-.951v2.174Z" transform="translate(-148.361 -27.87)"/>
      <path id="Path_35819" data-name="Path 35819" d="M178.907,31.966c0,2.558-1.585,4.27-3.925,4.27-2.452,0-3.892-1.8-3.892-4.231a3.949,3.949,0,0,1,3.925-4.214C177.5,27.79,178.9,29.68,178.907,31.966Zm-3.892,2.73c1.3,0,2.079-1.062,2.079-2.68s-.79-2.685-2.141-2.685c-1.251,0-2.113.973-2.113,2.685.028,1.518.8,2.68,2.2,2.68Z" transform="translate(-154.431 -27.79)"/>
      <path id="Path_35820" data-name="Path 35820" d="M188.911,36.2c-.078,0-.111,0-.111-.111V28.109c0-.061,0-.1.083-.1h2.029c.1,0,.111,0,.161.1.84,1.54,2.53,4.821,2.93,5.743h0c0-.361-.039-.734-.039-1.963V28.126a.1.1,0,0,1,.111-.117h1.407c.083,0,.111.039.111.128v7.945c0,.1-.028.122-.139.122h-1.8c-.111,0-.139,0-.178-.1-.7-1.373-2.585-4.876-3.114-6.227h0c.05.723.061,1.223.061,2.4v3.814c0,.078,0,.111-.1.111Z" transform="translate(-162.294 -27.887)"/>
      <path id="Path_35821" data-name="Path 35821" d="M204.491,36.205c-.061,0-.111,0-.111-.111v-.962a.306.306,0,0,1,.033-.161l4.131-5.41h-3.992c-.072,0-.111,0-.1-.1l.2-1.351c0-.072.05-.1.128-.1h5.877c.067,0,.078,0,.078.089v1.017a.322.322,0,0,1-.061.2l-4.042,5.3h4.276c.061,0,.089.05.061.128l-.222,1.334c0,.067-.039.1-.122.1Z" transform="translate(-169.211 -27.888)"/>
      <path id="Path_35822" data-name="Path 35822" d="M224.746,36.094c0,.1-.039.111-.122.111h-5.1c-.078,0-.1-.033-.1-.111V28.127c0-.078,0-.117.1-.117h4.943c.1,0,.122,0,.133.1l.139,1.351c0,.067,0,.117-.089.117h-3.492v1.668h3.191c.067,0,.1,0,.1.1V32.73c0,.072-.05.083-.1.083h-3.191v1.829h3.692c.1,0,.117.039.1.111Z" transform="translate(-175.889 -27.888)"/>
      <path id="Path_35823" data-name="Path 35823" d="M141.245,81.411a.289.289,0,0,1-.117-.267V79.9a.106.106,0,0,1,.178-.089,8.307,8.307,0,0,0,4.848,1.446c3.253,0,4.793-1.6,4.793-3.842,0-1.712-.856-2.958-3.992-4.376l-1.212-.506c-3.636-1.6-4.409-3.458-4.409-5.232,0-3.019,2.369-4.965,5.888-4.965a8.626,8.626,0,0,1,4.226.828c.089.056.117.089.117.234v1.112c0,.117-.089.178-.172.117a7.9,7.9,0,0,0-4.231-1c-3.608,0-4.448,2.129-4.448,3.514,0,1.629.856,2.9,3.786,4.17l1.329.556c3.464,1.54,4.554,3.336,4.554,5.415,0,2.925-2.129,5.293-6.266,5.293a9.38,9.38,0,0,1-4.871-1.168Z" transform="translate(-141.127 -43.13)"/>
      <path id="Path_35824" data-name="Path 35824" d="M178.214,79.641c0,4.381-2.6,7.367-6.388,7.367-4.554,0-6.505-3.892-6.505-7.367,0-4.2,2.63-7.361,6.472-7.361S178.214,75.21,178.214,79.641Zm-11.476-.056c0,3.253,1.835,6.116,5.176,6.116,2.307,0,4.876-1.774,4.876-6.033,0-3.047-1.446-6.116-5.087-6.116C168.751,73.553,166.738,76.016,166.738,79.586Z" transform="translate(-151.869 -47.544)"/>
      <path id="Path_35825" data-name="Path 35825" d="M194,59.956c0-.117.061-.117.15-.117h1.112a.106.106,0,0,1,.117.117V78.616c0,1.357.556,1.6,1.273,1.6a2.741,2.741,0,0,0,.651-.089c.089,0,.089.028.089.117v.89c0,.117,0,.145-.089.178a2.608,2.608,0,0,1-1.068.178c-1.034,0-2.224-.328-2.224-2.78Z" transform="translate(-164.603 -42.02)"/>
      <path id="Path_35826" data-name="Path 35826" d="M214.6,83.878a19.168,19.168,0,0,0,.145,2.9c.033.117,0,.15-.117.15h-1.062c-.089,0-.117-.033-.178-.122a10.052,10.052,0,0,1-.15-1.446,5.9,5.9,0,0,1-4.448,1.863c-2.28,0-4.821-1.04-4.821-5.443v-8.84c0-.15.028-.178.145-.178h1.112c.122,0,.15.061.15.178v8.635c0,2.719,1.3,4.348,3.664,4.348a5.076,5.076,0,0,0,4.114-1.952V72.936a.156.156,0,0,1,.178-.178h1.112c.15,0,.15.061.15.178Z" transform="translate(-169.029 -47.755)"/>
      <path id="Path_35827" data-name="Path 35827" d="M234.652,83.121a.183.183,0,0,1-.117.206,4.359,4.359,0,0,1-1.985.445c-1.89,0-3.047-.89-3.047-3.608V70.611h-2.185c-.15,0-.178-.089-.178-.206v-.917c0-.117.028-.178.178-.178H229.5a33.965,33.965,0,0,1,.239-3.931.272.272,0,0,1,.117-.178l1.112-.211c.089,0,.178,0,.178.061a36.145,36.145,0,0,0-.206,4.259h3.336a.161.161,0,0,1,.178.178v.945c0,.117-.061.15-.178.178H230.9v9.58c0,1.39.595,2.28,1.985,2.28a3.942,3.942,0,0,0,1.624-.328c.089,0,.15,0,.15.089Z" transform="translate(-179.317 -44.307)"/>
      <path id="Path_35828" data-name="Path 35828" d="M244.217,63.642a.962.962,0,1,1,1.924,0,.945.945,0,0,1-.979.973.89.89,0,0,1-.945-.973Zm.239,4.821c0-.117.056-.178.145-.178h1.112c.089,0,.145,0,.145.15V82.318c0,.117,0,.15-.145.15H244.65c-.15,0-.206-.033-.206-.178Z" transform="translate(-186.897 -43.281)"/>
      <path id="Path_35829" data-name="Path 35829" d="M265.394,79.641c0,4.381-2.6,7.367-6.388,7.367-4.554,0-6.505-3.892-6.505-7.367,0-4.2,2.635-7.361,6.477-7.361S265.394,75.21,265.394,79.641Zm-11.47-.056c0,3.253,1.829,6.116,5.171,6.116,2.307,0,4.882-1.774,4.882-6.033,0-3.047-1.451-6.116-5.087-6.116C255.931,73.553,253.923,76.016,253.923,79.586Z" transform="translate(-190.577 -47.544)"/>
      <path id="Path_35830" data-name="Path 35830" d="M281.042,75.827c0-1-.089-2.747-.122-3.13,0-.089.033-.15.15-.15h1.006c.117,0,.145,0,.178.15a14.671,14.671,0,0,1,.145,1.774,6.327,6.327,0,0,1,4.765-2.191c1.952,0,4.7.89,4.7,5.56v8.7c0,.145-.056.178-.178.178h-1.112c-.117,0-.145-.061-.145-.178V77.957c0-2.513-1.112-4.376-3.547-4.376a5.421,5.421,0,0,0-4.448,2.363V86.508c0,.145-.033.178-.15.178H281.17c-.089,0-.117-.061-.117-.178Z" transform="translate(-203.195 -47.544)"/>
      <path id="Path_35831" data-name="Path 35831" d="M321.656,63.027c0-.089,0-.178.15-.178.74-.028,2.452-.089,4.253-.089,4.765,0,7.228,2.691,7.228,6.116,0,4.348-3.458,6.444-7.595,6.444-1.512,0-2.074-.056-2.635-.056v7.089c0,.089,0,.15-.145.15H321.8c-.089,0-.15-.033-.15-.15Zm1.418,10.881c.506,0,1.112.061,2.635.061,3.28,0,6.177-1.362,6.177-5.06,0-3.219-2.574-4.876-5.827-4.876-1.384,0-2.391.056-2.986.089Z" transform="translate(-221.279 -43.317)"/>
      <path id="Path_35832" data-name="Path 35832" d="M355.354,84.672c0,.35,0,.678.028,1,0,.061,0,.089-.061.122a10.008,10.008,0,0,1-4.937,1.212c-3.014,0-5.143-1.54-5.143-4.448,0-3.164,3.014-4.376,6.477-4.376a20.571,20.571,0,0,1,2.224.089V77.249a3.4,3.4,0,0,0-3.636-3.67,7.573,7.573,0,0,0-3.67.89c-.056.056-.145,0-.145-.089V73.313a.211.211,0,0,1,.089-.178,8.724,8.724,0,0,1,3.931-.856c3.458,0,4.82,2.369,4.82,5.265Zm-1.39-5.149a15.362,15.362,0,0,0-2.224-.145c-3.4,0-5.115,1.151-5.115,3.191,0,1.535,1.006,3.191,4.109,3.191a7.617,7.617,0,0,0,3.225-.678Z" transform="translate(-231.753 -47.542)"/>
      <path id="Path_35833" data-name="Path 35833" d="M371.251,72.547c.15,0,.15.061.211.15.083.35.145,1.668.172,2.274a6.283,6.283,0,0,1,4.821-2.691c.122,0,.15,0,.15.117v1.212c0,.122-.028.15-.15.15a5.738,5.738,0,0,0-4.748,2.719l-.039,10.1c0,.117-.033.15-.122.15h-1.151c-.117,0-.15-.061-.15-.15V76.333c0-1.212-.056-2.93-.145-3.608-.033-.15,0-.178.117-.178Z" transform="translate(-242.786 -47.544)"/>
      <path id="Path_35834" data-name="Path 35834" d="M391.208,83.121a.178.178,0,0,1-.122.222,4.32,4.32,0,0,1-1.979.445c-1.89,0-3.047-.89-3.047-3.608V70.611h-2.2c-.15,0-.178-.089-.178-.206v-.917c0-.117.028-.178.178-.178h2.224a33.969,33.969,0,0,1,.239-3.931c.028-.089.056-.15.117-.178l1.112-.211c.089,0,.178,0,.178.061a36.135,36.135,0,0,0-.206,4.259h3.336a.156.156,0,0,1,.172.178v.945c0,.117-.056.15-.172.178h-3.375v9.58c0,1.39.595,2.28,1.979,2.28a3.964,3.964,0,0,0,1.629-.328c.089,0,.15,0,.15.089Z" transform="translate(-248.821 -44.307)"/>
      <path id="Path_35835" data-name="Path 35835" d="M401.117,75.827c0-1-.089-2.747-.117-3.13,0-.089.028-.15.15-.15h1.006c.117,0,.145,0,.178.15a14.665,14.665,0,0,1,.145,1.774,6.316,6.316,0,0,1,4.759-2.191c1.952,0,4.7.89,4.7,5.56v8.7c0,.145-.061.178-.178.178h-1.112c-.117,0-.145-.061-.145-.178V77.957c0-2.513-1.112-4.376-3.553-4.376a5.427,5.427,0,0,0-4.448,2.363V86.508c0,.145,0,.178-.145.178H401.25c-.089,0-.122-.061-.122-.178Z" transform="translate(-256.511 -47.544)"/>
      <path id="Path_35836" data-name="Path 35836" d="M427.489,79.408c-.145,3.575,1.746,6.266,5.415,6.266a7.751,7.751,0,0,0,3.686-.823c.083-.061.145-.033.145.083v.979c0,.117,0,.178-.117.206a7.945,7.945,0,0,1-3.936.89c-4.815,0-6.622-3.7-6.622-7.278,0-4.17,2.4-7.45,6.149-7.45a5.837,5.837,0,0,1,5.382,6.861.2.2,0,0,1-.206.178c-.445.061-1.89.089-3.047.089Zm6.6-1.168a14.65,14.65,0,0,0,2.185-.056,1.786,1.786,0,0,0,.028-.384,4.1,4.1,0,0,0-4.109-4.292c-2.836,0-4.315,2.28-4.643,4.732Z" transform="translate(-267.638 -47.544)"/>
      <path id="Path_35837" data-name="Path 35837" d="M452.9,72.547c.15,0,.15.061.206.15a21.689,21.689,0,0,1,.178,2.274,6.283,6.283,0,0,1,4.82-2.691c.122,0,.15,0,.15.117v1.212c0,.122,0,.15-.15.15a5.738,5.738,0,0,0-4.759,2.719l-.028,10.1c0,.117-.033.15-.122.15h-1.151c-.117,0-.15-.061-.15-.15V76.333c0-1.212-.056-2.93-.145-3.608-.033-.15,0-.178.117-.178Z" transform="translate(-279.039 -47.544)"/>
    </g>
  </g>
</svg>
