<svg xmlns="http://www.w3.org/2000/svg" width="160.44" height="120" viewBox="0 0 160.44 120">
  <g id="XMLID_229_" transform="translate(-0.8 -45.125)">
    <g id="XMLID_690_" transform="translate(40.864 45.125)">
      <g id="XMLID_691_">
        <g id="Group_33488" data-name="Group 33488">
          <g id="XMLID_44_">
            <g id="XMLID_48_">
              <path id="XMLID_49_" d="M128.956,125.425V109.854c16.481,0,29.274-16.345,22.946-33.691a23.315,23.315,0,0,0-13.886-13.84c-17.346-6.283-33.691,6.465-33.691,22.946H88.8c0-26.27,25.4-46.757,52.949-38.152a38.877,38.877,0,0,1,25.359,25.359C175.713,100.02,155.225,125.425,128.956,125.425Z" transform="translate(-88.8 -45.125)" fill="#0080ff"/>
            </g>
            <path id="XMLID_47_" d="M158.525,168.925H143V153.4h15.525Z" transform="translate(-118.324 -104.105)" fill="#0080ff" fill-rule="evenodd"/>
            <path id="XMLID_46_" d="M128.783,199.383H116.9V187.5h11.883Z" transform="translate(-104.107 -122.68)" fill="#0080ff" fill-rule="evenodd"/>
            <path id="XMLID_45_" d="M104.971,175.571H95V165.6h9.971Z" transform="translate(-92.177 -110.75)" fill="#0080ff" fill-rule="evenodd"/>
          </g>
        </g>
      </g>
    </g>
    <g id="XMLID_234_" transform="translate(0.8 138.719)">
      <path id="XMLID_677_" d="M14.64,253.594A12.764,12.764,0,0,0,7.174,251.5H.8v20.26H7.219a12.2,12.2,0,0,0,7.467-2.231,8.023,8.023,0,0,0,2.6-3.232,12.1,12.1,0,0,0,.911-4.78,11.867,11.867,0,0,0-.911-4.735A7.349,7.349,0,0,0,14.64,253.594Zm-10.107,1.32h2A10.323,10.323,0,0,1,12,256.235c1.548.956,2.322,2.732,2.322,5.281,0,2.641-.774,4.507-2.322,5.509h0a9.828,9.828,0,0,1-5.418,1.32H4.533Z" transform="translate(-0.8 -251.136)" fill="#0080ff"/>
      <path id="XMLID_676_" d="M46.031,250.9a2.275,2.275,0,0,0-1.593.637,2.093,2.093,0,0,0-.637,1.548,2.275,2.275,0,0,0,.637,1.593,2.2,2.2,0,0,0,1.593.637,2.358,2.358,0,0,0,1.593-.637,2.2,2.2,0,0,0,.637-1.593,2.093,2.093,0,0,0-.637-1.548A2.358,2.358,0,0,0,46.031,250.9Z" transform="translate(-24.223 -250.809)" fill="#0080ff"/>
      <rect id="XMLID_675_" width="3.597" height="14.296" transform="translate(19.987 6.328)" fill="#0080ff"/>
      <path id="XMLID_670_" d="M68.771,265.348a5.455,5.455,0,0,0-3.6-1.548,6.424,6.424,0,0,0-4.917,2.049,7.153,7.153,0,0,0-1.958,5.145,7.238,7.238,0,0,0,1.912,5.1,6.623,6.623,0,0,0,4.917,2,5.534,5.534,0,0,0,3.551-1.138v.319a3.7,3.7,0,0,1-.956,2.732,3.507,3.507,0,0,1-2.6.956c-1.639,0-2.686-.637-3.961-2.367l-2.459,2.367.046.091a8.75,8.75,0,0,0,2.413,2.14,7.276,7.276,0,0,0,4.006,1.047,6.828,6.828,0,0,0,5.145-1.958,7.158,7.158,0,0,0,1.912-5.19V264.119H68.68v1.229Zm-.956,8.468a3.08,3.08,0,0,1-2.459,1.047,3.163,3.163,0,0,1-2.458-1.047,4.012,4.012,0,0,1-.911-2.777,4.287,4.287,0,0,1,.911-2.823,3.019,3.019,0,0,1,2.458-1.047,3.163,3.163,0,0,1,2.459,1.047,4.157,4.157,0,0,1,.956,2.823A4.037,4.037,0,0,1,67.815,273.816Z" transform="translate(-32.121 -257.836)" fill="#0080ff"/>
      <rect id="XMLID_668_" width="3.597" height="14.296" transform="translate(43.251 6.328)" fill="#0080ff"/>
      <path id="XMLID_660_" d="M97.131,250.9a2.275,2.275,0,0,0-1.593.637,2.093,2.093,0,0,0-.637,1.548,2.275,2.275,0,0,0,.637,1.593,2.2,2.2,0,0,0,1.593.637,2.358,2.358,0,0,0,1.593-.637,2.2,2.2,0,0,0,.637-1.593,2.093,2.093,0,0,0-.637-1.548A2.275,2.275,0,0,0,97.131,250.9Z" transform="translate(-52.058 -250.809)" fill="#0080ff"/>
      <path id="XMLID_652_" d="M114.3,256.1h-3.551v3.87H108.7v3.278h2.049v5.919a5.724,5.724,0,0,0,1.093,3.961c.728.774,2.049,1.138,3.87,1.138.592,0,1.184,0,1.73-.046h.182v-3.278l-1.229.046a2.194,2.194,0,0,1-1.685-.455,3.114,3.114,0,0,1-.41-1.912V263.2h3.369v-3.278H114.3Z" transform="translate(-59.575 -253.642)" fill="#0080ff"/>
      <rect id="XMLID_642_" width="3.597" height="20.305" transform="translate(74.939 0.319)" fill="#0080ff"/>
      <path id="XMLID_448_" d="M239.972,273.47a9.771,9.771,0,0,1-1.821,1.685h0a3.454,3.454,0,0,1-1.867.5,3.192,3.192,0,0,1-2.6-1.184,4.469,4.469,0,0,1-1.047-3,4.387,4.387,0,0,1,1.047-3,3.331,3.331,0,0,1,2.6-1.184,4.81,4.81,0,0,1,3.415,1.958l2.367-2.276h0a7.234,7.234,0,0,0-10.972-.819A7.2,7.2,0,0,0,229,271.467a7.386,7.386,0,0,0,2.094,5.327,6.947,6.947,0,0,0,5.1,2.14,7.259,7.259,0,0,0,6.146-3.187Z" transform="translate(-125.105 -257.945)" fill="#0080ff"/>
      <path id="XMLID_445_" d="M271.6,266.222a5,5,0,0,0-2.049-1.685,6.888,6.888,0,0,0-2.959-.637,6.08,6.08,0,0,0-4.871,2.185,8.245,8.245,0,0,0-1.821,5.372,7.522,7.522,0,0,0,1.958,5.327,6.892,6.892,0,0,0,5.19,2.049,7.247,7.247,0,0,0,5.919-2.914l.091-.091-2.367-2.276h0c-.228.273-.546.546-.819.819a5.156,5.156,0,0,1-1.047.774,3.97,3.97,0,0,1-1.821.41,3.455,3.455,0,0,1-2.458-.865A3.325,3.325,0,0,1,263.5,272.5h9.515l.046-1.32a10,10,0,0,0-.364-2.641A7.731,7.731,0,0,0,271.6,266.222Zm-7.876,3.369a3.423,3.423,0,0,1,.956-1.685,2.539,2.539,0,0,1,1.867-.728,2.582,2.582,0,0,1,2,.728,2.722,2.722,0,0,1,.728,1.685Z" transform="translate(-141.937 -257.89)" fill="#0080ff"/>
      <path id="XMLID_442_" d="M303.371,265.311h0a6.8,6.8,0,0,0-4.462-1.411,7.434,7.434,0,0,0-3.324.774,5.89,5.89,0,0,0-2.458,2.276l.046.046,2.322,2.185a3.742,3.742,0,0,1,3.415-2.049,2.783,2.783,0,0,1,1.867.592,2.012,2.012,0,0,1,.728,1.548v.683a9.1,9.1,0,0,0-2.641-.41,7.061,7.061,0,0,0-4.325,1.229,4.254,4.254,0,0,0-1.639,3.6,3.991,3.991,0,0,0,1.411,3.232,5.312,5.312,0,0,0,3.46,1.184,6.057,6.057,0,0,0,3.824-1.5v1.184h3.551v-9.2A5.491,5.491,0,0,0,303.371,265.311ZM297,273.051a3.137,3.137,0,0,1,1.73-.41,8.7,8.7,0,0,1,2.732.5v1.411a4.358,4.358,0,0,1-3.1,1.093,2.311,2.311,0,0,1-1.457-.41,1.3,1.3,0,0,1-.5-1.047A1.259,1.259,0,0,1,297,273.051Z" transform="translate(-159.913 -257.89)" fill="#0080ff"/>
      <path id="XMLID_393_" d="M336.554,265.585a5.293,5.293,0,0,0-4.189-1.685,4.874,4.874,0,0,0-3.46,1.229v-.865H325.4v14.25H329v-7.876a3.874,3.874,0,0,1,.774-2.55,2.621,2.621,0,0,1,2.14-.911,2.26,2.26,0,0,1,1.867.819,3.435,3.435,0,0,1,.683,2.231v8.286h3.6v-8.286A6.7,6.7,0,0,0,336.554,265.585Z" transform="translate(-177.617 -257.89)" fill="#0080ff"/>
      <path id="XMLID_320_" d="M142.971,265.311h0a6.8,6.8,0,0,0-4.462-1.411,7.434,7.434,0,0,0-3.324.774,5.89,5.89,0,0,0-2.459,2.276l.046.046,2.322,2.185a3.742,3.742,0,0,1,3.415-2.049,2.783,2.783,0,0,1,1.867.592,2.012,2.012,0,0,1,.728,1.548v.683a9.1,9.1,0,0,0-2.641-.41,7.061,7.061,0,0,0-4.325,1.229,4.254,4.254,0,0,0-1.639,3.6,3.991,3.991,0,0,0,1.411,3.232,5.312,5.312,0,0,0,3.46,1.184,6.057,6.057,0,0,0,3.824-1.5v1.184h3.551v-9.2A5.491,5.491,0,0,0,142.971,265.311Zm-6.374,7.74a3.137,3.137,0,0,1,1.73-.41,8.7,8.7,0,0,1,2.732.5v1.411a4.358,4.358,0,0,1-3.1,1.093,2.31,2.31,0,0,1-1.457-.41,1.3,1.3,0,0,1-.5-1.047A1.259,1.259,0,0,1,136.6,273.051Z" transform="translate(-72.54 -257.89)" fill="#0080ff"/>
      <path id="XMLID_235_" d="M189.471,271.643a10.471,10.471,0,1,1,10.471-10.471A10.473,10.473,0,0,1,189.471,271.643Zm0-17.255a6.784,6.784,0,1,0,6.784,6.784A6.8,6.8,0,0,0,189.471,254.388Z" transform="translate(-97.869 -250.7)" fill="#0080ff"/>
    </g>
  </g>
</svg>
