<svg xmlns="http://www.w3.org/2000/svg" width="212.998" height="59.552" viewBox="0 0 212.998 59.552">
  <g id="EXPERT_2_blueBG" transform="translate(-14.5 -37.5)">
    <g id="Group_33462" data-name="Group 33462" transform="translate(14.5 37.5)">
      <path id="Path_35721" data-name="Path 35721" d="M14.5,37.7h8.768c6.211,0,9.134,4.384,9.134,8.038,0,3.836-2.923,8.038-9.134,8.038h-2.74v6.576H14.5S14.5,37.7,14.5,37.7Zm11.691,8.22c0-1.461-1.1-2.923-3.471-2.923H20.528v6.028H22.72c2.375-.183,3.471-1.644,3.471-3.105" transform="translate(-14.5 -37.335)"/>
      <path id="Path_35722" data-name="Path 35722" d="M26,37.7h8.768c6.211,0,9.134,4.384,9.134,8.038a7.964,7.964,0,0,1-3.288,6.394l4.019,8.22H37.874l-3.105-6.576H32.211v6.576H26Zm11.508,8.22c0-1.461-1.1-2.923-3.653-2.923H31.846v6.028h2.009c2.557-.183,3.653-1.644,3.653-3.105" transform="translate(-4.993 -37.335)"/>
      <path id="Path_35723" data-name="Path 35723" d="M38,37.7H52.979v4.932H43.846v4.019H51.7v4.932H43.846V55.6h9.5v4.932H38Z" transform="translate(4.928 -37.335)"/>
      <path id="Path_35724" data-name="Path 35724" d="M48,53.027h6.028c.183,2.192,2.009,3.105,3.836,3.105,1.644,0,3.288-.731,3.288-2.009,0-3.288-12.787-.731-12.787-9.5,0-4.384,3.653-7.124,8.768-7.124,6.211,0,9.316,3.653,9.682,7.855H60.787a3.225,3.225,0,0,0-3.471-2.74c-1.644,0-2.923.548-2.923,1.827,0,4.019,12.787.548,12.787,9.5,0,4.2-3.836,7.124-9.316,7.124-5.846,0-9.5-2.923-9.864-8.038" transform="translate(13.196 -37.5)"/>
      <path id="Path_35725" data-name="Path 35725" d="M65.594,43H59.2V37.7H78.015V43H71.439V60.534H65.594Z" transform="translate(22.455 -37.335)"/>
      <path id="Path_35726" data-name="Path 35726" d="M76.255,37.7h7.49L91.6,60.534H85.206l-1.279-4.019H75.89l-1.279,4.019H68.4Zm6.211,13.7-2.557-7.672-2.375,7.855,4.932-.183Z" transform="translate(30.061 -37.335)"/>
      <path id="Path_35727" data-name="Path 35727" d="M81.6,53.027h6.028c.183,2.192,2.009,3.105,3.836,3.105,1.644,0,3.288-.731,3.288-2.009,0-3.288-12.787-.731-12.787-9.5,0-4.384,3.653-7.124,8.768-7.124,6.211,0,9.316,3.653,9.682,7.855H94.387c-.183-1.827-1.644-2.74-3.471-2.74-1.644,0-2.923.548-2.923,1.827,0,4.019,12.787.548,12.787,9.5,0,4.2-3.836,7.124-9.316,7.124-5.846,0-9.5-2.923-9.864-8.038" transform="translate(40.974 -37.5)"/>
      <path id="Path_35728" data-name="Path 35728" d="M94.2,37.7h6.028v8.768h8.038V37.7h6.028V60.534h-6.028V51.4h-8.038v9.134H94.2Z" transform="translate(51.391 -37.335)"/>
      <path id="Path_35729" data-name="Path 35729" d="M107,49.191c0-6.942,4.75-11.691,11.508-11.691,6.942,0,11.508,4.75,11.508,11.691,0,7.124-4.75,11.874-11.508,11.874-6.942,0-11.508-4.75-11.508-11.874m16.806,0c0-4.019-2.192-6.576-5.3-6.576s-5.3,2.74-5.3,6.576c0,4.019,2.192,6.759,5.3,6.759s5.3-2.74,5.3-6.759" transform="translate(61.973 -37.5)"/>
      <path id="Path_35730" data-name="Path 35730" d="M121.3,37.7h8.768c6.211,0,9.134,4.384,9.134,8.038,0,3.836-2.923,8.038-9.134,8.038h-2.74v6.576H121.3Zm11.691,8.22c0-1.461-1.1-2.923-3.471-2.923h-2.192v6.028h2.192c2.375-.183,3.471-1.644,3.471-3.105" transform="translate(73.796 -37.335)"/>
    </g>
    <path id="Path_35731" data-name="Path 35731" d="M73.4,73.739,68.288,77.21l1.827-5.846L65,67.528h6.394L73.4,61.5l2.009,6.028h6.211l-4.932,3.836,1.827,5.846Z" transform="translate(41.75 19.842)"/>
    <g id="Group_33463" data-name="Group 33463" transform="translate(27.287 83.351)">
      <path id="Path_35732" data-name="Path 35732" d="M21.5,75.935V62.6h8.768v2.192H24.057V68.08h5.48v2.192h-5.48v3.471h6.211v2.192Z" transform="translate(-21.5 -62.6)"/>
      <path id="Path_35733" data-name="Path 35733" d="M39.091,75.853H36.168l-3.105-5.115h0L30.14,75.853H27.4l4.384-6.759-4.2-6.394h2.74l2.74,4.75h0l2.923-4.75h2.74l-4.2,6.394Z" transform="translate(-16.622 -62.517)"/>
      <path id="Path_35734" data-name="Path 35734" d="M35,75.935V62.6h6.028a5.334,5.334,0,0,1,1.644.365,3.277,3.277,0,0,1,1.279.913,2.944,2.944,0,0,1,.731,1.279,7.489,7.489,0,0,1,0,3.288,2.944,2.944,0,0,1-.731,1.279,3.277,3.277,0,0,1-1.279.913A5.334,5.334,0,0,1,41.028,71H37.557v5.115H35Zm2.557-7.124h3.288a1.544,1.544,0,0,0,1.1-.365c.365-.183.365-.548.365-1.1v-.913a1.544,1.544,0,0,0-.365-1.1,2.6,2.6,0,0,0-1.1-.365H37.557Z" transform="translate(-10.339 -62.6)"/>
      <path id="Path_35735" data-name="Path 35735" d="M41.9,75.935V62.6h8.768v2.192H44.457V68.08h5.48v2.192h-5.48v3.471h6.211v2.192Z" transform="translate(-4.635 -62.6)"/>
      <path id="Path_35736" data-name="Path 35736" d="M50.957,75.935H48.4V62.6h6.028a5.334,5.334,0,0,1,1.644.365,3.277,3.277,0,0,1,1.279.913,2.944,2.944,0,0,1,.731,1.279,5.334,5.334,0,0,1,.365,1.644,5.057,5.057,0,0,1-.548,2.375,3.648,3.648,0,0,1-1.827,1.461l2.74,5.48h-2.74L53.515,71H51.14v4.932Zm3.105-7.124a1.544,1.544,0,0,0,1.1-.365c.365-.183.365-.548.365-1.1v-.913a1.544,1.544,0,0,0-.365-1.1,2.6,2.6,0,0,0-1.1-.365H50.775v3.836Z" transform="translate(0.739 -62.6)"/>
      <path id="Path_35737" data-name="Path 35737" d="M61.211,64.892V76.035H58.653V64.892H55V62.7H65.047v2.192Z" transform="translate(6.196 -62.517)"/>
    </g>
    <path id="Path_35738" data-name="Path 35738" d="M84.52,73.739,79.405,77.21l1.827-5.846L76.3,67.528h6.211L84.52,61.5l2.009,6.028h6.211l-4.932,3.836,1.827,5.846Z" transform="translate(51.092 19.842)"/>
  </g>
</svg>
