<svg id="Page-1" xmlns="http://www.w3.org/2000/svg" width="230" height="64.426" viewBox="0 0 230 64.426">
  <g id="main">
    <g id="nav">
      <path id="logo" d="M52.024,0H5.8A5.774,5.774,0,0,0,0,5.8V58.627a5.774,5.774,0,0,0,5.8,5.8H52.024a5.774,5.774,0,0,0,5.8-5.8V5.8A5.774,5.774,0,0,0,52.024,0ZM54.6,58.627A2.544,2.544,0,0,1,52.024,61.2H5.8a2.544,2.544,0,0,1-2.577-2.577V5.8A2.544,2.544,0,0,1,5.8,3.221H52.024A2.544,2.544,0,0,1,54.6,5.8V58.627ZM14.5,54.762l7.248-6.443L14.5,41.877ZM40.588,28.669a10.533,10.533,0,0,0-7.731-2.9,38.4,38.4,0,0,0-12.08,2.255V9.664H14.5V37.528l4.51-2.094s7.409-3.382,13.852-3.382c3.221,0,4.027,1.772,4.027,3.382V54.762h6.443V35.434A9.8,9.8,0,0,0,40.588,28.669Zm-8.536-8.536h6.443A19.429,19.429,0,0,0,43.326,9.664H36.884A23.778,23.778,0,0,1,32.052,20.133Zm177.976,15.14V20.938h6.443V35.112c0,3.221,1.127,4.832,3.7,4.832s3.543-1.45,3.543-4.832V20.938H230V35.273c0,6.282-3.06,9.986-9.986,9.986S210.028,41.555,210.028,35.273ZM182.969,21.1h6.443v8.7l6.6-8.7h7.409l-8.053,9.342,8.7,14.5h-7.248l-5.637-9.5-1.772,2.094v7.409h-6.443V21.1Zm-30.6,11.758c0-8.7,5.959-12.4,11.758-12.4s11.758,3.7,11.758,12.4-5.959,12.4-11.758,12.4S152.367,41.716,152.367,32.857Zm16.912,0c0-4.349-1.933-7.087-5.315-7.087s-5.315,2.738-5.315,7.087,1.933,7.248,5.315,7.248S169.279,37.367,169.279,32.857ZM126.436,21.1h9.342c6.12,0,9.825,2.094,9.825,7.731,0,3.7-1.611,5.959-4.671,6.926l4.993,9.181H139.16l-4.671-8.214h-1.772v8.214h-6.282V21.1Zm9.181,10.63c2.577,0,3.866-.805,3.866-2.738s-1.127-2.738-3.866-2.738h-2.738V31.73h2.738ZM101.793,21.1h17.073v5.315h-10.63V30.28h7.57v4.993h-7.57v4.349h11.113v5.154H101.793V21.1Zm-29.153,0h6.443v8.859h7.892V21.1h6.443V44.937H86.975V35.273H79.083v9.664H72.64V21.1Z" fill="#430098"/>
    </g>
  </g>
</svg>
