<svg xmlns="http://www.w3.org/2000/svg" width="230" height="39.264" viewBox="0 0 230 39.264">
  <g id="Group_32638" data-name="Group 32638" transform="translate(-10466 -2470)">
    <path id="Path_35775" data-name="Path 35775" d="M327.365,182.276c0-.436-.436-.611-.829-.611h-.742v2.181h.393v-.873h.305l.48.873h.48l-.567-.96a.6.6,0,0,0,.48-.567Zm-1.178.349v-.611h.349c.218,0,.436.044.436.305s-.262.305-.48.305Zm.349-1.745a1.358,1.358,0,1,0,.044-.044.043.043,0,0,0-.044.044Zm0,3.49a1.658,1.658,0,1,1,1.658-1.658v.044a1.657,1.657,0,0,1-1.658,1.658Zm-124.772-3.185c-2.836,0-4.275-2.574-4.275-5.017s1.571-4.886,4.145-4.886a4.491,4.491,0,0,1,3.359,1.483l2.967-3.01a9.139,9.139,0,0,0-15.357,6.457c0,5.235,3.752,8.943,9.162,8.943a8.478,8.478,0,0,0,6.282-2.269l-2.923-3.141A4.654,4.654,0,0,1,201.765,181.186Zm-16.8,3.49h4.712V167.792h-4.668Zm-8.507-7.635a3.864,3.864,0,0,1-3.665,4.1c-1.876,0-2.879-1.309-2.879-4.057v-9.249h-4.668v10.47c0,3.49,1.745,6.893,6.413,6.893,2.181,0,4.014-1.745,4.93-3.054h.087v2.574h4.45V167.792h-4.668ZM156.83,169.93h-.087a7.137,7.137,0,0,0-5.322-2.618c-4.755,0-8.42,3.708-8.42,8.856,0,5.235,3.4,8.987,8.2,8.987a7.4,7.4,0,0,0,5.41-2.53h.087v10.339h4.624V167.792h-4.45Zm-4.494,11.256c-2.879,0-4.537-2.53-4.537-5.017,0-2.4,1.483-4.93,4.537-4.93,2.748,0,4.45,2.618,4.45,4.973S155.128,181.186,152.336,181.186Zm106.143-13.873c-5.279,0-9.162,3.708-9.162,8.856a9.163,9.163,0,0,0,18.323,0C267.641,171.021,263.8,167.313,258.479,167.313Zm0,13.873c-3.054,0-4.406-2.618-4.406-5.017s1.4-4.93,4.406-4.93,4.493,2.53,4.493,4.93-1.4,5.017-4.493,5.017Zm58.285-6.893c-2.4-.567-3.272-.873-3.272-1.876,0-1.309,1.745-1.614,2.487-1.614a5.47,5.47,0,0,1,3.708,1.658l2.748-2.618a8.465,8.465,0,0,0-6.413-2.487c-3.4,0-6.937,1.7-6.937,5.453,0,3.272,2.574,4.232,5.061,4.843,2.618.611,3.577,1.047,3.577,2.138,0,1.527-1.745,1.789-2.4,1.789a6.087,6.087,0,0,1-4.232-2.007l-2.836,2.879a9.291,9.291,0,0,0,6.893,2.748c4.581,0,7.286-2.181,7.286-5.759,0-3.4-3.316-4.581-5.671-5.148Zm-8.856-6.5h-6.02l-6.02,6.98h-.087V158.5h-4.668v26.176h4.668v-8.289h.087l6.239,8.289h6.108l-7.242-9.205Zm-69.1-.436a7.33,7.33,0,0,0-5.235,2.269h-.044V158.5h-4.668v26.176h4.45v-2.4h.087a6.277,6.277,0,0,0,5.279,2.836c4.8,0,8.464-3.752,8.464-8.943,0-5.148-3.577-8.856-8.333-8.856Zm-.916,13.83c-2.836,0-4.494-2.53-4.494-4.973s1.745-4.973,4.494-4.973c3.01,0,4.494,2.53,4.494,4.93C242.381,178.655,240.767,181.186,237.888,181.186Zm-10.776-13.393h-6.02l-6.02,6.98h-.087V158.5h-4.668v26.176h4.668v-8.289h.087l6.239,8.289h6.108l-7.2-9.205Zm51.828-.436c-5.322,0-9.162,3.708-9.162,8.813a9.163,9.163,0,0,0,18.323,0c0-5.148-3.883-8.856-9.162-8.856Zm0,13.83c-3.054,0-4.45-2.618-4.45-5.017s1.4-4.93,4.45-4.93,4.406,2.53,4.406,4.93S281.95,181.186,278.94,181.186Z" transform="translate(10367.499 2314.118)"/>
    <circle id="Ellipse_263" data-name="Ellipse 263" cx="19.632" cy="19.632" r="19.632" transform="translate(10466 2470)" fill="#2ca01c"/>
    <path id="Path_35776" data-name="Path 35776" d="M53.5,164.37A7.615,7.615,0,0,0,61.135,172h1.091v-2.836H61.135a4.8,4.8,0,1,1,0-9.6h2.618V174.4a2.83,2.83,0,0,0,2.836,2.836h0v-20.5H61.135A7.615,7.615,0,0,0,53.5,164.37Zm20.723-7.635H73.132v2.836h1.091a4.8,4.8,0,1,1,0,9.6H71.6V154.336a2.83,2.83,0,0,0-2.836-2.836V172h5.453a7.635,7.635,0,1,0,0-15.269Z" transform="translate(10417.953 2325.262)" fill="#fff"/>
  </g>
</svg>
