<svg xmlns="http://www.w3.org/2000/svg" width="167.225" height="100" viewBox="0 0 167.225 100">
  <g id="Group_32634" data-name="Group 32634" transform="translate(-356 -3969)">
    <path id="path1857" d="M54.311,37.418a16.828,16.828,0,0,0,.612,4.95,29.77,29.77,0,0,0,1.78,4,2.419,2.419,0,0,1,.389,1.279,2.2,2.2,0,0,1-1.057,1.669l-3.5,2.336a2.667,2.667,0,0,1-1.446.5,2.559,2.559,0,0,1-1.669-.779,17.206,17.206,0,0,1-2-2.614c-.556-.945-1.112-2-1.724-3.281a20.546,20.546,0,0,1-16.352,7.675c-4.672,0-8.4-1.335-11.123-4A14.287,14.287,0,0,1,14.1,38.475a14.317,14.317,0,0,1,5.061-11.457c3.393-2.892,7.9-4.338,13.626-4.338a44.035,44.035,0,0,1,5.9.445c2.058.278,4.171.723,6.4,1.224v-4.06c0-4.227-.89-7.175-2.614-8.9-1.78-1.724-4.783-2.558-9.066-2.558a25.305,25.305,0,0,0-6.007.723,44.316,44.316,0,0,0-6.007,1.891,15.958,15.958,0,0,1-1.947.723,3.411,3.411,0,0,1-.89.167c-.779,0-1.168-.556-1.168-1.724V7.885a3.519,3.519,0,0,1,.389-1.947,4.165,4.165,0,0,1,1.557-1.168,32.02,32.02,0,0,1,7.008-2.5,33.719,33.719,0,0,1,8.676-1.057c6.618,0,11.457,1.5,14.572,4.505C52.643,8.72,54.2,13.28,54.2,19.4v18.02ZM31.731,45.872a18.025,18.025,0,0,0,5.729-1,12.394,12.394,0,0,0,5.284-3.56,8.828,8.828,0,0,0,1.891-3.56,19.967,19.967,0,0,0,.556-4.839V30.577a46.447,46.447,0,0,0-5.117-.945,41.908,41.908,0,0,0-5.228-.334c-3.726,0-6.452.723-8.287,2.225a7.752,7.752,0,0,0-2.725,6.4c0,2.614.667,4.561,2.058,5.9a7.713,7.713,0,0,0,5.84,2.058Zm44.661,6.007a3.1,3.1,0,0,1-2.113-.556,4.533,4.533,0,0,1-1.168-2.169L60.04,6.161a9.743,9.743,0,0,1-.5-2.225,1.22,1.22,0,0,1,1.335-1.39h5.451a3.083,3.083,0,0,1,2.169.556,4.55,4.55,0,0,1,1.112,2.169L78.95,42.09,87.626,5.271A3.9,3.9,0,0,1,88.683,3.1a3.826,3.826,0,0,1,2.225-.556h4.449a3.347,3.347,0,0,1,2.225.556,3.748,3.748,0,0,1,1.057,2.169l8.788,37.264,9.622-37.264A4.769,4.769,0,0,1,118.16,3.1a3.629,3.629,0,0,1,2.169-.556H125.5a1.236,1.236,0,0,1,1.39,1.39,5.545,5.545,0,0,1-.111.89,7.914,7.914,0,0,1-.389,1.39l-13.4,42.992a4.265,4.265,0,0,1-1.168,2.169,3.558,3.558,0,0,1-2.113.556h-4.783a3.347,3.347,0,0,1-2.225-.556,3.943,3.943,0,0,1-1.057-2.225L93.021,13.28,84.456,49.1A4.341,4.341,0,0,1,83.4,51.323a3.447,3.447,0,0,1-2.225.556Zm71.468,1.5a36.8,36.8,0,0,1-8.565-1,25.3,25.3,0,0,1-6.4-2.225,4.007,4.007,0,0,1-1.724-1.557,3.926,3.926,0,0,1-.334-1.557V44.2c0-1.168.445-1.724,1.279-1.724a3.149,3.149,0,0,1,1,.167c.334.111.834.334,1.39.556a30.252,30.252,0,0,0,6.118,1.947,33.4,33.4,0,0,0,6.618.667c3.5,0,6.229-.612,8.12-1.835A5.989,5.989,0,0,0,158.26,38.7a5.416,5.416,0,0,0-1.5-3.893c-1-1.057-2.892-2-5.617-2.892l-8.065-2.5c-4.06-1.279-7.063-3.17-8.9-5.673a13.251,13.251,0,0,1-2.781-8.065A12.378,12.378,0,0,1,132.9,9.5a14.3,14.3,0,0,1,4-4.561,17.652,17.652,0,0,1,5.784-2.892A24.24,24.24,0,0,1,149.7,1.1a27.921,27.921,0,0,1,3.726.222c1.279.167,2.447.389,3.615.612,1.112.278,2.169.556,3.17.89a12.138,12.138,0,0,1,2.336,1,4.809,4.809,0,0,1,1.669,1.39,3,3,0,0,1,.5,1.835V9.665c0,1.168-.445,1.78-1.279,1.78a5.785,5.785,0,0,1-2.113-.667,25.444,25.444,0,0,0-10.679-2.169c-3.17,0-5.673.5-7.4,1.557a5.37,5.37,0,0,0-2.614,4.95,5.252,5.252,0,0,0,1.669,3.949,16.613,16.613,0,0,0,6.118,3.059l7.9,2.5c4,1.279,6.9,3.059,8.621,5.339a12.585,12.585,0,0,1,2.558,7.786,14.3,14.3,0,0,1-1.446,6.452,14.958,14.958,0,0,1-4.06,4.894,17.928,17.928,0,0,1-6.174,3.115,26.447,26.447,0,0,1-7.953,1.168Z" transform="translate(348.814 3967.9)" fill="#252f3e"/>
    <path id="path1859" d="M152.854,132.8c-18.3,13.515-44.883,20.69-67.742,20.69a122.553,122.553,0,0,1-82.7-31.535c-1.724-1.557-.167-3.671,1.891-2.447a166.789,166.789,0,0,0,82.759,21.969,165.148,165.148,0,0,0,63.126-12.9C153.243,127.184,155.857,130.576,152.854,132.8Z" transform="translate(354.332 3915.509)" fill="#f90" fill-rule="evenodd"/>
    <path id="path1861" d="M268.908,121.484c-2.336-3-15.462-1.446-21.413-.723-1.78.222-2.058-1.335-.445-2.5,10.456-7.341,27.642-5.228,29.644-2.781,2,2.5-.556,19.689-10.345,27.92-1.5,1.279-2.948.612-2.28-1.057C266.294,136.834,271.244,124.431,268.908,121.484Z" transform="translate(245.897 3918.15)" fill="#f90" fill-rule="evenodd"/>
  </g>
</svg>
