<svg xmlns="http://www.w3.org/2000/svg" width="240" height="42.8" viewBox="0 0 240 42.8">
  <g id="f3a2a1d72cf51d7875650ec01161c4df9c9e67c9e715ec1fbf33a87233b05ecb" transform="translate(0 -1)">
    <path id="Path_35716" data-name="Path 35716" d="M395.467,40.827c0-2.01-1.223-3.892-4.154-3.892-5.081,0-8.675,6.7-8.675,11.826,0,3.41,1.444,6.675,5.6,6.675a8.852,8.852,0,0,0,4.856-1.34l-.484-1.259a7.759,7.759,0,0,1-4.112,1.189,3.862,3.862,0,0,1-3.892-3.016,12.233,12.233,0,0,1-.148-4.448c5.812.044,11-1.212,11-5.74Zm-4.448-2.485c1.674,0,2.78.891,2.78,2.522V40.9c0,3.524-4.448,4.3-9.084,4.264C385.821,41.308,388.276,38.341,391.019,38.341ZM410.15,37.3h-1.889l-3.684,4.636c-.854,1.038-1.26,1.675-2.01,2.743h-.076c-.408-.928-.74-1.856-1.148-2.89L399.487,37.3h-1.7l3.684,8.708L394.1,55.095h1.892l4.02-5.044a31.276,31.276,0,0,0,1.928-2.78h.072c.444,1.259.7,1.966,1.22,3.152l1.892,4.672h1.74L403.1,46.019l7.044-8.716Zm9.676-.368c-2.371,0-4.6,1.52-6.206,3.966h-.072l.556-3.6h-1.52c-.22,1.632-.556,3.784-1,6.12l-3.54,18.948h1.6l1.412-7.676h.076a7.287,7.287,0,0,0,3.56.78c5.676,0,9.792-6.748,9.792-12.752,0-2.928-1.264-5.784-4.64-5.784Zm-5,17.128a5.579,5.579,0,0,1-3.446-1l1.146-6.13c1-5.376,4.3-8.6,6.822-8.6,2.632,0,3.45,2.375,3.45,4.488,0,4.575-3.262,11.247-7.971,11.247Zm20.059-17.128c-5.081,0-8.675,6.7-8.675,11.826,0,3.41,1.447,6.675,5.6,6.675a8.842,8.842,0,0,0,4.856-1.34l-.482-1.259a7.753,7.753,0,0,1-4.116,1.186,3.858,3.858,0,0,1-3.892-3.012,12.235,12.235,0,0,1-.151-4.432c5.821.036,11.012-1.22,11.012-5.748,0-2-1.225-3.892-4.152-3.892Zm2.482,3.966c0,3.524-4.448,4.3-9.083,4.264,1.112-3.856,3.56-6.823,6.3-6.823,1.675,0,2.78.891,2.78,2.522Zm6.712.3H444c.221-1.558.372-2.744.482-3.892H443.04c-.148,1.557-.408,3.56-.852,5.821L439.928,55.1h1.6l1.7-9.043c.74-3.892,3.352-7.415,5.676-7.415a2.443,2.443,0,0,1,.592.036l.336-1.7c-.184,0-.444-.04-.668-.04-2.224-.008-4,1.88-5.076,4.256Zm10.677,12.828c-1.112,0-1.594-.63-1.594-1.675a16.431,16.431,0,0,1,.372-3.078l1.956-10.6h4.19l.3-1.373h-4.184l.78-3.892-1.776.7L454.2,37.3h-2.6l-.256,1.376h2.56l-2.008,10.6a14.939,14.939,0,0,0-.408,3.264,2.692,2.692,0,0,0,2.932,2.892,6.135,6.135,0,0,0,1.744-.256l-.11-1.3a3.925,3.925,0,0,1-1.294.148Zm11.716-15.685a5.076,5.076,0,0,1,2.522.74l.593-1.373a5.321,5.321,0,0,0-2.931-.777,5.141,5.141,0,0,0-5.412,5.044,5.341,5.341,0,0,0,2.743,4.412c1.675,1.076,2.412,2.152,2.412,3.928a3.728,3.728,0,0,1-3.929,3.708,5.407,5.407,0,0,1-3.115-1l-.63,1.34a6.257,6.257,0,0,0,3.6,1.076,5.353,5.353,0,0,0,5.692-5.564,5.626,5.626,0,0,0-2.744-4.6c-1.448-1-2.412-1.928-2.412-3.6a3.409,3.409,0,0,1,3.612-3.332Z" transform="translate(-229.583 -19.447)"/>
    <path id="Path_35717" data-name="Path 35717" d="M32.134,9.026a.379.379,0,0,0-.359-.331c-.15,0-3.112-.06-3.112-.06s-2.483-2.4-2.722-2.675a.992.992,0,0,0-.9-.12s-.479.15-1.257.39a9.029,9.029,0,0,0-.6-1.473,4.2,4.2,0,0,0-3.74-2.584,1.223,1.223,0,0,0-.329.03c-.06-.06-.09-.12-.15-.15A3.317,3.317,0,0,0,16.366,1c-2,.06-4.01,1.533-5.655,4.118A16.986,16.986,0,0,0,8.438,11.01c-2.3.721-3.92,1.232-3.98,1.232-1.167.361-1.2.391-1.346,1.5C3.052,14.586,0,38.3,0,38.3l25.612,4.448,11.1-2.765c-.03,0-4.548-30.746-4.578-30.957ZM22.5,6.652q-.9.271-1.975.631a11.167,11.167,0,0,0-.6-3.667C21.453,3.857,22.2,5.6,22.5,6.652ZM19.179,7.674Q17.041,8.34,14.9,9a10.388,10.388,0,0,1,2.154-4.208A4.369,4.369,0,0,1,18.49,3.736a8.851,8.851,0,0,1,.688,3.938Zm-2.753-5.32a1.938,1.938,0,0,1,1.2.331,5.309,5.309,0,0,0-1.556,1.232A11.743,11.743,0,0,0,13.4,9.507c-1.226.391-2.423.752-3.5,1.082.718-3.276,3.441-8.145,6.522-8.235Z" transform="translate(0 0)" fill="#95bf47"/>
    <path id="Path_35718" data-name="Path 35718" d="M70.193,15.912c-.15,0-3.112-.06-3.112-.06s-2.483-2.4-2.722-2.675a.48.48,0,0,0-.329-.15V49.964l11.1-2.765s-4.518-30.746-4.548-30.957A.435.435,0,0,0,70.193,15.912Z" transform="translate(-38.417 -7.216)" fill="#5e8e3e"/>
    <path id="Path_35719" data-name="Path 35719" d="M29.681,33.922l-1.286,4.839a7.142,7.142,0,0,0-3.142-.541c-2.513.15-2.513,1.743-2.513,2.134.15,2.164,5.8,2.645,6.134,7.724.239,4-2.094,6.732-5.505,6.943a8.371,8.371,0,0,1-6.313-2.194l.868-3.7s2.274,1.713,4.069,1.593a1.592,1.592,0,0,0,1.556-1.713c-.18-2.825-4.788-2.645-5.087-7.3-.239-3.907,2.3-7.844,7.929-8.2a6.711,6.711,0,0,1,3.291.421Z" transform="translate(-10.233 -19.486)" fill="#fff"/>
    <path id="Path_35720" data-name="Path 35720" d="M115.551,37.1c-1.286-.691-1.945-1.292-1.945-2.1,0-1.022.928-1.683,2.364-1.683a8.524,8.524,0,0,1,3.172.691l1.167-3.607s-1.077-.842-4.248-.842c-4.428,0-7.51,2.555-7.51,6.131,0,2.044,1.436,3.577,3.351,4.689,1.556.872,2.094,1.5,2.094,2.434,0,.962-.778,1.743-2.214,1.743a9.951,9.951,0,0,1-4.159-1.112l-1.257,3.606a9.459,9.459,0,0,0,5,1.262c4.548,0,7.839-2.254,7.839-6.312C119.171,39.805,117.525,38.242,115.551,37.1Zm18.132-7.6a6.821,6.821,0,0,0-5.356,2.705l-.06-.03,1.945-10.219h-5.056L120.218,47.98h5.056l1.676-8.9c.658-3.366,2.394-5.44,4.009-5.44,1.137,0,1.586.781,1.586,1.893a11.5,11.5,0,0,1-.209,2.254L130.421,47.98h5.056l1.975-10.519a20.212,20.212,0,0,0,.359-3.336c.03-2.886-1.466-4.629-4.129-4.629Zm15.618,0c-6.1,0-10.143,5.53-10.143,11.692,0,3.937,2.424,7.123,6.972,7.123,5.984,0,10.023-5.38,10.023-11.691C156.182,32.983,154.058,29.5,149.3,29.5Zm-2.484,14.937c-1.735,0-2.453-1.472-2.453-3.336,0-2.915,1.5-7.664,4.248-7.664,1.8,0,2.394,1.563,2.394,3.066,0,3.126-1.526,7.934-4.189,7.934ZM169.137,29.5a6.935,6.935,0,0,0-5.356,3.036h-.06l.3-2.735h-4.488c-.209,1.834-.628,4.659-1.017,6.762l-3.53,18.634h5.056l1.406-7.544h.12a5.91,5.91,0,0,0,2.962.661c5.954,0,9.844-6.131,9.844-12.322C174.373,32.562,172.847,29.5,169.137,29.5Zm-4.847,15a3.182,3.182,0,0,1-2.094-.752l.838-4.749c.6-3.186,2.244-5.29,4.009-5.29,1.556,0,2.034,1.443,2.034,2.8C169.077,39.805,167.133,44.494,164.29,44.494Zm17.324-22.3a2.9,2.9,0,0,0-2.9,2.945,2.357,2.357,0,0,0,2.394,2.555h.06a2.856,2.856,0,0,0,2.962-2.945A2.417,2.417,0,0,0,181.614,22.193ZM174.523,47.95h5.056l3.441-18.033h-5.086L174.523,47.95Zm21.393-18.063h-3.53l.179-.842c.3-1.743,1.317-3.276,3.022-3.276a5.084,5.084,0,0,1,1.616.27l.988-4a6.478,6.478,0,0,0-2.753-.451,7.6,7.6,0,0,0-4.967,1.683,9.51,9.51,0,0,0-2.932,5.77l-.15.842h-2.364l-.748,3.847h2.364L183.948,47.98H189L191.7,33.734h3.5l.718-3.847Zm12.207.03s-3.172,8.025-4.578,12.413h-.06c-.09-1.413-1.256-12.413-1.256-12.413H196.9l3.052,16.56a1.112,1.112,0,0,1-.12.842,8.907,8.907,0,0,1-2.753,3.066,11.656,11.656,0,0,1-2.872,1.442l1.406,4.328a11.638,11.638,0,0,0,4.967-2.765c2.3-2.164,4.458-5.53,6.642-10.1l6.194-13.374Z" transform="translate(-63.819 -12.355)"/>
  </g>
</svg>
