<svg xmlns="http://www.w3.org/2000/svg" width="230" height="63.855" viewBox="0 0 230 63.855">
  <g id="Group_32637" data-name="Group 32637" transform="translate(-10278 -2504)">
    <path id="Path_35759" data-name="Path 35759" d="M168.968,299.162a26.182,26.182,0,0,1-.115-3.143V278.812a6.911,6.911,0,0,1,2.108-2.108,4.54,4.54,0,0,1,2.453-.8q3.162,0,4.139,1.725l.115-.077.5-7.512a11.521,11.521,0,0,0-4.254-.652,6.958,6.958,0,0,0-5.1,2.721v-.881c0-1.226-1.533-1.265-1.533-1.265H160c0,.422,1.84,0,1.84,4.752v24.451Zm12.417-20.427a15.775,15.775,0,0,0-1.15,6.055,13.548,13.548,0,0,0,4.791,10.654,17.66,17.66,0,0,0,12.034,4.139,23.043,23.043,0,0,0,2.759-.153c3.258-.383,5.6-1.035,7.052-1.993l.307-4.369c.038-.8.115-1.61.153-2.414a6.123,6.123,0,0,1-1.3.766,17.567,17.567,0,0,1-7.818,1.61,13.487,13.487,0,0,1-7.09-1.648,7.321,7.321,0,0,1-3.449-4.676H197.75c5.864,0,9.735-.268,11.651-.767a8.779,8.779,0,0,0,.345-3.028,13.285,13.285,0,0,0-3.641-9.543,12.765,12.765,0,0,0-9.811-3.947,15.9,15.9,0,0,0-11.689,4.446A14.583,14.583,0,0,0,181.385,278.735Zm14.027-3.449c3.679,0,5.94,1.993,6.707,6.017-.5.038-1.073.077-1.686.077l-2.338.077c-.92,0-1.878.038-2.874.038h-1.648c-.652,0-1.341,0-2.031-.038h-2.108c-.652,0-1.226-.038-1.686-.038a8.831,8.831,0,0,1,1.073-2.453A7.2,7.2,0,0,1,195.412,275.286Zm16.595-5.327h7.7l5.327,20.964,5.749-20.964h6.592l5.94,21.424,5.327-21.424h6.937l-8.815,29.2h-7.435l-5.672-19.124-5.289,19.124h-7.358Zm54.728,29.2a26.18,26.18,0,0,1-.115-3.143V269.959h-7.167v29.2Zm-3.526-33.611a4.677,4.677,0,1,0-4.791-4.676A4.72,4.72,0,0,0,263.209,265.551ZM282.3,295.56a19.351,19.351,0,0,0,.23,3.564H275.32v-29.2H282.3v2.491a12.65,12.65,0,0,1,8.087-3.028,9.532,9.532,0,0,1,7.512,3.143,11.7,11.7,0,0,1,2.8,8.2v11.114a52.562,52.562,0,0,0,.153,5.672,3.006,3.006,0,0,0,.383,1.226c.153.192.307.345.422.5l-.038.115c-1.533-.115-2.683-.192-3.373-.192h-1.993c-.613,0-1.418.038-2.453.077V284.024c0-5.442-1.686-8.2-5.1-8.2q-3.794,0-6.324,3.794V295.56Zm40.05,4.024a14.909,14.909,0,0,0,7.282-1.993,7.325,7.325,0,0,0,2.414,1.993l5.4-4.637a5.978,5.978,0,0,1-1.15-1,5.311,5.311,0,0,1-.8-1.686,21.118,21.118,0,0,1-.345-4.867V257.541h-7.013v12.417a16.6,16.6,0,0,0-4.331-.575,16.223,16.223,0,0,0-11.8,4.484,14.717,14.717,0,0,0-4.6,11.076,14.253,14.253,0,0,0,3.947,10.463,13.426,13.426,0,0,0,4.637,3.066A17,17,0,0,0,322.345,299.584Zm5.749-7.32a10.415,10.415,0,0,1-4.407.882c-3.066,0-5.442-.843-7.09-2.529a8.76,8.76,0,0,1-2.3-6.362,7.623,7.623,0,0,1,2.529-5.94,8.26,8.26,0,0,1,2.874-1.686,11.542,11.542,0,0,1,4.024-.613,11.8,11.8,0,0,1,4.369.8Z" transform="translate(10170.555 2255.417)" fill="#373f41"/>
    <path id="Path_35760" data-name="Path 35760" d="M55.841,291.7s-12.111-13.72-15.522-22.114a57.946,57.946,0,0,1-4.254-21.232c-18.089,17.553-17.63,20.811,1.686,39.207C58.869,307.639,64.234,299.629,55.841,291.7Zm3.794-52.62c0-3.794-8.278-4.024-15.407,1.61-1.341,1.035-4.714,4.331-4.714,4.331-.038.881-.077,1.8-.077,2.683a54.057,54.057,0,0,0,2.683,16.94A59.285,59.285,0,0,1,55.649,244.9C58.639,242.064,59.635,241.068,59.635,239.075Z" transform="translate(10255.13 2267.675)" fill="#f7c20f"/>
  </g>
</svg>
