<svg xmlns="http://www.w3.org/2000/svg" width="232" height="38.557" viewBox="0 0 232 38.557">
  <g id="Bluehost_logo" transform="translate(-0.763 -42.219)">
    <rect id="Rectangle_14113" data-name="Rectangle 14113" width="10.517" height="10.587" transform="translate(0.763 42.219)" fill="#4f78ba"/>
    <rect id="Rectangle_14114" data-name="Rectangle 14114" width="10.521" height="10.587" transform="translate(14.332 42.219)" fill="#4f78ba"/>
    <rect id="Rectangle_14115" data-name="Rectangle 14115" width="10.521" height="10.587" transform="translate(27.905 42.219)" fill="#4f78ba"/>
    <rect id="Rectangle_14116" data-name="Rectangle 14116" width="10.517" height="10.587" transform="translate(0.763 55.911)" fill="#4f78ba"/>
    <rect id="Rectangle_14117" data-name="Rectangle 14117" width="10.521" height="10.587" transform="translate(14.332 55.911)" fill="#4f78ba"/>
    <rect id="Rectangle_14118" data-name="Rectangle 14118" width="10.521" height="10.587" transform="translate(27.905 55.911)" fill="#4f78ba"/>
    <rect id="Rectangle_14119" data-name="Rectangle 14119" width="10.517" height="10.588" transform="translate(0.763 69.604)" fill="#4f78ba"/>
    <rect id="Rectangle_14120" data-name="Rectangle 14120" width="10.521" height="10.588" transform="translate(14.332 69.604)" fill="#4f78ba"/>
    <rect id="Rectangle_14121" data-name="Rectangle 14121" width="10.521" height="10.588" transform="translate(27.905 69.604)" fill="rgba(79,120,186,0.5)"/>
    <path id="Path_35794" data-name="Path 35794" d="M27.525,76.713a14.006,14.006,0,0,0,6.352,1.6c4.952,0,9.554-2.925,9.554-10.212C43.4,61.68,39.851,58,35.3,58a10.827,10.827,0,0,0-7.778,3.792Zm0-18.122a12.133,12.133,0,0,1,8.02-3.088c5.383,0,10.577,3.684,10.577,12.568,0,9.183-5.84,12.65-12.084,12.65a18.66,18.66,0,0,1-9.2-2.519V42.231h2.691Z" transform="translate(32.425 0.016)" fill="#4f78ba"/>
    <rect id="Rectangle_14122" data-name="Rectangle 14122" width="2.584" height="38.085" transform="translate(83.257 42.219)" fill="#4f78ba"/>
    <path id="Path_35795" data-name="Path 35795" d="M42.374,62.93c0,5.8,2.826,7.368,5.652,7.368,3.175,0,6.082-2,8.343-5.336v-16.9h2.691V72.438H56.37V67.725a11.455,11.455,0,0,1-9.2,5.092c-3.822,0-7.482-2.194-7.482-9.616V48.059h2.691Z" transform="translate(52.428 7.866)" fill="#4f78ba"/>
    <path id="Path_35796" data-name="Path 35796" d="M69.668,58.814a8,8,0,0,0-7.832-8.451,8.694,8.694,0,0,0-8.989,8.451ZM70.772,71a16.9,16.9,0,0,1-8.639,2.085C54,72.818,49.833,66.4,50.1,59.545c.3-7.666,5.948-11.837,11.976-11.62,6.513.162,10.954,5.417,10.093,13.11H52.739A9.4,9.4,0,0,0,62.267,70.6a14.926,14.926,0,0,0,7.563-1.869Z" transform="translate(66.447 7.675)" fill="#4f78ba"/>
    <path id="Path_35797" data-name="Path 35797" d="M64.781,60.677a10.759,10.759,0,0,1,8.882-5.147c4.844,0,7.7,3.684,7.7,9.128V80.288H78.7V65.228c0-5.282-2.691-7.151-5.6-7.178-3.525-.027-6.674,2.736-8.316,5.5v16.74H62.09V42.231h2.691Z" transform="translate(82.611 0.016)" fill="#4f78ba"/>
    <path id="Path_35798" data-name="Path 35798" d="M74.887,60.439c0,5.39,3.122,10.077,8.935,10.077,5.625,0,8.962-4.713,8.962-10.077,0-5.417-3.31-10.023-8.962-10.023C78.036,50.416,74.887,55.021,74.887,60.439Zm20.589,0c0,8.072-5.437,12.6-11.653,12.6-6.971,0-11.654-5.634-11.654-12.6,0-7.395,5.168-12.541,11.654-12.541C90.066,47.9,95.476,52.556,95.476,60.439Z" transform="translate(96.189 7.649)" fill="#4f78ba"/>
    <path id="Path_35799" data-name="Path 35799" d="M85.656,68.426a11.679,11.679,0,0,0,6.459,2.059c2.53,0,5.679-1.056,5.652-3.63,0-2.194-2.315-3.9-6.029-5.363-4.118-1.652-7.724-3.169-7.724-7.07s3.633-6.5,8.4-6.5a14.358,14.358,0,0,1,6.728,1.761l-1.023,2.14a12.006,12.006,0,0,0-5.625-1.435c-4.01,0-5.813,1.977-5.813,4.036,0,2.628,2.96,3.6,6.7,5.147,5.84,2.3,7.079,4.93,7.079,7.178,0,3.819-3.553,6.23-8.263,6.23a15.056,15.056,0,0,1-7.7-2.221Z" transform="translate(112.146 7.68)" fill="#4f78ba"/>
    <path id="Path_35800" data-name="Path 35800" d="M107.178,52.754v2.3h-8.02V68.384c0,3.928,1.669,6.474,5.194,6.609a9.955,9.955,0,0,0,4.548-.948l.781,2.384a14.57,14.57,0,0,1-5.383,1.084c-4.36,0-7.832-2.682-7.832-8.939V55.056H92.133v-2.3h4.333v-8.18h2.691v8.18Z" transform="translate(123.082 3.172)" fill="#4f78ba"/>
  </g>
</svg>
