<svg xmlns="http://www.w3.org/2000/svg" width="240" height="46.508" viewBox="0 0 240 46.508">
  <g id="Logo_Color_Horizontal" transform="translate(-6.355 -5)">
    <path id="Path_35746" data-name="Path 35746" d="M28.443,42.376,19.763,27.3H11.018a4.677,4.677,0,0,0-4.046,6.983L20.024,56.929a4.683,4.683,0,0,0,8.093,0l8.419-14.554A4.683,4.683,0,0,1,28.443,42.376Z" transform="translate(0 -7.746)" fill="#8759f2"/>
    <path id="Path_35747" data-name="Path 35747" d="M44.325,27.3H26.9l8.68,15.076a4.683,4.683,0,0,0,8.093,0l4.7-8.093A4.686,4.686,0,0,0,44.325,27.3Z" transform="translate(-7.137 -7.746)" fill="#ff3e80"/>
    <path id="Path_35748" data-name="Path 35748" d="M50.088,5H23.918a4.664,4.664,0,0,0-4.046,6.983l4.373,7.57H41.669a4.677,4.677,0,0,1,4.046,6.983l8.419-14.554A4.677,4.677,0,0,0,50.088,5Z" transform="translate(-4.481)" fill="#ffc300"/>
    <path id="Path_35749" data-name="Path 35749" d="M15.719,13.234a4.536,4.536,0,0,1,0-4.634L7.3,23.154A4.689,4.689,0,0,1,11.346,20.8h8.745Z" transform="translate(-0.328 -1.251)" fill="#00d4e6"/>
    <path id="Path_35750" data-name="Path 35750" d="M307.2,26.5a12.147,12.147,0,1,0,12.6,12.139A12.3,12.3,0,0,0,307.2,26.5Zm0,19.383a6.941,6.941,0,0,1-6.918-7.179,6.923,6.923,0,1,1,6.918,7.179Z" transform="translate(-100.129 -7.469)" fill="#221b43"/>
    <path id="Path_35751" data-name="Path 35751" d="M185.581,12.2h-2.023a1.731,1.731,0,0,0-1.958,1.958V43.33a1.731,1.731,0,0,0,1.958,1.958h2.023a1.731,1.731,0,0,0,1.958-1.958V14.158A1.731,1.731,0,0,0,185.581,12.2Z" transform="translate(-60.876 -2.501)" fill="#221b43"/>
    <path id="Path_35752" data-name="Path 35752" d="M282.181,27.4h-2.023a1.731,1.731,0,0,0-1.958,1.958V48.676a1.731,1.731,0,0,0,1.958,1.958h2.023a1.731,1.731,0,0,0,1.958-1.958V29.358A1.757,1.757,0,0,0,282.181,27.4Z" transform="translate(-94.432 -7.781)" fill="#221b43"/>
    <path id="Path_35753" data-name="Path 35753" d="M118.238,27.3h-1.893A2.146,2.146,0,0,0,114,29l-5.547,15.076L102.9,29a2.146,2.146,0,0,0-2.349-1.7H98.594c-1.24,0-2.349.522-1.7,2.219l7.636,18.991c.653,1.7,1.305,2.023,2.676,2.023h2.415c1.371,0,2.023-.392,2.676-2.023l7.636-18.991C120.587,27.822,119.478,27.3,118.238,27.3Z" transform="translate(-31.385 -7.746)" fill="#221b43"/>
    <path id="Path_35754" data-name="Path 35754" d="M220.2,27.4h-2.023a1.731,1.731,0,0,0-1.958,1.958v9.724c-.2,4.634-2.872,7.114-6.135,7.114-2.611,0-4.046-2.284-4.046-5.743V29.358a1.731,1.731,0,0,0-1.958-1.958h-2.023a1.731,1.731,0,0,0-1.958,1.958V40.909c0,4.112,1.827,10.246,8.615,10.246,5.417,0,7.114-3.524,7.505-4.7v2.219a1.731,1.731,0,0,0,1.958,1.958H220.2a1.731,1.731,0,0,0,1.958-1.958V29.358A1.731,1.731,0,0,0,220.2,27.4Z" transform="translate(-67.302 -7.781)" fill="#221b43"/>
    <path id="Path_35755" data-name="Path 35755" d="M342.258,50.321h2.023a1.731,1.731,0,0,0,1.958-1.958V38.574c.2-4.634,2.872-7.114,6.135-7.114,2.611,0,4.046,2.284,4.046,5.743V48.3a1.731,1.731,0,0,0,1.958,1.958H360.4a1.731,1.731,0,0,0,1.958-1.958V36.746c0-4.112-1.827-10.246-8.615-10.246-5.417,0-7.114,3.524-7.505,4.7V29.045a1.731,1.731,0,0,0-1.958-1.958h-2.023a1.731,1.731,0,0,0-1.958,1.958V48.363A1.757,1.757,0,0,0,342.258,50.321Z" transform="translate(-116.004 -7.469)" fill="#221b43"/>
    <path id="Path_35756" data-name="Path 35756" d="M284.44,15.059a3.73,3.73,0,0,1-7.44,0,3.73,3.73,0,0,1,7.44,0Z" transform="translate(-94.015 -2.293)" fill="#221b43"/>
    <path id="Path_35757" data-name="Path 35757" d="M258.971,30.155a1.986,1.986,0,0,0-.065-1.371,1.779,1.779,0,0,0-.979-.848,21.133,21.133,0,0,0-7.179-1.436c-5.09,0-8.615,2.872-8.81,6.592a6.451,6.451,0,0,0,3.72,6.135c2.545,1.371,5.482,1.827,6.787,2.284,1.371.522,2.088,1.109,2.154,2.284,0,1.175-1.109,2.219-3.394,2.219a17.579,17.579,0,0,1-6.853-1.632,1.739,1.739,0,0,0-2.284.783l-.457,1.24a1.776,1.776,0,0,0,.718,2.284,18.943,18.943,0,0,0,8.615,2.154c5.743,0,9.2-3.067,9.2-7.114,0-1.827-.587-4.046-3.655-5.678-1.632-.914-6.135-1.762-7.636-2.611a2.175,2.175,0,0,1-1.371-2.284c.131-1.305,1.371-1.893,2.937-2.023,2.545-.131,4.373.718,6.2,1.175A1.693,1.693,0,0,0,258.58,31.2Z" transform="translate(-81.665 -7.469)" fill="#221b43"/>
    <path id="Path_35758" data-name="Path 35758" d="M148,26.5a12.147,12.147,0,1,0,12.6,12.139A12.3,12.3,0,0,0,148,26.5Zm0,19.383a6.941,6.941,0,0,1-6.918-7.179,6.923,6.923,0,1,1,13.836,0A6.941,6.941,0,0,1,148,45.883Z" transform="translate(-44.827 -7.469)" fill="#221b43"/>
  </g>
</svg>
