<svg xmlns="http://www.w3.org/2000/svg" width="216.833" height="42" viewBox="0 0 216.833 42">
  <g id="Layer_2" data-name="Layer 2" transform="translate(0.018)">
    <g id="Layer_1" data-name="Layer 1" transform="translate(-0.018)">
      <g id="Group_33485" data-name="Group 33485">
        <g id="Group_33482" data-name="Group 33482" transform="translate(52.599 6.188)">
          <g id="Group_33481" data-name="Group 33481" transform="translate(0 0.702)">
            <path id="Path_35782" data-name="Path 35782" d="M41.2,19.8A13.4,13.4,0,1,1,54.6,33.2,13.4,13.4,0,0,1,41.2,19.8Zm20.928-.128A7.4,7.4,0,0,0,54.6,12.015a7.626,7.626,0,1,0,7.529,7.657Z" transform="translate(-41.2 -5.124)" fill="#221f1f"/>
            <path id="Path_35783" data-name="Path 35783" d="M83.98,21.992c0,5.487-3.956,9.7-8.805,9.7a7.019,7.019,0,0,1-5.487-2.169v9.06H64.2V13.059L69.687,11.4v3.063a6.891,6.891,0,0,1,5.487-2.169C80.024,12.166,83.98,16.5,83.98,21.992Zm-5.487,0a4.211,4.211,0,0,0-4.466-4.466,4.084,4.084,0,0,0-4.339,4.466,4.466,4.466,0,1,0,8.805,0Z" transform="translate(-34.85 -3.743)" fill="#221f1f"/>
            <path id="Path_35784" data-name="Path 35784" d="M89.25,19.168v6.508c0,1.531,1.4,1.787,3.828,1.531v5.1c-7.274.766-9.316-1.4-9.316-6.636V19.168H80.7v-5.36h2.935V8.959L89.25,7.3v6.508h3.7v5.36Z" transform="translate(-30.294 -4.875)" fill="#221f1f"/>
            <rect id="Rectangle_14112" data-name="Rectangle 14112" width="5.487" height="18.44" transform="translate(65.773 8.902) rotate(-0.2)" fill="#221f1f"/>
            <path id="Path_35785" data-name="Path 35785" d="M126.3,32.377h-6V17.319l-6.636,10.975h-.638L106.27,17.447v14.93H100.4V6.6h5.87l7.019,11.485L120.307,6.6h5.87Z" transform="translate(-24.855 -5.069)" fill="#221f1f"/>
            <path id="Path_35786" data-name="Path 35786" d="M122.6,21.754a9.826,9.826,0,1,1,9.826,9.7,9.7,9.7,0,0,1-9.826-9.7Zm14.037-.128a4.339,4.339,0,1,0-8.55,0,4.339,4.339,0,1,0,8.55,0Z" transform="translate(-18.725 -3.633)" fill="#221f1f"/>
            <path id="Path_35787" data-name="Path 35787" d="M157.438,19.622V30.98h-5.615V20.516a3.063,3.063,0,0,0-3.19-3.445,3.445,3.445,0,0,0-3.445,3.828V30.98H139.7V12.859l5.487-1.659v3.063a6.508,6.508,0,0,1,5.232-2.169C154.248,11.966,157.438,14.645,157.438,19.622Z" transform="translate(-14.004 -3.799)" fill="#221f1f"/>
            <path id="Path_35788" data-name="Path 35788" d="M167.613,32.581l-6-8.167v8.167H156V7.059L161.487,5.4V22.245l5.615-8.167h6.381l-6.636,9.188,6.891,9.188Z" transform="translate(-9.503 -5.4)" fill="#221f1f"/>
          </g>
          <path id="Path_35789" data-name="Path 35789" d="M92.4,8.232a3.319,3.319,0,1,1,3.318,3.19A3.19,3.19,0,0,1,92.4,8.232Z" transform="translate(-27.064 -4.85)" fill="#ed4525"/>
        </g>
        <g id="Group_33484" data-name="Group 33484">
          <path id="Path_35790" data-name="Path 35790" d="M29.853,10.635v.638l-.638,16.589A6.763,6.763,0,0,1,23.6,34.371l2.425,4.211a9.06,9.06,0,0,0,7.784-8.55l.766-21.694V7.7Z" transform="translate(6.539 2.126)" fill="#221f1f"/>
          <path id="Path_35791" data-name="Path 35791" d="M29.483,36.624l-15.313.893a6.763,6.763,0,0,1-7.146-6.253L5.62,12.889a6.636,6.636,0,0,1,7.019-7.4l17.355.766a6.891,6.891,0,0,1,6.381,6.508L41.1,9.826a8.805,8.805,0,0,0-8.55-8.678L9.448,0H8.682A9.06,9.06,0,0,0,0,9.7L1.919,33.689a8.933,8.933,0,0,0,9.443,8.295l20.545-1.276h.638L30.121,36.5Z" transform="translate(0.018)" fill="#ec5a2a"/>
          <g id="Group_33483" data-name="Group 33483" transform="translate(14.698 11.23)">
            <circle id="Ellipse_264" data-name="Ellipse 264" cx="2.425" cy="2.425" r="2.425" fill="#ec5a2a"/>
            <circle id="Ellipse_265" data-name="Ellipse 265" cx="2.425" cy="2.425" r="2.425" transform="translate(8.422)" fill="#ec5a2a"/>
            <circle id="Ellipse_266" data-name="Ellipse 266" cx="2.425" cy="2.425" r="2.425" transform="translate(0 7.529)" fill="#ec5a2a"/>
            <circle id="Ellipse_267" data-name="Ellipse 267" cx="2.425" cy="2.425" r="2.425" transform="translate(8.422 7.529)" fill="#ec5a2a"/>
            <circle id="Ellipse_268" data-name="Ellipse 268" cx="2.425" cy="2.425" r="2.425" transform="translate(0 15.058)" fill="#ec5a2a"/>
            <circle id="Ellipse_269" data-name="Ellipse 269" cx="2.425" cy="2.425" r="2.425" transform="translate(8.422 15.058)" fill="#ec5a2a"/>
          </g>
        </g>
      </g>
    </g>
  </g>
</svg>
