<svg xmlns="http://www.w3.org/2000/svg" width="230" height="51.807" viewBox="0 0 230 51.807">
  <g id="livechat-vector-logo" transform="translate(126 -212.35)">
    <path id="Path_35792" data-name="Path 35792" d="M-74.6,244.608A12.189,12.189,0,0,1-86.9,255.763h-6.9l-12.765,8.4v-8.4l13-8.4h6.9a3.824,3.824,0,0,0,3.795-3.45,156.553,156.553,0,0,0,0-19.435,3.557,3.557,0,0,0-3.45-3.22,217.352,217.352,0,0,0-27.37,0,3.545,3.545,0,0,0-3.45,3.335,135.413,135.413,0,0,0,0,19.32,3.824,3.824,0,0,0,3.8,3.45h6.9v8.4h-6.9a12.189,12.189,0,0,1-12.305-11.155,155.431,155.431,0,0,1,0-20.7,12.044,12.044,0,0,1,11.155-11.04,199.9,199.9,0,0,1,28.75,0,12.129,12.129,0,0,1,11.04,11.04,155.43,155.43,0,0,1,.115,20.7Zm0,0" transform="translate(0 0)" fill="#ff5100"/>
    <path id="Path_35793" data-name="Path 35793" d="M42.6,256.415H62.955V251.47H48.81V225.71H42.6v30.705Zm23.23,0h5.98V233.76H65.83v22.655Zm-.46-28.75c.23,4.6,7.13,4.255,6.9-.345s-7.13-4.255-6.9.345Zm29.9,5.98H89.29l-4.945,16.79-4.83-16.79H73.42l7.7,22.885h6.21l7.82-22.885Zm10.695,23.345c5.06,0,9.2-2.99,9.89-7.13H110.68c-.575,1.61-2.185,2.875-4.715,2.875-3.45,0-4.83-2.3-4.83-5.06v-.46h14.95V243.3c0-5.52-3.45-10.12-10.235-10.12s-10.465,4.485-10.465,10.7v3.1c0,6.325,4.14,10.12,10.58,10.12Zm-4.83-14.26c0-3.105,1.265-5.4,4.715-5.4,3.22,0,4.715,2.185,4.715,5.06v.575h-9.43v-.23ZM132.07,257.1c7.7,0,12.42-5.29,12.765-11.5h-5.75c-.345,3.45-2.53,6.44-7.13,6.44-5.175,0-7.36-3.45-7.36-8.4v-5.06c0-4.945,2.3-8.395,7.36-8.395,4.6,0,6.785,2.99,7.13,6.44h5.75c-.345-6.21-5.06-11.5-12.88-11.5-9.2,0-13.455,5.865-13.455,13.8v4.37c0,7.935,4.14,13.8,13.455,13.8Zm16.1-.69h5.865v-13.34c0-3.1,1.725-4.6,4.485-4.6,2.875,0,4.14,1.84,4.14,4.485v13.455h5.98v-14.49c0-5.4-3.1-8.855-8.05-8.855a7.587,7.587,0,0,0-6.555,3.335v-11.96H148.17Zm31.855.575c2.645,0,5.52-1.15,6.555-2.645v2.185h5.75V241.925c0-5.29-3.795-8.855-9.545-8.855-4.945,0-8.51,2.415-9.775,6.9h5.52a3.951,3.951,0,0,1,3.91-2.185c2.53,0,4.025,1.61,4.025,3.68v3.105a9.324,9.324,0,0,0-5.865-1.955c-5.52,0-9.2,2.3-9.2,7.245,0,4.6,3.45,7.13,8.625,7.13Zm1.61-3.91c-2.53,0-4.485-1.15-4.485-3.45,0-1.955,1.84-3.105,4.6-3.105,2.645,0,4.6,1.15,4.6,3.22s-2.185,3.335-4.715,3.335Zm21.965,3.335h4.14v-4.6h-2.415c-1.61,0-2.3-.69-2.3-2.185V238.59h4.945v-4.83h-4.83v-6.325h-5.98v6.21h-3.22v4.83h3.22v11.5c0,4.025,2.07,6.555,6.44,6.555Zm0,0" transform="translate(-103.97 -7.207)" fill="#1b1b20"/>
  </g>
</svg>
