<svg xmlns="http://www.w3.org/2000/svg" width="245.144" height="50" viewBox="0 0 245.144 50">
  <g id="Group_32640" data-name="Group 32640" transform="translate(-8669.045 -4587)">
    <path id="Path_35802" data-name="Path 35802" d="M28.488,4A7.808,7.808,0,0,1,28.66,5.72a8.022,8.022,0,0,1-2.668,6.626c-.43.43-.861.861-1.377,1.291,6.8,4.217,10.413,13.511,6.454,19.965-5.422,8.692-15.921,6.712-21.772.775-6.024-6.282-5.249-14.372-.861-20.4A25.31,25.31,0,0,1,28.488,4Z" transform="translate(8668.314 4586.471)" fill="#fff"/>
    <path id="Path_35803" data-name="Path 35803" d="M11.366,38.979C5.514,37.086,1.3,31.406.351,25.468-2.489,8.945,14.98-5.943,32.536,2.319c.172,3.7-1.549,9.036-6.282,10.585C49.747,27.706,29.7,57.912,5.17,48.015.695,45.692,3.1,41.561,7.838,43.971c5.336,1.807,12.306,1.807,16.7-.6A19.537,19.537,0,0,0,31.675,37,19.948,19.948,0,0,0,33.4,33.9c.344-.861,1.549-4.475.6-4.905-.258-.086-.344.172-.43.43A15.18,15.18,0,0,1,30.212,35.8,16.652,16.652,0,0,1,22.984,40.7c-3.528,1.291-7.573,1.463-13.167.258a19.838,19.838,0,0,0,1.549-1.979ZM27.545,3.868s.086.688.172,1.635a7.977,7.977,0,0,1-2.582,6.454c-.43.43-.861.775-1.377,1.2,6.626,4.131,10.069,13.081,6.2,19.363-5.163,8.434-15.4,6.54-21.084.775-5.852-6.11-5.077-13.941-.861-19.707A24.206,24.206,0,0,1,27.545,3.868Z" transform="translate(8669 4587.033)" fill="#99ad68"/>
    <path id="Path_35804" data-name="Path 35804" d="M8.783,24.356C10.074,11.792,24.532,9.3,29.867,26.077,34.256,43.289,6.8,39.588,8.783,24.356Zm11.79,8.261c11.446.43,5.938-11.273-1.549-13.855C11.623,16.267,7.493,32.618,20.573,32.618Z" transform="translate(8667.796 4585.047)" fill="#292929"/>
    <path id="Path_35805" data-name="Path 35805" d="M78.93,20.245c.172,5.422-5.852,4.991-6.024-.172a2.637,2.637,0,0,1,3.012-2.84,3.365,3.365,0,0,1,1.893.861A2.573,2.573,0,0,1,78.93,20.245ZM118.86,43.05c-2.926,3.528-7.057,6.8-11.7,5.508-2.668-.947-4.389-3.442-5.249-6.54a19.6,19.6,0,0,1-.172-9.208c1.033-4.647,3.959-8.52,7.4-8.52,6.368.6,9.638,7.487,6.368,12.306-1.807,2.668-5.594,4.045-7.4,4.905-.688.344-1.2.43-1.119,1.807.258,3.1,5.68,3.1,9.122-3.787.344-.6,2.5-3.356,3.873-2.582C122.905,38.575,119.2,42.619,118.86,43.05Zm-13.425-4.3c3.873-1.2,6.971-4.389,7.229-6.2.516-3.356-4.733-6.2-6.626-.775-.516,1.463-.6,4.475-.6,6.971ZM174.97,49.074C186.5,47.094,190.976,28.936,176.6,22.74,161.717,17.835,160.942,52.086,174.97,49.074Zm-5.249-14.63c1.377-14.285,10.671-7.659,11.876,1.635S167.741,50.881,169.72,34.444Zm-25.989-4.3c-.258,2.926,4.045,17.814.947,18.072-1.807.172-3.012.344-3.442-.688-.43-.947,1.377-8.606-.172-6.282-.344.516-.258.6-.861,1.549-5.163,9.208-12.134,6.8-16.179-.688a31.138,31.138,0,0,1-3.1-17.47c1.119-10.671,5.68-24.7,16.437-22.375,8.434,1.807,2.668,13.167-.344,10.241-6.971-15.318-20.912,21.686-5.508,30.636,4.475,2.582,8.261-5.852,7.315-9.552-.6-2.582-.775-2.668-2.065-2.324-1.033.344-4.475,3.27-5.422,2.324-1.2-1.119-1.893-5.508.516-5.68,2.754-.172,4.389.775,7.659-3.27,3.012-3.614,5.422-2.582,4.905,1.377a31.48,31.48,0,0,1-.688,4.131Zm77.537,14.113c1.2-4.131,2.668-10.757,1.721-13.253-1.377-3.7-6.54-5.077-9.122-1.291-1.549,2.324-1.635,10.671.43,15.576.516,1.2-.43,2.754-1.893,3.27-5.68,1.893-1.291-13.769-4.561-18.846-.688-1.119-1.549-1.2-1.721-1.979-.344-2.84,3.1-4.733,4.647-2.926.43.516.172,1.291.775,1.635,6.368-5.766,15.748-1.463,16.351,6.885a34.485,34.485,0,0,1-2.237,12.65,8.219,8.219,0,0,1-1.549,2.582,2.025,2.025,0,0,1-2.668.086c-1.119-.775-.6-3.1-.172-4.389ZM63.44,10.176c-3.787-6.282-12.134-2.668-10.327,4.561C55.436,24.375,67.226,26.7,71.529,35.3c2.41,4.733.861,9.466-2.754,11.532-3.7,2.151-10.069,3.012-13.941.086-1.979-1.463-1.807-2.5-2.84.172-.344.861-.861,1.807-1.979.861-1.721-1.463-1.635-5.938,1.2-7.917,1.807-.947,3.012-.43,4.733,1.2,4.045,3.356,9.208,2.324,10.585-.43.861-1.807,0-4.561-1.721-6.54-2.5-2.84-6.454-5.249-9.724-9.036-4.3-4.991-7.573-10.585-5.422-16.093C51.564,4.324,56.9-.065,63.182,3.119c3.7,1.893,7.315,6.2,5.249,10.413-1.463,2.926-5.852,3.873-7.917.861-1.2-1.635,3.959-2.5,2.926-4.217Zm182.1,15.662c.516-4.647-1.377-17.986-4.819-18.33-.947-.086-1.119-2.41-.516-3.787s2.151-1.807,4.647-.775c4.045,1.721,4.3,17.039,4.389,21.686.086,4.475-.172,9.983.516,14.2a16.19,16.19,0,0,0,1.119,3.873c.775,1.721,1.463,2.84.947,3.787-1.033,2.065-4.131,2.84-5.163,1.893-.775-.688-1.033-1.979-1.2-3.528-6.024,9.724-15.49,2.065-16.867-7.229-1.291-9.122,6.8-19.535,16.953-11.79Zm-9.38,17.9c7.573,5.594,9.983-8.778,6.2-14.113C237.705,23,226.087,35.649,236.156,43.738Z" transform="translate(8662.192 4586.749)" fill="#292929"/>
    <path id="Path_35806" data-name="Path 35806" d="M167.754,28.553a13.507,13.507,0,0,0-8.778-2.582c-4.733.516-9.036,3.7-8.606,8.692.172,2.151.43,11.187,1.2,14.974a3.524,3.524,0,0,0,2.237,2.84,2.646,2.646,0,0,0,3.27-1.377c.775-1.807-.086-3.528-.516-5.077a68.944,68.944,0,0,1-1.549-10.241c-.516-5.594,7.831-6.368,9.81-3.1-1.377,2.237.6,3.614,3.184,1.635,2.324-1.893,1.377-4.475-.258-5.766Zm27.71,4.217c-1.807,4.131-1.119,20.912,7.229,12.995,1.807-1.721,2.065-7.229,1.377-12.048a55.509,55.509,0,0,0-1.377-5.422,3.263,3.263,0,0,1,2.237-3.614,2.618,2.618,0,0,1,3.184,1.635c.861,2.151.258,5.68.172,7.057-.258,4.3-.947,9.552.516,12.306.6,1.2,1.463,1.291,1.549,2.151.086,3.184-3.528,5.163-4.905,3.184-.344-.516-.086-1.377-.6-1.807-6.8,6.368-14.372,1.377-14.2-7.745,0-1.979-.258-5.249.43-8.089.516-2.151.861-4.3,1.979-5.508,1.463-1.119,2.151-.43,2.668-.086,1.033,1.033.258,3.528-.258,4.991Zm-117.382,2.5c-.086.086-.172.086-.258.172-2.582,1.463-1.807-1.463-.43-3.184s2.582-2.41,3.614-2.237A2.137,2.137,0,0,1,82.9,31.565c.688,3.356-3.1,12.822.947,15.318a1.739,1.739,0,0,0,2.324-.344c.775-.861.861-2.324,1.807-2.582.43-.086.775.086.947,1.2.258,3.356-1.2,8.261-5.852,6.54-4.131-1.893-3.959-9.724-3.959-14.027,0-.43-.172-3.012-1.033-2.41Z" transform="translate(8658.393 4583.604)" fill="#292929"/>
    <path id="Path_35807" data-name="Path 35807" d="M21.125,33.313c11.446.43,5.938-11.273-1.549-13.855C12.175,16.962,8.045,33.313,21.125,33.313Z" transform="translate(8667.244 4584.351)" fill="#d8eac1"/>
    <path id="Path_35808" data-name="Path 35808" d="M108.256,26.886a1.938,1.938,0,0,0-1.979-1.377c-2.237.172-2.668.086-4.819.258-2.151.086-3.873.258-5.422.258.258-2.582.6-5.163.861-7.745.775-7.487.861-12.134.086-13.855A2.149,2.149,0,0,0,94.315,2.79c-1.893.344-2.41,3.7-2.582,9.9a132.3,132.3,0,0,0,.688,13.941c-.43.086-1.893.516-2.754.775a15.369,15.369,0,0,0-2.237.861c-.344.172-.43.516-.43,1.033a4.6,4.6,0,0,0,.43,1.721c.775,1.721,1.893,4.389,3.442,7.917s2.582,5.938,3.184,7.229c.947,2.237,2.151,3.27,3.7,3.184a3.915,3.915,0,0,0,2.151-.516c.258-.258.086-1.033-.344-2.151A38.3,38.3,0,0,1,96.9,37.471a56.291,56.291,0,0,1-.344-7.229c4.561-.861,7.917-.775,10.671-1.549l.172-.086c1.033-.688.43-.344.861-.688A1.38,1.38,0,0,0,108.256,26.886ZM94.4,41.773l-.172.172h-.258s-.086-.172-.43-.775-1.549-4.3-1.635-4.389-1.119-3.528-1.291-3.873a1.171,1.171,0,0,1,0-.6,3.814,3.814,0,0,1,.43-.516,4.664,4.664,0,0,1,1.377-.516h.258l.172.258.086.775.344,1.807.947,5.336.344,1.979-.172.344Z" transform="translate(8656.876 4586.648)" fill="#292929"/>
  </g>
</svg>
