<svg xmlns="http://www.w3.org/2000/svg" width="199.755" height="63.197" viewBox="0 0 199.755 63.197">
  <g id="Group_32639" data-name="Group 32639" transform="translate(-8802 -3994)">
    <path id="XMLID_62_" d="M396.147,250.685a8.207,8.207,0,0,0-5.4-5.02,11.627,11.627,0,0,0-5.775-.054,8.325,8.325,0,0,0-5.505,4.642,8.89,8.89,0,0,0,.54,8.15,8.153,8.153,0,0,0,4.966,3.67,12.786,12.786,0,0,0,4.75.108,8.326,8.326,0,0,0,6.585-5.721A9.177,9.177,0,0,0,396.147,250.685Zm-6.8,3.94a7.517,7.517,0,0,1-.54,2.7,1.374,1.374,0,0,1-2.321-.27,10.666,10.666,0,0,1-.378-3.94c.054-1.025.054-2.213.864-2.969a1.358,1.358,0,0,1,2,.594A11.625,11.625,0,0,1,389.347,254.625Z" transform="translate(8592.613 3777.624)" fill="#f68b51"/>
    <path id="XMLID_58_" d="M339.931,255.1c-.054-2.051.216-4.156-.27-6.207A5.5,5.5,0,0,0,335.4,245.6a14.268,14.268,0,0,0-8.366.594,6.2,6.2,0,0,0-3.616,4.75c2,.216,3.994.378,5.937.54-1.943.486-4.1,1.133-5.343,2.861a5,5,0,0,0,2.159,7.5,7.446,7.446,0,0,0,7.448-1.241,11.052,11.052,0,0,0,.27,1.3h6.693C339.661,259.8,340.039,257.367,339.931,255.1Zm-9.5-4.966a3.029,3.029,0,0,1,2.645-.054c.054.324.162.648.216.972-1.187.108-2.375.27-3.508.378C329.946,250.944,330,250.4,330.432,250.135Zm2.321,7.125a1.958,1.958,0,0,1-2.321.27,1.417,1.417,0,0,1,.27-1.889,5.824,5.824,0,0,1,2.645-.972C333.239,255.586,333.346,256.558,332.753,257.259Z" transform="translate(8618.227 3777.634)" fill="#f68b51"/>
    <path id="XMLID_54_" d="M242.346,251.36a5.965,5.965,0,0,1-1.673-.486,33.235,33.235,0,0,0,5.074-.864,6.584,6.584,0,0,0-2.969-3.724,11.326,11.326,0,0,0-7.179-.864,6.869,6.869,0,0,0-4.588,2.969,5.181,5.181,0,0,0,.324,5.559,5.565,5.565,0,0,0,3.724,2c-1.835.378-3.724.54-5.559.81a6.892,6.892,0,0,0,1.727,3.13,8.515,8.515,0,0,0,6.423,2.267,10.851,10.851,0,0,0,6.369-1.511,5.157,5.157,0,0,0-1.673-9.284Zm-6.153,6.1a2.174,2.174,0,0,1-1.133-1.349c1.349.27,2.7.432,4.048.7a1.9,1.9,0,0,1,1.026.54A5,5,0,0,1,236.193,257.459Zm.054-7.286a2.75,2.75,0,0,1,4.048.7A12.5,12.5,0,0,1,236.247,250.172Z" transform="translate(8661.298 3777.651)" fill="#f68b51"/>
    <path id="XMLID_51_" d="M213.906,252.383a8.11,8.11,0,0,0-5.235-6.477,11.128,11.128,0,0,0-6.369-.216,8.446,8.446,0,0,0-5.505,4.642,9.374,9.374,0,0,0-.432,5.829,8.322,8.322,0,0,0,6.531,6.045,11.321,11.321,0,0,0,5.991-.54,8.322,8.322,0,0,0,4.8-5.343A10.792,10.792,0,0,0,213.906,252.383Zm-7.61,4.534a1.325,1.325,0,0,1-2.375.27,8.367,8.367,0,0,1-.486-3.832c.054-1.079.054-2.375.864-3.184a1.391,1.391,0,0,1,2.1.756A12.5,12.5,0,0,1,206.3,256.917Z" transform="translate(8676.676 3777.599)" fill="#f68b51"/>
    <path id="XMLID_17_" d="M287.016,237.618A10.386,10.386,0,0,1,294.3,235.3a9.922,9.922,0,0,1,5.505,1.727,9.355,9.355,0,0,1,3.508,6.315c-2.321.27-4.7.486-7.017.7a4.835,4.835,0,0,0-.918-2.537,2.184,2.184,0,0,0-3.454.27c-1.025,1.781-.972,3.94-.918,5.937.162,1.349.27,2.969,1.511,3.724a2.564,2.564,0,0,0,3.94-1.3c-1.133-.054-2.321,0-3.454,0v-5.289h10.2v12.522h-3.832c-.216-.594-.378-1.187-.594-1.781a7.4,7.4,0,0,1-5.775,2.159,8.938,8.938,0,0,1-6.855-2.861,11.891,11.891,0,0,1-2.7-9.122,12.561,12.561,0,0,1,3.562-8.15Z" transform="translate(8636.49 3782.217)" fill="#f68b51"/>
    <path id="XMLID_16_" d="M158.408,235.9q3.562.081,7.125,0c.108,2.591.054,5.181,0,7.772,1.349.054,2.753,0,4.1,0V235.9h7.232v21.7h-7.286c.054-2.7,0-5.4,0-8.1h-4.1v8.1H158.3c.108-7.179.054-14.465.108-21.7Z" transform="translate(8694.068 3781.938)" fill="#f68b51"/>
    <path id="XMLID_15_" d="M262.629,236.508c2.159-.108,4.372-.108,6.531-.108.054,1.727-.054,3.508.054,5.235h3.023v4.7h-3.023a48.317,48.317,0,0,0,.108,6.261c.81.648,2,.162,2.915-.054v5.182c-2.429.432-5.074.81-7.394-.27a4.493,4.493,0,0,1-2.375-4.156c-.054-2.321,0-4.642,0-6.963-.756-.054-1.511-.054-2.267-.054v-4.7h2.267c.108-1.727,0-3.4.162-5.074Z" transform="translate(8647.168 3781.708)" fill="#f68b51"/>
    <path id="XMLID_14_" d="M357.929,236.462c2.213-.162,4.372-.108,6.585-.162v5.235h3.13v4.7h-3.13v5.235a3.2,3.2,0,0,0,.27,1.241,7.29,7.29,0,0,0,2.861-.27v5.182c-2.375.432-4.966.756-7.286-.162a4.5,4.5,0,0,1-2.483-4.264c-.054-2.321,0-4.642,0-7.017H355.5v-4.7h2.321c.108-1.673.108-3.346.108-5.02Z" transform="translate(8603.305 3781.753)" fill="#f68b51"/>
    <path id="XMLID_13_" d="M287.8,239.686a8.114,8.114,0,0,1,5.559-2.645,10.523,10.523,0,0,1,6.261,1.133,7.7,7.7,0,0,1,3.508,5.289c-1.781.216-3.562.378-5.343.54a4.135,4.135,0,0,0-1.835-2.915,3.144,3.144,0,0,0-3.724.81,7.414,7.414,0,0,0-1.187,4.1c0,1.943-.216,4.048.756,5.829a3.6,3.6,0,0,0,5.343.972,3.081,3.081,0,0,0,1.025-2.645H294.65v-3.67h8.636v10.9a9.076,9.076,0,0,1-2.429-.108,13.9,13.9,0,0,0-1.079-2.429,6.584,6.584,0,0,1-5.4,2.861,8.25,8.25,0,0,1-6.477-2.375,9.615,9.615,0,0,1-2.7-6.261,11.9,11.9,0,0,1,2.591-9.391Z" transform="translate(8635.711 3781.444)" fill="#f68b51"/>
    <path id="XMLID_12_" d="M159.9,237.5h5.613v7.664h5.721V237.5H176.9v20.132c-1.889,0-3.778.054-5.667-.054.054-2.7,0-5.4,0-8.1h-5.721v8.1H159.9V237.5Z" transform="translate(8693.332 3781.201)" fill="#f68b51"/>
    <path id="XMLID_11_" d="M264.121,237.908c1.673,0,3.292,0,4.966-.108v5.181c1.025.054,2.1.054,3.13.054v3.077h-3.13c-.054,2,0,4.048,0,6.045.054.648,0,1.457.594,1.835a4.052,4.052,0,0,0,2.537.216v3.508c-2.051.216-4.264.54-6.207-.324a3.854,3.854,0,0,1-1.943-3.67v-7.556c-.756,0-1.511-.054-2.267-.054v-3.077c.756,0,1.511,0,2.267-.054,0-1.673,0-3.4.054-5.074Z" transform="translate(8646.432 3781.063)" fill="#f68b51"/>
    <path id="XMLID_10_" d="M359.421,237.954c1.673,0,3.4,0,5.074-.054v5.235h3.076v3.077h-3.076V252.8a1.376,1.376,0,0,0,.81,1.457,5.333,5.333,0,0,0,2.267.054c0,1.187,0,2.321-.054,3.508-2.051.216-4.264.54-6.153-.324a3.792,3.792,0,0,1-1.943-3.4c-.054-2.591,0-5.235,0-7.826H357.1v-3.077h2.321c0-1.835.054-3.562,0-5.235Z" transform="translate(8602.568 3781.017)" fill="#f68b51"/>
    <path id="XMLID_9_" d="M420.829,247.146a4.914,4.914,0,0,1,4.966-1.727q.081,3.157,0,6.315a4.189,4.189,0,0,0-3.13.162,3.054,3.054,0,0,0-1.079,2.483v7.61H415v-16.3h5.829v1.457Z" transform="translate(8575.92 3777.6)" fill="#f68b51"/>
    <path id="XMLID_40_" d="M233.289,248.642c2.1-1.943,5.235-2.051,7.934-1.619a5.922,5.922,0,0,1,4.264,3.13c-1.241.216-2.537.486-3.778.7a4,4,0,0,0-4.48-1.079c-.486.162-1.025.648-.864,1.241.108.7.864.972,1.457,1.025a43.217,43.217,0,0,1,5.289.864,4.361,4.361,0,0,1,1.565,7.61,9.062,9.062,0,0,1-5.991,1.673,8.123,8.123,0,0,1-5.667-1.673,6.056,6.056,0,0,1-1.619-2.267c1.3-.162,2.645-.378,3.94-.486.756,1.457,2.645,1.673,4.1,1.619.81-.054,1.889-.108,2.213-.972.27-.81-.486-1.457-1.241-1.565-2.321-.486-4.75-.54-6.855-1.727a4.413,4.413,0,0,1-.27-6.477Z" transform="translate(8660.424 3776.914)" fill="#f68b51"/>
    <path id="XMLID_7_" d="M423.1,247.34a4.721,4.721,0,0,1,2.429-.54c0,1.511.054,3.077-.054,4.588a3.667,3.667,0,0,0-3.292.918,3.458,3.458,0,0,0-.81,2.483v7.071H416.3V247.124h4.318v2.807a4.236,4.236,0,0,1,.756.108,4.543,4.543,0,0,1,1.727-2.7Z" transform="translate(8575.321 3776.921)" fill="#f68b51"/>
    <path id="XMLID_36_" d="M213.754,253.557a7.229,7.229,0,0,0-4.048-5.883,9.852,9.852,0,0,0-6.1-.648,7.538,7.538,0,0,0-5.829,9.5,7.652,7.652,0,0,0,4.7,5.182,11,11,0,0,0,4.966.378,7.653,7.653,0,0,0,5.883-4.642A8.661,8.661,0,0,0,213.754,253.557Zm-5.667,2.267a6.35,6.35,0,0,1-.7,2.807,2.176,2.176,0,0,1-3.67-.594,13.166,13.166,0,0,1-.324-5.235c.108-1.187.54-2.645,1.835-2.915a2.1,2.1,0,0,1,2.537,1.4A12.713,12.713,0,0,1,208.087,255.824Z" transform="translate(8676.019 3776.911)" fill="#f68b51"/>
    <path id="XMLID_33_" d="M396.377,252.532a7.435,7.435,0,0,0-4.966-5.289,10.385,10.385,0,0,0-5.451-.108,7.854,7.854,0,0,0-3.994,2.537,7.734,7.734,0,0,0-1.079,7.826,7.651,7.651,0,0,0,4.426,4.264c3.4,1.079,7.718.378,9.823-2.7A8.255,8.255,0,0,0,396.377,252.532Zm-5.991,5.559a2.2,2.2,0,0,1-3.023,1.025,2.761,2.761,0,0,1-1.241-2.213,16.983,16.983,0,0,1,.108-4.966,2.307,2.307,0,0,1,1.727-2,2.181,2.181,0,0,1,2.375.972,6.563,6.563,0,0,1,.594,2.7A14.163,14.163,0,0,1,390.386,258.091Z" transform="translate(8591.898 3776.91)" fill="#f68b51"/>
    <path id="XMLID_3_" d="M339.672,250.582a3.922,3.922,0,0,0-3.023-3.13,15.71,15.71,0,0,0-6.909-.27,5.74,5.74,0,0,0-4.7,3.886c1.565.054,3.077.324,4.642.378.594-1.619,2.645-1.943,4.1-1.4.972.432.918,1.673.972,2.537a49.925,49.925,0,0,0-4.966.648c-1.889.378-3.94,1.187-4.858,3.023a4.193,4.193,0,0,0,2.429,5.775,6.436,6.436,0,0,0,5.775-.81A18.151,18.151,0,0,0,334.976,259a28.287,28.287,0,0,0,.108,3.023c1.619.054,3.292,0,4.912.054C339.348,258.192,340.05,254.36,339.672,250.582Zm-5.451,7.772a2.834,2.834,0,0,1-3.454.756,2.088,2.088,0,0,1-.054-3.238,7.216,7.216,0,0,1,4.048-1.3A7.434,7.434,0,0,1,334.221,258.354Z" transform="translate(8617.567 3776.863)" fill="#f68b51"/>
    <path id="XMLID_115_" d="M64.991,233.06a6.1,6.1,0,0,1,4.426-4.264,8.32,8.32,0,0,0-.162-2,.881.881,0,0,1,.972-.972,3.159,3.159,0,0,1,1.457.756,6.806,6.806,0,0,1,1.835,1.889c.108.216.432.162.648.216a16.345,16.345,0,0,0,.324-1.727.927.927,0,0,1,1.079-.648c.378.054.594.378.81.648a15.8,15.8,0,0,1,1.889,3.023c.108.27.432.378.648.486.594-.756.108-1.889.918-2.591a23.043,23.043,0,0,1-3.077-3.4A3.159,3.159,0,0,1,76,223.021a1.838,1.838,0,0,1,.432-1.241c.864-1.3,1.673-2.645,2.591-3.886-.216-.216-.486-.432-.486-.7a1.869,1.869,0,0,1,.486-1.4,8.739,8.739,0,0,1,2.537-2.537c-.756-.594-1.943-.378-2.7-1.079a1.24,1.24,0,0,1-.324-1.4,4.013,4.013,0,0,1,.7-1.133,15.279,15.279,0,0,1,3.13-2.753,4.231,4.231,0,0,0-1.4-1.187c-.54-.27-1.187-.54-1.3-1.187-.162-.7.432-1.187.864-1.619a31.333,31.333,0,0,1,4.8-3.023,5.622,5.622,0,0,0,.972-.54c.7-2.051,1.187-4.21,2.537-5.937h0a3.572,3.572,0,0,1,3.292-1.619,4.808,4.808,0,0,1,3.292,2.753,17.842,17.842,0,0,1,4.048,1.349,2.539,2.539,0,0,1,1.673-.864,2.1,2.1,0,0,1,1.727,1.187,9.541,9.541,0,0,1,1.025,3.4,14.771,14.771,0,0,1,.108,3.778,5.119,5.119,0,0,1,2.213,1.3,4.06,4.06,0,0,1,2.645-.162,2.835,2.835,0,0,1,1.781,1.889,4.17,4.17,0,0,1-1.3,4.372,5.03,5.03,0,0,1-.918,2.645.87.87,0,0,1-1.349.108c-.432-.594-.216-1.4-.594-2.051-.918.108-1.781.162-2.7.27.81.972,2.1,1.241,3.077,2a3.632,3.632,0,0,1,1.133,4.588c.972.972,1.889,2.051,2.807,3.076a1.6,1.6,0,0,1,.378,1.673,24.072,24.072,0,0,1-5.559,7.61,6.373,6.373,0,0,1,.27,3.023,4.475,4.475,0,0,1-1.241,2.267c-.162.216-.486.216-.756.324a6.961,6.961,0,0,1-1.835,0c-.378.972-.756,1.889-1.187,2.861-.054,2.861-.432,5.829.594,8.528a5.761,5.761,0,0,1,2.1,2,4.915,4.915,0,0,1,.378,2.483c-1.727,1.133-3.94,1.025-5.883.648a4.341,4.341,0,0,1-2.645-1.241,3.738,3.738,0,0,1-.81-2.915c.054-1.079.108-2.213.054-3.292a11.539,11.539,0,0,1-5.829,1.3,10.152,10.152,0,0,0,.054,3.13,4.622,4.622,0,0,1,.054,2.267,3.828,3.828,0,0,1-1.781,1.673,8.143,8.143,0,0,1-5.02,1.133,2.2,2.2,0,0,1-1.781-1.619,4.3,4.3,0,0,1,2.267-5.02,11.373,11.373,0,0,0,.486-3.778c-3.292-2.7-5.613-6.369-8.744-9.23a7.681,7.681,0,0,0-5.235-2.429c-1.187,0-2.1.81-3.13,1.349a1.038,1.038,0,0,1-1.025-1.079" transform="translate(8737.021 3802.265)" fill="#063054"/>
    <path id="XMLID_114_" d="M107.613,195.081a3.114,3.114,0,0,1,2.375-1.781,16.849,16.849,0,0,0-2.429,7.988,7.3,7.3,0,0,0-2.159.162,26.2,26.2,0,0,1,2.213-6.369Z" transform="translate(8718.417 3801.545)" fill="#229ad0"/>
    <path id="XMLID_113_" d="M111.875,193.2c1.619.162,2.753,1.457,3.616,2.7.594.81.972,1.727,1.511,2.591a6.643,6.643,0,0,0-.756-2.483,14,14,0,0,1,2.591.648,8.22,8.22,0,0,1,1.835,1.187c0-.27-.054-.594-.054-.864a1.367,1.367,0,0,1,1.457-.432,3,3,0,0,1,1.187,1.511,10.352,10.352,0,0,1,.54,4.8,1.085,1.085,0,0,1-.432-.216c0-1.3-.486-2.537-.27-3.832.054-.27.162-.7-.216-.81-.162-.108-.378.054-.54.162a7.1,7.1,0,0,0-2.321,3.724,9.409,9.409,0,0,0-4.048.486,22.77,22.77,0,0,0-1.889-4.21,4.113,4.113,0,0,0-3.13-2.267c-.054.432.378.594.594.756A15.777,15.777,0,0,1,110.2,201.3c-.216-.054-.486-.108-.7-.162a16.176,16.176,0,0,1,2.375-7.934Z" transform="translate(8716.529 3801.591)" fill="#2658a8"/>
    <path id="XMLID_112_" d="M111.7,204.688A14.906,14.906,0,0,0,113,200.1c1.565,1.241,2.267,3.184,3.023,4.966a22.943,22.943,0,0,0-4.318-.378Z" transform="translate(8715.517 3798.415)" fill="#fff"/>
    <path id="XMLID_111_" d="M114.161,203.052a.993.993,0,0,1,1.241.756,1.754,1.754,0,0,1-.432,1.835.888.888,0,0,1-1.349-.324,1.727,1.727,0,0,1,.54-2.267Z" transform="translate(8714.729 3797.083)" fill="#063054"/>
    <path id="XMLID_110_" d="M131.025,204.818c.27-.324.54-.648.81-.918a19.875,19.875,0,0,0,.324,3.562c-.7-.162-1.457-.324-2.159-.432.054-.162.054-.324.108-.486.216.324.594.648,1.025.432a1.287,1.287,0,0,0-.108-2.159Z" transform="translate(8707.094 3796.666)" fill="#fff"/>
    <path id="XMLID_109_" d="M98.521,208.664c.54-.27,1.079-.594,1.619-.864-.054.7-.7.972-1.079,1.457a3.594,3.594,0,0,0-.81,1.781,8.817,8.817,0,0,1-.81,2.375c-.324-.756-1.241-1.187-1.241-2.1.27-1.241,1.565-1.727,2.267-2.645Z" transform="translate(8722.651 3794.871)" fill="#2658a8"/>
    <path id="XMLID_108_" d="M101.731,210.853a3.423,3.423,0,0,1,3.616-1.511,4.031,4.031,0,0,0-2.213,1.4,4.112,4.112,0,0,0-.162,3.724,14.469,14.469,0,0,0,2.807,4.156,46.158,46.158,0,0,0,9.769,7.61l-.216.054a42.435,42.435,0,0,1-11.065-8.2,13.846,13.846,0,0,1-2.591-3.778,3.882,3.882,0,0,1,.054-3.454Z" transform="translate(8720.305 3794.193)" fill="#fff200"/>
    <path id="XMLID_107_" d="M106.66,209.4a5.527,5.527,0,0,1,3.67,2.807,9.505,9.505,0,0,0,6.423,4.372,2.707,2.707,0,0,0,1.889.972,5.888,5.888,0,0,1-.594-.324,4.7,4.7,0,0,1,.216-2.591,3.369,3.369,0,0,1,1.673-1.3c1.4.216,2.753,1.133,4.21.918-.216-.054-.432-.108-.594-.162a4.687,4.687,0,0,1,2.915-.918,3.379,3.379,0,0,1,.918,2.159c-.108-.27-.216-.594-.486-.648a.492.492,0,0,0-.648.432c0,.27.324.432.486.594a2.072,2.072,0,0,1-.594.594,4.166,4.166,0,0,0,.81-.108c.27-.108.378-.432.486-.648a3.151,3.151,0,0,1-.81,2.861,18.3,18.3,0,0,1-3.454.378,10.508,10.508,0,0,1,2.1-1.3,10.994,10.994,0,0,0-3.184,1.025,16.327,16.327,0,0,1-2.807.162,14.155,14.155,0,0,1-6.693-2.267c-.486-.27-.918-.594-1.4-.81a1.68,1.68,0,0,0,.216.324,17.068,17.068,0,0,1-3.886-3.994,1.3,1.3,0,0,1,1.241-.216,1.428,1.428,0,0,0-1.025-.648,2.5,2.5,0,0,0-2.375,1.673,2.533,2.533,0,0,0,.162,1.781c.054-.486.162-1.187.81-1.241a19.252,19.252,0,0,0,3.94,5.775,23.989,23.989,0,0,0,6.693,4.642,16.735,16.735,0,0,0,3.13,1.511,8.919,8.919,0,0,0,3.778-.054c.594-.108,1.3-.378,1.4-1.079a4.036,4.036,0,0,0-1.026-2.159,3.973,3.973,0,0,1,1.619,1.889c-.162.756-.324,1.619-1.079,2-1.026.54-2.321.432-3.292,1.079-.378.216-.432.594-.594.972a14.879,14.879,0,0,1-3.994-1.511l.216-.054a47.564,47.564,0,0,1-9.769-7.61,14.469,14.469,0,0,1-2.807-4.156,3.809,3.809,0,0,1,.162-3.724c.216-.756,1.079-1.133,1.943-1.4Z" transform="translate(8718.992 3794.135)" fill="#ffcb08"/>
    <path id="XMLID_106_" d="M94.082,211.713a19.071,19.071,0,0,1,3.238-2.213c-.7.918-2,1.4-2.267,2.645-.054.864.918,1.349,1.241,2.1l.054.216a5.953,5.953,0,0,0-1.241-1.079,10.169,10.169,0,0,1-1.3-.756c-.27-.324.054-.7.27-.918Z" transform="translate(8723.797 3794.089)" fill="#229ad0"/>
    <path id="XMLID_105_" d="M113,209.8a27.142,27.142,0,0,1,4.156.432,6.9,6.9,0,0,0-1.133.756,17.566,17.566,0,0,1,3.346-.7,8.2,8.2,0,0,1,3.778.594c.162.162.27.324.432.486-.27.054-.594.054-.864.108.324.108.648.162,1.025.27l.054.054c.594.324,1.3.7,1.511,1.349a7.208,7.208,0,0,0-2.807-.378,2.6,2.6,0,0,0-2.159,1.943,3.484,3.484,0,0,0,0,1.3c-1.349.054-2.537-.648-3.778-1.026a8.83,8.83,0,0,1-2.213-2.483c.108-.378-.108-.648-.27-.972A4.7,4.7,0,0,0,113,209.8Z" transform="translate(8714.918 3793.95)" fill="#2658a8"/>
    <path id="XMLID_104_" d="M131.578,211.6a6.211,6.211,0,0,1,1.349.648.57.57,0,0,1-.108.27,6.837,6.837,0,0,1,3.454,1.619c-.162.054-.27.216-.432.216a5.373,5.373,0,0,1-2.051-.432v-.054c-.216-.7-.918-1.025-1.511-1.349.108.054.54-.108.324-.216a.361.361,0,0,0-.378.216,9.734,9.734,0,0,1-1.025-.27,4.724,4.724,0,0,1,.864-.108c-.216-.216-.324-.378-.486-.54Z" transform="translate(8706.542 3793.122)" fill="#1a468d"/>
    <path id="XMLID_103_" d="M133,213.016a.407.407,0,0,1,.378-.216c.27.162-.216.27-.324.216Z" transform="translate(8705.713 3792.57)" fill="#09335a"/>
    <path id="XMLID_102_" d="M145.3,216.4a2.1,2.1,0,0,1,1.511.972,3.61,3.61,0,0,1,0,3.077,2.147,2.147,0,0,1-1.4,1.241,3.3,3.3,0,0,0,.81-2.861v-.216a3.4,3.4,0,0,0-.918-2.213Z" transform="translate(8700.052 3790.913)" fill="#f7941e"/>
    <path id="XMLID_101_" d="M128.656,217.317a2.5,2.5,0,0,1,2.267-.648,3.917,3.917,0,0,0-1.673,1.3,4.7,4.7,0,0,0-.216,2.591,2.264,2.264,0,0,1-.378-3.238Z" transform="translate(8707.952 3790.806)" fill="#fff200"/>
    <path id="XMLID_100_" d="M99.409,217.7a16.713,16.713,0,0,0,1.133,2.429,10.358,10.358,0,0,0-.162,4.642,6.678,6.678,0,0,0-1.781.81,17.608,17.608,0,0,1,.81-7.88Z" transform="translate(8721.602 3790.314)" fill="#229ad0"/>
    <path id="XMLID_99_" d="M144.762,219.608a.492.492,0,0,1,.648-.432c.324.054.378.432.486.648v.216c-.108.216-.216.54-.486.648a4.166,4.166,0,0,1-.81.108,2.072,2.072,0,0,0,.594-.594c-.162-.162-.486-.324-.432-.594Z" transform="translate(8700.374 3789.648)" fill="#063054"/>
    <path id="XMLID_98_" d="M131.835,219.727c.324-.216.864,0,.864.378.054.378-.27.54-.486.756,0,.378.378.594.7.756a1.648,1.648,0,0,1-1.241-.27,1.124,1.124,0,0,1,.162-1.619Z" transform="translate(8706.446 3789.421)" fill="#063054"/>
    <path id="XMLID_97_" d="M116.8,221a11.883,11.883,0,0,1,1.4.81,14.356,14.356,0,0,0,6.693,2.267c.918.054,1.889-.162,2.807-.162a7.157,7.157,0,0,1-3.616.864,11.845,11.845,0,0,1-3.508-1.241,24.956,24.956,0,0,1-3.616-2.213A1.775,1.775,0,0,0,116.8,221Z" transform="translate(8713.17 3788.796)" fill="#fff200"/>
    <path id="XMLID_96_" d="M92.765,222.727A9.787,9.787,0,0,1,94.978,221l-.162.162a15.833,15.833,0,0,0-2.213,2.807c-.216.27.108.54.27.756a10.718,10.718,0,0,1,1.133,1.079c-.648-.216-1.3-.378-1.943-.594-.324-.054-.756-.378-.594-.756a5.2,5.2,0,0,1,1.3-1.727Z" transform="translate(8724.844 3788.796)" fill="#229ad0"/>
    <path id="XMLID_95_" d="M93.558,224.107a15.833,15.833,0,0,1,2.213-2.807,20.006,20.006,0,0,0-.216,5.074c-.162-.162-.378-.27-.54-.432a7.1,7.1,0,0,0-1.133-1.079c-.216-.216-.486-.486-.324-.756Z" transform="translate(8723.89 3788.657)" fill="#2658a8"/>
    <path id="XMLID_94_" d="M85.969,222.1a21.694,21.694,0,0,0,3.292,3.724c.108.108.27.27.27.432a13.584,13.584,0,0,0,1.511,4.75,31.348,31.348,0,0,1,2.969,8.8,14.013,14.013,0,0,1-.7,7.88,10.448,10.448,0,0,1-2.483,3.454c-.162-.162-.27-.324-.432-.486a9.248,9.248,0,0,1-.432,5.4,22.914,22.914,0,0,0-.972,4.642,11.98,11.98,0,0,0,.108,3.4,2.055,2.055,0,0,1-.324,2,7.005,7.005,0,0,1-3.292,1.619,4.438,4.438,0,0,1,.054-1.889,7.14,7.14,0,0,1,.81-1.565c-1.349.7-1.727,2.267-1.835,3.67a8.114,8.114,0,0,1-1.619,0,27.6,27.6,0,0,1,.7-2.861,3.705,3.705,0,0,1,1.727-2.1,3.986,3.986,0,0,1,1.781-.27,8.893,8.893,0,0,0-1.727-.324A50.12,50.12,0,0,0,85.7,255.4a10.727,10.727,0,0,1,.756-4.318,5.459,5.459,0,0,1,1.241-1.511,3.006,3.006,0,0,0-2.051.918,4.521,4.521,0,0,0-1.349,1.835c-1.889-1.079-3.238-2.807-4.912-4.1a11.731,11.731,0,0,0-5.937-2.7,9.657,9.657,0,0,0-5.235.756,7.907,7.907,0,0,1-1.511.756,6.734,6.734,0,0,1,4.048-2.7,11.72,11.72,0,0,1,5.775.432,44.392,44.392,0,0,1,8.2,3.67c.486.378.864,1.133,1.619,1.026a7.82,7.82,0,0,0,3.076-.756,6.461,6.461,0,0,0,1.457-3.346,3.886,3.886,0,0,0-1.3-2.969h.162l-.216-.054a3.814,3.814,0,0,0-.108-1.349,35.6,35.6,0,0,0-.918-4.156c-.216.648-.432,1.3-.594,2a29.471,29.471,0,0,0-1.457-3.238,14.845,14.845,0,0,0,1.511-1.025,19.294,19.294,0,0,0,.54,1.889,17.383,17.383,0,0,0,.7-3.238,4.938,4.938,0,0,0,.648-2.645,9.226,9.226,0,0,1-3.077,3.67,11.66,11.66,0,0,1-2.753,1.565,3.677,3.677,0,0,0-2.915-.216,7.73,7.73,0,0,1,2,.486,6.67,6.67,0,0,1,2.429,2.321,21.152,21.152,0,0,0,3.13,4.1,3.864,3.864,0,0,1,1.4,1.943,4.657,4.657,0,0,1-1.187,3.508,4.613,4.613,0,0,1-2.915.486v-.108c-.162-.7-.486-1.3-.594-2a4.741,4.741,0,0,1,.054-1.511,4.747,4.747,0,0,0,.54.324,5.023,5.023,0,0,0-.054,1.565,1.919,1.919,0,0,0,.7.918,1.857,1.857,0,0,1-.27-1.4v.756a14.822,14.822,0,0,1,1.187-1.4,1.5,1.5,0,0,1,.486.054c-.216-.162-.486-.27-.7-.432a3.257,3.257,0,0,0-.432-.432,46.919,46.919,0,0,1-6.8-6.693,2.571,2.571,0,0,1-.756-2.1,17.938,17.938,0,0,1,1.241-2,43.357,43.357,0,0,1,5.343-6.855,5.361,5.361,0,0,1,1.079-.594c-.432.054-.81.108-1.241.162a10.2,10.2,0,0,1,.216-4.588Z" transform="translate(8736.229 3788.289)" fill="#2658a8"/>
    <path id="XMLID_93_" d="M113.7,223.8a18.21,18.21,0,0,1,5.559,1.835,24.217,24.217,0,0,1,3.724,2.375,13.821,13.821,0,0,0-1.079-1.4,6.612,6.612,0,0,0,1.025.108c.27.7,0,1.4.162,2.1a.782.782,0,0,0,1.241.378,4.96,4.96,0,0,0,1.457-2.159c.324.27.648.594.972.918a13.506,13.506,0,0,1,1.835,2.1.6.6,0,0,1-.324.864,6.566,6.566,0,0,1-4.75-.162c-.918-.432-1.781-.972-2.7-1.4A21.461,21.461,0,0,1,113.7,223.8Z" transform="translate(8714.596 3787.507)" fill="#f15922"/>
    <path id="XMLID_92_" d="M120.4,226.7a10.807,10.807,0,0,1,4.048,1.943,3.117,3.117,0,0,1,1.079.972,1.18,1.18,0,0,0-.162.27,2.118,2.118,0,0,1-.756-.432,25.183,25.183,0,0,0-2.753-1.943,7.705,7.705,0,0,1-1.457-.81Z" transform="translate(8711.513 3786.172)" fill="#f7941e"/>
    <path id="XMLID_91_" d="M145.132,227.262c.108-.054.324-.108.432-.162a3.642,3.642,0,0,1-.864,2.213V229.2c.108-.648.378-1.241.432-1.943Z" transform="translate(8700.328 3785.988)" fill="#229ad0"/>
    <path id="XMLID_90_" d="M143.4,227.77a8.631,8.631,0,0,0,1.133-.27,19.376,19.376,0,0,1-.432,1.889c-.054,0-.216.054-.324.054-.27-.54-.162-1.133-.378-1.673Z" transform="translate(8700.927 3785.804)" fill="#fff"/>
    <path id="XMLID_89_" d="M132.2,229.315a3.57,3.57,0,0,1,1.673-.324c-.216,0-.432.054-.594.054a9.447,9.447,0,0,1-.216,1.727h-.054a.963.963,0,0,1-.648.486c-.216-.648,0-1.349-.162-1.943Z" transform="translate(8706.082 3785.122)" fill="#fff"/>
    <path id="XMLID_88_" d="M133.97,229.054c.216,0,.432-.054.594-.054a3.258,3.258,0,0,1-.864,1.781,6.4,6.4,0,0,0,.27-1.727Z" transform="translate(8705.391 3785.113)" fill="#229ad0"/>
    <path id="XMLID_87_" d="M110.4,230.9c.432.378.864.7,1.241,1.079l.054.108c.27,1.187.972,2.267,1.349,3.4v.108l-.648.324a17.434,17.434,0,0,1-2-5.02Z" transform="translate(8716.115 3784.239)" fill="#fff200"/>
    <path id="XMLID_86_" d="M94.44,232.14a4.662,4.662,0,0,1,.864-.54,46.762,46.762,0,0,0-5.343,6.855,9.512,9.512,0,0,0-1.241,2c-.27.81.324,1.511.756,2.1a46.874,46.874,0,0,0,6.8,6.693l.432.432a16.249,16.249,0,0,1-1.889-1.025,23.4,23.4,0,0,1-7.179-6.423,2.689,2.689,0,0,1-.54-1.025,4.545,4.545,0,0,1,.594-1.133,38.664,38.664,0,0,1,4.372-5.883,21.586,21.586,0,0,1,2.375-2.051Z" transform="translate(8726.84 3783.917)" fill="#229ad0"/>
    <path id="XMLID_85_" d="M91.934,234.691a6.974,6.974,0,0,1,2.861-2.591c.054.54-.378.756-.7,1.079a26.483,26.483,0,0,0-2.321,2.591c-.324-.324-.054-.756.162-1.079Z" transform="translate(8724.758 3783.687)" fill="#229ad0"/>
    <path id="XMLID_84_" d="M112.8,233.1h.054c1.349.972,2.645,2,4.048,2.861a11.481,11.481,0,0,0-2.7.594l-.108-.054a31.7,31.7,0,0,1-1.3-3.4Z" transform="translate(8715.011 3783.226)" fill="#ffcb08"/>
    <path id="XMLID_83_" d="M139.712,236.108V236a2.524,2.524,0,0,1-.162,2.321,3.661,3.661,0,0,1-2.267,1.133,21.38,21.38,0,0,1-2.483.7,1.432,1.432,0,0,1,.594-.972c1.026-.648,2.267-.54,3.292-1.079a2.9,2.9,0,0,0,1.025-2Z" transform="translate(8704.885 3781.892)" fill="#f7941e"/>
    <path id="XMLID_82_" d="M116.1,240.539a11.862,11.862,0,0,1,3.346-.648c.27-.054.486.108.756.27,1.079.648,2.213,1.187,3.346,1.727a9.307,9.307,0,0,1,.324,3.454,13.3,13.3,0,0,0-5.991.7,46.811,46.811,0,0,0-1.781-5.505Z" transform="translate(8713.492 3780.105)" fill="#ffcb08"/>
    <path id="XMLID_81_" d="M114.7,241.524c.27-.108.486-.216.756-.324a45.963,45.963,0,0,1,1.781,5.451c-.27.108-.486.216-.7.324a35.928,35.928,0,0,0-1.835-5.451Z" transform="translate(8714.136 3779.498)" fill="#fff200"/>
    <path id="XMLID_80_" d="M138.516,242.979a6.844,6.844,0,0,0,2.861-1.079c.756.756,1.457,1.565,2.159,2.375a7.024,7.024,0,0,1,.81.972,1.416,1.416,0,0,1-.27,1.025,23.077,23.077,0,0,1-5.775,7.34,16.767,16.767,0,0,1,.378-2.375,30.6,30.6,0,0,0,.54-5.451,5.247,5.247,0,0,1,1.565-1.026,2.359,2.359,0,0,0-2,.378c-.162-.7-.162-1.457-.27-2.159Z" transform="translate(8703.274 3779.176)" fill="#2658a8"/>
    <path id="XMLID_79_" d="M106.1,244.049c.432-.432.864-.918,1.3-1.349a16.5,16.5,0,0,1-.7,3.238,10.991,10.991,0,0,1-.594-1.889Z" transform="translate(8718.095 3778.808)" fill="#1a468d"/>
    <path id="XMLID_78_" d="M129.9,243.5a13.352,13.352,0,0,0,2.483.81c.162,1.025.27,2.1.378,3.184a13.252,13.252,0,0,0-2.537-.54,9.413,9.413,0,0,0-.324-3.454Z" transform="translate(8707.141 3778.44)" fill="#f7941e"/>
    <path id="XMLID_77_" d="M136,244.386l1.457-.486c.108.7.108,1.457.216,2.159v.108c-.054.054-.162.162-.216.162a10.865,10.865,0,0,1-1.349-.756,9.694,9.694,0,0,0-.108-1.187Z" transform="translate(8704.333 3778.255)" fill="#1a468d"/>
    <path id="XMLID_76_" d="M100.6,248.232a5.9,5.9,0,0,1,.81-.432,15.142,15.142,0,0,1,1.619,3.994c-.864-1.187-1.349-2.591-2.429-3.562Z" transform="translate(8720.626 3776.46)" fill="#fff"/>
    <path id="XMLID_75_" d="M136.5,248.8a4.022,4.022,0,0,1,.648.378,6.548,6.548,0,0,0-.54.756,8.055,8.055,0,0,1-.108-1.133Z" transform="translate(8704.103 3776)" fill="#fff"/>
    <path id="XMLID_74_" d="M136.7,250.881a11.651,11.651,0,0,1,1.457-1.781,30.6,30.6,0,0,1-.54,5.451,18.1,18.1,0,0,0-.378,2.375v.054A11.385,11.385,0,0,1,136,258.006a37.269,37.269,0,0,0,.378-6.477,1.065,1.065,0,0,1,.324-.648Z" transform="translate(8704.333 3775.862)" fill="#1a468d"/>
    <path id="XMLID_73_" d="M106.74,249.4a35.6,35.6,0,0,1,.918,4.156,5.476,5.476,0,0,1,.108,1.349c-.324-.432-.756-.81-1.079-1.241-.216-.27-.162-.594-.216-.864a9.944,9.944,0,0,0-.27-1.349,6.389,6.389,0,0,1,.54-2.051Z" transform="translate(8718.048 3775.724)" fill="#229ad0"/>
    <path id="XMLID_72_" d="M119.7,252.246a12.925,12.925,0,0,1,5.883-.7,17.423,17.423,0,0,1,0,6.477,12.394,12.394,0,0,0-5.451-.108,15.609,15.609,0,0,0-.432-5.667Z" transform="translate(8711.835 3774.767)" fill="#ffcb08"/>
    <path id="XMLID_71_" d="M130.654,251.6a13.084,13.084,0,0,1,2.429.54,35.907,35.907,0,0,1-.324,6.8,8.056,8.056,0,0,0-2.159-.81h0a17.714,17.714,0,0,0,.054-6.531Z" transform="translate(8706.818 3774.711)" fill="#f7941e"/>
    <path id="XMLID_70_" d="M118.4,253.324c.216-.108.486-.216.7-.324a18.4,18.4,0,0,1,.432,5.721c-.324.108-.648.162-.918.27a18.057,18.057,0,0,0-.216-5.667Z" transform="translate(8712.434 3774.067)" fill="#fff200"/>
    <path id="XMLID_69_" d="M74.4,256.1a6.578,6.578,0,0,1,2.591,1.943c-.54,0-1.079,0-1.619.054a5.725,5.725,0,0,0-.972-2Z" transform="translate(8732.685 3772.64)" fill="#1576b6"/>
    <path id="XMLID_68_" d="M74.383,256.1a5.725,5.725,0,0,1,.972,2,4.165,4.165,0,0,1-.81.108c.108-.7-.27-1.4-.162-2.1Z" transform="translate(8732.701 3772.64)" fill="#229ad0"/>
    <path id="XMLID_67_" d="M83.5,258.789c.216-.594.054-1.349.432-1.889a8.567,8.567,0,0,1,.324,2.051c-.27-.054-.486-.108-.756-.162Z" transform="translate(8728.496 3772.272)" fill="#229ad0"/>
    <path id="XMLID_66_" d="M84.3,256.9a10.765,10.765,0,0,1,1.835,2.591c-.486-.162-1.026-.378-1.511-.54A13.5,13.5,0,0,0,84.3,256.9Z" transform="translate(8728.128 3772.272)" fill="#1576b6"/>
    <path id="XMLID_65_" d="M93.4,259.6a1.336,1.336,0,0,1,.864.54,8.529,8.529,0,0,1,1.565,2.591,9.134,9.134,0,0,1-2.051-.378,9.061,9.061,0,0,0-.378-2.7V259.6Z" transform="translate(8723.939 3771.029)" fill="#1576b6"/>
    <path id="XMLID_64_" d="M92.578,261.311c.108-.486,0-1.079.324-1.511a7.6,7.6,0,0,1,.378,2.7c-.378-.162-.7-.27-1.079-.432a4.935,4.935,0,0,0,.378-.756Z" transform="translate(8724.492 3770.938)" fill="#229ad0"/>
    <path id="XMLID_63_" d="M69.638,261.647a9.72,9.72,0,0,1,4.318-.486,12.767,12.767,0,0,1,4.858,1.511,9.766,9.766,0,0,0,4.858,1.565,5.564,5.564,0,0,0,.972,2.159,44.772,44.772,0,0,0-8.2-3.67,11.627,11.627,0,0,0-5.775-.432,6.583,6.583,0,0,0-4.048,2.7c-.054.054-.162.162-.216.162a5.248,5.248,0,0,1,3.238-3.508Z" transform="translate(8736.366 3770.332)" fill="#229ad0"/>
    <path id="XMLID_61_" d="M98.3,263Z" transform="translate(8721.685 3769.464)" fill="#5d7890"/>
    <path id="XMLID_60_" d="M99.78,263.6l.81.486a4.741,4.741,0,0,0-.054,1.511c.108.7.432,1.3.594,2a3.8,3.8,0,0,1-1.349-2.375,16.16,16.16,0,0,1,0-1.619Z" transform="translate(8721.015 3769.188)" fill="#229ad0"/>
    <path id="XMLID_59_" d="M138.2,264.886c.216-.162.378-.324.594-.486a4.517,4.517,0,0,1-.216,3.454c-.108-1.026-.216-2-.378-2.969Z" transform="translate(8703.319 3768.82)" fill="#2658a8"/>
    <path id="XMLID_57_" d="M118.313,265.006a11.183,11.183,0,0,1,5.505,0,14.007,14.007,0,0,1-2.375,7.071,10.92,10.92,0,0,1-5.343-2,10.058,10.058,0,0,0,2.213-5.074Z" transform="translate(8713.492 3768.7)" fill="#ffcb08"/>
    <path id="XMLID_56_" d="M135.757,265.84c.216-.162.378-.378.594-.54.162.972.27,2,.378,2.969-.162.432-.486,1.025-1.025.971h-1.4a22.421,22.421,0,0,0,.756-3.292,3.254,3.254,0,0,1,.648,2.1,2.051,2.051,0,0,0,.054-2.213Z" transform="translate(8705.115 3768.406)" fill="#1a468d"/>
    <path id="XMLID_55_" d="M103.27,265.4c.324.054.594.162.918.216a14.817,14.817,0,0,0-1.187,1.4v-.756c.054-.27.216-.54.27-.864Z" transform="translate(8719.521 3768.36)" fill="#229ad0"/>
    <path id="XMLID_53_" d="M116.935,265.678c.324-.108.648-.27.972-.378a11.011,11.011,0,0,1-2.213,5.074c-.216-.162-.378-.324-.594-.486a11.779,11.779,0,0,0,1.835-4.21Z" transform="translate(8713.952 3768.406)" fill="#fff200"/>
    <path id="XMLID_52_" d="M128.375,265.4a10.166,10.166,0,0,1,2.1.864,19.917,19.917,0,0,1-2,6.045,7.714,7.714,0,0,1-2.483.162,14.007,14.007,0,0,0,2.375-7.071Z" transform="translate(8708.936 3768.36)" fill="#f7941e"/>
    <path id="XMLID_50_" d="M77.4,266.8a10.2,10.2,0,0,1,6.207,2.375,3.792,3.792,0,0,0-.54,2.159c-1.619-1.781-3.346-3.67-5.667-4.534Z" transform="translate(8731.304 3767.717)" fill="#ffcb08"/>
    <path id="XMLID_49_" d="M90.154,272.2l.162.108a3.493,3.493,0,0,0,.486.432c.486.432.918.918,1.4,1.349-.108.108-.162.216-.27.324a13,13,0,0,1-1.835-2,.324.324,0,0,1,.054-.216Z" transform="translate(8725.458 3765.23)" fill="#faea07"/>
    <path id="XMLID_48_" d="M90.4,272.345c.27-.216.7.162.486.432-.108-.108-.324-.27-.486-.432Z" transform="translate(8725.32 3765.193)" fill="#1a468d"/>
    <path id="XMLID_47_" d="M89.645,274.435a2.733,2.733,0,0,1,.216-1.835,13,13,0,0,0,1.835,2,8.809,8.809,0,0,0-.486,1.025h-.054a16.26,16.26,0,0,0-1.511-1.187Z" transform="translate(8725.697 3765.046)" fill="#ffcb08"/>
    <path id="XMLID_46_" d="M98.617,273.918a3.006,3.006,0,0,1,2.051-.918,4.252,4.252,0,0,0-1.241,1.511,10.728,10.728,0,0,0-.756,4.318,50.121,50.121,0,0,1-.324,6.963,8.888,8.888,0,0,1,1.727.324,4.924,4.924,0,0,0-1.781.27,3.543,3.543,0,0,0-1.727,2.1c-.378.918-.378,1.943-.7,2.861-.486-.27-.378-.864-.378-1.349a4.12,4.12,0,0,1,1.079-2.645,3.959,3.959,0,0,0-1.781,2.267,3.527,3.527,0,0,1,2.267-3.616c1.026-2.591.594-5.451.648-8.15a8.152,8.152,0,0,1,.918-3.94Z" transform="translate(8723.31 3764.862)" fill="#229ad0"/>
    <path id="XMLID_45_" d="M111.8,276.433c.378-.378.81-.756,1.187-1.133.162.162.324.27.486.432a4.889,4.889,0,0,1-1.565,1.4c-.054-.27-.054-.486-.108-.7Z" transform="translate(8715.471 3763.803)" fill="#fff200"/>
    <path id="XMLID_44_" d="M113.427,276a11.454,11.454,0,0,0,5.505,2.213,10.362,10.362,0,0,1-2.915,3.023,3.188,3.188,0,0,1-2.537.378,3.088,3.088,0,0,1-1.781-1.889,8.417,8.417,0,0,0,.162-2.321,5.53,5.53,0,0,0,1.565-1.4Z" transform="translate(8715.517 3763.481)" fill="#ffcb08"/>
    <path id="XMLID_43_" d="M89.8,276a10.022,10.022,0,0,1,1.457,1.187v.108c0,.378-.054.756-.054,1.133a10.344,10.344,0,0,1-.972-1.187A5.665,5.665,0,0,1,89.8,276Z" transform="translate(8725.597 3763.481)" fill="#f7941e"/>
    <path id="XMLID_42_" d="M95.116,276.9a11.784,11.784,0,0,0,1.673,1.187c.162.108.378.162.378.432a11.522,11.522,0,0,1-2.267-1.241.87.87,0,0,1,.216-.378Z" transform="translate(8723.249 3763.067)" fill="#fbe807"/>
    <path id="XMLID_41_" d="M94.1,278.9a4.164,4.164,0,0,1,.378-1.4,9.277,9.277,0,0,0,2.267,1.241,12.211,12.211,0,0,0-.108,2.429A16.919,16.919,0,0,1,94.1,278.9Z" transform="translate(8723.617 3762.791)" fill="#ffcb08"/>
    <path id="XMLID_39_" d="M94.1,280.1a20.523,20.523,0,0,0,2.537,2.321c0,.486.054,1.025.054,1.511-.54-.432-1.026-.971-1.565-1.457A3.655,3.655,0,0,1,94.1,280.1Z" transform="translate(8723.617 3761.594)" fill="#f7941e"/>
    <path id="XMLID_38_" d="M118.794,280.1a9.149,9.149,0,0,0,2.429,0,13.825,13.825,0,0,1-3.184,3.67,2.826,2.826,0,0,1-1.835.54,7.441,7.441,0,0,1-4.8-1.781c.054-.324.162-.648.216-.918A3.088,3.088,0,0,0,113.4,283.5a3.222,3.222,0,0,0,2.537-.378,10.213,10.213,0,0,0,2.861-3.023Z" transform="translate(8715.655 3761.594)" fill="#f7941e"/>
    <path id="XMLID_37_" d="M125.815,283.6a14.187,14.187,0,0,0,1.565-2c0,1.511-.054,3.077,0,4.588-.054-.27-.108-.594-.162-.864a17.087,17.087,0,0,1-3.238,1.781c0-.594-.054-1.187,0-1.781a18.7,18.7,0,0,0,1.835-1.727Z" transform="translate(8709.876 3760.904)" fill="#1a468d"/>
    <path id="XMLID_35_" d="M110.248,286.5a9.4,9.4,0,0,0,4.7,1.727,11.391,11.391,0,0,1-5.343,1.187,23.086,23.086,0,0,1,.648-2.915Z" transform="translate(8716.483 3758.648)" fill="#f7941e"/>
    <path id="XMLID_34_" d="M121.5,289.318c.486-.27.918-.594,1.4-.918v1.781a18.924,18.924,0,0,0,3.238-1.781c.054.27.108.594.162.864a9.186,9.186,0,0,0,.7,2.969c.108.27.378.378.54.54a3.647,3.647,0,0,1,1.457,1.4,4.6,4.6,0,0,1,.432,1.889c-.108.054-.216.054-.324.108a3.4,3.4,0,0,0-2.051-2.537,3.442,3.442,0,0,1,1.241,2.375,9.147,9.147,0,0,0-1.187.054,3.359,3.359,0,0,0-2.051-2.051,3.51,3.51,0,0,1,1.3,2c0,.162.216.54-.054.594,0-.162-.054-.324-.054-.54a6.464,6.464,0,0,1-2.807-.971,1.638,1.638,0,0,1-.648-1.349v-3.508c-.432.108-.81.27-1.241.378,0-.432-.054-.864-.054-1.3Z" transform="translate(8711.007 3757.774)" fill="#2658a8"/>
    <path id="XMLID_32_" d="M121.628,292.278c.432-.108.81-.27,1.241-.378v3.508a1.638,1.638,0,0,0,.648,1.349,6.464,6.464,0,0,0,2.807.972c0,.162.054.324.054.54v.054a10.645,10.645,0,0,1-3.454-.7,2.23,2.23,0,0,1-1.349-2c-.108-1.187.108-2.267.054-3.346Z" transform="translate(8710.986 3756.163)" fill="#229ad0"/>
    <path id="XMLID_116_" d="M131.9,302.654a9.147,9.147,0,0,0,1.187-.054c0,.108-.054.324-.054.432l-.972.162c-.054-.162-.108-.378-.162-.54Z" transform="translate(8706.22 3751.238)" fill="#229ad0"/>
  </g>
</svg>
