<svg xmlns="http://www.w3.org/2000/svg" width="215.297" height="43.879" viewBox="0 0 215.297 43.879">
  <g id="Group_32636" data-name="Group 32636" transform="translate(-9087 -2295)">
    <path id="path201" d="M8.287,9.107c-.083.083-.166.083-.331.166C2.74,11.756,1.084,18.959,4.147,25.334l18.793-9.107c.083-.083.248-.083.331-.166C28.488,13.578,30.143,6.375,27.08,0ZM5.472,27.652c-.083.083-.166.083-.331.166C-.075,30.3-1.731,37.5,1.332,43.879l18.793-9.107c.083-.083.248-.083.331-.166,5.216-2.484,6.872-9.686,3.808-16.061Z" transform="translate(9087.201 2295)" fill="#4c3ce2"/>
    <path id="path205" d="M203.869,53.148a9.1,9.1,0,0,0,5.133,1.9c1.407,0,1.987-.414,1.987-1.076,0-.745-.993-.993-2.484-1.242-2.484-.414-6.044-.911-6.044-4.636,0-2.567,2.235-4.8,6.292-4.8a10.538,10.538,0,0,1,6.126,1.9l-1.821,3.063a6.292,6.292,0,0,0-4.305-1.573c-1.076,0-1.821.331-1.821.993s.828.911,2.318,1.159c2.484.414,6.209.993,6.209,4.885,0,2.815-2.484,4.885-6.706,4.885a10.861,10.861,0,0,1-6.872-2.235Zm20.2-9.935c4.305,0,7.534,3.146,7.534,8.2V52.4H221.09a3.483,3.483,0,0,0,3.726,2.649,5.486,5.486,0,0,0,3.56-1.242l1.987,2.9a9.5,9.5,0,0,1-6.126,1.9c-4.553,0-8.031-2.98-8.031-7.7a7.575,7.575,0,0,1,7.865-7.7Zm-3.063,6.126h6.044a2.793,2.793,0,0,0-3.063-2.484A2.937,2.937,0,0,0,221.007,49.34Zm20.863,7.451a5.82,5.82,0,0,1-4.553,1.821,4.935,4.935,0,0,1-5.05-4.636V53.81c0-3.56,2.815-4.636,5.05-4.636a5.748,5.748,0,0,1,4.553,1.739V49.091c0-1.242-1.076-2.153-2.98-2.153a6.443,6.443,0,0,0-4.14,1.573l-1.656-2.98a10.745,10.745,0,0,1,6.623-2.318c3.56,0,6.789,1.325,6.789,5.878v9.19H241.87Zm0-3.643a3.161,3.161,0,0,0-2.649-.993c-1.242,0-2.318.58-2.318,1.739s1.076,1.739,2.318,1.739a3.224,3.224,0,0,0,2.649-1.076Zm7.534-9.6h4.636v1.9a6.517,6.517,0,0,1,4.553-2.235v4.553a5.59,5.59,0,0,0-1.159-.166,4.305,4.305,0,0,0-3.394,1.407v9.273H249.4Zm17.8-.331a7.116,7.116,0,0,1,6.044,2.732l-3.063,2.815a3.23,3.23,0,0,0-2.732-1.407,3.561,3.561,0,1,0-.166,7.12,3.808,3.808,0,0,0,2.98-1.407l3.063,2.815a7.214,7.214,0,0,1-6.044,2.732c-4.553,0-8.031-3.063-8.031-7.7-.083-4.636,3.394-7.7,7.948-7.7Zm17.469,6.458c0-1.821-.911-2.4-2.4-2.4a3.74,3.74,0,0,0-2.815,1.407v9.438h-4.636v-20.2l4.636-2.153v9.6a6.585,6.585,0,0,1,5.05-2.153c3.312,0,4.885,1.9,4.885,4.553V58.2h-4.636Zm8.2,3.477a9.1,9.1,0,0,0,5.133,1.9c1.407,0,1.987-.414,1.987-1.076,0-.745-.993-.993-2.484-1.242-2.484-.414-6.044-.911-6.044-4.636,0-2.567,2.235-4.8,6.292-4.8a10.538,10.538,0,0,1,6.126,1.9l-1.821,3.063a6.292,6.292,0,0,0-4.305-1.573c-1.076,0-1.821.331-1.821.993s.828.911,2.318,1.159c2.484.414,6.209.993,6.209,4.885,0,2.815-2.484,4.885-6.706,4.885a10.861,10.861,0,0,1-6.872-2.235Zm13.412,10.68V43.544h4.636v1.739a5.534,5.534,0,0,1,4.305-2.07c3.643,0,6.458,2.732,6.458,7.7s-2.732,7.7-6.458,7.7a5.414,5.414,0,0,1-4.305-2.07v7.286Zm7.451-16.475a3.791,3.791,0,0,0-2.815,1.325v4.471a3.66,3.66,0,0,0,2.815,1.325,3.272,3.272,0,0,0,3.229-3.56A3.227,3.227,0,0,0,313.732,47.353Zm9.852-3.808h4.636v1.9a6.517,6.517,0,0,1,4.553-2.235v4.553a5.591,5.591,0,0,0-1.159-.166,4.305,4.305,0,0,0-3.394,1.407v9.273h-4.636Zm10.432-4.471a2.649,2.649,0,1,1,2.649,2.649A2.615,2.615,0,0,1,334.016,39.074Zm.331,4.471h4.636V58.2h-4.636Zm17.386,6.209c0-1.821-.911-2.4-2.4-2.4a3.379,3.379,0,0,0-2.815,1.407V58.2h-4.636V43.544h4.636v1.821a6.586,6.586,0,0,1,5.05-2.153c3.312,0,4.885,1.9,4.885,4.636V58.2h-4.636Zm9.107,8.859a5.985,5.985,0,0,0,4.471,1.739c1.573,0,3.726-.662,3.726-3.394V55.8a5.621,5.621,0,0,1-4.305,2.153c-3.56,0-6.458-2.484-6.458-7.368,0-4.8,2.815-7.368,6.458-7.368a5.414,5.414,0,0,1,4.305,2.07V43.544h4.636V56.874c0,5.961-4.719,7.286-8.362,7.286a9.532,9.532,0,0,1-6.458-2.153Zm8.2-10.018a3.66,3.66,0,0,0-2.815-1.325,3.251,3.251,0,0,0-3.229,3.312,3.346,3.346,0,0,0,3.229,3.229,3.791,3.791,0,0,0,2.815-1.325Z" transform="translate(8928.625 2266.938)" fill="#515151"/>
  </g>
</svg>
