<svg xmlns="http://www.w3.org/2000/svg" width="215" height="48.447" viewBox="0 0 215 48.447">
  <g id="bigcommerce-2" transform="translate(-69.01 -122.119)">
    <path id="Path_35714" data-name="Path 35714" d="M128.164,145.577a8.072,8.072,0,0,1,6.807,3.314V122.738a.618.618,0,0,0-.985-.493l-32.289,23.6h.851c3.359,0,5.061,2.15,5.061,4.478a3.95,3.95,0,0,1-2.239,3.762.265.265,0,0,0,0,.493,4.372,4.372,0,0,1,2.553,4.075c0,2.687-1.747,4.792-5.105,4.792H93.636a.353.353,0,0,1-.358-.358V151.981l-24.049,17.6a.543.543,0,0,0,.313.985h64.846a.517.517,0,0,0,.537-.537v-8.912a9.814,9.814,0,0,1-6.807,2.642c-5.195,0-9.4-3.583-9.4-9.091C118.759,149.115,123.014,145.577,128.164,145.577Zm-12.853,17.555a.306.306,0,0,1-.313.313h-3.09a.306.306,0,0,1-.313-.313V146.159a.306.306,0,0,1,.313-.313H115a.306.306,0,0,1,.313.313Z" transform="translate(0)" fill="#34313f"/>
    <path id="Path_35715" data-name="Path 35715" d="M131.958,181.644H136.3a1.83,1.83,0,0,0,2.06-1.836,1.854,1.854,0,0,0-2.06-1.836h-4.523a.193.193,0,0,0-.179.179v3.18A.346.346,0,0,0,131.958,181.644Zm0,7.344h4.523a1.972,1.972,0,0,0,2.239-2.015,2.018,2.018,0,0,0-2.239-2.015h-4.523a.353.353,0,0,0-.358.358v3.314A.385.385,0,0,0,131.958,188.989Zm34.752-9.27a5.059,5.059,0,0,0-3.986-2.015,5.782,5.782,0,0,0,0,11.554A6.047,6.047,0,0,0,166.352,188a.342.342,0,0,0,.09-.224v-1.7a.289.289,0,0,0-.269-.269h-3.986a.353.353,0,0,1-.358-.358v-2.508a.353.353,0,0,1,.358-.358h7.389V178.6l-2.374,1.3a.5.5,0,0,1-.493-.179Zm5.6,3.762a8.706,8.706,0,0,1,8.912-9.091,7.463,7.463,0,0,1,6.628,3.672.266.266,0,0,1-.134.4L185.7,179.54a.235.235,0,0,1-.358-.09,5,5,0,0,0-4.12-2.329c-3.359,0-5.867,2.642-5.867,6.359,0,3.672,2.508,6.359,5.867,6.359a5,5,0,0,0,4.12-2.329.242.242,0,0,1,.358-.09l2.015,1.03a.31.31,0,0,1,.134.448,7.607,7.607,0,0,1-6.628,3.717A8.8,8.8,0,0,1,172.308,183.481Zm17.286,0c0-4.389,2.508-7.792,6.27-8.778,6.4-1.7,12.271,4.3,10.882,10.972a8.408,8.408,0,0,1-8.464,6.941C193.177,192.572,189.594,188.72,189.594,183.481Zm14.286,0c0-3.627-2.239-6.359-5.643-6.359-3.448,0-5.643,2.732-5.643,6.359s2.194,6.359,5.643,6.359S203.88,187.063,203.88,183.481Zm21.317,8.554v-13.39l-5.329,13.48c0,.045-.09.09-.134.09h-1.12c-.045,0-.134-.045-.134-.09l-5.374-13.48v13.39a.212.212,0,0,1-.224.224h-2.687a.212.212,0,0,1-.224-.224v-17.2a.212.212,0,0,1,.224-.224h3.851a.43.43,0,0,1,.4.269l4.7,12.091,4.657-12.091a.392.392,0,0,1,.4-.269h3.851a.212.212,0,0,1,.224.224v17.2a.212.212,0,0,1-.224.224h-2.687A.245.245,0,0,1,225.2,192.034Zm30.453-.09V174.972a.306.306,0,0,1,.314-.313h11.42a.306.306,0,0,1,.314.313v2.06a.306.306,0,0,1-.314.313h-8.33a.306.306,0,0,0-.313.313v3.9a.306.306,0,0,0,.313.313H267.2a.306.306,0,0,1,.313.313v2.06a.306.306,0,0,1-.313.313h-8.151a.306.306,0,0,0-.313.313v4.254a.306.306,0,0,0,.313.313h8.33a.306.306,0,0,1,.314.313v2.06a.306.306,0,0,1-.314.313h-11.42C255.784,192.258,255.65,192.124,255.65,191.945Zm26.377.134-3.717-6.27a.319.319,0,0,0-.269-.134h-2.6a.306.306,0,0,0-.314.313v5.956a.306.306,0,0,1-.313.313H272.4a.306.306,0,0,1-.313-.313V174.972a.306.306,0,0,1,.313-.313h7.434c3.493,0,5.777,2.239,5.777,5.508a4.922,4.922,0,0,1-3.762,5.061.339.339,0,0,0-.224.493c.717,1.164,2.956,4.747,3.807,6.046a.314.314,0,0,1-.269.493H282.34a.338.338,0,0,1-.314-.179Zm.4-11.957a2.743,2.743,0,0,0-3-2.777h-3.941a.306.306,0,0,0-.314.313v4.971a.306.306,0,0,0,.314.313h3.941A2.753,2.753,0,0,0,282.43,180.122Zm24.049,11.823V174.972a.306.306,0,0,1,.313-.313h11.465a.306.306,0,0,1,.313.313v2.1a.306.306,0,0,1-.313.313h-8.374a.306.306,0,0,0-.313.313v3.941a.306.306,0,0,0,.313.313h8.151a.306.306,0,0,1,.314.313v2.1a.306.306,0,0,1-.314.313h-8.151a.306.306,0,0,0-.313.313v4.3a.306.306,0,0,0,.313.313h8.374a.306.306,0,0,1,.313.313v2.1a.306.306,0,0,1-.313.313H306.792A.478.478,0,0,1,306.479,191.945Zm-18.63-8.554a8.706,8.706,0,0,1,8.912-9.091,7.463,7.463,0,0,1,6.628,3.672.266.266,0,0,1-.134.4l-2.015,1.075a.235.235,0,0,1-.358-.09,5,5,0,0,0-4.12-2.329c-3.359,0-5.867,2.642-5.867,6.359,0,3.672,2.508,6.359,5.867,6.359a5,5,0,0,0,4.12-2.329.242.242,0,0,1,.358-.09l2.015,1.03a.31.31,0,0,1,.134.448,7.607,7.607,0,0,1-6.628,3.717A8.769,8.769,0,0,1,287.849,183.391Zm-39.812,8.643v-13.39l-5.329,13.48c0,.045-.09.09-.134.09h-1.12c-.045,0-.134-.045-.134-.09l-5.374-13.48v13.39a.212.212,0,0,1-.224.224h-2.687a.212.212,0,0,1-.224-.224v-17.2a.212.212,0,0,1,.224-.224h3.851a.43.43,0,0,1,.4.269l4.7,12.091,4.657-12.091a.392.392,0,0,1,.4-.269H250.9a.212.212,0,0,1,.224.224v17.2a.212.212,0,0,1-.224.224h-2.687a.2.2,0,0,1-.179-.224Z" transform="translate(-34.56 -28.812)" fill="#34313f"/>
  </g>
</svg>
