<svg xmlns="http://www.w3.org/2000/svg" xmlns:xlink="http://www.w3.org/1999/xlink" width="215" height="51.419" viewBox="0 0 215 51.419">
  <defs>
    <linearGradient id="linear-gradient" x1="0.148" y1="0.852" x2="0.852" y2="0.148" gradientUnits="objectBoundingBox">
      <stop offset="0" stop-color="#7381fd"/>
      <stop offset="1" stop-color="#76c7ff"/>
    </linearGradient>
  </defs>
  <g id="logo_cs-cart" transform="translate(-4.25 -3.14)">
    <g id="Group_33466" data-name="Group 33466" transform="translate(70.396 20.753)">
      <g id="Group_33464" data-name="Group 33464" transform="translate(0 0.046)">
        <path id="Path_35739" data-name="Path 35739" d="M197.322,67.291h4.987A11.827,11.827,0,0,1,198.3,74.46a12.237,12.237,0,0,1-8,2.595,13.455,13.455,0,0,1-6.924-1.761,12.135,12.135,0,0,1-4.646-4.941,16.519,16.519,0,0,1,0-14.375,12.125,12.125,0,0,1,4.646-4.937A13.445,13.445,0,0,1,190.3,49.28a12.237,12.237,0,0,1,8,2.595,11.827,11.827,0,0,1,4.011,7.168h-4.987a6.213,6.213,0,0,0-2.4-3.8A8.038,8.038,0,0,0,184.451,56.4a9.919,9.919,0,0,0-2.262,6.763,9.945,9.945,0,0,0,2.262,6.763,8.038,8.038,0,0,0,10.475,1.163A6.193,6.193,0,0,0,197.322,67.291Z" transform="translate(-177.08 -49.28)" fill="#1b2032"/>
      </g>
      <g id="Group_33465" data-name="Group 33465" transform="translate(28.456)">
        <path id="Path_35740" data-name="Path 35740" d="M263.3,76.98a13.8,13.8,0,0,1-8.535-2.457,8.39,8.39,0,0,1-3.334-6.92l0-.387h4.991l.015.364a4.538,4.538,0,0,0,1.944,3.594A7.993,7.993,0,0,0,263.3,72.6a7.911,7.911,0,0,0,4.321-1.052,2.97,2.97,0,0,0,1.558-2.6,2.886,2.886,0,0,0-.716-2.113,4.039,4.039,0,0,0-1.967-1.037c-.861-.2-2.113-.41-3.712-.612a32.9,32.9,0,0,1-5.653-1.1,8.14,8.14,0,0,1-3.686-2.254A6.2,6.2,0,0,1,252,57.507a7.236,7.236,0,0,1,1.393-4.363,9.108,9.108,0,0,1,3.751-2.943,14.369,14.369,0,0,1,13.085,1.206,8.5,8.5,0,0,1,3.387,6.483l.031,1.083h-4.991l-.042-1.007a4.547,4.547,0,0,0-1.872-3.161,6.684,6.684,0,0,0-4.168-1.267,7.317,7.317,0,0,0-4.133,1.049,3,3,0,0,0-1.489,2.606,2.314,2.314,0,0,0,.654,1.791,3.736,3.736,0,0,0,1.81.888c.8.168,2.032.36,3.667.563a31.65,31.65,0,0,1,5.787,1.152,8.155,8.155,0,0,1,3.793,2.442,6.852,6.852,0,0,1,1.462,4.593,7.076,7.076,0,0,1-1.477,4.424,9.385,9.385,0,0,1-3.934,2.913A13.872,13.872,0,0,1,263.3,76.98Z" transform="translate(-251.43 -49.16)" fill="#1b2032"/>
      </g>
    </g>
    <g id="Group_33471" data-name="Group 33471" transform="translate(132.624 14.817)">
      <g id="Group_33467" data-name="Group 33467" transform="translate(0 5.982)">
        <path id="Path_35741" data-name="Path 35741" d="M359.912,67.291H364.9a11.827,11.827,0,0,1-4.011,7.168,12.237,12.237,0,0,1-8,2.595,13.455,13.455,0,0,1-6.924-1.761,12.135,12.135,0,0,1-4.646-4.941,16.519,16.519,0,0,1,0-14.375,12.125,12.125,0,0,1,4.646-4.937,13.445,13.445,0,0,1,6.924-1.761,12.237,12.237,0,0,1,8,2.595,11.827,11.827,0,0,1,4.011,7.168h-4.987a6.213,6.213,0,0,0-2.4-3.8A8.038,8.038,0,0,0,347.041,56.4a9.919,9.919,0,0,0-2.262,6.763,9.945,9.945,0,0,0,2.262,6.763,8.038,8.038,0,0,0,10.475,1.163A6.194,6.194,0,0,0,359.912,67.291Z" transform="translate(-339.67 -49.28)" fill="#1b2032"/>
      </g>
      <g id="Group_33468" data-name="Group 33468" transform="translate(28.253 5.986)">
        <path id="Path_35742" data-name="Path 35742" d="M423.6,77.061A11.6,11.6,0,0,1,416.3,74.91a7.157,7.157,0,0,1-2.813-5.94c0-5.155,4.317-8.313,9.752-8.313h8.615V58.931a4.561,4.561,0,0,0-1.6-3.743,6.993,6.993,0,0,0-4.593-1.359,7.551,7.551,0,0,0-4.313,1.148,4.615,4.615,0,0,0-2.04,3l-.061,1.079h-4.983l.05-1.2a8.792,8.792,0,0,1,3.594-6.315,13.237,13.237,0,0,1,7.961-2.247c3.46,0,6.181.857,8.091,2.553a9.355,9.355,0,0,1,2.9,7.348V70.573c0,1.06.425,1.535,1.378,1.535h1.672v4.642H437.2a5.53,5.53,0,0,1-3.885-1.141,4.077,4.077,0,0,1-1.16-2.323A10.539,10.539,0,0,1,423.6,77.061Zm.467-12.071c-3.712,0-5.519,1.018-5.519,3.724a3.389,3.389,0,0,0,1.4,2.855,6.375,6.375,0,0,0,3.961,1.11,8.356,8.356,0,0,0,5.848-1.944,6.661,6.661,0,0,0,2.1-5.129v-.62h-7.8Z" transform="translate(-413.49 -49.29)" fill="#1b2032"/>
      </g>
      <g id="Group_33469" data-name="Group 33469" transform="translate(57.175 6.296)">
        <path id="Path_35743" data-name="Path 35743" d="M489.06,77.251V50.1h5v3.36a8.623,8.623,0,0,1,2.373-2.22,10.172,10.172,0,0,1,5.217-1.141h1.569V55h-2.5c-2.4,0-4.065.773-5.086,2.361a11.033,11.033,0,0,0-1.569,6.055V77.247h-5Z" transform="translate(-489.06 -50.1)" fill="#1b2032"/>
      </g>
      <g id="Group_33470" data-name="Group 33470" transform="translate(74.455)">
        <path id="Path_35744" data-name="Path 35744" d="M541.474,67.1c-2.58,0-4.459-.6-5.58-1.772s-1.684-3.02-1.684-5.488V33.65h5v6.3h7.165v4.642h-7.165V59.783a3.114,3.114,0,0,0,.547,2.1,2.658,2.658,0,0,0,1.971.578h4.65V67.1h-4.906Z" transform="translate(-534.21 -33.65)" fill="#1b2032"/>
      </g>
    </g>
    <path id="Path_35745" data-name="Path 35745" d="M55.669,20.837v27.7a6.019,6.019,0,0,1-6.02,6.02h-27.7a6.019,6.019,0,0,1-6.02-6.02v-27.7a6.019,6.019,0,0,1,6.02-6.02h27.7A6.019,6.019,0,0,1,55.669,20.837ZM10.27,3.14a6.02,6.02,0,1,0,6.02,6.02A6.019,6.019,0,0,0,10.27,3.14Z" fill="url(#linear-gradient)"/>
  </g>
</svg>
