<svg xmlns="http://www.w3.org/2000/svg" width="230" height="39.905" viewBox="0 0 230 39.905">
  <g id="nexcess-net-llc-logo-vector" transform="translate(126.8 -227.3)">
    <path id="Path_35876" data-name="Path 35876" d="M-126.8,235.2a7.885,7.885,0,0,1,7.9-7.9,7.752,7.752,0,0,1,4.715,1.572c2.453,1.725,12.267,9.507,12.267,9.507V253.75l-13.647-11v22.387H-126.8Z" fill="#00aeef"/>
    <path id="Path_35877" data-name="Path 35877" d="M-31.922,259.515a7.853,7.853,0,0,1-7.9,7.858,7.834,7.834,0,0,1-4.715-1.572c-2.453-1.725-12.267-9.507-12.267-9.507v-15.41l13.647,11V229.5h11.232Z" transform="translate(-43.167 -1.357)" fill="#00aeef"/>
    <path id="Path_35878" data-name="Path 35878" d="M-47.025,253.43l1.227-.958V237.1l-11,8.433Z" transform="translate(-43.167 -6.043)" fill="#44c8f5"/>
    <path id="Path_35879" data-name="Path 35879" d="M-56.8,259.1l9.775,7.9-9.775,7.475Z" transform="translate(-43.167 -19.61)" fill="#0092c8"/>
    <path id="Path_35880" data-name="Path 35880" d="M-90.6,292.092l11-8.357-9.813-7.935-1.188.92Z" transform="translate(-22.323 -29.908)" fill="#44c8f5"/>
    <path id="Path_35881" data-name="Path 35881" d="M-87.5,263.837l9.813-7.437v15.372Z" transform="translate(-24.235 -17.945)" fill="#0092c8"/>
    <path id="Path_35882" data-name="Path 35882" d="M51.4,227.4c6.823,0,9.622,2.338,9.622,8.472v14.682h-6.1V236.6c0-3.22-.575-4.14-4.025-4.14H46v18.093H39.9V227.4Zm11.347,11.577c0-7.552,3.948-11.577,11.615-11.577h8.893v4.83h-8.05c-3.91,0-5.558.652-5.712,4.332H83.255v4.83H69.493c.115,3.795,1.725,4.293,5.673,4.293h8.127v4.868H74.4c-7.667,0-11.615-3.948-11.653-11.577m22-11.577h7.475l5.252,6.977,5.405-6.977h7.437l-9.047,11.692,8.932,11.423h-7.552l-5.175-6.708-5.213,6.708H84.712l9.047-11.538Zm43.815,18.17v4.983h-8.28c-3.795,0-6.555-.652-8.7-2.76a12.033,12.033,0,0,1-3.412-8.663,12.166,12.166,0,0,1,3.412-8.893c2.147-2.032,4.868-2.76,8.7-2.76h8.28V232.5h-6.478c-5.213,0-7.552,1.265-7.552,6.67,0,2.76.843,4.6,2.722,5.712,1.227.767,2.76.767,4.83.767Zm.115-6.593c0-7.552,3.948-11.577,11.615-11.577h8.893v4.83h-8.05c-3.91,0-5.558.652-5.712,4.332h13.8v4.83h-13.8c.153,3.795,1.725,4.293,5.673,4.293h8.127v4.868h-8.893c-7.705,0-11.653-3.948-11.653-11.577m36.072,6.708c2.185,0,3.3-.652,3.3-2.223s-1.073-2.262-3.3-2.262H159.5c-5.6,0-7.973-1.15-7.973-6.555,0-4.945,2.607-7.245,8.165-7.245H172.8v4.83H162.03c-2.76,0-4.217.192-4.217,2.108,0,1.457.92,2.07,2.875,2.07h5.52c5.06,0,7.782,2.453,7.782,6.9s-2.683,7.283-6.363,7.283H151.872v-4.83Zm23.422,0c2.185,0,3.3-.652,3.3-2.223s-1.073-2.262-3.3-2.262h-5.29c-5.635,0-7.973-1.15-7.973-6.555,0-4.945,2.607-7.245,8.165-7.245h13.148v4.83H185.452c-2.76,0-4.217.192-4.217,2.108,0,1.457.92,2.07,2.875,2.07h5.52c5.06,0,7.782,2.453,7.782,6.9s-2.683,7.245-6.363,7.245H175.293v-4.83h12.88Zm12.65-17.6v2.722h-.767V228.09h-1.112v-.652H201.9v.652Zm4.447,2.722V228.78l-.843,1.418H204l-.8-1.418v2.032h-.728V227.4h.728l1.035,1.763,1.035-1.763H206v3.412Z" transform="translate(-102.798 -0.062)" fill="#00aeef"/>
    <path id="Path_35883" data-name="Path 35883" d="M47,302.617H42.938l-.69,1.993H40.6l3.488-9.7h1.84l3.527,9.7H47.73ZM44.97,296.79,43.4,301.313H46.58Zm10.58-1.917v8.433h3.3v1.265H53.978v-9.7Zm4.14-.038a1.016,1.016,0,1,1,2.032-.038h0a1.015,1.015,0,0,1-1,1,.926.926,0,0,1-1.035-.958Zm.23,2.07h1.572v7.7H59.92Zm6.478-.153a3.216,3.216,0,0,1,2.645,1.265v-1.15h1.61v11.347h-1.61V303.46a3.362,3.362,0,0,1-2.722,1.265,4,4,0,0,1,.077-7.973Zm.307,1.418a2.356,2.356,0,0,0-2.338,2.377h0v.153a2.412,2.412,0,0,0,2.223,2.607h.115a2.611,2.611,0,0,0,2.338-2.837,2.542,2.542,0,0,0-2.338-2.3Zm12.727,6.4h-1.61v-.92a2.928,2.928,0,0,1-2.262,1.035,3.029,3.029,0,0,1-3.182-3.3v-4.523H73.95v4.293c0,1.418.767,2.147,1.917,2.147a1.89,1.89,0,0,0,1.955-2.147v-4.293h1.61Zm1.61-9.737a1.016,1.016,0,0,1,2.032,0,1.015,1.015,0,0,1-1,1,.976.976,0,0,1-1.035-1Zm.23,2.07h1.61v7.7H81.31Zm6.517-.153a3.433,3.433,0,0,1,2.645,1.188v-3.68h1.648v10.35h-1.61v-1.15a3.138,3.138,0,0,1-2.683,1.265,3.742,3.742,0,0,1-3.642-4.025A3.652,3.652,0,0,1,87.788,296.752Zm.345,1.418a2.356,2.356,0,0,0-2.338,2.377h0v.153a2.412,2.412,0,0,0,2.223,2.607h.115a2.607,2.607,0,0,0,2.223-2.952A2.644,2.644,0,0,0,88.133,298.17Zm8.28-3.3H98.1l1.993,7.9,2.185-7.9h1.8l2.032,7.858,2.032-7.858h1.687l-2.875,9.7h-1.8l-2.032-7.36-2.147,7.36h-1.8Zm17.748,9.852a3.73,3.73,0,0,1-3.795-3.68v-.307a3.664,3.664,0,0,1,3.795-3.948,3.568,3.568,0,0,1,3.795,3.335v.46a4.887,4.887,0,0,1-.038.767h-5.865a2.112,2.112,0,0,0,2.108,2.032,1.864,1.864,0,0,0,1.8-1.073h1.725A3.557,3.557,0,0,1,114.162,304.725Zm-2.147-4.638h4.255a2,2,0,0,0-2.032-1.955h-.115A2.1,2.1,0,0,0,112.015,300.087Zm11.462-3.335a3.645,3.645,0,0,1,3.6,3.948,3.713,3.713,0,0,1-3.6,4.025,3.341,3.341,0,0,1-2.683-1.265v1.112h-1.572V294.26h1.61v3.795A3.361,3.361,0,0,1,123.477,296.752Zm-.345,1.418a2.6,2.6,0,0,0,0,5.175,2.406,2.406,0,0,0,2.338-2.492h0v-.115a2.33,2.33,0,0,0-2.147-2.53h0l-.192-.038Zm12.5,6.4h-3.872v-9.7h3.718c2.032,0,3.143,1.112,3.143,2.492a2.267,2.267,0,0,1-1.648,2.223,2.391,2.391,0,0,1,1.878,2.377C138.81,303.46,137.622,304.572,135.628,304.572Zm-.307-8.395h-1.993v2.8h1.955c1.035,0,1.648-.5,1.648-1.38S136.357,296.177,135.322,296.177Zm.115,4.063h-2.108v3.028h2.147c1.073,0,1.725-.537,1.725-1.5A1.58,1.58,0,0,0,135.437,300.24Zm6.4,4.332h-1.61V296.9h1.61v1.112a2.458,2.458,0,0,1,2.3-1.265V298.4h-.422c-1.188,0-1.917.5-1.917,2.108Zm6.593-7.82a3.341,3.341,0,0,1,2.683,1.265v-1.15h1.61v7.743h-1.61v-1.15a3.34,3.34,0,0,1-2.683,1.265,3.736,3.736,0,0,1-3.6-4.025A3.645,3.645,0,0,1,148.432,296.752Zm.345,1.418a2.356,2.356,0,0,0-2.338,2.377h0v.153a2.412,2.412,0,0,0,2.223,2.607h.115a2.611,2.611,0,0,0,2.338-2.837,2.575,2.575,0,0,0-2.338-2.3Zm11.193,2.108c0-1.418-.767-2.147-1.917-2.147a1.89,1.89,0,0,0-1.955,2.147v4.293h-1.61V296.9h1.61v.882a2.915,2.915,0,0,1,2.3-1,3.01,3.01,0,0,1,3.182,3.3v4.523h-1.61Zm6.44-3.527a3.491,3.491,0,0,1,2.645,1.188v-3.68h1.61v10.35h-1.61v-1.15a3.138,3.138,0,0,1-2.683,1.265,4,4,0,0,1,.038-7.973Zm.345,1.418a2.356,2.356,0,0,0-2.338,2.377v.153a2.412,2.412,0,0,0,2.223,2.607h.115a2.611,2.611,0,0,0,2.338-2.837,2.575,2.575,0,0,0-2.338-2.3Z" transform="translate(-103.23 -41.008)" fill="#6d6e71"/>
  </g>
</svg>
