<svg xmlns="http://www.w3.org/2000/svg" width="230" height="38.634" viewBox="0 0 230 38.634">
  <g id="shipstation-logo-vector" transform="translate(131.1 -224.8)">
    <path id="Path_35761" data-name="Path 35761" d="M329.522,267.144h-4.1l-.537-3.564a8.9,8.9,0,0,1-2.568-1.073l-2.913,2.146-2.913-2.913,2.146-2.913a10.112,10.112,0,0,1-1.073-2.568L314,255.722v-4.1l3.564-.537a10.114,10.114,0,0,1,1.073-2.568l-2.146-2.913,2.913-2.913,2.913,2.146a10.112,10.112,0,0,1,2.568-1.073l.537-3.564h4.1l.537,3.564a9.368,9.368,0,0,1,2.568,1.073l2.913-2.146,2.913,2.913-2.146,2.913a10.112,10.112,0,0,1,1.073,2.568l3.564.537v4.1l-3.564.537a9.369,9.369,0,0,1-1.073,2.568l2.146,2.913-2.913,2.913-2.913-2.146a10.724,10.724,0,0,1-2.568,1.073Zm-2.07-17.937a4.484,4.484,0,1,0,4.484,4.484,4.49,4.49,0,0,0-4.484-4.484" transform="translate(-274.507 -9.498)" fill="#6cbe45"/>
    <path id="Path_35762" data-name="Path 35762" d="M452.671,241.242a3.619,3.619,0,0,1-2.721-1.15,3.84,3.84,0,0,1,0-5.481,3.7,3.7,0,0,1,2.721-1.111,3.907,3.907,0,0,1,1.955.5,3.6,3.6,0,0,1,1.418,1.418,3.906,3.906,0,0,1,.5,1.955,3.73,3.73,0,0,1-1.111,2.721,3.826,3.826,0,0,1-2.76,1.15m0-6.976a3.141,3.141,0,0,0-3.143,3.143,3.07,3.07,0,0,0,.92,2.223,3.008,3.008,0,0,0,2.223.92,3.141,3.141,0,0,0,3.143-3.143,3.008,3.008,0,0,0-.92-2.223,3.134,3.134,0,0,0-2.223-.92m1.955,5.4h-1l-1.111-1.725H451.9v1.725h-.8V235.11h1.878a1.557,1.557,0,0,1,1.035.383,1.281,1.281,0,0,1,.422,1.035,1.3,1.3,0,0,1-.422,1.035,2.287,2.287,0,0,1-.575.345Zm-2.721-2.453h1.073a.8.8,0,0,0,.46-.192.516.516,0,0,0,.192-.46.728.728,0,0,0-.192-.5.607.607,0,0,0-.46-.192H451.9Z" transform="translate(-357.642 -5.366)" fill="#173680"/>
    <path id="Path_35763" data-name="Path 35763" d="M-73.6,255l6.324-30.2h6.516l-2.491,11.881.115.038a9.087,9.087,0,0,1,6.861-3.143c3.411,0,5.327,1.993,5.327,5.366a21.55,21.55,0,0,1-.46,3.871l-2.53,12.226h-6.516L-58,243.2a12.038,12.038,0,0,0,.268-2.606c0-1.3-.575-2.185-2.031-2.185-2.07,0-4.293,2.415-5.136,6.286L-67.084,255Z" transform="translate(-35.462)" fill="#173680"/>
    <path id="Path_35764" data-name="Path 35764" d="M17.8,277.58l4.523-21.616c.537-2.453,1.035-5.711,1.3-7.857h5.749l-.383,3.181h.077a8.849,8.849,0,0,1,6.861-3.488c4.753,0,6.707,3.564,6.707,7.55,0,7.205-4.983,14.3-12.648,14.3a8.418,8.418,0,0,1-3.794-.767H26.04l-1.8,8.739H17.8Zm9.275-13.261a4.307,4.307,0,0,0,2.683.843c3.641,0,6.132-5.442,6.132-9.237,0-1.571-.613-3.258-2.606-3.258-2.261,0-4.369,2.453-5.136,6.132Z" transform="translate(-91.831 -14.185)" fill="#173680"/>
    <path id="Path_35765" data-name="Path 35765" d="M154.8,234.3l-1.188,5.6h4.753L157.4,244.3h-4.753l-1.686,7.857a11.8,11.8,0,0,0-.345,2.415c0,1.111.575,1.763,1.916,1.763a12.987,12.987,0,0,0,1.725-.077l-.767,4.6a14.227,14.227,0,0,1-3.871.422c-3.871,0-5.749-1.84-5.749-4.561a17.775,17.775,0,0,1,.46-3.679l1.84-8.7H143.3l1.035-4.408h2.875l.8-3.871Z" transform="translate(-169.231 -5.859)" fill="#173680"/>
    <path id="Path_35766" data-name="Path 35766" d="M194.653,269.618c.038-1.188.192-2.53.268-3.948h-.153c-2.031,3.258-4.753,4.369-7.167,4.369-3.909,0-6.4-2.836-6.4-6.975,0-7.934,3.756-14.564,15.522-14.564a26.836,26.836,0,0,1,7.129,1l-2.376,10.885a48.165,48.165,0,0,0-.958,9.237Zm1.955-16.442a7.758,7.758,0,0,0-1.648-.153c-4.829,0-7.052,4.638-7.052,8.854,0,2.031.69,3.373,2.453,3.373,1.916,0,4.139-2.185,5.136-6.937Z" transform="translate(-192.605 -14.617)" fill="#173680"/>
    <path id="Path_35767" data-name="Path 35767" d="M257.621,234.3l-1.15,5.634h4.753l-.92,4.408h-4.753l-1.686,7.857a11.8,11.8,0,0,0-.345,2.415c0,1.112.575,1.763,1.916,1.763a12.987,12.987,0,0,0,1.725-.077l-.767,4.6a14.409,14.409,0,0,1-3.871.422c-3.871,0-5.749-1.84-5.749-4.561a17.773,17.773,0,0,1,.46-3.679l1.84-8.7H246.2l.958-4.408h2.875l.8-3.871Z" transform="translate(-232.692 -5.859)" fill="#173680"/>
    <path id="Path_35768" data-name="Path 35768" d="M384.2,269.125l2.951-14.143c.575-2.568.882-4.868,1.226-6.822h5.711l-.383,3.219h.077a9.371,9.371,0,0,1,7.512-3.679c3.641,0,5.519,2.108,5.519,5.4a21.249,21.249,0,0,1-.422,3.679l-2.606,12.341H397.27l2.491-12.035a11.415,11.415,0,0,0,.23-2.3c0-1.341-.537-2.261-2.031-2.261-1.993,0-4.331,2.3-5.212,6.784l-2.031,9.85H384.2Z" transform="translate(-317.801 -14.123)" fill="#173680"/>
    <path id="Path_35769" data-name="Path 35769" d="M6.066,231.786h.077A3.47,3.47,0,0,0,9.9,228.413,2.928,2.928,0,0,0,6.679,225.5,3.509,3.509,0,0,0,3,228.911a2.83,2.83,0,0,0,3.066,2.875" transform="translate(-82.704 -0.432)" fill="#173680"/>
    <path id="Path_35770" data-name="Path 35770" d="M1.705,248.6H-4.619L-7.34,261.554A15.432,15.432,0,0,0-7.8,265.2c0,2.683,1.878,4.484,5.672,4.484a14.3,14.3,0,0,0,3.833-.422l.728-4.523a13.579,13.579,0,0,1-1.725.077c-1.341,0-1.916-.652-1.916-1.725a11.461,11.461,0,0,1,.345-2.376Z" transform="translate(-76.043 -14.678)" fill="#173680"/>
    <path id="Path_35771" data-name="Path 35771" d="M300.328,231.786h.077a3.525,3.525,0,0,0,3.794-3.373,2.928,2.928,0,0,0-3.219-2.913,3.532,3.532,0,0,0-3.679,3.411,2.8,2.8,0,0,0,3.028,2.875" transform="translate(-264.207 -0.432)" fill="#173680"/>
    <path id="Path_35772" data-name="Path 35772" d="M296.005,248.6h-6.324l-2.721,12.954a15.43,15.43,0,0,0-.46,3.641c0,2.683,1.878,4.484,5.672,4.484a14.3,14.3,0,0,0,3.833-.422l.728-4.523a13.579,13.579,0,0,1-1.725.077c-1.341,0-1.916-.652-1.916-1.725a14.435,14.435,0,0,1,.307-2.376Z" transform="translate(-257.547 -14.678)" fill="#173680"/>
    <path id="Path_35773" data-name="Path 35773" d="M-116.8,240.14c-2.645-1.571-4.178-2.913-4.178-4.484,0-1.763,1.686-3.219,4.676-3.219a12.426,12.426,0,0,1,5.941,1.763l1.226-5.136.038-.115a13.914,13.914,0,0,0-6.784-1.648c-7.474,0-11.843,3.411-11.843,9.313,0,3.373,2.645,5.941,5.711,7.742,2.645,1.495,3.948,2.261,3.948,3.986,0,2.261-2.261,3.526-4.906,3.449-2.53,0-5.174-1.418-6.822-2.3l-1.3,5.4a15.331,15.331,0,0,0,7.627,2.07c7.129,0,12.188-2.683,12.188-9.62.038-3.181-2.031-5.289-5.519-7.205" transform="translate(0 -1.542)" fill="#173680"/>
    <path id="Path_35774" data-name="Path 35774" d="M97.7,240.14c-2.645-1.571-4.178-2.913-4.178-4.484,0-1.763,1.686-3.219,4.676-3.219a12.426,12.426,0,0,1,5.941,1.763l1.226-5.136.038-.115a14.047,14.047,0,0,0-6.784-1.648c-7.474,0-11.843,3.411-11.843,9.313,0,3.373,2.645,5.941,5.711,7.742,2.645,1.495,3.948,2.261,3.948,3.986,0,2.261-2.261,3.526-4.906,3.449-2.53,0-5.174-1.418-6.822-2.3l-1.3,5.4a15.331,15.331,0,0,0,7.627,2.07c7.129,0,12.226-2.683,12.226-9.62.038-3.181-2.07-5.289-5.557-7.205" transform="translate(-132.289 -1.542)" fill="#173680"/>
  </g>
</svg>
