<svg xmlns="http://www.w3.org/2000/svg" width="168.225" height="70" viewBox="0 0 168.225 70">
  <path id="stripe-4" d="M11.822,27.43c0-1.822,1.5-2.523,3.972-2.523A26.065,26.065,0,0,1,27.383,27.9V16.916a30.817,30.817,0,0,0-11.588-2.149C6.308,14.766,0,19.72,0,27.991c0,12.9,17.757,10.841,17.757,16.4,0,2.149-1.869,2.85-4.486,2.85-3.878,0-8.832-1.589-12.757-3.738V54.626A32.393,32.393,0,0,0,13.271,57.29c9.72,0,16.4-4.813,16.4-13.177C29.626,30.187,11.822,32.664,11.822,27.43ZM43.411,5.421l-11.4,2.43-.047,37.43a11.741,11.741,0,0,0,12.1,12.009,18.047,18.047,0,0,0,8.177-1.542V46.262c-1.495.608-8.878,2.757-8.878-4.159V25.514h8.878V15.561H43.365Zm23.365,13.6-.748-3.458H55.935V56.449H67.617V28.739c2.757-3.6,7.43-2.944,8.878-2.43V15.561c-1.5-.561-6.963-1.589-9.72,3.458Zm12.57-3.458H91.075V56.449H79.346V15.561Zm0-3.551L91.075,9.486V0L79.346,2.477v9.532Zm36.122,2.757a13.2,13.2,0,0,0-9.159,3.645l-.608-2.9H95.421V70L107.1,67.524,107.15,54.3a13.159,13.159,0,0,0,8.271,2.944c8.365,0,15.981-6.729,15.981-21.542-.047-13.552-7.757-20.935-15.935-20.935Zm-2.8,32.2a6.984,6.984,0,0,1-5.514-2.2L107.1,27.43a6.955,6.955,0,0,1,5.561-2.289c4.252,0,7.2,4.766,7.2,10.888,0,6.262-2.9,10.935-7.2,10.935Zm55.561-10.794c0-11.963-5.795-21.4-16.869-21.4-11.122,0-17.851,9.44-17.851,21.309,0,14.065,7.944,21.168,19.346,21.168a26.057,26.057,0,0,0,12.944-3.037V44.86a24.81,24.81,0,0,1-11.449,2.57c-4.533,0-8.552-1.589-9.065-7.1h22.851C168.132,39.719,168.225,37.29,168.225,36.168Zm-23.084-4.439c0-5.28,3.225-7.477,6.168-7.477,2.85,0,5.888,2.2,5.888,7.477Z" fill="#6772e5"/>
</svg>
