<svg xmlns="http://www.w3.org/2000/svg" width="170" height="63.813" viewBox="0 0 170 63.813">
  <g id="Vector_Smart_Object" transform="translate(-5.8 -4.2)">
    <path id="Path_35778" data-name="Path 35778" d="M28.215,46.4a18.821,18.821,0,0,0-7.769,1.581,17.08,17.08,0,0,0-3.885,2.51V48.944c0-2.853-2.063-2.3-5.466-2.3-3.369,0-5.294-.481-5.294,2.338V93.429c0,2.716,1.925,2.235,5.191,2.235s5.879.447,5.879-2.2V73.937c0-3.953.344-9.8,2.613-13.167,1.856-2.716,4.71-3.61,7.907-3.61,2.853,0,5.638.688,7.46,3.06,2.063,2.681,2.475,6.91,2.475,10.176V93.361c0,2.613,2.063,2.269,5.4,2.269,3.507,0,5.741.413,5.741-2.372V68.54c0-5.844-1.2-11.86-5.225-16.33-3.919-4.3-9.316-5.81-15.023-5.81" transform="translate(0 -27.692)" fill="#45c0ef"/>
    <path id="Path_35779" data-name="Path 35779" d="M302.764,18.811H297.5V7.157c0-2.372-1.41-2.957-5.535-2.957-4.091,0-5.535.653-5.535,2.957V18.811h-6.463c-1.856,0-1.788,2.028-1.788,4.744,0,2.853-.241,5.707,1.856,5.707h6.394V65.943c0,2.406,2.647,2.028,5.707,2.028,3.3,0,5.363.516,5.363-2.1V29.262h5.5c2.372,0,2.441-1.65,2.441-5.122,0-3.782.034-5.329-2.681-5.329" transform="translate(-178.738)" fill="#45c0ef"/>
    <path id="Path_35780" data-name="Path 35780" d="M182.483,72.539a4.5,4.5,0,0,0-3.575.378,4.615,4.615,0,0,0-2.269,2.75,14.554,14.554,0,0,1-1.96,4.022h0s-.516.756-.791,1.1a15.274,15.274,0,0,1-15.058,5.26,15.815,15.815,0,0,1-4.882-1.96c-4.194-2.578-7.254-8.629-7.116-13.511A15.29,15.29,0,0,1,159.9,56.037a13.6,13.6,0,0,1,2.028-.1h-.034c-.1,0-.172-.034-.275-.034h.069c.069,0,.138.034.206.034h.034A15.975,15.975,0,0,1,172.1,59.647l.413.344-.447.241q-8.56,4.693-17.12,9.42a5.471,5.471,0,0,0-2.682,3.128,4.572,4.572,0,0,0,0,2.544h0a4.779,4.779,0,0,0,.413.963,4.587,4.587,0,0,0,2.819,2.166,5.833,5.833,0,0,0,4.263-.722l22.071-12.1a4.977,4.977,0,0,0,2.269-2.681c1.513-3.953-4.813-9.626-6.979-11.276a24.681,24.681,0,0,0-7.873-3.988h0a24.528,24.528,0,0,0-26.4,8.182,24.832,24.832,0,0,0-5.26,17.67,24.533,24.533,0,0,0,2.853,9.282,25.019,25.019,0,0,0,6.36,7.7,24.15,24.15,0,0,0,8.354,4.3,24.873,24.873,0,0,0,9.282.791,24.471,24.471,0,0,0,9.248-2.922,26.852,26.852,0,0,0,7.735-5.982,19.546,19.546,0,0,0,4.229-8.423,4.6,4.6,0,0,0-.378-3.507,4.672,4.672,0,0,0-2.785-2.235" transform="translate(-86.406 -27.841)" fill="#45c0ef"/>
    <path id="Path_35781" data-name="Path 35781" d="M404.1,61.3a26.6,26.6,0,0,0-5.329-7.838,26.282,26.282,0,0,0-7.769-5.329,22.773,22.773,0,0,0-6.36-1.788c.275.1-.034,0,0,0a.12.12,0,0,1-.069-.034,21.493,21.493,0,0,0-2.991-.206h-.069a26.907,26.907,0,0,0-9.8,2.2,24.853,24.853,0,0,0-7.838,5.294,24.261,24.261,0,0,0-5.191,7.769,25.287,25.287,0,0,0,.069,19.355,23.226,23.226,0,0,0,5.329,7.769,23.929,23.929,0,0,0,7.8,5.088,24.552,24.552,0,0,0,8.285,1.822h1.272a24.082,24.082,0,0,0,9.695-1.96,24.7,24.7,0,0,0,7.8-5.294,26.405,26.405,0,0,0,5.225-7.769,23.526,23.526,0,0,0,1.96-9.454A24.286,24.286,0,0,0,404.1,61.3m-10.279,18.5a16.123,16.123,0,0,1-1.581,1.856,14.82,14.82,0,0,1-4.916,3.266,15.419,15.419,0,0,1-11.86.034,16.213,16.213,0,0,1-4.882-3.266,15.263,15.263,0,0,1-3.266-4.847,14.444,14.444,0,0,1-1.2-5.913,15.321,15.321,0,0,1,1.2-5.947,15.752,15.752,0,0,1,3.266-4.916,15.034,15.034,0,0,1,4.882-3.266,14.294,14.294,0,0,1,4.744-1.134c-.447-.034-.447-.034.034,0h-.034s.791-.034,1.134-.034a14.721,14.721,0,0,1,5.947,1.2,16.158,16.158,0,0,1,4.916,3.266,14.822,14.822,0,0,1,3.266,4.916,15.628,15.628,0,0,1,0,11.86,13.784,13.784,0,0,1-1.65,2.922Z" transform="translate(-230.333 -27.496)" fill="#45c0ef"/>
  </g>
</svg>
