<svg id="Group_33511" data-name="Group 33511" xmlns="http://www.w3.org/2000/svg" width="230" height="43.763" viewBox="0 0 230 43.763">
  <path id="Path_35874" data-name="Path 35874" d="M14.931,43.763h14.1v-10.7l-3.4-3.4H18.335l-3.4,3.4v10.7ZM32.922,14.831l-3.4,3.4v7.294l3.4,3.4h10.7v-14.1ZM28.789,0H14.931V10.7l3.4,3.4h7.294l3.4-3.4V0ZM43.62,43.763v-10.7l-3.4-3.4h-10.7v14.1ZM3.261,0,.1,3.4V14.1H14.2V0Zm26.5,0V10.7l3.4,3.4H43.62V0Zm-7.78,23.827a1.986,1.986,0,0,1-2.188-1.945,1.945,1.945,0,1,1,3.89,0A1.879,1.879,0,0,1,21.982,23.827Zm-8.023-9H.1v14.1H10.8l3.4-3.4v-10.7Zm0,18.235-3.4-3.4H.1v14.1H10.8l3.4-3.4V33.066Z" transform="translate(-0.1)" fill="#0ecad4"/>
  <path id="Path_35875" data-name="Path 35875" d="M41.278,31.491c-.243,0-.243,0-.486-.243l-3.4-12.4h0l-3.4,12.4c0,.243-.243.243-.486.243H29.364c-.243,0-.243,0-.486-.243L22.8,9.61c0-.243,0-.243.243-.243h5.349a.849.849,0,0,1,.486.243L31.8,22.5h0L35.2,9.61c0-.243.243-.243.486-.243h3.4c.243,0,.243,0,.486.243L43.223,22.5h0L45.9,9.61c0-.243.243-.243.486-.243h5.349a.238.238,0,0,1,.243.243L45.9,31.248c0,.243-.243.243-.486.243Zm14.831,0a.238.238,0,0,1-.243-.243V9.61a.238.238,0,0,1,.243-.243h9c5.349,0,8.266,3.161,8.266,7.294,0,4.376-2.918,7.537-8.266,7.537H61.944c-.243,0-.243,0-.243.243v6.808a.238.238,0,0,1-.243.243ZM67.536,16.66c0-1.459-.973-2.431-2.918-2.431H61.7c-.243,0-.243,0-.243.243v4.619c0,.243,0,.243.243.243h2.918C66.563,19.092,67.536,18.119,67.536,16.66Zm13.372,9.482c-.486-1.216-.486-2.674-.486-5.592a25.684,25.684,0,0,1,.486-5.592A7.507,7.507,0,0,1,88.2,9.61c3.647,0,6.321,1.7,7.294,5.349.729,1.216.729,2.431.729,5.106,0,.243,0,.486-.486.486H81.88a.238.238,0,0,0-.243.243,17.347,17.347,0,0,0,.486,4.619,6.213,6.213,0,0,0,6.321,4.619,7.527,7.527,0,0,0,6.321-2.918c.243-.243.486-.243.486,0l.243.243c.243.243.243.486,0,.486a8.782,8.782,0,0,1-7.294,3.4c-3.4.243-6.078-1.7-7.294-5.106Zm13.858-6.808c.243,0,.243,0,.243-.243a14.715,14.715,0,0,0-.486-3.647,6.205,6.205,0,0,0-6.078-4.619,5.778,5.778,0,0,0-6.078,4.619,8.119,8.119,0,0,0-.729,3.647c0,.243,0,.243.243.243ZM116.162,31a.523.523,0,0,1-.486-.486v-12.4c0-4.863-1.945-7.051-6.078-7.051a6.193,6.193,0,0,0-6.321,6.564V30.762a.523.523,0,0,1-.486.486H102.3a.523.523,0,0,1-.486-.486V10.582a.523.523,0,0,1,.486-.486h.486a.523.523,0,0,1,.486.486V13.5h0A6.515,6.515,0,0,1,109.6,9.61c4.619,0,7.294,2.674,7.294,8.023V30.519A.523.523,0,0,1,116.4,31Zm7.294,5.349c-.243-.243-.243-.486,0-.486l.243-.243c.243-.243.486,0,.486.243a6.767,6.767,0,0,0,5.592,2.431c3.89,0,6.564-1.945,6.564-7.051V27.6h0c-.973,2.431-2.918,3.89-6.564,3.89a7.393,7.393,0,0,1-7.051-4.863A18.974,18.974,0,0,1,122,20.793a17.937,17.937,0,0,1,.729-5.835c.973-3.161,3.4-4.863,7.051-4.863s5.592,1.7,6.564,3.89h0v-3.4a.523.523,0,0,1,.486-.486h.486a.523.523,0,0,1,.486.486V31c0,5.835-3.161,8.266-7.78,8.266a6.864,6.864,0,0,1-6.564-2.918Zm12.4-10.211c.486-1.216.486-2.918.486-5.592a29.524,29.524,0,0,0-.486-5.592c-.973-3.161-3.161-4.133-5.835-4.133a5.774,5.774,0,0,0-5.835,4.133,16.322,16.322,0,0,0-.729,5.592,17.3,17.3,0,0,0,.729,5.592,5.774,5.774,0,0,0,5.835,4.133,5.693,5.693,0,0,0,5.835-4.133Zm9.239-22.368a.523.523,0,0,1-.486-.486v-1.7a.523.523,0,0,1,.486-.486h.973a.523.523,0,0,1,.486.486v1.7a.523.523,0,0,1-.486.486ZM145.337,31a.523.523,0,0,1-.486-.486V10.582a.523.523,0,0,1,.486-.486h.486a.523.523,0,0,1,.486.486V30.519a.523.523,0,0,1-.486.486Zm22.125,0a.523.523,0,0,1-.486-.486v-12.4c0-4.863-1.945-7.051-6.078-7.051a6.193,6.193,0,0,0-6.321,6.564V30.762a.523.523,0,0,1-.486.486H153.6a.523.523,0,0,1-.486-.486V10.582a.523.523,0,0,1,.486-.486h.486a.523.523,0,0,1,.486.486V13.5h0A6.515,6.515,0,0,1,160.9,9.61c4.619,0,7.294,2.674,7.294,8.023V30.519A.523.523,0,0,1,167.7,31Zm6.808-4.863c-.486-1.216-.486-2.674-.486-5.592a25.685,25.685,0,0,1,.486-5.592,7.507,7.507,0,0,1,7.294-5.349c3.647,0,6.321,1.7,7.294,5.349.486,1.216.486,2.674.486,5.349a.523.523,0,0,1-.486.486H175a.238.238,0,0,0-.243.243,17.347,17.347,0,0,0,.486,4.619,6.213,6.213,0,0,0,6.321,4.619,7.527,7.527,0,0,0,6.321-2.918c.243-.243.486-.243.486,0l.243.243c.243.243.243.486,0,.486a8.782,8.782,0,0,1-7.294,3.4c-3.161,0-5.835-1.945-7.051-5.349Zm13.858-6.808c.243,0,.243,0,.243-.243a14.715,14.715,0,0,0-.486-3.647,6.205,6.205,0,0,0-6.078-4.619,5.778,5.778,0,0,0-6.078,4.619,14.715,14.715,0,0,0-.486,3.647c0,.243,0,.243.243.243Zm4.133-7.051a2.674,2.674,0,1,1,2.674,2.674C193.233,14.715,192.261,13.743,192.261,12.284Zm4.619,0a2.188,2.188,0,1,0-2.188,2.188A2.179,2.179,0,0,0,196.88,12.284Zm-2.918,1.459h0V11.068h.973a.891.891,0,0,1,.973.973c0,.243-.243.729-.486.729l.486.729v.243h-.486l-.486-1.216h-.486V13.5c-.243.243-.243.243-.486.243Zm1.459-2.188a.523.523,0,0,0-.486-.486h-.729v.973h.729C195.422,12.041,195.422,11.8,195.422,11.555Z" transform="translate(32.39 1.574)"/>
</svg>
