<svg xmlns="http://www.w3.org/2000/svg" width="170" height="48.048" viewBox="0 0 170 48.048">
  <g id="Yotpo" transform="translate(-129.9 -223.2)">
    <g id="Group_33480" data-name="Group 33480" transform="translate(129.9 223.2)">
      <g id="Group_33479" data-name="Group 33479" transform="translate(0)">
        <g id="Group_33478" data-name="Group 33478">
          <path id="Path_35777" data-name="Path 35777" d="M139.071,230.838l6.417,17.216,6.417-17.216h9.2l-16,40h-8.8l4.789-12.4L129.9,230.838h9.171Zm98.82-.814c8.389,0,14.4,6.417,14.4,15.62s-6.01,15.62-14.4,15.62a11.594,11.594,0,0,1-7.606-2.41h0v12.4h-8.8v-40h7.982v2.786h0c1.221-2.786,4.414-4.007,8.42-4.007Zm-60.037,0c9.2,0,16,6.417,16,15.62s-6.417,15.62-16,15.62c-9.2,0-16-6.417-16-15.62S168.276,230.024,177.854,230.024Zm30.832-6.01v6.417h7.2v7.606h-7.2v10.8c0,2.41,1.189,3.6,3.193,3.6h0a5.662,5.662,0,0,0,3.6-1.189h0l.407-.407h0v8.389h-.407a8.421,8.421,0,0,1-4.789,1.189c-7.2,0-11.206-4.007-11.206-11.206V237.223h-3.193v-7.606h3.6V223.2h8.8v.814Zm63.2,6.01c9.2,0,16,6.417,16,15.62s-6.417,15.62-16,15.62c-9.2,0-16-6.417-16-15.62S262.682,230.024,271.885,230.024Zm23.226,21.223a4.789,4.789,0,1,1-4.789,4.789A4.806,4.806,0,0,1,295.111,251.246Zm-58.816-13.209c-4.007,0-6.792,2.786-6.792,7.606,0,4.414,2.786,7.606,6.792,7.606s6.792-2.786,6.792-7.606C243.087,241.23,240.677,238.037,236.295,238.037Zm-58.44,0c-4.007,0-6.793,3.193-6.793,7.606s2.786,7.606,6.793,7.606,6.792-3.193,6.792-7.606-2.786-7.606-6.792-7.606Zm94.031,0c-4.007,0-6.793,3.193-6.793,7.606s2.786,7.606,6.793,7.606,6.792-3.193,6.792-7.606S275.892,238.037,271.885,238.037Z" transform="translate(-129.9 -223.2)" fill="#0042e4" fill-rule="evenodd"/>
        </g>
      </g>
    </g>
  </g>
</svg>
