<svg xmlns="http://www.w3.org/2000/svg" width="14.714" height="14.714" viewBox="0 0 14.714 14.714">
  <path id="at-icon" d="M97.313,90a7.357,7.357,0,0,0,0,14.714,7.581,7.581,0,0,0,4.536-1.507.665.665,0,0,0-.809-1.055,6.234,6.234,0,0,1-3.726,1.241,6.037,6.037,0,1,1,6.072-6.081v.665a1.33,1.33,0,1,1-2.659,0V94.654a.665.665,0,1,0-1.33,0V94.7a3.426,3.426,0,0,0-2.083-.707,3.324,3.324,0,1,0,0,6.648,3.442,3.442,0,0,0,2.559-1.144,2.658,2.658,0,0,0,4.843-1.515v-.665A7.383,7.383,0,0,0,97.313,90Zm0,9.316a2,2,0,0,1,0-4.007,2,2,0,1,1,0,4.007Z" transform="translate(-90 -90)" fill="#ff5800"/>
</svg>
