<svg xmlns="http://www.w3.org/2000/svg" width="34.964" height="34.958" viewBox="0 0 34.964 34.958">
  <path id="ring-ico" d="M21.01,27.271a8.448,8.448,0,0,1-1.172-.1,11.988,11.988,0,0,1-1.37-.238,16.121,16.121,0,0,1-2.143-.723,23.316,23.316,0,0,1-3.154-1.626,27.37,27.37,0,0,1-5.009-3.9c-.906-.876-1.8-1.767-2.63-2.718a27.655,27.655,0,0,1-3.656-5.26,17.034,17.034,0,0,1-1.2-2.768,14.985,14.985,0,0,1-.521-2A7.241,7.241,0,0,1,.007,6.275,4.534,4.534,0,0,1,.064,5.6a2.665,2.665,0,0,1,.753-1.39Q2.721,2.324,4.608.423A1.348,1.348,0,0,1,5.281.031a1.117,1.117,0,0,1,.981.221,1.975,1.975,0,0,1,.5.606q1.521,2.89,3.045,5.778a1.464,1.464,0,0,1,.106,1.11,1.848,1.848,0,0,1-.485.831c-.447.446-.89.893-1.34,1.335a.7.7,0,0,0-.2.409.314.314,0,0,0,.011.112,4.809,4.809,0,0,0,.432,1.176,13.257,13.257,0,0,0,1.722,2.572c.447.532,1.426,1.517,1.426,1.517s.828.817,1.257,1.21a14.183,14.183,0,0,0,2.589,1.876c.208.117.424.215.64.318a3.049,3.049,0,0,0,.929.271.506.506,0,0,0,.43-.161l.725-.734c.285-.291.565-.587.855-.872a1.833,1.833,0,0,1,2.225-.236q2.678,1.585,5.36,3.168a2.06,2.06,0,0,1,.437.34A1.231,1.231,0,0,1,27,22.531a4.127,4.127,0,0,1-.326.346L24.628,24.9c-.561.555-1.119,1.113-1.679,1.669a2.571,2.571,0,0,1-1.11.609A3.065,3.065,0,0,1,21.01,27.271Z" transform="matrix(0.94, 0.342, -0.342, 0.94, 9.327, 0)" fill="#f26322" fill-rule="evenodd"/>
</svg>
