<svg xmlns="http://www.w3.org/2000/svg" xmlns:xlink="http://www.w3.org/1999/xlink" width="24" height="24" viewBox="0 0 24 24">
  <defs>
    <clipPath id="clip-path">
      <rect id="Rectangle_547" data-name="Rectangle 547" width="24" height="24" transform="translate(23737 105)" fill="#a2a2a2"/>
    </clipPath>
  </defs>
  <g id="uk_flag" transform="translate(-23737 -105)" clip-path="url(#clip-path)">
    <g id="Group_4560" data-name="Group 4560">
      <rect id="Rectangle_82" data-name="Rectangle 82" width="10.404" height="24" transform="translate(23743.777 105)" fill="#f5f5f5"/>
      <path id="Union_5" data-name="Union 5" d="M17,23.956V0h7V23.956Zm-17,0V0H7V23.956ZM11.561,16.05l.052-1.791a.154.154,0,0,0-.049-.118.15.15,0,0,0-.12-.041l-1.673.142.167-.446a.476.476,0,0,0-.21-.579L7.776,12.1l.448-.223a.329.329,0,0,0,.179-.338l-.146-1.093.827.241a.33.33,0,0,0,.413-.246l.079-.357.776.908a.163.163,0,0,0,.285-.133l-.332-1.927.5.139a.329.329,0,0,0,.379-.162l.535-1,.535,1a.33.33,0,0,0,.379.162l.5-.139-.331,1.927a.163.163,0,0,0,.284.133l.777-.908.078.357a.33.33,0,0,0,.414.246l.826-.241-.146,1.093a.332.332,0,0,0,.179.338l.448.223L13.72,13.217a.475.475,0,0,0-.208.579l.167.446L12.005,14.1a.151.151,0,0,0-.12.041.154.154,0,0,0-.049.118l.052,1.791Z" transform="translate(23737 105)" fill="#ff4b55"/>
    </g>
  </g>
</svg>
