<svg xmlns="http://www.w3.org/2000/svg" width="48" height="48" viewBox="0 0 48 48">
  <g id="Union_1" data-name="Union 1" transform="translate(5979.068 -0.932)" fill="#fff">
    <path d="M -5936.7548828125 48.4322509765625 C -5938.1396484375 48.4322509765625 -5939.44140625 47.89334106445312 -5940.4208984375 46.91480255126953 L -5954.71337890625 32.62057113647461 L -5955.06689453125 32.26698303222656 L -5955.42041015625 32.62053298950195 L -5969.7158203125 46.91498184204102 C -5970.69482421875 47.89339447021484 -5971.9970703125 48.4322509765625 -5973.38232421875 48.4322509765625 C -5974.76806640625 48.4322509765625 -5976.0703125 47.89339447021484 -5977.04931640625 46.91492462158203 C -5979.0703125 44.89263153076172 -5979.0703125 41.60181427001953 -5977.04931640625 39.5793342590332 L -5962.7568359375 25.28579330444336 L -5962.4033203125 24.93225288391113 L -5962.7568359375 24.57871246337891 L -5977.04931640625 10.28508281707764 C -5979.0703125 8.262692451477051 -5979.0703125 4.971882820129395 -5977.04931640625 2.949412822723389 C -5976.06884765625 1.971252918243408 -5974.765625 1.432262897491455 -5973.380859375 1.432262897491455 C -5971.99609375 1.432262897491455 -5970.69482421875 1.971122860908508 -5969.7158203125 2.94959282875061 L -5955.42041015625 17.24397277832031 L -5955.06689453125 17.5975227355957 L -5954.71337890625 17.24393272399902 L -5940.4208984375 2.949492931365967 C -5939.44140625 1.971162915229797 -5938.13916015625 1.432262897491455 -5936.75390625 1.432262897491455 C -5935.36865234375 1.432262897491455 -5934.06591796875 1.971212863922119 -5933.08544921875 2.949822902679443 C -5931.06640625 4.971832752227783 -5931.06640625 8.26274299621582 -5933.08642578125 10.28529262542725 L -5947.3798828125 24.57869338989258 L -5947.7333984375 24.93225288391113 L -5947.3798828125 25.28581237792969 L -5933.0859375 39.57945251464844 C -5931.06640625 41.60176467895508 -5931.06640625 44.89268112182617 -5933.08642578125 46.91522216796875 C -5934.06640625 47.89326477050781 -5935.36962890625 48.4322509765625 -5936.7548828125 48.4322509765625 Z" stroke="none"/>
    <path d="M -5936.7548828125 47.9322509765625 C -5935.5029296875 47.9322509765625 -5934.3251953125 47.44512176513672 -5933.43994140625 46.56189346313477 C -5931.61474609375 44.73418426513672 -5931.61474609375 41.76026153564453 -5933.439453125 39.93300247192383 L -5948.4404296875 24.93225288391113 L -5933.43994140625 9.931962966918945 C -5931.61474609375 8.104243278503418 -5931.61474609375 5.130332946777344 -5933.43896484375 3.303692817687988 C -5934.32470703125 2.419312953948975 -5935.501953125 1.932262897491455 -5936.75390625 1.932262897491455 C -5938.005859375 1.932262897491455 -5939.1826171875 2.419232845306396 -5940.0673828125 3.303022861480713 L -5955.06689453125 18.30464363098145 L -5970.0693359375 3.303222894668579 C -5970.95361328125 2.419142961502075 -5972.1298828125 1.932262897491455 -5973.380859375 1.932262897491455 C -5974.63232421875 1.932262897491455 -5975.81005859375 2.419392824172974 -5976.6953125 3.302852869033813 C -5978.52197265625 5.130433082580566 -5978.52197265625 8.104143142700195 -5976.69580078125 9.931543350219727 L -5961.6962890625 24.93225288391113 L -5976.6953125 39.93278121948242 C -5978.52197265625 41.76037216186523 -5978.52197265625 44.73407363891602 -5976.69580078125 46.56129455566406 C -5975.8115234375 47.44537353515625 -5974.634765625 47.9322509765625 -5973.38232421875 47.9322509765625 C -5972.13037109375 47.9322509765625 -5970.95361328125 47.44537353515625 -5970.0693359375 46.56142425537109 L -5955.06689453125 31.55986213684082 L -5940.06787109375 46.56105422973633 C -5939.1826171875 47.44528198242188 -5938.005859375 47.9322509765625 -5936.7548828125 47.9322509765625 M -5973.38232421875 48.93225479125977 C -5974.837890625 48.93225479125977 -5976.29296875 48.37768936157227 -5977.40283203125 47.2685546875 C -5979.62353515625 45.04648208618164 -5979.62353515625 41.44796371459961 -5977.40283203125 39.22589111328125 L -5963.1103515625 24.93225288391113 L -5977.40283203125 10.63862323760986 C -5979.62353515625 8.416552543640137 -5979.62353515625 4.818022727966309 -5977.40283203125 2.595963001251221 C -5975.17919921875 0.377692699432373 -5971.5810546875 0.377692699432373 -5969.3623046875 2.595963001251221 L -5955.06689453125 16.89040374755859 L -5940.7744140625 2.595963001251221 C -5938.5537109375 0.377692699432373 -5934.9541015625 0.377692699432373 -5932.732421875 2.595963001251221 C -5930.51318359375 4.818022727966309 -5930.51318359375 8.416552543640137 -5932.732421875 10.63862323760986 L -5947.0263671875 24.93225288391113 L -5932.732421875 39.22589111328125 C -5930.51318359375 41.44796371459961 -5930.51318359375 45.04648208618164 -5932.732421875 47.2685546875 C -5933.84423828125 48.37768173217773 -5935.298828125 48.9322509765625 -5936.7548828125 48.9322509765625 C -5938.2080078125 48.9322509765625 -5939.6640625 48.37768173217773 -5940.7744140625 47.2685546875 L -5955.06689453125 32.97410202026367 L -5969.3623046875 47.2685546875 C -5970.4716796875 48.37768936157227 -5971.92724609375 48.93225479125977 -5973.38232421875 48.93225479125977 Z" stroke="none" fill="#fff"/>
  </g>
</svg>
