<svg version="1.2" xmlns="http://www.w3.org/2000/svg" viewBox="0 0 21 18" width="21" height="18">
	<title>get_st_ic-svg</title>
	<style>
		.s0 { fill: #ffffff } 
	</style>
	<path id="Path_1195" class="s0" d="m20.2 8q0.1 0.2 0.2 0.3 0 0.2 0 0.3 0 0.2 0 0.4-0.1 0.1-0.2 0.2l-6.4 7.8q-0.1 0.1-0.3 0.2-0.1 0.1-0.3 0.1-0.1 0-0.2-0.1-0.2-0.1-0.3-0.2-0.1-0.1-0.1-0.3-0.1-0.1-0.1-0.3 0-0.2 0.1-0.3 0-0.2 0.1-0.3l5.2-6.3h-17.2q-0.1 0-0.3-0.1-0.1-0.1-0.2-0.2-0.1-0.1-0.2-0.3 0-0.1 0-0.3 0-0.1 0-0.3 0.1-0.1 0.2-0.3 0.1-0.1 0.2-0.2 0.2 0 0.3 0h17.2l-5.2-6.3q-0.1-0.1-0.1-0.3-0.1-0.2-0.1-0.3 0-0.2 0.1-0.4 0-0.1 0.1-0.2 0.1-0.2 0.3-0.2 0.1-0.1 0.2-0.1 0.2 0 0.3 0.1 0.2 0 0.3 0.2z"/>
</svg>