<svg xmlns="http://www.w3.org/2000/svg" xmlns:xlink="http://www.w3.org/1999/xlink" width="27.166" height="24.094" viewBox="0 0 27.166 24.094">
  <defs>
    <clipPath id="clip-path">
      <rect id="Rectangle_872" data-name="Rectangle 872" width="27.166" height="24.094" fill="#070938"/>
    </clipPath>
  </defs>
  <g id="Group_8645" data-name="Group 8645" clip-path="url(#clip-path)">
    <g id="Group_32019" data-name="Group 32019" transform="translate(0 2)">
      <path id="Path_16413" data-name="Path 16413" d="M9.463,22.573H.334A.334.334,0,0,1,0,22.239V6.4A1.2,1.2,0,0,1,1.2,5.2H3.229a.334.334,0,1,1,0,.668H1.2a.53.53,0,0,0-.53.53v15.5h8.8a.334.334,0,1,1,0,.668" transform="translate(0 -4.046)" fill="#fff"/>
      <path id="Path_16414" data-name="Path 16414" d="M72.9,10.994a.334.334,0,0,1-.334-.334V6.4a.53.53,0,0,0-.53-.53h-2.7a.334.334,0,1,1,0-.668h2.7a1.2,1.2,0,0,1,1.2,1.2V10.66a.334.334,0,0,1-.334.334" transform="translate(-53.636 -4.046)" fill="#fff"/>
      <path id="Path_16415" data-name="Path 16415" d="M55.115,5.873H53.334a.334.334,0,0,1,0-.668h1.781a.334.334,0,0,1,0,.668" transform="translate(-41.198 -4.046)" fill="#fff"/>
      <path id="Path_16416" data-name="Path 16416" d="M39.115,5.873H37.334a.334.334,0,1,1,0-.668h1.781a.334.334,0,1,1,0,.668" transform="translate(-28.761 -4.046)" fill="#fff"/>
      <path id="Path_16417" data-name="Path 16417" d="M23.115,5.873H21.334a.334.334,0,0,1,0-.668h1.781a.334.334,0,1,1,0,.668" transform="translate(-16.324 -4.046)" fill="#fff"/>
      <path id="Path_16418" data-name="Path 16418" d="M35.362,20.873H21.334a.334.334,0,0,1,0-.668H35.362a.334.334,0,1,1,0,.668" transform="translate(-16.324 -15.706)" fill="#fff"/>
      <path id="Path_16419" data-name="Path 16419" d="M4.006,20.873H1.334a.334.334,0,1,1,0-.668H4.006a.334.334,0,1,1,0,.668" transform="translate(-0.777 -15.706)" fill="#fff"/>
      <path id="Path_16420" data-name="Path 16420" d="M15,3.34a1.052,1.052,0,0,1-.316-.049A1.016,1.016,0,0,1,14,2.318v-1.3A1,1,0,1,1,16,1V2.338a1.007,1.007,0,0,1-.409.808A1,1,0,0,1,15,3.34M15,.668a.377.377,0,0,0-.115.018.347.347,0,0,0-.219.335v1.3a.333.333,0,0,0,.531.29.332.332,0,0,0,.137-.27V1A.334.334,0,0,0,15,.668" transform="translate(-10.883 0)" fill="#fff"/>
      <path id="Path_16421" data-name="Path 16421" d="M31,3.34a1.052,1.052,0,0,1-.316-.049A1.016,1.016,0,0,1,30,2.318v-1.3A1,1,0,1,1,32,1V2.338a1,1,0,0,1-1,1M31,.668a.377.377,0,0,0-.115.018.347.347,0,0,0-.219.335v1.3a.333.333,0,0,0,.531.29.332.332,0,0,0,.137-.27V1A.334.334,0,0,0,31,.668" transform="translate(-23.32 0)" fill="#fff"/>
      <path id="Path_16422" data-name="Path 16422" d="M47,3.34a1.052,1.052,0,0,1-.316-.049A1.016,1.016,0,0,1,46,2.318v-1.3A1,1,0,1,1,48,1V2.338a1.007,1.007,0,0,1-.409.808A1,1,0,0,1,47,3.34M47,.668a.377.377,0,0,0-.115.018.347.347,0,0,0-.219.335v1.3a.333.333,0,0,0,.531.29.332.332,0,0,0,.137-.27V1A.334.334,0,0,0,47,.668" transform="translate(-35.757 0)" fill="#fff"/>
      <path id="Path_16423" data-name="Path 16423" d="M63,3.34a1.052,1.052,0,0,1-.316-.049A1.016,1.016,0,0,1,62,2.318v-1.3A1,1,0,1,1,64,1V2.338a1,1,0,0,1-1,1M63,.668a.377.377,0,0,0-.115.018.347.347,0,0,0-.219.335v1.3a.333.333,0,0,0,.531.29.332.332,0,0,0,.137-.27V1A.334.334,0,0,0,63,.668" transform="translate(-48.194 0)" fill="#fff"/>
      <rect id="Rectangle_869" data-name="Rectangle 869" width="3.563" height="3.563" transform="translate(2.227 12.292)" fill="#fff"/>
      <rect id="Rectangle_870" data-name="Rectangle 870" width="3.563" height="3.563" transform="translate(2.227 7.171)" fill="#fff"/>
      <rect id="Rectangle_871" data-name="Rectangle 871" width="3.563" height="3.563" transform="translate(7.125 7.171)" fill="#fff"/>
      <path id="Path_16424" data-name="Path 16424" d="M35.229,58.768H32.334A.334.334,0,0,1,32,58.434V55.539a.334.334,0,0,1,.334-.334h2.895a.334.334,0,0,1,.334.334v2.895a.334.334,0,0,1-.334.334M32.668,58.1h2.227V55.873H32.668Z" transform="translate(-24.875 -42.913)" fill="#fff"/>
      <path id="Path_16425" data-name="Path 16425" d="M12.018,82.877H3.334A.334.334,0,0,1,3,82.543v-2a.334.334,0,1,1,.668,0v1.67h8.35a.334.334,0,1,1,0,.668" transform="translate(-2.332 -62.346)" fill="#fff"/>
    </g>
    <g id="Group_32018" data-name="Group 32018">
      <path id="Path_16426" data-name="Path 16426" d="M61.237,54.679a7.237,7.237,0,1,1,7.237-7.237,7.245,7.245,0,0,1-7.237,7.237m0-13.806a6.569,6.569,0,1,0,6.569,6.569,6.576,6.576,0,0,0-6.569-6.569" transform="translate(-41.976 -31.253)" fill="#fff"/>
      <path id="Path_16427" data-name="Path 16427" d="M85.334,48.318A.334.334,0,0,1,85,47.984v-.445a.334.334,0,1,1,.668,0v.445a.334.334,0,0,1-.334.334" transform="translate(-66.073 -36.694)" fill="#fff"/>
      <path id="Path_16428" data-name="Path 16428" d="M85.334,94.318A.334.334,0,0,1,85,93.984v-.445a.334.334,0,1,1,.668,0v.445a.334.334,0,0,1-.334.334" transform="translate(-66.073 -72.451)" fill="#fff"/>
      <path id="Path_16429" data-name="Path 16429" d="M61.779,71.873h-.445a.334.334,0,1,1,0-.668h.445a.334.334,0,1,1,0,.668" transform="translate(-47.417 -55.35)" fill="#fff"/>
      <path id="Path_16430" data-name="Path 16430" d="M107.779,71.873h-.445a.334.334,0,1,1,0-.668h.445a.334.334,0,0,1,0,.668" transform="translate(-83.174 -55.35)" fill="#fff"/>
      <path id="Path_16431" data-name="Path 16431" d="M96.334,51.474a.334.334,0,0,1-.289-.5l.223-.385a.334.334,0,0,1,.456-.122c.16.092.122.456.122.456l-.223.385a.334.334,0,0,1-.289.167" transform="translate(-74.624 -39.193)" fill="#fff"/>
      <path id="Path_16432" data-name="Path 16432" d="M73.334,91.311a.334.334,0,0,1-.289-.5l.223-.385a.334.334,0,1,1,.578.334l-.223.385a.334.334,0,0,1-.289.167" transform="translate(-56.745 -70.16)" fill="#fff"/>
      <path id="Path_16433" data-name="Path 16433" d="M64.935,60.095a.331.331,0,0,1-.167-.045l-.385-.223a.334.334,0,1,1,.334-.578l.385.223a.334.334,0,0,1-.167.623" transform="translate(-49.917 -46.021)" fill="#fff"/>
      <path id="Path_16434" data-name="Path 16434" d="M104.772,83.1a.331.331,0,0,1-.167-.045l-.385-.223a.334.334,0,0,1,.334-.578l.385.223a.334.334,0,0,1-.167.623" transform="translate(-80.883 -63.9)" fill="#fff"/>
      <path id="Path_16435" data-name="Path 16435" d="M64.55,83.1a.334.334,0,0,1-.167-.623l.385-.223a.334.334,0,0,1,.334.578l-.385.223a.331.331,0,0,1-.167.045" transform="translate(-49.917 -63.9)" fill="#fff"/>
      <path id="Path_16436" data-name="Path 16436" d="M73.557,51.474a.334.334,0,0,1-.289-.167l-.223-.385a.334.334,0,0,1,.578-.334l.223.385a.334.334,0,0,1-.289.5" transform="translate(-56.745 -39.193)" fill="#fff"/>
      <path id="Path_16437" data-name="Path 16437" d="M96.557,91.311a.334.334,0,0,1-.289-.167l-.223-.385a.334.334,0,0,1,.579-.334l.223.385a.334.334,0,0,1-.289.5" transform="translate(-74.624 -70.16)" fill="#fff"/>
      <path id="Path_16438" data-name="Path 16438" d="M85.334,63.322a.334.334,0,0,1-.168-.623L89.4,60.25a.334.334,0,0,1,.335.578L85.5,63.277a.331.331,0,0,1-.167.045" transform="translate(-66.073 -46.799)" fill="#fff"/>
      <path id="Path_16439" data-name="Path 16439" d="M85.113,70.762a.557.557,0,1,1-.557-.557.557.557,0,0,1,.557.557" transform="translate(-65.296 -54.572)" fill="#fff"/>
      <path id="Path_16440" data-name="Path 16440" d="M58.9,53.015a7.9,7.9,0,1,1,7.9-7.9,7.914,7.914,0,0,1-7.9,7.9m0-15.142a7.237,7.237,0,1,0,7.237,7.237A7.245,7.245,0,0,0,58.9,37.873" transform="translate(-39.644 -28.921)" fill="#fff"/>
      <path id="Path_16441" data-name="Path 16441" d="M75.229,71.873H72.334a.334.334,0,1,1,0-.668h2.895a.334.334,0,0,1,0,.668" transform="translate(-55.968 -55.35)" fill="#fff"/>
    </g>
  </g>
</svg>
