<svg xmlns="http://www.w3.org/2000/svg" width="63.884" height="75" viewBox="0 0 63.884 75">
  <g id="shopify-icon" opacity="0.5">
    <path id="Path_38726" data-name="Path 38726" d="M59.837,14.63a.728.728,0,0,0-.641-.618c-.256-.043-5.873-.441-5.873-.441L49.04,9.154c-.386-.441-1.241-.312-1.563-.22-.042,0-.854.264-2.183.709C44,5.787,41.715,2.252,37.687,2.252h-.344A4.945,4.945,0,0,0,33.582,0C24.2.043,19.734,12.109,18.321,18.274l-6.555,2.074c-2.011.661-2.085.709-2.355,2.687L3.882,67,45.31,75l22.451-4.992c0-.043-7.884-54.957-7.925-55.377ZM43,10.383c-1.042.355-2.23.709-3.51,1.107v-.8a18.125,18.125,0,0,0-.854-5.858c2.1.333,3.51,2.762,4.366,5.546ZM36.1,5.346a18.961,18.961,0,0,1,.938,6.477v.4l-7.242,2.3c1.418-5.461,4.033-8.159,6.3-9.176ZM33.32,2.659a2.158,2.158,0,0,1,1.2.4C31.5,4.507,28.3,8.173,26.932,15.51L21.2,17.321c1.617-5.568,5.388-14.673,12.116-14.673Z" transform="translate(-3.882 0)" fill="#95bf47"/>
    <path id="Path_38727" data-name="Path 38727" d="M54.235,12.708c-.256-.043-5.873-.441-5.873-.441L44.079,7.85a.842.842,0,0,0-.6-.264L40.354,73.7,62.805,68.7,54.876,13.37a.785.785,0,0,0-.641-.661Z" transform="translate(1.079 1.304)" fill="#5e8e3e"/>
    <path id="Path_38728" data-name="Path 38728" d="M36.52,23.061l-2.788,8.487a12.585,12.585,0,0,0-5.4-1.328c-4.371,0-4.585,2.827-4.585,3.537,0,3.865,9.811,5.348,9.811,14.453,0,7.16-4.413,11.754-10.338,11.754A14.232,14.232,0,0,1,12.467,55.41l1.891-6.5s3.726,3.316,6.9,3.316a2.759,2.759,0,0,0,2.062-.816,2.941,2.941,0,0,0,.851-2.1c0-5.086-8.054-5.305-8.054-13.615C16.116,28.7,21,21.9,30.809,21.9a12.285,12.285,0,0,1,5.7,1.16Z" transform="translate(-2.714 3.764)" fill="#fff"/>
  </g>
</svg>
