<svg xmlns="http://www.w3.org/2000/svg" width="70" height="70" viewBox="0 0 70 70">
  <path id="Path_38730" data-name="Path 38730" d="M959.175,874.762V868.57a.521.521,0,0,1,.526-.516h8.826c2.521,0,4.1,1.5,4.1,3.612,0,2.218-1.576,3.612-4.1,3.612H959.7a.521.521,0,0,1-.526-.516m.526,14.809h9.141c2.783,0,4.464-1.445,4.464-3.922,0-2.166-1.575-3.922-4.464-3.922H959.7a.522.522,0,0,0-.526.517v6.811a.522.522,0,0,0,.526.516m32.3-54.02L965.9,861.6h4.257c6.672,0,10.6,4.18,10.6,8.772a8.248,8.248,0,0,1-5.009,7.4.493.493,0,0,0,.023.918,8.509,8.509,0,0,1,5.157,7.99c0,5.212-3.467,9.34-10.192,9.34h-18.49a.521.521,0,0,1-.526-.516V875.759l-28.646,28.594a.612.612,0,0,0,.432,1.044H992.42a.47.47,0,0,0,.469-.47V835.922a.523.523,0,0,0-.892-.37" transform="translate(-922.889 -835.397)" fill="#121118" opacity="0.5"/>
</svg>
