<svg xmlns="http://www.w3.org/2000/svg" xmlns:xlink="http://www.w3.org/1999/xlink" width="24" height="24" viewBox="0 0 24 24">
  <defs>
    <clipPath id="clip-path">
      <rect id="Rectangle_546" data-name="Rectangle 546" width="24" height="24" transform="translate(23767 58)" fill="#35ade3"/>
    </clipPath>
  </defs>
  <g id="us_flag" transform="translate(-23767 -58)" clip-path="url(#clip-path)">
    <g id="Group_4559" data-name="Group 4559">
      <g id="Group_4558" data-name="Group 4558">
        <path id="Union_4" data-name="Union 4" d="M0,21V18H24v3Zm0-6V12H24v3ZM0,9V6H24V9ZM0,3V0H24V3Z" transform="translate(23767 61)" fill="#ff4b55"/>
        <path id="Union_3" data-name="Union 3" d="M0,21V18H24v3Zm0-6V12H24v3ZM0,9V6H24V9ZM0,3V0H24V3Z" transform="translate(23767 58)" fill="#f5f5f5"/>
      </g>
      <g id="Group_4557" data-name="Group 4557">
        <rect id="Rectangle_545" data-name="Rectangle 545" width="12" height="12" transform="translate(23767 58)" fill="#2e52b1"/>
        <path id="Union_2" data-name="Union 2" d="M7.822,7.087l-.655-.492h.8c.126-.247.168-.512.284-.777.12.256.158.523.281.77h.785c-.2.21-.437.319-.625.5.04.243.166.464.208.742-.25-.12-.422-.3-.653-.43l-.676.484Zm-3.578,0-.611-.451c0-.014,0-.028,0-.041h.747c.133-.235.157-.5.3-.77l.26.764h.767l.014.039L5.1,7.082c.079.252.158.5.252.8l-.679-.486-.679.488C4.084,7.585,4.161,7.344,4.244,7.085ZM1.09,7.4c-.22.132-.4.307-.642.434.024-.273.156-.492.2-.749L0,6.594H.8c.127-.247.168-.512.288-.787l.265.781h.792c-.2.211-.435.317-.627.5.077.247.156.5.247.785ZM4.235,4.187c-.17-.175-.4-.29-.635-.5h.781c.123-.248.166-.5.28-.766.134.248.165.5.278.742a2.193,2.193,0,0,0,.388.017,3.174,3.174,0,0,1,.406.014l-.64.481.235.732L5.3,4.936l-.635-.45-.653.469C4.057,4.676,4.175,4.447,4.235,4.187Zm-3.149.3-.633.448L.422,4.906l.236-.729L.045,3.721l.014-.036H.8c.122-.25.167-.514.277-.776.132.252.155.527.289.778h.739c.005.012.01.023.014.036l-.6.443c.031.255.172.481.2.778Zm6.738-.31-.65-.485h.792c.13-.262.168-.529.29-.8.091.273.174.52.263.789h.758l.011.04-.6.445c.039.25.168.471.2.746a7.584,7.584,0,0,1-.637-.421c-.226.117-.406.319-.675.441C7.667,4.665,7.745,4.426,7.825,4.177ZM4.677,1.585c-.227.119-.411.3-.658.447.04-.275.164-.5.216-.77L3.614.8,3.635.75h.773C4.49.509,4.569.277,4.661,0c.131.261.169.508.277.752h.818c-.221.212-.448.335-.65.506.042.25.159.481.227.783Zm-3.59-.006-.631.446L.425,2C.5,1.764.577,1.526.66,1.268L.036.806.054.762H.81C.932.514.972.257,1.082,0c.124.247.164.506.274.758h.806c-.208.217-.444.327-.633.506.03.248.17.473.2.769Zm6.737-.311L7.174.785A2.568,2.568,0,0,1,7.645.761c.111,0,.22,0,.331-.007.119-.234.157-.5.274-.753.124.248.152.515.281.765h.755L9.3.808l-.612.451c.037.253.167.473.2.75-.245-.116-.418-.294-.636-.423-.227.118-.41.314-.68.448Z" transform="translate(23768.342 60.059)" fill="#eeeeef" stroke="rgba(0,0,0,0)" stroke-miterlimit="10" stroke-width="1"/>
      </g>
    </g>
  </g>
</svg>
