<svg xmlns="http://www.w3.org/2000/svg" width="480.475" height="250.375" viewBox="0 0 480.475 250.375">
  <g id="Group_31936" data-name="Group 31936" transform="translate(-129 -5341)">
    <path id="Path_34208" data-name="Path 34208" d="M227.657,283.3,212.428,272l-22.613-2.266-3.362,5.486-4.578-1.518-2.246-8.476-6.77-.473,2.815-8.017-5.644-.566-5.661,4.545-3.955-5.681,3.392-9.6,15.27-2.266,2.8,7.906,3.982-.55v-7.357l10.728-14.693,13.564-7.353,17.508-7.89-12.434-27.714-5.644,3.392-4.5-12.424-10.762.563-2.782,22.043-3.968.573-16.409-17.529,3.392-9.046,16.986-3.385V148.219l-42.418,4.531-22.016-13-10.178,9.605L89.206,134.089l-15.243,9.042,5.647,8.5H73.383L71.7,157.834l8.469,1.129-8.469,6.78,2.815,9.6,7.35,1.7L70,186.657l18.648-9.036,10.162-5.678,16.392,10.192,13.007,22.04v19.781l7.913,14.7L149.114,259l15.836,5.634,6.78,3.4,7.9,10.172,5.52-.858-6.073,9.914,5.074,20.324,10.748,9.6-13.024,52.589,4.548,11.3,12.994,3.388-7.886-8.486,10.711-20.341,23.173-19.781,1.689-9.042,11.318-1.706,11.3-23.162-19.781-9.6Z" transform="translate(58.996 5206.911)" fill="#f5f5f5"/>
    <path id="Path_34209" data-name="Path 34209" d="M561.685,312.62l-1.21,9.6-8.141-2.953,1.5-5.2-8.9-.721L533.409,324.09l-12.233,4.431,2.993,16.643-1.126,3.3,4.471,2.594,18.139-4.488,7.015,4.082,3.338-1.86,2.225,6.73,9.243,2.6,6.686-4.089,3.7-19.959-9.991-9.991Z" transform="translate(-5.072 5181.559)" fill="#f5f5f5"/>
    <path id="Path_34210" data-name="Path 34210" d="M515.766,299.487l9.629,1.843,4.458-13.7-2.608-2.239-12.954,8.158Z" transform="translate(-4.095 5185.425)" fill="#f5f5f5"/>
    <path id="Path_34211" data-name="Path 34211" d="M576.831,311.081l-3.315-7.045-15.182-7.39-7.779.727,9.988,10.373,5.738.4,2.417-2.262Z" transform="translate(-9.244 5183.828)" fill="#f5f5f5"/>
    <path id="Path_34212" data-name="Path 34212" d="M568.635,199.5h-2.574l-.385,13.329-6.66,14.073-8.523,6.314-.375,5.54,15.558-9.257.734-9.629,5.175-4.813-4.045-3.328,2.192-7.766Z" transform="translate(-9.182 5197.623)" fill="#f5f5f5"/>
    <path id="Path_34213" data-name="Path 34213" d="M616.615,356.2l1.119,10.373-11.483,10.755,7.42.734,6.64-10.015,5.195-7.025-3.331-.355Z" transform="translate(-17.153 5175.371)" fill="#f5f5f5"/>
    <path id="Path_34214" data-name="Path 34214" d="M328.507,172.653v10.782l7.481-3.281,2.108-3.315-8.1-15.585-4.773,3.308.292,4.186-4.5,5.423-.312,5.681h5.413Z" transform="translate(23.397 5203.054)" fill="#f5f5f5"/>
    <path id="Path_34215" data-name="Path 34215" d="M408.7,321.61l-.3,12.009,4.823,2.081,4.786-14.389-1.21-5.986Z" transform="translate(10.942 5181.175)" fill="#f5f5f5"/>
    <path id="Path_34216" data-name="Path 34216" d="M571.287,168.374l13.343-7.417-3.7-10.359L482.66,136.735s-59.541,6.3-92.372,9.753l-28.448-5.242-11.412,6.291-4.488,11.09-5.409,4.213-.3,9.294,3,1.783,6.291-3.583,3.026,9.582,5.376-2.095,3.61-9.6-3.61-3.888,3.311-7.192,3.868-4.809,2.373.375-2.215,5.627-2.534,1.81.922,2.282-.174.385.332.034,2.205,5.376,6.3-1.783,2.168,2.54-6.971,2.262,1.518,5.7-4.525-1.528-3.278,8.409-11.713-.3-2.1-6-2.691,3.593.9,3.9-4.21.308-5.094,6.891-9.294,3,2.406,5.1,3.868,6.291-12.27-.9.6,12.009,9.6,1.5,6.291-9.907,9.012-4.5,3.878,4.5,5.386,7.216L359.726,212l-7.5-5.074-.308-4.806,3.6,1.793,6.009,4.813-.3,4.766,4.488,5.718,2.1-7.216,2.4,1.21,3.288,5.7L383.67,220.6l-1.652,5.554-3.821,2.286-14.723-3.767-3.7,5.178-9.619-6.3-1.488-6.271-23.7,4.055-12.233,14.818L310.5,256.145l12.619,12.233,22.6-1.488,6.65,20.746-2.571,11.845,10.725,25.928,12.233-2.225,12.209-22.969,6.663-5.185-1.837-15.91,11.854-10.748,3.7-12.967-11.864,5.56-12.109-27.734,2.473-.422,11.868,23.333,22.971-13.7-7.8-5.919-5.919,2.959-3.71-8.9,2.6-1.465,5.175,4.431,17.807,3.335,7.38,8.9,6.673,16.657,5.2-5.171v-6.3l14.428-10.021,5.185,11.134L470,251l.888,11.073,4.454,8.144-9.633-4.82,7.048,9.988,7.779,7.427,18.514,3.325-9.994-4.065-7.434-2.6-2.574-11.857-5.939-6.69.224-6.683,6.824,7.068,6.663-5.554-6.281-9.264,2.946-4.813,13.711-.741,6.291-11.469L499.059,216.9l5.554-5.929,4.092,5.554,1.481,7.028,4.81-2.571-1.85-7.789,4.069-5.926,6.673-1.1,7.766-21.49-6.659-4.813,9.25-8.9,12.233.734,10.008-8.134,7.769-1.123-12.585,15.2.365,13.322,9.639-11.854-.375-8.53ZM390.01,212.58l-6.572-1.776-9.019,1.495-2.095-3.881,4.789-8.4,15.6,8.111Zm10.813,5.125,1.471-5.714-3.288-8.379,9.308-5.094V203l-3.61,1.5,3.023,4.508,1.461,9.3Z" transform="translate(24.845 5206.535)" fill="#f5f5f5"/>
    <path id="Path_34217" data-name="Path 34217" d="M265.912,146.494l-8.345-2.272-10.313,11.013,13.265,34.531,6.277,1.542.509-11.217,4.236-2.621.245-4.26,4.374-8.221-3.047-6.241Z" transform="translate(33.826 5205.472)" fill="#f5f5f5"/>
  </g>
</svg>
