<svg id="Component_212_1" data-name="Component 212 – 1" xmlns="http://www.w3.org/2000/svg" width="76" height="76.592" viewBox="0 0 76 76.592">
  <path id="Path_36409" data-name="Path 36409" d="M230.128,278.5a4.1,4.1,0,0,0-2.112-3.572,4.024,4.024,0,0,0,1.074-2.751,4.068,4.068,0,0,0-4.067-4.067h-7.458a24.99,24.99,0,0,0,.76-11.669,3.261,3.261,0,0,0-6.48.507,15.988,15.988,0,0,1-3.56,7.8l-4.959,5.3a2.235,2.235,0,0,0-1.738-.833h-7.421a2.24,2.24,0,0,0-2.244,2.244V293.5a2.24,2.24,0,0,0,2.244,2.244h7.421a2.255,2.255,0,0,0,2.148-1.617,4.611,4.611,0,0,0,2.968,1.1h17.233a4.066,4.066,0,0,0,3-6.806,3.643,3.643,0,0,0,.953-.712A4.07,4.07,0,0,0,228,282.08a4,4,0,0,0,.929-.7,4.076,4.076,0,0,0,1.194-2.883Zm-28.539,15.421h-7.421a.433.433,0,0,1-.434-.434V271.437a.433.433,0,0,1,.434-.434h7.421a.433.433,0,0,1,.434.434V293.5A.431.431,0,0,1,201.589,293.918Zm26.077-13.828a2.247,2.247,0,0,1-1.593.664H220.9a.9.9,0,1,0,0,1.81h4.127a2.257,2.257,0,0,1,0,4.513h-2.908a.9.9,0,1,0,0,1.81h1.822a2.257,2.257,0,0,1,0,4.513H206.706a2.869,2.869,0,0,1-2.872-2.86v-18.4l5.768-6.154a17.647,17.647,0,0,0,4.043-8.809,1.369,1.369,0,0,0,.012-.229,1.482,1.482,0,0,1,.422-1.026,1.446,1.446,0,0,1,2.449.8,22.493,22.493,0,0,1-1.11,11.934.878.878,0,0,0,.084.844.891.891,0,0,0,.748.4h8.773a2.257,2.257,0,0,1,0,4.513H219.69a.9.9,0,1,0,0,1.81h6.371a2.278,2.278,0,0,1,1.6,3.874Z" transform="translate(-176.406 -219.149)" fill="#7956ff"/>
  <path id="Path_36410" data-name="Path 36410" d="M222.678,34.93l-2.16,12.562a.891.891,0,0,0,.362.881.956.956,0,0,0,.531.169.881.881,0,0,0,.422-.108L233.116,42.5,244.4,48.433a.909.909,0,0,0,1.316-.953l-2.148-12.55,9.135-8.905a.917.917,0,0,0,.229-.929.9.9,0,0,0-.736-.616l-12.622-1.822-5.648-11.44a.949.949,0,0,0-1.629,0l-5.648,11.44-12.622,1.834a.9.9,0,0,0-.507,1.545ZM227.4,24.371a.922.922,0,0,0,.688-.495l5.044-10.221,5.044,10.221a.922.922,0,0,0,.688.495l11.271,1.641-8.157,7.952a.9.9,0,0,0-.266.8L243.638,46,233.55,40.7a.877.877,0,0,0-.844,0L222.617,46l1.93-11.234a.9.9,0,0,0-.266-.8l-8.157-7.952Z" transform="translate(-194.697 -10.757)" fill="#7956ff"/>
  <path id="Path_36411" data-name="Path 36411" d="M487.769,131.907a.9.9,0,0,0-.724-.616l-6.323-.917-2.824-5.732a.905.905,0,0,0-.808-.507.893.893,0,0,0-.808.507l-2.824,5.732-6.323.917a.9.9,0,0,0-.507,1.545L471.2,137.3l-1.086,6.3a.891.891,0,0,0,.362.881.956.956,0,0,0,.531.169.881.881,0,0,0,.422-.108l5.659-2.98,5.659,2.98a.909.909,0,0,0,1.316-.953l-1.086-6.3,4.573-4.465a.937.937,0,0,0,.217-.918Zm-6.42,4.417a.9.9,0,0,0-.266.8l.857,4.959-4.453-2.341a.945.945,0,0,0-.844,0l-4.453,2.341.857-4.959a.9.9,0,0,0-.266-.8l-3.608-3.512,4.984-.724a.9.9,0,0,0,.676-.495l2.232-4.513,2.232,4.513a.923.923,0,0,0,.676.495l4.984.724Z" transform="translate(-411.809 -108.01)" fill="#7956ff"/>
  <path id="Path_36412" data-name="Path 36412" d="M93.643,137.482l-1.086,6.3a.891.891,0,0,0,.362.881.907.907,0,0,0,.953.072l5.659-2.98,5.659,2.98a.883.883,0,0,0,.422.108.928.928,0,0,0,.531-.169.9.9,0,0,0,.362-.881l-1.086-6.31,4.573-4.465a.917.917,0,0,0,.229-.929.9.9,0,0,0-.724-.616l-6.323-.917-2.824-5.732a.949.949,0,0,0-1.629,0l-2.836,5.733-6.323.917a.9.9,0,0,0-.507,1.545Zm2.98-5.2a.9.9,0,0,0,.676-.495l2.232-4.513,2.232,4.513a.923.923,0,0,0,.676.495l4.984.724-3.608,3.512a.9.9,0,0,0-.266.8l.857,4.959-4.453-2.341a.877.877,0,0,0-.844,0l-4.453,2.341.857-4.959a.9.9,0,0,0-.266-.8l-3.608-3.512Z" transform="translate(-87.936 -108.205)" fill="#7956ff"/>
  <path id="Path_36413" data-name="Path 36413" d="M217.465,488.39a2.715,2.715,0,1,0,2.715,2.715A2.719,2.719,0,0,0,217.465,488.39Zm0,3.62a.9.9,0,1,1,.9-.9A.912.912,0,0,1,217.465,492.01Z" transform="translate(-195.987 -420.462)" fill="#7956ff"/>
  <path id="Path_36414" data-name="Path 36414" d="M95.62,388.123a.9.9,0,1,0,0-1.81h-11.9a.912.912,0,0,0-.9.9V405.21a.912.912,0,0,0,.9.9h11.91a.9.9,0,1,0,0-1.81H84.627V388.124Z" transform="translate(-82.817 -332.903)" fill="#7956ff"/>
</svg>
