<svg xmlns="http://www.w3.org/2000/svg" width="37.798" height="40.331" viewBox="0 0 37.798 40.331">
  <g id="Component_205_1" data-name="Component 205 – 1" transform="translate(0.25 0.25)">
    <path id="Path_36415" data-name="Path 36415" d="M97.9,27.725h11.328a.323.323,0,0,1,.327.327v1.729a.323.323,0,0,1-.327.327H97.9a.323.323,0,0,1-.327-.327V28.052A.328.328,0,0,1,97.9,27.725Zm11,.653H98.225v1.075H108.9Zm4.772-12.435c-.382,1.187-.167,1.02-1.4,1.02,1,.733.916.47.534,1.649,1-.733.733-.733,1.729,0-.382-1.187-.47-.916.534-1.649C113.823,16.963,114.046,17.122,113.672,15.944Zm-.8.366.494-1.529a.328.328,0,0,1,.621,0l.494,1.529,1.577-.008a.326.326,0,0,1,.215.589l-1.3.948.5,1.529a.328.328,0,0,1-.5.366l-1.3-.948-1.275.932a.325.325,0,0,1-.518-.351l.5-1.529-1.3-.94a.325.325,0,0,1,.191-.589Zm.8,9.83c-.382,1.187-.167,1.02-1.4,1.02,1,.733.916.47.534,1.649,1-.733.733-.733,1.729,0-.382-1.187-.47-.916.534-1.649C113.823,27.16,114.046,27.319,113.672,26.14Zm-.8.366.494-1.529a.328.328,0,0,1,.621,0l.494,1.529,1.577-.008a.326.326,0,0,1,.215.589l-1.3.948.5,1.529a.328.328,0,0,1-.5.366l-1.3-.948-1.275.932a.325.325,0,0,1-.518-.351l.5-1.529-1.3-.94a.325.325,0,0,1,.191-.589Zm.8-5.465c-.382,1.187-.167,1.02-1.4,1.02,1,.733.916.47.534,1.649,1-.733.733-.733,1.729,0-.382-1.187-.47-.924.534-1.649C113.823,22.062,114.046,22.221,113.672,21.042Zm-.8.366.494-1.529a.326.326,0,0,1,.621,0l.494,1.529h1.577a.325.325,0,0,1,.215.589l-1.3.94.5,1.522a.324.324,0,0,1-.5.358l-1.3-.948L112.4,24.8a.325.325,0,0,1-.518-.351l.5-1.522-1.3-.94a.325.325,0,0,1,.191-.589Zm-9.3-4.875a2.529,2.529,0,1,1-2.525,2.525A2.534,2.534,0,0,1,103.563,16.533Zm1.331,1.2a1.874,1.874,0,1,0,0,2.645,1.877,1.877,0,0,0,0-2.645Zm-3.545,4.174h4.437a2.388,2.388,0,0,1,2.382,2.382v2.334a.323.323,0,0,1-.327.327H99.285a.323.323,0,0,1-.327-.327V24.292a2.39,2.39,0,0,1,2.39-2.382Zm4.437.653h-4.437a1.732,1.732,0,0,0-1.729,1.729V26.3h7.9V24.292a1.744,1.744,0,0,0-1.737-1.729ZM107.706,6.6a1.111,1.111,0,1,1-1.115,1.107A1.127,1.127,0,0,1,107.706,6.6Zm.326.789a.456.456,0,0,0-.645.645A.456.456,0,0,0,108.032,7.388Zm5.114,32.932a.327.327,0,0,1,0,.653h-1.506a.327.327,0,0,1,0-.653Zm0-1.673a.327.327,0,0,1,0,.653h-9.328a.327.327,0,0,1,0-.653Zm-2.892,1.673a.327.327,0,0,1,0,.653h-6.437a.327.327,0,0,1,0-.653Zm-6.437-3.752a.327.327,0,0,1,0-.653h1.506a.327.327,0,0,1,0,.653Zm0-1.665a.327.327,0,0,1,0-.653h9.336a.327.327,0,0,1,0,.653Zm2.892,1.665a.327.327,0,0,1,0-.653h6.437a.327.327,0,0,1,0,.653Zm8.85,2.692,4.15-4.318L117.193,33.5Zm2.231-1.386-2.661,2.772a.325.325,0,0,1-.558-.3l2.023-7.177c-.183-.1-.343-.263-.207-.494l3.425-5.974V12.574a1.35,1.35,0,0,0-1.346-1.346h-4.31a1.275,1.275,0,0,1-1.2.852H102.439a1.275,1.275,0,0,1-1.2-.852H96.943A1.35,1.35,0,0,0,95.6,12.574V41.547a1.35,1.35,0,0,0,1.346,1.346h21.532a1.35,1.35,0,0,0,1.346-1.346V35.764ZM129.19,18.4c.358-.629.733-1.083.534-1.792a1.449,1.449,0,0,0-2.653-.343l-.4.693Zm.964-.366-.4.693.1.064a.325.325,0,0,1,.12.446L122.243,32.72V45a.323.323,0,0,1-.327.327H93.494A.323.323,0,0,1,93.167,45V9.133a.323.323,0,0,1,.327-.327h7.7a1.292,1.292,0,0,1,.358-.7,1.271,1.271,0,0,1,.9-.374h2.725c-.223-.582-.486-1.068-.056-1.689a1.25,1.25,0,0,1,1.051-.55h3.083a1.272,1.272,0,0,1,1.187,1.729l-.2.518h2.725a1.276,1.276,0,0,1,1.259,1.075h7.7a.323.323,0,0,1,.327.327V22.476l3.314-5.775a.325.325,0,0,1,.446-.12l.1.056c.438-.765.709-1.41,1.665-1.673a2.1,2.1,0,0,1,2.382,3.067ZM121.59,33.859l-.773,1.354a.332.332,0,0,1-.343.159v6.182a2.006,2.006,0,0,1-2,2H96.943a2.006,2.006,0,0,1-2-2V12.574a2.006,2.006,0,0,1,2-2h4.238V9.459H93.82v35.21h27.77Zm-1.115-8.3,1.115-1.952V9.459h-7.353v1.115h4.238a2.006,2.006,0,0,1,2,2Zm8.77-6.373-3.29-1.888-3.752,6.54c-.534.98-1.243,2.111-1.776,3.091-.008.008-.008.016-.016.024l-3.3,5.759L120.4,34.6ZM97.58,38h4.246a.323.323,0,0,1,.327.327v2.963a.323.323,0,0,1-.327.327H97.58a.323.323,0,0,1-.327-.327V38.328A.323.323,0,0,1,97.58,38Zm3.919.653H97.907v2.31H101.5ZM97.58,33.6h4.246a.323.323,0,0,1,.327.327v2.963a.323.323,0,0,1-.327.327H97.58a.323.323,0,0,1-.327-.327V33.923A.328.328,0,0,1,97.58,33.6Zm3.919.653H97.907v2.318H101.5Zm4.15-25.866h-3.194a.627.627,0,0,0-.438.183.692.692,0,0,0-.183.566v1.681a.622.622,0,0,0,.621.621h10.515a.622.622,0,0,0,.621-.621V9a.622.622,0,0,0-.621-.621h-3.194a.331.331,0,0,1-.3-.446l.366-.956a.617.617,0,0,0-.582-.845h-3.083a.618.618,0,0,0-.582.845,9.976,9.976,0,0,1,.39,1.075.34.34,0,0,1-.335.326Z" transform="translate(-93.167 -5.492)" fill="#fff" stroke="#fff" stroke-width="0.5"/>
  </g>
</svg>
