<svg id="Component_203_1" data-name="Component 203 – 1" xmlns="http://www.w3.org/2000/svg" width="36" height="46.956" viewBox="0 0 36 46.956">
  <path id="Path_36426" data-name="Path 36426" d="M147.988,45.385a2.348,2.348,0,0,0,2.2,1.565h6.261a2.348,2.348,0,0,0,2.2-1.565h9.535a3.131,3.131,0,0,0,3.131-3.13V6.9a2.351,2.351,0,0,0-.2-.939c-.008-.019-.02-.034-.028-.052a2.357,2.357,0,0,0-.464-.674L166.079.685A2.355,2.355,0,0,0,165.4.221c-.017-.009-.033-.02-.052-.028a2.348,2.348,0,0,0-.939-.2H138.453a3.131,3.131,0,0,0-3.131,3.13v39.13a3.131,3.131,0,0,0,3.131,3.13Zm-1.709-5.478h-3.926l1.281-7.043h2.645Zm14.087-7.043h2.645l1.283,7.043h-3.928Zm-12.521-.782V20.342H158.8v21.13h-3.13V33.646a1.565,1.565,0,0,0-1.565-1.565H152.54a1.565,1.565,0,0,0-1.565,1.565v7.826h-3.13Zm.05-13.3c.481-3.735,4.234-6.9,5.417-7.826,1.2.927,4.958,4.092,5.439,7.826Zm6.21,23.478H152.54V33.646h1.565v8.6Zm2.348,3.13h-6.261a.783.783,0,0,1-.783-.782V43.037h1.783a1.56,1.56,0,0,0,1.348.783h1.565a1.56,1.56,0,0,0,1.348-.783h1.783V44.6a.782.782,0,0,1-.783.782Zm12.2-39.912H167.41a1.565,1.565,0,0,1-1.565-1.565V2.666ZM136.888,42.255V3.125a1.565,1.565,0,0,1,1.565-1.565h25.826V3.908a3.13,3.13,0,0,0,3.13,3.13h2.348V42.255a1.566,1.566,0,0,1-1.565,1.565H158.8v-.783a1.565,1.565,0,0,0,1.565-1.565h3.926a1.566,1.566,0,0,0,1.539-1.845l-1.28-7.043a1.565,1.565,0,0,0-1.54-1.286h-2.645V19.559c0-4.654-4.266-8.439-6.1-9.851h0a1.546,1.546,0,0,0-1.887,0c-1.835,1.411-6.1,5.2-6.1,9.851V31.3h-2.645a1.565,1.565,0,0,0-1.539,1.286l-1.281,7.043a1.565,1.565,0,0,0,1.539,1.845h3.926a1.565,1.565,0,0,0,1.565,1.565v.782h-9.391a1.566,1.566,0,0,1-1.565-1.565Z" transform="translate(-135.322 0.006)" fill="#fff"/>
  <path id="Path_36427" data-name="Path 36427" d="M307.17,269.159a3.908,3.908,0,0,0,2.788-6.652c-.008-.009-.011-.02-.02-.029s-.02-.012-.029-.02a3.913,3.913,0,1,0-2.739,6.7Zm0-6.261a2.307,2.307,0,0,1,1.006.235l-1.559,1.559h0a.783.783,0,1,0,1.106,1.107l1.56-1.558a2.308,2.308,0,0,1,.235,1.006,2.348,2.348,0,1,1-2.348-2.348Z" transform="translate(-289.17 -239.42)" fill="#fff"/>
  <path id="Path_36428" data-name="Path 36428" d="M192.117,76.233h19.565a.782.782,0,1,0,0-1.565H192.117a.782.782,0,1,0,0,1.565Z" transform="translate(-186.638 -68.407)" fill="#fff"/>
  <path id="Path_36429" data-name="Path 36429" d="M406,122.117a.783.783,0,0,0,.782.782h7.043a.783.783,0,1,0,0-1.565h-7.043a.783.783,0,0,0-.782.783Z" transform="translate(-383.304 -111.16)" fill="#fff"/>
  <path id="Path_36430" data-name="Path 36430" d="M192.117,122.9h7.043a.783.783,0,0,0,0-1.565h-7.043a.783.783,0,1,0,0,1.565Z" transform="translate(-186.638 -111.158)" fill="#fff"/>
  <path id="Path_36431" data-name="Path 36431" d="M448.026,168h-3.913a.783.783,0,1,0,0,1.565h3.913a.783.783,0,1,0,0-1.565Z" transform="translate(-417.504 -153.913)" fill="#fff"/>
  <path id="Path_36432" data-name="Path 36432" d="M192.117,169.567h3.913a.783.783,0,1,0,0-1.565h-3.913a.783.783,0,1,0,0,1.565Z" transform="translate(-186.638 -153.915)" fill="#fff"/>
  <path id="Path_36433" data-name="Path 36433" d="M456.579,214.67h-3.13a.782.782,0,1,0,0,1.565h3.13a.782.782,0,1,0,0-1.565Z" transform="translate(-426.057 -196.669)" fill="#fff"/>
  <path id="Path_36434" data-name="Path 36434" d="M192.117,216.231h3.13a.782.782,0,1,0,0-1.565h-3.13a.782.782,0,1,0,0,1.565Z" transform="translate(-186.638 -196.666)" fill="#fff"/>
  <path id="Path_36435" data-name="Path 36435" d="M456.579,261.33h-3.13a.783.783,0,0,0,0,1.565h3.13a.783.783,0,1,0,0-1.565Z" transform="translate(-426.057 -239.417)" fill="#fff"/>
  <path id="Path_36436" data-name="Path 36436" d="M192.117,262.9h3.13a.783.783,0,0,0,0-1.565h-3.13a.783.783,0,1,0,0,1.565Z" transform="translate(-186.638 -239.419)" fill="#fff"/>
  <path id="Path_36437" data-name="Path 36437" d="M456.579,308h-3.13a.783.783,0,0,0,0,1.565h3.13a.783.783,0,1,0,0-1.565Z" transform="translate(-426.057 -282.174)" fill="#fff"/>
  <path id="Path_36438" data-name="Path 36438" d="M192.117,309.567h3.13a.783.783,0,0,0,0-1.565h-3.13a.783.783,0,1,0,0,1.565Z" transform="translate(-186.638 -282.176)" fill="#fff"/>
</svg>
