<svg id="Component_209_1" data-name="Component 209 – 1" xmlns="http://www.w3.org/2000/svg" width="76.001" height="78.992" viewBox="0 0 76.001 78.992">
  <path id="Path_36393" data-name="Path 36393" d="M98.066,181.011h-.047a.894.894,0,0,1-.846-.939,15.86,15.86,0,0,0-6.113-13.408c-.023-.016-.045-.033-.067-.05a13.673,13.673,0,0,1-5.257-11.2V133.485a4.694,4.694,0,0,1,9.387,0v17.967a.894.894,0,1,1-1.787,0V133.485a2.906,2.906,0,0,0-5.813,0v21.969c0,.03,0,.061,0,.091a11.841,11.841,0,0,0,4.584,9.666,17.46,17.46,0,0,1,6.854,14.953.893.893,0,0,1-.891.848Z" transform="translate(-85.715 -111.143)" fill="#ff5e85"/>
  <path id="Path_36394" data-name="Path 36394" d="M147.164,307.239a.872.872,0,0,1-.137-.011.894.894,0,0,1-.748-1.019c1.751-11.4-3.752-16.413-10.719-22.759-1.528-1.392-3.108-2.831-4.684-4.406a3.662,3.662,0,1,0-5.178,5.178l8.88,8.88a.893.893,0,0,1-1.264,1.263l-8.88-8.88a5.448,5.448,0,1,1,7.706-7.7c1.546,1.546,3.111,2.971,4.624,4.349,7.071,6.441,13.178,12,11.282,24.352a.892.892,0,0,1-.881.757Z" transform="translate(-117.509 -237.371)" fill="#ff5e85"/>
  <path id="Path_36395" data-name="Path 36395" d="M163.442,490.878H137.621a.894.894,0,0,1-.894-.894v-9.123a.893.893,0,0,1,.894-.894h25.821a.893.893,0,0,1,.894.894v9.123A.893.893,0,0,1,163.442,490.878Zm-24.926-1.787h24.033v-7.336H138.516Z" transform="translate(-129.401 -411.886)" fill="#ff5e85"/>
  <path id="Path_36396" data-name="Path 36396" d="M523.447,181.009a.893.893,0,0,1-.891-.847,17.462,17.462,0,0,1,6.854-14.953,11.964,11.964,0,0,0,4.584-9.666.823.823,0,0,1,0-.091V133.484a2.907,2.907,0,0,0-5.813,0v17.967a.894.894,0,1,1-1.787,0V133.484a4.694,4.694,0,0,1,9.388,0v21.929a13.671,13.671,0,0,1-5.256,11.2.819.819,0,0,1-.067.05,15.652,15.652,0,0,0-6.114,13.408.893.893,0,0,1-.846.939h-.047Z" transform="translate(-459.797 -111.141)" fill="#ff5e85"/>
  <path id="Path_36397" data-name="Path 36397" d="M401.083,307.236a.894.894,0,0,1-.882-.758c-1.9-12.348,4.211-17.911,11.282-24.352,1.513-1.378,3.078-2.8,4.624-4.349a5.455,5.455,0,0,1,7.694-.011l.012.011a5.454,5.454,0,0,1,0,7.7l-8.88,8.88a.893.893,0,0,1-1.263-1.263l8.88-8.88a3.666,3.666,0,0,0,.01-5.169l-.01-.01a3.666,3.666,0,0,0-5.178,0c-1.576,1.576-3.156,3.015-4.684,4.407-6.967,6.346-12.469,11.359-10.719,22.759a.894.894,0,0,1-.748,1.019.82.82,0,0,1-.137.011Z" transform="translate(-354.738 -237.368)" fill="#ff5e85"/>
  <path id="Path_36398" data-name="Path 36398" d="M398.382,490.878H372.561a.893.893,0,0,1-.894-.894v-9.123a.893.893,0,0,1,.894-.894h25.821a.893.893,0,0,1,.894.894v9.123A.894.894,0,0,1,398.382,490.878Zm-24.928-1.787h24.033v-7.336H373.454Z" transform="translate(-330.601 -411.886)" fill="#ff5e85"/>
  <path id="Path_36399" data-name="Path 36399" d="M248.6,159.316a.891.891,0,0,1-.594-.226c-8.094-7.195-16.463-14.634-16.463-22.219,0-4.454,4.027-8.077,8.976-8.077,4.057,0,6.241,1.708,8.082,4.548,1.84-2.84,4.025-4.548,8.082-4.548,4.949,0,8.976,3.623,8.976,8.077,0,7.585-8.37,15.024-16.463,22.219a.9.9,0,0,1-.595.226Zm-8.082-28.735c-3.964,0-7.188,2.822-7.188,6.29,0,6.611,7.661,13.588,15.27,20.357,7.61-6.768,15.27-13.745,15.27-20.357,0-3.468-3.224-6.29-7.188-6.29-3.386,0-5.229,1.245-7.3,4.932a.893.893,0,0,1-1.557,0c-2.075-3.687-3.918-4.932-7.3-4.932Z" transform="translate(-210.604 -111.145)" fill="#ff5e85"/>
  <path id="Path_36400" data-name="Path 36400" d="M490.465,56.818a.894.894,0,0,1-.773-1.341l2.822-4.888a.894.894,0,0,1,1.548.894l-2.822,4.888a.893.893,0,0,1-.775.447Z" transform="translate(-431.574 -43.788)" fill="#ff5e85"/>
  <path id="Path_36401" data-name="Path 36401" d="M420.3,24.387a.895.895,0,0,1-.863-1.125L420.9,17.81a.894.894,0,1,1,1.726.463l-1.461,5.452a.894.894,0,0,1-.863.663Z" transform="translate(-371.483 -15.532)" fill="#ff5e85"/>
  <path id="Path_36402" data-name="Path 36402" d="M344.991,13.329a.893.893,0,0,1-.894-.894V6.791a.894.894,0,1,1,1.787,0v5.645a.894.894,0,0,1-.894.894Z" transform="translate(-306.991 -5.898)" fill="#ff5e85"/>
  <path id="Path_36403" data-name="Path 36403" d="M260.981,24.389a.894.894,0,0,1-.863-.663l-1.461-5.452a.894.894,0,0,1,1.726-.463l1.461,5.452a.895.895,0,0,1-.863,1.125Z" transform="translate(-233.794 -15.533)" fill="#ff5e85"/>
  <path id="Path_36404" data-name="Path 36404" d="M182.7,56.818a.893.893,0,0,1-.775-.447L179.1,51.482a.894.894,0,0,1,1.548-.894l2.822,4.888a.894.894,0,0,1-.773,1.341Z" transform="translate(-165.584 -43.788)" fill="#ff5e85"/>
  <path id="Path_36405" data-name="Path 36405" d="M163.442,513.522H137.621a.894.894,0,1,1,0-1.787h25.821a.894.894,0,1,1,0,1.787Z" transform="translate(-129.401 -439.092)" fill="#ff5e85"/>
  <path id="Path_36406" data-name="Path 36406" d="M398.382,513.522H372.561a.894.894,0,1,1,0-1.787h25.821a.894.894,0,1,1,0,1.787Z" transform="translate(-330.601 -439.092)" fill="#ff5e85"/>
  <path id="Path_36407" data-name="Path 36407" d="M233.595,389.29a.893.893,0,0,1-.894-.894c0-4.249-4.307-9.473-4.35-9.525a.894.894,0,0,1,1.373-1.144c.195.233,4.764,5.771,4.764,10.67a.894.894,0,0,1-.894.893Z" transform="translate(-207.689 -324.053)" fill="#ff5e85"/>
  <path id="Path_36408" data-name="Path 36408" d="M430.011,389.287a.894.894,0,0,1-.894-.894c0-4.9,4.57-10.436,4.764-10.67a.894.894,0,0,1,1.373,1.144c-.043.052-4.35,5.277-4.35,9.525a.894.894,0,0,1-.894.894Z" transform="translate(-379.801 -324.051)" fill="#ff5e85"/>
</svg>
