<svg id="Component_207_1" data-name="Component 207 – 1" xmlns="http://www.w3.org/2000/svg" width="70" height="74.433" viewBox="0 0 70 74.433">
  <path id="Path_36389" data-name="Path 36389" d="M173.022,29.778a.945.945,0,0,0-.93-.517l-5.842.487a.955.955,0,0,0-.644.326L163.9,32.052c-.187-.251-.44-.537-.7-.825l2.448-2.833a.963.963,0,0,0,.214-.809l-.469-2.373a.955.955,0,0,0-.891-.769l-2.415-.117a1.058,1.058,0,0,0-.769.329l-2.448,2.833c-.325-.218-.644-.427-.92-.575l1.708-1.978a.964.964,0,0,0,.231-.683l-.364-5.852a.955.955,0,0,0-1.676-.567L146.037,31.5a.951.951,0,0,0-.231.655l.182,5.683-3.168,3.667a24.874,24.874,0,0,0-8.445-2.672V37.215a.957.957,0,0,0-.956-.956h-4.611a.957.957,0,0,0-.956.956v1.616A25.394,25.394,0,0,0,106,60.687h-1.917a.957.957,0,0,0-.956.956v4.611a.957.957,0,0,0,.956.956H106a25.391,25.391,0,0,0,21.853,21.853V90.98a.957.957,0,0,0,.956.956h4.611a.957.957,0,0,0,.956-.956V89.063A25.385,25.385,0,0,0,156.228,67.21h1.917a.957.957,0,0,0,.956-.956V61.643a.957.957,0,0,0-.956-.956h-1.939a25.224,25.224,0,0,0-4.573-11.524l3.188-3.69,5.648-.644a.953.953,0,0,0,.615-.324l11.809-13.667a.955.955,0,0,0,.128-1.059Zm-10.567-3.522,1.205.058.233,1.182-8.357,9.674-1.368.128-.07-1.371Zm.163,7.271-3.426,3.965a8.48,8.48,0,0,0-.624-.91l3.376-3.907a8.526,8.526,0,0,1,.675.852Zm-9.369-1.17,3.424-3.964a8.356,8.356,0,0,1,.941.542l-3.376,3.907a8.505,8.505,0,0,0-.989-.485Zm4.511-11.5.2,3.126-6.192,7.165c-.007.008-.008.018-.014.025l-3.921,4.538-.1-3.239ZM145.986,46.77a12.436,12.436,0,0,1,2.6,3l-1.21,1.4a14.225,14.225,0,0,0-5.941-5.134l1.089-1.261a7.877,7.877,0,0,1,3.464,1.995Zm-15.468,17.9a1.023,1.023,0,0,0,.646.212,1.074,1.074,0,0,0,.245-.028,26.9,26.9,0,0,0,3.152-.979c0,.025.011.048.011.073a3.5,3.5,0,1,1-3.908-3.457,27.333,27.333,0,0,0-.529,3.157c0,.014-.016.233-.016.247a.989.989,0,0,0,.4.775Zm1.663-2a24.9,24.9,0,0,1,1.867-6.384,5.836,5.836,0,0,1,4.243,3.634,24.856,24.856,0,0,1-6.11,2.75ZM137.9,56.13a7.761,7.761,0,0,0-2.956-1.588,24.909,24.909,0,0,1,3.044-4.517l2.063-2.387a7.928,7.928,0,0,1,3.464,1.994,12.462,12.462,0,0,1,2.6,3l-2.089,2.419a24.93,24.93,0,0,1-4.135,3.745A7.742,7.742,0,0,0,137.9,56.13Zm-3.524-15.363A22.979,22.979,0,0,1,141.534,43l-.32.37c-.006.007-.016.009-.022.016s-.01.02-.017.029l-2.433,2.816c-.006.007-.015.008-.021.016s-.01.019-.017.028l-.136.158a18.442,18.442,0,0,0-4.195-1.233Zm-4.611-2.6h2.7V48.13h-2.7Zm-1.912,2.588V45.2A18.951,18.951,0,0,0,112.37,60.687h-4.443a23.477,23.477,0,0,1,19.925-19.928ZM105.038,65.3V62.6H115v2.7Zm22.814,21.838a23.474,23.474,0,0,1-19.925-19.925h4.443a18.958,18.958,0,0,0,15.482,15.482Zm4.611,2.888h-2.7V80.067h2.7Zm.956-11.87h-4.611a.957.957,0,0,0-.956.956v1.638a17.049,17.049,0,0,1-13.539-13.538h1.638a.957.957,0,0,0,.956-.956V61.644a.957.957,0,0,0-.956-.956h-1.638a17.044,17.044,0,0,1,13.539-13.539v1.937a.957.957,0,0,0,.956.956h4.611a.957.957,0,0,0,.956-.956V47.142a16.309,16.309,0,0,1,2.871.821l-.7.814a26.862,26.862,0,0,0-3.914,6.014c-.009.017-.016.034-.024.051a26.614,26.614,0,0,0-1.431,3.708c-.037,0-.062-.01-.1-.01a5.934,5.934,0,1,0,5.283,4.593,26.439,26.439,0,0,0,3.553-1.97.916.916,0,0,0,.11-.073,26.872,26.872,0,0,0,5.448-4.791l.62-.717a16.878,16.878,0,0,1,1.856,5.107h-1.669a.957.957,0,0,0-.956.956v4.611a.957.957,0,0,0,.956.956h1.638a17.049,17.049,0,0,1-13.539,13.538V79.111a.957.957,0,0,0-.956-.956Zm.956,8.982V82.693a18.959,18.959,0,0,0,15.482-15.482H154.3a23.471,23.471,0,0,1-19.926,19.925ZM157.189,62.6v2.7h-9.959V62.6Zm-2.916-1.911H149.88a19.115,19.115,0,0,0-2.474-6.632l.142-.164s.01-.006.014-.011,0-.011.008-.015l2.449-2.835s.009-.006.013-.01,0-.01.008-.014l.3-.348a23.311,23.311,0,0,1,3.932,10.03Zm-4.428-12.377a14.216,14.216,0,0,0-5.942-5.133l7.994-9.254a3.538,3.538,0,0,1,1.078.382l-.574.665a.953.953,0,0,0-.231.673l.142,2.749a.956.956,0,0,0,.954.907c.03,0,.06,0,.089,0l2.741-.259a.954.954,0,0,0,.634-.326l.574-.665a3.51,3.51,0,0,1,.535,1.013Zm10.039-5.338-3.221.368,3.92-4.537c.006-.007.016-.009.022-.017l6.194-7.168,3.121-.259Z" transform="translate(-103.127 -17.502)" fill="#1cb99e"/>
</svg>
