<svg id="Component_206_1" data-name="Component 206 – 1" xmlns="http://www.w3.org/2000/svg" width="70" height="70" viewBox="0 0 70 70">
  <path id="Path_36382" data-name="Path 36382" d="M105,0a35,35,0,1,0,17.5,4.689A35,35,0,0,0,105,0Zm0,67.812a32.814,32.814,0,1,1,16.406-4.4A32.814,32.814,0,0,1,105,67.812Z" transform="translate(-69.998)" fill="#fd5c84"/>
  <path id="Path_36383" data-name="Path 36383" d="M181.627,175c-.984,0-11.32-.055-23.735,12.349a1.093,1.093,0,0,0,0,1.542c11.768,11.79,21.689,12.359,23.5,12.359h.459c1.827,0,11.736-.58,23.515-12.359h0a1.093,1.093,0,0,0,0-1.542C192.881,174.857,182.49,175,181.626,175Zm-21.4,13.125a45.188,45.188,0,0,1,11.014-7.984,13.036,13.036,0,0,0,0,15.979,45.263,45.263,0,0,1-11.014-8Zm21.4,10.937a10.938,10.938,0,1,1,7.734-3.2A10.937,10.937,0,0,1,181.627,199.062Zm10.391-2.942a13.037,13.037,0,0,0,0-15.99,45.263,45.263,0,0,1,11.014,8A45.208,45.208,0,0,1,192.018,196.12Z" transform="translate(-146.627 -153.125)" fill="#fd5c84"/>
  <path id="Path_36384" data-name="Path 36384" d="M296.407,218.75a7.656,7.656,0,0,0,0,15.312,1.094,1.094,0,0,0,1.094-1.094V227.5h5.469a1.094,1.094,0,0,0,1.094-1.094,7.657,7.657,0,0,0-7.656-7.656Zm0,6.562a1.094,1.094,0,0,0-1.094,1.094v5.359a5.469,5.469,0,1,1,6.453-6.453Z" transform="translate(-261.407 -191.406)" fill="#fd5c84"/>
  <path id="Path_36385" data-name="Path 36385" d="M115.937,280H113.75a29.531,29.531,0,0,0,29.53,29.53v-2.187a27.343,27.343,0,0,1-27.344-27.344Z" transform="translate(-108.281 -244.996)" fill="#fd5c84"/>
  <path id="Path_36386" data-name="Path 36386" d="M377.348,73.285h2.188a29.531,29.531,0,0,0-29.53-29.53v2.187a27.344,27.344,0,0,1,27.344,27.344Z" transform="translate(-315.005 -38.286)" fill="#fd5c84"/>
  <path id="Path_36387" data-name="Path 36387" d="M568.75,297.5h2.188v2.187H568.75Z" transform="translate(-506.406 -260.313)" fill="#fd5c84"/>
  <path id="Path_36388" data-name="Path 36388" d="M113.75,245h2.187v2.187H113.75Z" transform="translate(-108.281 -214.375)" fill="#fd5c84"/>
</svg>
