<svg xmlns="http://www.w3.org/2000/svg" width="76" height="66.252" viewBox="0 0 76 66.252">
  <path id="Path_36392" data-name="Path 36392" d="M168.152,73.7,150.143,55.689a.8.8,0,0,0-1.156,0l-5.617,5.617a.8.8,0,0,0,0,1.156l1.156,1.156-.33.33a7.125,7.125,0,0,1-5.039,2.065,8.952,8.952,0,0,0-5.369,1.817,3.8,3.8,0,0,0-3.387-2.065h-.082a3.8,3.8,0,0,0-3.387,2.065,8.714,8.714,0,0,0-5.287-1.817,7.125,7.125,0,0,1-5.039-2.065l-.33-.33,1.156-1.156a.8.8,0,0,0,0-1.156l-5.617-5.617a.8.8,0,0,0-1.156,0L92.648,73.7a.8.8,0,0,0,0,1.156l5.617,5.617a.8.8,0,0,0,1.157,0l.991-.991.909.909a7.759,7.759,0,0,1,1.983,3.717l.165.661a9.614,9.614,0,0,0,2.148,4.3L115.2,99.471l.082,1.322a9.3,9.3,0,0,0,2.561,5.7,7.125,7.125,0,0,1,2.065,5.039v.5h-1.652a.781.781,0,0,0-.826.826v8.013a.781.781,0,0,0,.826.826H143.7a.781.781,0,0,0,.826-.826v-8.013a.781.781,0,0,0-.826-.826h-1.4v-1.322a6.834,6.834,0,0,1,1.239-3.965l.413-.579a8.744,8.744,0,0,0,1.487-4.544l.082-1.983,9.666-10.573a8.833,8.833,0,0,0,2.148-4.3l.165-.661a6.58,6.58,0,0,1,1.983-3.717l.909-.909.991.991a.8.8,0,0,0,1.157,0l5.617-5.617a.8.8,0,0,0,0-1.156ZM98.843,78.737l-4.461-4.461,16.852-16.852,4.461,4.461Zm8.013,9.252a6.931,6.931,0,0,1-1.735-3.47l-.165-.661a8.692,8.692,0,0,0-2.4-4.544l-.909-.909,13.465-13.465.33.33a8.753,8.753,0,0,0,6.2,2.561,7.148,7.148,0,0,1,4.709,1.817l.082.082v2.231a3.682,3.682,0,0,0-2.148-.661H124.2a3.844,3.844,0,0,0-3.8,3.8v9.252a3.682,3.682,0,0,0-2.148-.661,3.862,3.862,0,0,0-3.8,3.883l.579,9.5Zm36.017,32.052H119.083V113.68h23.791Zm-.33-14.87-.413.579a8.743,8.743,0,0,0-1.487,4.957v1.322H121.561v-.5a8.754,8.754,0,0,0-2.561-6.2,7.036,7.036,0,0,1-2.065-4.626l-.826-13.382a2.148,2.148,0,0,1,4.3,0v6.361a.826.826,0,0,0,1.653,0V74.937A2.187,2.187,0,0,1,124.2,72.79h.082a2.187,2.187,0,0,1,2.148,2.148V93.772a.826.826,0,1,0,1.653,0V69.65a2.187,2.187,0,0,1,2.148-2.148h.165a2.187,2.187,0,0,1,2.148,2.148V93.771a.826.826,0,1,0,1.653,0V72.128a2.187,2.187,0,0,1,2.148-2.148h.082a2.187,2.187,0,0,1,2.148,2.148V93.771a.826.826,0,0,0,1.653,0V81.049a2.187,2.187,0,0,1,2.148-2.148h.082a2.187,2.187,0,0,1,2.148,2.148l-.909,20.487a6.332,6.332,0,0,1-1.156,3.635Zm15.7-25.939a8.689,8.689,0,0,0-2.4,4.544l-.165.661a6.925,6.925,0,0,1-1.735,3.47L145.6,96.994l.661-16.026a3.844,3.844,0,0,0-3.8-3.8h-.082a3.68,3.68,0,0,0-2.148.661V72.046a3.844,3.844,0,0,0-3.8-3.8h-.165a6.585,6.585,0,0,1,2.809-.579,8.754,8.754,0,0,0,6.2-2.561l.33-.33,13.465,13.465Zm3.718-.5L145.105,61.884l4.461-4.461,16.852,16.852Z" transform="translate(-92.4 -55.441)" fill="#0037ff"/>
</svg>
