<svg id="Component_202_1" data-name="Component 202 – 1" xmlns="http://www.w3.org/2000/svg" width="37.81" height="36.582" viewBox="0 0 37.81 36.582">
  <path id="Path_36416" data-name="Path 36416" d="M185.211,140.537a3.113,3.113,0,0,0,3.953,0,.59.59,0,0,0-.708-.944,1.94,1.94,0,0,1-2.537,0,.59.59,0,0,0-.708.944Z" transform="translate(-177.21 -130.684)" fill="#fff"/>
  <path id="Path_36417" data-name="Path 36417" d="M449.635,140.537a3.113,3.113,0,0,0,3.953,0,.59.59,0,0,0-.708-.944,1.964,1.964,0,0,1-2.537,0,.577.577,0,0,0-.826.118A.6.6,0,0,0,449.635,140.537Z" transform="translate(-423.818 -130.684)" fill="#fff"/>
  <path id="Path_36418" data-name="Path 36418" d="M205.641,228.668v2.979a.177.177,0,0,0,.03.118,9.3,9.3,0,0,0,2.6,5.428c-.147.531-.5,1.386-1.328,1.534-1.711.295-4.985,1.681-5.192,4.867a12.938,12.938,0,0,0-.059,3.54.6.6,0,0,0,.59.531h.059a.6.6,0,0,0,.531-.649,11.819,11.819,0,0,1,.029-3.215v-.089c.118-2.183,2.065-3.156,3.274-3.569l2.478,2.625a1.151,1.151,0,0,0,.974.5,1.285,1.285,0,0,0,.856-.324l1.032-1.239.059-.059.059.059.974,1.18.059.059a1.285,1.285,0,0,0,.856.324h.177a1.213,1.213,0,0,0,.8-.5l2.448-2.566c1.21.443,3.068,1.446,3.186,3.54v.059a15.191,15.191,0,0,1,0,3.274.593.593,0,1,0,1.18.118,15.524,15.524,0,0,0-.03-3.51c-.236-3.245-3.54-4.661-5.221-4.956a1.874,1.874,0,0,1-1.327-1.445,9.077,9.077,0,0,0,2.714-5.959v-2.684a2.805,2.805,0,0,0-2.714-2.891h-6.372a2.851,2.851,0,0,0-2.714,2.92Zm5.015,12.183-1.032,1.239c-.029.03-.029.03-.059,0l-2.094-2.271a2.385,2.385,0,0,0,.885-.5l2.33,1.445a.1.1,0,0,1,.029.059c-.029,0-.029,0-.059.029Zm1-1.032-.118.118-.118-.118-2.36-1.446c.059-.118.118-.265.177-.383a4,4,0,0,0,4.513.059c.059.118.118.236.177.384l-2.183,1.357Zm3.923.03L213.547,242l-.059.089c-.029,0-.029,0-.059-.03l-.944-1.15-.059-.059c-.03,0-.03-.03-.03-.059s0-.03.03-.059l2.271-1.386a2.173,2.173,0,0,0,.885.5Zm-4.041-2.3c-2.389,0-4.454-3.363-4.69-5.752.561-.8.974-.678,1.947-.442a4.645,4.645,0,0,0,4.189-.5,2.5,2.5,0,0,1,2.154-.56,2.132,2.132,0,0,1,1.121,1.092c-.03,2.389-2.183,6.165-4.72,6.165Zm4.72-8.88v.885a3.5,3.5,0,0,0-.738-.383,3.689,3.689,0,0,0-3.215.678,3.5,3.5,0,0,1-3.215.354,6.394,6.394,0,0,0-1.268-.236,2.382,2.382,0,0,0-1,.236v-1.564a1.652,1.652,0,0,1,1.534-1.74h6.372a1.722,1.722,0,0,1,1.534,1.77Z" transform="translate(-192.715 -211.146)" fill="#fff"/>
  <path id="Path_36419" data-name="Path 36419" d="M319.711,357.033a1.964,1.964,0,0,1-2.537,0,.59.59,0,0,0-.708.944,3.113,3.113,0,0,0,3.953,0,.59.59,0,0,0-.708-.944Z" transform="translate(-299.617 -333.463)" fill="#fff"/>
  <path id="Path_36420" data-name="Path 36420" d="M75.26,22.139c-1.711.295-4.985,1.682-5.192,4.867a12.939,12.939,0,0,0-.059,3.54.6.6,0,0,0,.59.531h.059a.6.6,0,0,0,.531-.649,11.415,11.415,0,0,1,.029-3.186v-.088c.118-2.183,2.065-3.156,3.274-3.569l2.478,2.625a1.151,1.151,0,0,0,.974.5,1.285,1.285,0,0,0,.856-.324l1.032-1.239.059-.059.059.059.974,1.18.059.059a1.485,1.485,0,0,0,.767.324,4.444,4.444,0,0,1,.265-1.386l-.118.118-.059.088c-.029,0-.029,0-.059-.03l-.944-1.15-.059-.059c-.029,0-.029-.03-.029-.059s0-.029.029-.059l2.271-1.386a2.124,2.124,0,0,0,.8.442,3.71,3.71,0,0,1,1.829-.5h.56a7.506,7.506,0,0,0-1.8-.56,1.874,1.874,0,0,1-1.328-1.446,9.077,9.077,0,0,0,2.714-5.959V12.08a2.805,2.805,0,0,0-2.714-2.891h-6.4a2.805,2.805,0,0,0-2.714,2.891v2.979a.177.177,0,0,0,.029.118,9.3,9.3,0,0,0,2.6,5.428,1.923,1.923,0,0,1-1.357,1.534Zm4.808,1.032-.177.177-.118-.118-2.36-1.446c.059-.118.118-.265.177-.383a4,4,0,0,0,2.3.708,4.206,4.206,0,0,0,2.212-.649c.059.118.118.236.177.383Zm-4.9-11.092a1.652,1.652,0,0,1,1.534-1.74h6.372a1.634,1.634,0,0,1,1.534,1.74v.885a3.5,3.5,0,0,0-.738-.383,3.689,3.689,0,0,0-3.215.678,3.5,3.5,0,0,1-3.215.354,6.394,6.394,0,0,0-1.268-.236,2.382,2.382,0,0,0-1,.236Zm.029,3.1c.561-.8.974-.678,1.947-.442a4.645,4.645,0,0,0,4.189-.5,2.682,2.682,0,0,1,2.183-.56,2.132,2.132,0,0,1,1.121,1.092c-.029,2.389-2.183,6.165-4.72,6.165-2.419,0-4.484-3.333-4.72-5.752Zm1.5,7.522,2.33,1.446a.1.1,0,0,1,.029.059c0,.029-.029.029-.029.059L78,25.5c-.03.03-.03.03-.059,0L75.82,23.2a2.22,2.22,0,0,0,.885-.5Z" transform="translate(-69.914 -9.189)" fill="#fff"/>
  <path id="Path_36421" data-name="Path 36421" d="M390.3,22.137a7.943,7.943,0,0,0-1.8.56h.59a3.922,3.922,0,0,1,1.829.472,2.255,2.255,0,0,0,.767-.442l2.271,1.386a.1.1,0,0,1,.029.059c0,.029-.029.029-.029.059l-.059.059-.944,1.15a.1.1,0,0,1-.059.03l-.059-.088-.089-.089a5.27,5.27,0,0,1,.265,1.357,1.393,1.393,0,0,0,.738-.324l.059-.059.974-1.18.059-.059.059.059,1.032,1.239a1.285,1.285,0,0,0,.856.324,1.189,1.189,0,0,0,.974-.5l2.478-2.625c1.21.413,3.156,1.416,3.274,3.569v.088a11.586,11.586,0,0,1,.029,3.215.6.6,0,0,0,.531.649h.059a.6.6,0,0,0,.59-.531,11.872,11.872,0,0,0-.059-3.54c-.266-3.156-3.51-4.543-5.221-4.838a1.841,1.841,0,0,1-1.328-1.534,9.219,9.219,0,0,0,2.6-5.428c0-.029.03-.088.03-.118V12.077a2.805,2.805,0,0,0-2.714-2.891h-6.4a2.805,2.805,0,0,0-2.714,2.891v2.684a9.016,9.016,0,0,0,2.714,5.959,1.881,1.881,0,0,1-1.328,1.416Zm4.513,1.21-.177-.177-2.183-1.357c.059-.118.118-.236.177-.383a4,4,0,0,0,4.513-.059,4.11,4.11,0,0,0,.177.383l-2.36,1.446c-.059.059-.118.089-.147.147Zm4.071-.147-2.153,2.271h-.059l-1.032-1.239c.029,0,0-.03,0-.03,0-.03,0-.03.029-.059L398,22.7a2.22,2.22,0,0,0,.885.5Zm-8.791-11.121a1.652,1.652,0,0,1,1.534-1.74H398a1.634,1.634,0,0,1,1.534,1.74v1.564a2.282,2.282,0,0,0-1-.236,4.593,4.593,0,0,0-1.268.236,3.41,3.41,0,0,1-3.215-.354,3.689,3.689,0,0,0-3.215-.678,2.518,2.518,0,0,0-.738.383Zm0,2.684a2.035,2.035,0,0,1,1.121-1.092,2.578,2.578,0,0,1,2.183.56,4.645,4.645,0,0,0,4.189.5c.944-.265,1.386-.383,1.947.442-.236,2.389-2.3,5.752-4.69,5.752-2.566,0-4.72-3.746-4.749-6.165Z" transform="translate(-367.021 -9.187)" fill="#fff"/>
</svg>
