<svg xmlns="http://www.w3.org/2000/svg" width="38.5" height="38.5" viewBox="0 0 38.5 38.5">
  <g id="Component_204_1" data-name="Component 204 – 1" transform="translate(0.25 0.25)">
    <path id="Path_36422" data-name="Path 36422" d="M116.634,32.99a.764.764,0,0,0,.4.173.623.623,0,0,0,.4-.173l2.476-2.245a.572.572,0,1,0-.749-.864l-1.554,1.382V29.421a3.287,3.287,0,0,1,3.454-3.052h8.866v4.894l-1.44-1.324a.572.572,0,0,0-.749.864l2.361,2.13a.859.859,0,0,0,.4.173.524.524,0,0,0,.461-.23l2.361-2.13a.572.572,0,1,0-.749-.864l-1.5,1.324V26.369h8.809a3.287,3.287,0,0,1,3.454,3.052v1.785l-1.382-1.267a.572.572,0,0,0-.749.864l2.3,2.073a.567.567,0,0,0,.864.058l2.476-2.245a.572.572,0,0,0-.749-.864L144.5,31.263V29.421a4.437,4.437,0,0,0-4.606-4.2h-8.809V23.26H136.9a.544.544,0,0,0,.576-.576V19.978a4.042,4.042,0,0,0-4.03-4.03h-1.094a4.079,4.079,0,1,0-5.93-3.627,4.067,4.067,0,0,0,2.245,3.627h-1.209a4.042,4.042,0,0,0-4.03,4.03v2.706a.544.544,0,0,0,.576.576h5.93v1.958h-8.925a4.437,4.437,0,0,0-4.606,4.2v1.843L114.964,30a.572.572,0,1,0-.749.864Zm10.939-20.669a2.936,2.936,0,1,1,2.936,2.936A2.949,2.949,0,0,1,127.573,12.321Zm-2.994,7.658a2.887,2.887,0,0,1,2.879-2.879h5.93a2.887,2.887,0,0,1,2.879,2.879v2.13H124.579Z" transform="translate(-111.51 -8.233)" fill="#fff" stroke="#fff" stroke-width="0.5"/>
    <path id="Path_36423" data-name="Path 36423" d="M85.9,383.276a3.314,3.314,0,0,0,1.5-2.764,3.355,3.355,0,0,0-3.4-3.34,3.392,3.392,0,0,0-3.4,3.34,3.24,3.24,0,0,0,1.5,2.764,4.088,4.088,0,0,0-3.857,4.03v1.44a.544.544,0,0,0,.576.576H89.12a.544.544,0,0,0,.576-.576v-1.44a4.08,4.08,0,0,0-3.8-4.03ZM84,378.267a2.237,2.237,0,0,1,2.245,2.188,2.246,2.246,0,0,1-4.491,0A2.236,2.236,0,0,1,84,378.267Zm4.549,9.9H79.39v-.864a2.887,2.887,0,0,1,2.879-2.879h3.34a2.887,2.887,0,0,1,2.879,2.879v.864Z" transform="translate(-78.238 -351.379)" fill="#fff" stroke="#fff" stroke-width="0.5"/>
    <path id="Path_36424" data-name="Path 36424" d="M465.532,383.276a3.314,3.314,0,0,0,1.5-2.764,3.355,3.355,0,0,0-3.4-3.34,3.392,3.392,0,0,0-3.4,3.34,3.24,3.24,0,0,0,1.5,2.764,4.088,4.088,0,0,0-3.858,4.03v1.44a.544.544,0,0,0,.576.576h10.307a.544.544,0,0,0,.576-.576v-1.44a4.038,4.038,0,0,0-3.8-4.03Zm-1.9-5.009a2.237,2.237,0,0,1,2.245,2.188,2.2,2.2,0,0,1-2.245,2.188,2.189,2.189,0,1,1,0-4.376Zm4.549,9.9h-9.155v-.864a2.887,2.887,0,0,1,2.879-2.879h3.4a2.887,2.887,0,0,1,2.879,2.879Z" transform="translate(-431.332 -351.379)" fill="#fff" stroke="#fff" stroke-width="0.5"/>
    <path id="Path_36425" data-name="Path 36425" d="M275.3,384.1a3.24,3.24,0,0,0,1.5-2.764,3.355,3.355,0,0,0-3.4-3.34,3.392,3.392,0,0,0-3.4,3.34,3.24,3.24,0,0,0,1.5,2.764,4.088,4.088,0,0,0-3.858,4.03v1.44a.544.544,0,0,0,.576.576h10.306a.544.544,0,0,0,.576-.576v-1.44a4.124,4.124,0,0,0-3.8-4.03Zm-1.9-5.009a2.237,2.237,0,0,1,2.245,2.188,2.2,2.2,0,0,1-2.245,2.188,2.189,2.189,0,1,1,0-4.376Zm4.491,9.9h-9.1v-.864a2.887,2.887,0,0,1,2.879-2.879h3.34a2.887,2.887,0,0,1,2.879,2.879Z" transform="translate(-254.402 -352.142)" fill="#fff" stroke="#fff" stroke-width="0.5"/>
  </g>
</svg>
