<svg id="Component_211_1" data-name="Component 211 – 1" xmlns="http://www.w3.org/2000/svg" width="76" height="72.733" viewBox="0 0 76 72.733">
  <path id="Path_36390" data-name="Path 36390" d="M287.875,126.74h13.516a5.084,5.084,0,0,0,5.069-5.069v-1.689a11.861,11.861,0,0,0-6.336-10.475,8.279,8.279,0,0,0,2.957-6.42,8.448,8.448,0,0,0-16.9,0,8.559,8.559,0,0,0,2.957,6.42,11.7,11.7,0,0,0-6.336,10.475v1.689a5.083,5.083,0,0,0,5.068,5.069Zm6.758-28.722a5.069,5.069,0,1,1-5.069,5.069A5.084,5.084,0,0,1,294.633,98.018Zm-8.448,21.964a8.448,8.448,0,1,1,16.9,0v1.689a1.694,1.694,0,0,1-1.689,1.689H287.875a1.694,1.694,0,0,1-1.689-1.689Z" transform="translate(-254.931 -86.192)" fill="#21a5aa"/>
  <path id="Path_36391" data-name="Path 36391" d="M173.446,81.724l-.169-.169a10.331,10.331,0,0,0-9.207-2.28,28.809,28.809,0,1,0-55.078-11.489,29.77,29.77,0,0,0,3.632,14.192h-.253l-10.137,1.689a4.981,4.981,0,0,0-4.14,5.829l2.872,17.486a4.961,4.961,0,0,0,5.829,4.139l12.671-2.112h.676l9.377,2.2a4.993,4.993,0,0,0,1.183.169,3.179,3.179,0,0,0,.845-.084l19.26-3.21a4.61,4.61,0,0,0,2.957-1.689l19.852-22.471a1.52,1.52,0,0,0-.17-2.2ZM112.37,67.786a25.346,25.346,0,1,1,50.685,0A26.044,26.044,0,0,1,156.466,85.1l-.845.929a27.985,27.985,0,0,1-3.464,2.957,10.006,10.006,0,0,0-10.39-4.9l-13.263,2.2a1.76,1.76,0,0,1-.929-.084l-8.025-3.295a11.859,11.859,0,0,0-2.957-.845,25.993,25.993,0,0,1-4.223-14.277Zm38.774,36.578a1.57,1.57,0,0,1-1.014.592l-19.176,3.125h-.676l-9.377-2.2a5.719,5.719,0,0,0-1.183-.169,3.18,3.18,0,0,0-.845.084L106.2,107.912a1.707,1.707,0,0,1-1.943-1.436l-2.872-17.486a1.414,1.414,0,0,1,.338-1.267,1.878,1.878,0,0,1,1.1-.676l10.137-1.689a10.421,10.421,0,0,1,5.322.592l8.025,3.295a5.979,5.979,0,0,0,2.7.338l13.263-2.2a6.693,6.693,0,0,1,7.265,3.97l-12.334,2.028a1.649,1.649,0,0,0-1.352,1.943,1.773,1.773,0,0,0,1.943,1.436L151.989,94.4a1.2,1.2,0,0,0,.507-.169A2.23,2.23,0,0,0,153,93.8l8.7-9.293a6.6,6.6,0,0,1,8.194-1.267Z" transform="translate(-98.011 -38.642)" fill="#21a5aa"/>
</svg>
