<svg id="Component_85_1" data-name="Component 85 – 1" xmlns="http://www.w3.org/2000/svg" width="31.312" height="31.312" viewBox="0 0 31.312 31.312">
  <path id="Path_16675" data-name="Path 16675" d="M264,210.928l-7.275,6.892-3.02-3.191a1.294,1.294,0,0,0-1.872,1.787l3.914,4.084a1.234,1.234,0,0,0,.893.383,1.191,1.191,0,0,0,.893-.341l8.211-7.785a1.276,1.276,0,0,0,.042-1.787,1.234,1.234,0,0,0-1.787-.042Z" transform="translate(-243.547 -200.08)" fill="#06c200"/>
  <path id="Path_16676" data-name="Path 16676" d="M155.366,69.715A15.655,15.655,0,1,0,166.437,74.3,15.658,15.658,0,0,0,155.366,69.715Zm0,28.759a13.1,13.1,0,1,1,9.265-3.838A13.1,13.1,0,0,1,155.366,98.474Z" transform="translate(-139.71 -69.715)" fill="#06c200"/>
</svg>
