<svg width="44" height="44" viewBox="0 0 44 44" fill="none" xmlns="http://www.w3.org/2000/svg">
<g clip-path="url(#clip0_38_3952)">
<path d="M11.3666 12.6326C6.20187 12.6326 2 16.8346 2 21.9996C2 27.1645 6.19227 31.3664 11.3454 31.3664C13.0277 31.3664 14.6884 30.9158 16.0218 30.0975L16.3125 29.9191V28.2527H15.7029C14.3114 28.2527 12.9861 27.1055 12.6718 25.733H19.958L20.1077 25.3409C20.5227 24.2543 20.7331 23.1296 20.7331 21.998C20.7331 16.834 16.5313 12.6326 11.3666 12.6326ZM19.1077 24.5138H11.3544V25.1234C11.3544 27.0979 12.9057 28.9201 14.782 29.3794C13.7525 29.8774 12.565 30.1472 11.3453 30.1472C6.86453 30.1472 3.21922 26.4922 3.21922 21.9996C3.21922 17.5069 6.87406 13.8518 11.3666 13.8518C15.859 13.8518 19.5139 17.5062 19.5139 21.998C19.5138 22.8455 19.3774 23.6898 19.1077 24.5138Z" fill="white"/>
<path d="M17.0439 17.6375H12.6333V18.2471C12.6333 20.6526 14.5904 22.6096 16.9959 22.6096H17.0439V21.3904H16.9959C15.4711 21.3904 14.1965 20.2992 13.9118 18.8567H17.0439V17.6375Z" fill="white"/>
<path d="M17.0441 19.4746H15.7437V20.6938H17.0441V19.4746Z" fill="white"/>
<path d="M32.6337 12.6323C27.4689 12.6323 23.2671 16.8337 23.2671 21.9978C23.2671 23.2081 23.5093 24.0917 23.879 25.3014L24.0108 25.7329H31.3219C30.9902 27.0707 29.6351 28.2526 28.3016 28.2526H27.692V29.9189L27.9827 30.0973C29.316 30.9156 30.9761 31.3662 32.6569 31.3662C37.8088 31.3662 42.0002 27.1643 42.0002 21.9994C42.0002 16.8344 37.7984 12.6323 32.6337 12.6323ZM32.6651 30.147C31.441 30.147 30.2428 29.8747 29.2104 29.3724C31.0445 28.8932 32.6501 27.0234 32.6501 25.1233V24.5137H24.9149C24.6454 23.6009 24.4873 22.9039 24.4873 21.9979C24.4873 17.506 28.1433 13.8516 32.6357 13.8516C37.1281 13.8516 40.7851 17.5067 40.7851 21.9994C40.7851 26.4919 37.1447 30.147 32.6651 30.147Z" fill="white"/>
<path d="M26.9601 17.6375V18.8567H30.0878C29.8032 20.2992 28.5285 21.3904 27.0037 21.3904H26.96V22.6096H27.0037C29.4092 22.6096 31.3663 20.6526 31.3663 18.2471V17.6375H26.9601Z" fill="white"/>
<path d="M28.2609 19.4746H26.9604V20.6938H28.2609V19.4746Z" fill="white"/>
<path d="M32.0077 2H22.6253C19.8749 2 17.6372 4.23766 17.6372 6.98812V13.0346C17.6372 13.8306 18.2848 14.4782 19.0808 14.4782C19.5328 14.4782 19.9645 14.2623 20.2356 13.9007L21.679 11.9762H32.0077C34.7581 11.9762 36.9958 9.73859 36.9958 6.98812C36.9958 4.23766 34.7581 2 32.0077 2ZM32.0078 10.757H21.0695L19.2603 13.1692C19.2182 13.2254 19.1511 13.2591 19.0809 13.2591C18.9572 13.2591 18.8564 13.1584 18.8564 13.0346V6.98812C18.8564 4.90992 20.5471 3.21922 22.6253 3.21922H32.0078C34.086 3.21922 35.7767 4.90992 35.7767 6.98812C35.7767 9.06625 34.086 10.757 32.0078 10.757Z" fill="white"/>
<path d="M25.5445 29.522C25.0925 29.522 24.6609 29.7378 24.3896 30.0994L22.9463 32.0239H12.6175C9.86705 32.0239 7.62939 34.2616 7.62939 37.0121C7.62939 39.7625 9.86713 42.0001 12.6175 42.0001H22C24.7505 42.0001 26.9881 39.7625 26.9881 37.0121V30.9656C26.9881 30.1696 26.3405 29.522 25.5445 29.522ZM25.7689 37.0121C25.7689 39.0902 24.0782 40.7809 22 40.7809H12.6175C10.5393 40.7809 8.84861 39.0902 8.84861 37.0121C8.84861 34.9338 10.5393 33.2431 12.6175 33.2431H23.5558L25.3649 30.831C25.4071 30.7748 25.4742 30.7411 25.5445 30.7411C25.6681 30.7411 25.7688 30.8417 25.7688 30.9655V37.0121H25.7689Z" fill="white"/>
<path d="M27.6106 4.43726H21.3521V5.65647H27.6106V4.43726Z" fill="white"/>
<path d="M33.3003 6.30688H21.3521V7.5261H33.3003V6.30688Z" fill="white"/>
<path d="M31.4308 4.43726H28.9111V5.65647H31.4308V4.43726Z" fill="white"/>
<path d="M25.7412 8.25757H21.3521V9.47679H25.7412V8.25757Z" fill="white"/>
<path d="M16.394 34.5928H12.0049V35.812H16.394V34.5928Z" fill="white"/>
<path d="M22.0024 34.5928H17.6133V35.812H22.0024V34.5928Z" fill="white"/>
<path d="M19.4827 36.4622H12.0049V37.6814H19.4827V36.4622Z" fill="white"/>
<path d="M13.2241 38.3315H12.0049V39.5508H13.2241V38.3315Z" fill="white"/>
<path d="M15.7438 38.3315H14.4434V39.5508H15.7438V38.3315Z" fill="white"/>
<path d="M18.2634 38.3315H16.9629V39.5508H18.2634V38.3315Z" fill="white"/>
</g>
<defs>
<clipPath id="clip0_38_3952">
<rect width="40" height="40" fill="white" transform="translate(2 2)"/>
</clipPath>
</defs>
</svg>
