<svg id="Component_202_1" data-name="Component 202 – 1" xmlns="http://www.w3.org/2000/svg" width="44" height="39.38" viewBox="0 0 44 39.38">
  <path id="Path_35403" data-name="Path 35403" d="M113.019,51.147h-1.43A21.439,21.439,0,0,0,100.52,33.588H107.7v1.231a.99.99,0,0,0,.983.99h4.084a.99.99,0,0,0,.983-.99V30.378a.984.984,0,0,0-.983-.983h-4.084a.983.983,0,0,0-.983.983v1.23H95.33v-1.23a.984.984,0,0,0-.983-.983h-4.1a.983.983,0,0,0-.99.983v1.23H76.3v-1.23a.983.983,0,0,0-.983-.983H71.233a.984.984,0,0,0-.983.983v4.428h0a.99.99,0,0,0,.983.99h4.084a.99.99,0,0,0,.983-.99v-1.23h7.171A21.388,21.388,0,0,0,72.416,51.147h-1.43a.983.983,0,0,0-.983.969v5.823a.99.99,0,0,0,.983.99h5.369a.99.99,0,0,0,.983-.99V52.116a.983.983,0,0,0-.983-.969H74.4c.639-8.807,6.813-16.1,14.857-17.476v1.134a.99.99,0,0,0,.983.99H94.32a.99.99,0,0,0,.983-.99V33.781c7.748,1.595,13.681,8.779,14.307,17.366H107.65a.983.983,0,0,0-.983.983v5.823a.99.99,0,0,0,.983.99h5.369a.99.99,0,0,0,.983-1V52.116a.983.983,0,0,0-.983-.969ZM109.671,32.62V31.368h2.117v2.454h-2.117Zm-35.337,1.2H72.216V31.368h2.117Zm1.038,19.284v3.85h-3.4v-3.85ZM93.377,32.585v1.237H91.225V31.368h2.152Zm18.652,24.372h-3.4v-3.85h3.4Z" transform="translate(-70.003 -29.395)" fill="#fff"/>
  <path id="Path_35404" data-name="Path 35404" d="M249.911,133.682a1.658,1.658,0,0,0-.131-.179.947.947,0,0,0-.185-.144h-.055a.911.911,0,0,0-.165-.069h-.062a1.011,1.011,0,0,0-.467,0h-.062a.911.911,0,0,0-.165.069h-.055a.941.941,0,0,0-.186.144,1.658,1.658,0,0,0-.131.179l-7.679,13.667a.976.976,0,0,0-.089.736l2.681,9.769h-.825a.983.983,0,0,0-.983.983V163.5a.983.983,0,0,0,.983.983h13.434a.983.983,0,0,0,.983-.983v-4.661a.983.983,0,0,0-.983-.983h-.825l2.681-9.769a.976.976,0,0,0-.089-.736Zm-.859,15.132a1.237,1.237,0,1,1-1.059,1.224,1.155,1.155,0,0,1,1.059-1.224Zm5.727,13.695H243.326v-2.681h11.453Zm-1.884-4.654h-7.686l-2.75-9.9,5.582-10v9.082a3.177,3.177,0,0,0-2.062,3,3.032,3.032,0,1,0,6.05,0,3.169,3.169,0,0,0-2.062-3v-9.082l5.651,10Z" transform="translate(-227.052 -125.102)" fill="#fff"/>
</svg>
