<svg width="44" height="44" viewBox="0 0 44 44" fill="none" xmlns="http://www.w3.org/2000/svg">
<path d="M12.6055 9.53439V7.35807C13.067 7.50932 13.3571 7.81377 13.3571 8.09611C13.3571 8.44197 13.6375 8.72244 13.9834 8.72244C14.3293 8.72244 14.6097 8.44205 14.6097 8.09611C14.6097 7.09736 13.7685 6.28377 12.6055 6.06619V5.96666C12.6055 5.6208 12.3251 5.34033 11.9792 5.34033C11.6332 5.34033 11.3529 5.62072 11.3529 5.96666V6.06619C10.19 6.28385 9.34863 7.09744 9.34863 8.09611C9.34863 9.49158 10.4632 10.0781 11.3529 10.4156V12.5921C10.8914 12.4408 10.6013 12.1363 10.6013 11.854C10.6013 11.5081 10.3209 11.2277 9.97496 11.2277C9.62902 11.2277 9.34863 11.5081 9.34863 11.854C9.34863 12.8528 10.1899 13.6663 11.3529 13.8839V13.9835C11.3529 14.3293 11.6332 14.6098 11.9792 14.6098C12.3251 14.6098 12.6055 14.3294 12.6055 13.9835V13.8839C13.7684 13.6663 14.6097 12.8527 14.6097 11.854C14.6097 10.4585 13.4952 9.87197 12.6055 9.53439ZM11.3529 9.04916C10.7286 8.74314 10.6014 8.47588 10.6014 8.09611C10.6014 7.81377 10.8914 7.50932 11.3529 7.35807V9.04916ZM12.6055 12.592V10.9009C13.2299 11.2069 13.3571 11.4742 13.3571 11.8539C13.3571 12.1363 13.067 12.4407 12.6055 12.592Z" fill="white"/>
<path d="M22.0001 6.67651H16.6556C16.3098 6.67651 16.0293 6.9569 16.0293 7.30284C16.0293 7.6487 16.3097 7.92917 16.6556 7.92917H22.0001C22.3459 7.92917 22.6264 7.64878 22.6264 7.30284C22.6264 6.95698 22.3459 6.67651 22.0001 6.67651Z" fill="white"/>
<path d="M17.3237 12.021H16.6556C16.3098 12.021 16.0293 12.3014 16.0293 12.6473C16.0293 12.9933 16.3097 13.2737 16.6556 13.2737H17.3237C17.6695 13.2737 17.95 12.9933 17.95 12.6473C17.95 12.3014 17.6695 12.021 17.3237 12.021Z" fill="white"/>
<path d="M28.6807 16.6973H9.97496C9.6291 16.6973 9.34863 16.9777 9.34863 17.3236C9.34863 17.6695 9.62902 17.9499 9.97496 17.9499H28.6807C29.0265 17.9499 29.307 17.6695 29.307 17.3236C29.307 16.9777 29.0265 16.6973 28.6807 16.6973Z" fill="white"/>
<path d="M15.9875 20.7056H13.9833C13.6374 20.7056 13.3569 20.986 13.3569 21.3319C13.3569 21.6778 13.6373 21.9582 13.9833 21.9582H15.9875C16.3333 21.9582 16.6138 21.6778 16.6138 21.3319C16.6138 20.986 16.3334 20.7056 15.9875 20.7056Z" fill="white"/>
<path d="M11.3111 20.7056H9.97496C9.6291 20.7056 9.34863 20.986 9.34863 21.3319C9.34863 21.6778 9.62902 21.9582 9.97496 21.9582H11.3111C11.6569 21.9582 11.9374 21.6778 11.9374 21.3319C11.9374 20.986 11.6569 20.7056 11.3111 20.7056Z" fill="white"/>
<path d="M15.9875 23.3779H13.9833C13.6374 23.3779 13.3569 23.6583 13.3569 24.0043C13.3569 24.3501 13.6373 24.6306 13.9833 24.6306H15.9875C16.3333 24.6306 16.6138 24.3502 16.6138 24.0043C16.6138 23.6583 16.3334 23.3779 15.9875 23.3779Z" fill="white"/>
<path d="M11.3111 23.3779H9.97496C9.6291 23.3779 9.34863 23.6583 9.34863 24.0043C9.34863 24.3501 9.62902 24.6306 9.97496 24.6306H11.3111C11.6569 24.6306 11.9374 24.3502 11.9374 24.0043C11.9374 23.6583 11.6569 23.3779 11.3111 23.3779Z" fill="white"/>
<path d="M15.9875 26.05H13.9833C13.6374 26.05 13.3569 26.3304 13.3569 26.6764C13.3569 27.0223 13.6373 27.3027 13.9833 27.3027H15.9875C16.3333 27.3027 16.6138 27.0223 16.6138 26.6764C16.6138 26.3304 16.3334 26.05 15.9875 26.05Z" fill="white"/>
<path d="M11.3111 26.05H9.97496C9.6291 26.05 9.34863 26.3304 9.34863 26.6764C9.34863 27.0223 9.62902 27.3027 9.97496 27.3027H11.3111C11.6569 27.3027 11.9374 27.0223 11.9374 26.6764C11.9374 26.3304 11.6569 26.05 11.3111 26.05Z" fill="white"/>
<path d="M15.9875 28.7222H13.9833C13.6374 28.7222 13.3569 29.0026 13.3569 29.3485C13.3569 29.6944 13.6373 29.9748 13.9833 29.9748H15.9875C16.3333 29.9748 16.6138 29.6944 16.6138 29.3485C16.6138 29.0026 16.3334 28.7222 15.9875 28.7222Z" fill="white"/>
<path d="M11.3111 28.7222H9.97496C9.6291 28.7222 9.34863 29.0026 9.34863 29.3485C9.34863 29.6944 9.62902 29.9748 9.97496 29.9748H11.3111C11.6569 29.9748 11.9374 29.6944 11.9374 29.3485C11.9374 29.0026 11.6569 28.7222 11.3111 28.7222Z" fill="white"/>
<path d="M15.9875 31.3945H13.9833C13.6374 31.3945 13.3569 31.6749 13.3569 32.0209C13.3569 32.3668 13.6373 32.6472 13.9833 32.6472H15.9875C16.3333 32.6472 16.6138 32.3668 16.6138 32.0209C16.6138 31.6749 16.3334 31.3945 15.9875 31.3945Z" fill="white"/>
<path d="M11.3111 31.3945H9.97496C9.6291 31.3945 9.34863 31.6749 9.34863 32.0209C9.34863 32.3668 9.62902 32.6472 9.97496 32.6472H11.3111C11.6569 32.6472 11.9374 32.3668 11.9374 32.0209C11.9374 31.6749 11.6569 31.3945 11.3111 31.3945Z" fill="white"/>
<path d="M24.0043 12.021H23.3363C22.9904 12.021 22.71 12.3014 22.71 12.6473C22.71 12.9933 22.9904 13.2737 23.3363 13.2737H24.0043C24.3502 13.2737 24.6307 12.9933 24.6307 12.6473C24.6307 12.3014 24.3502 12.021 24.0043 12.021Z" fill="white"/>
<path d="M27.3447 12.021H26.6766C26.3308 12.021 26.0503 12.3014 26.0503 12.6473C26.0503 12.9933 26.3307 13.2737 26.6766 13.2737H27.3447C27.6905 13.2737 27.971 12.9933 27.971 12.6473C27.971 12.3014 27.6906 12.021 27.3447 12.021Z" fill="white"/>
<path d="M20.664 12.021H19.996C19.6501 12.021 19.3696 12.3014 19.3696 12.6473C19.3696 12.9933 19.65 13.2737 19.996 13.2737H20.664C21.0099 13.2737 21.2903 12.9933 21.2903 12.6473C21.2903 12.3014 21.0099 12.021 20.664 12.021Z" fill="white"/>
<path d="M23.3362 9.34863H16.6556C16.3098 9.34863 16.0293 9.62902 16.0293 9.97496C16.0293 10.3209 16.3097 10.6013 16.6556 10.6013H23.3362C23.6821 10.6013 23.9626 10.3209 23.9626 9.97496C23.9626 9.62902 23.6822 9.34863 23.3362 9.34863Z" fill="white"/>
<path d="M35.3613 19.3695H32.6473V9.30695C32.6473 9.14086 32.5813 8.98156 32.4638 8.86414L25.7831 2.18344C25.6657 2.06594 25.5064 2 25.3403 2H7.97072C6.88861 2 6.0083 2.88031 6.0083 3.96242V36.0292C6.0083 37.1113 6.88861 37.9916 7.97072 37.9916H18.0334V39.3695C18.0334 40.82 19.2135 42 20.6638 42H35.3612C36.8117 42 37.9917 40.8199 37.9917 39.3695V21.9999C37.9917 20.5495 36.8117 19.3695 35.3613 19.3695ZM25.9667 4.13828L30.509 8.68063H27.3446C26.5848 8.68063 25.9667 8.0625 25.9667 7.30273V4.13828ZM18.0334 21.9999V36.739H7.97072C7.57932 36.739 7.26088 36.4205 7.26088 36.0291V3.96242C7.26088 3.57102 7.57932 3.25258 7.97072 3.25258H24.714V7.30273C24.714 8.7532 25.8941 9.9332 27.3445 9.9332H31.3946V19.3694H20.6639C19.2135 19.3695 18.0334 20.5495 18.0334 21.9999ZM36.7392 39.3695C36.7392 40.1293 36.121 40.7474 35.3613 40.7474H20.6639C19.9042 40.7474 19.286 40.1293 19.286 39.3695V21.9999C19.286 21.2402 19.9042 20.622 20.6639 20.622H35.3613C36.121 20.622 36.7392 21.2402 36.7392 21.9999V39.3695Z" fill="white"/>
<path d="M34.025 22.0417H21.9999C21.2862 22.0417 20.7056 22.6224 20.7056 23.3361V26.0084C20.7056 26.7221 21.2862 27.3028 21.9999 27.3028H34.025C34.7388 27.3028 35.3194 26.7221 35.3194 26.0084V23.3361C35.3194 22.6224 34.7388 22.0417 34.025 22.0417ZM34.0668 26.0084C34.0668 26.0314 34.0481 26.0501 34.0251 26.0501H21.9999C21.9769 26.0501 21.9582 26.0314 21.9582 26.0084V23.3361C21.9582 23.3131 21.9769 23.2944 21.9999 23.2944H34.025C34.0481 23.2944 34.0667 23.3131 34.0667 23.3361V26.0084H34.0668Z" fill="white"/>
<path d="M23.336 29.3904H21.9999C21.2862 29.3904 20.7056 29.971 20.7056 30.6848V32.0208C20.7056 32.7346 21.2862 33.3152 21.9999 33.3152H23.336C24.0498 33.3152 24.6304 32.7346 24.6304 32.0208V30.6848C24.6304 29.971 24.0498 29.3904 23.336 29.3904ZM23.3778 32.0209C23.3778 32.044 23.3592 32.0626 23.3361 32.0626H21.9999C21.9769 32.0626 21.9582 32.044 21.9582 32.0209V30.6848C21.9582 30.6618 21.9769 30.6431 21.9999 30.6431H23.336C23.3591 30.6431 23.3778 30.6618 23.3778 30.6848V32.0209H23.3778Z" fill="white"/>
<path d="M34.025 29.3904H32.6889C31.9752 29.3904 31.3945 29.971 31.3945 30.6848V32.0208C31.3945 32.7346 31.9752 33.3152 32.6889 33.3152H34.025C34.7387 33.3152 35.3194 32.7346 35.3194 32.0208V30.6848C35.3194 29.971 34.7387 29.3904 34.025 29.3904ZM34.0668 32.0209C34.0668 32.044 34.0481 32.0626 34.0251 32.0626H32.689C32.6659 32.0626 32.6473 32.044 32.6473 32.0209V30.6848C32.6473 30.6618 32.6659 30.6431 32.689 30.6431H34.0251C34.0481 30.6431 34.0668 30.6618 34.0668 30.6848V32.0209Z" fill="white"/>
<path d="M28.6808 29.3904H27.3447C26.6309 29.3904 26.0503 29.971 26.0503 30.6848V32.0208C26.0503 32.7346 26.6309 33.3152 27.3447 33.3152H28.6808C29.3945 33.3152 29.9751 32.7346 29.9751 32.0208V30.6848C29.9751 29.971 29.3945 29.3904 28.6808 29.3904ZM28.7225 32.0209C28.7225 32.044 28.7038 32.0626 28.6808 32.0626H27.3447C27.3216 32.0626 27.3029 32.044 27.3029 32.0209V30.6848C27.3029 30.6618 27.3216 30.6431 27.3447 30.6431H28.6808C28.7038 30.6431 28.7225 30.6618 28.7225 30.6848V32.0209Z" fill="white"/>
<path d="M23.336 34.7349H21.9999C21.2862 34.7349 20.7056 35.3155 20.7056 36.0292V37.3653C20.7056 38.0791 21.2862 38.6597 21.9999 38.6597H23.336C24.0498 38.6597 24.6304 38.0791 24.6304 37.3653V36.0292C24.6304 35.3155 24.0498 34.7349 23.336 34.7349ZM23.3778 37.3653C23.3778 37.3884 23.3592 37.407 23.3361 37.407H21.9999C21.9769 37.407 21.9582 37.3884 21.9582 37.3653V36.0292C21.9582 36.0062 21.9769 35.9875 21.9999 35.9875H23.336C23.3591 35.9875 23.3778 36.0062 23.3778 36.0292V37.3653H23.3778Z" fill="white"/>
<path d="M34.025 34.7349H32.6889C31.9752 34.7349 31.3945 35.3155 31.3945 36.0292V37.3653C31.3945 38.0791 31.9752 38.6597 32.6889 38.6597H34.025C34.7387 38.6597 35.3194 38.0791 35.3194 37.3653V36.0292C35.3194 35.3155 34.7387 34.7349 34.025 34.7349ZM34.0668 37.3653C34.0668 37.3884 34.0481 37.407 34.0251 37.407H32.689C32.6659 37.407 32.6473 37.3884 32.6473 37.3653V36.0292C32.6473 36.0062 32.6659 35.9875 32.689 35.9875H34.0251C34.0481 35.9875 34.0668 36.0062 34.0668 36.0292V37.3653Z" fill="white"/>
<path d="M28.6808 34.7349H27.3447C26.6309 34.7349 26.0503 35.3155 26.0503 36.0292V37.3653C26.0503 38.0791 26.6309 38.6597 27.3447 38.6597H28.6808C29.3945 38.6597 29.9751 38.0791 29.9751 37.3653V36.0292C29.9751 35.3155 29.3945 34.7349 28.6808 34.7349ZM28.7225 37.3653C28.7225 37.3884 28.7038 37.407 28.6808 37.407H27.3447C27.3216 37.407 27.3029 37.3884 27.3029 37.3653V36.0292C27.3029 36.0062 27.3216 35.9875 27.3447 35.9875H28.6808C28.7038 35.9875 28.7225 36.0062 28.7225 36.0292V37.3653Z" fill="white"/>
</svg>
