<svg id="Component_198_1" data-name="Component 198 – 1" xmlns="http://www.w3.org/2000/svg" width="44" height="41.057" viewBox="0 0 44 41.057">
  <path id="Path_35418" data-name="Path 35418" d="M389.691,283.01l-3.16-11.238a1.07,1.07,0,0,0-.357-.535l0-.005L379.9,266.1l-1.418,1.611L384,272.222l-7.316,9.174-5.958-4.864-1.417,1.611,6.858,5.6.009-.01a1.064,1.064,0,0,0,.636.248l11.812.39h.036a1.072,1.072,0,0,0,1.032-1.362Zm-10.674-1.1,6.017-7.542,2.2,7.812Z" transform="translate(-345.73 -246.71)" fill="#fff"/>
  <path id="Path_35419" data-name="Path 35419" d="M116.163,366.425c-2.073,1.271-4.875,1.388-8.336.381a7.173,7.173,0,0,0,1.322-4.156,6.288,6.288,0,0,1,.677-2.669,4.652,4.652,0,0,1,4.423-2.583,4.845,4.845,0,0,1-.315-2.145,6.751,6.751,0,0,0-6,3.725,8.414,8.414,0,0,0-.923,3.574c-.044.946-.3,3.187-1.787,3.563-.035.009-.066.024-.1.036s-.056.018-.083.03a.984.984,0,0,0-.107.061.634.634,0,0,0-.071.045.93.93,0,0,0-.086.071c-.024.021-.049.042-.071.066a1.046,1.046,0,0,0-.066.084.952.952,0,0,0-.06.082c-.021.035-.037.071-.055.108s-.025.045-.034.071v.012a1,1,0,0,0-.035.129c-.006.026-.015.051-.019.077h0a1.029,1.029,0,0,0-.007.1c0,.036-.006.072-.005.107a.577.577,0,0,0,.009.071,1.177,1.177,0,0,0,.021.138v.011c0,.007.006.012.009.018a1.1,1.1,0,0,0,.13.292c.006.009.01.019.016.028h0a1.086,1.086,0,0,0,.21.224l.047.036a1.076,1.076,0,0,0,.244.138,19.6,19.6,0,0,0,6.94,1.477,9.832,9.832,0,0,0,5.243-1.38,10.078,10.078,0,0,0,4.158-5.523,4.871,4.871,0,0,1-2.092-.5,7.914,7.914,0,0,1-3.189,4.2Z" transform="translate(-102.481 -328.577)" fill="#fff"/>
  <path id="Path_35420" data-name="Path 35420" d="M270.411,49.392a4.5,4.5,0,0,0-1.619-3.07l-1.682-1.4a4.547,4.547,0,0,0-6.406.616L243.285,67.79a3.093,3.093,0,0,0,.459,4.313l2.631,2.184a3.091,3.091,0,0,0,4.322-.341l18.687-21.238a4.51,4.51,0,0,0,1.027-3.316Zm-2.653,1.923L249.086,72.532a.958.958,0,0,1-1.341.1l-2.631-2.184a.959.959,0,0,1-.143-1.339l17.4-22.226a2.394,2.394,0,0,1,3.367-.312l1.682,1.4h0a2.392,2.392,0,0,1,.335,3.342Z" transform="translate(-229.387 -42.645)" fill="#fff"/>
  <path id="Path_35421" data-name="Path 35421" d="M93.991,51.74l1.322-1.689-5.147-4.208,7.411-9.1,4.972,4.062,1.322-1.689L98.828,35l-5.218-4.263L92.037,29.45a3.369,3.369,0,0,0-2.491-.711,4.667,4.667,0,0,0-3.092,1.742L81.8,36.193c-1.507,1.848-1.457,4.394.11,5.675l6.069,4.958ZM83.462,37.547l4.657-5.712a2.553,2.553,0,0,1,1.644-.964,1.242,1.242,0,0,1,.918.239l5.24,4.281-7.415,9.094-5.238-4.278c-.642-.525-.553-1.742.194-2.66Z" transform="translate(-80.702 -28.715)" fill="#fff"/>
</svg>
