<svg xmlns="http://www.w3.org/2000/svg" width="44" height="44" viewBox="0 0 44 44">
  <path id="Path_35422" data-name="Path 35422" d="M110.709,51.709h-9.778V50.242h9.778Zm9.778-5.867H100.932v.978h19.556ZM115.6,47.8H100.932v.489H115.6Zm-2.934,4.889v6.6H100.931v-6.6Zm-.978,4.155H106.8v1.467h4.889Zm12.222-6.6h-9.778v1.467h9.778Zm-9.778,2.444v6.6h11.733v-6.6Zm10.756,5.622H120V56.842h4.889Zm12.222-8.066h-9.778v1.467h9.778Zm-9.778,2.444v6.6h11.733v-6.6Zm10.756,5.622H133.2V56.842h4.889Zm-27.378,2.2h-9.778v1.467h9.778Zm1.955,2.444v6.6H100.931v-6.6Zm-.978,4.156H106.8v1.467h4.889Zm12.222-6.6h-9.778v1.467h9.778Zm-9.778,2.444v6.6h11.733v-6.6Zm10.756,5.622H120V67.109h4.889Zm12.222-8.067h-9.778v1.467h9.778Zm-9.778,2.444v6.6h11.733v-6.6Zm10.756,5.622H133.2V67.109h4.889ZM125.376,30.442h-3.911v.489h3.911Zm4.889.489h-3.911v-.489h3.911Zm-25.422.489H99.954V29.953h4.889Zm30.311-.489h-3.911v-.489h3.911ZM98,28V72h44V28ZM141.02,71.02H98.976V42.664H141.02ZM115.256,38.509V39H100.931v-.489Zm-14.324-.978V36.064h19.116v1.467ZM141.02,32.4H98.976V28.975H141.02Zm-.978-1.466h-3.911v-.489h3.911Z" transform="translate(-97.998 -27.998)" fill="#fff"/>
</svg>
