<svg xmlns="http://www.w3.org/2000/svg" width="40.544" height="40.537" viewBox="0 0 40.544 40.537">
  <g id="Component_36_1" data-name="Component 36 – 1" transform="translate(0.294 0.25)">
    <path id="Path_39020" data-name="Path 39020" d="M132.241,38.254l.442-1.273A8.979,8.979,0,0,0,123.738,39a10.588,10.588,0,0,0-5.336-.525,10.175,10.175,0,0,0-6.09,3.14,6.231,6.231,0,0,0-2.565-1.19,7.11,7.11,0,0,0-1.182-.121,12.429,12.429,0,0,0,.154-1.808,26.573,26.573,0,0,0-.207-3.012c-.063-.595-.119-1.2-.157-1.8a8.758,8.758,0,1,0-3.176-11.363l-.011-.014L102.5,24.353l-.249.171a4.67,4.67,0,0,0-1.123.693,5,5,0,0,0-1.259,2.316c-.073.224-.146.445-.226.649L95.609,38.528a29.931,29.931,0,0,0-.958,4.412c-.171.981-.331,1.908-.46,2.415-.051.2-.1.4-.147.6a8.032,8.032,0,0,1-.739,2.2.674.674,0,0,0,.239.916l2.375,1.411a52.542,52.542,0,0,0,21.288,6.977c.54.045,1.221.073,2,.073,3.875,0,10.126-.677,13.091-3.122l-.857-1.04c-3.062,2.524-10.706,3.034-14.117,2.746a51.127,51.127,0,0,1-20.712-6.793l-1.838-1.092a11.864,11.864,0,0,0,.586-1.963q.069-.292.141-.582c.142-.557.3-1.465.483-2.517a31.5,31.5,0,0,1,.885-4.153L100.9,28.671c.088-.226.168-.469.251-.718a3.989,3.989,0,0,1,.868-1.725,3.526,3.526,0,0,1,.849-.506.573.573,0,0,0,.1-.056l1.428-1.086a8.841,8.841,0,0,0-.164,1.677,8.73,8.73,0,0,0,2.738,6.346c0,.149,0,.3,0,.447.02.87.113,1.737.2,2.575a25.408,25.408,0,0,1,.2,2.86,9.493,9.493,0,0,1-2.926,7.049l.888,1.014a9.93,9.93,0,0,0,2.95-4.9,5.393,5.393,0,0,1,1.215.1,4.79,4.79,0,0,1,1.988.935,8.043,8.043,0,0,0-.883,1.815l1.278.429a8.778,8.778,0,0,1,14.639-2.212l1.1-.784a8.159,8.159,0,0,0-2.566-2.305,7.6,7.6,0,0,1,7.189-1.372Zm-26.66-12a7.414,7.414,0,1,1,7.414,7.414A7.423,7.423,0,0,1,105.58,26.259Z" transform="translate(-93.215 -17.496)" fill="#fff" stroke="#fff" stroke-width="0.5"/>
    <path id="Path_39021" data-name="Path 39021" d="M277.316,64.632a6.066,6.066,0,1,0-6.066-6.066A6.073,6.073,0,0,0,277.316,64.632Zm0-10.784a4.718,4.718,0,1,1-4.718,4.718A4.724,4.724,0,0,1,277.316,53.848Z" transform="translate(-257.536 -49.804)" fill="#fff" stroke="#fff" stroke-width="0.5"/>
    <path id="Path_39022" data-name="Path 39022" d="M299.634,84.7a2.891,2.891,0,0,1,.332.629c.284.637.672,1.509,1.574,1.509s1.29-.872,1.574-1.509a2.945,2.945,0,0,1,.332-.629,2.905,2.905,0,0,1,.629-.332c.637-.283,1.509-.672,1.509-1.574s-.872-1.291-1.509-1.574a1.206,1.206,0,0,1-.961-.961c-.284-.637-.672-1.509-1.574-1.509s-1.29.872-1.574,1.509a2.945,2.945,0,0,1-.332.629,2.905,2.905,0,0,1-.629.332c-.637.283-1.509.672-1.509,1.574s.872,1.291,1.509,1.574a2.917,2.917,0,0,1,.629.332Zm-.081-2.248A2.411,2.411,0,0,0,301.2,80.81a4.175,4.175,0,0,1,.342-.663,4.17,4.17,0,0,1,.342.663,2.411,2.411,0,0,0,1.644,1.645,4.128,4.128,0,0,1,.662.342,4.091,4.091,0,0,1-.662.342,2.411,2.411,0,0,0-1.644,1.645,4.173,4.173,0,0,1-.342.663,4.172,4.172,0,0,1-.342-.663,2.411,2.411,0,0,0-1.644-1.645,4.128,4.128,0,0,1-.662-.342A4.077,4.077,0,0,1,299.553,82.455Z" transform="translate(-281.761 -74.034)" fill="#fff" stroke="#fff" stroke-width="0.5"/>
    <path id="Path_39023" data-name="Path 39023" d="M491.357,32.328V18.174a.674.674,0,0,0-.674-.674h-6.74a.675.675,0,0,0-.646.481l-2.022,6.74a.673.673,0,0,0,.646.867h2.7V30.98A2.024,2.024,0,0,0,486.639,33h4.044A.674.674,0,0,0,491.357,32.328Zm-1.348-.674h-3.37a.675.675,0,0,1-.674-.674V28.958a2.7,2.7,0,0,0,2.7-2.7h-1.348a1.349,1.349,0,0,1-1.348,1.348v-2.7a.674.674,0,0,0-.674-.674h-2.464l1.618-5.392h5.564Z" transform="translate(-451.357 -17.5)" fill="#fff" stroke="#fff" stroke-width="0.5"/>
  </g>
</svg>
