<svg width="44" height="44" viewBox="0 0 44 44" fill="none" xmlns="http://www.w3.org/2000/svg">
<path fill-rule="evenodd" clip-rule="evenodd" d="M4.5 4.5V39.5H5.75V4.5H4.5Z" fill="white" stroke="white" stroke-width="0.5"/>
<path fill-rule="evenodd" clip-rule="evenodd" d="M4.5 38.25V39.5H39.5V38.25H4.5Z" fill="white" stroke="white" stroke-width="0.5"/>
<path d="M8.875 33.25C7.84625 33.25 7 34.0962 7 35.125C7 36.1537 7.84625 37 8.875 37C9.90375 37 10.75 36.1537 10.75 35.125C10.75 34.0962 9.90375 33.25 8.875 33.25ZM8.875 34.5C9.2275 34.5 9.5 34.7725 9.5 35.125C9.5 35.4775 9.2275 35.75 8.875 35.75C8.7926 35.7512 8.71079 35.7358 8.63443 35.7048C8.55807 35.6738 8.48871 35.6278 8.43044 35.5696C8.37216 35.5113 8.32616 35.4419 8.29517 35.3656C8.26417 35.2892 8.24882 35.2074 8.25 35.125C8.25 34.7725 8.5225 34.5 8.875 34.5ZM17.625 23.25C16.5962 23.25 15.75 24.0962 15.75 25.125C15.75 26.1537 16.5962 27 17.625 27C18.6538 27 19.5 26.1537 19.5 25.125C19.5 24.0962 18.6538 23.25 17.625 23.25ZM17.625 24.5C17.9775 24.5 18.25 24.7725 18.25 25.125C18.25 25.4775 17.9775 25.75 17.625 25.75C17.5426 25.7512 17.4608 25.7358 17.3844 25.7048C17.3081 25.6738 17.2387 25.6278 17.1804 25.5696C17.1222 25.5113 17.0762 25.4419 17.0452 25.3656C17.0142 25.2892 16.9988 25.2074 17 25.125C17 24.7725 17.2725 24.5 17.625 24.5Z" fill="white" stroke="white" stroke-width="0.5"/>
<path fill-rule="evenodd" clip-rule="evenodd" d="M36.1377 19.5188L28.0815 29.9913L29.0727 30.7525L37.1302 20.2813L36.139 19.5188H36.1377ZM18.8165 25.4225L18.1727 26.495L26.3015 31.385L26.9465 30.3125L18.8165 25.4225ZM16.2315 25.7275L9.56396 33.7988L10.5277 34.595L17.1927 26.5238L16.2315 25.7275Z" fill="white" stroke="white" stroke-width="0.5"/>
<path d="M27.625 29.5C26.5962 29.5 25.75 30.3462 25.75 31.375C25.75 32.4037 26.5962 33.25 27.625 33.25C28.6538 33.25 29.5 32.4037 29.5 31.375C29.5 30.3462 28.6538 29.5 27.625 29.5ZM27.625 30.75C27.9775 30.75 28.25 31.0225 28.25 31.375C28.25 31.7275 27.9775 32 27.625 32C27.5426 32.0012 27.4608 31.9858 27.3844 31.9548C27.3081 31.9238 27.2387 31.8778 27.1804 31.8196C27.1222 31.7613 27.0762 31.6919 27.0452 31.6156C27.0142 31.5392 26.9988 31.4574 27 31.375C27 31.0225 27.2725 30.75 27.625 30.75ZM37.625 17C36.5962 17 35.75 17.8462 35.75 18.875C35.75 19.9038 36.5962 20.75 37.625 20.75C38.6538 20.75 39.5 19.9038 39.5 18.875C39.5 17.8462 38.6538 17 37.625 17ZM37.625 18.25C37.9775 18.25 38.25 18.5225 38.25 18.875C38.25 19.2275 37.9775 19.5 37.625 19.5C37.5426 19.5012 37.4608 19.4858 37.3844 19.4548C37.3081 19.4238 37.2387 19.3778 37.1804 19.3196C37.1222 19.2613 37.0762 19.1919 37.0452 19.1156C37.0142 19.0392 36.9988 18.9574 37 18.875C37 18.5225 37.2725 18.25 37.625 18.25Z" fill="white" stroke="white" stroke-width="0.5"/>
<path d="M27.557 14.7335C27.0123 13.9915 26.367 13.4282 25.8609 12.6576C25.8598 12.6467 25.8598 12.6353 25.8575 12.6248C25.8864 12.4501 26.0945 11.228 26.3364 10.7276C26.4302 10.5337 26.6261 10.3585 26.6218 10.128C26.6172 10.0539 26.5885 9.98327 26.5402 9.92689C26.4919 9.8705 26.4265 9.83139 26.3539 9.81548C26.267 9.79496 26.1768 9.79263 26.089 9.80864C26.0011 9.82465 25.9175 9.85866 25.8434 9.90851C25.6145 10.0373 25.4404 10.199 25.1847 10.199C25.1165 10.1979 25.0488 10.1876 24.9834 10.1685C24.7677 10.1082 24.7041 9.79941 24.5198 9.69351C24.4833 9.67139 24.4416 9.65937 24.3989 9.65869C24.2016 9.65869 24.0514 9.93726 23.915 10.0748C23.8651 10.1333 23.8039 10.1812 23.7352 10.2157C23.6664 10.2502 23.5914 10.2706 23.5147 10.2757C23.4484 10.2749 23.3831 10.26 23.323 10.2319C23.1343 10.1469 22.9964 9.96976 22.7966 9.89869C22.756 9.88413 22.7128 9.87815 22.6697 9.88112C22.6267 9.88408 22.5847 9.89594 22.5464 9.91594C22.5082 9.93594 22.4745 9.96364 22.4475 9.99731C22.4205 10.031 22.4007 10.0699 22.3895 10.1115C22.3413 10.3212 22.5172 10.5064 22.6314 10.6649C22.6314 10.6649 23.0189 11.2028 23.2711 12.6398C22.7759 13.3558 22.1338 14.0408 21.6255 14.7335C20.6005 16.1299 19.7532 17.6174 19.872 19.4598C20.013 21.6662 22.0438 22.7462 23.8941 22.8501C24.092 22.861 25.0791 22.8617 25.2882 22.8501C27.1388 22.7462 29.1693 21.6662 29.3105 19.4598C29.4288 17.6173 28.582 16.1299 27.557 14.7335ZM24.3766 10.6308C24.4933 10.7361 24.6327 10.8129 24.7839 10.8553C24.9142 10.8928 25.0491 10.9123 25.1847 10.9133C25.2931 10.9134 25.4012 10.9002 25.5064 10.8739C25.3647 11.3545 25.2519 11.8432 25.1686 12.3373H23.9545C23.8706 11.8778 23.7481 11.4262 23.588 10.9874C23.8842 10.9635 24.1631 10.8374 24.3766 10.6308ZM28.5843 19.4151C28.4557 21.423 26.4259 22.0707 25.2468 22.1369C25.0325 22.1489 24.84 22.1587 24.6522 22.1587C24.6218 22.1587 23.9355 22.1369 23.9355 22.1369C22.7564 22.0708 20.7266 21.423 20.598 19.4148C20.4909 17.7508 21.3123 16.3823 22.2159 15.151C22.4318 14.8569 23.5768 13.468 23.8655 13.0515H25.2543C25.5627 13.5198 26.7441 14.8482 26.9664 15.151C27.87 16.3819 28.6911 17.7505 28.5843 19.4151Z" fill="white" stroke="white" stroke-width="0.5"/>
<path d="M22.357 23.9448C22.2623 23.9448 22.1714 23.9825 22.1045 24.0494C22.0375 24.1164 21.9999 24.2073 21.9999 24.302V26.4448C21.9999 26.5396 22.0375 26.6304 22.1045 26.6974C22.1714 26.7644 22.2623 26.802 22.357 26.802C22.4517 26.802 22.5426 26.7644 22.6095 26.6974C22.6765 26.6304 22.7141 26.5396 22.7141 26.4448V24.302C22.7141 24.2073 22.6765 24.1164 22.6095 24.0494C22.5426 23.9825 22.4517 23.9448 22.357 23.9448ZM26.6427 23.9448C26.548 23.9448 26.4572 23.9825 26.3902 24.0494C26.3232 24.1164 26.2856 24.2073 26.2856 24.302V26.4448C26.2856 26.5396 26.3232 26.6304 26.3902 26.6974C26.4572 26.7644 26.548 26.802 26.6427 26.802C26.7374 26.802 26.8283 26.7644 26.8953 26.6974C26.9622 26.6304 26.9999 26.5396 26.9999 26.4448V24.302C26.9999 24.2073 26.9622 24.1164 26.8953 24.0494C26.8283 23.9825 26.7374 23.9448 26.6427 23.9448ZM20.2243 9.18501V12.1588C20.2264 12.2539 20.2657 12.3444 20.3337 12.4109C20.4017 12.4774 20.493 12.5146 20.5882 12.5146C20.6833 12.5146 20.7746 12.4774 20.8426 12.4109C20.9106 12.3444 20.9499 12.2539 20.952 12.1588V9.18608C21.0076 9.2176 21.0704 9.23421 21.1343 9.2343C21.196 9.23414 21.2567 9.21817 21.3105 9.1879C21.3643 9.15764 21.4094 9.11409 21.4416 9.06141C21.4737 9.00874 21.4919 8.9487 21.4942 8.88702C21.4966 8.82535 21.4831 8.7641 21.455 8.70912L20.9093 7.70519C20.8775 7.64789 20.831 7.60014 20.7746 7.56689C20.7181 7.53365 20.6538 7.51611 20.5882 7.51611C20.5227 7.51611 20.4584 7.53365 20.4019 7.56689C20.3455 7.60014 20.299 7.64789 20.2672 7.70519L19.7213 8.70912C19.6989 8.75057 19.685 8.79608 19.6804 8.84298C19.6758 8.88988 19.6806 8.93722 19.6946 8.98223C19.7085 9.02724 19.7313 9.06901 19.7617 9.10509C19.792 9.14117 19.8292 9.17083 19.8711 9.19233C19.9259 9.22079 19.9869 9.23504 20.0486 9.23379C20.1103 9.23254 20.1707 9.21565 20.2243 9.18501ZM27.6945 9.19216C27.7493 9.22061 27.8103 9.23486 27.872 9.23361C27.9337 9.23236 27.9941 9.21565 28.0477 9.18501V12.1588C28.0498 12.2539 28.0891 12.3444 28.1571 12.4109C28.2251 12.4774 28.3164 12.5146 28.4116 12.5146C28.5067 12.5146 28.598 12.4774 28.666 12.4109C28.734 12.3444 28.7733 12.2539 28.7754 12.1588V9.18608C28.831 9.2176 28.8938 9.23421 28.9577 9.2343C29.0195 9.23424 29.0802 9.21833 29.134 9.18809C29.1879 9.15785 29.2331 9.11429 29.2652 9.06158C29.2974 9.00888 29.3155 8.94879 29.3179 8.88707C29.3202 8.82536 29.3066 8.76408 29.2784 8.70912L28.7327 7.70519C28.7009 7.64789 28.6544 7.60014 28.5979 7.56689C28.5415 7.53365 28.4772 7.51611 28.4116 7.51611C28.3461 7.51611 28.2818 7.53365 28.2253 7.56689C28.1689 7.60014 28.1223 7.64789 28.0906 7.70519L27.5447 8.70912C27.5223 8.75057 27.5084 8.79608 27.5038 8.84298C27.4992 8.88988 27.504 8.93722 27.518 8.98223C27.5319 9.02724 27.5547 9.06901 27.585 9.10509C27.6154 9.14117 27.6526 9.17065 27.6945 9.19216Z" fill="white" stroke="white" stroke-width="0.5"/>
<path d="M23.8774 7.255C23.9318 7.28273 23.9923 7.29649 24.0534 7.29505C24.1145 7.29362 24.1743 7.27703 24.2274 7.24679V8.58732C24.2295 8.68242 24.2687 8.77292 24.3367 8.83943C24.4047 8.90595 24.4961 8.94319 24.5912 8.94319C24.6863 8.94319 24.7777 8.90595 24.8457 8.83943C24.9137 8.77292 24.9529 8.68242 24.9551 8.58732V7.24679C25.0106 7.27843 25.0734 7.29516 25.1374 7.29536C25.1989 7.29535 25.2593 7.27961 25.313 7.24966C25.3667 7.2197 25.4119 7.17651 25.4442 7.1242C25.4765 7.07188 25.4949 7.01217 25.4977 6.95074C25.5004 6.88932 25.4874 6.8282 25.4599 6.77322L24.914 5.74393C24.8825 5.6858 24.8358 5.63726 24.779 5.60344C24.7222 5.56961 24.6573 5.55176 24.5912 5.55176C24.5251 5.55176 24.4602 5.56961 24.4034 5.60344C24.3466 5.63726 24.3 5.6858 24.2684 5.74393L23.7226 6.77322C23.7006 6.81491 23.6871 6.86057 23.683 6.90753C23.6789 6.95449 23.6842 7.0018 23.6986 7.04668C23.713 7.09156 23.7363 7.1331 23.767 7.16888C23.7977 7.20465 23.8352 7.23393 23.8774 7.255Z" fill="white" stroke="white" stroke-width="0.5"/>
<path d="M24.9546 16.0914V15.7301C24.9525 15.635 24.9132 15.5445 24.8452 15.478C24.7772 15.4115 24.6859 15.3743 24.5908 15.3743C24.4956 15.3743 24.4043 15.4115 24.3363 15.478C24.2683 15.5445 24.229 15.635 24.2269 15.7301V16.0939C24.0653 16.1233 23.9113 16.1851 23.7742 16.2756C23.6371 16.3662 23.5197 16.4835 23.4292 16.6207C23.3189 16.8007 23.2601 17.0075 23.2594 17.2187C23.2587 17.4298 23.3161 17.6371 23.4253 17.8178C23.683 18.2553 24.1514 18.3923 24.5275 18.5023C24.9501 18.626 25.1425 18.703 25.2105 18.9208C25.2302 19.013 25.2152 19.1092 25.1682 19.1909C25.1212 19.2725 25.0456 19.3339 24.956 19.3632C24.8508 19.4056 24.7379 19.4261 24.6245 19.4233C24.511 19.4206 24.3993 19.3946 24.2962 19.3471C24.1925 19.3048 24.0987 19.2413 24.021 19.1606C23.9433 19.0799 23.8833 18.9838 23.845 18.8785C23.8137 18.7878 23.748 18.7131 23.662 18.6705C23.5761 18.6279 23.4768 18.6208 23.3857 18.6508C23.3406 18.6649 23.2988 18.6877 23.2627 18.7181C23.2266 18.7484 23.1968 18.7856 23.1752 18.8276C23.1536 18.8695 23.1406 18.9154 23.1369 18.9624C23.1331 19.0094 23.1388 19.0567 23.1535 19.1016C23.2242 19.3023 23.3362 19.4859 23.4822 19.6407C23.6283 19.7955 23.8051 19.9179 24.0014 20.0001C24.0746 20.0312 24.15 20.0571 24.2269 20.0775V20.373C24.229 20.4681 24.2683 20.5586 24.3363 20.6251C24.4043 20.6916 24.4956 20.7289 24.5908 20.7289C24.6859 20.7289 24.7772 20.6916 24.8452 20.6251C24.9132 20.5586 24.9525 20.4681 24.9546 20.373V20.1083C25.0571 20.0882 25.1571 20.0571 25.2528 20.0155C25.5047 19.9188 25.7113 19.7315 25.8322 19.4904C25.9531 19.2492 25.9796 18.9716 25.9064 18.7119C25.7169 18.105 25.1726 17.9458 24.7355 17.8178C24.4312 17.7287 24.1684 17.6517 24.0551 17.4596C24.0123 17.3909 23.9888 17.3119 23.9873 17.231C23.9857 17.1501 24.0061 17.0702 24.0462 17C24.1855 16.7807 24.5267 16.7358 24.8003 16.7885C24.9228 16.8172 25.0358 16.8767 25.1288 16.9614C25.2217 17.0461 25.2914 17.1532 25.3312 17.2725C25.3575 17.3646 25.4191 17.4427 25.5025 17.4898C25.586 17.5369 25.6846 17.5493 25.7771 17.5242C25.8228 17.5126 25.8658 17.4921 25.9035 17.4637C25.9412 17.4354 25.9729 17.3998 25.9968 17.3591C26.0207 17.3184 26.0362 17.2734 26.0426 17.2266C26.0489 17.1799 26.0459 17.1323 26.0337 17.0867C25.9584 16.84 25.8188 16.6177 25.6291 16.4428C25.4395 16.2679 25.2066 16.1465 24.9546 16.0914Z" fill="white" stroke="white" stroke-width="0.5"/>
</svg>
