<svg xmlns="http://www.w3.org/2000/svg" width="44" height="43.39" viewBox="0 0 44 43.39">
  <path id="Path_35406" data-name="Path 35406" d="M151.276,81.148a2.937,2.937,0,0,0-2.926,2.887V121.65a2.937,2.937,0,0,0,2.926,2.887h21.506a2.938,2.938,0,0,0,2.927-2.887v-3.058a6.333,6.333,0,0,0,4.9-6.115V98.948a6.535,6.535,0,0,0,2.13.888,4.908,4.908,0,0,0,9.61-1.333,4.882,4.882,0,0,0-4.9-4.818,4.941,4.941,0,0,0-4.605,3.177,3.33,3.33,0,0,1-2.234-3.177v-2.9a3.323,3.323,0,0,1,2.252-3.16,4.8,4.8,0,1,0-.121-2.972,6.105,6.105,0,0,0-4.07,2.8,6.2,6.2,0,0,0-1,3.331v21.7a3.3,3.3,0,0,1-1.956,3.058v-31.5a2.937,2.937,0,0,0-2.927-2.887Zm0,2.887h21.506V121.65H151.276Zm36.173,0a1.931,1.931,0,1,1,0,3.861,1.931,1.931,0,1,1,0-3.861Zm-32.744,1.931a1.613,1.613,0,0,0-1.472,1.452V98.026a1.517,1.517,0,0,0,1.472,1.435h14.667a1.5,1.5,0,0,0,1.455-1.435V87.417a1.516,1.516,0,0,0-1.455-1.452Zm1.472,2.9H167.9v7.7H156.177Zm31.271,7.7a1.931,1.931,0,1,1-1.956,1.931,1.953,1.953,0,0,1,1.956-1.931Zm-25.419,6.748a8.678,8.678,0,1,0,8.8,8.677A8.75,8.75,0,0,0,162.029,103.322Zm0,2.9A5.783,5.783,0,1,1,156.177,112,5.821,5.821,0,0,1,162.029,106.225Z" transform="translate(-148.35 -81.148)" fill="#fff"/>
</svg>
