<svg width="44" height="44" viewBox="0 0 44 44" fill="none" xmlns="http://www.w3.org/2000/svg">
<g clip-path="url(#clip0_38_3934)">
<path d="M14.1919 16.2937C14.2882 16.3483 14.3973 16.3763 14.508 16.3748C14.6187 16.3734 14.727 16.3426 14.8219 16.2856L20.0163 13.1693L19.5275 18.5443L14.75 22.125C14.6724 22.1832 14.6094 22.2587 14.566 22.3455C14.5226 22.4322 14.5 22.5279 14.5 22.625V25.125C14.5004 25.2405 14.5329 25.3537 14.5937 25.4519C14.6546 25.5501 14.7415 25.6295 14.8448 25.6813C14.9481 25.7331 15.0637 25.7553 15.1788 25.7453C15.2939 25.7354 15.404 25.6937 15.4969 25.625L28.6294 15.9206L28.2587 18.1468C28.2341 18.2938 28.2628 18.4446 28.3396 18.5723C28.4163 18.6999 28.5362 18.796 28.6775 18.8431L30.5525 19.4681C30.6393 19.497 30.7315 19.5065 30.8224 19.4959C30.9133 19.4854 31.0007 19.4549 31.0786 19.4068C31.1565 19.3587 31.2228 19.2941 31.2729 19.2175C31.3231 19.141 31.3558 19.0543 31.3688 18.9637L31.9938 14.6031C32.0631 14.1168 31.9876 13.6208 31.7768 13.1772C31.5659 12.7335 31.2291 12.3618 30.8082 12.1084C30.3874 11.855 29.9012 11.7313 29.4105 11.7526C28.9197 11.7739 28.4461 11.9392 28.0488 12.2281L25.9044 13.7906L26.3375 9.89371L31.68 6.92496C31.7777 6.87034 31.8589 6.79049 31.9152 6.69374C31.9715 6.59699 32.0008 6.4869 32 6.37496V3.87496C31.9999 3.76619 31.9715 3.65932 31.9175 3.56491C31.8635 3.4705 31.7858 3.39182 31.692 3.33665C31.5983 3.28148 31.4918 3.25173 31.383 3.25034C31.2742 3.24895 31.167 3.27596 31.0719 3.32871L24.9525 6.72809C25.0626 6.41354 25.1208 6.0832 25.125 5.74996C25.1266 5.16317 24.963 4.58777 24.6529 4.08962C24.3428 3.59148 23.8987 3.19071 23.3714 2.9332C22.8441 2.67569 22.255 2.57184 21.6715 2.63353C21.0879 2.69523 20.5335 2.91997 20.0718 3.28205C19.61 3.64413 19.2595 4.1289 19.0604 4.68088C18.8613 5.23287 18.8216 5.82976 18.9459 6.40323C19.0703 6.97671 19.3535 7.5036 19.7633 7.9236C20.1731 8.34359 20.6929 8.63972 21.2631 8.77809L14.1969 12.7037C14.0994 12.7578 14.0181 12.8369 13.9615 12.933C13.9049 13.029 13.8751 13.1385 13.875 13.25V15.75C13.875 15.8605 13.9043 15.9691 13.96 16.0646C14.0157 16.1602 14.0957 16.2392 14.1919 16.2937ZM20.125 5.74996C20.125 5.37912 20.235 5.01661 20.441 4.70827C20.647 4.39993 20.9399 4.1596 21.2825 4.01769C21.6251 3.87578 22.0021 3.83865 22.3658 3.91099C22.7295 3.98334 23.0636 4.16192 23.3258 4.42414C23.588 4.68636 23.7666 5.02046 23.839 5.38417C23.9113 5.74788 23.8742 6.12488 23.7323 6.4675C23.5904 6.81011 23.35 7.10294 23.0417 7.30897C22.7334 7.515 22.3708 7.62496 22 7.62496C21.5027 7.62496 21.0258 7.42742 20.6742 7.07579C20.3225 6.72416 20.125 6.24725 20.125 5.74996ZM15.125 13.6175L30.75 4.93746V6.00746L25.4469 8.95371C25.3596 9.00212 25.2851 9.07073 25.2298 9.1538C25.1744 9.23688 25.1398 9.332 25.1288 9.43121L24.5038 15.0562C24.4904 15.1766 24.5123 15.2983 24.5669 15.4065C24.6214 15.5147 24.7062 15.6047 24.811 15.6655C24.9158 15.7264 25.0359 15.7555 25.1569 15.7493C25.2779 15.7431 25.3945 15.7018 25.4925 15.6306L28.7819 13.2381C28.9805 13.0937 29.2173 13.011 29.4627 13.0003C29.7081 12.9897 29.9512 13.0516 30.1616 13.1782C30.372 13.3049 30.5405 13.4908 30.6459 13.7126C30.7513 13.9345 30.789 14.1824 30.7544 14.4256L30.2375 18.0443L29.5794 17.8256L30.1163 14.6025C30.1368 14.4796 30.1202 14.3535 30.0686 14.2401C30.0169 14.1268 29.9326 14.0315 29.8264 13.9664C29.7202 13.9013 29.597 13.8695 29.4726 13.8749C29.3482 13.8803 29.2282 13.9228 29.1281 13.9968L15.75 23.8862V22.9375L20.5 19.375C20.5705 19.3227 20.6292 19.2562 20.6723 19.1797C20.7153 19.1033 20.7418 19.0186 20.75 18.9312L21.375 12.0562C21.3854 11.9413 21.3637 11.8257 21.3124 11.7223C21.2611 11.6189 21.1822 11.5318 21.0844 11.4705C20.9866 11.4092 20.8738 11.3762 20.7584 11.3751C20.643 11.374 20.5295 11.4049 20.4306 11.4643L15.125 14.6462V13.6175Z" fill="white"/>
<path d="M12.2504 24.6252L9.75 26.4998L10.4994 27.4994L12.9998 25.6249L12.2504 24.6252Z" fill="white"/>
<path d="M12.1789 19.4008L5.3042 23.9841L5.99759 25.0242L12.8723 20.4409L12.1789 19.4008Z" fill="white"/>
<path d="M9.67331 15.6543L5.29834 18.6382L6.00266 19.6709L10.3776 16.687L9.67331 15.6543Z" fill="white"/>
<path d="M3.25005 38.25H4.50005V40.75C4.50005 40.9157 4.5659 41.0747 4.68311 41.1919C4.80032 41.3091 4.95929 41.375 5.12505 41.375H10.125C10.2908 41.375 10.4498 41.3091 10.567 41.1919C10.6842 41.0747 10.75 40.9157 10.75 40.75V38.25H12C12.1202 38.2501 12.2378 38.2155 12.3389 38.1505C12.4399 38.0855 12.52 37.9927 12.5697 37.8833C12.6194 37.7739 12.6364 37.6525 12.6189 37.5336C12.6013 37.4147 12.5499 37.3035 12.4707 37.2131L8.09567 32.2131C8.0352 32.149 7.96226 32.0979 7.88133 32.0629C7.8004 32.028 7.71319 32.01 7.62505 32.01C7.53691 32.01 7.44969 32.028 7.36876 32.0629C7.28783 32.0979 7.21489 32.149 7.15442 32.2131L2.77942 37.2131C2.70024 37.3035 2.64879 37.4147 2.63123 37.5336C2.61366 37.6525 2.63073 37.7739 2.68039 37.8833C2.73005 37.9927 2.8102 38.0855 2.91123 38.1505C3.01226 38.2155 3.1299 38.2501 3.25005 38.25ZM7.62505 33.5743L10.625 37H10.125C9.95929 37 9.80032 37.0658 9.68311 37.183C9.5659 37.3002 9.50005 37.4592 9.50005 37.625V40.125H5.75005V37.625C5.75005 37.4592 5.6842 37.3002 5.56699 37.183C5.44978 37.0658 5.29081 37 5.12505 37H4.62505L7.62505 33.5743ZM19.5 41.375H24.5C24.6658 41.375 24.8248 41.3091 24.942 41.1919C25.0592 41.0747 25.125 40.9157 25.125 40.75V32.625H26.375C26.4952 32.6251 26.6128 32.5905 26.7139 32.5255C26.8149 32.4605 26.895 32.3677 26.9447 32.2583C26.9944 32.1489 27.0114 32.0275 26.9939 31.9086C26.9763 31.7897 26.9249 31.6785 26.8457 31.5881L22.4707 26.5881C22.4102 26.524 22.3373 26.4729 22.2563 26.4379C22.1754 26.403 22.0882 26.385 22 26.385C21.9119 26.385 21.8247 26.403 21.7438 26.4379C21.6628 26.4729 21.5899 26.524 21.5294 26.5881L17.1544 31.5881C17.0752 31.6785 17.0238 31.7897 17.0062 31.9086C16.9887 32.0275 17.0057 32.1489 17.0554 32.2583C17.1051 32.3677 17.1852 32.4605 17.2862 32.5255C17.3873 32.5905 17.5049 32.6251 17.625 32.625H18.875V40.75C18.875 40.9157 18.9409 41.0747 19.0581 41.1919C19.1753 41.3091 19.3343 41.375 19.5 41.375ZM22 27.9493L25 31.375H24.5C24.3343 31.375 24.1753 31.4408 24.0581 31.558C23.9409 31.6752 23.875 31.8342 23.875 32V40.125H20.125V32C20.125 31.8342 20.0592 31.6752 19.942 31.558C19.8248 31.4408 19.6658 31.375 19.5 31.375H19L22 27.9493ZM31.4313 26.0081C31.4809 26.1174 31.5609 26.2101 31.6617 26.2752C31.7626 26.3402 31.88 26.3749 32 26.375H33.25V40.75C33.25 40.9157 33.3159 41.0747 33.4331 41.1919C33.5503 41.3091 33.7093 41.375 33.875 41.375H38.875C39.0408 41.375 39.1998 41.3091 39.317 41.1919C39.4342 41.0747 39.5 40.9157 39.5 40.75V26.375H40.75C40.8702 26.3751 40.9878 26.3405 41.0889 26.2755C41.1899 26.2105 41.27 26.1177 41.3197 26.0083C41.3694 25.8989 41.3864 25.7775 41.3689 25.6586C41.3513 25.5397 41.2999 25.4285 41.2207 25.3381L36.8457 20.3381C36.7852 20.274 36.7123 20.2229 36.6313 20.1879C36.5504 20.153 36.4632 20.135 36.375 20.135C36.2869 20.135 36.1997 20.153 36.1188 20.1879C36.0378 20.2229 35.9649 20.274 35.9044 20.3381L31.5294 25.3381C31.4504 25.4285 31.3992 25.5398 31.3818 25.6586C31.3644 25.7775 31.3816 25.8988 31.4313 26.0081ZM36.375 21.6993L39.375 25.125H38.875C38.7093 25.125 38.5503 25.1908 38.4331 25.308C38.3159 25.4252 38.25 25.5842 38.25 25.75V40.125H34.5V25.75C34.5 25.5842 34.4342 25.4252 34.317 25.308C34.1998 25.1908 34.0408 25.125 33.875 25.125H33.375L36.375 21.6993Z" fill="white"/>
</g>
<defs>
<clipPath id="clip0_38_3934">
<rect width="40" height="40" fill="white" transform="translate(2 2)"/>
</clipPath>
</defs>
</svg>
