<svg id="Component_56_1" data-name="Component 56 – 1" xmlns="http://www.w3.org/2000/svg" width="70" height="76.667" viewBox="0 0 70 76.667">
  <path id="Path_35764" data-name="Path 35764" d="M183.958,40.732h-5v-17.5a.787.787,0,0,0-.834-.834H121.459a.787.787,0,0,0-.834.834v17.5h-5a.787.787,0,0,0-.834.834v40a.787.787,0,0,0,.834.834h5V98.232a.787.787,0,0,0,.834.834h23.333a.787.787,0,0,0,.834-.834V82.4h8.333v10a.787.787,0,0,0,.834.834h23.333a.787.787,0,0,0,.834-.834v-10h5a.787.787,0,0,0,.834-.834v-40a.787.787,0,0,0-.833-.833Zm-61.666-10h55V59.064h-55Zm55-6.666v5h-55v-5Zm-33.333,45H122.292V65.732h21.666Zm0,28.333H122.292V70.731h21.666Zm33.333-22.5H155.625V71.565h21.666Zm0,16.666H155.625v-15h21.666Zm5.833-10.833h-4.167v-10a.787.787,0,0,0-.834-.834H154.792a.787.787,0,0,0-.834.834v10h-8.333V64.9a.787.787,0,0,0-.834-.834H121.458a.787.787,0,0,0-.834.834V80.731h-4.167V42.4h4.167V59.9a.787.787,0,0,0,.834.834h56.666a.787.787,0,0,0,.834-.834V42.4h4.167Z" transform="translate(-114.791 -22.398)" fill="#35ade3"/>
  <path id="Path_35765" data-name="Path 35765" d="M498.935,40.865a1.667,1.667,0,1,1-1.667-1.667,1.667,1.667,0,0,1,1.667,1.667" transform="translate(-438.934 -36.699)" fill="#35ade3"/>
  <path id="Path_35766" data-name="Path 35766" d="M465.335,40.865a1.667,1.667,0,1,1-1.667-1.667,1.667,1.667,0,0,1,1.667,1.667" transform="translate(-410.334 -36.699)" fill="#35ade3"/>
  <path id="Path_35767" data-name="Path 35767" d="M431.732,40.865a1.667,1.667,0,1,1-1.667-1.667,1.667,1.667,0,0,1,1.667,1.667" transform="translate(-381.731 -36.699)" fill="#35ade3"/>
  <path id="Path_35768" data-name="Path 35768" d="M233.432,100.8H190.1a2.5,2.5,0,1,0,0,5h43.333a2.5,2.5,0,0,0,0-5Zm0,3.333H190.1a.834.834,0,0,1,0-1.667h43.333a.834.834,0,0,1,0,1.667Z" transform="translate(-176.765 -89.133)" fill="#35ade3"/>
  <path id="Path_35769" data-name="Path 35769" d="M206.765,156.8H188.432a.787.787,0,0,0-.834.834V169.3a.787.787,0,0,0,.834.834h18.333a.787.787,0,0,0,.834-.834V157.633a.787.787,0,0,0-.834-.833Zm-.833,11.666H189.266v-10h16.666Z" transform="translate(-176.764 -136.8)" fill="#35ade3"/>
  <path id="Path_35770" data-name="Path 35770" d="M368.565,156.8H345.232a.834.834,0,1,0,0,1.667h23.333a.834.834,0,1,0,0-1.667Z" transform="translate(-310.231 -136.8)" fill="#35ade3"/>
  <path id="Path_35771" data-name="Path 35771" d="M368.565,196H345.232a.834.834,0,0,0,0,1.667h23.333a.834.834,0,0,0,0-1.667Z" transform="translate(-310.231 -170.167)" fill="#35ade3"/>
  <path id="Path_35772" data-name="Path 35772" d="M368.565,235.2H345.232a.834.834,0,1,0,0,1.667h23.333a.834.834,0,0,0,0-1.667Z" transform="translate(-310.231 -203.534)" fill="#35ade3"/>
  <path id="Path_35773" data-name="Path 35773" d="M182.832,380.664h8.333a.787.787,0,0,0,.834-.834v-15a.787.787,0,0,0-.834-.834h-8.333a.787.787,0,0,0-.834.834v15a.787.787,0,0,0,.834.833Zm.833-15h6.667V379h-6.667Z" transform="translate(-171.997 -313.165)" fill="#35ade3"/>
  <path id="Path_35774" data-name="Path 35774" d="M264.567,364h-3.333a.834.834,0,1,0,0,1.667h3.333a.834.834,0,1,0,0-1.667Z" transform="translate(-238.733 -313.167)" fill="#35ade3"/>
  <path id="Path_35775" data-name="Path 35775" d="M264.567,397.6h-3.333a.834.834,0,0,0,0,1.667h3.333a.834.834,0,0,0,0-1.667Z" transform="translate(-238.733 -341.767)" fill="#35ade3"/>
  <path id="Path_35776" data-name="Path 35776" d="M264.567,431.2h-3.333a.834.834,0,1,0,0,1.667h3.333a.834.834,0,1,0,0-1.667Z" transform="translate(-238.733 -370.367)" fill="#35ade3"/>
  <path id="Path_35777" data-name="Path 35777" d="M264.567,464.8h-3.333a.834.834,0,0,0,0,1.667h3.333a.834.834,0,1,0,0-1.667Z" transform="translate(-238.733 -398.967)" fill="#35ade3"/>
  <path id="Path_35778" data-name="Path 35778" d="M197.832,498.4h-15a.834.834,0,0,0,0,1.667h15a.834.834,0,1,0,0-1.667Z" transform="translate(-171.997 -427.567)" fill="#35ade3"/>
  <path id="Path_35779" data-name="Path 35779" d="M407.9,397.6h-6.667a.787.787,0,0,0-.834.834v10a.787.787,0,0,0,.834.834H407.9a.787.787,0,0,0,.834-.834v-10a.787.787,0,0,0-.833-.833Zm-.834,10h-5v-8.333h5Z" transform="translate(-357.897 -341.767)" fill="#35ade3"/>
  <path id="Path_35780" data-name="Path 35780" d="M475.1,397.6h-6.667a.834.834,0,0,0,0,1.667H475.1a.834.834,0,0,0,0-1.667Z" transform="translate(-415.097 -341.767)" fill="#35ade3"/>
  <path id="Path_35781" data-name="Path 35781" d="M475.1,420h-6.667a.834.834,0,1,0,0,1.667H475.1a.834.834,0,1,0,0-1.667Z" transform="translate(-415.097 -360.834)" fill="#35ade3"/>
  <path id="Path_35782" data-name="Path 35782" d="M475.1,442.4h-6.667a.834.834,0,0,0,0,1.667H475.1a.834.834,0,0,0,0-1.667Z" transform="translate(-415.097 -379.9)" fill="#35ade3"/>
  <path id="Path_35783" data-name="Path 35783" d="M475.1,464.8h-6.667a.834.834,0,0,0,0,1.667H475.1a.834.834,0,1,0,0-1.667Z" transform="translate(-415.097 -398.967)" fill="#35ade3"/>
</svg>
