<svg id="Component_58_1" data-name="Component 58 – 1" xmlns="http://www.w3.org/2000/svg" width="72" height="72" viewBox="0 0 72 72">
  <path id="Path_35793" data-name="Path 35793" d="M206.942,51.72h-3.687a2.586,2.586,0,0,1-2.556-2.332,1.109,1.109,0,0,1-.009-.144V47.184a17.49,17.49,0,0,1-4.472-1.889l-1.447,1.443a1.106,1.106,0,0,1-.146.123,2.619,2.619,0,0,1-3.426-.21l-2.559-2.642a1.17,1.17,0,0,1-.11-.132,2.612,2.612,0,0,1,.212-3.425L190.2,39a16.936,16.936,0,0,1-1.848-4.535h-2.037a2.588,2.588,0,0,1-2.556-2.331,1.017,1.017,0,0,1-.01-.144V28.31a2.586,2.586,0,0,1,2.335-2.553,1.107,1.107,0,0,1,.144-.009h2.068a17.393,17.393,0,0,1,1.892-4.46l-1.445-1.441a1.2,1.2,0,0,1-.124-.146,2.611,2.611,0,0,1,.212-3.425l2.648-2.554a1.208,1.208,0,0,1,.132-.109,2.619,2.619,0,0,1,3.426.21l1.459,1.457a16.982,16.982,0,0,1,4.548-1.846V11.316a2.586,2.586,0,0,1,2.335-2.554,1.08,1.08,0,0,1,.143-.009h3.687a2.525,2.525,0,0,1,2.479,2.563v2.061a17.474,17.474,0,0,1,4.472,1.889l1.446-1.443a1.244,1.244,0,0,1,.147-.124,2.622,2.622,0,0,1,3.425.212l2.559,2.642a1.17,1.17,0,0,1,.11.132,2.612,2.612,0,0,1-.212,3.425l-1.457,1.453a16.925,16.925,0,0,1,1.848,4.535h2.037a2.6,2.6,0,0,1,2.645,2.331,1.131,1.131,0,0,1,.009.145v3.679a2.587,2.587,0,0,1-2.334,2.554,1.115,1.115,0,0,1-.144.009h-2.068a17.386,17.386,0,0,1-1.892,4.46l1.443,1.44a1.162,1.162,0,0,1,.125.146,2.613,2.613,0,0,1-.212,3.425l-2.648,2.554a1.217,1.217,0,0,1-.132.11,2.619,2.619,0,0,1-3.426-.212l-1.459-1.456a17,17,0,0,1-4.548,1.846v2.029a2.586,2.586,0,0,1-2.335,2.554,1.08,1.08,0,0,1-.143.009Zm-3.93-2.569c.02.089.079.246.243.246h3.593c.089-.02.249-.079.249-.241V46.179a1.161,1.161,0,0,1,.971-1.146,14.557,14.557,0,0,0,5.44-2.193,1.162,1.162,0,0,1,1.452.152l2.106,2.1a.316.316,0,0,0,.383,0l2.555-2.464c.1-.1.043-.26-.011-.354l-2.022-2.017a1.161,1.161,0,0,1-.137-1.479,15.179,15.179,0,0,0,2.279-5.362,1.161,1.161,0,0,1,1.137-.924h2.891c.09-.02.249-.079.249-.241V28.664a.294.294,0,0,0-.331-.245h-2.985a1.162,1.162,0,0,1-1.146-.971,14.479,14.479,0,0,0-2.2-5.427,1.161,1.161,0,0,1,.153-1.456l2.107-2.1a.311.311,0,0,0,0-.376l-2.47-2.549c-.106-.106-.271-.039-.362.011l-2.021,2.018a1.159,1.159,0,0,1-1.475.136,15.261,15.261,0,0,0-5.376-2.275,1.161,1.161,0,0,1-.925-1.137V11.316a.228.228,0,0,0-.156-.241h-3.593c-.089.02-.249.079-.249.241v3.066a1.161,1.161,0,0,1-.971,1.146,14.547,14.547,0,0,0-5.44,2.193,1.162,1.162,0,0,1-1.453-.152l-2.106-2.1a.316.316,0,0,0-.383,0l-2.555,2.465c-.1.1-.039.263.012.354l2.021,2.017a1.162,1.162,0,0,1,.137,1.479,15.183,15.183,0,0,0-2.279,5.362,1.161,1.161,0,0,1-1.137.924h-2.891c-.091.02-.25.079-.25.241v3.586c.02.088.079.247.243.247H189.3a1.162,1.162,0,0,1,1.146.971,14.468,14.468,0,0,0,2.2,5.426,1.161,1.161,0,0,1-.153,1.456l-2.107,2.1a.3.3,0,0,0,0,.374l2.471,2.551c.106.106.27.04.362-.012l2.022-2.017a1.161,1.161,0,0,1,1.475-.136,15.244,15.244,0,0,0,5.376,2.274,1.161,1.161,0,0,1,.925,1.137Z" transform="translate(-169.811 -8.753)" fill="#35ade3"/>
  <path id="Path_35794" data-name="Path 35794" d="M279.815,114.55a10.131,10.131,0,1,1,10.07-10.131A10.112,10.112,0,0,1,279.815,114.55Zm0-17.94a7.809,7.809,0,1,0,7.747,7.809A7.787,7.787,0,0,0,279.815,96.611Z" transform="translate(-244.396 -82.936)" fill="#35ade3"/>
  <path id="Path_35795" data-name="Path 35795" d="M393.778,338.766h-2.739a2.217,2.217,0,0,1-2.2-1.993,1.128,1.128,0,0,1-.009-.145v-1.3a13.268,13.268,0,0,1-2.976-1.257l-.911.909a1.143,1.143,0,0,1-.146.123,2.239,2.239,0,0,1-2.929-.189l-1.905-1.966a1.172,1.172,0,0,1-.11-.132,2.233,2.233,0,0,1,.189-2.929l.92-.919a12.9,12.9,0,0,1-1.233-3.019h-1.28a2.218,2.218,0,0,1-2.2-1.993,1.128,1.128,0,0,1-.009-.145v-2.733a2.216,2.216,0,0,1,2-2.193,1.115,1.115,0,0,1,.144-.009H379.7a13.221,13.221,0,0,1,1.258-2.966l-.909-.907a1.249,1.249,0,0,1-.124-.146,2.234,2.234,0,0,1,.189-2.929l1.971-1.9a1.156,1.156,0,0,1,.132-.109,2.239,2.239,0,0,1,2.929.189l.923.921a12.943,12.943,0,0,1,3.03-1.232v-1.34a2.216,2.216,0,0,1,2-2.193,1.214,1.214,0,0,1,.144-.009h2.739a2.174,2.174,0,0,1,2.14,2.2v1.3a13.285,13.285,0,0,1,2.976,1.257l.91-.909a1.246,1.246,0,0,1,.146-.124,2.241,2.241,0,0,1,2.929.189l1.905,1.965a1.18,1.18,0,0,1,.11.133,2.234,2.234,0,0,1-.19,2.929l-.92.919a12.9,12.9,0,0,1,1.233,3.019h1.279a2.227,2.227,0,0,1,2.261,1.993,1.128,1.128,0,0,1,.009.145V324a2.217,2.217,0,0,1-2,2.193,1.114,1.114,0,0,1-.144.009h-1.309a13.221,13.221,0,0,1-1.258,2.966l.909.907a1.246,1.246,0,0,1,.124.146,2.234,2.234,0,0,1-.189,2.929l-1.971,1.9a1.117,1.117,0,0,1-.133.11,2.242,2.242,0,0,1-2.928-.189l-.924-.921a12.949,12.949,0,0,1-3.029,1.232v1.274a2.216,2.216,0,0,1-2,2.193.957.957,0,0,1-.144.01Zm-2.621-2.323h2.438v-2.092a1.161,1.161,0,0,1,.971-1.146,10.519,10.519,0,0,0,3.928-1.586,1.162,1.162,0,0,1,1.452.153l1.5,1.494,1.744-1.682-1.425-1.422a1.162,1.162,0,0,1-.137-1.479,10.969,10.969,0,0,0,1.646-3.876,1.161,1.161,0,0,1,1.137-.924h2.033v-2.428h-2.165a1.162,1.162,0,0,1-1.146-.97,10.464,10.464,0,0,0-1.588-3.917,1.162,1.162,0,0,1,.153-1.456l1.494-1.49-1.685-1.739-1.428,1.425a1.159,1.159,0,0,1-1.475.136,11.033,11.033,0,0,0-3.885-1.644,1.161,1.161,0,0,1-.925-1.137v-2.09h-2.373v2.158a1.161,1.161,0,0,1-.971,1.146,10.507,10.507,0,0,0-3.928,1.585,1.161,1.161,0,0,1-1.453-.152l-1.5-1.494-1.744,1.682,1.425,1.422a1.162,1.162,0,0,1,.137,1.479,10.97,10.97,0,0,0-1.647,3.876,1.161,1.161,0,0,1-1.137.924h-2.033v2.428h2.1a1.162,1.162,0,0,1,1.146.97,10.448,10.448,0,0,0,1.588,3.916,1.161,1.161,0,0,1-.153,1.456l-1.494,1.49,1.685,1.74,1.428-1.425a1.163,1.163,0,0,1,1.475-.137,11.039,11.039,0,0,0,3.886,1.645,1.161,1.161,0,0,1,.925,1.137v2.026Z" transform="translate(-336.764 -266.767)" fill="#35ade3"/>
  <path id="Path_35796" data-name="Path 35796" d="M447.916,385.445a7.825,7.825,0,1,1,7.779-7.825A7.81,7.81,0,0,1,447.916,385.445Zm0-13.326a5.5,5.5,0,1,0,5.456,5.5A5.485,5.485,0,0,0,447.916,372.119Z" transform="translate(-392.174 -321.879)" fill="#35ade3"/>
  <path id="Path_35797" data-name="Path 35797" d="M87.523,200.14H95.97v2.323H87.523Z" transform="translate(-86.358 -174.74)" fill="#35ade3"/>
  <path id="Path_35798" data-name="Path 35798" d="M84.131,163.061a1.16,1.16,0,0,1-1.034-.632l-4.223-8.25a1.158,1.158,0,0,1-.128-.529v-44c0-2.568,2.416-4.658,5.385-4.658s5.383,2.089,5.383,4.655v44a1.16,1.16,0,0,1-.128.529l-4.223,8.25a1.159,1.159,0,0,1-1.034.632Zm-3.062-9.691,3.062,5.982,3.062-5.982V109.652c0-1.286-1.373-2.333-3.061-2.333s-3.063,1.047-3.063,2.335Z" transform="translate(-78.746 -92.223)" fill="#35ade3"/>
  <path id="Path_35799" data-name="Path 35799" d="M87.559,159.7H96v2.323H87.559Z" transform="translate(-86.389 -139.667)" fill="#35ade3"/>
  <path id="Path_35800" data-name="Path 35800" d="M87.5,462.84h8.447v2.323H87.5Z" transform="translate(-86.342 -402.574)" fill="#35ade3"/>
</svg>
