<svg id="Component_54_1" data-name="Component 54 – 1" xmlns="http://www.w3.org/2000/svg" width="70" height="53.031" viewBox="0 0 70 53.031">
  <path id="Path_35753" data-name="Path 35753" d="M54.085,30.187H66.812a3.182,3.182,0,0,1,3.182,3.182V56.7a3.182,3.182,0,0,1-3.182,3.182H54.085A3.182,3.182,0,0,1,50.9,56.7V33.369a3.182,3.182,0,0,1,3.182-3.182Zm0,2.121a1.06,1.06,0,0,0-1.06,1.06V56.7a1.06,1.06,0,0,0,1.06,1.06H66.812a1.06,1.06,0,0,0,1.06-1.06V33.369a1.06,1.06,0,0,0-1.06-1.06ZM28.631,30.187H41.357a3.182,3.182,0,0,1,3.182,3.182V56.7a3.182,3.182,0,0,1-3.182,3.182H28.631A3.182,3.182,0,0,1,25.449,56.7V33.369a3.182,3.182,0,0,1,3.182-3.182Zm0,2.121a1.06,1.06,0,0,0-1.06,1.06V56.7a1.06,1.06,0,0,0,1.06,1.06H41.357a1.06,1.06,0,0,0,1.06-1.06V33.369a1.06,1.06,0,0,0-1.06-1.06ZM3.176,30.187H15.9a3.182,3.182,0,0,1,3.182,3.182V56.7A3.182,3.182,0,0,1,15.9,59.884H3.176A3.182,3.182,0,0,1-.006,56.7V33.369a3.182,3.182,0,0,1,3.182-3.182Zm12.56,2.121H3.343l6.2,10.622Zm1.228,2.1-6.2,10.622,6.2,10.623ZM3.343,57.763H15.736L9.54,47.141Zm-1.228-2.1,6.2-10.623-6.2-10.622ZM60.449,45.035a4.242,4.242,0,1,1,4.242-4.242A4.242,4.242,0,0,1,60.449,45.035Zm0-2.121a2.121,2.121,0,1,0-2.121-2.121A2.121,2.121,0,0,0,60.449,42.914ZM32.017,22.559a1.061,1.061,0,1,1-1.5,1.5,11.666,11.666,0,0,0-16.5,0,1.061,1.061,0,1,1-1.5-1.5A13.788,13.788,0,0,1,32.017,22.559Zm5.955,44.954a1.061,1.061,0,0,1,1.5-1.5,11.666,11.666,0,0,0,16.5,0,1.061,1.061,0,0,1,1.5,1.5A13.788,13.788,0,0,1,37.973,67.513ZM57.268,50.339a1.06,1.06,0,0,1,0-2.121h6.364a1.06,1.06,0,0,1,0,2.121Zm-25.454,0a1.06,1.06,0,1,1,0-2.121h6.363a1.06,1.06,0,1,1,0,2.121Zm0-8.485a1.06,1.06,0,1,1,0-2.121h6.363a1.06,1.06,0,1,1,0,2.121Z" transform="translate(0.006 -18.521)" fill="#35ade3"/>
</svg>
