<svg id="Component_53_1" data-name="Component 53 – 1" xmlns="http://www.w3.org/2000/svg" width="70" height="71.156" viewBox="0 0 70 71.156">
  <path id="Path_35741" data-name="Path 35741" d="M272.544,267.522a13.786,13.786,0,1,0-4.038,9.734A13.772,13.772,0,0,0,272.544,267.522Zm-25.249,0a11.489,11.489,0,1,1,3.365,8.112A11.476,11.476,0,0,1,247.3,267.522Z" transform="translate(-223.776 -221.615)" fill="#35ade3"/>
  <path id="Path_35742" data-name="Path 35742" d="M239.406,269.835v-4.591h1.148A1.148,1.148,0,0,0,241.7,264.1v-3.3a17.216,17.216,0,1,0-11.477,0v3.3a1.148,1.148,0,0,0,1.148,1.148h1.148v4.591h2.3v-4.591h2.3v4.591Zm-18.363-25.249a14.937,14.937,0,1,1,4.375,10.545A14.92,14.92,0,0,1,221.043,244.586Zm11.477,18.363v-1.492a17.274,17.274,0,0,0,6.886,0v1.492Z" transform="translate(-200.967 -198.679)" fill="#35ade3"/>
  <path id="Path_35743" data-name="Path 35743" d="M341.25,166.25h2.3v5.738h-2.3Z" transform="translate(-307.402 -145.592)" fill="#35ade3"/>
  <path id="Path_35744" data-name="Path 35744" d="M317.727,304.211v-5.738a3.437,3.437,0,0,0-3.087-3.408,3.73,3.73,0,1,0-5.3,0,3.437,3.437,0,0,0-3.087,3.408v5.738a1.148,1.148,0,0,0,1.148,1.148h9.181a1.148,1.148,0,0,0,1.148-1.148Zm-5.738-13.2a1.435,1.435,0,1,1-1.435,1.435,1.435,1.435,0,0,1,1.435-1.435Zm3.443,12.051h-6.886v-4.591a1.148,1.148,0,0,1,1.148-1.148h4.591a1.148,1.148,0,0,1,1.148,1.148Z" transform="translate(-276.993 -251.991)" fill="#35ade3"/>
  <path id="Path_35745" data-name="Path 35745" d="M99.044,101.6a4.555,4.555,0,0,0-6.7,0l-.559.595-.559-.594h0a4.555,4.555,0,0,0-6.7,0,5.112,5.112,0,0,0,0,6.91l6.419,6.82h0a1.149,1.149,0,0,0,1.673,0l6.419-6.821h0a5.112,5.112,0,0,0,0-6.91Zm-1.672,5.337-5.583,5.933L86.2,106.94a2.784,2.784,0,0,1,0-3.763,2.259,2.259,0,0,1,3.352,0l1.395,1.483a1.189,1.189,0,0,0,1.673,0l1.395-1.483a2.312,2.312,0,0,1,3.352,0,2.784,2.784,0,0,1,0,3.763Z" transform="translate(-83.189 -88.149)" fill="#35ade3"/>
  <path id="Path_35746" data-name="Path 35746" d="M298.363,17.931a9.192,9.192,0,1,0-2.692,6.489A9.18,9.18,0,0,0,298.363,17.931Zm-9.181,6.886a6.892,6.892,0,1,1,4.867-2.019A6.888,6.888,0,0,1,289.181,24.818Z" transform="translate(-254.186 -8.75)" fill="#35ade3"/>
  <path id="Path_35747" data-name="Path 35747" d="M323.75,43.75h2.3v2.3h-2.3Z" transform="translate(-292.197 -39.159)" fill="#35ade3"/>
  <path id="Path_35748" data-name="Path 35748" d="M358.75,43.75h2.3v2.3h-2.3Z" transform="translate(-322.607 -39.159)" fill="#35ade3"/>
  <path id="Path_35749" data-name="Path 35749" d="M319.591,85.415a2.3,2.3,0,0,1-2.3-2.3H315a4.591,4.591,0,1,0,9.181,0h-2.3a2.3,2.3,0,0,1-2.3,2.3Z" transform="translate(-284.595 -73.365)" fill="#35ade3"/>
  <path id="Path_35750" data-name="Path 35750" d="M502.793,101.2a1.148,1.148,0,0,0-.926-.781l-4.557-.663-2.039-4.132h0a1.192,1.192,0,0,0-2.057,0l-2.039,4.132-4.557.663h0a1.148,1.148,0,0,0-.636,1.957l3.3,3.214-.776,4.54a1.148,1.148,0,0,0,1.664,1.209l4.074-2.142,4.078,2.142a1.126,1.126,0,0,0,.533.133,1.148,1.148,0,0,0,1.127-1.342l-.779-4.539,3.3-3.214a1.148,1.148,0,0,0,.294-1.177Zm-5.624,3.169h0a1.148,1.148,0,0,0-.329,1.016l.487,2.842-2.553-1.34a1.134,1.134,0,0,0-1.067,0l-2.553,1.34.487-2.842a1.147,1.147,0,0,0-.329-1.016l-2.066-2.013,2.854-.416a1.146,1.146,0,0,0,.864-.628l1.277-2.586,1.276,2.586a1.146,1.146,0,0,0,.864.628l2.854.416Z" transform="translate(-432.849 -83.717)" fill="#35ade3"/>
  <path id="Path_35751" data-name="Path 35751" d="M504.381,253.034V245h-2.3v7.206l-6.1,2.035.725,2.181,6.886-2.3h0a1.147,1.147,0,0,0,.785-1.092Z" transform="translate(-441.84 -214.013)" fill="#35ade3"/>
  <path id="Path_35752" data-name="Path 35752" d="M140,245v8.034a1.148,1.148,0,0,0,.785,1.088l6.886,2.3.725-2.181-6.1-2.03V245Z" transform="translate(-132.548 -214.013)" fill="#35ade3"/>
</svg>
