<svg id="Component_60_1" data-name="Component 60 – 1" xmlns="http://www.w3.org/2000/svg" width="72" height="72" viewBox="0 0 72 72">
  <path id="Path_35784" data-name="Path 35784" d="M105.126,71.565,95.307,58.474a1.091,1.091,0,0,1,.873-1.746h19.637a1.091,1.091,0,0,1,.873,1.746l-9.818,13.091a1.091,1.091,0,0,1-1.746,0Zm8.509-12.654H98.362L106,69.093Zm-43.2-23.782,13.091-9.818a1.091,1.091,0,0,1,1.746.873V45.821a1.091,1.091,0,0,1-1.746.873L70.435,36.876a1.091,1.091,0,0,1,0-1.746Zm12.654,8.509V28.366L72.908,36ZM106,45.82A9.818,9.818,0,1,1,115.816,36,9.818,9.818,0,0,1,106,45.82Zm0-2.182A7.636,7.636,0,1,0,98.362,36,7.637,7.637,0,0,0,106,43.639Zm35.564-8.509a1.091,1.091,0,0,1,0,1.746l-13.091,9.818a1.091,1.091,0,0,1-1.746-.873V26.184a1.091,1.091,0,0,1,1.746-.873ZM139.09,36l-10.182-7.636V43.639ZM105.126.438a1.091,1.091,0,0,1,1.746,0l9.818,13.091a1.091,1.091,0,0,1-.873,1.746H96.181a1.091,1.091,0,0,1-.873-1.746ZM98.363,13.092h15.273L106,2.911Z" transform="translate(-69.999 -0.001)" fill="#35ade3" fill-rule="evenodd"/>
</svg>
