<svg id="Component_55_1" data-name="Component 55 – 1" xmlns="http://www.w3.org/2000/svg" width="70" height="61.249" viewBox="0 0 70 61.249">
  <path id="Path_35754" data-name="Path 35754" d="M136.718,35H73.281A3.308,3.308,0,0,0,70,38.281V84.218A3.308,3.308,0,0,0,73.281,87.5h30.624v6.562H86.953a1.094,1.094,0,0,0,0,2.187h36.093a1.094,1.094,0,0,0,0-2.187H106.094V87.5h30.624A3.308,3.308,0,0,0,140,84.218V38.281A3.308,3.308,0,0,0,136.719,35ZM73.281,37.187h63.436a1.094,1.094,0,0,1,1.094,1.094V43.75H72.187V38.281A1.094,1.094,0,0,1,73.281,37.187Zm63.436,48.124H73.281a1.094,1.094,0,0,1-1.094-1.094V45.937h65.624V84.218a1.094,1.094,0,0,1-1.094,1.094Z" transform="translate(-70 -35)" fill="#35ade3"/>
  <path id="Path_35755" data-name="Path 35755" d="M570.938,71.094A1.094,1.094,0,1,1,569.844,70a1.094,1.094,0,0,1,1.094,1.094" transform="translate(-506.407 -65.625)" fill="#35ade3"/>
  <path id="Path_35756" data-name="Path 35756" d="M535.937,71.094A1.094,1.094,0,1,1,534.844,70a1.094,1.094,0,0,1,1.094,1.094" transform="translate(-475.782 -65.625)" fill="#35ade3"/>
  <path id="Path_35757" data-name="Path 35757" d="M500.937,71.094A1.094,1.094,0,1,1,499.844,70a1.094,1.094,0,0,1,1.094,1.094" transform="translate(-445.157 -65.625)" fill="#35ade3"/>
  <path id="Path_35758" data-name="Path 35758" d="M346.718,157.5H316.094A1.094,1.094,0,0,0,315,158.594v15.312A1.094,1.094,0,0,0,316.094,175h30.624a1.094,1.094,0,0,0,1.094-1.094V158.594a1.094,1.094,0,0,0-1.094-1.094Zm-1.094,15.312H317.187V159.687h28.437Z" transform="translate(-284.375 -142.188)" fill="#35ade3"/>
  <path id="Path_35759" data-name="Path 35759" d="M122.49,174.7v.1h0c.009.035.02.07.033.1l.044.1.049.093.065.093.038.055.1.1.065.055.126.071.065.038h0a1.1,1.1,0,0,0,.175.055h.038a1.088,1.088,0,0,0,.29.055h17.5a1.075,1.075,0,0,0,.224,0h.039a1.1,1.1,0,0,0,.175-.055l.065-.038.126-.071.065-.055.1-.1.038-.055.093-.175.049-.093.044-.1h0c.013-.034.024-.069.033-.1v-.1h0a1.134,1.134,0,0,0,0-.115l.038-.038V159.15a1.124,1.124,0,0,0,0-.115v-.1c-.009-.035-.02-.07-.033-.1l-.044-.1-.087-.071-.065-.093-.038-.055-.082-.077-.077-.065-.087-.055-.093-.049-.093-.033-.109-.033H123.327l-.1.033-.1.038-.093.049-.093.055-.077.065-.082.077-.038.055-.093.088-.049.093-.044.1h0c-.013.034-.024.069-.033.1v.1h0a1.134,1.134,0,0,0,0,.115l-.038.038v15.372a.994.994,0,0,0,0,.121Zm17.5-2.592-6.016-5.245,6.016-5.245Zm-1.815,1.318H126.493l5.841-5.108Zm-5.841-8.017-5.841-5.108h11.681Zm-1.641,1.455-6.016,5.245V161.622Z" transform="translate(-115.927 -142.804)" fill="#35ade3"/>
  <path id="Path_35760" data-name="Path 35760" d="M123.594,334.687h27.343a1.094,1.094,0,1,0,0-2.187H123.594a1.094,1.094,0,1,0,0,2.187Z" transform="translate(-115.938 -295.313)" fill="#35ade3"/>
  <path id="Path_35761" data-name="Path 35761" d="M415.625,332.5H394.844a1.094,1.094,0,1,0,0,2.187h20.781a1.094,1.094,0,1,0,0-2.187Z" transform="translate(-353.282 -295.313)" fill="#35ade3"/>
  <path id="Path_35762" data-name="Path 35762" d="M142.187,385H123.594a1.094,1.094,0,1,0,0,2.187h18.593a1.094,1.094,0,1,0,0-2.187Z" transform="translate(-115.938 -341.251)" fill="#35ade3"/>
  <path id="Path_35763" data-name="Path 35763" d="M354.374,385H324.844a1.094,1.094,0,1,0,0,2.187h29.531a1.094,1.094,0,1,0,0-2.187Z" transform="translate(-292.032 -341.251)" fill="#35ade3"/>
</svg>
