<svg id="Component_57_1" data-name="Component 57 – 1" xmlns="http://www.w3.org/2000/svg" width="72" height="73.431" viewBox="0 0 72 73.431">
  <path id="Path_35801" data-name="Path 35801" d="M408.457,42.617a.941.941,0,1,1-.937.946A.937.937,0,0,1,408.457,42.617Z" transform="translate(-363.14 -40.488)" fill="#35ade3"/>
  <path id="Path_35802" data-name="Path 35802" d="M279.335,101.432h-12.4a3.552,3.552,0,0,0,1.331-1.377h11.07a3.385,3.385,0,0,0,3.406-3.406V32.784a3.4,3.4,0,0,0-3.406-3.405h-43.81a3.4,3.4,0,0,0-3.406,3.405V35.8h-1.377v-3.02A4.785,4.785,0,0,1,235.525,28h43.81a4.784,4.784,0,0,1,4.782,4.782V96.651a4.779,4.779,0,0,1-4.782,4.782Z" transform="translate(-212.117 -28.002)" fill="#35ade3"/>
  <path id="Path_35803" data-name="Path 35803" d="M294.789,61.892H249.124v1.689h-1.377V61.2a.688.688,0,0,1,.688-.687h47.04a.688.688,0,0,1,.688.687v59.974a.687.687,0,0,1-.2.486.675.675,0,0,1-.484.2H284.031v-1.377h10.758Z" transform="translate(-226.644 -55.779)" fill="#35ade3"/>
  <path id="Path_35804" data-name="Path 35804" d="M321.577,105.62a.941.941,0,1,1-.937.946A.937.937,0,0,1,321.577,105.62Z" transform="translate(-288.918 -94.312)" fill="#35ade3"/>
  <path id="Path_35805" data-name="Path 35805" d="M225.608,124.2V175a.69.69,0,0,1-.689.689H213.254v-1.377h10.978V124.891H185.25v1.827h-1.377V124.2a.688.688,0,0,1,.687-.687h40.359a.691.691,0,0,1,.689.687Z" transform="translate(-172.076 -109.6)" fill="#35ade3"/>
  <path id="Path_35806" data-name="Path 35806" d="M213.543,95.79v54.688a4.778,4.778,0,0,1-4.782,4.782H196.434a6.187,6.187,0,0,0,1.257-1.377h11.069a3.385,3.385,0,0,0,3.406-3.406V95.791a3.4,3.4,0,0,0-3.406-3.405H171.632a3.4,3.4,0,0,0-3.406,3.405v3.157h-1.377V95.792a4.784,4.784,0,0,1,4.782-4.782h37.127a4.784,4.784,0,0,1,4.784,4.781Z" transform="translate(-157.533 -81.83)" fill="#35ade3"/>
  <path id="Path_35807" data-name="Path 35807" d="M225.828,490.485a2.332,2.332,0,1,1,2.331-2.332A2.335,2.335,0,0,1,225.828,490.485Zm-.955-2.332a.954.954,0,1,0,.954-.954A.953.953,0,0,0,224.873,488.153Z" transform="translate(-205.927 -419.12)" fill="#35ade3"/>
  <path id="Path_35808" data-name="Path 35808" d="M234.007,170.76a.941.941,0,1,1-.937.946A.936.936,0,0,1,234.007,170.76Z" transform="translate(-214.106 -149.961)" fill="#35ade3"/>
  <path id="Path_35809" data-name="Path 35809" d="M107.688,209.535h30.235a3.385,3.385,0,0,0,3.406-3.406v-45.2a3.4,3.4,0,0,0-3.406-3.405H107.688a3.4,3.4,0,0,0-3.406,3.405v45.2a3.381,3.381,0,0,0,3.406,3.4Zm30.235,1.377H107.688a4.778,4.778,0,0,1-4.782-4.782v-45.2a4.784,4.784,0,0,1,4.782-4.782h30.235a4.784,4.784,0,0,1,4.782,4.782v45.2a4.778,4.778,0,0,1-4.781,4.782Z" transform="translate(-102.906 -137.482)" fill="#35ade3"/>
  <path id="Path_35810" data-name="Path 35810" d="M120.609,188.648h33.466a.69.69,0,0,1,.689.687v41.3a.693.693,0,0,1-.689.689H120.609a.688.688,0,0,1-.687-.687V189.336a.689.689,0,0,1,.687-.688Zm32.778,1.377H121.3v39.928h32.089Z" transform="translate(-117.442 -165.243)" fill="#35ade3"/>
</svg>
