<svg id="Component_59_1" data-name="Component 59 – 1" xmlns="http://www.w3.org/2000/svg" width="72" height="69.993" viewBox="0 0 72 69.993">
  <path id="Path_35785" data-name="Path 35785" d="M147.112,16.969H81.862a3.376,3.376,0,0,0-3.375,3.375v58.5a3.375,3.375,0,0,0,3.375,3.375h40.961l4.4,4.41a1.126,1.126,0,0,0,1.6,0l3.971-3.971h0a1,1,0,0,0,.248-.439h14.074a3.375,3.375,0,0,0,3.375-3.375v-58.5a3.376,3.376,0,0,0-3.375-3.375Zm-65.25,2.25h65.25a1.126,1.126,0,0,1,1.125,1.125v11.25h-67.5V20.344a1.125,1.125,0,0,1,1.125-1.125ZM80.737,78.844v-45h67.5V59.911l-3.589-3.566a6.732,6.732,0,0,0-9.394-9.394L130.405,42.1h0a3.465,3.465,0,0,0-4.77,0,3.262,3.262,0,0,0-.63,3.926c.169,1.294,1.125,10.6-5.029,17.5a1.125,1.125,0,0,0-1.541,0L111.28,70.7h0a1.125,1.125,0,0,0,0,1.586l7.706,7.684H81.861a1.125,1.125,0,0,1-1.125-1.125Zm39.375-.967L113.7,71.521l5.625-5.625,6.367,6.356ZM126.491,70l-4.815-4.815h0A24.364,24.364,0,0,0,127.5,48.739l15.39,15.379a24.424,24.424,0,0,0-16.448,5.827Zm19.867-5.625L127.233,45.252a1.126,1.126,0,1,1,1.6-1.586l19.125,19.125a1.134,1.134,0,1,1-1.643,1.564Zm-3.3-9.653-6.12-6.131h0a4.612,4.612,0,0,1,5.445.675,4.5,4.5,0,0,1,.63,5.434Zm-15.075,29.52-3.476-3.476h0a1.126,1.126,0,0,0-.731-.731l-1.361-1.361,3.78-3.78,4.039,6.345a1.057,1.057,0,0,0,.213.528Zm19.126-4.275H132.127l-4.264-6.75.123-.112a1.124,1.124,0,0,0,0-1.541c6.908-6.12,16.222-5.186,17.5-5.029h0a3.282,3.282,0,0,0,1.552.394,3.194,3.194,0,0,0,1.125-.2V78.844a1.125,1.125,0,0,1-1.057,1.125Z" transform="translate(-78.487 -16.969)" fill="#35ade3"/>
  <path id="Path_35786" data-name="Path 35786" d="M192.162,57.663h36a3.375,3.375,0,0,0,0-6.75h-36a3.375,3.375,0,0,0,0,6.75Zm0-4.5h36a1.125,1.125,0,0,1,0,2.25h-36a1.125,1.125,0,0,1,0-2.25Z" transform="translate(-174.162 -46.413)" fill="#35ade3"/>
  <path id="Path_35787" data-name="Path 35787" d="M531.562,57.663a3.374,3.374,0,1,0-2.387-.988A3.375,3.375,0,0,0,531.562,57.663Zm0-4.5a1.125,1.125,0,1,1-1.125,1.125A1.126,1.126,0,0,1,531.562,53.164Z" transform="translate(-468.561 -46.413)" fill="#35ade3"/>
  <path id="Path_35788" data-name="Path 35788" d="M130.521,171.948h18a1.125,1.125,0,0,0,0-2.25h-18a1.125,1.125,0,0,0,0,2.25Z" transform="translate(-122.646 -149.447)" fill="#35ade3"/>
  <path id="Path_35789" data-name="Path 35789" d="M149.032,227.871a3.375,3.375,0,0,0,3.375-3.375v-9a3.375,3.375,0,0,0-3.375-3.375H124.282a3.375,3.375,0,0,0-3.375,3.375v9a3.375,3.375,0,0,0,3.375,3.375ZM123.157,224.5v-9a1.125,1.125,0,0,1,1.125-1.125h24.751a1.125,1.125,0,0,1,1.125,1.125v9a1.125,1.125,0,0,1-1.125,1.125H124.282A1.125,1.125,0,0,1,123.157,224.5Z" transform="translate(-115.282 -186.246)" fill="#35ade3"/>
  <path id="Path_35790" data-name="Path 35790" d="M130.521,347.88a1.125,1.125,0,0,0,0,2.25h11.25a1.125,1.125,0,0,0,0-2.25Z" transform="translate(-122.646 -304.005)" fill="#35ade3"/>
  <path id="Path_35791" data-name="Path 35791" d="M150.771,381.82h-20.25a1.125,1.125,0,0,0,0,2.25h20.25a1.125,1.125,0,0,0,0-2.25Z" transform="translate(-122.646 -333.444)" fill="#35ade3"/>
  <path id="Path_35792" data-name="Path 35792" d="M150.771,415.76h-20.25a1.125,1.125,0,1,0,0,2.25h20.25a1.125,1.125,0,1,0,0-2.25Z" transform="translate(-122.646 -362.884)" fill="#35ade3"/>
</svg>
