<svg xmlns="http://www.w3.org/2000/svg" width="230.049" height="264" viewBox="0 0 230.049 264">
  <g id="logo2" transform="translate(-68.508 -93.648)">
    <g id="Group_137" data-name="Group 137" transform="translate(122.031 220.264)">
      <path id="Path_364" data-name="Path 364" d="M152.632,250.865H136.4a1.15,1.15,0,0,0-1.149,1.151v30.372a1.15,1.15,0,0,0,1.149,1.151h20.674a1.15,1.15,0,0,0,1.15-1.151V256.461Z" transform="translate(-134.852 -250.461)" fill="#fff"/>
      <path id="Path_365" data-name="Path 365" d="M156.983,283.847H136.31a1.556,1.556,0,0,1-1.554-1.554V251.92a1.557,1.557,0,0,1,1.554-1.555h16.227a.4.4,0,0,1,.285.119l5.6,5.6a.4.4,0,0,1,.118.285v25.927A1.556,1.556,0,0,1,156.983,283.847ZM136.31,251.173a.747.747,0,0,0-.746.747v30.372a.747.747,0,0,0,.746.747h20.673a.746.746,0,0,0,.745-.747v-25.76l-5.358-5.36Z" transform="translate(-134.756 -250.365)" fill="#070707"/>
    </g>
    <g id="Group_138" data-name="Group 138" transform="translate(125.717 223.447)">
      <path id="Path_366" data-name="Path 366" d="M155.776,257.338v7.142H139.818v-9.674h13.37Z" transform="translate(-139.414 -254.402)" fill="#ffd70a"/>
      <path id="Path_367" data-name="Path 367" d="M156.084,264.787H139.318V254.306h13.774v.808H140.126v8.866h15.151v-6.738h.808Z" transform="translate(-139.318 -254.306)" fill="#070707"/>
    </g>
    <path id="Path_368" data-name="Path 368" d="M317.852,185.479H289.538a2.106,2.106,0,0,1-2.1-2.1V133.69a2.107,2.107,0,0,1,2.1-2.1h28.314a2.107,2.107,0,0,1,2.1,2.1v49.685A2.107,2.107,0,0,1,317.852,185.479Zm-28.314-53.086a1.3,1.3,0,0,0-1.3,1.3v49.685a1.3,1.3,0,0,0,1.3,1.3h28.314a1.3,1.3,0,0,0,1.3-1.3V133.69a1.3,1.3,0,0,0-1.3-1.3Z" transform="translate(-42.05 -7.287)"/>
    <path id="Path_369" data-name="Path 369" d="M310.167,136.457h-7.09a.4.4,0,1,1,0-.808h7.09a.4.4,0,1,1,0,.808Z" transform="translate(-44.977 -8.067)"/>
    <g id="Group_139" data-name="Group 139" transform="translate(247.674 130.049)">
      <rect id="Rectangle_1" data-name="Rectangle 1" width="27.134" height="38.267" transform="translate(0.404 0.404)" fill="#50bceb"/>
      <path id="Path_370" data-name="Path 370" d="M318.21,177.778H290.269V138.7H318.21Zm-27.133-.808H317.4V139.511H291.077Z" transform="translate(-290.269 -138.703)" fill="#070707"/>
    </g>
    <path id="Path_371" data-name="Path 371" d="M306.925,194.265a2.673,2.673,0,1,1,2.673-2.673A2.676,2.676,0,0,1,306.925,194.265Zm0-4.538a1.865,1.865,0,1,0,1.866,1.865A1.866,1.866,0,0,0,306.925,189.727Z" transform="translate(-45.281 -18.299)"/>
    <path id="Path_372" data-name="Path 372" d="M305.151,173.315a12.481,12.481,0,1,1,12.483-12.482A12.5,12.5,0,0,1,305.151,173.315Zm0-24.155a11.673,11.673,0,1,0,11.675,11.673A11.686,11.686,0,0,0,305.151,149.161Z" transform="translate(-43.056 -10.507)"/>
    <path id="Path_373" data-name="Path 373" d="M306,170.6a8.912,8.912,0,1,1,8.914-8.913A8.922,8.922,0,0,1,306,170.6Zm0-17.017a8.1,8.1,0,1,0,8.106,8.1A8.113,8.113,0,0,0,306,153.579Z" transform="translate(-43.905 -11.356)"/>
    <path id="Path_374" data-name="Path 374" d="M311.841,162.64a4.883,4.883,0,1,1-4.884-4.881,4.883,4.883,0,0,1,4.884,4.881Z" transform="translate(-44.862 -12.314)" fill="#fff"/>
    <g id="Group_140" data-name="Group 140" transform="translate(278.924 145.186)">
      <path id="Path_375" data-name="Path 375" d="M339.141,162.55l.7-2.442a1.7,1.7,0,0,0-1.635-2.17h-6.15a1.7,1.7,0,0,0-1.635,1.234l-.97,3.387Z" transform="translate(-329.045 -157.534)" fill="#a4d1fc"/>
      <path id="Path_376" data-name="Path 376" d="M329.352,162.866a.4.4,0,0,1-.388-.515l.97-3.387a2.112,2.112,0,0,1,2.023-1.526h6.15a2.1,2.1,0,0,1,2.023,2.686l-.7,2.442a.4.4,0,0,1-.389.293l-9.692.007Zm9.692-.411h0Zm-7.086-4.209a1.3,1.3,0,0,0-1.247.94l-.823,2.871,8.852-.006.615-2.15a1.3,1.3,0,0,0-1.247-1.655Z" transform="translate(-328.949 -157.438)" fill="#070707"/>
    </g>
    <g id="Group_141" data-name="Group 141" transform="translate(278.924 150.154)">
      <path id="Path_377" data-name="Path 377" d="M339.141,164.1l.7,2.443a1.7,1.7,0,0,1-1.635,2.169h-6.15a1.7,1.7,0,0,1-1.635-1.233l-.97-3.388Z" transform="translate(-329.045 -163.684)" fill="#a4d1fc"/>
      <path id="Path_378" data-name="Path 378" d="M338.108,169.016h-6.15a2.113,2.113,0,0,1-2.023-1.525l-.97-3.388a.4.4,0,0,1,.388-.515h0l9.692.008a.4.4,0,0,1,.389.292l.7,2.443a2.1,2.1,0,0,1-2.023,2.685Zm-8.22-4.621.823,2.873a1.3,1.3,0,0,0,1.247.94h6.15a1.3,1.3,0,0,0,1.247-1.654l-.615-2.152Z" transform="translate(-328.949 -163.588)" fill="#070707"/>
    </g>
    <path id="Path_379" data-name="Path 379" d="M335.645,163.659a.685.685,0,0,1-.684.678l-27.4.041a.661.661,0,0,1-.654-.723.65.65,0,0,1,.651-.666l27.4-.021a.684.684,0,0,1,.686.691Z" transform="translate(-45.791 -13.315)"/>
    <path id="Path_380" data-name="Path 380" d="M318.027,149.532a.4.4,0,0,1-.274-.107,14.431,14.431,0,0,0-9.8-3.818.4.4,0,1,1,0-.808,15.24,15.24,0,0,1,10.342,4.032.4.4,0,0,1-.273.7Z" transform="translate(-45.915 -9.825)"/>
    <path id="Path_381" data-name="Path 381" d="M300.955,180.973a.417.417,0,0,1-.132-.022,15.222,15.222,0,0,1-5.378-3.207.4.4,0,1,1,.545-.595,14.442,14.442,0,0,0,5.1,3.038.4.4,0,0,1-.132.785Z" transform="translate(-43.564 -16.018)"/>
    <g id="Group_145" data-name="Group 145" transform="translate(192.303 206.887)">
      <g id="Group_142" data-name="Group 142" transform="translate(0 8.481)">
        <path id="Path_382" data-name="Path 382" d="M229.021,244.806l-6.787,4.482,6.787,4.483Z" transform="translate(-221.83 -244.401)" fill="#a4d1fc"/>
        <path id="Path_383" data-name="Path 383" d="M228.925,254.078a.4.4,0,0,1-.223-.067l-6.787-4.482a.4.4,0,0,1,0-.674l6.787-4.482a.4.4,0,0,1,.627.337v8.964a.4.4,0,0,1-.4.4Zm-6.054-4.886,5.65,3.732V245.46Z" transform="translate(-221.734 -244.305)" fill="#070707"/>
      </g>
      <g id="Group_143" data-name="Group 143" transform="translate(12.731)">
        <path id="Path_384" data-name="Path 384" d="M251.783,238.863l-6.895-4.554-6.9,4.554Z" transform="translate(-237.588 -233.904)" fill="#a4d1fc"/>
        <path id="Path_385" data-name="Path 385" d="M251.686,239.17H237.9a.4.4,0,0,1-.222-.741l6.9-4.553a.4.4,0,0,1,.445,0l6.895,4.553a.4.4,0,0,1-.223.741Zm-12.446-.808h11.1l-5.55-3.666Z" transform="translate(-237.492 -233.808)" fill="#070707"/>
      </g>
      <g id="Group_144" data-name="Group 144" transform="translate(32.47 8.481)">
        <path id="Path_386" data-name="Path 386" d="M262.423,244.807v8.962l6.784-4.481Z" transform="translate(-262.019 -244.402)" fill="#a4d1fc"/>
        <path id="Path_387" data-name="Path 387" d="M262.327,254.076a.408.408,0,0,1-.192-.048.4.4,0,0,1-.212-.356v-8.961a.4.4,0,0,1,.626-.337l6.785,4.481a.4.4,0,0,1,0,.674l-6.785,4.481A.4.4,0,0,1,262.327,254.076Zm.4-8.615v7.46l5.647-3.73Z" transform="translate(-261.923 -244.306)" fill="#070707"/>
      </g>
    </g>
    <g id="Group_146" data-name="Group 146" transform="translate(199.09 211.441)">
      <path id="Path_388" data-name="Path 388" d="M256.317,252.835V241.927a1.982,1.982,0,0,0-1.983-1.982H232.616a1.982,1.982,0,0,0-1.981,1.982v10.91l12.84,8.5Z" transform="translate(-230.231 -239.541)" fill="#fff"/>
      <path id="Path_389" data-name="Path 389" d="M243.379,261.64a.4.4,0,0,1-.223-.067l-12.84-8.5a.4.4,0,0,1-.18-.337V241.831a2.388,2.388,0,0,1,2.385-2.386h21.719a2.389,2.389,0,0,1,2.387,2.386v10.908a.4.4,0,0,1-.181.337l-12.842,8.5A.4.4,0,0,1,243.379,261.64Zm-12.436-9.116,12.436,8.227,12.439-8.229V241.831a1.58,1.58,0,0,0-1.579-1.578H232.52a1.579,1.579,0,0,0-1.577,1.578Zm25.278.215h0Z" transform="translate(-230.135 -239.445)" fill="#070707"/>
    </g>
    <g id="Group_147" data-name="Group 147" transform="translate(192.306 232.827)">
      <path id="Path_390" data-name="Path 390" d="M241.862,266.417,232.05,272.9l-9.812,6.481h39.249l-9.811-6.481Z" transform="translate(-221.834 -266.012)" fill="#50bceb"/>
      <path id="Path_391" data-name="Path 391" d="M261.391,279.687H222.142a.4.4,0,0,1-.223-.741l19.624-12.963a.4.4,0,0,1,.445,0l19.625,12.963a.4.4,0,0,1-.223.741Zm-37.9-.808h36.56L241.766,266.8Z" transform="translate(-221.738 -265.916)"/>
    </g>
    <path id="Path_392" data-name="Path 392" d="M253.091,253.2H236.952a.4.4,0,0,1,0-.808h16.139a.4.4,0,0,1,0,.808Z" transform="translate(-32.276 -30.491)"/>
    <path id="Path_393" data-name="Path 393" d="M249.127,257.57H236.952a.4.4,0,0,1,0-.808h12.175a.4.4,0,1,1,0,.808Z" transform="translate(-32.276 -31.33)"/>
    <g id="Group_148" data-name="Group 148" transform="translate(192.284 219.85)">
      <path id="Path_394" data-name="Path 394" d="M261.482,250.353l-9.813,6.484-9.812,6.479-9.814-6.479-9.813-6.484h-.019v25.941h.022l9.812-6.482,9.813-6.481,9.812,6.481,9.813,6.482h.023V250.353Z" transform="translate(-221.806 -249.949)" fill="#50bceb"/>
      <path id="Path_395" data-name="Path 395" d="M261.409,276.6a.475.475,0,0,1-.246-.067l-19.4-12.815-19.4,12.815a.434.434,0,0,1-.649-.337V250.257a.432.432,0,0,1,.646-.337l19.4,12.815,19.4-12.815a.4.4,0,0,1,.222-.067h.023a.4.4,0,0,1,.4.4V276.2A.4.4,0,0,1,261.409,276.6Zm-18.926-13.374,18.522,12.234V250.993ZM222.518,251v24.466l18.521-12.234Z" transform="translate(-221.71 -249.853)"/>
    </g>
    <path id="Path_396" data-name="Path 396" d="M248.961,245.875a2.353,2.353,0,1,1-2.353-2.354,2.353,2.353,0,0,1,2.353,2.354Z" transform="translate(-33.756 -28.787)" fill="#a4d1fc"/>
    <path id="Path_397" data-name="Path 397" d="M157.21,271.513H146.747a.4.4,0,1,1,0-.808H157.21a.4.4,0,0,1,0,.808Z" transform="translate(-14.95 -34.008)"/>
    <path id="Path_398" data-name="Path 398" d="M157.21,274.7H146.747a.4.4,0,1,1,0-.808H157.21a.4.4,0,0,1,0,.808Z" transform="translate(-14.95 -34.62)"/>
    <path id="Path_399" data-name="Path 399" d="M155.852,277.878H139.673a.4.4,0,0,1,0-.808h16.179a.4.4,0,0,1,0,.808Z" transform="translate(-13.591 -35.231)"/>
    <path id="Path_400" data-name="Path 400" d="M155.855,281.061H139.691a.4.4,0,1,1,0-.808h16.164a.4.4,0,1,1,0,.808Z" transform="translate(-13.595 -35.842)"/>
    <path id="Path_401" data-name="Path 401" d="M152.984,284.244H139.691a.4.4,0,1,1,0-.808h13.293a.4.4,0,1,1,0,.808Z" transform="translate(-13.595 -36.454)"/>
    <g id="Group_149" data-name="Group 149" transform="translate(126.302 235.135)">
      <path id="Path_402" data-name="Path 402" d="M142.8,272.458h-1.678l-.338.9a.388.388,0,0,1-.359.242.429.429,0,0,1-.132-.02.392.392,0,0,1-.228-.5l1.525-4.067a.386.386,0,0,1,.366-.241.378.378,0,0,1,.366.241l1.526,4.067a.392.392,0,0,1-.228.5.4.4,0,0,1-.131.02.371.371,0,0,1-.352-.242Zm-.284-.759-.559-1.484L141.4,271.7Z" transform="translate(-140.042 -268.772)"/>
    </g>
    <g id="Group_150" data-name="Group 150" transform="translate(125.718 227.82)">
      <path id="Path_403" data-name="Path 403" d="M155.5,265.519H140.095c-.153,0-.275-.088-.275-.2v-1.069c3.489-1.77,9.71-4.163,15.957-4.032v5.1c0,.109-.123.2-.275.2Z" transform="translate(-139.415 -259.813)" fill="#a4d1fc"/>
      <path id="Path_404" data-name="Path 404" d="M155.4,265.827H140a.636.636,0,0,1-.679-.6v-1.069a.4.4,0,0,1,.221-.36c2.512-1.275,9.094-4.209,16.149-4.075a.4.4,0,0,1,.4.4v5.1A.636.636,0,0,1,155.4,265.827Zm-15.278-.808h15.149v-4.494h-.1c-6.467,0-12.5,2.615-15.046,3.883Z" transform="translate(-139.319 -259.717)" fill="#070707"/>
    </g>
    <g id="Group_151" data-name="Group 151" transform="translate(125.718 229.609)">
      <path id="Path_405" data-name="Path 405" d="M139.819,262.514v3.431h15.957v-1.266a44.192,44.192,0,0,0-15.957-2.165Z" transform="translate(-139.415 -262.028)" fill="#a4d1fc"/>
      <path id="Path_406" data-name="Path 406" d="M155.68,266.252H139.723a.4.4,0,0,1-.4-.4v-3.43a.4.4,0,0,1,.372-.4,44.6,44.6,0,0,1,16.132,2.189.4.4,0,0,1,.262.379v1.265A.4.4,0,0,1,155.68,266.252Zm-15.553-.808h15.149v-.578a44.233,44.233,0,0,0-15.149-2.072Z" transform="translate(-139.319 -261.932)" fill="#070707"/>
    </g>
    <g id="Group_152" data-name="Group 152" transform="translate(126.997 224.732)">
      <path id="Path_407" data-name="Path 407" d="M143.562,257.476a1.08,1.08,0,1,1-1.08-1.08A1.08,1.08,0,0,1,143.562,257.476Z" transform="translate(-140.998 -255.992)" fill="#fff"/>
      <path id="Path_408" data-name="Path 408" d="M142.386,258.864a1.484,1.484,0,1,1,1.484-1.484A1.486,1.486,0,0,1,142.386,258.864Zm0-2.16a.676.676,0,1,0,.676.675A.676.676,0,0,0,142.386,256.7Z" transform="translate(-140.902 -255.896)"/>
    </g>
    <path id="Path_409" data-name="Path 409" d="M201.826,372.15h-.009a4.859,4.859,0,0,1,.011-9.718h.006a4.859,4.859,0,0,1-.009,9.718Zm0-8.91a4.051,4.051,0,0,0-.01,8.1h.007a4.051,4.051,0,0,0,.007-8.1Z" transform="translate(-24.674 -51.627)"/>
    <path id="Path_410" data-name="Path 410" d="M191.283,383.85a.406.406,0,0,1-.264-.1l-3.077-2.653a.4.4,0,1,1,.528-.612l3.077,2.653a.4.4,0,0,1-.263.71Z" transform="translate(-22.913 -55.076)"/>
    <path id="Path_411" data-name="Path 411" d="M195,379.589a.405.405,0,0,1-.263-.1l-2.918-2.513a.4.4,0,0,1,.528-.612l2.918,2.513a.4.4,0,0,1-.264.71Z" transform="translate(-23.658 -54.284)"/>
    <g id="Group_153" data-name="Group 153" transform="translate(150.605 309.553)">
      <path id="Path_412" data-name="Path 412" d="M171.173,363.451l1.093-1.274a2.287,2.287,0,0,1,3.218-.246l11.561,9.923a2.294,2.294,0,0,1,.246,3.222l-1.093,1.275a2.291,2.291,0,0,1-3.218.244l-11.562-9.923A2.289,2.289,0,0,1,171.173,363.451Z" transform="translate(-170.219 -360.978)" fill="#50bceb"/>
      <path id="Path_413" data-name="Path 413" d="M184.368,377.452a2.672,2.672,0,0,1-1.748-.647l-11.562-9.922a2.692,2.692,0,0,1-.289-3.79h0l1.094-1.274a2.691,2.691,0,0,1,3.788-.29l11.561,9.922a2.7,2.7,0,0,1,.289,3.792l-1.092,1.275A2.683,2.683,0,0,1,184.368,377.452Zm-12.986-13.833a1.882,1.882,0,0,0,.2,2.651l11.562,9.922a1.879,1.879,0,0,0,2.648-.2l1.092-1.274a1.886,1.886,0,0,0-.2-2.653l-11.561-9.923a1.884,1.884,0,0,0-2.648.2Z" transform="translate(-170.123 -360.882)"/>
    </g>
    <path id="Path_414" data-name="Path 414" d="M193.216,385.865a1.853,1.853,0,0,1-1.2-.442h0a1.873,1.873,0,0,1-.219-2.634l2.9-3.43a1.855,1.855,0,0,1,1.269-.654,1.869,1.869,0,0,1,2.017,1.706,1.853,1.853,0,0,1-.435,1.361l-2.9,3.431a1.851,1.851,0,0,1-1.272.655C193.321,385.863,193.269,385.865,193.216,385.865Zm2.907-6.359c-.03,0-.059,0-.09,0a1.051,1.051,0,0,0-.719.372l-2.9,3.43a1.062,1.062,0,0,0,.124,1.495h0a1.056,1.056,0,0,0,1.491-.125l2.9-3.431a1.061,1.061,0,0,0-.809-1.744Z" transform="translate(-23.596 -54.751)"/>
    <path id="Path_415" data-name="Path 415" d="M284.633,281.164c-2.456,0-3.708-1.522-3.859-3.032a2.638,2.638,0,0,1,1.11-2.349,2.528,2.528,0,0,1,2.074-.4A6.769,6.769,0,0,1,296.928,273a2.6,2.6,0,0,1,2.213,2.271c1.723.4,2.9,1.554,2.9,2.872,0,1.626-1.779,2.951-4.049,3.018Zm-1.291-5.044a1.676,1.676,0,0,0-.987.32,1.843,1.843,0,0,0-.778,1.612c.107,1.062.972,2.3,3.056,2.3h13.349c1.789-.053,3.254-1.045,3.254-2.21,0-.994-1.041-1.871-2.53-2.137a.4.4,0,0,1-.332-.364,1.81,1.81,0,0,0-1.74-1.857.4.4,0,0,1-.361-.257,5.961,5.961,0,0,0-11.514,2.172c0,.077,0,.154.006.231a.4.4,0,0,1-.571.383A2.059,2.059,0,0,0,283.342,276.121Z" transform="translate(-40.769 -33.667)"/>
    <path id="Path_416" data-name="Path 416" d="M185.8,376.888a.4.4,0,0,1-.26-.1l-5.92-4.991a.4.4,0,1,1,.521-.617l5.92,4.991a.4.4,0,0,1-.261.713Z" transform="translate(-21.314 -53.289)"/>
    <g id="Group_154" data-name="Group 154" transform="translate(167.336 321.937)">
      <path id="Path_417" data-name="Path 417" d="M191.624,397.337a17.449,17.449,0,1,1,20.331,13.983A17.45,17.45,0,0,1,191.624,397.337Z" transform="translate(-190.927 -376.306)" fill="#50bceb"/>
      <path id="Path_418" data-name="Path 418" d="M208.678,411.921a17.883,17.883,0,0,1-17.547-14.607h0a17.841,17.841,0,1,1,17.547,14.607Zm-16.753-14.754A17.046,17.046,0,1,0,205.584,377.3a17.07,17.07,0,0,0-13.659,19.862Z" transform="translate(-190.831 -376.21)"/>
    </g>
    <g id="Group_155" data-name="Group 155" transform="translate(169.622 324.226)">
      <path id="Path_419" data-name="Path 419" d="M194.419,397.464a15.16,15.16,0,1,1,17.666,12.148A15.16,15.16,0,0,1,194.419,397.464Z" transform="translate(-193.758 -379.14)" fill="#fff"/>
      <path id="Path_420" data-name="Path 420" d="M209.2,410.178a15.585,15.585,0,1,1,2.865-.264A15.662,15.662,0,0,1,209.2,410.178Zm.038-30.325a14.851,14.851,0,0,0-2.69.247,14.757,14.757,0,0,0-11.825,17.2h0a14.756,14.756,0,1,0,14.515-17.442Z" transform="translate(-193.661 -379.044)"/>
    </g>
    <path id="Path_421" data-name="Path 421" d="M181.586,296.176l-1.171-.368a8.2,8.2,0,0,0,.134-1.117l1.22-.093-.023-.564-.014-.282-.022-.562-1.214.007a7.861,7.861,0,0,0-.224-1.094l1.137-.467-.2-.528-.1-.269-.194-.526-1.163.385a8.881,8.881,0,0,0-.542-.97l.934-.792-.35-.444-.176-.221-.353-.444-.981.727a8.382,8.382,0,0,0-.815-.764l.637-1.027-.472-.311-.233-.158-.472-.315-.7.985a7.924,7.924,0,0,0-1.088-.5l.291-1.217-.477-.132-.276-.076-.474-.139-.387,1.194a8.122,8.122,0,0,0-1.225-.143l-.1-1.247-.493.019-.286.011-.5.023V286a8.329,8.329,0,0,0-1.21.253l-.485-1.15-.464.176-.265.1-.464.173.385,1.18a8.63,8.63,0,0,0-1.085.614l-.81-.944-.389.307-.225.181-.385.3.731,1.009a8.154,8.154,0,0,0-.845.913l-1.066-.647-.276.411-.158.236-.274.414,1.018.74a7.773,7.773,0,0,0-.507,1.12l-1.241-.293-.132.476-.076.275-.135.479,1.215.394a7.936,7.936,0,0,0-.137,1.209l-1.28.106.022.5.012.286.023.5,1.275,0a8.05,8.05,0,0,0,.253,1.2l-1.182.5.17.465.1.265.171.467,1.223-.4a8.2,8.2,0,0,0,.6,1.069l-.973.839.306.385.179.225.307.389,1.042-.757a8.456,8.456,0,0,0,.9.835l-.669,1.1.412.272.238.161.413.276.763-1.054a7.99,7.99,0,0,0,1.041.487l-.3,1.219.542.149.275.076.545.154.379-1.193a7.835,7.835,0,0,0,1.1.126l.095,1.254.562-.025.283-.012.566-.023-.009-1.247a8.205,8.205,0,0,0,1.08-.225l.482,1.171.528-.2.266-.1.531-.2-.4-1.195a8.118,8.118,0,0,0,.956-.54l.819.967.443-.348.222-.179.44-.35-.747-1.016a8.748,8.748,0,0,0,.755-.8l1.062.654.313-.466.158-.238.312-.47-1.014-.727a8.4,8.4,0,0,0,.469-1.006l1.2.294.151-.546.076-.273Zm-10.538,2.266a4.349,4.349,0,1,1,5.363-3.014,4.348,4.348,0,0,1-5.363,3.014Z" transform="translate(-18.084 -36.698)" fill="#50bceb"/>
    <g id="Group_158" data-name="Group 158" transform="translate(123.922 257.729)">
      <path id="Path_422" data-name="Path 422" d="M144.851,312.248a7.755,7.755,0,0,1-.01-15.511h.01a7.755,7.755,0,1,1,0,15.511Zm0-14.7h-.009a6.958,6.958,0,1,0,.009,0Z" transform="translate(-137.096 -296.737)"/>
      <g id="Group_156" data-name="Group 156" transform="translate(4.7 0.009)">
        <path id="Path_423" data-name="Path 423" d="M146.064,304.591l1.907-7.1a7.372,7.372,0,0,0-4.559.242Z" transform="translate(-143.008 -296.843)" fill="#50bceb"/>
        <path id="Path_424" data-name="Path 424" d="M145.969,304.9a.4.4,0,0,1-.377-.258l-2.652-6.855a.406.406,0,0,1,.231-.523,7.848,7.848,0,0,1,4.809-.255.405.405,0,0,1,.286.5l-1.907,7.1a.4.4,0,0,1-.368.3Zm-2.125-7.017L145.9,303.2l1.478-5.5A7.032,7.032,0,0,0,143.844,297.883Z" transform="translate(-142.913 -296.748)"/>
      </g>
      <g id="Group_157" data-name="Group 157" transform="translate(0 0.498)">
        <path id="Path_425" data-name="Path 425" d="M137.6,304.762l7.351-.052-2.652-6.855a7.339,7.339,0,0,0-4.7,6.908Z" transform="translate(-137.192 -297.45)" fill="#a4d1fc"/>
        <path id="Path_426" data-name="Path 426" d="M137.5,305.07a.4.4,0,0,1-.4-.4,7.743,7.743,0,0,1,4.957-7.288.405.405,0,0,1,.523.231l2.651,6.856a.4.4,0,0,1-.374.55l-7.351.052Zm4.473-6.779a6.934,6.934,0,0,0-4.061,5.967l6.35-.044Z" transform="translate(-137.096 -297.354)"/>
      </g>
    </g>
    <g id="Group_159" data-name="Group 159" transform="translate(222.225 116.077)">
      <rect id="Rectangle_2" data-name="Rectangle 2" width="2.475" height="10.374" transform="translate(0.404 0.404)" fill="#a4d1fc"/>
      <path id="Path_427" data-name="Path 427" d="M261.648,132.591h-2.475a.4.4,0,0,1-.4-.4V121.813a.4.4,0,0,1,.4-.4h2.475a.4.4,0,0,1,.4.4v10.375A.4.4,0,0,1,261.648,132.591Zm-2.071-.808h1.667v-9.567h-1.667Z" transform="translate(-258.769 -121.409)" fill="#070707"/>
    </g>
    <g id="Group_160" data-name="Group 160" transform="translate(218.031 113.088)">
      <rect id="Rectangle_3" data-name="Rectangle 3" width="2.475" height="13.363" transform="translate(0.404 0.404)" fill="#a4d1fc"/>
      <path id="Path_428" data-name="Path 428" d="M256.457,131.881h-2.475a.4.4,0,0,1-.4-.4V118.114a.4.4,0,0,1,.4-.4h2.475a.4.4,0,0,1,.4.4v13.363A.4.4,0,0,1,256.457,131.881Zm-2.071-.808h1.667V118.518h-1.667Z" transform="translate(-253.578 -117.71)" fill="#070707"/>
    </g>
    <g id="Group_161" data-name="Group 161" transform="translate(213.837 109.579)">
      <rect id="Rectangle_4" data-name="Rectangle 4" width="2.474" height="16.872" transform="translate(0.404 0.404)" fill="#a4d1fc"/>
      <path id="Path_429" data-name="Path 429" d="M251.265,131.047h-2.474a.4.4,0,0,1-.4-.4V113.771a.4.4,0,0,1,.4-.4h2.474a.4.4,0,0,1,.4.4v16.872A.4.4,0,0,1,251.265,131.047Zm-2.07-.808h1.666V114.175h-1.666Z" transform="translate(-248.387 -113.367)" fill="#070707"/>
    </g>
    <g id="Group_162" data-name="Group 162" transform="translate(226.419 118.522)">
      <rect id="Rectangle_5" data-name="Rectangle 5" width="2.474" height="7.929" transform="translate(0.404 0.404)" fill="#a4d1fc"/>
      <path id="Path_430" data-name="Path 430" d="M266.839,133.173h-2.474a.4.4,0,0,1-.4-.4V124.84a.4.4,0,0,1,.4-.4h2.474a.4.4,0,0,1,.4.4v7.929A.4.4,0,0,1,266.839,133.173Zm-2.07-.808h1.666v-7.121h-1.666Z" transform="translate(-263.961 -124.436)" fill="#070707"/>
    </g>
    <g id="Group_164" data-name="Group 164" transform="translate(159.044 297.87)">
      <g id="Group_163" data-name="Group 163">
        <path id="Path_431" data-name="Path 431" d="M194.756,353.767a6.844,6.844,0,1,1-6.844-6.845,6.843,6.843,0,0,1,6.844,6.845Z" transform="translate(-180.664 -346.518)" fill="#fff"/>
        <path id="Path_432" data-name="Path 432" d="M187.816,360.918a7.248,7.248,0,1,1,7.248-7.247A7.256,7.256,0,0,1,187.816,360.918Zm0-13.688a6.44,6.44,0,1,0,6.44,6.441A6.448,6.448,0,0,0,187.816,347.23Z" transform="translate(-180.568 -346.422)" fill="#070707"/>
      </g>
      <path id="Path_433" data-name="Path 433" d="M187.509,354.674v-3.028l2.621,1.514,2.622,1.514-2.622,1.513-2.621,1.514Z" transform="translate(-181.901 -347.426)" fill="#1476ba"/>
    </g>
    <g id="Group_165" data-name="Group 165" transform="translate(181.009 128.859)">
      <path id="Path_434" data-name="Path 434" d="M227.155,137.729H208.947a.692.692,0,0,0-.692.692v12.76a.693.693,0,0,0,.692.692h9.2a.692.692,0,0,1,.647.937l-.111.291a.589.589,0,0,0,.869.7l2.834-1.823a.7.7,0,0,1,.374-.109h4.391a.693.693,0,0,0,.692-.692v-12.76a.692.692,0,0,0-.692-.692Z" transform="translate(-207.851 -137.326)" fill="#fff"/>
      <path id="Path_435" data-name="Path 435" d="M219.139,154.212a.99.99,0,0,1-.623-.225.979.979,0,0,1-.3-1.125l.111-.292a.284.284,0,0,0-.032-.264.287.287,0,0,0-.238-.124h-9.2a1.1,1.1,0,0,1-1.1-1.1v-12.76a1.1,1.1,0,0,1,1.1-1.095h18.208a1.1,1.1,0,0,1,1.1,1.095v12.76a1.1,1.1,0,0,1-1.1,1.1h-4.391a.286.286,0,0,0-.156.046l-2.833,1.822A1,1,0,0,1,219.139,154.212Zm-10.288-16.174a.288.288,0,0,0-.288.287v12.76a.288.288,0,0,0,.288.288h9.2a1.1,1.1,0,0,1,1.025,1.484l-.111.292a.185.185,0,0,0,.273.221l2.834-1.823a1.1,1.1,0,0,1,.593-.174h4.391a.288.288,0,0,0,.288-.288v-12.76a.287.287,0,0,0-.288-.287Z" transform="translate(-207.755 -137.23)" fill="#070707"/>
    </g>
    <path id="Path_436" data-name="Path 436" d="M224.638,143.662H214.114a.4.4,0,1,1,0-.808h10.524a.4.4,0,0,1,0,.808Z" transform="translate(-27.89 -9.451)"/>
    <path id="Path_437" data-name="Path 437" d="M224.638,146.846H214.114a.4.4,0,1,1,0-.808h10.524a.4.4,0,0,1,0,.808Z" transform="translate(-27.89 -10.063)"/>
    <path id="Path_438" data-name="Path 438" d="M220.049,150.03h-5.935a.4.4,0,1,1,0-.808h5.935a.4.4,0,1,1,0,.808Z" transform="translate(-27.89 -10.674)"/>
    <g id="Group_167" data-name="Group 167" transform="translate(70.768 201.13)">
      <g id="Group_166" data-name="Group 166">
        <path id="Path_439" data-name="Path 439" d="M77.181,238.726a5.872,5.872,0,0,1-3.858-10.3l.265-.232.266.232a5.05,5.05,0,0,0,6.653,0l.266-.232.265.232a5.871,5.871,0,0,1-3.857,10.3Zm-3.576-9.462a5.069,5.069,0,1,0,7.151,0,5.856,5.856,0,0,1-7.151,0Z" transform="translate(-71.305 -226.973)"/>
        <path id="Path_440" data-name="Path 440" d="M77.578,230.193a5.868,5.868,0,0,1-3.858-1.45l-.349-.3.349-.3a5.854,5.854,0,0,1,7.716,0l.348.3-.349.3A5.865,5.865,0,0,1,77.578,230.193Zm-2.942-1.754a5.168,5.168,0,0,0,5.884,0A5.159,5.159,0,0,0,74.635,228.439Z" transform="translate(-71.702 -226.683)"/>
        <path id="Path_441" data-name="Path 441" d="M77.578,240.366a5.868,5.868,0,0,1-3.858-1.45l-.349-.3.349-.3a5.854,5.854,0,0,1,7.716,0l.348.3-.349.3A5.865,5.865,0,0,1,77.578,240.366Zm-2.942-1.755a5.165,5.165,0,0,0,5.884,0A5.162,5.162,0,0,0,74.635,238.612Z" transform="translate(-71.702 -228.637)"/>
      </g>
      <rect id="Rectangle_6" data-name="Rectangle 6" width="10.944" height="0.808" transform="translate(0.404 5.472)"/>
      <rect id="Rectangle_7" data-name="Rectangle 7" width="0.808" height="10.944" transform="translate(5.472 0.404)"/>
    </g>
    <path id="Path_442" data-name="Path 442" d="M192.454,279.723H190.63a2.31,2.31,0,0,1-2.308-2.308v-5.693a2.31,2.31,0,0,1,2.308-2.308h1.823a2.31,2.31,0,0,1,2.308,2.308v5.693A2.31,2.31,0,0,1,192.454,279.723Zm-1.823-9.5a1.5,1.5,0,0,0-1.5,1.5v5.693a1.5,1.5,0,0,0,1.5,1.5h1.823a1.5,1.5,0,0,0,1.5-1.5v-5.693a1.5,1.5,0,0,0-1.5-1.5Z" transform="translate(-23.013 -33.76)" fill="#070707"/>
    <rect id="Rectangle_8" data-name="Rectangle 8" width="19.034" height="0.808" transform="translate(171.345 240.404)" fill="#070707"/>
    <g id="Group_168" data-name="Group 168" transform="translate(148.942 238.003)">
      <rect id="Rectangle_9" data-name="Rectangle 9" width="17.599" height="5.339" rx="0.831" transform="translate(0.404 0.404)" fill="#ff5e54"/>
      <path id="Path_443" data-name="Path 443" d="M185.4,278.47H169.14a1.078,1.078,0,0,1-1.076-1.076v-4a1.077,1.077,0,0,1,1.076-1.075H185.4a1.077,1.077,0,0,1,1.076,1.075v4A1.078,1.078,0,0,1,185.4,278.47Zm-16.255-5.34a.268.268,0,0,0-.268.267v4a.269.269,0,0,0,.268.268H185.4a.269.269,0,0,0,.268-.268v-4a.268.268,0,0,0-.268-.267Z" transform="translate(-168.064 -272.322)" fill="#070707"/>
    </g>
    <g id="Group_169" data-name="Group 169" transform="translate(143.761 239.09)">
      <path id="Path_444" data-name="Path 444" d="M163.571,277.008h0a1.42,1.42,0,1,1,1.42-1.42,1.419,1.419,0,0,1-1.42,1.42Z" transform="translate(-161.747 -273.763)" fill="#fff"/>
      <path id="Path_445" data-name="Path 445" d="M163.475,277.316a1.824,1.824,0,1,1,1.823-1.824A1.826,1.826,0,0,1,163.475,277.316Zm0-2.841a1.016,1.016,0,1,0,1.015,1.016A1.018,1.018,0,0,0,163.475,274.475Z" transform="translate(-161.651 -273.667)" fill="#070707"/>
    </g>
    <path id="Path_446" data-name="Path 446" d="M212.3,280.718h-2.745v-5.424h6.06v4.893h-2.568V279.04H212.3Zm-1.937-.808h1.129l.006-1.677h2.357v1.146h.953V276.1H210.36Z" transform="translate(-27.091 -34.89)" fill="#070707"/>
    <g id="Group_170" data-name="Group 170" transform="translate(83.649 176.904)">
      <path id="Path_447" data-name="Path 447" d="M127.384,197.2H90.21l-2.461,42.529h42.1Z" transform="translate(-87.344 -196.793)" fill="#a4d1fc"/>
      <path id="Path_448" data-name="Path 448" d="M129.75,240.034h-42.1a.4.4,0,0,1-.4-.427l2.462-42.528a.4.4,0,0,1,.4-.381h37.174a.4.4,0,0,1,.4.381l2.462,42.528a.4.4,0,0,1-.4.427Zm-41.67-.808h41.241L126.907,197.5H90.5Z" transform="translate(-87.248 -196.697)" fill="#070707"/>
    </g>
    <g id="Group_171" data-name="Group 171" transform="translate(93.357 178.362)">
      <path id="Path_449" data-name="Path 449" d="M99.765,201.374a2.371,2.371,0,1,0,2.37-2.373,2.372,2.372,0,0,0-2.37,2.373Z" transform="translate(-99.361 -198.598)" fill="#fff"/>
      <path id="Path_450" data-name="Path 450" d="M102.039,204.051a2.774,2.774,0,1,1,2.775-2.773A2.777,2.777,0,0,1,102.039,204.051Zm0-4.741a1.966,1.966,0,1,0,1.967,1.968A1.969,1.969,0,0,0,102.039,199.31Z" transform="translate(-99.265 -198.502)" fill="#070707"/>
    </g>
    <g id="Group_172" data-name="Group 172" transform="translate(116.784 178.362)">
      <path id="Path_451" data-name="Path 451" d="M133.5,201.374a2.371,2.371,0,1,1-2.37-2.373,2.372,2.372,0,0,1,2.37,2.373Z" transform="translate(-128.357 -198.598)" fill="#fff"/>
      <path id="Path_452" data-name="Path 452" d="M131.037,204.051a2.774,2.774,0,1,1,2.774-2.773A2.778,2.778,0,0,1,131.037,204.051Zm0-4.741A1.966,1.966,0,1,0,133,201.278,1.97,1.97,0,0,0,131.037,199.31Z" transform="translate(-128.261 -198.502)" fill="#070707"/>
    </g>
    <path id="Path_453" data-name="Path 453" d="M102.25,198.112a.807.807,0,0,1-.806-.776c-.014-.331-.272-8.175,4.2-12.831a11.052,11.052,0,0,1,8.314-3.3.808.808,0,0,1,0,1.616,9.5,9.5,0,0,0-7.148,2.807c-4,4.167-3.758,11.574-3.754,11.648a.807.807,0,0,1-.775.839Z" transform="translate(-6.325 -16.817)"/>
    <path id="Path_454" data-name="Path 454" d="M128.192,198.112h-.032a.809.809,0,0,1-.776-.839c0-.074.241-7.5-3.758-11.654a9.493,9.493,0,0,0-7.142-2.8.808.808,0,1,1,0-1.616,11.05,11.05,0,0,1,8.312,3.3c4.475,4.658,4.216,12.5,4.2,12.832A.807.807,0,0,1,128.192,198.112Z" transform="translate(-9.06 -16.817)"/>
    <path id="Path_455" data-name="Path 455" d="M119.268,235.1H103.441a.4.4,0,0,1,0-.808h15.827a.4.4,0,1,1,0,.808Z" transform="translate(-6.632 -27.014)" fill="#fff"/>
    <g id="Group_175" data-name="Group 175" transform="translate(122.044 185.036)">
      <g id="Group_173" data-name="Group 173">
        <path id="Path_456" data-name="Path 456" d="M150.685,214.972a7.707,7.707,0,1,1-7.708-7.709,7.708,7.708,0,0,1,7.708,7.709Z" transform="translate(-134.867 -206.859)" fill="#50bceb"/>
        <path id="Path_457" data-name="Path 457" d="M142.88,222.988a8.112,8.112,0,1,1,8.112-8.112A8.119,8.119,0,0,1,142.88,222.988Zm0-15.417a7.3,7.3,0,1,0,7.3,7.305A7.311,7.311,0,0,0,142.88,207.571Z" transform="translate(-134.771 -206.763)" fill="#070707"/>
      </g>
      <g id="Group_174" data-name="Group 174" transform="translate(5.075 3.037)">
        <path id="Path_458" data-name="Path 458" d="M144.3,210.522a.5.5,0,0,1,.506.5v.259a4.277,4.277,0,0,1,1.821.646.63.63,0,0,1,.352.564.647.647,0,0,1-.658.646.684.684,0,0,1-.353-.106,4.26,4.26,0,0,0-1.209-.517v2.256c1.786.446,2.549,1.163,2.549,2.421,0,1.292-1.01,2.15-2.5,2.29v.705a.5.5,0,0,1-.506.5.511.511,0,0,1-.516-.5v-.729a5.076,5.076,0,0,1-2.408-.916.645.645,0,0,1-.318-.564.646.646,0,0,1,1.033-.517,4.166,4.166,0,0,0,1.739.787v-2.314c-1.715-.447-2.514-1.093-2.514-2.421a2.36,2.36,0,0,1,2.467-2.244v-.247A.511.511,0,0,1,144.3,210.522Zm-.469,4.007v-2.08c-.752.07-1.128.469-1.128.986C142.7,213.929,142.921,214.234,143.826,214.529Zm.928,1.633V218.3c.751-.082,1.163-.457,1.163-1.022C145.917,216.761,145.658,216.443,144.754,216.161Z" transform="translate(-141.053 -210.522)"/>
      </g>
    </g>
    <g id="Group_176" data-name="Group 176" transform="translate(129.746 209.173)">
      <path id="Path_459" data-name="Path 459" d="M155.825,239.012v-1.874h-11.02v1.947h.016c.075.684,2.508,1.236,5.5,1.236,3.044,0,5.511-.568,5.511-1.268a.146.146,0,0,0-.01-.041Z" transform="translate(-144.401 -236.734)" fill="#fff"/>
      <path id="Path_460" data-name="Path 460" d="M150.228,240.628c-.567,0-5.411-.042-5.873-1.452a.38.38,0,0,1-.05-.187v-1.947a.4.4,0,0,1,.4-.4h11.02a.4.4,0,0,1,.4.4v1.827a.573.573,0,0,1,.01.088C156.143,240.582,150.834,240.628,150.228,240.628Zm-5.115-1.751a.381.381,0,0,1,.014.067c.158.3,2,.876,5.1.876,3.026,0,4.86-.549,5.1-.874a.206.206,0,0,1,0-.031v-1.47H145.113Zm10.616.038h0Z" transform="translate(-144.305 -236.638)" fill="#070707"/>
    </g>
    <g id="Group_177" data-name="Group 177" transform="translate(129.746 207.976)">
      <path id="Path_461" data-name="Path 461" d="M155.825,236.922c0,.7-2.466,1.269-5.509,1.269s-5.511-.568-5.511-1.269,2.467-1.266,5.511-1.266,5.509.566,5.509,1.266Z" transform="translate(-144.401 -235.252)" fill="#fff"/>
      <path id="Path_462" data-name="Path 462" d="M150.22,238.5c-.605,0-5.915-.048-5.915-1.673s5.31-1.67,5.915-1.67,5.913.047,5.913,1.67S150.825,238.5,150.22,238.5Zm0-2.535c-3.1,0-4.949.574-5.113.9.163.254,2.012.831,5.113.831,2.995,0,4.82-.537,5.088-.865C155.039,236.5,153.213,235.964,150.22,235.964Zm5.112.9h0Z" transform="translate(-144.305 -235.156)" fill="#070707"/>
    </g>
    <g id="Group_178" data-name="Group 178" transform="translate(141.631 214.156)">
      <path id="Path_463" data-name="Path 463" d="M170.537,245.179v-1.874H159.515v1.947h.016c.075.685,2.507,1.235,5.5,1.235,3.043,0,5.51-.567,5.51-1.268a.342.342,0,0,0-.009-.041Z" transform="translate(-159.111 -242.902)" fill="#fff"/>
      <path id="Path_464" data-name="Path 464" d="M164.94,246.8c-.568,0-5.409-.042-5.874-1.449a.386.386,0,0,1-.05-.189V243.21a.4.4,0,0,1,.4-.4h11.022a.4.4,0,0,1,.4.4v1.828a.507.507,0,0,1,.009.086C170.854,246.749,165.545,246.8,164.94,246.8Zm-5.117-1.752a.4.4,0,0,1,.014.069c.158.3,2.005.875,5.1.875,3.027,0,4.86-.549,5.1-.874v-1.5H159.823Zm10.618.039h0Z" transform="translate(-159.015 -242.806)" fill="#070707"/>
    </g>
    <g id="Group_179" data-name="Group 179" transform="translate(141.631 212.958)">
      <path id="Path_465" data-name="Path 465" d="M170.537,243.09c0,.7-2.467,1.268-5.511,1.268s-5.511-.568-5.511-1.268,2.469-1.267,5.511-1.267,5.511.567,5.511,1.267Z" transform="translate(-159.111 -241.419)" fill="#fff"/>
      <path id="Path_466" data-name="Path 466" d="M164.929,244.665c-.605,0-5.914-.047-5.914-1.671s5.309-1.672,5.914-1.672,5.916.047,5.916,1.672S165.535,244.665,164.929,244.665Zm0-2.534c-3.1,0-4.949.575-5.113.9.164.253,2.013.828,5.113.828,2.993,0,4.82-.536,5.091-.863C169.749,242.667,167.922,242.131,164.929,242.131Zm5.114.9h0Z" transform="translate(-159.015 -241.323)" fill="#070707"/>
    </g>
    <g id="Group_180" data-name="Group 180" transform="translate(132.687 220.764)">
      <path id="Path_467" data-name="Path 467" d="M159.467,253.358v-1.874H148.445v1.948h.016c.076.684,2.509,1.234,5.5,1.234,3.044,0,5.512-.566,5.512-1.268,0-.015-.009-.028-.01-.041Z" transform="translate(-148.041 -251.08)" fill="#fff"/>
      <path id="Path_468" data-name="Path 468" d="M153.868,254.974c-.567,0-5.415-.042-5.874-1.453a.378.378,0,0,1-.048-.185v-1.948a.4.4,0,0,1,.4-.4h11.022a.4.4,0,0,1,.4.4v1.83a.5.5,0,0,1,.01.086C159.784,254.928,154.474,254.974,153.868,254.974Zm-5.115-1.748a.332.332,0,0,1,.013.064c.158.3,2.005.876,5.1.876,3.029,0,4.863-.549,5.1-.874v-1.5H148.753Zm10.618.035h0Z" transform="translate(-147.945 -250.984)" fill="#070707"/>
    </g>
    <g id="Group_181" data-name="Group 181" transform="translate(132.687 219.566)">
      <path id="Path_469" data-name="Path 469" d="M159.467,251.269c0,.7-2.467,1.268-5.512,1.268s-5.51-.566-5.51-1.268,2.467-1.268,5.51-1.268,5.512.567,5.512,1.268Z" transform="translate(-148.041 -249.597)" fill="#fff"/>
      <path id="Path_470" data-name="Path 470" d="M153.86,252.845c-.605,0-5.915-.047-5.915-1.672s5.31-1.672,5.915-1.672,5.915.047,5.915,1.672S154.465,252.845,153.86,252.845Zm0-2.536c-3.1,0-4.949.576-5.113.9.164.255,2.013.831,5.113.831,2.995,0,4.822-.536,5.091-.864C158.682,250.845,156.855,250.309,153.86,250.309Zm5.113.9h0Z" transform="translate(-147.945 -249.501)" fill="#070707"/>
    </g>
    <g id="Group_184" data-name="Group 184" transform="translate(91.15 198.199)">
      <path id="Path_471" data-name="Path 471" d="M125.8,278.174a1.539,1.539,0,1,1,1.539-1.538A1.54,1.54,0,0,1,125.8,278.174Zm0-2.269a.731.731,0,1,0,.731.731A.731.731,0,0,0,125.8,275.9Z" transform="translate(-101.858 -233.051)"/>
      <path id="Path_472" data-name="Path 472" d="M121.378,233.064H100.216a3.683,3.683,0,1,0,0,7.366h7.174a1.529,1.529,0,0,1,1.252-2.41h.453a1.53,1.53,0,0,1,1.252,2.41h11.03a3.683,3.683,0,0,0,0-7.366Z" transform="translate(-96.533 -224.977)" fill="#fff"/>
      <g id="Group_182" data-name="Group 182" transform="translate(5.778 11.477)">
        <path id="Path_473" data-name="Path 473" d="M104.185,237.76h0Z" transform="translate(-103.781 -237.356)" fill="#fff"/>
        <path id="Path_474" data-name="Path 474" d="M120.252,238.068H104.089a.4.4,0,1,1,0-.808h16.163a.4.4,0,0,1,0,.808Z" transform="translate(-103.685 -237.26)" fill="#070707"/>
      </g>
      <path id="Path_475" data-name="Path 475" d="M124.371,279.555H112.918a1.885,1.885,0,0,1-1.983-1.764V274.8a1.886,1.886,0,0,1,1.983-1.766h11.453a1.886,1.886,0,0,1,1.983,1.766v2.987A1.885,1.885,0,0,1,124.371,279.555Zm-11.453-5.71a1.084,1.084,0,0,0-1.175.958v2.987a1.084,1.084,0,0,0,1.175.957h11.453a1.084,1.084,0,0,0,1.175-.957V274.8a1.084,1.084,0,0,0-1.175-.958Z" transform="translate(-99.299 -232.655)"/>
      <g id="Group_183" data-name="Group 183" transform="translate(1.697 12.257)">
        <path id="Path_476" data-name="Path 476" d="M121.914,248.551a1.437,1.437,0,0,0-.023-.223,1.786,1.786,0,0,0-3.417-.324,1.6,1.6,0,0,0-.128.559,1.766,1.766,0,0,0-1.777-1.69,1.786,1.786,0,0,0-1.549.9c-.031.048-.057.1-.085.154,0,.007-.008.015-.011.023a1.562,1.562,0,0,0-.15.563,1.781,1.781,0,0,0-3.318-.745,1.552,1.552,0,0,0-.246.7v-7.939a1.8,1.8,0,1,0-3.6,0v8.642c0,1.152,0,4,0,6.575a22.52,22.52,0,0,0-6.055-1.837c-2.776-.321-3.035,2.79-1.421,3.287,6.449,1.52,10.515,7.332,10.515,7.332h11.275v-15.9C121.921,248.6,121.915,248.575,121.914,248.551Z" transform="translate(-98.73 -238.322)" fill="#50bceb"/>
        <path id="Path_477" data-name="Path 477" d="M121.825,264.833H110.55a.406.406,0,0,1-.331-.172c-.04-.057-4.059-5.706-10.277-7.171a1.953,1.953,0,0,1-1.26-2.335,2.344,2.344,0,0,1,2.82-1.745,22.859,22.859,0,0,1,5.605,1.615l0-5.932,0-.03v-8.633a2.2,2.2,0,0,1,4.41,0v6.436a2.194,2.194,0,0,1,3.17.425,2.2,2.2,0,0,1,3.57-.006,2.207,2.207,0,0,1,1.781-.911,2.168,2.168,0,0,1,2.152,1.79,1.748,1.748,0,0,1,.029.271c0,.023.006.08.006.094v15.9A.4.4,0,0,1,121.825,264.833Zm-11.069-.808h10.665V248.538l-.006-.074a.9.9,0,0,0-.015-.155,1.382,1.382,0,0,0-2.644-.255,1.2,1.2,0,0,0-.1.431.408.408,0,0,1-.406.385.4.4,0,0,1-.4-.389,1.358,1.358,0,0,0-1.374-1.3,1.389,1.389,0,0,0-1.2.693c-.03.048-.045.079-.062.111a1.214,1.214,0,0,0-.132.457.4.4,0,0,1-.4.374h0a.4.4,0,0,1-.4-.377,1.366,1.366,0,0,0-1.371-1.258,1.389,1.389,0,0,0-1.195.688,1.192,1.192,0,0,0-.193.541.392.392,0,0,1-.423.36.4.4,0,0,1-.382-.4v-7.938a1.4,1.4,0,0,0-2.794,0l0,15.216a.4.4,0,0,1-.574.366,22.221,22.221,0,0,0-5.941-1.8c-1.212-.138-1.8.481-1.928,1.109a1.158,1.158,0,0,0,.68,1.39C106.1,258.112,110.009,263.021,110.756,264.025Z" transform="translate(-98.633 -238.226)"/>
      </g>
      <path id="Path_478" data-name="Path 478" d="M124.076,273.261H113.523a1.6,1.6,0,1,1,0-3.172h10.553a1.6,1.6,0,1,1,0,3.172ZM113.523,270.9a.8.8,0,1,0,0,1.556h10.553a.8.8,0,1,0,0-1.556Z" transform="translate(-99.455 -232.089)"/>
      <rect id="Rectangle_10" data-name="Rectangle 10" width="0.808" height="2.156" transform="translate(13.371 42.68)"/>
      <path id="Path_479" data-name="Path 479" d="M111.7,228.713a.4.4,0,0,1-.4-.4v-4.85a.4.4,0,0,1,.808,0v4.85A.4.4,0,0,1,111.7,228.713Z" transform="translate(-99.369 -223.055)"/>
      <path id="Path_480" data-name="Path 480" d="M114.574,229.154a.4.4,0,0,1-.25-.722l3.815-2.994a.4.4,0,0,1,.5.636l-3.815,2.994A.4.4,0,0,1,114.574,229.154Z" transform="translate(-99.92 -223.496)"/>
      <path id="Path_481" data-name="Path 481" d="M107.92,229.154a.4.4,0,0,1-.249-.086l-3.816-2.994a.4.4,0,0,1,.5-.636l3.816,2.994a.4.4,0,0,1-.25.722Z" transform="translate(-97.91 -223.496)"/>
    </g>
    <g id="Group_185" data-name="Group 185" transform="translate(68.508 215.465)">
      <path id="Path_482" data-name="Path 482" d="M75.091,257.113h0A6.093,6.093,0,1,1,81.2,251.03,6.116,6.116,0,0,1,75.091,257.113Z" transform="translate(-68.604 -244.522)" fill="#fff"/>
      <path id="Path_483" data-name="Path 483" d="M75,257.421h-.006A6.5,6.5,0,0,1,75,244.426h.013A6.5,6.5,0,0,1,75,257.421Zm0-.808h0a5.689,5.689,0,0,0,.017-11.379H75A5.689,5.689,0,0,0,75,256.613Z" transform="translate(-68.508 -244.426)" fill="#070707"/>
    </g>
    <path id="Path_484" data-name="Path 484" d="M75.715,253.705a.4.4,0,0,1-.33-.172L72.27,249.1a.4.4,0,1,1,.661-.464l2.742,3.9,4.945-8.979a.4.4,0,0,1,.708.39L76.068,253.5a.4.4,0,0,1-.331.208Z" transform="translate(-0.708 -28.754)" fill="#070707"/>
    <g id="Group_188" data-name="Group 188" transform="translate(235.218 114.309)">
      <g id="Group_186" data-name="Group 186">
        <path id="Path_485" data-name="Path 485" d="M285.73,124.912a5.19,5.19,0,1,1-5.192-5.191,5.191,5.191,0,0,1,5.192,5.191Z" transform="translate(-274.947 -119.317)" fill="#a4d1fc"/>
        <path id="Path_486" data-name="Path 486" d="M280.443,130.41a5.594,5.594,0,1,1,5.595-5.593A5.6,5.6,0,0,1,280.443,130.41Zm0-10.381a4.787,4.787,0,1,0,4.787,4.788A4.791,4.791,0,0,0,280.443,120.029Z" transform="translate(-274.851 -119.221)" fill="#070707"/>
      </g>
      <g id="Group_187" data-name="Group 187" transform="translate(1.813 1.899)">
        <path id="Path_487" data-name="Path 487" d="M280.728,121.821a3.4,3.4,0,0,1,3.018,4.916,1.667,1.667,0,0,1-.877.734.716.716,0,0,1-.193.019.658.658,0,0,1-.549-.26.834.834,0,0,1-.154-.463v-.327a1.641,1.641,0,0,1-1.244.578,1.814,1.814,0,0,1,0-3.624,1.756,1.756,0,0,1,1.706,1.8v1.542h.01a.439.439,0,0,0,.058.212.2.2,0,0,0,.174.067h.077a1,1,0,0,0,.559-.5,2.725,2.725,0,0,0,.318-1.321,2.907,2.907,0,1,0-2.9,2.912,2.592,2.592,0,0,0,.724-.078.2.2,0,0,1,.27.165.21.21,0,0,1-.164.279,3.3,3.3,0,0,1-.83.107,3.379,3.379,0,1,1,0-6.758Zm0,4.695a1.283,1.283,0,0,0,1.234-1.321,1.3,1.3,0,0,0-1.234-1.33,1.282,1.282,0,0,0-1.223,1.33A1.267,1.267,0,0,0,280.728,126.516Z" transform="translate(-277.143 -121.619)"/>
        <path id="Path_488" data-name="Path 488" d="M280.68,128.733a3.581,3.581,0,1,1,3.577-3.586,3.548,3.548,0,0,1-.379,1.634l-.037.051a1.726,1.726,0,0,1-.964.785.893.893,0,0,1-.249.027.859.859,0,0,1-.713-.342,1.1,1.1,0,0,1-.185-.466,1.787,1.787,0,0,1-1.05.335,2.016,2.016,0,0,1,0-4.028,1.96,1.96,0,0,1,1.908,2v1.34h.036l-.028.234h0a.316.316,0,0,1,.019.044l.09,0c.153-.04.346-.31.372-.374a2.571,2.571,0,0,0,.3-1.246,2.7,2.7,0,1,0-2.7,2.71,2.429,2.429,0,0,0,.669-.069.456.456,0,0,1,.375.066.372.372,0,0,1,.148.248.412.412,0,0,1-.331.523A3.4,3.4,0,0,1,280.68,128.733Zm0-6.758a3.177,3.177,0,1,0,0,6.354,3.107,3.107,0,0,0,.779-.1l-.011-.028.025-.041a2.492,2.492,0,0,1-.793.1,3.108,3.108,0,1,1,3.1-3.114,2.94,2.94,0,0,1-.343,1.418,1.187,1.187,0,0,1-.69.6l-.123,0a.391.391,0,0,1-.336-.149,1.178,1.178,0,0,1-.06-.13h-.038l-.01-.2v-1.542a1.516,1.516,0,1,0-3.028,0,1.576,1.576,0,0,0,1.524,1.62,1.442,1.442,0,0,0,1.094-.511l.352-.394v.856a.63.63,0,0,0,.12.351.458.458,0,0,0,.381.17.538.538,0,0,0,.137-.011,1.385,1.385,0,0,0,.738-.612l.019-.028a3.2,3.2,0,0,0-2.843-4.612Zm0,4.695a1.461,1.461,0,0,1-1.425-1.523,1.483,1.483,0,0,1,1.425-1.532,1.506,1.506,0,0,1,1.436,1.532A1.483,1.483,0,0,1,280.68,126.67Zm0-2.651a1.08,1.08,0,0,0-1.021,1.128,1.062,1.062,0,0,0,1.021,1.119,1.08,1.08,0,0,0,1.033-1.119A1.1,1.1,0,0,0,280.68,124.019Z" transform="translate(-277.095 -121.571)" fill="#070707"/>
      </g>
    </g>
    <g id="Group_196" data-name="Group 196" transform="translate(233.168 190.664)">
      <g id="Group_189" data-name="Group 189" transform="translate(7.315 2.847)">
        <rect id="Rectangle_11" data-name="Rectangle 11" width="46.244" height="33.036" transform="translate(0.404 0.403)" fill="#50bceb"/>
        <path id="Path_489" data-name="Path 489" d="M328.42,251.1H281.368V217.252H328.42Zm-46.244-.808h45.436V218.06H282.176Z" transform="translate(-281.368 -217.252)" fill="#070707"/>
      </g>
      <path id="Path_490" data-name="Path 490" d="M335.228,253.118H274.789a2.477,2.477,0,0,1-2.475-2.474V216.2a2.478,2.478,0,0,1,2.475-2.475h60.438A2.477,2.477,0,0,1,337.7,216.2v34.442A2.477,2.477,0,0,1,335.228,253.118Zm-60.438-38.582a1.669,1.669,0,0,0-1.668,1.667v34.442a1.668,1.668,0,0,0,1.668,1.666h60.438a1.667,1.667,0,0,0,1.667-1.666V216.2a1.668,1.668,0,0,0-1.667-1.667Z" transform="translate(-272.314 -213.728)"/>
      <path id="Path_491" data-name="Path 491" d="M278.027,241.7a.4.4,0,0,1-.4-.4v-8.626a.4.4,0,1,1,.808,0V241.3A.4.4,0,0,1,278.027,241.7Z" transform="translate(-273.334 -217.289)"/>
      <path id="Path_492" data-name="Path 492" d="M345.591,240.517a3.163,3.163,0,1,1,3.162-3.163A3.167,3.167,0,0,1,345.591,240.517Zm0-5.519a2.356,2.356,0,1,0,2.354,2.356A2.358,2.358,0,0,0,345.591,235Z" transform="translate(-285.781 -217.658)"/>
      <path id="Path_493" data-name="Path 493" d="M324.781,252.674H288.694a.4.4,0,1,1,0-.808h36.087a.4.4,0,0,1,0,.808Z" transform="translate(-275.383 -221.053)"/>
      <path id="Path_494" data-name="Path 494" d="M299.735,251.97a1.9,1.9,0,1,1-1.9-1.9,1.9,1.9,0,0,1,1.9,1.9Z" transform="translate(-276.852 -220.709)" fill="#fff"/>
      <path id="Path_495" data-name="Path 495" d="M297.743,254.176a2.3,2.3,0,1,1,2.3-2.3A2.306,2.306,0,0,1,297.743,254.176Zm0-3.8a1.494,1.494,0,1,0,1.493,1.494A1.5,1.5,0,0,0,297.743,250.38Z" transform="translate(-276.756 -220.613)"/>
      <g id="Group_190" data-name="Group 190" transform="translate(22.704 11.872)">
        <path id="Path_496" data-name="Path 496" d="M316.38,236.654a7.732,7.732,0,1,1-7.733-7.733,7.732,7.732,0,0,1,7.733,7.733Z" transform="translate(-300.512 -228.518)" fill="#ff5e54"/>
        <path id="Path_497" data-name="Path 497" d="M308.552,244.7a8.137,8.137,0,1,1,8.137-8.137A8.146,8.146,0,0,1,308.552,244.7Zm0-15.465a7.329,7.329,0,1,0,7.329,7.329A7.337,7.337,0,0,0,308.552,229.23Z" transform="translate(-300.416 -228.422)" fill="#070707"/>
      </g>
      <g id="Group_191" data-name="Group 191" transform="translate(28.584 15.889)">
        <path id="Path_498" data-name="Path 498" d="M308.194,237.68v-3.421l2.961,1.71,2.962,1.71-2.962,1.709-2.961,1.711Z" transform="translate(-307.79 -233.56)" fill="#a4d1fc"/>
        <path id="Path_499" data-name="Path 499" d="M307.694,241.633v-8.239l7.135,4.12Zm.808-6.84v5.44l4.711-2.719Z" transform="translate(-307.694 -233.394)" fill="#070707"/>
      </g>
      <g id="Group_192" data-name="Group 192" transform="translate(32.29 43.11)">
        <path id="Path_500" data-name="Path 500" d="M317.577,270.356l-4.8-2.77v11.851l4.8-2.77Z" transform="translate(-312.377 -267.183)" fill="#a4d1fc"/>
        <path id="Path_501" data-name="Path 501" d="M312.685,279.746a.409.409,0,0,1-.2-.054.4.4,0,0,1-.2-.35V267.491a.4.4,0,0,1,.606-.35l4.8,2.77a.4.4,0,0,1,.2.35v6.311a.4.4,0,0,1-.2.35l-4.8,2.77A.409.409,0,0,1,312.685,279.746Zm.4-11.555v10.451l3.989-2.3v-5.844Z" transform="translate(-312.281 -267.087)" fill="#070707"/>
      </g>
      <g id="Group_193" data-name="Group 193" transform="translate(37.087 42.737)">
        <path id="Path_502" data-name="Path 502" d="M335.551,267.125H319.334a.615.615,0,0,0-.616.616v11.366a.616.616,0,0,0,.616.616h16.217a.615.615,0,0,0,.615-.616V267.741a.615.615,0,0,0-.615-.616Z" transform="translate(-318.314 -266.721)" fill="#a4d1fc"/>
        <path id="Path_503" data-name="Path 503" d="M335.456,280.03H319.238a1.021,1.021,0,0,1-1.02-1.02V267.645a1.021,1.021,0,0,1,1.02-1.02h16.218a1.02,1.02,0,0,1,1.018,1.02V279.01A1.02,1.02,0,0,1,335.456,280.03Zm-16.218-12.6a.212.212,0,0,0-.212.212V279.01a.212.212,0,0,0,.212.212h16.218a.211.211,0,0,0,.21-.212V267.645a.211.211,0,0,0-.21-.212Z" transform="translate(-318.218 -266.625)" fill="#070707"/>
      </g>
      <g id="Group_194" data-name="Group 194" transform="translate(39.615 44.088)">
        <path id="Path_504" data-name="Path 504" d="M328.672,272.217a3.413,3.413,0,1,1-3.407-3.419A3.414,3.414,0,0,1,328.672,272.217Z" transform="translate(-321.443 -268.394)" fill="#a4d1fc"/>
        <path id="Path_505" data-name="Path 505" d="M325.161,275.934h-.006a3.818,3.818,0,0,1,.009-7.636h.006a3.823,3.823,0,0,1,3.811,3.823h0A3.824,3.824,0,0,1,325.161,275.934Zm0-6.828a3.01,3.01,0,0,0-.007,6.02h0a3.01,3.01,0,0,0,.007-6.02Zm3.413,3.014h0Z" transform="translate(-321.347 -268.298)" fill="#070707"/>
      </g>
      <g id="Group_195" data-name="Group 195" transform="translate(47.069 50.244)">
        <path id="Path_506" data-name="Path 506" d="M334.548,278.156a1.737,1.737,0,1,1-1.735-1.739A1.739,1.739,0,0,1,334.548,278.156Z" transform="translate(-330.669 -276.013)" fill="#a4d1fc"/>
        <path id="Path_507" data-name="Path 507" d="M332.712,280.2h0a2.142,2.142,0,0,1-1.508-3.658,2.124,2.124,0,0,1,1.51-.625h0a2.145,2.145,0,0,1,2.139,2.143h0A2.147,2.147,0,0,1,332.712,280.2Zm0-3.475a1.334,1.334,0,0,0-1.332,1.331,1.335,1.335,0,0,0,1.331,1.336h0a1.333,1.333,0,0,0,0-2.667Zm1.739,1.335h0Z" transform="translate(-330.573 -275.917)" fill="#070707"/>
      </g>
    </g>
    <g id="Group_198" data-name="Group 198" transform="translate(135.504 269.388)">
      <path id="Path_508" data-name="Path 508" d="M162.1,353.849a1.542,1.542,0,0,1-1.436-.989l.377-.144-.377.143a1.536,1.536,0,1,1,1.436.99Zm0-2.269a.728.728,0,0,0-.667.433.723.723,0,0,0-.016.558h0a.725.725,0,0,0,.385.406.732.732,0,0,0,.559.015.731.731,0,0,0-.261-1.413Z" transform="translate(-153.186 -318.774)"/>
      <path id="Path_509" data-name="Path 509" d="M160.971,354.7a2.014,2.014,0,0,1-.682-.117,1.663,1.663,0,0,1-1.016-.969l-1.067-2.791a1.664,1.664,0,0,1,.109-1.4,2.1,2.1,0,0,1,1.111-.957l10.7-4.094a2.106,2.106,0,0,1,1.467-.029,1.665,1.665,0,0,1,1.016.969l1.067,2.791a1.663,1.663,0,0,1-.109,1.4,2.11,2.11,0,0,1-1.113.956l-10.7,4.094A2.2,2.2,0,0,1,160.971,354.7Zm9.937-9.667a1.393,1.393,0,0,0-.5.094l-10.7,4.093a1.3,1.3,0,0,0-.688.586.869.869,0,0,0-.067.729l1.068,2.791a.865.865,0,0,0,.535.5,1.313,1.313,0,0,0,.9-.024l10.7-4.093a1.3,1.3,0,0,0,.69-.586.865.865,0,0,0,.067-.727l-1.068-2.791a.868.868,0,0,0-.536-.5A1.2,1.2,0,0,0,170.908,345.034Z" transform="translate(-152.713 -317.517)"/>
      <g id="Group_197" data-name="Group 197" transform="translate(0 0)">
        <path id="Path_510" data-name="Path 510" d="M152.025,325.431a1.4,1.4,0,0,1-.058-.216,1.786,1.786,0,0,1,3.076-1.524,1.581,1.581,0,0,1,.317.477,1.782,1.782,0,0,1,2.823-1.93,1.731,1.731,0,0,1,.135.112l.019.019a1.54,1.54,0,0,1,.342.472,1.781,1.781,0,0,1,2.833-1.882,1.552,1.552,0,0,1,.481.568l-2.837-7.414a1.8,1.8,0,1,1,3.363-1.287l3.085,8.062,0,.01c.413,1.075,1.431,3.731,2.353,6.139a22.511,22.511,0,0,1,5-3.88c2.478-1.292,3.831,1.521,2.5,2.561-5.479,3.724-7.2,10.606-7.2,10.606l-10.531,4.03-5.679-14.842,0-.011C152.035,325.479,152.033,325.454,152.025,325.431Z" transform="translate(-151.528 -311.264)" fill="#ffd70a"/>
        <path id="Path_511" data-name="Path 511" d="M157.63,340.661a.4.4,0,0,1-.376-.259l-5.68-14.842c-.006-.017-.026-.082-.031-.1h0a1.946,1.946,0,0,1-.072-.269,2.17,2.17,0,0,1,1.373-2.434,2.2,2.2,0,0,1,1.989.215,2.2,2.2,0,0,1,3.337-1.268,2.19,2.19,0,0,1,2.811-1.529l-2.3-6.013a2.2,2.2,0,1,1,4.117-1.575l3.085,8.061.011.032,2.121,5.535a22.882,22.882,0,0,1,4.651-3.508,2.344,2.344,0,0,1,3.265.618,1.951,1.951,0,0,1-.32,2.616c-5.3,3.606-7.041,10.319-7.058,10.386a.4.4,0,0,1-.247.279l-10.53,4.03A.409.409,0,0,1,157.63,340.661Zm-4-17.242a1.384,1.384,0,0,0-.492.09,1.366,1.366,0,0,0-.868,1.533,1.041,1.041,0,0,0,.044.159v0c0,.014.017.059.02.073l5.533,14.459,9.961-3.811c.339-1.205,2.234-7.187,7.31-10.636a1.159,1.159,0,0,0,.116-1.527,1.562,1.562,0,0,0-2.2-.343,22.253,22.253,0,0,0-4.9,3.8.4.4,0,0,1-.667-.137l-2.353-6.138c0-.012-.009-.025-.012-.038l-3.075-8.035a1.4,1.4,0,1,0-2.609,1l2.837,7.413a.4.4,0,0,1-.738.328,1.142,1.142,0,0,0-.353-.421,1.386,1.386,0,0,0-1.383-.232,1.367,1.367,0,0,0-.83,1.667.4.4,0,0,1-.751.289,1.137,1.137,0,0,0-.253-.348,1.372,1.372,0,0,0-.112-.1,1.4,1.4,0,0,0-1.387-.236,1.36,1.36,0,0,0-.819,1.706.4.4,0,0,1-.752.292,1.183,1.183,0,0,0-.238-.357A1.387,1.387,0,0,0,153.626,323.419Z" transform="translate(-151.432 -311.168)"/>
      </g>
      <path id="Path_512" data-name="Path 512" d="M159.366,348.687a1.6,1.6,0,0,1-1.529-.977h0a1.691,1.691,0,0,1,1.091-2.115l9.857-3.772a1.688,1.688,0,0,1,2.223.847,1.5,1.5,0,0,1-.1,1.26,1.878,1.878,0,0,1-.992.856l-9.856,3.772A1.955,1.955,0,0,1,159.366,348.687Zm-.774-1.266a.891.891,0,0,0,1.181.381l9.857-3.772a1.07,1.07,0,0,0,.57-.484.7.7,0,0,0,.055-.587.888.888,0,0,0-1.18-.382l-9.857,3.772a.889.889,0,0,0-.625,1.072Z" transform="translate(-152.644 -317.031)"/>
      <rect id="Rectangle_12" data-name="Rectangle 12" width="0.808" height="2.155" transform="translate(17.709 29.203) rotate(-20.936)"/>
    </g>
    <g id="Group_202" data-name="Group 202" transform="translate(186.393 188.694)">
      <g id="Group_199" data-name="Group 199" transform="translate(0.011 6.658)">
        <path id="Path_513" data-name="Path 513" d="M224.844,220.031l-4.957,3.273-4.955,3.273h19.823L229.8,223.3Z" transform="translate(-214.529 -219.626)" fill="#50bceb"/>
        <path id="Path_514" data-name="Path 514" d="M234.66,226.885H214.837a.4.4,0,0,1-.223-.741l9.912-6.547a.4.4,0,0,1,.445,0l9.911,6.547a.4.4,0,0,1-.222.741Zm-18.479-.808h17.134l-8.567-5.659Z" transform="translate(-214.433 -219.53)" fill="#070707"/>
      </g>
      <g id="Group_200" data-name="Group 200" transform="translate(0.036)">
        <path id="Path_515" data-name="Path 515" d="M224.874,218.6l-4.955-3.406-4.955-3.407h19.822l-4.955,3.407Z" transform="translate(-214.56 -211.386)" fill="#50bceb"/>
        <path id="Path_516" data-name="Path 516" d="M224.778,218.91a.408.408,0,0,1-.229-.071l-9.91-6.812a.4.4,0,0,1,.229-.737h19.822a.4.4,0,0,1,.229.737l-9.911,6.812A.409.409,0,0,1,224.778,218.91Zm-8.609-6.812,8.609,5.918,8.612-5.918Z" transform="translate(-214.463 -211.29)" fill="#070707"/>
      </g>
      <g id="Group_201" data-name="Group 201" transform="translate(0 0.103)">
        <path id="Path_517" data-name="Path 517" d="M234.753,211.917l-4.957,3.274-4.955,3.272-4.957-3.272-4.956-3.274h-.01v13.1h.011l4.955-3.274,4.957-3.272,4.955,3.272,4.957,3.274h.012v-13.1Z" transform="translate(-214.515 -211.513)" fill="#50bceb"/>
        <path id="Path_518" data-name="Path 518" d="M234.669,225.327a.436.436,0,0,1-.234-.067l-9.689-6.4-9.689,6.4a.425.425,0,0,1-.637-.337v-13.1a.425.425,0,0,1,.637-.337l9.69,6.4,9.689-6.4a.406.406,0,0,1,.223-.067h.011a.4.4,0,0,1,.4.4v13.1A.4.4,0,0,1,234.669,225.327Zm-9.2-6.955,8.792,5.808V212.564Zm-10.246-5.807v11.614l8.793-5.807Z" transform="translate(-214.419 -211.417)" fill="#070707"/>
      </g>
    </g>
    <g id="Group_203" data-name="Group 203" transform="translate(139.408 220.265)">
      <path id="Path_519" data-name="Path 519" d="M158.384,256.488h4l-5.623-5.622v4A1.62,1.62,0,0,0,158.384,256.488Z" transform="translate(-156.36 -250.463)" fill="#fff"/>
      <path id="Path_520" data-name="Path 520" d="M162.291,256.8h-4a2.026,2.026,0,0,1-2.024-2.024v-4a.4.4,0,0,1,.689-.285l5.623,5.622a.4.4,0,0,1-.285.689Zm-5.219-5.05v3.026a1.217,1.217,0,0,0,1.216,1.216h3.027Z" transform="translate(-156.264 -250.367)"/>
    </g>
    <g id="Group_204" data-name="Group 204" transform="translate(128.51 160.082)">
      <path id="Path_521" data-name="Path 521" d="M171.83,176.376H144.32a1.044,1.044,0,0,0-1.045,1.045V196.7a1.045,1.045,0,0,0,1.045,1.045h13.905a1.045,1.045,0,0,1,.978,1.415l-.167.44a.89.89,0,0,0,1.314,1.065l4.282-2.755a1.043,1.043,0,0,1,.565-.166h6.635a1.045,1.045,0,0,0,1.045-1.045v-19.28a1.045,1.045,0,0,0-1.045-1.045Z" transform="translate(-142.871 -175.972)" fill="#50bceb"/>
      <path id="Path_522" data-name="Path 522" d="M159.769,201.12a1.3,1.3,0,0,1-1.207-1.758l.167-.44a.641.641,0,0,0-.6-.868H144.224a1.451,1.451,0,0,1-1.449-1.449v-19.28a1.45,1.45,0,0,1,1.449-1.449h27.511a1.45,1.45,0,0,1,1.449,1.449V196.6a1.451,1.451,0,0,1-1.449,1.449H165.1a.64.64,0,0,0-.347.1l-4.282,2.755A1.294,1.294,0,0,1,159.769,201.12Zm-15.545-24.436a.641.641,0,0,0-.641.641V196.6a.642.642,0,0,0,.641.641H158.13a1.448,1.448,0,0,1,1.354,1.963l-.167.44a.486.486,0,0,0,.717.581l4.282-2.754a1.438,1.438,0,0,1,.784-.23h6.635a.642.642,0,0,0,.641-.641v-19.28a.641.641,0,0,0-.641-.641Z" transform="translate(-142.775 -175.876)"/>
    </g>
    <path id="Path_523" data-name="Path 523" d="M168.077,185.183h-15.9a.4.4,0,1,1,0-.808h15.9a.4.4,0,0,1,0,.808Z" transform="translate(-15.993 -17.426)"/>
    <path id="Path_524" data-name="Path 524" d="M168.077,189.993h-15.9a.4.4,0,1,1,0-.808h15.9a.4.4,0,0,1,0,.808Z" transform="translate(-15.993 -18.35)"/>
    <path id="Path_525" data-name="Path 525" d="M161.144,194.8h-8.967a.4.4,0,1,1,0-.808h8.967a.4.4,0,1,1,0,.808Z" transform="translate(-15.993 -19.274)"/>
    <path id="Path_526" data-name="Path 526" d="M182.51,255.527H178.6a2.342,2.342,0,0,1-2.184-2.469V238.08a2.342,2.342,0,0,1,2.184-2.469h3.907a2.343,2.343,0,0,1,2.185,2.469v14.978A2.343,2.343,0,0,1,182.51,255.527ZM178.6,236.419a1.54,1.54,0,0,0-1.376,1.661v14.978a1.54,1.54,0,0,0,1.376,1.661h3.907a1.541,1.541,0,0,0,1.378-1.661V238.08a1.541,1.541,0,0,0-1.378-1.661Z" transform="translate(-20.727 -27.268)"/>
    <path id="Path_527" data-name="Path 527" d="M181.183,256.812a1.887,1.887,0,1,1,1.887-1.887A1.89,1.89,0,0,1,181.183,256.812Zm0-2.967a1.079,1.079,0,1,0,0,2.159h0a1.079,1.079,0,1,0,0-2.159Z" transform="translate(-21.279 -30.615)"/>
    <g id="Group_205" data-name="Group 205" transform="translate(166.2 195.347)">
      <path id="Path_528" data-name="Path 528" d="M211.607,240.676a2.047,2.047,0,0,0-.735-.2,2.308,2.308,0,0,0,2.139-2.318,2.331,2.331,0,0,0-1.164-2.021,2.024,2.024,0,0,0-.96-.33,2.309,2.309,0,0,0,2.124-2.317,2.336,2.336,0,0,0-1.071-1.967,2.017,2.017,0,0,0-1.234-.414s-4.945,0-9.3,0a29.49,29.49,0,0,0,2.4-7.922c.419-3.631-3.648-3.97-4.3-1.857-1.987,8.432-9.589,13.751-9.589,13.751v14.746h20.8c.033,0,.065-.007.1-.01a2.146,2.146,0,0,0,.292-.029,2.336,2.336,0,0,0,.423-4.469,2.068,2.068,0,0,0-.731-.166,2.331,2.331,0,0,0,1.038-4.35,2.07,2.07,0,0,0-.2-.111Z" transform="translate(-189.521 -219.621)" fill="#50bceb"/>
      <path id="Path_529" data-name="Path 529" d="M210.625,250.135h-21.2v-15.36l.173-.12c.074-.053,7.5-5.335,9.427-13.513a2.435,2.435,0,0,1,2.909-1.555c1.168.245,2.442,1.322,2.185,3.552a29.9,29.9,0,0,1-2.18,7.472l8.672,0a2.442,2.442,0,0,1,1.479.5,2.742,2.742,0,0,1-.077,4.621,2.741,2.741,0,0,1,0,4.668,2.748,2.748,0,0,1,.012,4.667,2.758,2.758,0,0,1,1.291,2.331,2.715,2.715,0,0,1-2.236,2.692,2.358,2.358,0,0,1-.342.035A.737.737,0,0,1,210.625,250.135Zm-20.392-.808,20.468-.009a1.506,1.506,0,0,0,.235-.023,1.909,1.909,0,0,0,1.574-1.9,1.932,1.932,0,0,0-1.22-1.8,1.69,1.69,0,0,0-.6-.14l0-.807a1.9,1.9,0,0,0,1.82-1.921,1.934,1.934,0,0,0-.968-1.674,1.466,1.466,0,0,0-.179-.1l.121-.31-.007,0-.141.292a1.647,1.647,0,0,0-.591-.158l0-.806a1.909,1.909,0,0,0,1.761-1.915,1.938,1.938,0,0,0-.962-1.672,1.663,1.663,0,0,0-.791-.276l0-.806a1.929,1.929,0,0,0,.865-3.542,1.663,1.663,0,0,0-1.015-.351l-9.931,0,.267-.574a29.236,29.236,0,0,0,2.371-7.807c.192-1.678-.674-2.475-1.55-2.659a1.635,1.635,0,0,0-1.963.976c-1.85,7.854-8.392,12.97-9.571,13.839Z" transform="translate(-189.425 -219.525)" fill="#070707"/>
    </g>
    <path id="Path_530" data-name="Path 530" d="M187.64,254.871a2.087,2.087,0,0,1-1.95-2.2v-13.8a1.964,1.964,0,1,1,3.9,0v13.8A2.086,2.086,0,0,1,187.64,254.871Zm0-17.387a1.286,1.286,0,0,0-1.142,1.39v13.8a1.164,1.164,0,1,0,2.284,0v-13.8A1.285,1.285,0,0,0,187.64,237.485Z" transform="translate(-22.508 -27.472)"/>
    <path id="Path_531" data-name="Path 531" d="M182.33,239.231h-2.819a.4.4,0,0,1,0-.808h2.819a.4.4,0,0,1,0,.808Z" transform="translate(-21.243 -27.808)"/>
    <g id="Group_206" data-name="Group 206" transform="translate(143.396 192.36)">
      <path id="Path_532" data-name="Path 532" d="M176.3,216.328H162.635a.934.934,0,0,0-.935.934v9.348a.935.935,0,0,0,.935.934h3.67l2.384,1.534a.468.468,0,0,0,.688-.561l-.371-.974H176.3a.935.935,0,0,0,.935-.934v-9.348a.935.935,0,0,0-.935-.934Z" transform="translate(-161.296 -215.924)" fill="#fff"/>
      <path id="Path_533" data-name="Path 533" d="M168.845,229.463a.863.863,0,0,1-.47-.141l-2.285-1.47h-3.552a1.34,1.34,0,0,1-1.338-1.338v-9.348a1.34,1.34,0,0,1,1.338-1.338H176.2a1.34,1.34,0,0,1,1.339,1.338v9.348a1.34,1.34,0,0,1-1.339,1.338H169.5l.162.426a.877.877,0,0,1-.814,1.185Zm-6.307-12.827a.53.53,0,0,0-.53.53v9.348a.53.53,0,0,0,.53.53h3.671a.4.4,0,0,1,.219.065l2.383,1.535.47-.222-.378.144-.37-.974a.4.4,0,0,1,.377-.548H176.2a.531.531,0,0,0,.531-.53v-9.348a.531.531,0,0,0-.531-.53Z" transform="translate(-161.2 -215.828)" fill="#070707"/>
    </g>
    <g id="Group_207" data-name="Group 207" transform="translate(210.364 184.895)">
      <path id="Path_534" data-name="Path 534" d="M259.689,214.649a7.55,7.55,0,1,1-7.539-7.561A7.555,7.555,0,0,1,259.689,214.649Z" transform="translate(-244.185 -206.684)" fill="#ff5e54"/>
      <path id="Path_535" data-name="Path 535" d="M252.039,222.5h-.012a7.955,7.955,0,0,1,.017-15.91h.011A7.967,7.967,0,0,1,260,214.554h0A7.966,7.966,0,0,1,252.039,222.5Zm0-15.1a7.147,7.147,0,0,0-.015,14.295h.01a7.147,7.147,0,0,0,.015-14.295Zm7.548,7.157h0Z" transform="translate(-244.089 -206.588)" fill="#070707"/>
    </g>
    <g id="Group_208" data-name="Group 208" transform="translate(159.984 178.811)">
      <path id="Path_536" data-name="Path 536" d="M198.823,207.867a8.3,8.3,0,1,1-8.282-8.31,8.3,8.3,0,0,1,8.282,8.31Z" transform="translate(-181.827 -199.153)" fill="#a4d1fc"/>
      <path id="Path_537" data-name="Path 537" d="M190.434,216.459h-.018a8.7,8.7,0,0,1,.015-17.4h.015a8.711,8.711,0,0,1,8.685,8.715h0A8.711,8.711,0,0,1,190.434,216.459Zm0-16.594a7.893,7.893,0,0,0-.014,15.786h.016a7.893,7.893,0,0,0,.01-15.786Zm8.3,7.906h0Z" transform="translate(-181.731 -199.057)" fill="#070707"/>
    </g>
    <g id="Group_209" data-name="Group 209" transform="translate(156.102 140.669)">
      <path id="Path_538" data-name="Path 538" d="M192.525,159.909a7.55,7.55,0,1,1-7.539-7.561A7.554,7.554,0,0,1,192.525,159.909Z" transform="translate(-177.022 -151.944)" fill="#a4d1fc"/>
      <path id="Path_539" data-name="Path 539" d="M184.875,167.758h-.011a7.955,7.955,0,0,1,.015-15.91h.012a7.965,7.965,0,0,1,7.942,7.966h0A7.968,7.968,0,0,1,184.875,167.758Zm0-15.1a7.147,7.147,0,0,0-.014,14.295h.01a7.147,7.147,0,0,0,.015-14.295Zm7.55,7.157h0Z" transform="translate(-176.926 -151.848)" fill="#070707"/>
    </g>
    <g id="Group_210" data-name="Group 210" transform="translate(222.141 151.904)">
      <path id="Path_540" data-name="Path 540" d="M274.266,173.815a7.55,7.55,0,1,1-7.539-7.561A7.554,7.554,0,0,1,274.266,173.815Z" transform="translate(-258.762 -165.85)" fill="#a4d1fc"/>
      <path id="Path_541" data-name="Path 541" d="M266.616,181.664H266.6a7.955,7.955,0,0,1,.017-15.91h.011a7.967,7.967,0,0,1,7.941,7.966h0A7.965,7.965,0,0,1,266.616,181.664Zm0-15.1a7.147,7.147,0,0,0-.015,14.295h.01a7.147,7.147,0,0,0,.015-14.295Zm7.548,7.157h0Z" transform="translate(-258.666 -165.754)" fill="#070707"/>
    </g>
    <g id="Group_211" data-name="Group 211" transform="translate(211.544 129.004)">
      <path id="Path_542" data-name="Path 542" d="M261.149,145.472a7.55,7.55,0,1,1-7.539-7.562A7.555,7.555,0,0,1,261.149,145.472Z" transform="translate(-245.645 -137.506)" fill="#a4d1fc"/>
      <path id="Path_543" data-name="Path 543" d="M253.5,153.321h-.012a7.956,7.956,0,0,1,.016-15.911h.012a7.966,7.966,0,0,1,7.941,7.967h0A7.967,7.967,0,0,1,253.5,153.321Zm0-15.1a7.148,7.148,0,0,0-.015,14.3h.01a7.148,7.148,0,0,0,.015-14.3Z" transform="translate(-245.549 -137.41)" fill="#070707"/>
    </g>
    <path id="Path_544" data-name="Path 544" d="M243.176,205.579a.406.406,0,0,1-.291-.123l-17.863-18.421a.4.4,0,0,1,.58-.562l17.864,18.421a.4.4,0,0,1-.29.685Z" transform="translate(-30.041 -17.806)"/>
    <path id="Path_545" data-name="Path 545" d="M218.685,182.929a.407.407,0,0,1-.217-.064l-27.874-17.788a.4.4,0,1,1,.435-.68L218.9,182.184a.4.4,0,0,1-.217.745Z" transform="translate(-23.414 -13.577)"/>
    <path id="Path_546" data-name="Path 546" d="M201.05,201.258a.4.4,0,0,1-.237-.732l19.6-14.1a.4.4,0,1,1,.472.655l-19.6,14.1A.4.4,0,0,1,201.05,201.258Z" transform="translate(-25.38 -17.806)"/>
    <path id="Path_547" data-name="Path 547" d="M225.312,181.4a.4.4,0,0,1-.322-.649l19.355-25.472a.4.4,0,0,1,.644.489l-19.356,25.473A.4.4,0,0,1,225.312,181.4Z" transform="translate(-30.041 -11.807)"/>
    <path id="Path_548" data-name="Path 548" d="M225.312,185.55a.4.4,0,0,1-.1-.8l27.222-6.764a.4.4,0,1,1,.195.784l-27.222,6.765A.41.41,0,0,1,225.312,185.55Z" transform="translate(-30.041 -16.197)"/>
    <g id="Group_212" data-name="Group 212" transform="translate(178.276 152.082)">
      <path id="Path_549" data-name="Path 549" d="M235.934,182.031a15.531,15.531,0,1,1-15.5-15.557,15.532,15.532,0,0,1,15.5,15.557Z" transform="translate(-204.468 -166.07)" fill="#ffd70a"/>
      <path id="Path_550" data-name="Path 550" d="M220.312,197.847h-.033a15.936,15.936,0,0,1,.032-31.873h.023a15.956,15.956,0,0,1,15.908,15.961h0A15.957,15.957,0,0,1,220.312,197.847Zm0-31.065a15.128,15.128,0,0,0-.031,30.257h.031a15.128,15.128,0,0,0,.021-30.257Z" transform="translate(-204.372 -165.974)" fill="#070707"/>
    </g>
    <g id="Group_215" data-name="Group 215" transform="translate(84.328 233.079)">
      <g id="Group_213" data-name="Group 213" transform="translate(0 1.197)">
        <path id="Path_551" data-name="Path 551" d="M99.612,270.082v-1.873H88.59v1.947h.015c.076.684,2.508,1.235,5.5,1.235,3.043,0,5.511-.567,5.511-1.268,0-.015-.008-.028-.009-.042Z" transform="translate(-88.185 -267.805)" fill="#fff"/>
        <path id="Path_552" data-name="Path 552" d="M94.014,271.7c-.567,0-5.411-.042-5.874-1.451a.385.385,0,0,1-.05-.188v-1.947a.4.4,0,0,1,.4-.4H99.515a.4.4,0,0,1,.4.4v1.83a.5.5,0,0,1,.01.085C99.928,271.652,94.619,271.7,94.014,271.7ZM88.9,269.949a.316.316,0,0,1,.014.068c.158.3,2.005.875,5.1.875,3.027,0,4.861-.549,5.1-.875l0-.031v-1.469H88.9Zm10.618.037h0Z" transform="translate(-88.089 -267.709)" fill="#070707"/>
      </g>
      <g id="Group_214" data-name="Group 214">
        <path id="Path_553" data-name="Path 553" d="M99.612,267.994c0,.7-2.467,1.268-5.511,1.268s-5.511-.568-5.511-1.268,2.469-1.267,5.511-1.267,5.511.567,5.511,1.267Z" transform="translate(-88.185 -266.323)" fill="#fff"/>
        <path id="Path_554" data-name="Path 554" d="M94,269.569c-.605,0-5.916-.046-5.916-1.671s5.31-1.671,5.916-1.671,5.914.046,5.914,1.671S94.61,269.569,94,269.569Zm0-2.534c-3.1,0-4.949.575-5.113.9.164.253,2.013.828,5.113.828,2.993,0,4.819-.536,5.089-.863C98.824,267.571,97,267.035,94,267.035Zm5.113.9h0Z" transform="translate(-88.089 -266.227)" fill="#070707"/>
      </g>
    </g>
    <g id="Group_216" data-name="Group 216" transform="translate(233.414 134.198)">
      <path id="Path_555" data-name="Path 555" d="M290.987,150.709a2.25,2.25,0,0,0-2.157-2.26,6.459,6.459,0,0,0-12.476,2.351c0,.085,0,.169.006.251a2.245,2.245,0,0,0-3.233,2.176c.121,1.19,1.1,2.707,3.509,2.707h13.547c2.062-.06,3.71-1.224,3.71-2.653,0-1.237-1.236-2.273-2.906-2.572Z" transform="translate(-272.714 -143.934)" fill="#a4d1fc"/>
      <path id="Path_556" data-name="Path 556" d="M276.54,156.241c-2.487,0-3.756-1.542-3.91-3.069a2.669,2.669,0,0,1,1.125-2.379,2.545,2.545,0,0,1,2.106-.4,6.863,6.863,0,0,1,13.153-2.42,2.633,2.633,0,0,1,2.242,2.3c1.749.407,2.945,1.573,2.945,2.909,0,1.647-1.8,2.99-4.1,3.057Zm-1.309-5.118a1.7,1.7,0,0,0-1.005.326,1.878,1.878,0,0,0-.793,1.642c.11,1.081.988,2.343,3.106,2.343h13.547c1.818-.053,3.306-1.062,3.306-2.249,0-1.01-1.058-1.9-2.573-2.173a.4.4,0,0,1-.331-.365,1.84,1.84,0,0,0-1.769-1.89.4.4,0,0,1-.361-.256,6.055,6.055,0,0,0-11.7,2.2l.006.2a.438.438,0,0,1-.178.371.411.411,0,0,1-.392.052A2.1,2.1,0,0,0,275.231,151.123Z" transform="translate(-272.619 -143.838)" fill="#070707"/>
    </g>
    <g id="Group_218" data-name="Group 218" transform="translate(222.995 102.388)">
      <g id="Group_217" data-name="Group 217">
        <path id="Path_557" data-name="Path 557" d="M271.166,110.439a5.472,5.472,0,1,1-5.471-5.473,5.472,5.472,0,0,1,5.471,5.473Z" transform="translate(-259.819 -104.562)" fill="#a4d1fc"/>
        <path id="Path_558" data-name="Path 558" d="M265.6,116.219a5.876,5.876,0,1,1,5.876-5.876A5.883,5.883,0,0,1,265.6,116.219Zm0-10.945a5.069,5.069,0,1,0,5.068,5.069A5.074,5.074,0,0,0,265.6,105.274Z" transform="translate(-259.723 -104.466)" fill="#070707"/>
      </g>
      <path id="Path_559" data-name="Path 559" d="M265.372,111.164v-2.421l2.1,1.21,2.1,1.21-2.1,1.21-2.1,1.21Z" transform="translate(-260.808 -105.288)" fill="#fff"/>
    </g>
    <g id="Group_221" data-name="Group 221" transform="translate(284.06 168.674)">
      <g id="Group_219" data-name="Group 219">
        <path id="Path_560" data-name="Path 560" d="M347.179,192.7a5.687,5.687,0,1,1-5.689-5.689,5.688,5.688,0,0,1,5.689,5.689Z" transform="translate(-335.401 -186.606)" fill="#a4d1fc"/>
        <path id="Path_561" data-name="Path 561" d="M341.394,198.694a6.092,6.092,0,1,1,6.093-6.092A6.1,6.1,0,0,1,341.394,198.694Zm0-11.376a5.284,5.284,0,1,0,5.285,5.285A5.289,5.289,0,0,0,341.394,187.318Z" transform="translate(-335.305 -186.51)" fill="#070707"/>
      </g>
      <g id="Group_220" data-name="Group 220" transform="translate(2.25 2.061)">
        <path id="Path_562" data-name="Path 562" d="M342.048,189.311a3.726,3.726,0,0,1,3.306,5.389,1.815,1.815,0,0,1-.961.8.737.737,0,0,1-.212.022.726.726,0,0,1-.6-.285.919.919,0,0,1-.169-.507v-.36a1.8,1.8,0,0,1-1.362.633,1.988,1.988,0,0,1,0-3.972,1.925,1.925,0,0,1,1.87,1.975V194.7h.01a.483.483,0,0,0,.064.232.214.214,0,0,0,.19.074h.085a1.1,1.1,0,0,0,.612-.549,2.99,2.99,0,0,0,.348-1.448,3.185,3.185,0,1,0-3.179,3.19,2.834,2.834,0,0,0,.792-.085.223.223,0,0,1,.3.18.23.23,0,0,1-.179.306,3.607,3.607,0,0,1-.908.116,3.7,3.7,0,1,1,0-7.406Zm0,5.146a1.4,1.4,0,0,0,1.352-1.448,1.421,1.421,0,0,0-1.352-1.458,1.405,1.405,0,0,0-1.342,1.458A1.39,1.39,0,0,0,342.048,194.457Z" transform="translate(-338.138 -189.109)" fill="#fff"/>
        <path id="Path_563" data-name="Path 563" d="M342,196.871a3.869,3.869,0,1,1,3.486-2.128l-.037.051a1.87,1.87,0,0,1-1.048.854,1.024,1.024,0,0,1-1.033-.338,1.18,1.18,0,0,1-.2-.533,1.941,1.941,0,0,1-1.165.382,2.191,2.191,0,1,1,2.072-2.2v1.489h.036l-.027.234s.01.03.026.068l.113,0c.182-.048.4-.349.424-.421a2.839,2.839,0,0,0,.334-1.373A2.983,2.983,0,1,0,342,195.949a2.654,2.654,0,0,0,.738-.077.485.485,0,0,1,.394.07.382.382,0,0,1,.153.259.425.425,0,0,1-.039.339.432.432,0,0,1-.308.212A3.712,3.712,0,0,1,342,196.871Zm0-7.406a3.5,3.5,0,1,0,0,7,3.405,3.405,0,0,0,.856-.11l-.01-.028.04-.068h-.021a.115.115,0,0,0-.027,0,3.036,3.036,0,0,1-.837.09,3.387,3.387,0,1,1,3.381-3.392,3.2,3.2,0,0,1-.374,1.545,1.275,1.275,0,0,1-.743.649l-.13,0a.411.411,0,0,1-.352-.154,1.219,1.219,0,0,1-.068-.151h-.036l-.01-.2v-1.691a1.681,1.681,0,1,0-3.357,0A1.746,1.746,0,0,0,342,194.755a1.6,1.6,0,0,0,1.212-.566l.352-.4v.889a.714.714,0,0,0,.135.4.523.523,0,0,0,.435.2.573.573,0,0,0,.156-.014,1.5,1.5,0,0,0,.821-.679l.021-.03A3.525,3.525,0,0,0,342,189.465Zm0,5.146a1.582,1.582,0,0,1-1.544-1.65A1.606,1.606,0,0,1,342,191.3a1.63,1.63,0,0,1,1.554,1.659A1.606,1.606,0,0,1,342,194.611Zm0-2.905a1.2,1.2,0,0,0-1.14,1.255,1.184,1.184,0,0,0,1.14,1.246,1.2,1.2,0,0,0,1.15-1.246A1.222,1.222,0,0,0,342,191.705Z" transform="translate(-338.09 -189.061)" fill="#fff"/>
      </g>
    </g>
    <g id="Group_223" data-name="Group 223" transform="translate(226.259 173.99)">
      <g id="Group_222" data-name="Group 222">
        <path id="Path_564" data-name="Path 564" d="M277.768,193.591H264.756a.494.494,0,0,0-.494.494V203.2a.5.5,0,0,0,.494.494h6.577a.494.494,0,0,1,.462.67l-.079.208a.421.421,0,0,0,.622.5l2.025-1.3a.492.492,0,0,1,.267-.078h3.138a.5.5,0,0,0,.494-.494v-9.119a.5.5,0,0,0-.494-.494Z" transform="translate(-263.858 -193.187)" fill="#fff"/>
        <path id="Path_565" data-name="Path 565" d="M272.013,205.458a.83.83,0,0,1-.771-1.12l.081-.21a.085.085,0,0,0-.011-.082.087.087,0,0,0-.074-.039H264.66a.9.9,0,0,1-.9-.9v-9.119a.9.9,0,0,1,.9-.9h13.011a.9.9,0,0,1,.9.9v9.119a.9.9,0,0,1-.9.9h-3.136l-2.075,1.316A.821.821,0,0,1,272.013,205.458ZM264.66,193.9a.09.09,0,0,0-.09.09v9.119a.091.091,0,0,0,.09.09h6.577a.9.9,0,0,1,.841,1.216l-.081.21,2.051-1.283a.89.89,0,0,1,.486-.143h3.136a.092.092,0,0,0,.091-.09v-9.119a.091.091,0,0,0-.091-.09Z" transform="translate(-263.762 -193.091)" fill="#070707"/>
      </g>
      <path id="Path_566" data-name="Path 566" d="M275.941,197.919h-7.519a.4.4,0,0,1,0-.808h7.519a.4.4,0,0,1,0,.808Z" transform="translate(-264.579 -193.863)"/>
      <path id="Path_567" data-name="Path 567" d="M275.941,200.194h-7.519a.4.4,0,0,1,0-.808h7.519a.4.4,0,0,1,0,.808Z" transform="translate(-264.579 -194.3)"/>
      <path id="Path_568" data-name="Path 568" d="M272.664,202.469h-4.242a.4.4,0,0,1,0-.808h4.242a.4.4,0,1,1,0,.808Z" transform="translate(-264.579 -194.737)"/>
    </g>
    <g id="Group_226" data-name="Group 226" transform="translate(236.215 93.648)">
      <g id="Group_224" data-name="Group 224">
        <path id="Path_569" data-name="Path 569" d="M291.537,101.638a7.476,7.476,0,1,1-7.464-7.489,7.475,7.475,0,0,1,7.464,7.489Z" transform="translate(-276.181 -93.744)" fill="#50bceb"/>
        <path id="Path_570" data-name="Path 570" d="M283.97,109.413h-.018a7.883,7.883,0,0,1,.016-15.765h.01a7.883,7.883,0,0,1-.009,15.765Zm0-14.957a7.075,7.075,0,0,0-.015,14.149h.015a7.071,7.071,0,0,0,7.069-7.063h0a7.074,7.074,0,0,0-7.061-7.086Z" transform="translate(-276.085 -93.648)" fill="#070707"/>
      </g>
      <g id="Group_225" data-name="Group 225" transform="translate(3.146 3.077)">
        <path id="Path_571" data-name="Path 571" d="M285.835,108.031c-3.056-.818-6.722-6.816-5.672-9.559a2.181,2.181,0,0,1,1.819-1.008c.761.146,1.517,1.913,1.156,2.44-.419.683-1.165.591-.986,1.4a10.018,10.018,0,0,0,2.465,3.82c.515.337.591.134.936-.057.688-.5,1.334-.291,1.9.488.529.73,1.027,1.239-.205,2.123C286.349,108.321,285.835,108.031,285.835,108.031Z" transform="translate(-279.979 -97.457)" fill="#fff"/>
        <path id="Path_572" data-name="Path 572" d="M287.663,104.33a.378.378,0,0,1-.1-.012.4.4,0,0,1-.294-.49,2.637,2.637,0,0,0-.534-1.887,1.87,1.87,0,0,0-1.073-.871.4.4,0,1,1,.1-.8,2.57,2.57,0,0,1,1.639,1.217,3.422,3.422,0,0,1,.651,2.54A.4.4,0,0,1,287.663,104.33Z" transform="translate(-281.003 -97.997)" fill="#fff"/>
        <path id="Path_573" data-name="Path 573" d="M289.551,104.8a.411.411,0,0,1-.141-.025.4.4,0,0,1-.238-.52,4.62,4.62,0,0,0-.776-3.982,3.563,3.563,0,0,0-2.626-1.777.4.4,0,0,1-.4-.412.385.385,0,0,1,.412-.4,4.347,4.347,0,0,1,3.278,2.131,5.371,5.371,0,0,1,.866,4.72A.406.406,0,0,1,289.551,104.8Z" transform="translate(-281.015 -97.501)" fill="#fff"/>
      </g>
    </g>
    <path id="Path_574" data-name="Path 574" d="M185.483,276.434H175.307a.4.4,0,0,1,0-.808h10.176a.4.4,0,0,1,0,.808Z" transform="translate(-20.436 -34.953)"/>
    <g id="Group_227" data-name="Group 227" transform="translate(184.356 161.971)">
      <path id="Path_575" data-name="Path 575" d="M224.465,178.736l-12.068-.022Z" transform="translate(-211.993 -178.31)" fill="#50bceb"/>
      <path id="Path_576" data-name="Path 576" d="M224.369,179.044h0l-12.068-.022a.4.4,0,0,1,0-.808h0l12.068.022a.4.4,0,0,1,0,.808Z" transform="translate(-211.897 -178.214)"/>
    </g>
    <path id="Path_577" data-name="Path 577" d="M223.639,182.058a.4.4,0,0,1-.285-.69l3.591-3.585-3.585-3.593a.4.4,0,0,1,.572-.57l3.87,3.879a.4.4,0,0,1,0,.571l-3.878,3.87A.4.4,0,0,1,223.639,182.058Z" transform="translate(-29.719 -15.338)"/>
    <g id="Group_228" data-name="Group 228" transform="translate(189.805 167.751)">
      <path id="Path_578" data-name="Path 578" d="M231.21,185.89l-12.068-.022Z" transform="translate(-218.738 -185.464)" fill="#50bceb"/>
      <path id="Path_579" data-name="Path 579" d="M231.114,186.2h0l-12.068-.022a.4.4,0,0,1,0-.808h0l12.068.022a.4.4,0,0,1,0,.808Z" transform="translate(-218.642 -185.368)"/>
    </g>
    <path id="Path_580" data-name="Path 580" d="M230.383,189.212a.4.4,0,0,1-.285-.69l3.592-3.584-3.584-3.594a.4.4,0,1,1,.571-.57l3.87,3.88a.4.4,0,0,1,0,.571l-3.878,3.869A.406.406,0,0,1,230.383,189.212Z" transform="translate(-31.015 -16.712)"/>
    <g id="Group_229" data-name="Group 229" transform="translate(184.255 173.27)">
      <path id="Path_581" data-name="Path 581" d="M224.342,192.72l-12.069-.021Z" transform="translate(-211.869 -192.295)" fill="#50bceb"/>
      <path id="Path_582" data-name="Path 582" d="M224.246,193.028h0l-12.069-.021a.4.4,0,0,1,0-.808h0l12.069.021a.4.4,0,0,1,0,.808Z" transform="translate(-211.773 -192.199)"/>
    </g>
    <path id="Path_583" data-name="Path 583" d="M223.515,196.042a.4.4,0,0,1-.285-.69l3.592-3.584-3.585-3.594a.4.4,0,0,1,.572-.57l3.87,3.88a.4.4,0,0,1,0,.571l-3.879,3.869A.4.4,0,0,1,223.515,196.042Z" transform="translate(-29.695 -18.024)"/>
    <path id="Path_584" data-name="Path 584" d="M182.136,392.853h-.006a3.8,3.8,0,0,1,.007-7.607h.006a3.8,3.8,0,0,1-.007,7.607Zm0-6.8a3,3,0,0,0-.006,5.992h0a3,3,0,0,0,.006-5.992Z" transform="translate(-21.094 -56.009)"/>
    <path id="Path_585" data-name="Path 585" d="M182.136,342.349h-.006a3.8,3.8,0,0,1,.007-7.607h.006a3.8,3.8,0,0,1-.007,7.607Zm0-6.8a3,3,0,0,0-.006,5.992h0a3,3,0,0,0,.006-5.992Z" transform="translate(-21.094 -46.308)"/>
    <path id="Path_586" data-name="Path 586" d="M101.678,282.615h-.006a3.8,3.8,0,0,1,.009-7.607h0a3.8,3.8,0,0,1-.007,7.607Zm0-6.8a3,3,0,0,0-.007,5.992h0a3,3,0,0,0,.006-5.992Z" transform="translate(-5.64 -34.835)"/>
    <path id="Path_587" data-name="Path 587" d="M120.138,291.672h-.006a3.8,3.8,0,0,1,.007-7.607h.006a3.8,3.8,0,0,1-.007,7.607Zm0-6.8a3,3,0,0,0-.006,5.992h0a3,3,0,0,0,.006-5.992Z" transform="translate(-9.186 -36.574)"/>
    <path id="Path_588" data-name="Path 588" d="M131.633,182.3h-.007a3.8,3.8,0,0,1,.008-7.607h.006a3.8,3.8,0,0,1-.006,7.607Zm0-6.8a3,3,0,0,0-.006,5.992h.006a3,3,0,0,0,0-5.992Z" transform="translate(-11.394 -15.567)"/>
    <path id="Path_589" data-name="Path 589" d="M162.98,171.507h-.007a3.8,3.8,0,0,1,.008-7.607h.006a3.8,3.8,0,0,1-.007,7.607Zm0-6.8a3,3,0,0,0-.006,5.992h.006a3,3,0,0,0,.006-5.992Z" transform="translate(-17.415 -13.494)"/>
    <path id="Path_590" data-name="Path 590" d="M231.769,132.064h-.006a3.8,3.8,0,0,1,.008-7.607h.006a3.8,3.8,0,0,1-.008,7.607Zm0-6.8a3,3,0,0,0-.006,5.992h0a3,3,0,0,0,.006-5.992Z" transform="translate(-30.628 -5.918)"/>
    <path id="Path_591" data-name="Path 591" d="M299.862,119.784h-.006a3.8,3.8,0,0,1,.008-7.607h.006a3.8,3.8,0,0,1-.007,7.607Zm0-6.8a3,3,0,0,0-.006,5.992h0a3,3,0,0,0,.006-5.992Z" transform="translate(-43.707 -3.559)"/>
    <path id="Path_592" data-name="Path 592" d="M343.051,181.174h-.006a3.8,3.8,0,0,1,.008-7.607h.006a3.8,3.8,0,0,1-.008,7.607Zm0-6.8a3,3,0,0,0-.006,5.992h0a3,3,0,0,0,.006-5.992Z" transform="translate(-52.002 -15.35)"/>
    <path id="Path_593" data-name="Path 593" d="M297.511,209.124H297.5a3.8,3.8,0,0,1,.007-7.607h.007a3.8,3.8,0,0,1-.007,7.607Zm0-6.8a3,3,0,1,0,2.118.883,3,3,0,0,0-2.118-.883Z" transform="translate(-43.255 -20.719)"/>
    <path id="Path_594" data-name="Path 594" d="M347.231,209.994h-.006a3.8,3.8,0,0,1,.008-7.607h.006a3.8,3.8,0,0,1-.007,7.607Zm0-6.8a3,3,0,0,0-.006,5.992h0a3,3,0,0,0,.006-5.992Z" transform="translate(-52.805 -20.886)"/>
    <path id="Path_595" data-name="Path 595" d="M172.471,317.4h-.006a3.8,3.8,0,0,1,.006-7.607h.007a3.8,3.8,0,0,1-.007,7.607Zm0-6.8a3,3,0,0,0,0,5.992h0a3,3,0,0,0,.006-5.992Z" transform="translate(-19.238 -41.516)"/>
    <path id="Path_596" data-name="Path 596" d="M206.43,268.292h-.006a3.8,3.8,0,0,1,.007-7.607h.006a3.8,3.8,0,0,1-.007,7.607Zm0-6.8a3,3,0,0,0-.006,5.992h0a3,3,0,0,0,.006-5.992Z" transform="translate(-25.761 -32.084)"/>
    <g id="Group_230" data-name="Group 230" transform="translate(265.613 115.794)">
      <path id="Path_597" data-name="Path 597" d="M315.365,126.353h0a2.4,2.4,0,1,1,2.4-2.393A2.4,2.4,0,0,1,315.365,126.353Z" transform="translate(-312.568 -121.155)" fill="#a4d1fc"/>
      <path id="Path_598" data-name="Path 598" d="M315.273,126.661h0a2.8,2.8,0,0,1,0-5.6h.006a2.8,2.8,0,0,1-.006,5.6Zm0-4.794a1.993,1.993,0,0,0,0,3.986h0a1.993,1.993,0,0,0,.006-3.986Z" transform="translate(-312.472 -121.059)" fill="#070707"/>
    </g>
    <g id="Group_231" data-name="Group 231" transform="translate(278.487 135)">
      <path id="Path_599" data-name="Path 599" d="M332.3,152.13h0a3.4,3.4,0,1,1,3.406-3.394A3.409,3.409,0,0,1,332.3,152.13Z" transform="translate(-328.503 -144.927)" fill="#a4d1fc"/>
      <path id="Path_600" data-name="Path 600" d="M332.211,152.438H332.2a3.8,3.8,0,0,1,.008-7.607h.006a3.8,3.8,0,0,1-.007,7.607Zm0-6.8a3,3,0,0,0-.006,5.991h.006a3,3,0,0,0,.006-5.991Z" transform="translate(-328.407 -144.831)" fill="#070707"/>
    </g>
    <g id="Group_232" data-name="Group 232" transform="translate(205.358 112.839)">
      <path id="Path_601" data-name="Path 601" d="M240.785,122.7h0a2.4,2.4,0,1,1,2.4-2.393A2.4,2.4,0,0,1,240.785,122.7Z" transform="translate(-237.988 -117.498)" fill="#a4d1fc"/>
      <path id="Path_602" data-name="Path 602" d="M240.693,123h-.006a2.8,2.8,0,0,1,0-5.6h.006a2.8,2.8,0,0,1,0,5.6Zm0-4.794a1.993,1.993,0,0,0,0,3.986h0a1.993,1.993,0,0,0,0-3.986Z" transform="translate(-237.892 -117.402)" fill="#070707"/>
    </g>
    <g id="Group_233" data-name="Group 233" transform="translate(152.173 321.147)">
      <path id="Path_603" data-name="Path 603" d="M174.956,380.526h0a2.4,2.4,0,1,1,2.4-2.393A2.4,2.4,0,0,1,174.956,380.526Z" transform="translate(-172.159 -375.328)" fill="#a4d1fc"/>
      <path id="Path_604" data-name="Path 604" d="M174.864,380.834h0a2.8,2.8,0,0,1,0-5.6h.006a2.8,2.8,0,0,1-.006,5.6Zm0-4.794a1.993,1.993,0,0,0,0,3.986h0a1.993,1.993,0,0,0,0-3.986Z" transform="translate(-172.063 -375.232)" fill="#070707"/>
    </g>
    <g id="Group_234" data-name="Group 234" transform="translate(136.344 272.605)">
      <path id="Path_605" data-name="Path 605" d="M155.364,320.444h0a2.4,2.4,0,1,1,2.4-2.393A2.4,2.4,0,0,1,155.364,320.444Z" transform="translate(-152.567 -315.246)" fill="#a4d1fc"/>
      <path id="Path_606" data-name="Path 606" d="M155.272,320.752h0a2.8,2.8,0,0,1,0-5.6h.006a2.8,2.8,0,0,1-.006,5.6Zm0-4.794a1.993,1.993,0,0,0,0,3.986h0a1.993,1.993,0,0,0,0-3.986Z" transform="translate(-152.471 -315.15)" fill="#070707"/>
    </g>
    <g id="Group_235" data-name="Group 235" transform="translate(77.038 229.34)">
      <path id="Path_607" data-name="Path 607" d="M81.959,266.893h0a2.4,2.4,0,1,1,2.4-2.393A2.4,2.4,0,0,1,81.959,266.893Z" transform="translate(-79.162 -261.695)" fill="#ff5e54"/>
      <path id="Path_608" data-name="Path 608" d="M81.868,267.2h-.006a2.8,2.8,0,0,1,.006-5.6h0a2.8,2.8,0,0,1,0,5.6Zm0-4.794a1.993,1.993,0,0,0,0,3.986h0a1.993,1.993,0,0,0,0-3.986Z" transform="translate(-79.066 -261.599)" fill="#070707"/>
    </g>
    <g id="Group_236" data-name="Group 236" transform="translate(75.877 194.622)">
      <path id="Path_609" data-name="Path 609" d="M80.522,223.921h0a2.4,2.4,0,1,1,2.4-2.393A2.4,2.4,0,0,1,80.522,223.921Z" transform="translate(-77.725 -218.723)" fill="#a4d1fc"/>
      <path id="Path_610" data-name="Path 610" d="M80.431,224.229h-.006a2.8,2.8,0,0,1,.006-5.6h0a2.8,2.8,0,0,1,0,5.6Zm0-4.794a1.993,1.993,0,0,0,0,3.986h0a1.993,1.993,0,0,0,0-3.986Z" transform="translate(-77.629 -218.627)" fill="#070707"/>
    </g>
    <g id="Group_237" data-name="Group 237" transform="translate(87.802 169.717)">
      <path id="Path_611" data-name="Path 611" d="M95.282,193.1h0a2.4,2.4,0,1,1,2.4-2.393A2.4,2.4,0,0,1,95.282,193.1Z" transform="translate(-92.485 -187.898)" fill="#a4d1fc"/>
      <path id="Path_612" data-name="Path 612" d="M95.19,193.4h0a2.8,2.8,0,0,1,.006-5.6h0a2.8,2.8,0,0,1,0,5.6Zm0-4.794a1.993,1.993,0,0,0,0,3.986h0a1.993,1.993,0,0,0,0-3.986Z" transform="translate(-92.389 -187.802)" fill="#070707"/>
    </g>
    <g id="Group_238" data-name="Group 238" transform="translate(170.429 133.839)">
      <path id="Path_613" data-name="Path 613" d="M197.552,148.688h0a2.4,2.4,0,1,1,2.4-2.393A2.4,2.4,0,0,1,197.552,148.688Z" transform="translate(-194.755 -143.49)" fill="#ff5e54"/>
      <path id="Path_614" data-name="Path 614" d="M197.459,149h0a2.8,2.8,0,0,1,.006-5.6h0a2.8,2.8,0,0,1-.006,5.6Zm0-.808h0a1.993,1.993,0,0,0,.006-3.986h0a1.993,1.993,0,0,0,0,3.986Z" transform="translate(-194.659 -143.394)" fill="#070707"/>
    </g>
  </g>
</svg>
