<svg width="44" height="44" viewBox="0 0 44 44" fill="none" xmlns="http://www.w3.org/2000/svg">
<path d="M23.8751 38.6666H20.1251C19.405 38.6673 18.7069 38.4187 18.1493 37.963C17.5918 37.5072 17.2093 36.8725 17.0668 36.1666C15.2892 35.537 13.6445 34.5818 12.2168 33.3499C11.6302 33.5479 10.9982 33.5682 10.4001 33.4083C10.0025 33.3033 9.62978 33.1204 9.30358 32.87C8.97739 32.6196 8.70427 32.3069 8.50012 31.9499L6.63345 28.7166C6.27181 28.09 6.13813 27.3576 6.25509 26.6437C6.37206 25.9298 6.73245 25.2783 7.27512 24.7999C6.90844 22.9513 6.90844 21.0486 7.27512 19.1999C6.73245 18.7215 6.37206 18.0701 6.25509 17.3561C6.13813 16.6422 6.27181 15.9098 6.63345 15.2833L8.50012 12.0499C8.70427 11.693 8.97739 11.3802 9.30358 11.1298C9.62978 10.8795 10.0025 10.6965 10.4001 10.5916C10.9977 10.427 11.631 10.4473 12.2168 10.6499C13.642 9.41445 15.2874 8.45886 17.0668 7.83325C17.2093 7.12738 17.5918 6.49263 18.1493 6.03687C18.7069 5.58112 19.405 5.3325 20.1251 5.33325H23.8751C24.5952 5.3325 25.2934 5.58112 25.8509 6.03687C26.4085 6.49263 26.791 7.12738 26.9334 7.83325C28.711 8.46281 30.3557 9.418 31.7835 10.6499C32.37 10.4519 33.002 10.4316 33.6001 10.5916C33.9977 10.6965 34.3704 10.8795 34.6966 11.1298C35.0228 11.3802 35.296 11.693 35.5001 12.0499L37.3668 15.2833C37.7284 15.9098 37.8621 16.6422 37.7451 17.3561C37.6282 18.0701 37.2678 18.7215 36.7251 19.1999C37.0918 21.0486 37.0918 22.9513 36.7251 24.7999C37.2678 25.2783 37.6282 25.9298 37.7451 26.6437C37.8621 27.3576 37.7284 28.09 37.3668 28.7166L35.5001 31.9499C35.296 32.3069 35.0228 32.6196 34.6966 32.87C34.3704 33.1204 33.9977 33.3033 33.6001 33.4083C33.0026 33.5728 32.3692 33.5525 31.7835 33.3499C30.3583 34.5854 28.7128 35.541 26.9334 36.1666C26.791 36.8725 26.4085 37.5072 25.8509 37.963C25.2934 38.4187 24.5952 38.6673 23.8751 38.6666ZM12.3751 31.5416C12.5845 31.54 12.7868 31.6174 12.9418 31.7583C14.4055 33.1277 16.1606 34.1477 18.0751 34.7416C18.2523 34.7951 18.4066 34.906 18.5137 35.0569C18.6208 35.2078 18.6747 35.39 18.6668 35.5749C18.6776 35.9552 18.8357 36.3164 19.1078 36.5823C19.3799 36.8482 19.7447 36.9979 20.1251 36.9999H23.8751C24.2612 36.9977 24.6309 36.8434 24.9039 36.5704C25.1769 36.2973 25.3313 35.9277 25.3334 35.5416C25.3255 35.3567 25.3794 35.1745 25.4865 35.0236C25.5937 34.8727 25.748 34.7617 25.9251 34.7083C27.8396 34.1144 29.5947 33.0944 31.0584 31.7249C31.1944 31.5971 31.3693 31.5186 31.5551 31.502C31.741 31.4853 31.927 31.5316 32.0834 31.6333C32.2464 31.7256 32.426 31.7849 32.6118 31.8078C32.7977 31.8306 32.9863 31.8166 33.1668 31.7666C33.353 31.7169 33.5276 31.6309 33.6806 31.5137C33.8336 31.3964 33.962 31.2502 34.0584 31.0833L35.9251 27.8499C36.1163 27.511 36.1666 27.1106 36.0653 26.7349C35.964 26.3592 35.7191 26.0384 35.3834 25.8416C35.2313 25.7523 35.1114 25.6171 35.0411 25.4554C34.9707 25.2936 34.9534 25.1137 34.9918 24.9416C35.4473 22.9844 35.4473 20.9488 34.9918 18.9916C34.9534 18.8194 34.9707 18.6395 35.0411 18.4778C35.1114 18.3161 35.2313 18.1808 35.3834 18.0916C35.7191 17.8948 35.964 17.574 36.0653 17.1983C36.1666 16.8226 36.1163 16.4222 35.9251 16.0833L34.0584 12.8499C33.9619 12.6828 33.8332 12.5363 33.6799 12.419C33.5266 12.3017 33.3516 12.2158 33.165 12.1662C32.9784 12.1167 32.7839 12.1045 32.5926 12.1303C32.4013 12.1561 32.2169 12.2194 32.0501 12.3166C31.8953 12.4079 31.715 12.4467 31.5363 12.4272C31.3576 12.4077 31.1899 12.3309 31.0584 12.2083C29.5947 10.8388 27.8396 9.81879 25.9251 9.22492C25.748 9.17142 25.5937 9.06049 25.4865 8.9096C25.3794 8.75872 25.3255 8.57647 25.3334 8.39159C25.3143 8.01718 25.1525 7.66433 24.8813 7.40551C24.61 7.1467 24.25 7.00156 23.8751 6.99992H20.1251C19.739 7.00211 19.3694 7.15646 19.0963 7.42947C18.8233 7.70249 18.669 8.07215 18.6668 8.45825C18.6747 8.64313 18.6208 8.82538 18.5137 8.97627C18.4066 9.12715 18.2523 9.23809 18.0751 9.29159C16.1606 9.88545 14.4055 10.9054 12.9418 12.2749C12.8059 12.4027 12.631 12.4813 12.4451 12.4979C12.2593 12.5145 12.0732 12.4683 11.9168 12.3666C11.7538 12.2743 11.5743 12.215 11.3884 12.1921C11.2025 12.1692 11.0139 12.1832 10.8334 12.2333C10.6472 12.283 10.4726 12.3689 10.3196 12.4862C10.1666 12.6034 10.0382 12.7497 9.94178 12.9166L8.07512 16.1166C7.88395 16.4555 7.83361 16.8559 7.93493 17.2316C8.03625 17.6073 8.28113 17.9281 8.61678 18.1249C8.76891 18.2142 8.8888 18.3494 8.95918 18.5111C9.02956 18.6729 9.04681 18.8528 9.00845 19.0249C8.55297 20.9821 8.55297 23.0177 9.00845 24.9749C9.04681 25.1471 9.02956 25.327 8.95918 25.4887C8.8888 25.6504 8.76891 25.7857 8.61678 25.8749C8.28113 26.0717 8.03625 26.3926 7.93493 26.7682C7.83361 27.1439 7.88395 27.5444 8.07512 27.8833L9.94178 31.1166C10.0384 31.2837 10.167 31.4302 10.3203 31.5475C10.4737 31.6648 10.6486 31.7507 10.8352 31.8003C11.0218 31.8498 11.2163 31.862 11.4076 31.8362C11.599 31.8104 11.7833 31.7471 11.9501 31.6499C12.0796 31.5765 12.2263 31.5391 12.3751 31.5416Z" fill="white"/>
<path d="M10.3333 32.8334C10.2236 32.834 10.1149 32.813 10.0134 32.7715C9.91183 32.7301 9.81948 32.669 9.74162 32.5917C9.66351 32.5143 9.60151 32.4221 9.55921 32.3206C9.5169 32.219 9.49512 32.1101 9.49512 32.0001C9.49512 31.8901 9.5169 31.7811 9.55921 31.6796C9.60151 31.578 9.66351 31.4859 9.74162 31.4084L17.2416 23.9084C17.3191 23.8303 17.4113 23.7683 17.5128 23.726C17.6144 23.6837 17.7233 23.6619 17.8333 23.6619C17.9433 23.6619 18.0522 23.6837 18.1538 23.726C18.2553 23.7683 18.3475 23.8303 18.4249 23.9084L23.6666 29.1584L32.6583 20.1584C32.8152 20.0015 33.028 19.9133 33.2499 19.9133C33.4719 19.9133 33.6847 20.0015 33.8416 20.1584C33.9985 20.3153 34.0867 20.5282 34.0867 20.7501C34.0867 20.972 33.9985 21.1848 33.8416 21.3417L24.2583 30.9251C24.1808 31.0032 24.0886 31.0652 23.9871 31.1075C23.8855 31.1498 23.7766 31.1716 23.6666 31.1716C23.5566 31.1716 23.4477 31.1498 23.3461 31.1075C23.2446 31.0652 23.1524 31.0032 23.0749 30.9251L17.8333 25.6751L10.9249 32.5917C10.8471 32.669 10.7547 32.7301 10.6532 32.7715C10.5517 32.813 10.443 32.834 10.3333 32.8334Z" fill="white"/>
<path d="M33.6667 24.4999C33.4457 24.4999 33.2337 24.4121 33.0774 24.2558C32.9211 24.0996 32.8333 23.8876 32.8333 23.6666V21.1666H30.3333C30.1123 21.1666 29.9004 21.0788 29.7441 20.9225C29.5878 20.7662 29.5 20.5543 29.5 20.3333C29.5 20.1122 29.5878 19.9003 29.7441 19.744C29.9004 19.5877 30.1123 19.4999 30.3333 19.4999H33.6667C33.8877 19.4999 34.0996 19.5877 34.2559 19.744C34.4122 19.9003 34.5 20.1122 34.5 20.3333V23.6666C34.5 23.8876 34.4122 24.0996 34.2559 24.2558C34.0996 24.4121 33.8877 24.4999 33.6667 24.4999ZM25.3333 29.4999C25.224 29.5027 25.1156 29.4799 25.0167 29.4333C24.8645 29.3707 24.7342 29.2646 24.6423 29.1281C24.5503 28.9917 24.5008 28.8311 24.5 28.6666V13.6666C24.5 13.4456 24.5878 13.2336 24.7441 13.0773C24.9004 12.921 25.1123 12.8333 25.3333 12.8333H27.8333C28.0543 12.8333 28.2663 12.921 28.4226 13.0773C28.5789 13.2336 28.6667 13.4456 28.6667 13.6666V26.1666C28.6673 26.2763 28.6463 26.385 28.6048 26.4865C28.5633 26.588 28.5022 26.6804 28.425 26.7583L25.925 29.2583C25.8471 29.3355 25.7548 29.3966 25.6533 29.4381C25.5517 29.4795 25.443 29.5006 25.3333 29.4999ZM26.1667 14.4999V26.6583L27 25.8249V14.4999H26.1667ZM22.8333 30.3333C22.7237 30.3339 22.6149 30.3129 22.5134 30.2714C22.4119 30.2299 22.3195 30.1688 22.2417 30.0916L19.7417 27.5916C19.6644 27.5137 19.6033 27.4214 19.5619 27.3198C19.5204 27.2183 19.4994 27.1096 19.5 26.9999V15.3333C19.5 15.1122 19.5878 14.9003 19.7441 14.744C19.9004 14.5877 20.1123 14.4999 20.3333 14.4999H22.8333C23.0543 14.4999 23.2663 14.5877 23.4226 14.744C23.5789 14.9003 23.6667 15.1122 23.6667 15.3333V29.4999C23.6658 29.6644 23.6163 29.825 23.5244 29.9615C23.4325 30.0979 23.3022 30.2041 23.15 30.2666C23.0511 30.3132 22.9426 30.3361 22.8333 30.3333ZM21.1667 26.6583L22 27.4916V16.1666H21.1667V26.6583ZM15.3333 27.8333C15.224 27.8361 15.1156 27.8132 15.0167 27.7666C14.8645 27.7041 14.7342 27.5979 14.6423 27.4615C14.5503 27.325 14.5008 27.1644 14.5 26.9999V17.8333C14.5 17.6122 14.5878 17.4003 14.7441 17.244C14.9004 17.0877 15.1123 16.9999 15.3333 16.9999H17.8333C18.0543 16.9999 18.2663 17.0877 18.4226 17.244C18.5789 17.4003 18.6667 17.6122 18.6667 17.8333V24.4999C18.6673 24.6096 18.6463 24.7183 18.6048 24.8198C18.5633 24.9214 18.5022 25.0137 18.425 25.0916L15.925 27.5916C15.8471 27.6688 15.7548 27.7299 15.6533 27.7714C15.5517 27.8129 15.443 27.8339 15.3333 27.8333ZM16.1667 18.6666V24.9916L17 24.1583V18.6666H16.1667Z" fill="white"/>
<path d="M18.6668 33.6667C19.1271 33.6667 19.5002 33.2936 19.5002 32.8333C19.5002 32.3731 19.1271 32 18.6668 32C18.2066 32 17.8335 32.3731 17.8335 32.8333C17.8335 33.2936 18.2066 33.6667 18.6668 33.6667Z" fill="white"/>
<path d="M21.9998 33.6667C22.4601 33.6667 22.8332 33.2936 22.8332 32.8333C22.8332 32.3731 22.4601 32 21.9998 32C21.5396 32 21.1665 32.3731 21.1665 32.8333C21.1665 33.2936 21.5396 33.6667 21.9998 33.6667Z" fill="white"/>
<path d="M25.3333 33.6667C25.7936 33.6667 26.1667 33.2936 26.1667 32.8333C26.1667 32.3731 25.7936 32 25.3333 32C24.8731 32 24.5 32.3731 24.5 32.8333C24.5 33.2936 24.8731 33.6667 25.3333 33.6667Z" fill="white"/>
</svg>
