<svg xmlns="http://www.w3.org/2000/svg" xmlns:xlink="http://www.w3.org/1999/xlink" width="42.26" height="42.26" viewBox="0 0 42.26 42.26">
  <defs>
    <clipPath id="clip-path">
      <rect id="Rectangle_14683" data-name="Rectangle 14683" width="42.26" height="42.26" fill="#070938"/>
    </clipPath>
  </defs>
  <g id="Mask_Group_10240" data-name="Mask Group 10240" clip-path="url(#clip-path)">
    <g id="Vector_Smart_Object" data-name="Vector Smart Object" transform="translate(0.164 -0.245)">
      <path id="Path_39209" data-name="Path 39209" d="M1097.114,288.44c.338-.152.679-.291,1.024-.422.39-.148.782-.287,1.18-.408.5-.151.995-.287,1.5-.4a18.425,18.425,0,0,1,2.068-.323q-.589,1.866-1.289,3.695.029.357.037.715a14.833,14.833,0,0,1,5.816,0q.008-.358.037-.715-.7-1.827-1.289-3.695a18.45,18.45,0,0,1,2.068.323c.506.108,1.005.245,1.5.4.4.121.791.26,1.18.408.345.131.687.27,1.024.422a18.345,18.345,0,0,1,6.365,4.745,21.125,21.125,0,1,0-27.591,0,18.346,18.346,0,0,1,6.365-4.745" transform="translate(-1083.42 -255.704)" fill="#95d5e3"/>
      <path id="Path_39210" data-name="Path 39210" d="M1143.654,331.811l1.311,4.554.372.018c.242,0,.411.064.411.308,0,.405.021.861.06,1.259.327.28.725.6,1.026.9a21.16,21.16,0,0,0,3.185-2.3,18.345,18.345,0,0,0-6.365-4.745m-2.564-.045,1.54-.377c-.39-.148-.782-.287-1.18-.408-.5-.151-.995-.287-1.5-.4a18.412,18.412,0,0,0-2.068-.323q.589,1.866,1.289,3.695-.029.357-.037.715a15.04,15.04,0,0,1,3.156,1.038l-1.2-3.944" transform="translate(-1115.099 -299.074)" fill="#414242"/>
      <path id="Path_39211" data-name="Path 39211" d="M1108.554,344.583c.245.144.493.285.745.42.088-.428.229-1.02.272-1.46-.327.28-.715.733-1.016,1.04M1125.2,341.4a14.8,14.8,0,0,0-6.038-1.287,14.866,14.866,0,0,0-2.908.288,15.5,15.5,0,0,0-3.221.989l-.105.663H1125.4l-.2-.654" transform="translate(-1098.04 -304.806)" fill="#040505"/>
      <path id="Path_39212" data-name="Path 39212" d="M1105.1,340.091a11.512,11.512,0,0,0,.066-1.158.381.381,0,0,1,.407-.4l.4-.014,1.333-4.556a18.344,18.344,0,0,0-6.366,4.745,21.168,21.168,0,0,0,3.185,2.3q.452-.461.943-.882" transform="translate(-1093.611 -301.227)" fill="#414242"/>
      <path id="Path_39213" data-name="Path 39213" d="M1157.1,349.454a2.17,2.17,0,0,0,.12.523q.377-.2.745-.42-.458-.466-.953-.891l.088.788" transform="translate(-1126.226 -309.779)" fill="#040505"/>
      <path id="Path_39214" data-name="Path 39214" d="M1146.725,337.236l.2.654h2.55l-1.355-4.514q-.506-.226-1.025-.422l-1.54.377,1.172,3.905" transform="translate(-1119.562 -300.64)" fill="#9c8364"/>
      <path id="Path_39215" data-name="Path 39215" d="M1113.025,346.895l.04-.029h-.038c0,.009,0,.019,0,.029" transform="translate(-1100.641 -308.733)" fill="#baa790"/>
      <path id="Path_39216" data-name="Path 39216" d="M1154.757,346.866h-.038l.04.029c0-.01,0-.019,0-.029" transform="translate(-1124.894 -308.733)" fill="#9c8364"/>
      <path id="Path_39217" data-name="Path 39217" d="M1142.589,346.709l-8.713.01.018,4.589a20.865,20.865,0,0,0,9.059-2.059,13.633,13.633,0,0,1-.226-2.486c-.013-.01-.138-.055-.138-.055" transform="translate(-1112.77 -308.641)" fill="#9c8364"/>
      <path id="Path_39218" data-name="Path 39218" d="M1121.308,346.77s-8.761-.011-8.774,0c-.029.834-.2,1.823-.271,2.514a20.866,20.866,0,0,0,9.059,2.059l.005-4.556-.019-.015" transform="translate(-1100.198 -308.674)" fill="#baa790"/>
      <path id="Path_39219" data-name="Path 39219" d="M1133.92,345.81h0v.442h0Z" transform="translate(-1112.796 -308.119)" fill="#665142"/>
      <path id="Path_39220" data-name="Path 39220" d="M1148.865,337.965l0,.014,0-.014a4.1,4.1,0,0,1-.486-.487,4.1,4.1,0,0,0,.486.487" transform="translate(-1121.206 -303.271)" fill="#9c8364"/>
      <path id="Path_39221" data-name="Path 39221" d="M1164.971,292.5h0m.85,6.142v0" transform="translate(-1130.858 -277.107)" fill="#fff"/>
      <path id="Path_39222" data-name="Path 39222" d="M1167,307.159v0" transform="translate(-1132.041 -285.632)" fill="#adaeb0"/>
      <path id="Path_39223" data-name="Path 39223" d="M1166.88,306.013c0,.006,0,.011,0,.016l0,.01h0a2.493,2.493,0,0,1,.016.252c0,.016,0,.031,0,.046v.012c0,.017,0,.033,0,.05q0,.124-.015.248h0l0,.012c0,.006,0,.012,0,.019a2.3,2.3,0,0,1-.047.253h0l0,0v0h0l.553-.584-.557-.589h0a2.253,2.253,0,0,1,.048.258" transform="translate(-1131.94 -284.818)" fill="#555858"/>
      <path id="Path_39224" data-name="Path 39224" d="M1164.616,305.457c0-.011,0-.021.006-.032a2.474,2.474,0,0,0,.015-.248c0-.019,0-.037,0-.056s0-.035,0-.052a2.492,2.492,0,0,0-.016-.252c0-.01,0-.018-.005-.028a2.3,2.3,0,0,0-.048-.258c-.008-.029-.017-.054-.026-.082a1.662,1.662,0,0,0-.2-.437,1.287,1.287,0,0,0-.1-.133.864.864,0,0,0-.109-.1c-.014-.011-.03-.019-.045-.029a.623.623,0,0,0-.146-.072.449.449,0,0,0-.3,0,.612.612,0,0,0-.147.072c-.015.01-.03.017-.044.029a.879.879,0,0,0-.177.188c-.012.016-.023.032-.034.048a1.649,1.649,0,0,0-.2.437l-.006.02a2.255,2.255,0,0,0-.053.24c0,.025-.01.05-.013.076a2.315,2.315,0,0,0-.022.288c0,.014,0,.027,0,.04h0c0,.813.381,1.471.85,1.471a.525.525,0,0,0,.233-.058.7.7,0,0,0,.125-.08c.016-.013.031-.029.046-.043a.985.985,0,0,0,.107-.12c.023-.031.047-.062.068-.1s.026-.046.039-.07c.024-.044.046-.091.067-.139.008-.018.016-.035.022-.053a1.936,1.936,0,0,0,.068-.216,2.338,2.338,0,0,0,.047-.253Zm-.8-.532c-.176,0-.319-.247-.319-.552s.143-.552.319-.552.319.247.319.552S1164,304.926,1163.821,304.926Z" transform="translate(-1129.677 -283.594)" fill="#040505"/>
      <path id="Path_39225" data-name="Path 39225" d="M1164.6,304.061c-.176,0-.319.247-.319.552s.143.552.319.552.319-.247.319-.552-.143-.552-.319-.552" transform="translate(-1130.457 -283.833)" fill="#fff"/>
      <path id="Path_39226" data-name="Path 39226" d="M1163.173,300.723a1.642,1.642,0,0,1,.2-.437l.033-.048a.868.868,0,0,1,.177-.188c.014-.011.03-.019.044-.029a.6.6,0,0,1,.147-.071.45.45,0,0,1,.3,0,.623.623,0,0,1,.146.071c.015.01.03.018.045.029a.852.852,0,0,1,.109.1,1.327,1.327,0,0,1,.1.133,1.65,1.65,0,0,1,.2.437h0l-.752-3.48-.752,3.479h0" transform="translate(-1129.812 -279.867)" fill="#7e8181"/>
      <path id="Path_39227" data-name="Path 39227" d="M1135.606,304.335c0-.07-.006-.139-.013-.207a.007.007,0,0,1,0,0q-.012-.1-.033-.2v-.005q-.021-.1-.052-.189l0,0q-.031-.092-.07-.181l0,0a2.01,2.01,0,0,0-1.063-1.04l-.006,0a1.965,1.965,0,0,0-.356-.109H1134a1.932,1.932,0,0,0-.757,0l-.013,0a1.968,1.968,0,0,0-.35.105l-.009,0a1.974,1.974,0,0,0-.325.17,2.036,2.036,0,0,0-.288.227l0,.007-.007,0a2.039,2.039,0,0,0-.361.466l0,.006c-.03.053-.057.108-.081.164l-.008.018c-.023.052-.042.105-.06.159,0,.011-.008.021-.011.031-.016.05-.029.1-.041.154,0,.015-.008.029-.011.044-.011.051-.018.1-.025.157,0,.016-.006.032-.007.048a2.017,2.017,0,0,0,.027.6v.008a2,2,0,0,0,.109.362l0,0a2.017,2.017,0,0,0,.868.989l0,0c.054.03.109.058.165.083l.014.007c.052.023.106.043.161.061l.027.01c.05.016.1.029.154.041l.042.011c.05.011.1.018.154.025l.047.007a1.971,1.971,0,0,0,1.319-.332,2.012,2.012,0,0,0,.878-1.667s0-.009,0-.014,0-.01,0-.015Zm-1.989-.236a.755.755,0,1,1,.748-.755.752.752,0,0,1-.748.755Z" transform="translate(-1111.462 -282.84)" fill="#040505"/>
      <path id="Path_39228" data-name="Path 39228" d="M1135.345,302.916a.755.755,0,0,0,0,1.51h0a.755.755,0,0,0,0-1.51" transform="translate(-1113.189 -283.167)" fill="#fff"/>
      <path id="Path_39229" data-name="Path 39229" d="M1116.409,296.044l.007,0,0-.007,1.371-4.234v-1a11.584,11.584,0,0,0-2.352-.245c-.268,0-.534.012-.8.03l-.116.008a11.684,11.684,0,0,0-3.985,1.046,12.728,12.728,0,0,0-2.974,1.924h0q-.361.312-.7.649c-.042.042-.085.083-.127.125q-.319.325-.617.67l-.128.152q-.3.356-.578.731c-.016.021-.03.043-.045.064q-.263.363-.5.741c-.031.049-.064.1-.094.147-.131.209-.252.423-.372.638h6.245l5.766-1.439" transform="translate(-1095.623 -275.977)" fill="#adaeb0"/>
      <path id="Path_39230" data-name="Path 39230" d="M1140.3,295.908q.019-.248.031-.5.017-.335.023-.672c0-.174,0-.348,0-.522,0-.05,0-.1,0-.151q-.008-.673-.049-1.346l0,0,0,0-.5-.286-.012-.007-.129-.074h0l-.089-.051-.018-.01-.065-.036q-.431-.226-.878-.417a15.469,15.469,0,0,0-2.206-.7v1l1.359,4.24v0a2.018,2.018,0,0,1,.358.461h0c.032.056.061.114.087.173a.007.007,0,0,1,0,0,1.907,1.907,0,0,1,.07.181v0c.02.062.037.125.052.189v.005c.014.065.025.131.033.2v0q.012.1.013.207l.005.011h1.664a18.571,18.571,0,0,0,.24-1.864c0-.017,0-.034,0-.052" transform="translate(-1114.245 -276.317)" fill="#dcd5d2"/>
      <path id="Path_39231" data-name="Path 39231" d="M1150.911,298.954l0,.006,0-.006" transform="translate(-1122.678 -280.863)" fill="#fe9d2c"/>
      <path id="Path_39232" data-name="Path 39232" d="M1133.134,297.77a2.055,2.055,0,0,1,.29-.228,1.983,1.983,0,0,1,.324-.17l.009,0a1.966,1.966,0,0,1,.35-.105l.013,0a1.933,1.933,0,0,1,.757,0h.009a1.954,1.954,0,0,1,.362.111,2,2,0,0,1,.619.406l0,0-1.358-4.241-1.371,4.234" transform="translate(-1112.338 -277.711)" fill="#7e8181"/>
      <path id="Path_39233" data-name="Path 39233" d="M1124.6,305.892a2,2,0,0,1-.109-.362.049.049,0,0,1,0-.008,2.022,2.022,0,0,1-.027-.6c0-.016.005-.032.007-.048.006-.053.014-.105.024-.156,0-.015.008-.029.011-.044.012-.052.025-.1.041-.154l.011-.031c.018-.054.038-.108.06-.159l.008-.018c.025-.056.052-.111.082-.164l0-.006a2.042,2.042,0,0,1,.361-.466l-5.766,1.439h-.011l5.711,1.408a2.02,2.02,0,0,1-.405-.627l0,0" transform="translate(-1104.291 -283.61)" fill="#555858"/>
      <path id="Path_39234" data-name="Path 39234" d="M1155.966,297.187c0-.026.009-.05.013-.076a2.255,2.255,0,0,1,.054-.24c0-.009,0-.019.006-.027l.752-3.479v-1.984a3.053,3.053,0,0,0-1.958-.793,3.372,3.372,0,0,0-2.277,1.079,8.623,8.623,0,0,0-1.584,2.3c-.019.038-.039.075-.057.113q.191.167.378.339.421.391.828.8c.126.126.25.255.375.383s.264.271.394.409q.357.378.7.766.3.331.588.669h0l.064.069h1.7c0-.014,0-.026,0-.04a2.269,2.269,0,0,1,.022-.288m-5.052-3.094,0-.005,0,.006.008.007,0-.008" transform="translate(-1122.678 -275.996)" fill="#dcd5d2"/>
      <path id="Path_39235" data-name="Path 39235" d="M1099.983,288.3l.016-.038a16.214,16.214,0,0,1,.787-1.746c.046-.088.091-.176.138-.263.026-.048.056-.094.083-.142.12-.215.242-.43.372-.638.031-.05.063-.1.094-.147q.242-.378.5-.741l.045-.064q.277-.374.578-.731l.128-.152q.3-.345.617-.67c.042-.042.085-.084.127-.125q.338-.337.7-.649v0a7.793,7.793,0,0,1,11.387-4.053,6.464,6.464,0,0,1,2.673,2.752l.01.019c.016.032.034.063.05.1l0,0,0,0a12.7,12.7,0,0,1,1.532,1.124q.244.207.477.426c.052.048.1.093.155.142l0-.006,0,0c.017-.036.035-.073.052-.109.484-3.086,2.023-4.769,3.612-4.769,1.2,0,2.07.722,2.728,2.664l.007.021,0,0a7.249,7.249,0,0,1,.543.675h0l.011.014h0c.009.028.018.057.027.085h0l-.025-.1a14.832,14.832,0,0,0-28.119,9.447l0-.008a16.115,16.115,0,0,1,.678-2.313" transform="translate(-1092.23 -264.602)" fill="#414242"/>
      <path id="Path_39236" data-name="Path 39236" d="M1162.721,307.13l-.517.584h0v0a1.939,1.939,0,0,1-.071.218c-.007.018-.015.035-.022.053a1.537,1.537,0,0,1-.067.139c-.013.024-.025.048-.039.07s-.045.066-.068.1a.971.971,0,0,1-.107.12c-.015.015-.03.03-.046.043a.691.691,0,0,1-.125.08.523.523,0,0,1-.233.058c-.469,0-.85-.659-.85-1.471h-1.705q.481.561.947,1.135.447.552.883,1.113l.043.055q.413.533.819,1.072l.079.1q.431.573.857,1.15a15.055,15.055,0,0,0,.777-4.631l-.48-.018-.075.024" transform="translate(-1127.309 -285.604)" fill="#fff"/>
      <path id="Path_39237" data-name="Path 39237" d="M1118.925,287.061l.116-.008q.4-.029.8-.03a11.579,11.579,0,0,1,2.352.245h0a15.469,15.469,0,0,1,2.206.7q.447.191.878.417l.065.036.018.01.09.051h0l.129.074.012.007.462.266.02.011.014.008c-.016-.033-.034-.064-.05-.1l-.01-.019a7.76,7.76,0,0,0-2.834-3.116,7.538,7.538,0,0,0-3.937-1.131,7.649,7.649,0,0,0-7.289,5.548,12.732,12.732,0,0,1,2.974-1.925,11.684,11.684,0,0,1,3.985-1.046" transform="translate(-1100.025 -272.445)" fill="#040505"/>
      <path id="Path_39238" data-name="Path 39238" d="M1166.047,293.693h0l-.01-.014h0a7.245,7.245,0,0,0-.542-.675l0-.006q-.124-.136-.256-.264c-.032-.031-.066-.059-.1-.089-.055-.05-.108-.1-.164-.147v1.985l.752,3.48h0c.008.027.018.052.026.08l.521.59.005-.006h.545c0-.051,0-.1,0-.152h0a15.065,15.065,0,0,0-.751-4.7h0c-.009-.028-.017-.057-.027-.085" transform="translate(-1130.858 -277.107)" fill="#adaeb0"/>
      <path id="Path_39239" data-name="Path 39239" d="M1138.423,288.994a3.372,3.372,0,0,1,2.278-1.079,3.055,3.055,0,0,1,1.958.793v.006h0c.055.046.109.1.163.147.033.03.067.058.1.089q.132.128.256.264l0,.006v0h0l-.007-.021c-.658-1.943-1.72-3.2-2.918-3.2-1.59,0-2.938,2.223-3.422,5.31l.005,0a8.622,8.622,0,0,1,1.584-2.3m-2.149,18.968a4.121,4.121,0,0,1-.486-.487,4.983,4.983,0,0,1-.353-.46c-.034-.051-.069-.1-.1-.159a5.066,5.066,0,0,1-.275-.562,3.282,3.282,0,0,1-.165-.594,4.243,4.243,0,0,1-.105-.477,4.143,4.143,0,0,1-.05-.788,4.3,4.3,0,0,1,.042-.47,4.741,4.741,0,0,1,.092-.473,5.7,5.7,0,0,1,.65-1.543l.082-.186c.105-.178.129-.17.229-.341,1.414-2.409,2.176-4.23,1.8-7.035q-.061-.431-.139-.859-.049.31-.1.62a1.519,1.519,0,0,1-.067.177,12.707,12.707,0,0,1-2.971,4.709q-.29.317-.588.627-.531.555-1.073,1.1l-.46.461c-.144.143-.322.45-.535.676-.131.371-.281.79-.407,1.231l-.169-.064a19.724,19.724,0,0,1-4.51-2.465,19.866,19.866,0,0,0,3.736,3.548,7.577,7.577,0,0,0,.67.438c-.1,1.546.579,3.03,3.627,3.473a6.122,6.122,0,0,0,1.575.011c-.005-.016.03-.016.027-.024s.028-.033.028-.033" transform="translate(-1108.545 -273.322)" fill="#040505"/>
      <path id="Path_39240" data-name="Path 39240" d="M1145.716,326.763a18.679,18.679,0,0,0,10.869-1.6c.1-.047.211.077.311.028a25.867,25.867,0,0,1-6.235,4.588c-.1.048-.2.1-.3.146-.328.151-.661.283-1,.4a9.261,9.261,0,0,1-1.983.5l-.091.013-.012-.038,0-.014a4.093,4.093,0,0,1-.486-.487,4.91,4.91,0,0,1-.749-1.161,4.351,4.351,0,0,1-.235-.639,4.155,4.155,0,0,1-.156-1.265,4.33,4.33,0,0,1,.043-.47l.023-.01" transform="translate(-1119.618 -296.104)" fill="#8b1243"/>
      <path id="Path_39241" data-name="Path 39241" d="M1139.776,306.067q.542-.544,1.074-1.1.3-.311.588-.628a13.147,13.147,0,0,0,3.025-4.785c.014-.043.029-.1.043-.165l.007-.03c.014-.068.028-.145.042-.231.006-.059.189-.178.195-.234a7.337,7.337,0,0,0-.9-2.28l0,.008-.007-.007c-.051-.048-.1-.094-.155-.142q-.234-.218-.477-.426a12.739,12.739,0,0,0-1.532-1.124c.027.449.045.9.049,1.346,0,.05,0,.1,0,.151,0,.174,0,.348,0,.522q-.007.336-.024.672-.012.248-.031.5c0,.017,0,.034,0,.052a18.5,18.5,0,0,1-.241,1.863l-.2.933a29.88,29.88,0,0,1-1.919,4.752c-.181.415-.352.835-.5,1.262l-.043.121q.268-.286.545-.565l.46-.461" transform="translate(-1115.618 -278.518)" fill="#fe9d2c"/>
      <path id="Path_39242" data-name="Path 39242" d="M1119.1,335.61a13.484,13.484,0,0,1,3-.938q-.008-.358-.037-.715.7-1.827,1.288-3.695a18.432,18.432,0,0,0-2.068.323c-.506.108-1.006.245-1.5.4-.4.121-.791.26-1.18.408l1.54.377-1.239,3.928.2-.083" transform="translate(-1103.887 -299.074)" fill="#414242"/>
      <path id="Path_39243" data-name="Path 39243" d="M1153.935,305.753q-.406-.539-.82-1.072l-.043-.055q-.442-.568-.895-1.127t-.935-1.122l-.06-.071q-.391-.454-.795-.9-.246-.271-.5-.537-.2-.206-.394-.409c-.125-.128-.249-.257-.375-.383q-.407-.406-.828-.8-.186-.172-.378-.339l0,0a17.193,17.193,0,0,1,.726,2.374c.04.211.073.416.1.616.373,2.8-.517,4.636-1.93,7.045l-.312.527a5.714,5.714,0,0,0-.65,1.543,4.718,4.718,0,0,0-.092.473,18.462,18.462,0,0,0,11.2-1.58s-.836-1.241-2.094-2.947q-.422-.573-.851-1.142l-.079-.1" transform="translate(-1119.68 -280.857)" fill="#d10056"/>
      <path id="Path_39244" data-name="Path 39244" d="M1115.426,337.961l1.386-4.63-1.54-.377c-.345.131-.686.27-1.024.422l-1.373,4.584,1.533.024,1.018-.024" transform="translate(-1100.554 -300.64)" fill="#9c8364"/>
      <path id="Path_39245" data-name="Path 39245" d="M1109.1,320.928c.135.053.273.1.41.148a14.669,14.669,0,0,0,10.428-.242c.09-.037.179-.077.268-.116q.218-.093.432-.193c.127-.06.255-.12.381-.183l-.091.013a6.127,6.127,0,0,1-1.575-.011c-3.048-.443-3.724-1.927-3.627-3.473a7.579,7.579,0,0,1-.67-.438,19.867,19.867,0,0,1-3.736-3.548,19.723,19.723,0,0,0,4.51,2.465l.169.064c.126-.441.276-.86.407-1.231l.043-.121c.15-.427.322-.847.5-1.262a29.891,29.891,0,0,0,1.919-4.752l.2-.933H1117.4v0h0s0,.009,0,.014a2.01,2.01,0,0,1-1.216,1.852,1.966,1.966,0,0,1-.981.147l-.047-.007c-.052-.007-.1-.014-.154-.024l-.042-.011c-.052-.012-.1-.025-.154-.041l-.027-.01c-.054-.018-.108-.038-.16-.061l-.014-.007c-.056-.025-.111-.053-.165-.083l0,0a2.01,2.01,0,0,1-.463-.362l-5.711-1.408h-6.233c-.027.048-.056.094-.083.142-.047.087-.093.176-.138.263q-.23.438-.433.89-.189.422-.354.855l-.015.038a16.146,16.146,0,0,0-.678,2.313,14.991,14.991,0,0,0,5.386,7.451c.073.053.149.1.223.152a14.841,14.841,0,0,0,1.311.83,14.584,14.584,0,0,0,1.853.876" transform="translate(-1093.257 -285.611)" fill="#fff"/>
      <path id="Path_39246" data-name="Path 39246" d="M1129.868,346.4q-.06-.6-.062-1.2a.44.44,0,0,0-.437-.441h-18.337a.44.44,0,0,0-.437.441c0,.405-.024.806-.062,1.2a12.35,12.35,0,0,1-.2,1.3c.266.142.534.28.807.411a13.208,13.208,0,0,0,.319-2.446c0-.009,0-.019,0-.029h17.477c0,.009,0,.019,0,.029a13.219,13.219,0,0,0,.319,2.446q.408-.2.806-.411a12.383,12.383,0,0,1-.2-1.3" transform="translate(-1099.076 -307.505)" fill="#79614e"/>
    </g>
  </g>
</svg>
