<svg id="Group_33457" data-name="Group 33457" xmlns="http://www.w3.org/2000/svg" width="85" height="84.79" viewBox="0 0 85 84.79">
  <path id="Path_35229" data-name="Path 35229" d="M851.068,33.3c-3.352-14-11.635-23.943-24.718-29.891a41.091,41.091,0,0,0-14.132-3.4h-1.87L808.81,0l-2.049.018c-1.648.156-3.3.314-4.921.629A42.045,42.045,0,0,0,778.33,13.694a41.587,41.587,0,0,0-11.09,25.243,39.488,39.488,0,0,0,.663,11.646c2.787,13.092,10.082,22.853,21.791,29.3a41.587,41.587,0,0,0,17.068,4.895l1.869.01h1.9l1.869-.01a47.622,47.622,0,0,0,6.934-1.065,42.043,42.043,0,0,0,22.978-14.3,41.473,41.473,0,0,0,9.609-23.55,39.51,39.51,0,0,0-.854-12.561M809.612,78.764a36.368,36.368,0,1,1,36.369-36.4,36.414,36.414,0,0,1-36.369,36.4" transform="translate(-767.081 -0.001)" fill="#1e76f7"/>
  <path id="Path_35230" data-name="Path 35230" d="M856.513,92.693q0-11.38,0-22.761V47.172c0-.219.008-.437,0-.655-.031-.671-.236-.9-.9-.921-.812-.024-1.63.05-2.436-.022a2.034,2.034,0,0,0-1.955.954c-3.448,4.476-6.938,8.92-10.413,13.374L828.655,75.482a1.748,1.748,0,0,0-.534,1.15c.028,1.029-.005,2.06.013,3.091.014.749.2.908.962.936.218.008.437,0,.656,0q9.749,0,19.5,0c1.185,0,1.272.09,1.273,1.289q0,4.309,0,8.617c0,.905-.012,1.811,0,2.716.012.68.237.968.857.981q2.155.046,4.312,0c.554-.011.772-.278.812-.823.018-.248,0-.5,0-.749m-5.99-34.339q0,3.884,0,7.768,0,3.978,0,7.955c0,1.017-.124,1.142-1.127,1.143q-6.182.006-12.363,0a3.065,3.065,0,0,1-.375-.005.668.668,0,0,1-.566-1.062,4.405,4.405,0,0,1,.392-.523Q842.691,65.716,848.9,57.8a4.441,4.441,0,0,1,.478-.574.649.649,0,0,1,1.127.379,4.1,4.1,0,0,1,.017.747" transform="translate(-804.256 -27.75)" fill="#0a0a0a"/>
</svg>
