<svg id="Vector_Smart_Object" data-name="Vector Smart Object" xmlns="http://www.w3.org/2000/svg" width="37.398" height="42.26" viewBox="0 0 37.398 42.26">
  <path id="Path_42" data-name="Path 42" d="M17.249,79.131c.305,0,.458.152.763.3-1.832.76-3.664,2.736-4.579,6.992l-3.358.912C11.143,84.3,13.28,79.131,17.249,79.131Zm1.679,1.52a10.56,10.56,0,0,1,.611,3.648v.3L15.112,85.82C16.028,82.628,17.554,81.26,18.928,80.652ZM22.9,83.388,20.912,84V83.54a10.407,10.407,0,0,0-.458-3.344C21.523,80.5,22.439,81.868,22.9,83.388Zm9.922,2.432a.328.328,0,0,0-.305-.3c-.305,0-3.511-.3-3.511-.3s-2.29-2.28-2.595-2.432c-.305-.3-.763-.152-.916-.152,0,0-.458.152-1.221.456-.763-2.128-2.137-4.1-4.427-4.1h-.153a2.7,2.7,0,0,0-2.29-1.216c-5.5-.152-8.09,6.688-9.006,10.184-1.221.3-2.442.76-3.816,1.216-1.221.3-1.221.456-1.374,1.52C3.053,91.444,0,115.461,0,115.461l24.271,4.56L37.4,117.133S32.819,86.124,32.819,85.82Z" transform="translate(0 -77.761)" fill="#8db849"/>
  <path id="Path_43" data-name="Path 43" d="M72.988,93.662c-.153,0-3.358-.3-3.358-.3s-2.29-2.28-2.595-2.432c-.153-.152-.153-.152-.305-.152L64.9,128.167l13.128-2.888S73.446,94.27,73.446,93.966c0-.152-.305-.3-.458-.3" transform="translate(-40.627 -85.907)" fill="#5a863e"/>
  <path id="Path_44" data-name="Path 44" d="M29.3,116.955l-1.679,4.864a7.262,7.262,0,0,0-3.206-.76c-2.595,0-2.748,1.52-2.748,1.976,0,2.128,5.8,3.04,5.8,8.208,0,4.1-2.595,6.688-6.106,6.688a8.4,8.4,0,0,1-6.258-2.584l1.069-3.648s2.137,1.824,3.969,1.824a1.59,1.59,0,0,0,1.679-1.672c0-2.888-4.732-3.04-4.732-7.752,0-3.952,2.9-7.752,8.548-7.752a6.083,6.083,0,0,1,3.663.608" transform="translate(-9.454 -101.904)" fill="#fffffe"/>
</svg>
