<svg width="44" height="44" viewBox="0 0 44 44" fill="none" xmlns="http://www.w3.org/2000/svg">
<path d="M26.8 27.5417C26.8791 27.4499 26.9372 27.342 26.9703 27.2254C27.0034 27.1088 27.0107 26.9864 26.9917 26.8667L26.5 23.9501C26.4106 23.4233 26.1958 22.9258 25.8738 22.4994C25.5519 22.073 25.1321 21.7303 24.65 21.5001C25.0887 20.9252 25.3285 20.2232 25.3333 19.5001C25.3333 18.616 24.9821 17.7682 24.357 17.1431C23.7319 16.5179 22.8841 16.1667 22 16.1667C21.1159 16.1667 20.2681 16.5179 19.643 17.1431C19.0179 17.7682 18.6667 18.616 18.6667 19.5001C18.6715 20.2232 18.9113 20.9252 19.35 21.5001C18.8679 21.7303 18.4481 22.073 18.1262 22.4994C17.8042 22.9258 17.5894 23.4233 17.5 23.9501L17 26.8667C16.9805 26.9868 16.9876 27.1097 17.0206 27.2267C17.0537 27.3438 17.112 27.4521 17.1914 27.5443C17.2708 27.6364 17.3694 27.71 17.4803 27.76C17.5912 27.8099 17.7117 27.835 17.8333 27.8334H26.1667C26.287 27.8334 26.406 27.8074 26.5153 27.757C26.6246 27.7067 26.7218 27.6332 26.8 27.5417ZM22 17.8334C22.3296 17.8334 22.6519 17.9312 22.926 18.1143C23.2 18.2974 23.4137 18.5577 23.5398 18.8623C23.666 19.1668 23.699 19.5019 23.6346 19.8252C23.5703 20.1485 23.4116 20.4455 23.1785 20.6786C22.9454 20.9117 22.6485 21.0704 22.3252 21.1347C22.0019 21.199 21.6667 21.166 21.3622 21.0399C21.0577 20.9137 20.7974 20.7001 20.6142 20.426C20.4311 20.152 20.3333 19.8297 20.3333 19.5001C20.3333 19.0581 20.5089 18.6341 20.8215 18.3216C21.1341 18.009 21.558 17.8334 22 17.8334ZM18.8167 26.1667L19.1417 24.2251C19.2074 23.8322 19.4116 23.4759 19.7173 23.2206C20.023 22.9653 20.4101 22.828 20.8083 22.8334H23.2417C23.6399 22.828 24.027 22.9653 24.3327 23.2206C24.6385 23.4759 24.8427 23.8322 24.9083 24.2251L25.1833 26.1667H18.8167Z" fill="white"/>
<path d="M39.4998 21.1667H37.8332C37.6221 17.261 35.9728 13.5716 33.2032 10.8096C30.4335 8.04761 26.7395 6.40858 22.8332 6.20841V4.50008C22.8332 4.27907 22.7454 4.06711 22.5891 3.91083C22.4328 3.75455 22.2209 3.66675 21.9998 3.66675C21.7788 3.66675 21.5669 3.75455 21.4106 3.91083C21.2543 4.06711 21.1665 4.27907 21.1665 4.50008V6.20841C17.2675 6.41854 13.5837 8.06196 10.8227 10.8229C8.06171 13.5839 6.4183 17.2678 6.20817 21.1667H4.49984C4.27882 21.1667 4.06686 21.2545 3.91058 21.4108C3.7543 21.5671 3.6665 21.7791 3.6665 22.0001C3.6665 22.2211 3.7543 22.4331 3.91058 22.5893C4.06686 22.7456 4.27882 22.8334 4.49984 22.8334H6.20817C6.40834 26.7398 8.04736 30.4338 10.8093 33.2034C13.5713 35.9731 17.2607 37.6224 21.1665 37.8334V39.5001C21.1665 39.7211 21.2543 39.9331 21.4106 40.0893C21.5669 40.2456 21.7788 40.3334 21.9998 40.3334C22.2209 40.3334 22.4328 40.2456 22.5891 40.0893C22.7454 39.9331 22.8332 39.7211 22.8332 39.5001V37.8334C26.7463 37.6324 30.4459 35.9875 33.2166 33.2168C35.9872 30.4461 37.6321 26.7466 37.8332 22.8334H39.4998C39.7209 22.8334 39.9328 22.7456 40.0891 22.5893C40.2454 22.4331 40.3332 22.2211 40.3332 22.0001C40.3332 21.7791 40.2454 21.5671 40.0891 21.4108C39.9328 21.2545 39.7209 21.1667 39.4998 21.1667ZM21.1665 7.87508V9.54175C18.1508 9.7464 15.3113 11.0369 13.174 13.1742C11.0366 15.3116 9.74616 18.151 9.5415 21.1667H7.87484C8.08253 17.7094 9.54957 14.448 11.9987 11.9989C14.4478 9.54982 17.7092 8.08277 21.1665 7.87508ZM21.1665 36.1667C17.7025 35.9581 14.4355 34.4851 11.9855 32.0274C9.5354 29.5696 8.07269 26.2981 7.87484 22.8334H9.5415C9.73647 25.8566 11.0227 28.706 13.161 30.852C15.2992 32.9979 18.1441 34.2943 21.1665 34.5001V36.1667ZM21.9998 30.3334C21.7788 30.3334 21.5669 30.4212 21.4106 30.5775C21.2543 30.7338 21.1665 30.9457 21.1665 31.1667V32.8334C18.5856 32.6314 16.1623 31.5118 14.3356 29.6774C12.5089 27.8431 11.3994 25.4152 11.2082 22.8334H12.8332C13.0542 22.8334 13.2661 22.7456 13.4224 22.5893C13.5787 22.4331 13.6665 22.2211 13.6665 22.0001C13.6665 21.7791 13.5787 21.5671 13.4224 21.4108C13.2661 21.2545 13.0542 21.1667 12.8332 21.1667H11.2082C11.4089 18.5924 12.5226 16.1745 14.3484 14.3486C16.1742 12.5228 18.5922 11.4092 21.1665 11.2084V12.8334C21.1665 13.0544 21.2543 13.2664 21.4106 13.4227C21.5669 13.579 21.7788 13.6667 21.9998 13.6667C22.2209 13.6667 22.4328 13.579 22.5891 13.4227C22.7454 13.2664 22.8332 13.0544 22.8332 12.8334V11.2084C25.4149 11.3997 27.8428 12.5091 29.6772 14.3358C31.5116 16.1626 32.6311 18.5858 32.8332 21.1667H31.1665C30.9455 21.1667 30.7335 21.2545 30.5772 21.4108C30.421 21.5671 30.3332 21.7791 30.3332 22.0001C30.3332 22.2211 30.421 22.4331 30.5772 22.5893C30.7335 22.7456 30.9455 22.8334 31.1665 22.8334H32.8332C32.6407 25.4218 31.5253 27.855 29.69 29.6902C27.8547 31.5255 25.4215 32.6409 22.8332 32.8334V31.1667C22.8332 30.9457 22.7454 30.7338 22.5891 30.5775C22.4328 30.4212 22.2209 30.3334 21.9998 30.3334ZM22.8332 36.1667V34.5001C25.863 34.304 28.7179 33.0119 30.8648 30.865C33.0117 28.7181 34.3038 25.8632 34.4998 22.8334H36.1665C35.9677 26.3048 34.4991 29.5819 32.0404 32.0406C29.5817 34.4993 26.3046 35.9679 22.8332 36.1667ZM34.4998 21.1667C34.2941 18.1443 32.9977 15.2995 30.8517 13.1612C28.7058 11.0229 25.8563 9.73671 22.8332 9.54175V7.87508C26.2979 8.07294 29.5694 9.53564 32.0271 11.9857C34.4849 14.4357 35.9578 17.7027 36.1665 21.1667H34.4998Z" fill="white"/>
</svg>
