<svg xmlns="http://www.w3.org/2000/svg" width="44" height="44.112" viewBox="0 0 44 44.112">
  <g id="Component_196_1" data-name="Component 196 – 1" transform="translate(0)">
    <path id="Path_35365" data-name="Path 35365" d="M71.782,47.964h41.861a1.02,1.02,0,0,0,.6-1.842L72.5,4.378a1.02,1.02,0,0,0-1.741.722V46.944a1.02,1.02,0,0,0,1.02,1.019Zm39.382-2.04h-7.221V43.7a1.02,1.02,0,1,0-2.04,0v2.223H96.483V42.4a1.02,1.02,0,0,0-2.04,0v3.521H89.022V43.7a1.02,1.02,0,1,0-2.04,0v2.223H81.56V42.4a1.02,1.02,0,0,0-2.04,0v3.521H72.8V38.557h3.52a1.02,1.02,0,1,0,0-2.04H72.8V31.1h2.224a1.02,1.02,0,1,0,0-2.04H72.8V23.637h3.52a1.021,1.021,0,0,0,0-2.041H72.8v-5.42h2.224a1.021,1.021,0,0,0,0-2.041H72.8V7.562Z" transform="translate(-70.761 -3.852)" fill="#fff"/>
    <path id="Path_35366" data-name="Path 35366" d="M211.5,288.025h10.72a1.021,1.021,0,0,0,.605-1.843l-10.6-10.6a1.02,1.02,0,0,0-1.741.721V287a1.021,1.021,0,0,0,1.02,1.021Zm1.02-9.262,7.221,7.221h-7.221Z" transform="translate(-199.453 -253.643)" fill="#fff"/>
    <path id="Path_35367" data-name="Path 35367" d="M270.325,23.358c0-.012-.01-.024-.014-.036a.937.937,0,0,0-.068-.18c-.01-.02-.019-.04-.03-.06a.992.992,0,0,0-.129-.177l-.015-.02,0,0L252.253,4.371a.991.991,0,0,0-.147-.194,1.021,1.021,0,0,0-.175-.141l-1.486-1.543a4.3,4.3,0,0,0-6.092-.051L243.009,3.76a4.312,4.312,0,0,0-.056,6.086l19.613,20.382.008.007c.012.012.027.022.039.033a1.025,1.025,0,0,0,.152.117l.066.036a1,1,0,0,0,.171.07c.014,0,.026.012.04.016l7.889,2.087a1.011,1.011,0,0,0,.261.034h.01a1.021,1.021,0,0,0,.944-1.423Zm-7,4.711-16.557-17.2,4.574-4.5L267.9,23.57l-2.207,2.172ZM244.441,5.214,245.783,3.9a2.263,2.263,0,0,1,3.2.018l.942.979-4.573,4.5-.935-.972a2.271,2.271,0,0,1,.025-3.207Zm20.853,23.778.654-.643,2.8-2.757,1.066,4.6Z" transform="translate(-228.228 -1.204)" fill="#fff"/>
    <path id="Path_35368" data-name="Path 35368" d="M364.574,124.063l-11.2-11.834a1.02,1.02,0,1,0-1.482,1.4l11.2,11.835a1.02,1.02,0,0,0,1.482-1.4Z" transform="translate(-329.439 -103.171)" fill="#fff"/>
  </g>
</svg>
