<svg xmlns="http://www.w3.org/2000/svg" width="44.5" height="53.521" viewBox="0 0 44.5 53.521">
  <g id="Component_201_1" data-name="Component 201 – 1" transform="translate(0.25 0.25)">
    <path id="Path_35405" data-name="Path 35405" d="M181.009,45.763a1.319,1.319,0,0,0-1.556-1.025c-.053.006-5.568.837-7.206.837s-7.153-.825-7.183-.831a1.332,1.332,0,0,0-.566,2.6l4.955,1.161v.466c.018,2.5.023,3.258-2.08,9.5a1.546,1.546,0,0,0,.053,1.19,1.573,1.573,0,0,0,.878.807,1.523,1.523,0,0,0,.53.094,1.554,1.554,0,0,0,1.461-1.014l1.944-5.061,1.939,5.055a1.569,1.569,0,0,0,2,.931,1.559,1.559,0,0,0,.931-1.992c-2.109-6.245-2.1-7-2.086-9.5v-.466l4.949-1.161A1.325,1.325,0,0,0,181,45.774Zm-.925.519a.434.434,0,0,1-.295.194l-5.3,1.238a.441.441,0,0,0-.342.43v.807c-.023,2.551-.03,3.405,2.127,9.8v.012a.646.646,0,0,1-.018.513.656.656,0,0,1-.383.348.675.675,0,0,1-.866-.406l-2.357-6.14a.46.46,0,0,0-.825,0l-2.357,6.145a.675.675,0,0,1-.866.4.666.666,0,0,1-.4-.866c2.156-6.387,2.151-7.247,2.133-9.8V48.15a.447.447,0,0,0-.348-.43l-5.3-1.243a.438.438,0,0,1-.283-.194.439.439,0,0,1,.383-.683.376.376,0,0,1,.112.012c.23.035,5.633.843,7.335.843s7.106-.813,7.365-.848a.446.446,0,0,1,.53.342.477.477,0,0,1-.059.336Zm-7.813-1a2.475,2.475,0,1,0-2.48-2.475A2.479,2.479,0,0,0,172.271,45.286Zm0-4.06a1.591,1.591,0,1,1-1.6,1.591A1.6,1.6,0,0,1,172.271,41.226Zm-.023-3.164a12.609,12.609,0,1,0,12.668,12.609A12.655,12.655,0,0,0,172.248,38.062Zm0,24.334a11.725,11.725,0,1,1,11.784-11.725A11.768,11.768,0,0,1,172.248,62.4Zm4.254,1.479H153.835V37.331h22.673a.445.445,0,0,0,.442-.442v-1.9a.442.442,0,0,0-.318-.424l-12.868-3.677a.443.443,0,0,0-.124-.018h-9.8v-2.44a.445.445,0,0,0-.442-.442h-8.879a.445.445,0,0,0-.442.442V34.55h-2.722a.445.445,0,0,0-.442.442v1.9a.445.445,0,0,0,.442.442h2.722V63.868h-2.722a.445.445,0,0,0-.442.442v1.815a.445.445,0,0,0,.442.442h1.921V80.572a.445.445,0,0,0,.442.442h11.071a.438.438,0,0,0,.436-.365l1.8-10.565h6.617a.275.275,0,0,0,.118-.018l12.868-3.518a.44.44,0,0,0,.324-.424V64.309a.445.445,0,0,0-.442-.442ZM176.06,65.8l-12.485,3.412h-6.929a.438.438,0,0,0-.436.365l-1.8,10.565H144.161V66.133a.445.445,0,0,0-.442-.442H141.8V64.76h2.722a.445.445,0,0,0,.442-.442V36.891a.445.445,0,0,0-.442-.442H141.8V35.435h2.722a.445.445,0,0,0,.442-.442V28.877h8v2.445a.445.445,0,0,0,.442.442h10.182l12.491,3.565v1.12H153.394a.445.445,0,0,0-.442.442v3.152h-4.737a.442.442,0,0,0,0,.884h4.737v4.113h-2.834a.442.442,0,0,0,0,.884h2.834v4.113h-4.737a.442.442,0,0,0,0,.884h4.737v4.113h-2.834a.442.442,0,1,0,0,.884h2.834v4.113h-4.737a.442.442,0,1,0,0,.884h4.737V64.3a.445.445,0,0,0,.442.442h22.673v1.037Z" transform="translate(-140.916 -27.992)" fill="#fff" stroke="#fff" stroke-width="0.5"/>
  </g>
</svg>
