<svg xmlns="http://www.w3.org/2000/svg" xmlns:xlink="http://www.w3.org/1999/xlink" width="42.26" height="42.26" viewBox="0 0 42.26 42.26">
  <defs>
    <clipPath id="clip-path">
      <rect id="Rectangle_14680" data-name="Rectangle 14680" width="42.26" height="42.26" fill="#070938"/>
    </clipPath>
  </defs>
  <g id="Mask_Group_10237" data-name="Mask Group 10237" clip-path="url(#clip-path)">
    <g id="Vector_Smart_Object" data-name="Vector Smart Object" transform="translate(1.936 1.008)">
      <g id="Group_36570" data-name="Group 36570" transform="translate(0)">
        <g id="Group_36569" data-name="Group 36569">
          <path id="Path_39191" data-name="Path 39191" d="M207.475,262.053v.86a10.3,10.3,0,0,1-.274,1.017,27.9,27.9,0,0,1-1.764,3.166c-1.777,3.115-3.829,6.458-5.487,9.46-.032.007-.039.039-.078.039a3.97,3.97,0,0,0-3.175-5.551,37.169,37.169,0,0,0-3.842-.039H181.214a1.532,1.532,0,0,0-.274-.43.778.778,0,0,0-.157-.313,3.983,3.983,0,0,0-.431-.7.779.779,0,0,0-.157-.313,1.532,1.532,0,0,0-.274-.43,3,3,0,0,0-.314-.586,1.535,1.535,0,0,0-.274-.43,3,3,0,0,0-.314-.586,1.531,1.531,0,0,0-.274-.43,2.988,2.988,0,0,0-.314-.587,1.533,1.533,0,0,0-.274-.43.779.779,0,0,0-.157-.313,4,4,0,0,0-.431-.7,5.356,5.356,0,0,1-.666-1.876v-.821c.053-.312.123-.607.2-.9.124-.241.22-.51.353-.742a4.083,4.083,0,0,1,2.979-1.955h23.479A4.116,4.116,0,0,1,207.475,262.053Z" transform="translate(-169.612 -258.457)" fill="#ffb400"/>
          <path id="Path_39192" data-name="Path 39192" d="M204.331,293.208a3.97,3.97,0,0,1,3.175,5.551c-1.446,2.637-2.987,5.178-4.468,7.779a4.189,4.189,0,0,1-3.8,1.563c-1.844-.2-2.7-1.623-3.488-2.971-2.3-3.947-4.669-8.041-6.9-11.962h11.641A37.169,37.169,0,0,1,204.331,293.208Z" transform="translate(-177.246 -280.621)" fill="#e42a6d"/>
          <path id="Path_39193" data-name="Path 39193" d="M214.793,308.644c.039,0,.047-.032.078-.039-1.858,3.318-3.937,6.79-6,10.359-1.459,2.528-2.983,5.182-4.468,7.74-.974,1.678-1.7,3.49-3.88,3.831h-.274c2.659-.313,3.46-2.712,4.586-4.651,1.794-3.091,3.723-6.391,5.488-9.46C211.806,313.822,213.347,311.28,214.793,308.644Z" transform="translate(-184.533 -290.505)" fill="#bbb3b6"/>
          <path id="Path_39194" data-name="Path 39194" d="M182.494,306.491c-1.765,3.069-3.693,6.369-5.488,9.46-1.126,1.94-1.927,4.338-4.586,4.651H171.6c-2.433-.26-3.221-2.266-4.233-3.987l-.349-.6c-2.128-3.685-4.331-7.491-6.517-11.235l-1.991-3.454a12.527,12.527,0,0,1-1.8-3.831v-.743a5,5,0,0,1,.784-2.033,4.194,4.194,0,0,1,2.861-1.6c2.4-.182,5.3.136,7.918,0h.039c2.23,3.921,4.594,8.015,6.9,11.962.787,1.348,1.644,2.774,3.488,2.971A4.189,4.189,0,0,0,182.494,306.491Z" transform="translate(-156.703 -280.573)" fill="#574e9c"/>
          <path id="Path_39195" data-name="Path 39195" d="M189.856,361.251h-.274c-2.2-.327-2.941-2.214-3.92-3.909l-.388-.673.349.6C186.635,358.984,187.423,360.991,189.856,361.251Z" transform="translate(-174.962 -321.221)" fill="#bbb3b6"/>
          <path id="Path_39196" data-name="Path 39196" d="M188.362,292.463h-.039c-.064-.157-.171-.273-.235-.43A1.532,1.532,0,0,1,188.362,292.463Z" transform="translate(-176.76 -279.915)" fill="#bbb3b6"/>
          <path id="Path_39197" data-name="Path 39197" d="M169.419,275.091c.064.157.171.273.235.43-2.613.136-5.515-.182-7.918,0a4.2,4.2,0,0,0-2.861,1.6c.02-.058.058-.1.078-.156,2.194-3.806,4.423-7.577,6.585-11.415.132-.072.019,0,.039.117-.073.292-.143.587-.2.9a1.759,1.759,0,0,0,0,.821,5.356,5.356,0,0,0,.666,1.876,3.987,3.987,0,0,0,.431.7.78.78,0,0,1,.157.313,1.53,1.53,0,0,0,.274.43,2.986,2.986,0,0,1,.314.587,1.533,1.533,0,0,0,.274.43,3,3,0,0,1,.314.586,1.524,1.524,0,0,0,.274.43,3,3,0,0,1,.314.586,1.526,1.526,0,0,0,.274.429.779.779,0,0,1,.157.313,4.02,4.02,0,0,0,.431.7A.779.779,0,0,1,169.419,275.091Z" transform="translate(-158.091 -262.973)" fill="#33b9d0"/>
          <path id="Path_39198" data-name="Path 39198" d="M186.459,289.216a3.985,3.985,0,0,1,.431.7A4.022,4.022,0,0,1,186.459,289.216Z" transform="translate(-175.719 -278.114)" fill="#bbb3b6"/>
          <path id="Path_39199" data-name="Path 39199" d="M185.265,287.16a1.531,1.531,0,0,1,.274.43A1.528,1.528,0,0,1,185.265,287.16Z" transform="translate(-174.957 -276.8)" fill="#bbb3b6"/>
          <path id="Path_39200" data-name="Path 39200" d="M183.636,284.343a1.534,1.534,0,0,1,.274.43A1.522,1.522,0,0,1,183.636,284.343Z" transform="translate(-173.915 -275)" fill="#bbb3b6"/>
          <path id="Path_39201" data-name="Path 39201" d="M182.007,281.527a1.533,1.533,0,0,1,.274.43A1.532,1.532,0,0,1,182.007,281.527Z" transform="translate(-172.874 -273.2)" fill="#bbb3b6"/>
          <path id="Path_39202" data-name="Path 39202" d="M180.378,278.711a1.534,1.534,0,0,1,.274.43A1.532,1.532,0,0,1,180.378,278.711Z" transform="translate(-171.833 -271.401)" fill="#bbb3b6"/>
          <path id="Path_39203" data-name="Path 39203" d="M178.749,275.894a4.005,4.005,0,0,1,.431.7A4,4,0,0,1,178.749,275.894Z" transform="translate(-170.792 -269.601)" fill="#bbb3b6"/>
          <path id="Path_39204" data-name="Path 39204" d="M177.337,264.5a3.751,3.751,0,0,1,.392-.625c-.133.232-.229.5-.353.742C177.356,264.494,177.468,264.426,177.337,264.5Z" transform="translate(-169.889 -261.919)" fill="#bbb3b6"/>
          <path id="Path_39205" data-name="Path 39205" d="M176.816,268.421v.821A1.76,1.76,0,0,1,176.816,268.421Z" transform="translate(-169.526 -264.825)" fill="#bbb3b6"/>
          <path id="Path_39206" data-name="Path 39206" d="M173.734,336.774q-3.3-5.617-6.517-11.235C169.4,329.283,171.606,333.089,173.734,336.774Z" transform="translate(-163.422 -301.328)" fill="#fff"/>
          <path id="Path_39207" data-name="Path 39207" d="M158.506,309.186l1.991,3.454q-1.039-1.778-2.07-3.532a14.372,14.372,0,0,1-1.725-3.479v-.274A12.527,12.527,0,0,0,158.506,309.186Z" transform="translate(-156.703 -288.428)" fill="#bbb3b6"/>
          <path id="Path_39208" data-name="Path 39208" d="M157.565,297.232c-.02.058-.058.1-.078.156a5,5,0,0,0-.784,2.033v-.274A4.9,4.9,0,0,1,157.565,297.232Z" transform="translate(-156.703 -283.237)" fill="#bbb3b6"/>
        </g>
      </g>
    </g>
  </g>
</svg>
