<svg xmlns="http://www.w3.org/2000/svg" width="44" height="43.631" viewBox="0 0 44 43.631">
  <g id="Component_197_1" data-name="Component 197 – 1" transform="translate(0)">
    <path id="Path_35407" data-name="Path 35407" d="M110.959,37.525h-4.107V.668A.667.667,0,0,0,106.186,0H68.292a.667.667,0,0,0-.667.667V38.192a5.445,5.445,0,0,0,5.44,5.44h33.12a5.445,5.445,0,0,0,5.44-5.44.667.667,0,0,0-.667-.667Zm-42-36.191h36.56V6H68.959ZM73.066,42.3a4.111,4.111,0,0,1-4.107-4.107V7.334h36.56V37.525H77.839a.667.667,0,0,0-.667.667A4.111,4.111,0,0,1,73.065,42.3Zm33.12,0H76.63a5.433,5.433,0,0,0,1.836-3.44h31.774a4.114,4.114,0,0,1-4.054,3.44Z" transform="translate(-67.626 -0.001)" fill="#fff"/>
    <path id="Path_35408" data-name="Path 35408" d="M509.523,38.768a.676.676,0,0,0-.2.473.67.67,0,0,0,1.341,0,.645.645,0,0,0-.2-.465.679.679,0,0,0-.942-.008Z" transform="translate(-474.908 -35.577)" fill="#fff"/>
    <path id="Path_35409" data-name="Path 35409" d="M463.013,38.484a.67.67,0,1,0,.475.194.666.666,0,0,0-.475-.194Z" transform="translate(-431.599 -35.486)" fill="#fff"/>
    <path id="Path_35410" data-name="Path 35410" d="M415.479,38.767a.668.668,0,0,0-.194.473.654.654,0,0,0,.194.473.677.677,0,0,0,.473.194.642.642,0,0,0,.467-.194.653.653,0,0,0,.193-.473.667.667,0,0,0-.193-.473.686.686,0,0,0-.94,0Z" transform="translate(-388.198 -35.576)" fill="#fff"/>
    <path id="Path_35411" data-name="Path 35411" d="M138.236,281.6V269.352c0-.024-.012-.043-.013-.066a.677.677,0,0,0-.027-.132.648.648,0,0,0-.049-.115.639.639,0,0,0-.069-.1.658.658,0,0,0-.1-.1c-.018-.014-.028-.034-.047-.045h0a.418.418,0,0,0-.053-.021.569.569,0,0,0-.126-.051.641.641,0,0,0-.127-.026c-.02,0-.038-.012-.059-.012h-8a.667.667,0,0,0-.667.667V281.6a.522.522,0,0,0,.013.065.619.619,0,0,0,.027.133.606.606,0,0,0,.049.115.578.578,0,0,0,.068.1.675.675,0,0,0,.1.1.4.4,0,0,0,.047.046.466.466,0,0,0,.068.032.583.583,0,0,0,.066.03.651.651,0,0,0,.229.047h8A.668.668,0,0,0,138.236,281.6Zm-1.9-11.575-6.1,9.337v-9.333ZM130.8,280.93l6.1-9.333v9.333Z" transform="translate(-124.129 -247.751)" fill="#fff"/>
    <path id="Path_35412" data-name="Path 35412" d="M433.065,269.418v-.01a.594.594,0,0,0-.014-.069.66.66,0,0,0-.037-.178.605.605,0,0,0-.068-.107.672.672,0,0,0-.072-.108.615.615,0,0,0-.144-.1.6.6,0,0,0-.066-.046.818.818,0,0,0-.1-.022.66.66,0,0,0-.156-.031H427.07a.667.667,0,0,0-.667.667v12.24a.519.519,0,0,0,.014.068.433.433,0,0,0,.1.289.768.768,0,0,0,.072.107.694.694,0,0,0,.144.1.36.36,0,0,0,.275.089c.018,0,.036.012.053.012H432.4a.667.667,0,0,0,.667-.667V269.417Zm-1.689.66-3.645,8.376v-8.376Zm-3.3,10.909,3.653-8.379v8.376Z" transform="translate(-398.451 -247.808)" fill="#fff"/>
    <path id="Path_35413" data-name="Path 35413" d="M289.89,268.73h-7.333a.667.667,0,0,0,0,1.333h7.333a.667.667,0,1,0,0-1.333Z" transform="translate(-265.197 -247.793)" fill="#fff"/>
    <path id="Path_35414" data-name="Path 35414" d="M282.562,322.44H287.9a.667.667,0,0,0,0-1.333h-5.334a.667.667,0,0,0,0,1.333Z" transform="translate(-265.201 -296.089)" fill="#fff"/>
    <path id="Path_35415" data-name="Path 35415" d="M289.89,373.47h-7.333a.667.667,0,0,0,0,1.333h7.333a.667.667,0,1,0,0-1.333Z" transform="translate(-265.197 -344.373)" fill="#fff"/>
    <path id="Path_35416" data-name="Path 35416" d="M285.891,425.85h-3.333a.667.667,0,0,0,0,1.333h3.333a.667.667,0,1,0,0-1.333Z" transform="translate(-265.198 -392.671)" fill="#fff"/>
    <path id="Path_35417" data-name="Path 35417" d="M126.886,146.593a.629.629,0,0,0,.037.1.7.7,0,0,0,.081.121.835.835,0,0,0,.063.072.661.661,0,0,0,.13.089.62.62,0,0,0,.073.042.676.676,0,0,0,.243.05H156.18a.668.668,0,0,0,.667-.667v-5.333a.62.62,0,0,0-.012-.062c0-.021,0-.04,0-.061a.571.571,0,0,0-.026-.067.661.661,0,0,0-.05-.124.621.621,0,0,0-.071-.1.664.664,0,0,0-.2-.161.538.538,0,0,0-.112-.049.646.646,0,0,0-.131-.027.68.68,0,0,0-.07-.013H127.513a.666.666,0,0,0-.667.667V146.4a.592.592,0,0,0,.012.061.5.5,0,0,0,0,.06.433.433,0,0,0,.028.075Zm7.854-.864,20.773-3.865v3.861Zm14.212-4-20.773,3.864v-3.868Z" transform="translate(-122.232 -129.458)" fill="#fff"/>
  </g>
</svg>
