<svg xmlns="http://www.w3.org/2000/svg" width="42.89" height="25.531" viewBox="0 0 42.89 25.531">
  <g id="WooCommerce_logo" transform="translate(-0.001)">
    <path id="Path_38697" data-name="Path 38697" d="M3.982,0H38.893a4,4,0,0,1,4,4V17.324a4,4,0,0,1-4,4H26.374l1.718,4.208-7.557-4.208H4a4,4,0,0,1-4-4V4a3.981,3.981,0,0,1,3.98-4Z" fill="#7f54b3"/>
    <path id="Path_38698" data-name="Path 38698" d="M13.088,15.4a1.4,1.4,0,0,1,1.1-.54A1.274,1.274,0,0,1,15.7,16.112q.811,5.466,1.761,9.258l3.818-7.27a1.655,1.655,0,0,1,1.308-1.046c.767-.052,1.238.436,1.43,1.465a32.566,32.566,0,0,0,1.656,5.963q.68-6.643,2.3-9.589a1.339,1.339,0,0,1,1.151-.767,1.515,1.515,0,0,1,1.1.349,1.366,1.366,0,0,1,.54.994,1.513,1.513,0,0,1-.174.837A21.108,21.108,0,0,0,28.9,22.6a32.469,32.469,0,0,0-.488,6.643,2.069,2.069,0,0,1-.209,1.151,1.124,1.124,0,0,1-.924.628,1.753,1.753,0,0,1-1.377-.645,17.26,17.26,0,0,1-3.853-7.427q-1.7,3.347-2.511,5.021c-1.029,1.97-1.9,2.981-2.633,3.034-.471.035-.872-.366-1.22-1.2q-1.334-3.426-2.877-13.233a1.485,1.485,0,0,1,.279-1.168Zm37.468,2.737a4.015,4.015,0,0,0-2.79-2.023,4.576,4.576,0,0,0-.941-.1,4.7,4.7,0,0,0-4.1,2.615,9.238,9.238,0,0,0-1.36,4.917,6.751,6.751,0,0,0,.837,3.452,4.015,4.015,0,0,0,2.79,2.023,4.576,4.576,0,0,0,.941.1,4.662,4.662,0,0,0,4.1-2.615,9.343,9.343,0,0,0,1.36-4.934A6.434,6.434,0,0,0,50.556,18.134Zm-2.2,4.829a4.613,4.613,0,0,1-1.325,2.58,1.676,1.676,0,0,1-1.412.558c-.418-.087-.767-.453-1.029-1.133a4.425,4.425,0,0,1-.314-1.587A6.063,6.063,0,0,1,44.4,22.11a5.638,5.638,0,0,1,.924-2.075c.575-.854,1.186-1.2,1.813-1.081.418.087.767.453,1.029,1.133a4.425,4.425,0,0,1,.314,1.587,6.117,6.117,0,0,1-.122,1.29Zm-8.718-4.829a4.051,4.051,0,0,0-2.79-2.023,4.576,4.576,0,0,0-.941-.1,4.7,4.7,0,0,0-4.1,2.615,9.238,9.238,0,0,0-1.36,4.917,6.751,6.751,0,0,0,.837,3.452,4.015,4.015,0,0,0,2.79,2.023,4.576,4.576,0,0,0,.941.1,4.662,4.662,0,0,0,4.1-2.615,9.343,9.343,0,0,0,1.36-4.934,6.6,6.6,0,0,0-.837-3.435Zm-2.214,4.829a4.613,4.613,0,0,1-1.325,2.58,1.676,1.676,0,0,1-1.412.558c-.418-.087-.767-.453-1.029-1.133a4.425,4.425,0,0,1-.314-1.587,6.063,6.063,0,0,1,.122-1.273,5.638,5.638,0,0,1,.924-2.075c.575-.854,1.186-1.2,1.813-1.081.418.087.767.453,1.029,1.133a4.425,4.425,0,0,1,.314,1.587,5.15,5.15,0,0,1-.122,1.29Z" transform="translate(-10.644 -11.753)" fill="#fff"/>
  </g>
</svg>
