<svg xmlns="http://www.w3.org/2000/svg" width="99.231" height="75" viewBox="0 0 99.231 75">
  <g id="Group_36540" data-name="Group 36540" transform="translate(-7091 -1487)">
    <path id="Path_38837" data-name="Path 38837" d="M68.615,37.308H35.154a1.154,1.154,0,1,1,0-2.308H68.615a1.154,1.154,0,1,1,0,2.308Z" transform="translate(7088.154 1472.192)" fill="#21a5aa"/>
    <path id="Path_38838" data-name="Path 38838" d="M60.923,41.308H40.154a1.154,1.154,0,1,1,0-2.308H60.923a1.154,1.154,0,1,1,0,2.308Z" transform="translate(7088.923 1472.808)" fill="#21a5aa"/>
    <g id="Group_36536" data-name="Group 36536" transform="translate(7117.539 1525.654)">
      <path id="Path_38839" data-name="Path 38839" d="M46.154,53.308h-15a1.154,1.154,0,1,1,0-2.308h15a1.154,1.154,0,1,1,0,2.308Z" transform="translate(-30 -51)" fill="#21a5aa"/>
      <path id="Path_38840" data-name="Path 38840" d="M40.385,56.308H31.154a1.154,1.154,0,1,1,0-2.308h9.231a1.154,1.154,0,1,1,0,2.308Z" transform="translate(-30 -50.538)" fill="#21a5aa"/>
    </g>
    <path id="Path_38841" data-name="Path 38841" d="M102.769,92.5H10.462A3.4,3.4,0,0,1,7,89.038V20.962A3.4,3.4,0,0,1,10.462,17.5h92.308a3.4,3.4,0,0,1,3.462,3.462V89.038A3.4,3.4,0,0,1,102.769,92.5ZM10.462,19.808a1.09,1.09,0,0,0-1.154,1.154V89.038a1.09,1.09,0,0,0,1.154,1.154h92.308a1.09,1.09,0,0,0,1.154-1.154V20.962a1.09,1.09,0,0,0-1.154-1.154Z" transform="translate(7084 1469.5)" fill="#21a5aa"/>
    <path id="Path_38842" data-name="Path 38842" d="M103.923,27.308H8.154a1.154,1.154,0,0,1,0-2.308h95.769a1.154,1.154,0,1,1,0,2.308Z" transform="translate(7084 1470.654)" fill="#21a5aa"/>
    <circle id="Ellipse_339" data-name="Ellipse 339" cx="1.5" cy="1.5" r="1.5" transform="translate(7095.731 1491.385)" fill="#21a5aa"/>
    <circle id="Ellipse_340" data-name="Ellipse 340" cx="1.5" cy="1.5" r="1.5" transform="translate(7101.269 1491.385)" fill="#21a5aa"/>
    <circle id="Ellipse_341" data-name="Ellipse 341" cx="1.5" cy="1.5" r="1.5" transform="translate(7106.692 1491.385)" fill="#21a5aa"/>
    <path id="Path_38843" data-name="Path 38843" d="M24.623,59.646a5.423,5.423,0,1,1,5.423-5.423A5.417,5.417,0,0,1,24.623,59.646Zm0-8.538a3.115,3.115,0,1,0,3.115,3.115A3.1,3.1,0,0,0,24.623,51.108Z" transform="translate(7085.877 1474.315)" fill="#21a5aa"/>
    <g id="Group_36537" data-name="Group 36537" transform="translate(7157.923 1525.654)">
      <path id="Path_38844" data-name="Path 38844" d="M81.154,53.308h-15a1.154,1.154,0,0,1,0-2.308h15a1.154,1.154,0,0,1,0,2.308Z" transform="translate(-65 -51)" fill="#21a5aa"/>
      <path id="Path_38845" data-name="Path 38845" d="M74.231,56.308H66.154a1.154,1.154,0,1,1,0-2.308h8.077a1.154,1.154,0,1,1,0,2.308Z" transform="translate(-65 -50.538)" fill="#21a5aa"/>
    </g>
    <path id="Path_38846" data-name="Path 38846" d="M59.323,59.646a5.423,5.423,0,1,1,5.423-5.423A5.492,5.492,0,0,1,59.323,59.646Zm0-8.538a3.115,3.115,0,1,0,3.115,3.115A3.178,3.178,0,0,0,59.323,51.108Z" transform="translate(7091.215 1474.315)" fill="#21a5aa"/>
    <g id="Group_36538" data-name="Group 36538" transform="translate(7117.539 1540.654)">
      <path id="Path_38847" data-name="Path 38847" d="M46.154,66.308h-15a1.154,1.154,0,1,1,0-2.308h15a1.154,1.154,0,0,1,0,2.308Z" transform="translate(-30 -64)" fill="#21a5aa"/>
      <path id="Path_38848" data-name="Path 38848" d="M40.385,69.308H31.154a1.154,1.154,0,1,1,0-2.308h9.231a1.154,1.154,0,0,1,0,2.308Z" transform="translate(-30 -63.538)" fill="#21a5aa"/>
    </g>
    <path id="Path_38849" data-name="Path 38849" d="M24.623,72.746a5.423,5.423,0,1,1,5.423-5.423A5.417,5.417,0,0,1,24.623,72.746Zm0-8.538a3.115,3.115,0,1,0,3.115,3.115A3.1,3.1,0,0,0,24.623,64.208Z" transform="translate(7085.877 1476.331)" fill="#21a5aa"/>
    <g id="Group_36539" data-name="Group 36539" transform="translate(7157.923 1540.654)">
      <path id="Path_38850" data-name="Path 38850" d="M81.154,66.308h-15a1.154,1.154,0,0,1,0-2.308h15a1.154,1.154,0,0,1,0,2.308Z" transform="translate(-65 -64)" fill="#21a5aa"/>
      <path id="Path_38851" data-name="Path 38851" d="M74.231,69.308H66.154a1.154,1.154,0,0,1,0-2.308h8.077a1.154,1.154,0,0,1,0,2.308Z" transform="translate(-65 -63.538)" fill="#21a5aa"/>
    </g>
    <path id="Path_38852" data-name="Path 38852" d="M59.323,72.746a5.423,5.423,0,1,1,5.423-5.423A5.417,5.417,0,0,1,59.323,72.746Zm0-8.538a3.115,3.115,0,1,0,3.115,3.115A3.178,3.178,0,0,0,59.323,64.208Z" transform="translate(7091.215 1476.331)" fill="#21a5aa"/>
  </g>
</svg>
