<svg xmlns="http://www.w3.org/2000/svg" width="75" height="75.22" viewBox="0 0 75 75.22">
  <g id="Group_36535" data-name="Group 36535" transform="translate(-7808.25 -1252)">
    <path id="Path_38823" data-name="Path 38823" d="M7.908,4.65a2.658,2.658,0,1,0,2.658,2.658A2.662,2.662,0,0,0,7.908,4.65Zm0,3.544a.886.886,0,1,1,.886-.886A.892.892,0,0,1,7.908,8.194Z" transform="translate(7807.725 1251.484)" fill="#ff5e85"/>
    <path id="Path_38824" data-name="Path 38824" d="M13.638,4.65A2.658,2.658,0,1,0,16.3,7.308,2.662,2.662,0,0,0,13.638,4.65Zm0,3.544a.886.886,0,1,1,.886-.886A.892.892,0,0,1,13.638,8.194Z" transform="translate(7808.763 1251.484)" fill="#ff5e85"/>
    <path id="Path_38825" data-name="Path 38825" d="M19.358,4.65a2.658,2.658,0,1,0,2.658,2.658A2.662,2.662,0,0,0,19.358,4.65Zm0,3.544a.886.886,0,1,1,.886-.886A.892.892,0,0,1,19.358,8.194Z" transform="translate(7809.8 1251.484)" fill="#ff5e85"/>
    <path id="Path_38826" data-name="Path 38826" d="M65.745,51.9a.856.856,0,0,0,.78-.472l3.544-6.757a.919.919,0,0,0-.024-.874.862.862,0,0,0-.756-.425H62.449V41.046h3.3a.856.856,0,0,0,.78-.472l3.544-6.757a.919.919,0,0,0-.024-.874.862.862,0,0,0-.756-.425H62.449V29.836a.892.892,0,0,0-.886-.886H43.432a.892.892,0,0,0-.886.886v2.658H35.695a.888.888,0,0,0-.756.425.917.917,0,0,0-.024.874l3.544,6.757a.869.869,0,0,0,.78.472h3.307v2.327H35.695a.888.888,0,0,0-.756.425.917.917,0,0,0-.024.874L38.459,51.4a.869.869,0,0,0,.78.472h3.307V54.2H35.695a.888.888,0,0,0-.756.425.917.917,0,0,0-.024.874l3.544,6.757a.869.869,0,0,0,.78.472h3.307V65.39a.892.892,0,0,0,.886.886h4.311v4.17a.886.886,0,0,0,1.772,0v-4.17h5.953v4.17a.886.886,0,0,0,1.772,0v-4.17h4.311a.892.892,0,0,0,.886-.886V62.733h3.307a.856.856,0,0,0,.78-.472L70.068,55.5a.919.919,0,0,0-.024-.874.862.862,0,0,0-.756-.425H62.449V51.877h3.3Zm2.079-6.768-2.61,4.985H62.449V45.133Zm0-10.867-2.61,4.985H62.449V34.265Zm-28.042,5-2.61-4.985h5.386v4.985Zm0,10.867-2.61-4.985h5.386v4.985Zm0,10.867-2.61-4.985h5.386V61Zm20.9,3.544H44.318V30.722H60.666V64.54ZM67.824,56l-2.61,4.985H62.449V56Z" transform="translate(7813.083 1255.888)" fill="#ff5e85"/>
    <path id="Path_38827" data-name="Path 38827" d="M50.434,31.95A4.264,4.264,0,1,0,54.7,36.214,4.27,4.27,0,0,0,50.434,31.95Zm0,6.768a2.492,2.492,0,1,1,2.492-2.492A2.493,2.493,0,0,1,50.434,38.718Z" transform="translate(7815.14 1256.431)" fill="#ff5e85"/>
    <path id="Path_38828" data-name="Path 38828" d="M50.434,41.15A4.264,4.264,0,1,0,54.7,45.414,4.27,4.27,0,0,0,50.434,41.15Zm0,6.768a2.492,2.492,0,1,1,2.492-2.492A2.493,2.493,0,0,1,50.434,47.918Z" transform="translate(7815.14 1258.098)" fill="#ff5e85"/>
    <path id="Path_38829" data-name="Path 38829" d="M50.434,50.35A4.264,4.264,0,1,0,54.7,54.614,4.27,4.27,0,0,0,50.434,50.35Zm0,6.768a2.492,2.492,0,1,1,2.492-2.492A2.493,2.493,0,0,1,50.434,57.118Z" transform="translate(7815.14 1259.766)" fill="#ff5e85"/>
    <path id="Path_38830" data-name="Path 38830" d="M10.2,43.69a.892.892,0,0,0-.886.886v5.115a.892.892,0,0,0,.886.886h4.725a.892.892,0,0,0,.886-.886V44.576a.892.892,0,0,0-.886-.886H10.2ZM14.035,48.8H11.082V45.462h2.953Z" transform="translate(7808.46 1258.559)" fill="#ff5e85"/>
    <path id="Path_38831" data-name="Path 38831" d="M17.806,39.69a.892.892,0,0,0-.886.886v9.839a.892.892,0,0,0,.886.886h4.725a.892.892,0,0,0,.886-.886V40.576a.892.892,0,0,0-.886-.886H17.806Zm3.839,9.839H18.692V41.462h2.953Z" transform="translate(7809.839 1257.834)" fill="#ff5e85"/>
    <path id="Path_38832" data-name="Path 38832" d="M25.416,52.207h4.725a.892.892,0,0,0,.886-.886V35.576a.892.892,0,0,0-.886-.886H25.416a.892.892,0,0,0-.886.886V51.321A.892.892,0,0,0,25.416,52.207ZM26.3,36.462h2.953V50.436H26.3Z" transform="translate(7811.219 1256.928)" fill="#ff5e85"/>
    <path id="Path_38833" data-name="Path 38833" d="M27.8,34.683a.876.876,0,0,0,.118-1.1l-1.051-1.666a.722.722,0,0,0,.059-.142l1.914-.437a.885.885,0,0,0,.685-.862V26.592a.885.885,0,0,0-.685-.862l-1.914-.437c-.024-.047-.035-.094-.059-.142l1.051-1.666a.892.892,0,0,0-.118-1.1l-2.752-2.752a.876.876,0,0,0-1.1-.118l-1.666,1.051a.593.593,0,0,0-.154-.059L21.692,18.6a.885.885,0,0,0-.862-.685H16.944a.885.885,0,0,0-.862.685l-.437,1.914c-.047.024-.094.035-.154.059l-1.666-1.051a.892.892,0,0,0-1.1.118L9.975,22.387a.876.876,0,0,0-.118,1.1l1.051,1.666a.593.593,0,0,0-.059.154l-1.914.437a.885.885,0,0,0-.685.862V30.49a.885.885,0,0,0,.685.862l1.914.437a.593.593,0,0,1,.059.154L9.856,33.608a.892.892,0,0,0,.118,1.1l2.752,2.752a.876.876,0,0,0,1.1.118l1.666-1.051a.593.593,0,0,0,.154.059l.437,1.914a.885.885,0,0,0,.862.685H20.83a.885.885,0,0,0,.862-.685l.437-1.914c.047-.024.094-.035.154-.059l1.666,1.051a.892.892,0,0,0,1.1-.118Zm-3.508.992-1.465-.921a.9.9,0,0,0-.862-.047,6.021,6.021,0,0,1-.862.354.875.875,0,0,0-.579.65L20.145,37.4H17.664l-.378-1.689a.878.878,0,0,0-.579-.638,7.78,7.78,0,0,1-.862-.354.867.867,0,0,0-.862.047l-1.465.921L11.77,33.939l.91-1.477a.9.9,0,0,0,.047-.862,5.509,5.509,0,0,1-.354-.862.878.878,0,0,0-.638-.579l-1.689-.378V27.3l1.689-.378a.878.878,0,0,0,.638-.579,7.781,7.781,0,0,1,.354-.862.867.867,0,0,0-.047-.862l-.933-1.465,1.748-1.748,1.465.921a.9.9,0,0,0,.862.047,6.945,6.945,0,0,1,.862-.354.878.878,0,0,0,.579-.638l.378-1.689h2.481l.378,1.689a.894.894,0,0,0,.579.65,7.781,7.781,0,0,1,.862.354.865.865,0,0,0,.862-.047l1.465-.921,1.748,1.748-.933,1.465a.9.9,0,0,0-.047.862,6.02,6.02,0,0,1,.354.862.878.878,0,0,0,.638.579l1.689.378v2.481l-1.689.378a.878.878,0,0,0-.638.579,7.781,7.781,0,0,1-.354.862.867.867,0,0,0,.047.862l.933,1.465Z" transform="translate(7808.269 1253.887)" fill="#ff5e85"/>
    <path id="Path_38834" data-name="Path 38834" d="M17.978,22.94a4.678,4.678,0,1,0,4.678,4.678A4.688,4.688,0,0,0,17.978,22.94Zm0,7.583a2.906,2.906,0,1,1,2.906-2.906A2.9,2.9,0,0,1,17.978,30.523Z" transform="translate(7809.184 1254.799)" fill="#ff5e85"/>
    <path id="Path_38835" data-name="Path 38835" d="M62.834,29.679a.892.892,0,0,0,.886-.886V16.036a.892.892,0,0,0-.886-.886H6.136a.892.892,0,0,0-.886.886v39.7A3.246,3.246,0,0,0,8.5,58.985h28.81a.886.886,0,1,0,0-1.772H8.5a1.477,1.477,0,0,1-1.477-1.477V16.922H61.948V28.793A.885.885,0,0,0,62.834,29.679Z" transform="translate(7807.725 1253.387)" fill="#ff5e85"/>
    <path id="Path_38836" data-name="Path 38836" d="M40.513,64.475H9.223a6.216,6.216,0,0,1-6.2-6.2V14.734H67.4v16.6a.886.886,0,1,0,1.772,0V9.123A7.985,7.985,0,0,0,61.2,1.15H9.223A7.985,7.985,0,0,0,1.25,9.123v49.15a7.985,7.985,0,0,0,7.973,7.973h31.29a.886.886,0,0,0,0-1.772ZM3.022,9.123a6.208,6.208,0,0,1,6.2-6.2H61.2a6.216,6.216,0,0,1,6.2,6.2v3.839H3.022Z" transform="translate(7807 1250.85)" fill="#ff5e85"/>
  </g>
</svg>
