<svg xmlns="http://www.w3.org/2000/svg" width="75" height="75" viewBox="0 0 75 75">
  <g id="Group_36541" data-name="Group 36541" transform="translate(-7269 -1679)">
    <path id="Path_38853" data-name="Path 38853" d="M35,17.75a1.25,1.25,0,0,0,2.5,0,6.261,6.261,0,0,0-5-6.125V10.25a1.25,1.25,0,0,0-2.5,0v1.375a6.25,6.25,0,0,0,0,12.25v7.4a3.75,3.75,0,0,1-2.5-3.521,1.25,1.25,0,1,0-2.5,0,6.261,6.261,0,0,0,5,6.125V35.25a1.25,1.25,0,0,0,2.5,0V33.875a6.25,6.25,0,0,0,0-12.25V14.23A3.75,3.75,0,0,1,35,17.75Zm-7.5,0A3.75,3.75,0,0,1,30,14.23v7.04a3.75,3.75,0,0,1-2.5-3.52Zm7.5,10a3.75,3.75,0,0,1-2.5,3.52V24.23A3.75,3.75,0,0,1,35,27.75Z" transform="translate(7275.25 1681.25)" fill="#0037ff"/>
    <path id="Path_38854" data-name="Path 38854" d="M74.913.819a1.2,1.2,0,0,0-.125-.225A1.292,1.292,0,0,0,74.7.436c-.011-.012-.028-.017-.039-.03A1.213,1.213,0,0,0,74.453.25,1.225,1.225,0,0,0,74.27.125a1.227,1.227,0,0,0-.216-.06A1.281,1.281,0,0,0,73.8.014.283.283,0,0,0,73.75,0h-5a1.25,1.25,0,0,0,0,2.5h1.625l-11.4,9.765A25.125,25.125,0,0,0,55.218,7.39c-.016-.019-.022-.044-.04-.061s-.044-.024-.062-.041a24.947,24.947,0,0,0-35.23,0c-.019.017-.044.022-.062.041s-.024.042-.04.061a24.95,24.95,0,0,0,0,35.235c.016.018.023.041.039.059s.041.023.059.039q.8.8,1.677,1.525l-2.352,2.015L15.421,42.4a2.5,2.5,0,0,0-3.328-.181L.469,51.524a1.25,1.25,0,1,0,1.563,1.952l11.614-9.314,3.8,3.875a2.518,2.518,0,0,0,3.375.125l2.8-2.39a24.943,24.943,0,0,0,31.511-3.056c.017-.016.041-.023.059-.039s.023-.041.039-.059a24.861,24.861,0,0,0,4.955-28.088L72.5,3.967V6.25a1.25,1.25,0,0,0,2.5,0v-5a1.283,1.283,0,0,0-.034-.167,1.191,1.191,0,0,0-.054-.264ZM54.25,39.976,52.484,38.21a19.894,19.894,0,0,0,4.953-11.96h2.5A22.375,22.375,0,0,1,54.25,39.976ZM22.524,41.75l1.766-1.766a19.894,19.894,0,0,0,11.96,4.953v2.5A22.375,22.375,0,0,1,22.524,41.75Zm-7.46-15.5h2.5a19.894,19.894,0,0,0,4.959,11.96l-1.766,1.766A22.375,22.375,0,0,1,15.064,26.25Zm5.692-16.226,1.766,1.766a19.894,19.894,0,0,0-4.959,11.96h-2.5a22.375,22.375,0,0,1,5.693-13.726ZM37.5,42.5A17.5,17.5,0,1,1,55,25,17.5,17.5,0,0,1,37.5,42.5ZM50.71,10.022A19.894,19.894,0,0,0,38.75,5.064v-2.5A22.375,22.375,0,0,1,52.476,8.256ZM36.25,5.064a19.894,19.894,0,0,0-11.96,4.959L22.524,8.256A22.375,22.375,0,0,1,36.25,2.564Zm2.5,39.875A19.894,19.894,0,0,0,50.71,39.98l1.766,1.77A22.375,22.375,0,0,1,38.75,47.436ZM57.436,23.75a19.894,19.894,0,0,0-4.959-11.96l1.772-1.766A22.375,22.375,0,0,1,59.936,23.75Z" transform="translate(7269 1679)" fill="#0037ff"/>
    <path id="Path_38855" data-name="Path 38855" d="M73.75,70.5H72.5V9.25a1.25,1.25,0,0,0-2.5,0V70.5H65V36.75a1.25,1.25,0,0,0-2.5,0V70.5h-5V44.25a1.25,1.25,0,0,0-2.5,0V70.5H50V49.25a1.25,1.25,0,0,0-2.5,0V70.5h-5V51.75a1.25,1.25,0,0,0-2.5,0V70.5H35V51.75a1.25,1.25,0,0,0-2.5,0V70.5h-5V49.25a1.25,1.25,0,0,0-2.5,0V70.5H20V51.75a1.25,1.25,0,0,0-2.5,0V70.5h-5v-20a1.25,1.25,0,0,0-2.5,0v20H5v-15a1.25,1.25,0,1,0-2.5,0v15H1.25a1.25,1.25,0,0,0,0,2.5h72.5a1.25,1.25,0,0,0,0-2.5Z" transform="translate(7269 1681)" fill="#0037ff"/>
  </g>
</svg>
