<svg xmlns="http://www.w3.org/2000/svg" width="74.955" height="75" viewBox="0 0 74.955 75">
  <g id="Layer_2" data-name="Layer 2" transform="translate(-2 -2)">
    <path id="Path_38856" data-name="Path 38856" d="M8.689,50.108h5.351a6.68,6.68,0,0,0,6.445-4.995L34.4,49a31.9,31.9,0,0,0,27.355-4.886l13.982-11.8c1.918-1.152,1.28-3.755.068-5.759-1.9-2.488-4.8-2.516-8.612-.081l-5.508,3.512A15.936,15.936,0,0,1,47.4,31.444l4.735-2.569a1.329,1.329,0,0,0,.546-.554,4.709,4.709,0,0,0-.071-4.871c-1.45-1.717-4.458-1.756-9.467-.118-.165.05-4.037,1.192-9.524-2.665-4.881-3.431-10.045.4-12.96,3.351A6.673,6.673,0,0,0,14.041,18H8.689A6.7,6.7,0,0,0,2,24.689v18.73a6.7,6.7,0,0,0,6.689,6.689Zm23.4-27.251c6.653,4.68,11.683,3.083,11.886,3.021,5.469-1.785,6.5-.818,6.6-.7.23.269.11,1-.1,1.565l-18.246,9.9a1.338,1.338,0,0,0,1.275,2.352l11.065-6a14.268,14.268,0,0,0,2.258,1.118,18.786,18.786,0,0,0,13.369-.341,55.966,55.966,0,0,0,8.447-5.037c3.676-2.336,4.607-1.131,4.967-.677.434.724.776,1.766.588,2.088L60.112,42a29.176,29.176,0,0,1-24.99,4.421L20.73,42.4V27.983C21.948,26.417,27.577,19.7,32.086,22.857ZM4.676,24.689a4.018,4.018,0,0,1,4.014-4.014h5.351a4.018,4.018,0,0,1,4.014,4.014v18.73a4.018,4.018,0,0,1-4.014,4.014H8.689a4.018,4.018,0,0,1-4.014-4.013Z" transform="translate(0 26.811)" fill="#dba802"/>
    <path id="Path_38857" data-name="Path 38857" d="M6.676,30.743a1.337,1.337,0,0,0,1.338,1.338h10.7a1.337,1.337,0,0,0,1.338-1.338V18.7h1.338a1.338,1.338,0,0,0,.946-2.284L14.311,8.392a1.337,1.337,0,0,0-1.892,0L4.392,16.419A1.338,1.338,0,0,0,5.338,18.7H6.676Zm2.676-1.338V24.054h8.027v5.351ZM13.365,11.23l4.881,4.881a1.339,1.339,0,0,0-.868,1.254v4.014H9.351V17.365a1.339,1.339,0,0,0-.868-1.254Z" transform="translate(3.351 10.054)" fill="#dba802"/>
    <path id="Path_38858" data-name="Path 38858" d="M14.676,36.77a1.337,1.337,0,0,0,1.338,1.338h10.7a1.337,1.337,0,0,0,1.338-1.338V16.7h1.338a1.338,1.338,0,0,0,.946-2.284L22.311,6.392a1.337,1.337,0,0,0-1.892,0l-8.027,8.027a1.338,1.338,0,0,0,.946,2.284h1.338Zm2.676-1.338V22.054h8.027V35.432Zm4.014-26.2s4.881,4.881,4.861,4.9a1.435,1.435,0,0,0-.848,1.239v4.014H17.351V15.365a1.3,1.3,0,0,0-.217-.687,1.217,1.217,0,0,0-.089-.132,1.406,1.406,0,0,0-.561-.435Z" transform="translate(16.757 6.703)" fill="#dba802"/>
    <path id="Path_38859" data-name="Path 38859" d="M22.676,46.149a1.337,1.337,0,0,0,1.338,1.338h10.7a1.337,1.337,0,0,0,1.338-1.338V12.7h1.338a1.338,1.338,0,0,0,.946-2.284L30.311,2.392a1.337,1.337,0,0,0-1.892,0l-8.027,8.027a1.338,1.338,0,0,0,.946,2.284h1.338Zm2.676-1.338V39.459h8.027v5.351ZM29.365,5.23l4.881,4.881a1.339,1.339,0,0,0-.868,1.254V36.784H25.351V11.365a1.339,1.339,0,0,0-.868-1.254Z" transform="translate(30.162)" fill="#dba802"/>
    <path id="Path_38860" data-name="Path 38860" d="M35.415,9.237a1.338,1.338,0,0,0,1.22.789,1.313,1.313,0,0,0,.549-.118,1.339,1.339,0,0,0,.672-1.769s-2.411-5.35-2.422-5.366A1.415,1.415,0,0,0,34.14,2l-7.847.5a1.337,1.337,0,0,0-1.252,1.419,1.3,1.3,0,0,0,1.419,1.252L30.77,4.9l-7.643,7.632-7.1-5.252a1.344,1.344,0,0,0-1.774.165L3.213,19.315a1.339,1.339,0,0,0,1.96,1.824l10.222-11,7.068,5.226a1.333,1.333,0,0,0,1.74-.131l9.6-9.585Z" transform="translate(1.486 0.001)" fill="#dba802"/>
    <path id="Path_38861" data-name="Path 38861" d="M8.014,32.027A4.014,4.014,0,1,0,4,28.014a4.014,4.014,0,0,0,4.014,4.014Zm0-5.351a1.338,1.338,0,1,1-1.338,1.338,1.338,1.338,0,0,1,1.338-1.338Z" transform="translate(3.351 36.865)" fill="#dba802"/>
  </g>
</svg>
