<svg xmlns="http://www.w3.org/2000/svg" width="36" height="33.072" viewBox="0 0 36 33.072">
  <g id="Group_36522" data-name="Group 36522" transform="translate(-10.2 -13.5)">
    <path id="Path_38820" data-name="Path 38820" d="M16.86,46.572H35.933a6.671,6.671,0,0,0,6.66-6.66V31.8a1.359,1.359,0,1,0-2.718,0v8.109a3.944,3.944,0,0,1-3.941,3.941H16.86a3.944,3.944,0,0,1-3.941-3.941V20.16a3.944,3.944,0,0,1,3.941-3.941H35.933a3.747,3.747,0,0,1,2.175.68,1.37,1.37,0,1,0,1.54-2.265A6.763,6.763,0,0,0,35.933,13.5H16.86a6.671,6.671,0,0,0-6.66,6.66V39.912A6.671,6.671,0,0,0,16.86,46.572Z" fill="#1abc9c"/>
    <path id="Path_38821" data-name="Path 38821" d="M54.773,21.208,37.739,38.514l-5.255-6.478a1.355,1.355,0,1,0-2.129,1.676l6.161,7.7a1.2,1.2,0,0,0,1,.5H37.6a1.234,1.234,0,0,0,.951-.408L56.676,23.111a1.353,1.353,0,0,0,0-1.9A1.314,1.314,0,0,0,54.773,21.208Z" transform="translate(-10.867 -3.993)" fill="#1abc9c"/>
  </g>
</svg>
