<svg xmlns="http://www.w3.org/2000/svg" width="70.656" height="70.539" viewBox="0 0 70.656 70.539">
  <g id="Group_36713" data-name="Group 36713" transform="translate(0.304 0.239)">
    <g id="Group_36706" data-name="Group 36706" transform="translate(0.002 29.716)">
      <path id="Path_39160" data-name="Path 39160" d="M32.9,62.071v-19H46.065a1.061,1.061,0,0,0,0-2.123H32.9V29.061a1.061,1.061,0,0,0-2.123,0V47.636l-.212-.106h0L23.669,34.9a5.293,5.293,0,0,0-4.882-3.29H4.67A1,1,0,0,0,3.609,32.67v9.765A4.574,4.574,0,0,0,0,47V62.071a1,1,0,0,0,1.061,1.061H3.715a5.69,5.69,0,0,0,5.732,5.2,5.845,5.845,0,0,0,5.732-5.2h3.715a5.759,5.759,0,0,0,5.732,5.2,5.845,5.845,0,0,0,5.732-5.2h1.486A1.064,1.064,0,0,0,32.9,62.071ZM18.787,33.838a3.2,3.2,0,0,1,2.972,2.017.1.1,0,0,0,.106.106l5.307,9.765-.106-.106a1.681,1.681,0,0,0-1.592.106,1.547,1.547,0,0,0-.743,1.38v2.441H16.346v-5.2a2.129,2.129,0,0,0-2.123-2.123H5.732v-8.6H18.787ZM4.67,44.452h9.447v6.262a1,1,0,0,0,1.061,1.061H25.686a1,1,0,0,0,1.061-1.061v-2.76l4.139,2.229v3.184H2.123V47.105A2.606,2.606,0,0,1,4.67,44.452ZM9.447,66.211A3.609,3.609,0,1,1,13.055,62.6,3.647,3.647,0,0,1,9.447,66.211Zm15.178,0A3.609,3.609,0,1,1,28.234,62.6,3.579,3.579,0,0,1,24.625,66.211Zm6.156-5.2h-.743A5.749,5.749,0,0,0,19,61.01H14.86a5.749,5.749,0,0,0-11.039,0h-1.7V55.491H30.781Z" transform="translate(0 -28)" fill="#646464" stroke="#646464" stroke-width="0.5"/>
    </g>
    <g id="Group_36707" data-name="Group 36707" transform="translate(-0.036 0.05)">
      <path id="Path_39161" data-name="Path 39161" d="M69.631,23.348,35.666.209a1.15,1.15,0,0,0-1.168,0L.427,23.348A1.008,1.008,0,0,0,0,24.516a1.054,1.054,0,0,0,1.061.743H1.7v6.05A1,1,0,0,0,2.762,32.37a1,1,0,0,0,1.061-1.061v-6.05H66.234V67.927H33.118a1.061,1.061,0,0,0,0,2.123H67.3a1,1,0,0,0,1.061-1.061V25.258h.637a1.278,1.278,0,0,0,1.061-.743A1.178,1.178,0,0,0,69.631,23.348ZM4.46,23.136l30.569-20.8L65.6,23.136Z" transform="translate(0.036 -0.05)" fill="#646464" stroke="#646464" stroke-width="0.5"/>
    </g>
    <g id="Group_36708" data-name="Group 36708" transform="translate(35.135 52.218)">
      <path id="Path_39162" data-name="Path 39162" d="M45.2,49.2H34.161A1,1,0,0,0,33.1,50.261V61.3a1,1,0,0,0,1.061,1.061H45.2A1,1,0,0,0,46.261,61.3V50.261A1.064,1.064,0,0,0,45.2,49.2ZM44.139,60.239H35.223V51.323h8.916Z" transform="translate(-33.1 -49.2)" fill="#646464" stroke="#646464" stroke-width="0.5"/>
    </g>
    <g id="Group_36709" data-name="Group 36709" transform="translate(50.631 52.218)">
      <path id="Path_39163" data-name="Path 39163" d="M47.7,61.3a1,1,0,0,0,1.061,1.061H59.8A1,1,0,0,0,60.861,61.3V50.261A1,1,0,0,0,59.8,49.2H48.761A1,1,0,0,0,47.7,50.261Zm2.123-9.977h8.916v8.916H49.823V51.323Z" transform="translate(-47.7 -49.2)" fill="#646464" stroke="#646464" stroke-width="0.5"/>
    </g>
    <g id="Group_36710" data-name="Group 36710" transform="translate(50.631 36.722)">
      <path id="Path_39164" data-name="Path 39164" d="M48.761,47.761H59.8A1,1,0,0,0,60.861,46.7V35.661A1,1,0,0,0,59.8,34.6H48.761A1,1,0,0,0,47.7,35.661V46.7A1.064,1.064,0,0,0,48.761,47.761Zm1.061-11.039h8.916v8.916H49.823V36.723Z" transform="translate(-47.7 -34.6)" fill="#646464" stroke="#646464" stroke-width="0.5"/>
    </g>
    <g id="Group_36711" data-name="Group 36711" transform="translate(35.135 28.124)">
      <path id="Path_39165" data-name="Path 39165" d="M46.261,27.561A1,1,0,0,0,45.2,26.5H34.161A1,1,0,0,0,33.1,27.561V38.6a1,1,0,0,0,1.061,1.061H45.2A1,1,0,0,0,46.261,38.6Zm-2.123,9.871H35.223V28.517h8.916Z" transform="translate(-33.1 -26.5)" fill="#646464" stroke="#646464" stroke-width="0.5"/>
    </g>
    <g id="Group_36712" data-name="Group 36712" transform="translate(28.66 7.639)">
      <path id="Path_39166" data-name="Path 39166" d="M27,13.781A6.581,6.581,0,1,0,33.581,7.2,6.614,6.614,0,0,0,27,13.781Zm6.581-4.458a4.458,4.458,0,1,1-4.458,4.458A4.485,4.485,0,0,1,33.581,9.323Z" transform="translate(-27 -7.2)" fill="#646464" stroke="#646464" stroke-width="0.5"/>
    </g>
  </g>
</svg>
