<svg id="Group_36696" data-name="Group 36696" xmlns="http://www.w3.org/2000/svg" width="70.084" height="70" viewBox="0 0 70.084 70">
  <g id="Group_36695" data-name="Group 36695">
    <path id="Path_39136" data-name="Path 39136" d="M149.822,41.124c-.975-12.8-12.547-23.024-25.43-22.648a1.473,1.473,0,0,0-.838,2.654c2.674,2,4.052,3.985,3.987,5.752-.071,1.905-1.807,3.4-3.252,4.322a25.49,25.49,0,0,1-7.721,3.23c-3.114.854-6.056,1.662-9,5.755-2.613,3.634-3.537,7.583-2.6,11.119a10.573,10.573,0,0,0,3.065,5.062,5.8,5.8,0,0,0-3.764,6.668l4.321,20.53a6.136,6.136,0,0,0,6.127,4.9h24a6.136,6.136,0,0,0,6.127-4.9l4.321-20.53a5.8,5.8,0,0,0-3.213-6.443A23.426,23.426,0,0,0,149.822,41.124ZM135.13,56.048c-.988,0-1.982-.005-2.968-.01a38.538,38.538,0,0,0,1.986-14.864,1.473,1.473,0,1,0-2.944.123,34.809,34.809,0,0,1-2.189,14.726c-3.079-.015-6.224-.023-9.319.018a8.068,8.068,0,0,1-2.974-5.509c-.42-6.123,6.848-12.913,10.463-17.125a10.705,10.705,0,0,0,1.289-1.859c2.546-2.8,2.716-6.2.324-9.418a13.191,13.191,0,0,1,5.008,5.475A31.658,31.658,0,0,1,137.329,41.3,34.822,34.822,0,0,1,135.13,56.048ZM109.961,41.909c3.169-4.406,5.823-3.879,10.738-5.662-3.6,4.156-7.276,9.247-6.917,14.487a10.158,10.158,0,0,0,1.971,5.315h-2.98C106.8,53.144,106.092,47.29,109.961,41.909Zm1.525,41.109c-.008-.041.193.918-4.333-20.588A2.848,2.848,0,0,1,109.941,59h5.137L117.9,85.519h-1.642l-2.822-18.838a1.474,1.474,0,0,0-2.915.437l2.708,18.077A3.017,3.017,0,0,1,111.486,83.019ZM118.042,59h3.443l.946,26.523h-1.563ZM131,85.519l.089-2.493a1.473,1.473,0,1,0-2.945-.105l-.093,2.6h-2.675L124.433,59H129l-.614,17.227a1.474,1.474,0,0,0,2.945.105L131.95,59h3.059l-2.46,26.523ZM146.28,62.431c-4.458,21.183-4.327,20.554-4.333,20.588a3.035,3.035,0,0,1-1.891,2.238l1.915-12.781a1.473,1.473,0,1,0-2.914-.437l-2.02,13.479h-1.53L137.968,59h3.043l-1.151,7.685a1.473,1.473,0,1,0,2.914.436l1.21-8.079A2.848,2.848,0,0,1,146.28,62.431Zm-3.571-6.381h-4.427a38.552,38.552,0,0,0,1.991-14.875c-.289-6.951-2.359-13.21-5.424-17.389a21.889,21.889,0,0,1,12.034,17.561A20.532,20.532,0,0,1,142.709,56.049Z" transform="translate(-91.477 -18.466)" fill="#4fbab8"/>
    <circle id="Ellipse_345" data-name="Ellipse 345" cx="1.473" cy="1.473" r="1.473" transform="translate(55.868 3.693)" fill="#4fbab8"/>
    <circle id="Ellipse_346" data-name="Ellipse 346" cx="1.473" cy="1.473" r="1.473" transform="translate(39.66 16.955)" fill="#4fbab8"/>
    <circle id="Ellipse_347" data-name="Ellipse 347" cx="1.473" cy="1.473" r="1.473" transform="translate(63.236 47.898)" fill="#4fbab8"/>
    <circle id="Ellipse_348" data-name="Ellipse 348" cx="1.473" cy="1.473" r="1.473" transform="translate(58.815 59.686)" fill="#4fbab8"/>
    <circle id="Ellipse_349" data-name="Ellipse 349" cx="1.473" cy="1.473" r="1.473" transform="translate(63.236 22.849)" fill="#4fbab8"/>
    <circle id="Ellipse_350" data-name="Ellipse 350" cx="1.473" cy="1.473" r="1.473" transform="translate(26.399 6.641)" fill="#4fbab8"/>
    <circle id="Ellipse_351" data-name="Ellipse 351" cx="1.473" cy="1.473" r="1.473" transform="translate(8.717 19.902)" fill="#4fbab8"/>
    <circle id="Ellipse_352" data-name="Ellipse 352" cx="1.473" cy="1.473" r="1.473" transform="translate(4.297 5.167)" fill="#4fbab8"/>
    <path id="Path_39137" data-name="Path 39137" d="M437.772,53.782l2.579,2.579a1.474,1.474,0,0,0,2.084-2.084L440.9,52.74l1.537-1.537a1.474,1.474,0,0,0,0-2.084L440.9,47.582l1.537-1.537a1.474,1.474,0,0,0-2.084-2.084l-2.579,2.579a1.474,1.474,0,0,0,0,2.084l1.537,1.537L437.772,51.7A1.473,1.473,0,0,0,437.772,53.782Z" transform="translate(-375.578 -39.837)" fill="#4fbab8"/>
    <path id="Path_39138" data-name="Path 39138" d="M28.524,266.449l2.212.442-1,1a1.474,1.474,0,0,0,.685,2.471l3.929.982a1.473,1.473,0,1,0,.715-2.859l-1.4-.351,1.107-1.107a1.474,1.474,0,0,0-.753-2.487l-4.912-.982a1.474,1.474,0,0,0-.578,2.89Z" transform="translate(-25.99 -227.421)" fill="#4fbab8"/>
    <path id="Path_39139" data-name="Path 39139" d="M101.761,42.374a4.42,4.42,0,1,0-4.42-4.42A4.425,4.425,0,0,0,101.761,42.374Zm0-5.894a1.473,1.473,0,1,1-1.473,1.473A1.475,1.475,0,0,1,101.761,36.48Z" transform="translate(-85.677 -31.313)" fill="#4fbab8"/>
    <path id="Path_39140" data-name="Path 39140" d="M426.434,233.937c-2.722-1.228-5.246.568-8.144,1.664a1.474,1.474,0,0,0-.857,1.9c1.125,2.975,1.421,5.982,4.141,7.209a3.694,3.694,0,0,0,4.883-1.849,3.442,3.442,0,0,0,.25-2.32,3.443,3.443,0,0,0,1.574-1.723A3.7,3.7,0,0,0,426.434,233.937Zm-.84,3.67c-.13.288-.2.433-1.143.471a1.474,1.474,0,0,0-1.084,2.4c.6.736.534.88.4,1.169a.745.745,0,0,1-.985.375c-1.06-.478-1.421-2.053-2.123-4.209,2.089-.9,3.5-1.671,4.56-1.192A.744.744,0,0,1,425.594,237.607Z" transform="translate(-358.523 -201.836)" fill="#4fbab8"/>
    <path id="Path_39141" data-name="Path 39141" d="M27.617,376.376a1.474,1.474,0,0,0-1.9-.857c-2.91,1.1-5.979,1.413-7.209,4.141a3.69,3.69,0,0,0,1.849,4.883,3.455,3.455,0,0,0,2.321.251,3.444,3.444,0,0,0,1.722,1.572,3.694,3.694,0,0,0,4.882-1.846c.959-2.126.08-4.108-.85-6.206C28.158,377.7,27.875,377.057,27.617,376.376ZM26.6,383.308a.744.744,0,0,1-.984.372c-.288-.13-.433-.2-.471-1.143a1.475,1.475,0,0,0-2.4-1.084c-.5.408-.74.493-.853.493a.886.886,0,0,1-.316-.09.745.745,0,0,1-.374-.985c.48-1.063,2.071-1.427,4.209-2.123.114.264.227.518.334.759C26.552,381.345,26.993,382.426,26.6,383.308Z" transform="translate(-18.181 -322.827)" fill="#4fbab8"/>
  </g>
</svg>
