<svg xmlns="http://www.w3.org/2000/svg" width="97.391" height="70" viewBox="0 0 97.391 70">
  <g id="Group_36692" data-name="Group 36692" transform="translate(-1646 -5903)">
    <path id="Path_39099" data-name="Path 39099" d="M24.564,46.565a1.526,1.526,0,0,1-.679-.16l-3.043-1.522A1.522,1.522,0,1,1,22.2,42.161l3.043,1.522a1.522,1.522,0,0,1-.683,2.884Z" transform="translate(1656.435 5911.217)" fill="#438d7e"/>
    <path id="Path_39100" data-name="Path 39100" d="M41.524,46.566a1.522,1.522,0,0,1-.683-2.884l3.043-1.522a1.522,1.522,0,0,1,1.362,2.722L42.2,46.4a1.51,1.51,0,0,1-.679.16Z" transform="translate(1666.869 5911.217)" fill="#438d7e"/>
    <path id="Path_39101" data-name="Path 39101" d="M75.435,26.609H69.348V20.522a1.522,1.522,0,1,0-3.043,0v6.087H63.261V20.522a1.522,1.522,0,0,0-3.043,0v6.087H57.174V20.522a1.522,1.522,0,1,0-3.043,0v6.087H51.087V20.522a1.522,1.522,0,0,0-3.043,0v6.087H45V20.522a1.522,1.522,0,1,0-3.043,0v6.087H38.913V20.522a1.522,1.522,0,1,0-3.043,0v6.087H32.826V20.522a1.522,1.522,0,1,0-3.043,0v6.087H26.739V20.522a1.522,1.522,0,1,0-3.043,0v6.087H20.652V20.522a1.522,1.522,0,1,0-3.043,0v6.087H11.522a1.522,1.522,0,1,0,0,3.043h6.087v6.087a1.522,1.522,0,0,0,3.043,0V29.652H23.7v6.087a1.522,1.522,0,1,0,3.043,0V29.652h3.043v6.087a1.522,1.522,0,1,0,3.043,0V29.652H35.87v6.087a1.522,1.522,0,0,0,3.043,0V29.652h3.043v6.087a1.522,1.522,0,1,0,3.043,0V29.652h3.043v6.087a1.522,1.522,0,1,0,3.043,0V29.652H54.13v6.087a1.522,1.522,0,0,0,3.043,0V29.652h3.043v6.087a1.522,1.522,0,0,0,3.043,0V29.652H66.3v6.087a1.522,1.522,0,1,0,3.043,0V29.652h6.087a1.522,1.522,0,0,0,0-3.043Z" transform="translate(1651.217 5899.217)" fill="#438d7e"/>
    <path id="Path_39102" data-name="Path 39102" d="M59.875,38.65l-2.124-5.662a1.522,1.522,0,1,0-2.85,1.07l1.511,4.031H24.283l1.511-4.031a1.522,1.522,0,0,0-2.85-1.07L20.82,38.65C19.575,39.6,16,42.725,16,47.217V62.434A4.571,4.571,0,0,0,20.564,67h6.087a4.571,4.571,0,0,0,4.565-4.565,1.522,1.522,0,0,0-3.043,0,1.523,1.523,0,0,1-1.522,1.522H20.564a1.524,1.524,0,0,1-1.522-1.522V59.391H61.651v3.043a1.523,1.523,0,0,1-1.522,1.522H54.042a1.523,1.523,0,0,1-1.522-1.522,1.522,1.522,0,0,0-3.043,0A4.571,4.571,0,0,0,54.042,67h6.087a4.571,4.571,0,0,0,4.565-4.565V47.217c0-4.491-3.576-7.615-4.821-8.567ZM19.044,47.217c0-3.018,2.6-5.34,3.546-6.087H58.107c.953.75,3.546,3.071,3.546,6.087v9.13H49.144L47.91,51.412a1.521,1.521,0,0,0-1.476-1.152H34.26a1.521,1.521,0,0,0-1.476,1.152L31.55,56.347H19.042v-9.13Zm26.964,9.13H34.689L35.45,53.3h9.8l.762,3.043Z" transform="translate(1654.347 5906)" fill="#438d7e"/>
    <path id="Path_39103" data-name="Path 39103" d="M95.87,79H89.783a1.521,1.521,0,0,1-1.522-1.522V40.957a1.522,1.522,0,1,1,3.043,0v35h3.043V25.739a13.711,13.711,0,0,0-13.7-13.7H16.739a13.712,13.712,0,0,0-13.7,13.7V75.957H6.087V36.391A1.522,1.522,0,0,1,7.609,34.87h3.043V31.826H7.609A1.522,1.522,0,0,1,6.087,30.3V25.739A10.664,10.664,0,0,1,16.739,15.087a1.522,1.522,0,0,1,0,3.043A7.617,7.617,0,0,0,9.13,25.739v3.043h3.043A1.522,1.522,0,0,1,13.7,30.3v6.087a1.522,1.522,0,0,1-1.522,1.522H9.13V77.478A1.522,1.522,0,0,1,7.609,79H1.522A1.522,1.522,0,0,1,0,77.478V25.739A16.759,16.759,0,0,1,16.739,9H80.652A16.759,16.759,0,0,1,97.391,25.739V77.478A1.521,1.521,0,0,1,95.87,79Z" transform="translate(1646 5894)" fill="#438d7e"/>
    <path id="Path_39104" data-name="Path 39104" d="M83,35.826H78.435A1.521,1.521,0,0,1,76.913,34.3V28.217A1.521,1.521,0,0,1,78.435,26.7h3.043V23.652a7.617,7.617,0,0,0-7.609-7.609H14.522a1.522,1.522,0,1,1,0-3.043H73.87A10.665,10.665,0,0,1,84.522,23.652v4.565A1.521,1.521,0,0,1,83,29.739H79.957v3.043H83a1.522,1.522,0,0,1,0,3.043Z" transform="translate(1652.783 5896.087)" fill="#438d7e"/>
  </g>
</svg>
