<svg xmlns="http://www.w3.org/2000/svg" width="67.247" height="70" viewBox="0 0 67.247 70">
  <g id="Group_36688" data-name="Group 36688" transform="translate(-9777.245 -7808)">
    <g id="Group_36687" data-name="Group 36687" transform="translate(9777.245 7808)">
      <g id="Group_36675" data-name="Group 36675" transform="translate(24.033 0)">
        <path id="Path_39056" data-name="Path 39056" d="M937.747,273.514h-6.353a1.091,1.091,0,0,1-1.094-1.094V257.094A1.091,1.091,0,0,1,931.394,256h6.357a1.091,1.091,0,0,1,1.094,1.094V272.42A1.1,1.1,0,0,1,937.747,273.514Zm-5.259-2.187h4.17V258.188h-4.17Z" transform="translate(-924.979 -256)" fill="#9fa31f"/>
        <path id="Path_39057" data-name="Path 39057" d="M831.637,602.158h-16.99a1.1,1.1,0,0,1-.907-.483,1.087,1.087,0,0,1-.109-1.021l3.113-7.766a1.1,1.1,0,0,1,1.016-.688h10.764a1.1,1.1,0,0,1,1.016.688l3.113,7.766a1.087,1.087,0,0,1-.109,1.021A1.1,1.1,0,0,1,831.637,602.158Zm-15.372-2.187h13.758l-2.238-5.578H818.5Z" transform="translate(-813.552 -576.878)" fill="#9fa31f"/>
      </g>
      <path id="Path_39058" data-name="Path 39058" d="M784.877,1258.762H763.194a1.091,1.091,0,0,1-1.094-1.094v-23.274a1.091,1.091,0,0,1,1.094-1.094h21.684a1.091,1.091,0,0,1,1.094,1.094v23.274A1.091,1.091,0,0,1,784.877,1258.762Zm-20.59-2.187h19.5v-21.087h-19.5Z" transform="translate(-740.412 -1188.762)" fill="#9fa31f"/>
      <path id="Path_39059" data-name="Path 39059" d="M874.127,1410.335H861.394a1.091,1.091,0,0,1-1.094-1.094v-11.348a1.091,1.091,0,0,1,1.094-1.094h12.733a1.091,1.091,0,0,1,1.094,1.094v11.348A1.094,1.094,0,0,1,874.127,1410.335Zm-11.639-2.187h10.546v-9.16H862.487Z" transform="translate(-834.137 -1344.81)" fill="#9fa31f"/>
      <path id="Path_39060" data-name="Path 39060" d="M308.982,1258.762H287.294a1.091,1.091,0,0,1-1.094-1.094v-23.274a1.091,1.091,0,0,1,1.094-1.094h21.684a1.091,1.091,0,0,1,1.094,1.094v23.274A1.087,1.087,0,0,1,308.982,1258.762Zm-20.594-2.187h19.5v-21.087h-19.5Z" transform="translate(-286.2 -1188.762)" fill="#9fa31f"/>
      <path id="Path_39061" data-name="Path 39061" d="M426.594,1473.465a1.091,1.091,0,0,1-1.094-1.094v-1.777a1.094,1.094,0,0,1,2.188,0v1.777A1.1,1.1,0,0,1,426.594,1473.465Z" transform="translate(-419.152 -1414.197)" fill="#9fa31f"/>
      <path id="Path_39062" data-name="Path 39062" d="M623.994,1473.465a1.091,1.091,0,0,1-1.094-1.094v-1.777a1.094,1.094,0,0,1,2.188,0v1.777A1.1,1.1,0,0,1,623.994,1473.465Z" transform="translate(-607.556 -1414.197)" fill="#9fa31f"/>
      <path id="Path_39063" data-name="Path 39063" d="M763.194,1258.762a1.091,1.091,0,0,1-1.094-1.094v-23.274a1.094,1.094,0,0,1,2.188,0v23.274A1.094,1.094,0,0,1,763.194,1258.762Z" transform="translate(-740.412 -1188.762)" fill="#9fa31f"/>
      <path id="Path_39064" data-name="Path 39064" d="M525.294,1258.762a1.091,1.091,0,0,1-1.094-1.094v-23.274a1.094,1.094,0,0,1,2.188,0v23.274A1.094,1.094,0,0,1,525.294,1258.762Z" transform="translate(-513.354 -1188.762)" fill="#9fa31f"/>
      <path id="Path_39065" data-name="Path 39065" d="M1260.777,1258.762h-21.684a1.091,1.091,0,0,1-1.094-1.094v-23.274a1.091,1.091,0,0,1,1.094-1.094h21.684a1.091,1.091,0,0,1,1.094,1.094v23.274A1.094,1.094,0,0,1,1260.777,1258.762Zm-20.594-2.187h19.5v-21.087h-19.5v21.087Z" transform="translate(-1194.624 -1188.762)" fill="#9fa31f"/>
      <path id="Path_39066" data-name="Path 39066" d="M1378.194,1473.465a1.091,1.091,0,0,1-1.094-1.094v-1.777a1.094,1.094,0,0,1,2.188,0v1.777A1.094,1.094,0,0,1,1378.194,1473.465Z" transform="translate(-1327.385 -1414.197)" fill="#9fa31f"/>
      <path id="Path_39067" data-name="Path 39067" d="M1575.594,1473.465a1.091,1.091,0,0,1-1.094-1.094v-1.777a1.094,1.094,0,0,1,2.188,0v1.777A1.094,1.094,0,0,1,1575.594,1473.465Z" transform="translate(-1515.788 -1414.197)" fill="#9fa31f"/>
      <path id="Path_39068" data-name="Path 39068" d="M1476.894,1258.762a1.091,1.091,0,0,1-1.094-1.094v-23.274a1.094,1.094,0,0,1,2.188,0v23.274A1.091,1.091,0,0,1,1476.894,1258.762Z" transform="translate(-1421.587 -1188.762)" fill="#9fa31f"/>
      <path id="Path_39069" data-name="Path 39069" d="M1329.3,1155.593h-14.807a1.091,1.091,0,0,1-1.094-1.094v-3.805a1.091,1.091,0,0,1,1.094-1.094H1329.3a1.091,1.091,0,0,1,1.094,1.094v3.805A1.094,1.094,0,0,1,1329.3,1155.593Zm-13.713-2.187h12.619v-1.618h-12.619Z" transform="translate(-1266.588 -1108.876)" fill="#9fa31f"/>
      <path id="Path_39070" data-name="Path 39070" d="M926.75,1151.87h-7.456a1.091,1.091,0,0,1-1.094-1.094v-3.983a1.091,1.091,0,0,1,1.094-1.094h7.451a1.091,1.091,0,0,1,1.094,1.094v3.983A1.087,1.087,0,0,1,926.75,1151.87Zm-6.362-2.187h5.264v-1.8h-5.264Z" transform="translate(-889.398 -1105.154)" fill="#9fa31f"/>
      <path id="Path_39071" data-name="Path 39071" d="M1359.291,948.339a1.091,1.091,0,0,1-1.094-1.094v-7.082a1.672,1.672,0,0,0-1.021-1.385,1.789,1.789,0,0,0-1.764.164,2.2,2.2,0,0,0-.606,2.105,1.094,1.094,0,1,1-2.169.283,4.162,4.162,0,0,1,1.458-4.129,3.965,3.965,0,0,1,3.947-.428,3.828,3.828,0,0,1,2.333,3.149l0,.018a.881.881,0,0,1,.009.155v7.15A1.1,1.1,0,0,1,1359.291,948.339Z" transform="translate(-1303.984 -905.428)" fill="#9fa31f"/>
      <g id="Group_36676" data-name="Group 36676" transform="translate(23.908 32.375)">
        <path id="Path_39072" data-name="Path 39072" d="M868.391,976.759H862.74a4.748,4.748,0,0,1-4.74-4.74v-4.525a1.091,1.091,0,0,1,1.094-1.094h12.943a1.091,1.091,0,0,1,1.094,1.094v4.525A4.745,4.745,0,0,1,868.391,976.759Zm-8.2-8.171v3.432a2.554,2.554,0,0,0,2.552,2.552h5.651a2.554,2.554,0,0,0,2.552-2.552v-3.432Z" transform="translate(-855.849 -966.4)" fill="#9fa31f"/>
        <path id="Path_39073" data-name="Path 39073" d="M1145.245,1012.688h-2.151a1.094,1.094,0,0,1,0-2.187h2.151a1.094,1.094,0,0,1,0,2.188Z" transform="translate(-1126.906 -1008.49)" fill="#9fa31f"/>
        <path id="Path_39074" data-name="Path 39074" d="M814.045,1012.688h-2.151a1.094,1.094,0,0,1,0-2.187h2.151a1.094,1.094,0,0,1,0,2.188Z" transform="translate(-810.8 -1008.49)" fill="#9fa31f"/>
      </g>
      <g id="Group_36684" data-name="Group 36684" transform="translate(1.308 7.661)">
        <g id="Group_36680" data-name="Group 36680">
          <path id="Path_39075" data-name="Path 39075" d="M334.943,426.288H315.994a1.094,1.094,0,0,1,0-2.187h18.949a1.094,1.094,0,0,1,0,2.188Z" transform="translate(-314.9 -424.1)" fill="#9fa31f"/>
          <g id="Group_36679" data-name="Group 36679" transform="translate(2.057)">
            <g id="Group_36677" data-name="Group 36677">
              <path id="Path_39076" data-name="Path 39076" d="M417.894,435.42a1.091,1.091,0,0,1-1.094-1.094v-9.133a1.094,1.094,0,0,1,2.188,0v9.133A1.094,1.094,0,0,1,417.894,435.42Z" transform="translate(-414.213 -424.1)" fill="#9fa31f"/>
              <path id="Path_39077" data-name="Path 39077" d="M366.3,632.161H361.13a1.1,1.1,0,0,1-1.089-1.226l.661-5.473a1.093,1.093,0,0,1,1.085-.962h3.851a1.093,1.093,0,0,1,1.085.962l.661,5.473a1.09,1.09,0,0,1-.269.857A1.079,1.079,0,0,1,366.3,632.161Zm-3.937-2.187h2.7l-.4-3.286h-1.909Z" transform="translate(-360.033 -615.367)" fill="#9fa31f"/>
            </g>
            <g id="Group_36678" data-name="Group 36678" transform="translate(10.025)">
              <path id="Path_39078" data-name="Path 39078" d="M633.894,435.42a1.091,1.091,0,0,1-1.094-1.094v-9.133a1.094,1.094,0,0,1,2.188,0v9.133A1.1,1.1,0,0,1,633.894,435.42Z" transform="translate(-630.394 -424.1)" fill="#9fa31f"/>
              <path id="Path_39079" data-name="Path 39079" d="M584.492,632.256h-1.978a2.509,2.509,0,0,1-2.493-2.807l.469-3.887a1.093,1.093,0,0,1,1.085-.962h3.851a1.093,1.093,0,0,1,1.085.962l.469,3.887a2.509,2.509,0,0,1-2.488,2.807Zm-1.946-5.473-.351,2.926a.321.321,0,0,0,.319.36h1.978a.317.317,0,0,0,.242-.109.306.306,0,0,0,.077-.251l-.351-2.926Z" transform="translate(-580.004 -615.463)" fill="#9fa31f"/>
            </g>
          </g>
        </g>
        <g id="Group_36683" data-name="Group 36683" transform="translate(43.495)">
          <path id="Path_39080" data-name="Path 39080" d="M1289.343,426.288h-18.949a1.094,1.094,0,0,1,0-2.187h18.949a1.094,1.094,0,0,1,0,2.188Z" transform="translate(-1269.3 -424.1)" fill="#9fa31f"/>
          <g id="Group_36682" data-name="Group 36682" transform="translate(1.864)">
            <path id="Path_39081" data-name="Path 39081" d="M1371.494,435.42a1.091,1.091,0,0,1-1.094-1.094v-9.133a1.094,1.094,0,0,1,2.188,0v9.133A1.1,1.1,0,0,1,1371.494,435.42Z" transform="translate(-1367.656 -424.1)" fill="#9fa31f"/>
            <path id="Path_39082" data-name="Path 39082" d="M1314.037,631.874a3.837,3.837,0,1,1,3.837-3.837A3.843,3.843,0,0,1,1314.037,631.874Zm0-5.487a1.65,1.65,0,1,0,1.65,1.65A1.652,1.652,0,0,0,1314.037,626.387Z" transform="translate(-1310.2 -615.081)" fill="#9fa31f"/>
            <g id="Group_36681" data-name="Group 36681" transform="translate(9.734)">
              <path id="Path_39083" data-name="Path 39083" d="M1585.094,435.42a1.091,1.091,0,0,1-1.094-1.094v-9.133a1.094,1.094,0,0,1,2.188,0v9.133A1.1,1.1,0,0,1,1585.094,435.42Z" transform="translate(-1581.256 -424.1)" fill="#9fa31f"/>
              <path id="Path_39084" data-name="Path 39084" d="M1527.637,631.874a3.837,3.837,0,1,1,3.837-3.837A3.843,3.843,0,0,1,1527.637,631.874Zm0-5.487a1.65,1.65,0,1,0,1.65,1.65A1.652,1.652,0,0,0,1527.637,626.387Z" transform="translate(-1523.8 -615.081)" fill="#9fa31f"/>
            </g>
          </g>
        </g>
      </g>
      <g id="Group_36685" data-name="Group 36685" transform="translate(28.916 48.12)">
        <circle id="Ellipse_343" data-name="Ellipse 343" cx="1.29" cy="1.29" r="1.29" fill="#9fa31f"/>
        <circle id="Ellipse_344" data-name="Ellipse 344" cx="1.29" cy="1.29" r="1.29" transform="translate(6.836)" fill="#9fa31f"/>
      </g>
      <g id="Group_36686" data-name="Group 36686" transform="translate(3.695 31.851)">
        <path id="Path_39085" data-name="Path 39085" d="M617.048,1009.034a.493.493,0,0,1-.082,0,1.1,1.1,0,0,1-1.012-1.171l.314-4.27h-2.475a1.094,1.094,0,0,1,0-2.187h3.65a1.093,1.093,0,0,1,1.089,1.176l-.4,5.441A1.083,1.083,0,0,1,617.048,1009.034Z" transform="translate(-601.516 -999.281)" fill="#9fa31f"/>
        <path id="Path_39086" data-name="Path 39086" d="M379.052,969.766h-7.579a1.1,1.1,0,0,1-1.094-1.03l-.506-8.477-2.406-3.664a1.11,1.11,0,0,1-.05-1.121,1.091,1.091,0,0,1,.962-.574h11.307a1.086,1.086,0,0,1,.793.342,1.108,1.108,0,0,1,.3.807l-.638,12.678A1.091,1.091,0,0,1,379.052,969.766Zm-6.549-2.187h5.505l.529-10.491h-8.126l1.445,2.2a1.085,1.085,0,0,1,.187.57Z" transform="translate(-367.289 -954.9)" fill="#9fa31f"/>
      </g>
    </g>
  </g>
</svg>
