<svg xmlns="http://www.w3.org/2000/svg" width="82.412" height="70" viewBox="0 0 82.412 70">
  <g id="Group_36697" data-name="Group 36697" transform="translate(-31.118 -64.989)">
    <path id="Path_39142" data-name="Path 39142" d="M110.343,92.816c5.349,0,11.593-1.186,11.593-4.527,0-1.311-.964-2.289-2.456-2.995l-7.569-17.366H125.54v32.93H123.16a1.465,1.465,0,0,0-1.446,1.739h-1.248a1.47,1.47,0,1,0,0,2.939h13.018a1.47,1.47,0,1,0,0-2.939h-1.232a1.465,1.465,0,0,0-1.446-1.739h-2.325V67.928h14.254l-7.359,17.491c-1.346.7-2.2,1.635-2.2,2.87,0,3.341,6.248,4.527,11.6,4.527s11.6-1.186,11.6-4.527c0-1.312-.966-2.29-2.46-3l-7.569-17.364h2.987a1.47,1.47,0,1,0,0-2.939H104.7a1.47,1.47,0,0,0,0,2.939h3.611l-7.358,17.49c-1.348.7-2.2,1.635-2.2,2.871C98.748,91.63,104.994,92.816,110.343,92.816Zm0-2.939c-4.751,0-7.641-.992-8.48-1.588.84-.6,3.729-1.588,8.48-1.588s7.639.992,8.478,1.588C117.982,88.884,115.093,89.877,110.343,89.877Zm34.429,0c-4.751,0-7.641-.992-8.48-1.588.84-.6,3.729-1.588,8.48-1.588s7.641.992,8.48,1.588C152.412,88.884,149.523,89.877,144.772,89.877Zm0-6.115a31.479,31.479,0,0,0-5.711.492l5.5-13.064,5.674,13.017A31.924,31.924,0,0,0,144.772,83.761ZM110.127,71.19,115.8,84.206a31.932,31.932,0,0,0-5.457-.445,31.493,31.493,0,0,0-5.713.492Z" transform="translate(-55.238)" fill="#cc9a3e"/>
    <path id="Path_39143" data-name="Path 39143" d="M112.746,272.986a5.3,5.3,0,0,0-7.332-1.726l-.5.315a5.38,5.38,0,0,0-8.917-3.375l-1.723,1.534a4.511,4.511,0,0,0-.84-1.312,4.451,4.451,0,0,0-6.162-.4l-9.765,8.19a1.469,1.469,0,0,0-.3.349,4.217,4.217,0,0,1-.529-.252L72.208,273.8a12.22,12.22,0,0,0-11.784-1.025L52.764,276V274.3a1.47,1.47,0,0,0-1.47-1.47H32.588a1.469,1.469,0,0,0-1.294,2.166l12.954,24.084a1.464,1.464,0,0,0,1.294.773h5.753a1.47,1.47,0,0,0,1.47-1.47V295.4l5.03-3.159a2.579,2.579,0,0,1,2.648-.057l5.887,3.35a15.515,15.515,0,0,0,7.658,2.022,15.331,15.331,0,0,0,2.508-.206l8.749-1.448A24.521,24.521,0,0,0,95.7,291.5l15.658-11.484A5.269,5.269,0,0,0,112.746,272.986ZM49.825,296.912h-3.4L35.048,275.768H49.825Zm43.786-22.656,4.335-3.86a2.313,2.313,0,0,1,1.884-.6,2.416,2.416,0,0,1,1.712.991,2.433,2.433,0,0,1-.146,3.048c-.027.028-.052.057-.076.086a2.456,2.456,0,0,1-.377.316l-9.254,6.305a5.032,5.032,0,0,0-1.981-2.783l3.376-2.956A4.309,4.309,0,0,0,93.611,274.257Zm-4.45-3.985a1.52,1.52,0,0,1,2.1.14,1.537,1.537,0,0,1,.165,1.852l-5.163,4.6H81.305Zm20.459,7.375L93.963,289.128a21.589,21.589,0,0,1-9.2,3.872l-8.749,1.448a12.6,12.6,0,0,1-8.229-1.471l-5.891-3.35a5.526,5.526,0,0,0-5.667.122l-3.223,2.024V279.092l8.631-3.643a9.361,9.361,0,0,1,9.009.834l4.583,2.582a7.209,7.209,0,0,0,3.549.931h8.046a2.116,2.116,0,0,1,.406,4.194l-2.627.547c-.086.039-9.062,3.883-16.5.039a1.47,1.47,0,1,0-1.349,2.613c8.717,4.5,18.622.224,18.726.136l2.315-.45a5.06,5.06,0,0,0,3.4-2.439l11.408-7.772a5.438,5.438,0,0,0,.828-.695l3.543-2.219a2.357,2.357,0,0,1,2.649,3.9Z" transform="translate(0 -164.863)" fill="#cc9a3e"/>
  </g>
</svg>
