<svg xmlns="http://www.w3.org/2000/svg" width="86.355" height="70.5" viewBox="0 0 86.355 70.5">
  <g id="Group_36603" data-name="Group 36603" transform="translate(0.254 -5.67)">
    <path id="Path_38919" data-name="Path 38919" d="M.066,58.515a.659.659,0,0,0,.04.631l2.47,3.866a.672.672,0,0,0,.55.309h.027c.55-.027,1.087-.054,1.611-.094L7.7,66.7a.652.652,0,0,0,.51.228.371.371,0,0,0,.121-.013c.926-.161,1.8-.376,2.631-.6h7.02a5.48,5.48,0,0,0,3.5-1.221c.215-.174.43-.362.631-.55a10.347,10.347,0,0,0,9.866-10.483V45.186h.993a.659.659,0,0,0,.658-.658A12.661,12.661,0,0,0,25.69,32.8V25.763a.659.659,0,0,0-.658-.658h-.7V8.918a.659.659,0,0,0-.658-.658H18.334a.659.659,0,0,0-.658.658v16.2h-.7a.659.659,0,0,0-.658.658V32.81A12.641,12.641,0,0,0,8.374,44.542a.659.659,0,0,0,.658.658h1.275C11.166,53.817,8.75,57,.576,58.139A.649.649,0,0,0,.066,58.515Zm6.3,4.537c3.034-.389,5.49-1.275,7.329-3.289,2.523-2.779,3.57-7.436,3.289-14.577h4.081C22.213,56.8,19.287,62.609,10.8,65h-.04a.643.643,0,0,0-.349.121c-.617.161-1.262.309-1.946.443ZM17.972,65H14.549c6.5-3.128,8.832-9.289,7.812-19.812h3.758c1.007,10.523-.765,14.685-4.658,18.174a.526.526,0,0,0-.134.107c-.228.2-.456.4-.7.591A4.089,4.089,0,0,1,17.972,65Zm12.7-10.94a9.13,9.13,0,0,1-6.98,8.98c3.262-3.53,4.685-8.094,3.772-17.852H30.67ZM18.992,9.575h4.013V25.119H18.992ZM17.636,26.434h6.725v5.919a12.316,12.316,0,0,0-6.738,0V26.434Zm3.369,6.779a11,11,0,0,1,3.53.577.637.637,0,0,0,.5.242A.253.253,0,0,0,25.14,34a11.329,11.329,0,0,1,7.154,9.866H9.7A11.345,11.345,0,0,1,21.005,33.213ZM11.636,45.186H15.65c.268,6.725-.685,11.221-2.94,13.691-1.772,1.946-4.322,2.685-7.557,2.98a.71.71,0,0,0-.376.027c-.416.027-.846.067-1.289.081L1.77,59.28C9.838,57.9,12.482,54.072,11.636,45.186Z" transform="translate(0 0.801)" fill="#986d34" stroke="#986d34" stroke-width="0.5"/>
    <path id="Path_38920" data-name="Path 38920" d="M73.469,64.242a.656.656,0,0,0,.349-.577V59.4a4.251,4.251,0,0,0-4.242-4.242h-.94a.852.852,0,0,1-.631-.268.828.828,0,0,1-.242-.644l.349-10.107a2.821,2.821,0,0,0-.792-2.067,2.736,2.736,0,0,0-1.651-.819l1.235-12.322h2.148A1.991,1.991,0,0,0,71.04,26.94V21.974a1.991,1.991,0,0,0-1.987-1.987H66.006a5.686,5.686,0,0,0-1.852-5.168,5.46,5.46,0,0,0-4.282-1.181,5.523,5.523,0,0,0-1.356-3.651,5,5,0,0,0-3.7-1.718,4.951,4.951,0,0,0-4.2,2.362,5.307,5.307,0,0,0-6.2-1.02,6.733,6.733,0,0,0-5.96-3.691c-3.5,0-6.483,3.329-6.752,7.383a6.526,6.526,0,0,0-3.826,1.772,8.084,8.084,0,0,0-2.161,4.9H23.577A1.991,1.991,0,0,0,21.59,21.96v4.966a1.991,1.991,0,0,0,1.987,1.987h2.148l3.409,34.121A3.051,3.051,0,0,0,32.181,65.8H55.187c-.94,2.993-2.322,6.174-3.517,6.564a.722.722,0,0,0-.456.523.677.677,0,0,0,.255.644,10.217,10.217,0,0,0,3.5,1.463.721.721,0,0,0,.282.067h.013a29.226,29.226,0,0,0,3.987.631.545.545,0,0,0,.255.054c.027,0,.067-.013.094-.013,1.342.121,2.765.188,4.2.188.953,0,1.906-.04,2.859-.094a.674.674,0,0,0,.161.027.785.785,0,0,0,.255-.054c1.3-.081,2.577-.215,3.8-.389.04,0,.067.013.107.013a.575.575,0,0,0,.3-.081,29.384,29.384,0,0,0,3.49-.752h.013a.621.621,0,0,0,.336-.107,12.886,12.886,0,0,0,3.034-1.275.672.672,0,0,0,.309-.55.646.646,0,0,0-.309-.564A9.239,9.239,0,0,1,73.469,64.242ZM56.181,63.007V61.638H72.5v1.369ZM66.8,44.094,66.449,54.2a2.2,2.2,0,0,0,2.2,2.282h.94A2.91,2.91,0,0,1,72.5,59.4v.913H56.181V59.4a2.91,2.91,0,0,1,2.913-2.913h.859a2.2,2.2,0,0,0,2.2-2.282L61.8,44.094a1.466,1.466,0,0,1,.43-1.1,1.49,1.49,0,0,1,1.087-.456h1.973a1.512,1.512,0,0,1,1.087.456A1.528,1.528,0,0,1,66.8,44.094ZM53.55,40.712a2.791,2.791,0,0,0-2.685-2.094H42.1a2.778,2.778,0,0,0-2.7,2.134h-.631a9.691,9.691,0,0,1-8.953-5.946l-2.47-5.879H65.187l-3.664,6.752A9.666,9.666,0,0,1,53.55,40.712Zm-1.221.7a1.467,1.467,0,0,1-1.463,1.463H42.1a1.463,1.463,0,1,1,0-2.926h8.765A1.467,1.467,0,0,1,52.328,41.41Zm-23.5-25.369a5.735,5.735,0,0,1,4.322-1.477.62.62,0,0,0,.671-.644.65.65,0,0,0-.644-.671h-.107c.3-3.262,2.671-5.987,5.4-5.987a5.538,5.538,0,0,1,5.423,5.1.661.661,0,0,0,1.315-.134,7.742,7.742,0,0,0-.282-1.369c1.047-.443,3.544-1.154,5.114,1.195a4.916,4.916,0,0,0-.161,1.181.658.658,0,0,0,1.315,0,3.626,3.626,0,0,1,3.624-3.624,3.711,3.711,0,0,1,2.725,1.275,4.322,4.322,0,0,1,1.02,3.1c-.148.054-.282.094-.43.148a.664.664,0,0,0,.523,1.221,4.4,4.4,0,0,1,4.658.5,4.456,4.456,0,0,1,1.369,4.161H27.067A6.743,6.743,0,0,1,28.825,16.041ZM22.946,26.954V21.987a.659.659,0,0,1,.658-.658h45.45a.659.659,0,0,1,.658.658v4.966a.659.659,0,0,1-.658.658H23.59A.656.656,0,0,1,22.946,26.954ZM32.207,64.5a1.735,1.735,0,0,1-1.732-1.57L27.442,32.578,28.6,35.316a10.989,10.989,0,0,0,10.161,6.752H39.4a2.777,2.777,0,0,0,2.7,2.121h8.765a2.791,2.791,0,0,0,2.711-2.161,10.988,10.988,0,0,0,9.1-5.718l2.644-4.859-.98,9.772h-1.02A2.821,2.821,0,0,0,60.5,44.148l.349,10.107a.84.84,0,0,1-.255.644.852.852,0,0,1-.631.268h-.859a4.251,4.251,0,0,0-4.242,4.242v4.268a.659.659,0,0,0,.658.658h.121l-.04.161Zm42.752,8.7A9.324,9.324,0,0,1,72.5,69.759a.658.658,0,1,0-1.195.55,12.008,12.008,0,0,0,2.148,3.3c-.7.161-1.423.322-2.188.443a9.6,9.6,0,0,1-2.537-5.369.661.661,0,0,0-1.3.228A11.235,11.235,0,0,0,69.7,74.282c-.819.094-1.664.174-2.523.228a7.673,7.673,0,0,1-1.342-4.255.682.682,0,0,0-.711-.617.664.664,0,0,0-.617.711A10.021,10.021,0,0,0,65.6,74.6c-1.651.054-3.3.04-4.872-.054a12.085,12.085,0,0,0,1.315-4.134.659.659,0,1,0-1.3-.2,9.187,9.187,0,0,1-1.53,4.215c-.953-.094-1.852-.215-2.685-.376a10,10,0,0,0,2.322-5.5.663.663,0,1,0-1.315-.161,8.5,8.5,0,0,1-2.483,5.315,10.69,10.69,0,0,1-1.933-.7c1.987-1.866,3.4-6.765,3.879-8.658H72.14a10.369,10.369,0,0,0,4.43,8.268C76.1,72.819,75.55,73.007,74.959,73.2Z" transform="translate(7.388)" fill="#986d34" stroke="#986d34" stroke-width="0.5"/>
    <path id="Path_38921" data-name="Path 38921" d="M51.98,35.54a1.96,1.96,0,1,0,1.96-1.96A1.962,1.962,0,0,0,51.98,35.54Zm2.6,0a.644.644,0,0,1-.644.644.636.636,0,0,1-.644-.644.644.644,0,1,1,1.289,0Z" transform="translate(17.79 9.468)" fill="#986d34" stroke="#986d34" stroke-width="0.5"/>
  </g>
</svg>
