<svg xmlns="http://www.w3.org/2000/svg" width="80.241" height="80" viewBox="0 0 80.241 80">
  <g id="Group_36587" data-name="Group 36587" transform="translate(-9893.832 -5561)">
    <path id="Path_38898" data-name="Path 38898" d="M16.462,54.575c.946-.736,2.2-.426,3.359.83a80.91,80.91,0,0,0,7,6.878c1.7,1.524,1.842,3.995,1.842,6.395a48.484,48.484,0,0,0,.854,9.594h-10.7c.176-5.432-1.53-7.755-4.1-10.582-.372-.41-.7-.767-1-1.09a11.354,11.354,0,0,1-3.375-5.793L5.011,42.275c-.394-1.373-.127-2.379.7-2.625a2.091,2.091,0,0,1,2.415,1.692A84.82,84.82,0,0,0,13.891,54.9a3.658,3.658,0,0,0-.139.8c-.2,3.033,2.972,6.52,5.959,9.55.3.3.553.56.751.77a1.007,1.007,0,1,0,1.465-1.383c-.213-.227-.477-.493-.781-.8-1.8-1.824-5.54-5.618-5.384-8a1.644,1.644,0,0,1,.7-1.25Zm5.807-32.747v3.94L44.353,9.356a1.006,1.006,0,0,1,1.2,0L67.637,25.77v-3.94L44.953,4.969,22.269,21.829ZM41.082,47.653V31.9a1.008,1.008,0,0,0-1.007-1.007H32.89A1.008,1.008,0,0,0,31.883,31.9V47.653H27.756V24.2l17.2-12.782L62.151,24.2V47.653H41.082ZM57.016,30.891H46.479A1.008,1.008,0,0,0,45.472,31.9v4.516a1.008,1.008,0,0,0,1.007,1.007H57.016a1.008,1.008,0,0,0,1.007-1.007V31.9A1.008,1.008,0,0,0,57.016,30.891Zm-12.064-5.41a4.638,4.638,0,1,0-4.638-4.638A4.643,4.643,0,0,0,44.953,25.482ZM16.115,84.968h16.1V80.285h-16.1ZM24.542,51.3H65.364V49.668H24.542ZM44.953,23.466a2.623,2.623,0,1,0-2.623-2.623A2.626,2.626,0,0,0,44.953,23.466ZM39.068,47.653V32.906H33.9V47.653h5.171ZM56.009,32.906H47.487v2.5h8.522Zm3.176,47.38H57.693v4.683h16.1V80.286H59.186ZM84.2,39.65a2.089,2.089,0,0,0-2.414,1.692A85.9,85.9,0,0,1,76.017,54.9a3.659,3.659,0,0,1,.139.794c.2,3.033-2.972,6.52-5.959,9.55-.3.3-.553.56-.751.77a1.007,1.007,0,0,1-1.466-1.382c.213-.227.477-.493.782-.8,1.8-1.824,5.54-5.618,5.384-8a1.644,1.644,0,0,0-.7-1.25c-.946-.736-2.2-.426-3.359.83a80.912,80.912,0,0,1-7,6.878c-1.7,1.524-1.842,3.995-1.842,6.395a48.414,48.414,0,0,1-.855,9.594h10.7c-.176-5.432,1.53-7.755,4.1-10.582.372-.41.7-.767,1-1.09a11.354,11.354,0,0,0,3.375-5.793l5.329-18.531c.394-1.373.127-2.379-.7-2.625Z" transform="translate(9889 5556.031)" fill="#4074bf"/>
  </g>
</svg>
