<svg xmlns="http://www.w3.org/2000/svg" width="67.308" height="70" viewBox="0 0 67.308 70">
  <path id="Barbershop" d="M29.923,3a16.158,16.158,0,0,0-6.562,1.683,12.843,12.843,0,0,0-6.9,11.779v38.7a9.07,9.07,0,0,0-4.038-1.01,9.423,9.423,0,1,0,9.339,10.769h.084V46.077l5.385,4.038V64.923h.084a9.429,9.429,0,1,0,9.339-10.769,9.07,9.07,0,0,0-4.038,1.01V3ZM43.385,3V8.385H54.154v2.692H43.385v5.385H54.154v2.692H43.385v5.385H54.154v2.692H43.385v5.385H54.154v2.692H43.385v5.385H54.154v2.692H43.385v5.385H54.154V73H70.308V3H43.385ZM59.538,8.385h5.385V67.615H59.538Zm-32.308.673V43.385l-5.385-4.038V16.462c0-4.409,1.807-5.939,3.87-6.983A4.519,4.519,0,0,1,27.231,9.058ZM12.423,59.538a4.038,4.038,0,1,1-4.038,4.038A4,4,0,0,1,12.423,59.538Zm24.231,0a4.038,4.038,0,1,1-4.038,4.038A4,4,0,0,1,36.654,59.538Z" transform="translate(-3 -3)" fill="#934db0"/>
</svg>
