<svg xmlns="http://www.w3.org/2000/svg" width="70" height="70" viewBox="0 0 70 70">
  <g id="Group_36690" data-name="Group 36690" transform="translate(-609 -6264)">
    <path id="Path_39091" data-name="Path 39091" d="M12,8.5A3.5,3.5,0,1,0,8.5,12,3.5,3.5,0,0,0,12,8.5Zm-4.667,0A1.167,1.167,0,1,1,8.5,9.667,1.167,1.167,0,0,1,7.333,8.5Z" transform="translate(607.5 6262.5)" fill="#62a73a"/>
    <path id="Path_39092" data-name="Path 39092" d="M12,25.5A3.5,3.5,0,1,0,8.5,29,3.5,3.5,0,0,0,12,25.5Zm-4.667,0A1.167,1.167,0,1,1,8.5,26.667,1.167,1.167,0,0,1,7.333,25.5Z" transform="translate(607.5 6265.333)" fill="#62a73a"/>
    <path id="Path_39093" data-name="Path 39093" d="M61.162,30.338A1.167,1.167,0,0,0,60.333,30H51a1.167,1.167,0,0,0-1.167,1.167v17.5H48.667v-31.5A1.167,1.167,0,0,0,47.5,16H28.833a1.167,1.167,0,0,0-1.167,1.167V32.333H15.393l.268-.257A1.225,1.225,0,0,0,16,31.248v-4.83a1.225,1.225,0,0,0-.338-.828L12.5,22.44v-7l2.9-2.94H19.5v2.333h-.77a1.167,1.167,0,0,0-.817.338l-2.742,2.742a1.167,1.167,0,0,0-.338.817V22.6a1.167,1.167,0,0,0,.338.817l2.742,2.742,1.645-1.657-2.392-2.392V19.22l2.053-2.053h2.893l2.053,2.053v2.893l-2.333,2.392,1.645,1.657L26.22,23.42a1.167,1.167,0,0,0,.338-.817V18.73a1.167,1.167,0,0,0-.338-.817l-2.742-2.742a1.167,1.167,0,0,0-.817-.338h-.828V12.5h5.833a1.167,1.167,0,0,0,1.167-1.167V6.667A1.167,1.167,0,0,0,27.667,5.5H15.405L12.243,2.338A1.167,1.167,0,0,0,11.415,2H6.585a1.167,1.167,0,0,0-.828.338L2.338,5.757A1.167,1.167,0,0,0,2,6.585v4.83a1.167,1.167,0,0,0,.338.828L5.5,15.405v7l-3.162,3.15A1.225,1.225,0,0,0,2,26.383v4.83a1.225,1.225,0,0,0,.338.828l1.867,1.867L3.54,48.667H3.167A1.167,1.167,0,0,0,2,49.833v14A1.167,1.167,0,0,0,3.167,65h3.5a7,7,0,1,0,14,0H53.333a7,7,0,1,0,14,0h3.5A1.167,1.167,0,0,0,72,63.833V41.667a1.167,1.167,0,0,0-.338-.828Zm8.505,18.328H56.833V37h7.688l5.145,5.145ZM30,48.667v-14h4.667V40.5a1.167,1.167,0,0,0,1.167,1.167H40.5A1.167,1.167,0,0,0,41.667,40.5V34.667h4.667v14Zm-11.667-14h2.333v4.667H18.333Zm-1.167,7h4.667A1.167,1.167,0,0,0,23,40.5V34.667h4.667v14H11.333v-14H16V40.5A1.167,1.167,0,0,0,17.167,41.667Zm19.833-7h2.333v4.667H37Zm0-16.333h2.333V23H37Zm-2.333,0v5.833a1.167,1.167,0,0,0,1.167,1.167H40.5a1.167,1.167,0,0,0,1.167-1.167V18.333h4.667v14H30v-14ZM7.833,16h2.333v5.833H7.833ZM26.5,10.167H16V7.833H26.5ZM4.333,7.063l2.73-2.73h3.873l2.73,2.73v3.873l-2.73,2.73H7.063l-2.73-2.73Zm0,19.833,2.73-2.73h3.873l2.73,2.73V30.77L12.1,32.333H10.167A1.167,1.167,0,0,0,9,33.5H7.063l-2.73-2.73Zm2.123,8.937H9V48.667H5.885Zm7.21,33.833A4.667,4.667,0,1,1,18.333,65,4.667,4.667,0,0,1,13.667,69.667Zm46.667,0A4.667,4.667,0,1,1,65,65,4.667,4.667,0,0,1,60.333,69.667Zm6.592-7a7,7,0,0,0-13.183,0H20.258a7,7,0,0,0-13.183,0H4.333V51H51a1.167,1.167,0,0,0,1.167-1.167v-17.5h7.688l2.333,2.333H55.667A1.167,1.167,0,0,0,54.5,35.833v14A1.167,1.167,0,0,0,55.667,51h14V62.667Z" transform="translate(607 6262)" fill="#62a73a"/>
    <path id="Path_39094" data-name="Path 39094" d="M12.5,53A3.5,3.5,0,1,0,16,56.5,3.5,3.5,0,0,0,12.5,53Zm0,4.667A1.167,1.167,0,1,1,13.667,56.5,1.167,1.167,0,0,1,12.5,57.667Z" transform="translate(608.167 6270.5)" fill="#62a73a"/>
    <path id="Path_39095" data-name="Path 39095" d="M52.5,53A3.5,3.5,0,1,0,56,56.5,3.5,3.5,0,0,0,52.5,53Zm0,4.667A1.167,1.167,0,1,1,53.667,56.5,1.167,1.167,0,0,1,52.5,57.667Z" transform="translate(614.833 6270.5)" fill="#62a73a"/>
  </g>
</svg>
