<svg xmlns="http://www.w3.org/2000/svg" width="71.538" height="60" viewBox="0 0 71.538 60">
  <g id="Group_36691" data-name="Group 36691" transform="translate(-1 -6)">
    <path id="Path_39096" data-name="Path 39096" d="M45.462,48a3.462,3.462,0,1,0,3.462,3.462A3.466,3.466,0,0,0,45.462,48Zm0,4.615a1.154,1.154,0,1,1,1.154-1.154A1.155,1.155,0,0,1,45.462,52.615Z" transform="translate(6.308 6.462)" fill="#be4e55"/>
    <path id="Path_39097" data-name="Path 39097" d="M16.462,48a3.462,3.462,0,1,0,3.462,3.462A3.466,3.466,0,0,0,16.462,48Zm0,4.615a1.154,1.154,0,1,1,1.154-1.154A1.155,1.155,0,0,1,16.462,52.615Z" transform="translate(1.846 6.462)" fill="#be4e55"/>
    <path id="Path_39098" data-name="Path 39098" d="M69.077,42.923h-.209a3.3,3.3,0,0,0-.8-1.277,3.391,3.391,0,0,0-2.454-1.03H63.744l-.647-.57c-.556-.486-1.137-.957-1.727-1.4A30.644,30.644,0,0,0,49.46,33.22V24.638l-3.2-.535a21.75,21.75,0,0,0-1.824-4.409l1.881-2.638L38.405,9.144l-2.64,1.881A21.711,21.711,0,0,0,31.357,9.2L30.823,6H19.639L19.1,9.2a21.711,21.711,0,0,0-4.409,1.824l-2.64-1.881L4.143,17.055l1.881,2.638A21.75,21.75,0,0,0,4.2,24.1L1,24.638V35.822l3.2.535a21.75,21.75,0,0,0,1.824,4.409L4.143,43.4l2.009,2.009L3.669,46A3.485,3.485,0,0,0,1,49.362v7.408a3.466,3.466,0,0,0,3.462,3.462h6.12a8.06,8.06,0,0,0,15.455,0H44.043a8.06,8.06,0,0,0,15.455,0h9.579a3.466,3.466,0,0,0,3.462-3.462V46.385A3.466,3.466,0,0,0,69.077,42.923Zm1.154,3.462v6.923H64.462V51.7a1.147,1.147,0,0,1,.2-.643l3.882-5.83h.535A1.155,1.155,0,0,1,70.231,46.385Zm-8.655-4.6,1.3,1.142h2.744a1.129,1.129,0,0,1,.822.353,1.1,1.1,0,0,1,.3.508L62.748,49.77a3.4,3.4,0,0,0-.594,1.934v1.6H58.372a8.078,8.078,0,0,0-5.448-3.373V42.782a67.769,67.769,0,0,0,7.507-1.932C60.817,41.154,61.2,41.457,61.576,41.781ZM45.167,53.308H24.89a7.972,7.972,0,0,0-3.121-2.643V48.8a8.731,8.731,0,0,1,1.395-4.719h16.5a69.8,69.8,0,0,0,10.95-.891v6.749A8.065,8.065,0,0,0,45.167,53.308ZM17.137,42.828a14.989,14.989,0,1,1,23.094-12.6A15.215,15.215,0,0,1,40,32.73c-.815.081-1.619.192-2.415.34A12.684,12.684,0,0,0,17.2,20.4l1.458,1.79a10.383,10.383,0,0,1,16.959,8.037,10.48,10.48,0,0,1-.591,3.43,29.2,29.2,0,0,0-12.18,6.66,10.368,10.368,0,0,1-5.65-16.665L15.4,22.2a12.69,12.69,0,0,0,5.142,19.828Zm30.9-7.551a28.343,28.343,0,0,1,10.014,3.893A66.058,66.058,0,0,1,51.565,40.7a67.7,67.7,0,0,1-11.9,1.067H34.249a3.423,3.423,0,0,0,.212-1.154,3.47,3.47,0,0,0-2.672-3.362c.193-.084.376-.186.571-.267a27.447,27.447,0,0,1,3.848-1.267,26.043,26.043,0,0,1,4.915-.8c.613-.053,1.26-.077,1.98-.077A28.229,28.229,0,0,1,48.034,35.278ZM27.316,40.285A8.674,8.674,0,0,1,31,39.462a1.129,1.129,0,0,1,.822.353,1.1,1.1,0,0,1,.332.8A1.155,1.155,0,0,1,31,41.769H25.1A8.716,8.716,0,0,1,27.316,40.285Zm-20.16,2.87,1.613-2.264-.385-.647a19.448,19.448,0,0,1-2.146-5.185l-.185-.732-2.745-.458V26.592l2.745-.458.185-.732a19.448,19.448,0,0,1,2.146-5.185l.385-.647L7.156,17.305l5.15-5.15,2.265,1.612.646-.385A19.371,19.371,0,0,1,20.4,11.237l.73-.185.462-2.745H28.87l.459,2.746.73.185a19.356,19.356,0,0,1,5.184,2.145l.646.385,2.265-1.612,5.15,5.15L41.692,19.57l.385.647A19.448,19.448,0,0,1,44.223,25.4l.185.732,2.746.458v6.243a30.534,30.534,0,0,0-4.05-.3c-.257,0-.5.008-.738.014a17.557,17.557,0,0,0,.173-2.322,17.308,17.308,0,0,0-34.615,0,17.151,17.151,0,0,0,6.242,13.3L8.794,44.792ZM4.2,48.246l16.171-3.808a11.023,11.023,0,0,0-.906,4.358v1.149a7.849,7.849,0,0,0-7.756,3.362h-8.4V49.362A1.156,1.156,0,0,1,4.2,48.246Zm.265,9.677a1.155,1.155,0,0,1-1.154-1.154V55.615h7.27a8.031,8.031,0,0,0-.347,2.308Zm19.528.954a5.759,5.759,0,0,1-11.367-.024,4.988,4.988,0,0,1-.084-.93,5.585,5.585,0,0,1,.781-2.886,5.766,5.766,0,0,1,4.988-2.883,5.614,5.614,0,0,1,1.928.339A5.719,5.719,0,0,1,23.3,55.038l.006.01a5.574,5.574,0,0,1,.774,2.874A5.143,5.143,0,0,1,23.989,58.877Zm2.4-.954a8.031,8.031,0,0,0-.347-2.308h18a8.031,8.031,0,0,0-.347,2.308Zm31.066.954a5.759,5.759,0,0,1-11.367-.024,4.988,4.988,0,0,1-.084-.93,5.585,5.585,0,0,1,.781-2.886,5.756,5.756,0,0,1,9.976,0l.007.012a5.574,5.574,0,0,1,.774,2.874A5.142,5.142,0,0,1,57.451,58.877Zm11.626-.954H59.846a8.071,8.071,0,0,0-.347-2.308H70.231v1.154A1.155,1.155,0,0,1,69.077,57.923Z" fill="#be4e55"/>
    <rect id="Rectangle_15487" data-name="Rectangle 15487" width="4.615" height="2.308" transform="translate(41.385 46.385)" fill="#be4e55"/>
    <rect id="Rectangle_15488" data-name="Rectangle 15488" width="2.308" height="2.308" transform="translate(70.231 29.077)" fill="#be4e55"/>
    <rect id="Rectangle_15489" data-name="Rectangle 15489" width="10.385" height="2.308" transform="translate(57.538 29.077)" fill="#be4e55"/>
    <rect id="Rectangle_15490" data-name="Rectangle 15490" width="2.308" height="2.308" transform="translate(65.615 24.462)" fill="#be4e55"/>
    <rect id="Rectangle_15491" data-name="Rectangle 15491" width="10.385" height="2.308" transform="translate(52.923 24.462)" fill="#be4e55"/>
    <rect id="Rectangle_15492" data-name="Rectangle 15492" width="2.308" height="2.308" transform="translate(61 19.846)" fill="#be4e55"/>
    <rect id="Rectangle_15493" data-name="Rectangle 15493" width="10.385" height="2.308" transform="translate(48.308 19.846)" fill="#be4e55"/>
  </g>
</svg>
