<svg xmlns="http://www.w3.org/2000/svg" width="63.429" height="66" viewBox="0 0 63.429 66">
  <g id="Group_36705" data-name="Group 36705" transform="translate(-880 -5544)">
    <path id="Path_39156" data-name="Path 39156" d="M49.257,6H12.435a5.506,5.506,0,0,0-5.5,5.5v55a5.506,5.506,0,0,0,5.5,5.5H49.257a5.506,5.506,0,0,0,5.5-5.5V51.073H68.989A1.375,1.375,0,0,0,70.364,49.7V25.25a1.375,1.375,0,0,0-1.375-1.375H54.757V11.5A5.506,5.506,0,0,0,49.257,6Zm2.75,60.5a2.753,2.753,0,0,1-2.75,2.75H12.435a2.753,2.753,0,0,1-2.75-2.75v-55a2.753,2.753,0,0,1,2.75-2.75H49.257a2.753,2.753,0,0,1,2.75,2.75V23.875h-2.75V18.293a1.375,1.375,0,0,0-1.375-1.375H13.81a1.375,1.375,0,0,0-1.375,1.375V61.015A1.375,1.375,0,0,0,13.81,62.39H47.882a1.375,1.375,0,0,0,1.375-1.375V51.073h2.75Zm-28.7-42.625a1.375,1.375,0,0,0-1.375,1.375V49.7a1.375,1.375,0,0,0,1.375,1.375h4.111v3.9a1.375,1.375,0,0,0,2.2,1.1l6.659-5H46.507V59.64H15.185V19.668H46.507v4.207Zm44.3,24.448H35.823A1.375,1.375,0,0,0,35,48.6l-4.825,3.627V49.7A1.375,1.375,0,0,0,28.8,48.323H24.687v-21.7H67.614Z" transform="translate(873.064 5538)" fill="#e64545"/>
    <path id="Path_39157" data-name="Path 39157" d="M30.806,48.5H21.218a1.375,1.375,0,0,0,0,2.75h9.587a1.375,1.375,0,0,0,0-2.75Z" transform="translate(886.281 5527.123)" fill="#e64545"/>
    <path id="Path_39158" data-name="Path 39158" d="M19.586,12.718H33.662a1.375,1.375,0,0,0,0-2.75H19.586a1.375,1.375,0,0,0,0,2.75Z" transform="translate(885.164 5565.657)" fill="#e64545"/>
    <path id="Path_39159" data-name="Path 39159" d="M46.614,26.934H34.681a7.344,7.344,0,0,0-12.948.8,1.375,1.375,0,0,0,1.25,1.948h4.061l.727,1.119-.725,1.11H22.983a1.375,1.375,0,0,0-1.25,1.948,7.347,7.347,0,0,0,12.951.8H46.611a7.348,7.348,0,0,0,12.951-.8,1.375,1.375,0,0,0-1.25-1.948H54.25l-.725-1.11.727-1.119h4.061a1.375,1.375,0,0,0,1.25-1.948,7.344,7.344,0,0,0-12.948-.8ZM28.441,35.412a4.622,4.622,0,0,1-2.526-.753h1.875a1.373,1.373,0,0,0,1.151-.623l1.623-2.483a1.374,1.374,0,0,0,0-1.5l-1.623-2.5a1.374,1.374,0,0,0-1.153-.626H25.914a4.616,4.616,0,1,1,2.526,8.482Zm7.25-3.506A7.282,7.282,0,0,0,35.8,30.8a7.309,7.309,0,0,0-.113-1.117h9.916a7.309,7.309,0,0,0-.113,1.117,7.282,7.282,0,0,0,.112,1.105Zm17.164-5.73a4.62,4.62,0,0,1,2.526.753H53.506a1.374,1.374,0,0,0-1.153.626l-1.623,2.5a1.374,1.374,0,0,0,0,1.5l1.623,2.483a1.373,1.373,0,0,0,1.151.623h1.875a4.616,4.616,0,1,1-2.526-8.482Z" transform="translate(870.767 5546.698)" fill="#e64545"/>
  </g>
</svg>
