<svg xmlns="http://www.w3.org/2000/svg" width="90" height="56.25" viewBox="0 0 90 56.25">
  <g id="_11-optical" data-name="11-optical" transform="translate(0 -9)">
    <path id="Path_38899" data-name="Path 38899" d="M89.635,36.014C88.824,34.911,69.484,9,45,9S1.176,34.911.364,36.014a1.874,1.874,0,0,0,0,2.221C1.176,39.339,20.516,65.25,45,65.25S88.824,39.339,89.635,38.235A1.874,1.874,0,0,0,89.635,36.014ZM45,59.625a22.5,22.5,0,1,1,22.5-22.5A22.5,22.5,0,0,1,45,59.625ZM4.254,37.124C7,33.713,16.02,23.278,27.929,17.225a26.16,26.16,0,0,0-.017,39.784C16.02,50.953,7,40.53,4.254,37.124Zm57.816,19.9a26.16,26.16,0,0,0,.017-39.785C73.98,23.3,83,33.719,85.745,37.126,83,40.536,73.979,50.972,62.071,57.025Z" transform="translate(0)" fill="#6c9b36"/>
    <path id="Path_38900" data-name="Path 38900" d="M39.035,22.937A11.744,11.744,0,0,1,42.25,31,11.25,11.25,0,1,1,31,19.75V16A15,15,0,1,0,46,31a15.359,15.359,0,0,0-4.286-10.687Z" transform="translate(14 6.125)" fill="#6c9b36"/>
    <rect id="Rectangle_15486" data-name="Rectangle 15486" width="3.75" height="3.75" transform="translate(48.75 22.125)" fill="#6c9b36"/>
  </g>
</svg>
