<svg xmlns="http://www.w3.org/2000/svg" width="64.002" height="60.459" viewBox="0 0 64.002 60.459">
  <g id="Group_36689" data-name="Group 36689" transform="translate(-1089 -6171)">
    <path id="Path_39087" data-name="Path 39087" d="M63,58H55.444A3.959,3.959,0,0,0,56,56h2.41a2.771,2.771,0,0,0,2.738-3.2,10.152,10.152,0,0,0-4.513-7.22,1.3,1.3,0,0,1-.555-.829l-.432-2.188a3.213,3.213,0,0,0-2.159-2.4l5.584-29.771a1.222,1.222,0,0,1,.753-.917l2.5-1a2.558,2.558,0,1,0-1.957-4.727L57.452,5a6.072,6.072,0,0,0-3.6,4.54L48.476,40H41.8a3.165,3.165,0,0,0-2.959,2l-.868,2.169a2.085,2.085,0,0,1-1.416,1.243l-7.985,2a5.642,5.642,0,0,0-4.02,3.715l-.411,1.233A2.769,2.769,0,0,0,26.768,56H29a3.959,3.959,0,0,0,.556,2H26.036a3.975,3.975,0,0,1-2.332-.689,1.587,1.587,0,0,1-.758-1.995c1.183-3.546-2.1-6.883-2.241-7.023a1,1,0,0,0-1.688.9c.483,2.417-.081,3.676-.617,4.3-.742-2.458.1-6.628.56-8.222A1,1,0,0,0,17.4,44.2a14.03,14.03,0,0,0-4.33,6.547A125.429,125.429,0,0,1,13,34.06a1,1,0,0,0-1.7-.766c-3.13,3.129-4.069,9.665-4.308,14.578a23.14,23.14,0,0,0-5.4-5.685A1,1,0,0,0,.13,43.5c3.108,5.44,2.379,12.293,2.025,14.539A2.586,2.586,0,0,0,0,60.584V63a1,1,0,0,0,1,1H63a1,1,0,0,0,1-1V59a1,1,0,0,0-1-1ZM37,56H48a3.959,3.959,0,0,0,.556,2H36.443A3.959,3.959,0,0,0,37,56Zm13,0a2,2,0,1,1,2,2A2,2,0,0,1,50,56ZM58.24,6.834l2.913-1.248a.559.559,0,0,1,.75.337.559.559,0,0,1-.322.694l-2.5,1a3.2,3.2,0,0,0-1.878,2.1L56.013,9.2A4.08,4.08,0,0,1,58.24,6.835ZM55.591,11.2l1.2.517L51.488,40h-.979l5.083-28.8ZM26.77,54a.769.769,0,0,1-.731-1.013l.41-1.229a3.7,3.7,0,0,1,2.6-2.408l7.992-2a4.024,4.024,0,0,0,.9-.35H49.144a1,1,0,0,0,0-2H39.781c.013-.031.036-.057.048-.088l.87-2.172A1.174,1.174,0,0,1,41.8,42H52.52a1.186,1.186,0,0,1,1.169.953l.4,2.047h-.985a1,1,0,0,0,0,2h2.121a3.176,3.176,0,0,0,.334.264,8.176,8.176,0,0,1,3.609,5.842.771.771,0,0,1-.762.9H55.444a3.965,3.965,0,0,0-6.888,0H36.443a3.965,3.965,0,0,0-6.888,0H26.768ZM31,56a2,2,0,1,1,2,2A2,2,0,0,1,31,56Zm31,6H2V60.583A.584.584,0,0,1,2.583,60H3a1,1,0,0,0,.977-.783,28.412,28.412,0,0,0-.348-12.438,12.3,12.3,0,0,1,3.332,6.494c.019.441.036.719.041.794A1.043,1.043,0,0,0,8.033,55,1,1,0,0,0,9,54c0-.277-.014-.552-.038-.824-.1-2.468-.211-10.4,1.87-15.465-.181,5.374-.248,14.693,1.273,17.736a1,1,0,0,0,1.885-.306,20.9,20.9,0,0,1,2.283-6.614c-.3,2.341-.314,5.214.9,7.027a1,1,0,0,0,1.148.394,4.529,4.529,0,0,0,2.712-3.367,3.465,3.465,0,0,1,.023,2.1,3.561,3.561,0,0,0,1.492,4.255A5.962,5.962,0,0,0,26.037,60H62Z" transform="translate(1089.002 6167.458)" fill="#2e48b9"/>
    <path id="Path_39088" data-name="Path 39088" d="M28.838,32a3.072,3.072,0,0,0-1.957-1.951,1.006,1.006,0,0,0-.941.168,13.365,13.365,0,0,0-4.331,7.791,5.405,5.405,0,0,0,3.64,5.938.986.986,0,0,0,.316.051,1,1,0,0,0,.991-1.141,11.247,11.247,0,0,1,1.892-8.09A3.106,3.106,0,0,0,28.84,32ZM26.8,33.635a13.222,13.222,0,0,0-2.365,7.475,3.316,3.316,0,0,1-.852-2.773,11.664,11.664,0,0,1,3.122-6.1,1.074,1.074,0,0,1,.238.4,1.118,1.118,0,0,1-.144,1Z" transform="translate(1089.002 6167.458)" fill="#2e48b9"/>
    <path id="Path_39089" data-name="Path 39089" d="M33.331,36.823a1,1,0,0,0,.927-.235,10.9,10.9,0,0,0,3.07-6.583,4.521,4.521,0,0,0-3.388-4.738,1,1,0,0,0-1.225,1.181,8.8,8.8,0,0,1-1.023,6.41,2.68,2.68,0,0,0,1.64,3.965Zm.085-2.953a10.793,10.793,0,0,0,1.511-5.619,2.393,2.393,0,0,1,.409,1.568A9.078,9.078,0,0,1,33.4,34.554a.662.662,0,0,1-.029-.062.693.693,0,0,1,.045-.623Z" transform="translate(1089.002 6167.458)" fill="#2e48b9"/>
    <path id="Path_39090" data-name="Path 39090" d="M29.835,24.773a1,1,0,0,0,.5-.833,8.8,8.8,0,0,1,2.567-5.959,2.68,2.68,0,0,0-.613-4.248,1,1,0,0,0-.956,0,10.9,10.9,0,0,0-4.595,5.625,4.52,4.52,0,0,0,2.119,5.426,1,1,0,0,0,.974-.009Zm-1.2-3.124a2.4,2.4,0,0,1-.012-1.622,9.083,9.083,0,0,1,3.042-4.114c.006.025.01.048.013.068a.694.694,0,0,1-.2.593,10.808,10.808,0,0,0-2.845,5.075Z" transform="translate(1089.002 6167.458)" fill="#2e48b9"/>
  </g>
</svg>
