<svg id="Group_36589" data-name="Group 36589" xmlns="http://www.w3.org/2000/svg" width="91.427" height="80" viewBox="0 0 91.427 80">
  <path id="Path_38904" data-name="Path 38904" d="M215.24,224.76a1.9,1.9,0,0,0,1.9-1.9v-7.619a1.9,1.9,0,1,0-3.809,0v7.619A1.9,1.9,0,0,0,215.24,224.76Z" transform="translate(-175.241 -180.95)" fill="#ef3c5e"/>
  <path id="Path_38905" data-name="Path 38905" d="M83.812,100.571V35.809H82.063l-22.7-3.784A1.907,1.907,0,0,0,57.144,33.9v1.9H7.621v64.762H0v5.714A5.721,5.721,0,0,0,5.716,112h80a5.72,5.72,0,0,0,5.714-5.714v-5.714ZM60.956,36.153,80,39.327v61.534l-19.045,3.175Zm-3.811,64.418H47.62V39.618h9.524ZM11.43,39.618H43.811v60.952H11.43ZM3.812,106.285v-1.906h1.9a1.9,1.9,0,1,0,3.81,0h3.809a1.9,1.9,0,1,0,3.81,0h3.81a1.9,1.9,0,1,0,3.809,0h3.81a1.9,1.9,0,1,0,3.81,0h3.809a1.9,1.9,0,1,0,3.81,0h3.81a1.9,1.9,0,1,0,3.809,0h3.81a1.906,1.906,0,1,0,3.811,0h1.9v1.906a1.908,1.908,0,0,0,1.9,1.906H5.716A1.908,1.908,0,0,1,3.812,106.285Zm83.806,0a1.908,1.908,0,0,1-1.9,1.906H59.053a1.687,1.687,0,0,0,.31-.028L74.733,105.6a1.884,1.884,0,0,0,1.456.684,1.907,1.907,0,0,0,1.78-1.222l3.937-.656a1.9,1.9,0,0,0,3.809-.028h1.9Z" transform="translate(-0.002 -31.999)" fill="#ef3c5e"/>
  <path id="Path_38906" data-name="Path 38906" d="M353.814,212.448a1.906,1.906,0,0,0-1.908,1.9v7.619a1.906,1.906,0,1,0,3.811,0v-7.619A1.9,1.9,0,0,0,353.814,212.448Z" transform="translate(-289.066 -180.225)" fill="#ef3c5e"/>
  <path id="Path_38907" data-name="Path 38907" d="M76.572,92.953a1.9,1.9,0,0,0,1.346-.558l3.81-3.81a1.9,1.9,0,0,0-2.694-2.694l-3.81,3.81a1.9,1.9,0,0,0,1.348,3.252Z" transform="translate(-61.334 -75.81)" fill="#ef3c5e"/>
  <path id="Path_38908" data-name="Path 38908" d="M89.347,88.585a1.9,1.9,0,0,0-2.694-2.694L75.225,97.32a1.9,1.9,0,1,0,2.694,2.694Z" transform="translate(-61.334 -75.81)" fill="#ef3c5e"/>
</svg>
