<svg xmlns="http://www.w3.org/2000/svg" width="100.927" height="80" viewBox="0 0 100.927 80">
  <g id="Group_36588" data-name="Group 36588" transform="translate(-9940.994 -5554.001)">
    <path id="Path_38901" data-name="Path 38901" d="M54.427,6.524a2.8,2.8,0,0,0-3.952,0L33.236,23.763a5.606,5.606,0,0,0-5.606-5.438h-6a5.606,5.606,0,0,0-5.606,5.606V41L2.823,54.175a2.8,2.8,0,1,0,3.952,3.98L20.791,44.141,32.451,32.48l20.013-19.9L98.126,58.268c2.523,2.607,6.559-1.43,3.952-3.98Zm-32.8,28.983V24.043h6.026v5.41Z" transform="translate(9939 5548.292)" fill="#18c4a2"/>
    <path id="Path_38902" data-name="Path 38902" d="M54.427,13.064a2.8,2.8,0,0,0-3.952,0L2.823,60.715a2.8,2.8,0,0,0,0,3.98,2.8,2.8,0,0,0,3.952.112l45.689-45.8,45.661,45.8c2.523,2.607,6.559-1.43,3.952-3.98Z" transform="translate(9939 5560.083)" fill="#18c4a2"/>
    <path id="Path_38903" data-name="Path 38903" d="M34.621,54.083a8.409,8.409,0,0,0,8.409-8.409V31.659a8.409,8.409,0,0,0-8.409-8.409H23.409A8.409,8.409,0,0,0,15,31.659V45.674a8.409,8.409,0,0,0,8.409,8.409ZM20.606,45.674V31.659a2.8,2.8,0,0,1,2.8-2.8H34.621a2.8,2.8,0,0,1,2.8,2.8V45.674a2.8,2.8,0,0,1-2.8,2.8H23.409A2.8,2.8,0,0,1,20.606,45.674Z" transform="translate(9962.449 5579.917)" fill="#18c4a2"/>
  </g>
</svg>
