<svg xmlns="http://www.w3.org/2000/svg" width="38.338" height="80" viewBox="0 0 38.338 80">
  <g id="Group_36693" data-name="Group 36693" transform="translate(-36.33 -3)">
    <path id="Path_39105" data-name="Path 39105" d="M60.98,9.466V24.354a.306.306,0,0,0,.613,0V9.466a.306.306,0,0,0-.613,0Z" transform="translate(-9.244 -2.31)" fill="#624c1e"/>
    <path id="Path_39106" data-name="Path 39106" d="M47.56,9.466V24.354a.306.306,0,1,0,.612,0V9.466a.306.306,0,1,0-.612,0Z" transform="translate(-4.211 -2.31)" fill="#624c1e"/>
    <path id="Path_39107" data-name="Path 39107" d="M55.431,11.42H51.156a.306.306,0,0,0,0,.613h4.275a.306.306,0,0,0,0-.613Z" transform="translate(-5.445 -3.157)" fill="#624c1e"/>
    <path id="Path_39108" data-name="Path 39108" d="M55.431,15.04H51.156a.306.306,0,0,0,0,.612h4.275a.306.306,0,0,0,0-.612Z" transform="translate(-5.445 -4.515)" fill="#624c1e"/>
    <path id="Path_39109" data-name="Path 39109" d="M55.431,18.67H51.156a.306.306,0,0,0,0,.612h4.275a.306.306,0,0,0,0-.612Z" transform="translate(-5.445 -5.876)" fill="#624c1e"/>
    <path id="Path_39110" data-name="Path 39110" d="M55.431,22.29H51.156a.306.306,0,0,0,0,.613h4.275a.306.306,0,0,0,0-.613Z" transform="translate(-5.445 -7.234)" fill="#624c1e"/>
    <path id="Path_39111" data-name="Path 39111" d="M55.431,25.91H51.156a.306.306,0,0,0,0,.613h4.275a.306.306,0,0,0,0-.613Z" transform="translate(-5.445 -8.591)" fill="#624c1e"/>
    <path id="Path_39112" data-name="Path 39112" d="M48.418,89.383a.307.307,0,0,0,.138-.581c-4.969-2.494-11.025-7.994-11.613-20.025v-.937h8.006a16.622,16.622,0,0,1,5.769-5.662H36.943V55.758H58.749v4.15a.306.306,0,0,0,.612,0V55.452a.307.307,0,0,0-.287-.306L52.593,43.4a.272.272,0,0,0-.081-.087l-.187-.987a.308.308,0,0,0-.606.112l.15.8H43.824l.15-.8a.306.306,0,0,0-.244-.356.316.316,0,0,0-.362.244l-.187.987a.272.272,0,0,0-.081.087l-6.481,11.75a.307.307,0,0,0-.288.306V68.789c.606,12.344,6.831,17.994,11.95,20.563A.366.366,0,0,0,48.418,89.383ZM37.324,55.139l2.219-4.019H56.161l2.219,4.019Zm6.225-11.288h8.594l2.594,4.7H40.961Z" transform="translate(0 -14.652)" fill="#624c1e"/>
    <path id="Path_39113" data-name="Path 39113" d="M77.876,89.29a12.953,12.953,0,1,0-12.95,12.95A12.965,12.965,0,0,0,77.876,89.29Zm-12.95,12.338A12.338,12.338,0,1,1,77.264,89.29,12.347,12.347,0,0,1,64.926,101.628Z" transform="translate(-5.865 -27.502)" fill="#624c1e"/>
    <path id="Path_39114" data-name="Path 39114" d="M45.989,38.658h9.794a1.465,1.465,0,0,0,1.569-1.313v-.619a1.456,1.456,0,0,0-1.569-1.306H45.989a1.46,1.46,0,0,0-1.569,1.306v.619A1.456,1.456,0,0,0,45.989,38.658Z" transform="translate(-3.034 -12.157)" fill="#624c1e"/>
    <path id="Path_39115" data-name="Path 39115" d="M45.989,6.231h9.794a1.46,1.46,0,0,0,1.569-1.306V4.3A1.466,1.466,0,0,0,55.776,3H45.989A1.46,1.46,0,0,0,44.42,4.306v.625A1.451,1.451,0,0,0,45.989,6.231Z" transform="translate(-3.034 0)" fill="#624c1e"/>
    <path id="Path_39116" data-name="Path 39116" d="M74.976,105.6H73.92l-1.156-5.475a15.613,15.613,0,1,0-18.838.019l-1.15,5.456H51.433a1.311,1.311,0,0,0-1.306,1.313v.694a1.31,1.31,0,0,0,1.306,1.306H74.97a1.315,1.315,0,0,0,1.313-1.306v-.694A1.307,1.307,0,0,0,74.976,105.6ZM48.339,87.7a14.991,14.991,0,1,1,14.994,14.987A15,15,0,0,1,48.339,87.7Zm6.138,12.838a15.555,15.555,0,0,0,17.744-.019l1.069,5.075H53.408Z" transform="translate(-4.271 -25.909)" fill="#624c1e"/>
    <path id="Path_39117" data-name="Path 39117" d="M71.162,84.3a6.436,6.436,0,0,1,1.669.225c.481-.981,1.075-2.437.838-3.319-.494-1.869-4.519-1.869-5.019,0-.231.875.362,2.337.837,3.319A6.484,6.484,0,0,1,71.162,84.3Z" transform="translate(-12.1 -28.803)" fill="#624c1e"/>
    <path id="Path_39118" data-name="Path 39118" d="M71.164,106.989a6.624,6.624,0,0,1-1.662-.219c-.481.975-1.081,2.431-.844,3.313.5,1.869,4.519,1.869,5.019,0,.231-.875-.362-2.337-.837-3.312A6.8,6.8,0,0,1,71.164,106.989Z" transform="translate(-12.103 -38.914)" fill="#624c1e"/>
    <path id="Path_39119" data-name="Path 39119" d="M62.085,88.786a6.283,6.283,0,0,1,2.35-2.35c-.356-1.031-.969-2.488-1.75-2.944-1.675-.969-4.519,1.869-3.544,3.544C59.591,87.823,61.053,88.436,62.085,88.786Z" transform="translate(-8.48 -30.111)" fill="#624c1e"/>
    <path id="Path_39120" data-name="Path 39120" d="M80.02,102.04a6.328,6.328,0,0,1-2.35,2.35c.356,1.031.969,2.488,1.75,2.944,1.675.969,4.519-1.869,3.55-3.544C82.514,103,81.051,102.39,80.02,102.04Z" transform="translate(-15.503 -37.14)" fill="#624c1e"/>
    <path id="Path_39121" data-name="Path 39121" d="M59.943,95.515a6.575,6.575,0,0,1,.219-1.656c-.981-.487-2.437-1.081-3.312-.85-1.869.5-1.869,4.519,0,5.019.869.231,2.338-.363,3.313-.844A6.636,6.636,0,0,1,59.943,95.515Z" transform="translate(-7.169 -33.734)" fill="#624c1e"/>
    <path id="Path_39122" data-name="Path 39122" d="M85.712,93.009c-.869-.231-2.337.369-3.312.85a6.3,6.3,0,0,1,.219,1.656,6.624,6.624,0,0,1-.219,1.662c.975.488,2.438,1.081,3.313.844C87.581,97.528,87.581,93.516,85.712,93.009Z" transform="translate(-17.276 -33.734)" fill="#624c1e"/>
    <path id="Path_39123" data-name="Path 39123" d="M62.085,102.04c-1.037.35-2.487.963-2.944,1.75-.975,1.675,1.869,4.512,3.544,3.544.787-.456,1.4-1.906,1.75-2.944A6.328,6.328,0,0,1,62.085,102.04Z" transform="translate(-8.48 -37.14)" fill="#624c1e"/>
    <path id="Path_39124" data-name="Path 39124" d="M80.02,88.786c1.031-.35,2.494-.963,2.95-1.75.969-1.675-1.875-4.512-3.55-3.544-.781.456-1.394,1.906-1.75,2.944A6.238,6.238,0,0,1,80.02,88.786Z" transform="translate(-15.503 -30.111)" fill="#624c1e"/>
    <path id="Path_39125" data-name="Path 39125" d="M69.479,88.47a5.369,5.369,0,1,0,5.363,5.369A5.372,5.372,0,0,0,69.479,88.47Zm0,10.119a4.753,4.753,0,1,1,4.75-4.756A4.757,4.757,0,0,1,69.479,98.589Z" transform="translate(-10.418 -32.051)" fill="#624c1e"/>
    <path id="Path_39126" data-name="Path 39126" d="M70.817,92.04a3.138,3.138,0,1,0,3.131,3.137A3.139,3.139,0,0,0,70.817,92.04Z" transform="translate(-11.756 -33.39)" fill="#624c1e"/>
  </g>
</svg>
