<svg xmlns="http://www.w3.org/2000/svg" width="80.006" height="80" viewBox="0 0 80.006 80">
  <g id="Group_36602" data-name="Group 36602" transform="translate(-1634.999 -5385)">
    <g id="Group_36601" data-name="Group 36601" transform="translate(1634.999 5385)">
      <g id="Group_36593" data-name="Group 36593" transform="translate(36.669 0)">
        <g id="Group_36590" data-name="Group 36590" transform="translate(0 10.433)">
          <path id="Path_38909" data-name="Path 38909" d="M25.667,41.156A1.668,1.668,0,0,1,24,39.452l.3-13.641a8.438,8.438,0,0,1,.353-2.328,18.932,18.932,0,0,1,4.68-7.754l6.979-6.979a1.666,1.666,0,0,1,1.178-.488h0a1.666,1.666,0,0,1,1.178.488L56.407,26.487a1.666,1.666,0,0,1,0,2.357l-6.979,6.979A18.925,18.925,0,0,1,41.674,40.5a8.366,8.366,0,0,1-2.331.353l-13.638.3ZM37.492,12.284l-5.8,5.8a15.59,15.59,0,0,0-3.853,6.384,5.226,5.226,0,0,0-.2,1.418l-.264,11.9,11.9-.264a5.145,5.145,0,0,0,1.416-.2,15.583,15.583,0,0,0,6.384-3.851l5.8-5.8Z" transform="translate(-24 -8.261)" fill="#8c9119"/>
        </g>
        <g id="Group_36591" data-name="Group 36591" transform="translate(24.052)">
          <path id="Path_38910" data-name="Path 38910" d="M43.089,21.284a3.393,3.393,0,0,1-2.411-1l-1.247-1.247a3.4,3.4,0,0,1-.107-4.7L49.571,3.111A3.4,3.4,0,0,1,54.493,3l2.223,2.223a3.4,3.4,0,0,1-.112,4.924L45.383,20.39A3.385,3.385,0,0,1,43.089,21.284ZM52.136,5.356,41.786,16.578l1.252,1.348L54.358,7.683v0a.057.057,0,0,0,.023-.049Z" transform="translate(-38.431 -2.001)" fill="#8c9119"/>
        </g>
        <g id="Group_36592" data-name="Group 36592" transform="translate(15.657 14.844)">
          <path id="Path_38911" data-name="Path 38911" d="M35.061,23.742a1.667,1.667,0,0,1-1.175-2.848l9.564-9.5a1.667,1.667,0,0,1,2.35,2.363l-9.564,9.5A1.66,1.66,0,0,1,35.061,23.742Z" transform="translate(-33.394 -10.907)" fill="#8c9119"/>
        </g>
      </g>
      <g id="Group_36594" data-name="Group 36594" transform="translate(0.002 46.665)">
        <path id="Path_38912" data-name="Path 38912" d="M80.337,63.334H3.667A1.666,1.666,0,0,1,2,61.667v-30A1.666,1.666,0,0,1,3.667,30h76.67A1.666,1.666,0,0,1,82,31.666v30A1.666,1.666,0,0,1,80.337,63.334ZM5.334,60H78.67V33.332H5.334V60Z" transform="translate(-2 -29.999)" fill="#8c9119"/>
      </g>
      <g id="Group_36595" data-name="Group 36595" transform="translate(0 66.666)">
        <path id="Path_38913" data-name="Path 38913" d="M80.337,45.332H3.666a1.667,1.667,0,1,1,0-3.333H80.337a1.667,1.667,0,0,1,0,3.333Z" transform="translate(-1.999 -41.999)" fill="#8c9119"/>
      </g>
      <g id="Group_36596" data-name="Group 36596" transform="translate(0 56.666)">
        <path id="Path_38914" data-name="Path 38914" d="M80.337,39.332H3.666a1.667,1.667,0,0,1,0-3.333H80.337a1.667,1.667,0,0,1,0,3.333Z" transform="translate(-1.999 -35.999)" fill="#8c9119"/>
      </g>
      <g id="Group_36597" data-name="Group 36597" transform="translate(38.338 66.666)">
        <path id="Path_38915" data-name="Path 38915" d="M26.668,55.333A1.666,1.666,0,0,1,25,53.666v-10a1.667,1.667,0,1,1,3.333,0v10A1.666,1.666,0,0,1,26.668,55.333Z" transform="translate(-25.001 -41.999)" fill="#8c9119"/>
      </g>
      <g id="Group_36598" data-name="Group 36598" transform="translate(18.336 56.666)">
        <path id="Path_38916" data-name="Path 38916" d="M14.667,49.333A1.666,1.666,0,0,1,13,47.666v-10a1.667,1.667,0,1,1,3.333,0v10A1.666,1.666,0,0,1,14.667,49.333Z" transform="translate(-13 -35.999)" fill="#8c9119"/>
      </g>
      <g id="Group_36599" data-name="Group 36599" transform="translate(58.337 56.666)">
        <path id="Path_38917" data-name="Path 38917" d="M38.667,49.333A1.666,1.666,0,0,1,37,47.666v-10a1.667,1.667,0,0,1,3.333,0v10A1.666,1.666,0,0,1,38.667,49.333Z" transform="translate(-37 -35.999)" fill="#8c9119"/>
      </g>
      <g id="Group_36600" data-name="Group 36600" transform="translate(38.338 46.665)">
        <path id="Path_38918" data-name="Path 38918" d="M26.668,43.333A1.666,1.666,0,0,1,25,41.666v-10a1.667,1.667,0,1,1,3.333,0v10A1.666,1.666,0,0,1,26.668,43.333Z" transform="translate(-25.001 -29.999)" fill="#8c9119"/>
      </g>
    </g>
  </g>
</svg>
