<svg xmlns="http://www.w3.org/2000/svg" width="65.813" height="65.885" viewBox="0 0 65.813 65.885">
  <g id="Group_36715" data-name="Group 36715" transform="translate(0.253 -288.245)">
    <g id="Group_36714" data-name="Group 36714" transform="translate(0 288.533)">
      <path id="Path_39167" data-name="Path 39167" d="M9.712,291.48a6.893,6.893,0,0,0-4.9,11.781l8.346,8.316a1.021,1.021,0,0,0,1.446,0l8.331-8.316a6.927,6.927,0,0,0,0-9.777,6.806,6.806,0,0,0-9.046-.6,6.783,6.783,0,0,0-4.181-1.4Zm-3.45,3.45a4.872,4.872,0,0,1,6.9,0,1.021,1.021,0,0,0,1.446,0,4.868,4.868,0,0,1,6.885,6.885l-7.608,7.608-7.623-7.608a4.848,4.848,0,0,1,0-6.885Z" transform="translate(18.772 -269.023)" fill="#47ad63" stroke="#47ad63" stroke-width="0.5"/>
      <path id="Path_39168" data-name="Path 39168" d="M14.405,294.068a13.627,13.627,0,0,0-4.934.494,15.6,15.6,0,0,1-4.3.617,13.677,13.677,0,0,1-2.35-.505c-.817-.237-1.464-.462-1.464-.462a1.024,1.024,0,0,0-.669,1.936s.7.24,1.571.494a13.645,13.645,0,0,0,2.782.582,16.71,16.71,0,0,0,4.881-.663,12.139,12.139,0,0,1,4.215-.463,7.631,7.631,0,0,1,3.968,1.584l4.275,3.659a.965.965,0,0,0,.131.093l7.4,4.505a1.849,1.849,0,0,1,.941,1.016,2.8,2.8,0,0,1,.008,1.243,1.01,1.01,0,0,1-.548.709,2.3,2.3,0,0,1-1.538,0l-10.488-4.03a1.013,1.013,0,0,0-1.031.139,1.03,1.03,0,0,0-.373.979,1.018,1.018,0,0,0,.675.795l10.579,4.063c.032.014.064.027.1.039a4.255,4.255,0,0,0,2.93-.116,3.2,3.2,0,0,0,1.68-2.042,1.025,1.025,0,0,0,.025-.109,4.708,4.708,0,0,0-.089-2.317,4.033,4.033,0,0,0-1.814-2.113l-7.334-4.464-4.213-3.6a9.528,9.528,0,0,0-5.016-2.053Z" transform="translate(0.037 -251.862)" fill="#47ad63" stroke="#47ad63" stroke-width="0.5" fill-rule="evenodd"/>
      <path id="Path_39169" data-name="Path 39169" d="M15.469,294.913a3.13,3.13,0,0,0-2.4-.4l-10.02,2.379.767,1.942,9.717-2.331a1.244,1.244,0,0,1,1.442.92s0,.023.007.023a1.269,1.269,0,0,1,.035.5,11.031,11.031,0,0,0,2.015.275,3.349,3.349,0,0,0-.1-1.361,3.392,3.392,0,0,0-1.47-1.951Z" transform="translate(20.485 -248.957)" fill="#47ad63" stroke="#47ad63" stroke-width="0.5" fill-rule="evenodd"/>
      <path id="Path_39170" data-name="Path 39170" d="M18.024,295.235a3.262,3.262,0,0,0-2.448-.424L3.559,297.57l.447,1.995,12.016-2.755a1.3,1.3,0,0,1,1.437.882c.151.695-.039.5-.224,1.342l1.988.437a3.206,3.206,0,0,0,.222-2.255,3.473,3.473,0,0,0-1.422-1.981Z" transform="translate(23.896 -246.927)" fill="#47ad63" stroke="#47ad63" stroke-width="0.5" fill-rule="evenodd"/>
      <path id="Path_39171" data-name="Path 39171" d="M17.032,295.166l-13,2.555.381,2.007,13-2.55a1.293,1.293,0,0,1,1.464.857c.176.724.048.564-.188,1.249l1.921.665a3.528,3.528,0,0,0,.251-2.408,3.255,3.255,0,0,0-1.441-1.938,3.4,3.4,0,0,0-2.392-.428Z" transform="translate(27.066 -244.339)" fill="#47ad63" stroke="#47ad63" stroke-width="0.5" fill-rule="evenodd"/>
      <path id="Path_39172" data-name="Path 39172" d="M.9,295.348a1.021,1.021,0,0,0-.181,1.989c2.415.84,5.313,1.893,7.1,2.727,4.168,1.949,7.856,6.195,12.941,7.427a28.1,28.1,0,0,0,12.61-.12s11.248-2.722,16.873-4.143a3.484,3.484,0,0,0,2.426-4.143,3.322,3.322,0,0,0-3.827-2.38c-2.727.49-14.1,2.275-14.1,2.275A1.022,1.022,0,0,0,35.054,301s11.3-1.779,14.146-2.29a1.575,1.575,0,0,1,1.491.889,1.229,1.229,0,0,1-.211,1.085,1.6,1.6,0,0,1-.738.558c-5.6,1.415-16.858,4.158-16.858,4.158l.015-.016a26.482,26.482,0,0,1-11.661.136c-4.209-1.02-7.842-5.083-12.565-7.292-1.941-.908-4.835-1.968-7.277-2.817a1.022,1.022,0,0,0-.5-.062Z" transform="translate(0 -242.845)" fill="#47ad63" stroke="#47ad63" stroke-width="0.5" fill-rule="evenodd"/>
      <path id="Path_39173" data-name="Path 39173" d="M7.745,293.562a1.021,1.021,0,0,0-.994,1.04v.994a1.021,1.021,0,1,0,2.034,0V294.6a1.02,1.02,0,0,0-1.04-1.04Z" transform="translate(45.296 -254.774)" fill="#47ad63" stroke="#47ad63" stroke-width="0.5"/>
      <path id="Path_39174" data-name="Path 39174" d="M7.654,294.229a1.021,1.021,0,0,0-.9,1.039v.979a1.021,1.021,0,1,0,2.034,0v-.979a1.021,1.021,0,0,0-1.13-1.039Z" transform="translate(45.296 -250.334)" fill="#47ad63" stroke="#47ad63" stroke-width="0.5"/>
      <path id="Path_39175" data-name="Path 39175" d="M8.037,293.958a1.025,1.025,0,0,0,0,2.049h.994a1.024,1.024,0,1,0,0-2.049Z" transform="translate(47.082 -252.112)" fill="#47ad63" stroke="#47ad63" stroke-width="0.5"/>
      <path id="Path_39176" data-name="Path 39176" d="M7.375,293.958a1.025,1.025,0,0,0,0,2.049H8.37a1.024,1.024,0,1,0,0-2.049Z" transform="translate(42.637 -252.112)" fill="#47ad63" stroke="#47ad63" stroke-width="0.5"/>
      <path id="Path_39177" data-name="Path 39177" d="M2.231,291.452a1.021,1.021,0,0,0-.9,1.025v.994a1.021,1.021,0,1,0,2.034,0v-.995a1.02,1.02,0,0,0-1.13-1.024Z" transform="translate(8.883 -268.98)" fill="#47ad63" stroke="#47ad63" stroke-width="0.5"/>
      <path id="Path_39178" data-name="Path 39178" d="M2.321,292.107a1.021,1.021,0,0,0-.994,1.04v.994a1.021,1.021,0,1,0,2.034,0v-.994a1.021,1.021,0,0,0-1.04-1.04Z" transform="translate(8.883 -264.543)" fill="#47ad63" stroke="#47ad63" stroke-width="0.5"/>
      <path id="Path_39179" data-name="Path 39179" d="M2.492,291.846A1.021,1.021,0,0,0,2.6,293.88h.994a1.021,1.021,0,1,0,0-2.034H2.6q-.053,0-.105,0Z" transform="translate(10.685 -266.316)" fill="#47ad63" stroke="#47ad63" stroke-width="0.5"/>
      <path id="Path_39180" data-name="Path 39180" d="M1.83,291.846a1.021,1.021,0,0,0,.105,2.034H2.93a1.021,1.021,0,1,0,0-2.034H1.935q-.053,0-.105,0Z" transform="translate(6.24 -266.316)" fill="#47ad63" stroke="#47ad63" stroke-width="0.5"/>
      <path id="Path_39181" data-name="Path 39181" d="M1.394,290.123A1.02,1.02,0,0,0,.4,291.162v.994a1.021,1.021,0,1,0,2.034,0v-.994a1.021,1.021,0,0,0-1.04-1.04Z" transform="translate(2.659 -277.865)" fill="#47ad63" stroke="#47ad63" stroke-width="0.5"/>
      <path id="Path_39182" data-name="Path 39182" d="M1.289,290.791A1.02,1.02,0,0,0,.4,291.831v.979a1.021,1.021,0,1,0,2.034,0v-.979a1.02,1.02,0,0,0-1.145-1.04Z" transform="translate(2.659 -273.426)" fill="#47ad63" stroke="#47ad63" stroke-width="0.5"/>
      <path id="Path_39183" data-name="Path 39183" d="M1.687,290.519a1.024,1.024,0,1,0,0,2.049h.994a1.024,1.024,0,1,0,0-2.049Z" transform="translate(4.445 -275.203)" fill="#47ad63" stroke="#47ad63" stroke-width="0.5"/>
      <path id="Path_39184" data-name="Path 39184" d="M1.024,290.519a1.024,1.024,0,1,0,0,2.049h.994a1.024,1.024,0,1,0,0-2.049Z" transform="translate(0 -275.203)" fill="#47ad63" stroke="#47ad63" stroke-width="0.5"/>
      <path id="Path_39185" data-name="Path 39185" d="M2.305,293.527a1.02,1.02,0,1,1-1.02-1.021,1.02,1.02,0,0,1,1.02,1.021Z" transform="translate(1.776 -261.863)" fill="#47ad63" stroke="#47ad63" stroke-width="0.5"/>
      <path id="Path_39186" data-name="Path 39186" d="M9.449,293.659a1.02,1.02,0,1,1-1.02-1.021,1.02,1.02,0,0,1,1.02,1.021Z" transform="translate(49.735 -260.976)" fill="#47ad63" stroke="#47ad63" stroke-width="0.5"/>
      <path id="Path_39187" data-name="Path 39187" d="M22.755,306.343a13.624,13.624,0,0,0,4.934-.494,15.6,15.6,0,0,1,4.3-.617,13.667,13.667,0,0,1,2.35.5c.817.237,1.464.462,1.464.462a1.013,1.013,0,0,0,1.018-.18,1.03,1.03,0,0,0,.34-.982,1.018,1.018,0,0,0-.688-.773s-.7-.241-1.571-.494a13.645,13.645,0,0,0-2.782-.582,16.72,16.72,0,0,0-4.881.663,12.141,12.141,0,0,1-4.215.463,7.631,7.631,0,0,1-3.968-1.584l-4.275-3.659a1,1,0,0,0-.131-.093l-7.4-4.506a1.85,1.85,0,0,1-.941-1.017A2.8,2.8,0,0,1,6.3,292.21a1.011,1.011,0,0,1,.548-.709,2.3,2.3,0,0,1,1.538,0l10.488,4.029A1.012,1.012,0,0,0,19.9,295.4a1.03,1.03,0,0,0,.373-.979,1.019,1.019,0,0,0-.675-.795L9.021,289.561a.99.99,0,0,0-.1-.039,4.257,4.257,0,0,0-2.93.116,3.2,3.2,0,0,0-1.68,2.042,1.026,1.026,0,0,0-.025.109,4.708,4.708,0,0,0,.089,2.317,4.032,4.032,0,0,0,1.814,2.113l7.334,4.464,4.213,3.6a9.529,9.529,0,0,0,5.016,2.053Z" transform="translate(28.11 -283.241)" fill="#47ad63" stroke="#47ad63" stroke-width="0.5" fill-rule="evenodd"/>
      <path id="Path_39188" data-name="Path 39188" d="M5.195,294.456a3.131,3.131,0,0,0,2.4.4l10.02-2.379-.767-1.942-9.717,2.331a1.244,1.244,0,0,1-1.442-.92s0-.023-.007-.023a1.268,1.268,0,0,1-.035-.5,11.052,11.052,0,0,0-2.015-.275,3.349,3.349,0,0,0,.1,1.361,3.391,3.391,0,0,0,1.47,1.951Z" transform="translate(24.158 -275.104)" fill="#47ad63" stroke="#47ad63" stroke-width="0.5" fill-rule="evenodd"/>
      <path id="Path_39189" data-name="Path 39189" d="M4.37,294.506a3.262,3.262,0,0,0,2.448.424l12.016-2.759-.447-2L6.372,292.931a1.3,1.3,0,0,1-1.437-.882c-.151-.695.039-.5.224-1.342L3.17,290.27a3.206,3.206,0,0,0-.222,2.255,3.473,3.473,0,0,0,1.422,1.981Z" transform="translate(19.018 -277.506)" fill="#47ad63" stroke="#47ad63" stroke-width="0.5" fill-rule="evenodd"/>
      <path id="Path_39190" data-name="Path 39190" d="M6.184,294.573l13-2.555-.381-2.007-13,2.55a1.293,1.293,0,0,1-1.464-.857c-.176-.724-.048-.564.188-1.249L2.6,289.791a3.528,3.528,0,0,0-.251,2.408,3.255,3.255,0,0,0,1.441,1.938,3.4,3.4,0,0,0,2.392.428Z" transform="translate(15.026 -280.092)" fill="#47ad63" stroke="#47ad63" stroke-width="0.5" fill-rule="evenodd"/>
      <path id="Path_39191" data-name="Path 39191" d="M53.495,301.338a1.02,1.02,0,0,0,.181-1.989c-2.415-.84-5.313-1.893-7.1-2.727-4.168-1.949-7.856-6.195-12.941-7.427a28.1,28.1,0,0,0-12.61.12s-11.248,2.722-16.873,4.143a3.364,3.364,0,0,0-1.913,1.386A3.356,3.356,0,0,0,1.73,297.6a3.322,3.322,0,0,0,3.827,2.38c2.727-.49,14.1-2.275,14.1-2.275a1.022,1.022,0,0,0-.316-2.019s-11.3,1.779-14.146,2.29a1.575,1.575,0,0,1-1.491-.889A1.229,1.229,0,0,1,3.915,296a1.6,1.6,0,0,1,.738-.558c5.6-1.415,16.858-4.158,16.858-4.158l-.015.015a26.48,26.48,0,0,1,11.661-.136c4.209,1.02,7.842,5.083,12.565,7.292,1.941.908,4.835,1.968,7.277,2.817a1.021,1.021,0,0,0,.5.062Z" transform="translate(10.912 -288.533)" fill="#47ad63" stroke="#47ad63" stroke-width="0.5" fill-rule="evenodd"/>
    </g>
  </g>
</svg>
