<svg xmlns="http://www.w3.org/2000/svg" width="69.277" height="70" viewBox="0 0 69.277 70">
  <g id="Group_36698" data-name="Group 36698" transform="translate(-1.64 -1)">
    <path id="Path_39144" data-name="Path 39144" d="M67.53,43.9H64.143V41.645H66.4a3.391,3.391,0,0,0,3.387-3.387V29.226A3.391,3.391,0,0,0,66.4,25.839H52.853a3.365,3.365,0,0,0-2.258.881v-5.4a20.323,20.323,0,1,0-40.645,0V31.484a5.637,5.637,0,0,0,4.871,5.567A15.842,15.842,0,0,0,22.369,47.41v1.17l-5.829.9A14.017,14.017,0,0,0,5.362,59.09L1.64,71H67.53a3.391,3.391,0,0,0,3.387-3.387V47.29A3.391,3.391,0,0,0,67.53,43.9Zm-5.645,0H57.369V41.645h4.516ZM46.079,33.742V28.3a3.366,3.366,0,0,1-.056,6.376C46.04,34.367,46.079,34.056,46.079,33.742Zm-3.387,7.9H44.95V43.9H42.692Zm2.343-2.258a15.729,15.729,0,0,0,.673-2.335,5.614,5.614,0,0,0,3.759-2.216v3.422a3.391,3.391,0,0,0,3.387,3.387h2.258V43.9h-7.9V39.387Zm6.69-10.161A1.131,1.131,0,0,1,52.853,28.1H66.4a1.131,1.131,0,0,1,1.129,1.129v9.032A1.13,1.13,0,0,1,66.4,39.387H52.853a1.13,1.13,0,0,1-1.129-1.129ZM12.208,31.484A3.382,3.382,0,0,1,14.466,28.3v5.437c0,.316.029.624.047.936A3.381,3.381,0,0,1,12.208,31.484Zm2.258-7.9v2.372A5.606,5.606,0,0,0,12.208,27V21.323a18.065,18.065,0,1,1,36.129,0V27a5.591,5.591,0,0,0-2.258-1.043v-3.5H44.95c-4.088,0-6.713-1.272-8.022-3.892l-.7-1.4-1.108,1.108c-4.8,4.8-15.252,5.314-19.524,5.314ZM23.5,27.532a.565.565,0,1,1-.565-.565A.565.565,0,0,1,23.5,27.532Zm-6.774,6.21V25.829c1.25-.023,2.665-.09,4.159-.225a2.821,2.821,0,1,0,3.555-.45c4.036-.668,8.217-1.945,11.216-4.343,1.695,2.357,4.431,3.655,8.166,3.868v9.064a13.577,13.577,0,0,1-1.254,5.645H40.434V43.9H38.175A3.384,3.384,0,0,0,34.9,46.46a13.517,13.517,0,0,1-18.18-12.719ZM34.788,51.188a5.916,5.916,0,0,1-4.516,1.748c-4.265,0-5.449-2.952-5.645-3.553v-.894a15.663,15.663,0,0,0,10.161.4Zm-4.516,4.006a8.744,8.744,0,0,0,4.516-1.14v5.39l-.7,1.4H26.454l-4.923-9.845,1.228-.189A7.9,7.9,0,0,0,30.272,55.194Zm4.516,7.9v3.422a5.625,5.625,0,0,0-10.047,2.223H22.369V63.1Zm-4.516,3.387a3.383,3.383,0,0,1,3.179,2.258H27.094A3.38,3.38,0,0,1,30.272,66.484ZM7.518,59.763a11.747,11.747,0,0,1,9.365-8.055l2.3-.355,4.742,9.485h-1.56A2.26,2.26,0,0,0,20.111,63.1v5.645H15.745l.97-7.763-2.24-.28-1.006,8.043H4.711Zm61.142,7.85a1.13,1.13,0,0,1-1.129,1.129H38.175a1.13,1.13,0,0,1-1.129-1.129V47.29a1.13,1.13,0,0,1,1.129-1.129H67.53a1.13,1.13,0,0,1,1.129,1.129Z" fill="#d1347e"/>
    <path id="Path_39145" data-name="Path 39145" d="M48,51.516A4.516,4.516,0,1,0,52.516,47,4.521,4.521,0,0,0,48,51.516Zm6.774,0a2.258,2.258,0,1,1-2.258-2.258A2.26,2.26,0,0,1,54.774,51.516Z" transform="translate(5.982 5.935)" fill="#d1347e"/>
    <path id="Path_39146" data-name="Path 39146" d="M53.032,43a9.032,9.032,0,1,0,4.655,16.773l-1.165-1.934a6.783,6.783,0,1,1,1.349-1.067l1.612,1.581A9.031,9.031,0,0,0,53.032,43Z" transform="translate(5.466 5.419)" fill="#d1347e"/>
    <path id="Path_39147" data-name="Path 39147" d="M35,49.774h9.032V43H35Zm2.258-4.516h4.516v2.258H37.258Z" transform="translate(4.305 5.419)" fill="#d1347e"/>
    <path id="Path_39148" data-name="Path 39148" d="M59.29,27H48v6.774H59.29Zm-9.032,2.258h2.258v2.258H50.258Zm6.774,2.258H54.774V29.258h2.258Z" transform="translate(5.982 3.355)" fill="#d1347e"/>
    <path id="Path_39149" data-name="Path 39149" d="M33.823,27.645A2.823,2.823,0,1,0,31,24.823,2.827,2.827,0,0,0,33.823,27.645Zm0-3.387a.565.565,0,1,1-.565.565A.565.565,0,0,1,33.823,24.258Z" transform="translate(3.788 2.71)" fill="#d1347e"/>
    <path id="Path_39150" data-name="Path 39150" d="M37.065,30H34.806a6.774,6.774,0,1,1-13.548,0H19a9.032,9.032,0,1,0,18.065,0Z" transform="translate(2.24 3.742)" fill="#d1347e"/>
  </g>
</svg>
