<svg xmlns="http://www.w3.org/2000/svg" width="72.684" height="80.5" viewBox="0 0 72.684 80.5">
  <path id="Path_39255" data-name="Path 39255" d="M34.174,67.919l3.013-5.22a1.29,1.29,0,1,1,2.235,1.29l-3.013,5.22a1.29,1.29,0,1,1-2.235-1.29Zm-2.352.132a1.291,1.291,0,0,0,1.763-.472L36.6,62.36a1.29,1.29,0,0,0-2.235-1.29l-3.013,5.22A1.291,1.291,0,0,0,31.822,68.052Zm46.94,13.767a1.291,1.291,0,0,1-1.054.545H8.123a1.29,1.29,0,0,1-1.217-1.72L8.519,76.08a1.291,1.291,0,0,1,1.217-.861h.6V44.345h-.6a1.29,1.29,0,0,1-1.29-1.29V33.241a1.29,1.29,0,0,1,1.29-1.29H22.362a21.933,21.933,0,1,1,41.108,0H76.095a1.29,1.29,0,0,1,1.29,1.29v9.814a1.29,1.29,0,0,1-1.29,1.29h-.6V75.219h.6a1.29,1.29,0,0,1,1.217.861l1.613,4.564A1.289,1.289,0,0,1,78.762,81.819ZM62.309,34.532a22.1,22.1,0,0,1-6.146,7.234H74.8V34.532h-12.5ZM23.564,24.3A19.352,19.352,0,1,0,42.916,4.944,19.374,19.374,0,0,0,23.564,24.3ZM11.027,41.764H29.668a22.081,22.081,0,0,1-6.146-7.234h-12.5ZM12.916,75.22h13.65V55.06h-.632a1.29,1.29,0,0,1-1.29-1.29V49.833a1.29,1.29,0,0,1,1.29-1.29H59.9a1.29,1.29,0,0,1,1.29,1.29V53.77a1.29,1.29,0,0,1-1.29,1.29h-.632V75.22h13.65V44.345H51.806a21.913,21.913,0,0,1-17.781,0H12.916Zm45.692-24.1H27.224V52.48H58.608ZM29.147,55.06V75.22H41.626V55.06ZM44.206,75.22H56.685V55.06H44.206Zm31.678,4.564-.7-1.984H10.649l-.7,1.984ZM22.768,36.858H15.9a1.29,1.29,0,0,0,0,2.58h6.863a1.29,1.29,0,0,0,0-2.58Zm40.3,2.58h6.863a1.29,1.29,0,1,0,0-2.58H63.064a1.29,1.29,0,1,0,0,2.58ZM51.186,60.6a1.29,1.29,0,0,0-1.763.472l-3.013,5.22a1.29,1.29,0,0,0,2.235,1.29l3.013-5.22A1.291,1.291,0,0,0,51.186,60.6Zm2.824,1.63a1.29,1.29,0,0,0-1.763.472l-3.013,5.22a1.29,1.29,0,0,0,2.235,1.29l3.013-5.22A1.291,1.291,0,0,0,54.01,62.227ZM42.693,18.64V9.606a1.29,1.29,0,1,1,2.58,0V18.64A2.629,2.629,0,0,0,47.9,21.266h1.3a2.629,2.629,0,0,0,2.626-2.626V9.606a1.29,1.29,0,1,1,2.58,0V18.64a5.212,5.212,0,0,1-3.131,4.773l.915,13.744a3.538,3.538,0,0,1-3.539,3.783h-.2a3.537,3.537,0,0,1-3.539-3.782l.915-13.744A5.216,5.216,0,0,1,42.693,18.64Zm6.918,18.689-.9-13.483h-.332l-.9,13.483a.957.957,0,0,0,.964,1.031h.2a.957.957,0,0,0,.964-1.031ZM47,19.93a1.29,1.29,0,0,0,1.29-1.29V9.606a1.29,1.29,0,1,0-2.58,0V18.64A1.29,1.29,0,0,0,47,19.93Zm3.1,0a1.29,1.29,0,0,0,1.29-1.29V9.606a1.29,1.29,0,0,0-2.58,0V18.64A1.29,1.29,0,0,0,50.1,19.93ZM29.81,15.675c0-4.4,2.827-7.975,6.3-7.975s6.3,3.578,6.3,7.975a8.308,8.308,0,0,1-3.556,7.191l.97,14.573A3.61,3.61,0,0,1,36.214,41.3h-.205A3.61,3.61,0,0,1,32.4,37.439l.97-14.573A8.3,8.3,0,0,1,29.81,15.675Zm2.581,0c0,2.436,1.146,4.581,2.786,5.217A1.29,1.29,0,0,1,36,22.181L34.971,37.61a1.029,1.029,0,0,0,1.037,1.109h.205a1.03,1.03,0,0,0,1.038-1.109L36.224,22.181a1.291,1.291,0,0,1,.821-1.289c1.641-.635,2.786-2.781,2.786-5.217,0-2.924-1.7-5.395-3.721-5.395S32.391,12.751,32.391,15.675Zm3.179,0A2.139,2.139,0,0,1,36.137,14a1.29,1.29,0,0,0-.026-2.58c-1.75,0-3.121,1.868-3.121,4.251a1.29,1.29,0,1,0,2.58,0ZM24.544,57.748V64.61a1.29,1.29,0,0,1-1.29,1.29H16.228a1.29,1.29,0,0,1-1.29-1.29V57.748a1.29,1.29,0,0,1,1.29-1.29h7.026A1.29,1.29,0,0,1,24.544,57.748Zm-2.58,1.29H17.518v4.281h4.446ZM61.287,64.61V57.747a1.29,1.29,0,0,1,1.29-1.29H69.6a1.29,1.29,0,0,1,1.29,1.29V64.61A1.29,1.29,0,0,1,69.6,65.9H62.578A1.289,1.289,0,0,1,61.287,64.61Zm2.58-1.29h4.446V59.039H63.868Z" transform="translate(-6.574 -2.114)" fill="#e67e21" stroke="#e67e21" stroke-width="0.5"/>
</svg>
