<svg xmlns="http://www.w3.org/2000/svg" width="74.889" height="80" viewBox="0 0 74.889 80">
  <g id="Group_36673" data-name="Group 36673" transform="translate(-10591.681 -5638)">
    <g id="Group_36634" data-name="Group 36634" transform="translate(10591.681 5638)">
      <g id="Group_36633" data-name="Group 36633" transform="translate(0 0)">
        <path id="Path_38951" data-name="Path 38951" d="M40.965,5H15.437a6.923,6.923,0,0,0-6.916,6.916V85H18.672V81.444h-6.6V11.916a3.357,3.357,0,0,1,3.36-3.36H40.965a3.355,3.355,0,0,1,3.351,3.36V34.778h3.556V11.916A6.921,6.921,0,0,0,40.965,5Z" transform="translate(-8.521 -5)" fill="#329f5e"/>
      </g>
    </g>
    <g id="Group_36636" data-name="Group 36636" transform="translate(10636.125 5657.022)">
      <g id="Group_36635" data-name="Group 36635" transform="translate(0 0)">
        <path id="Path_38952" data-name="Path 38952" d="M82.05,26.4H65.437a6.923,6.923,0,0,0-6.916,6.916v3.84h3.556v-3.84a3.357,3.357,0,0,1,3.36-3.36H82.05a3.357,3.357,0,0,1,3.36,3.36V83.822H67.481v3.556H88.965V33.316A6.923,6.923,0,0,0,82.05,26.4Z" transform="translate(-58.521 -26.4)" fill="#329f5e"/>
      </g>
    </g>
    <g id="Group_36637" data-name="Group 36637" transform="translate(10603.607 5669.556)">
      <path id="Path_38953" data-name="Path 38953" d="M61.641,88.944h-39.7V43.982A3.482,3.482,0,0,1,25.42,40.5H58.16a3.482,3.482,0,0,1,3.482,3.482V88.944ZM25.494,85.389H58.086V47.537A3.482,3.482,0,0,0,54.6,44.056H28.975a3.482,3.482,0,0,0-3.482,3.482Z" transform="translate(-21.938 -40.5)" fill="#329f5e"/>
    </g>
    <g id="Group_36638" data-name="Group 36638" transform="translate(10599.162 5648.222)">
      <path id="Path_38954" data-name="Path 38954" d="M40.16,19.167H18.271a1.333,1.333,0,1,1,0-2.667H40.16a1.333,1.333,0,0,1,0,2.667Z" transform="translate(-16.938 -16.5)" fill="#329f5e"/>
    </g>
    <g id="Group_36639" data-name="Group 36639" transform="translate(10599.162 5654.556)">
      <path id="Path_38955" data-name="Path 38955" d="M40.16,26.292H18.271a1.333,1.333,0,1,1,0-2.667H40.16a1.333,1.333,0,0,1,0,2.667Z" transform="translate(-16.938 -23.625)" fill="#329f5e"/>
    </g>
    <g id="Group_36640" data-name="Group 36640" transform="translate(10599.162 5660.889)">
      <path id="Path_38956" data-name="Path 38956" d="M40.16,33.417H18.271a1.333,1.333,0,1,1,0-2.667H40.16a1.333,1.333,0,0,1,0,2.667Z" transform="translate(-16.938 -30.75)" fill="#329f5e"/>
    </g>
    <g id="Group_36641" data-name="Group 36641" transform="translate(10642.111 5664)">
      <path id="Path_38957" data-name="Path 38957" d="M81.8,36.917H66.589a1.333,1.333,0,1,1,0-2.667H81.8a1.333,1.333,0,1,1,0,2.667Z" transform="translate(-65.256 -34.25)" fill="#329f5e"/>
    </g>
    <g id="Group_36642" data-name="Group 36642" transform="translate(10644.338 5670.337)">
      <path id="Path_38958" data-name="Path 38958" d="M83.405,42.713a1.337,1.337,0,0,1-1.333,1.333H68.508a5.2,5.2,0,0,0-.747-2.667H82.072A1.332,1.332,0,0,1,83.405,42.713Z" transform="translate(-67.761 -41.38)" fill="#329f5e"/>
    </g>
    <g id="Group_36643" data-name="Group 36643" transform="translate(10645.085 5676.667)">
      <path id="Path_38959" data-name="Path 38959" d="M83.5,49.833a1.332,1.332,0,0,1-1.333,1.333H68.6V48.5H82.165A1.332,1.332,0,0,1,83.5,49.833Z" transform="translate(-68.601 -48.5)" fill="#329f5e"/>
    </g>
    <g id="Group_36644" data-name="Group 36644" transform="translate(10645.085 5683.227)">
      <path id="Path_38960" data-name="Path 38960" d="M83.5,57.213a1.337,1.337,0,0,1-1.333,1.333H68.6V55.88H82.165A1.332,1.332,0,0,1,83.5,57.213Z" transform="translate(-68.601 -55.88)" fill="#329f5e"/>
    </g>
    <g id="Group_36645" data-name="Group 36645" transform="translate(10645.085 5689.778)">
      <path id="Path_38961" data-name="Path 38961" d="M83.5,64.583a1.332,1.332,0,0,1-1.333,1.333H68.6V63.25H82.165A1.332,1.332,0,0,1,83.5,64.583Z" transform="translate(-68.601 -63.25)" fill="#329f5e"/>
    </g>
    <g id="Group_36646" data-name="Group 36646" transform="translate(10611.162 5676.972)">
      <path id="Path_38962" data-name="Path 38962" d="M36.133,55.315H31.215a.777.777,0,0,1-.777-.777V49.62a.777.777,0,0,1,.777-.777h4.918a.777.777,0,0,1,.777.777v4.918A.777.777,0,0,1,36.133,55.315Zm-4.141-1.554h3.365V50.4H31.992Z" transform="translate(-30.438 -48.843)" fill="#329f5e"/>
    </g>
    <g id="Group_36647" data-name="Group 36647" transform="translate(10620.222 5676.972)">
      <path id="Path_38963" data-name="Path 38963" d="M46.326,55.315H41.407a.777.777,0,0,1-.777-.777V49.62a.777.777,0,0,1,.777-.777h4.919a.777.777,0,0,1,.777.777v4.918A.777.777,0,0,1,46.326,55.315Zm-4.142-1.554H45.55V50.4H42.184Z" transform="translate(-40.63 -48.843)" fill="#329f5e"/>
    </g>
    <g id="Group_36648" data-name="Group 36648" transform="translate(10629.283 5676.972)">
      <path id="Path_38964" data-name="Path 38964" d="M56.519,55.315H51.6a.777.777,0,0,1-.777-.777V49.62a.777.777,0,0,1,.777-.777h4.918a.777.777,0,0,1,.777.777v4.918A.778.778,0,0,1,56.519,55.315Zm-4.142-1.554h3.365V50.4H52.377Z" transform="translate(-50.824 -48.843)" fill="#329f5e"/>
    </g>
    <g id="Group_36649" data-name="Group 36649" transform="translate(10611.162 5685.579)">
      <path id="Path_38965" data-name="Path 38965" d="M36.133,65H31.215a.777.777,0,0,1-.777-.777V59.3a.777.777,0,0,1,.777-.777h4.918a.777.777,0,0,1,.777.777v4.918A.778.778,0,0,1,36.133,65Zm-4.142-1.553h3.365V60.08H31.991Z" transform="translate(-30.438 -58.526)" fill="#329f5e"/>
    </g>
    <g id="Group_36650" data-name="Group 36650" transform="translate(10620.222 5685.579)">
      <path id="Path_38966" data-name="Path 38966" d="M46.326,65H41.408a.777.777,0,0,1-.777-.777V59.3a.777.777,0,0,1,.777-.777h4.918a.777.777,0,0,1,.777.777v4.918A.777.777,0,0,1,46.326,65Zm-4.142-1.553h3.365V60.08H42.184Z" transform="translate(-40.631 -58.526)" fill="#329f5e"/>
    </g>
    <g id="Group_36651" data-name="Group 36651" transform="translate(10629.282 5685.579)">
      <path id="Path_38967" data-name="Path 38967" d="M56.519,65H51.6a.777.777,0,0,1-.777-.777V59.3a.777.777,0,0,1,.777-.777h4.919a.777.777,0,0,1,.777.777v4.918A.777.777,0,0,1,56.519,65Zm-4.142-1.553h3.366V60.08H52.377Z" transform="translate(-50.823 -58.526)" fill="#329f5e"/>
    </g>
    <g id="Group_36652" data-name="Group 36652" transform="translate(10611.16 5694.186)">
      <path id="Path_38968" data-name="Path 38968" d="M36.133,74.681H31.214a.777.777,0,0,1-.777-.777V68.986a.777.777,0,0,1,.777-.777h4.919a.777.777,0,0,1,.777.777V73.9A.777.777,0,0,1,36.133,74.681Zm-4.142-1.553h3.366V69.763H31.991Z" transform="translate(-30.437 -68.209)" fill="#329f5e"/>
    </g>
    <g id="Group_36653" data-name="Group 36653" transform="translate(10620.222 5694.186)">
      <path id="Path_38969" data-name="Path 38969" d="M46.326,74.681H41.408a.777.777,0,0,1-.777-.777V68.986a.777.777,0,0,1,.777-.777h4.918a.777.777,0,0,1,.777.777V73.9A.777.777,0,0,1,46.326,74.681Zm-4.142-1.553h3.365V69.763H42.184Z" transform="translate(-40.631 -68.209)" fill="#329f5e"/>
    </g>
    <g id="Group_36654" data-name="Group 36654" transform="translate(10629.283 5694.186)">
      <path id="Path_38970" data-name="Path 38970" d="M56.519,74.681H51.6a.777.777,0,0,1-.777-.777V68.986a.777.777,0,0,1,.777-.777h4.918a.777.777,0,0,1,.777.777V73.9A.777.777,0,0,1,56.519,74.681Zm-4.141-1.553h3.365V69.763H52.378Z" transform="translate(-50.824 -68.209)" fill="#329f5e"/>
    </g>
    <g id="Group_36655" data-name="Group 36655" transform="translate(10645.051 5696.222)">
      <path id="Path_38971" data-name="Path 38971" d="M78.785,91.722H69.9a1.333,1.333,0,0,1-1.333-1.333V71.833A1.333,1.333,0,0,1,69.9,70.5h8.889a1.333,1.333,0,0,1,1.333,1.333V90.389A1.333,1.333,0,0,1,78.785,91.722ZM71.23,89.056h6.222V73.167H71.23Z" transform="translate(-68.563 -70.5)" fill="#329f5e"/>
    </g>
    <g id="Group_36656" data-name="Group 36656" transform="translate(10615.459 5703)">
      <path id="Path_38972" data-name="Path 38972" d="M49.938,93.125H36.6a1.333,1.333,0,0,1-1.333-1.333V79.458A1.333,1.333,0,0,1,36.6,78.125H49.938a1.333,1.333,0,0,1,1.333,1.333V91.792A1.333,1.333,0,0,1,49.938,93.125Zm-12-2.667H48.6V80.792H37.938Z" transform="translate(-35.271 -78.125)" fill="#329f5e"/>
    </g>
  </g>
</svg>
