<svg xmlns="http://www.w3.org/2000/svg" width="70.185" height="70" viewBox="0 0 70.185 70">
  <g id="Group_36704" data-name="Group 36704" transform="translate(0.1 0.025)">
    <g id="Group_36699" data-name="Group 36699" transform="translate(0.001 62.695)">
      <path id="Path_39151" data-name="Path 39151" d="M66.506,60.789c-1.483-1.8-3.389-1.906-4.871-.318l-1.906,2.012c-.741.847-1.377.424-2.012-.635a3.814,3.814,0,0,0-2.859-2.118,3.046,3.046,0,0,0-2.648,1.165l-1.589,1.694c-.635.635-1.165.741-1.8-.212l-1.165-1.589a3.42,3.42,0,0,0-2.542-1.483,3.576,3.576,0,0,0-2.542,1.165l-1.8,2.012c-.635.635-1.059.741-1.8-.106L37.6,60.683A3.816,3.816,0,0,0,35.054,59.2a3.226,3.226,0,0,0-2.436,1.165l-1.906,2.118c-.635.635-1.059.741-1.694-.106l-1.377-1.8A3.22,3.22,0,0,0,25.1,59.2a3.372,3.372,0,0,0-2.542,1.271L21.18,62.483c-.635.741-1.165.847-1.906-.212l-.741-1.059c-1.483-2.118-3.6-2.224-5.189-.635L11.332,62.8c-.53.635-1.059.635-1.694-.212L8.366,61a3.069,3.069,0,0,0-5.189,0L.212,64.707a1.036,1.036,0,0,0,.212,1.483,1.036,1.036,0,0,0,1.483-.212l2.965-3.707q.953-1.271,1.906,0L8.049,63.86c1.483,1.906,3.495,1.906,4.977.318l2.012-2.224c.741-.741,1.271-.53,1.8.318l.741,1.059c1.483,2.224,3.707,2.224,5.3.424l1.483-1.694c.212-.212.53-.53.847-.53h0a1.281,1.281,0,0,1,.953.635l1.377,1.8a3.078,3.078,0,0,0,4.977.212l1.906-2.118c.212-.212.53-.53.847-.53a1.281,1.281,0,0,1,.953.635L37.6,63.86c1.377,1.8,3.389,2.012,4.977.212l1.8-2.012c.212-.212.53-.53.847-.53h0a1.281,1.281,0,0,1,.953.635l1.165,1.589c1.483,1.906,3.495,2.012,5.083.318l1.589-1.694c.212-.212.53-.53.847-.53s.847.424,1.165,1.059c1.483,2.542,3.812,2.753,5.4,1.059l1.906-2.012c.635-.635,1.165-.53,1.694.212L68.2,66.084a1.059,1.059,0,1,0,1.694-1.271Z" transform="translate(0.005 -59.2)" fill="#3f45ac"/>
    </g>
    <g id="Group_36700" data-name="Group 36700" transform="translate(35.059 9.638)">
      <path id="Path_39152" data-name="Path 39152" d="M38.4,9.1a5.3,5.3,0,1,0,5.3,5.3A5.31,5.31,0,0,0,38.4,9.1Zm0,8.472A3.177,3.177,0,1,1,41.572,14.4,3.12,3.12,0,0,1,38.4,17.572Z" transform="translate(-33.1 -9.1)" fill="#3f45ac"/>
    </g>
    <g id="Group_36701" data-name="Group 36701" transform="translate(-0.1 -0.025)">
      <path id="Path_39153" data-name="Path 39153" d="M12.29,61.954a1.505,1.505,0,0,0,.635.212,1.505,1.505,0,0,0,.635-.212c.106-.106.741-.53,1.589-1.271a1.126,1.126,0,0,0,1.059.953h48.4a1,1,0,0,0,1.059-1.059V54.435L68.1,57.4a1.059,1.059,0,1,0,1.694-1.271l-3.177-3.918-.847-.847V26.371h3.071a1.017,1.017,0,0,0,.953-.741,1.2,1.2,0,0,0-.318-1.165L40.99.213a1.113,1.113,0,0,0-1.377,0L25.952,11.968V1.272A1,1,0,0,0,24.893.213h-6.46a1,1,0,0,0-1.059,1.059v18l-6.142,5.3a1.2,1.2,0,0,0-.318,1.165,1.017,1.017,0,0,0,.953.741h3.071v3.707c-.424-.424-.953-.847-1.377-1.271a1.152,1.152,0,0,0-1.589,0c-3.283,3.6-7.2,4.66-11.331,5.93A1.052,1.052,0,0,0-.1,35.9v3.707C.006,53.27,11.761,61.636,12.29,61.954Zm7.2-59.622h4.342V13.769l-4.342,3.707Zm20.863.106L65.876,24.253H14.832ZM17.162,58.777c.53-.53,1.059-1.165,1.694-1.8a4.4,4.4,0,0,0,4.024-1.694l1.377-1.694c.635-.741,1.165-.741,1.8.106l1.377,1.8a3.276,3.276,0,0,0,2.542,1.377v2.753H17.162Zm15.038.741V38.549H48.509V59.518Zm18.427,0V56.553a3.254,3.254,0,0,0,1.589-1.059L53.8,53.8c.741-.847,1.377-.53,2.118.635,1.483,2.542,3.812,2.753,5.4,1.059l1.906-2.012.318-.318v6.46H50.627ZM17.162,26.371H63.547V50.834a3.486,3.486,0,0,0-1.906,1.059l-1.906,2.118c-.741.847-1.377.424-2.012-.635-1.589-2.648-3.918-2.648-5.507-.953l-1.589,1.694h0V37.49a1,1,0,0,0-1.059-1.059H31.141a1,1,0,0,0-1.059,1.059V54.646c-.212,0-.53-.106-.953-.635l-1.377-1.8a3.068,3.068,0,0,0-5.083-.106c-.635.741-1.8,2.118-1.8,2.118A26.313,26.313,0,0,0,25.74,39.4V35.69a1.14,1.14,0,0,0-.847-1.059,19.445,19.445,0,0,1-7.731-3.071ZM2.124,36.537c3.707-1.059,7.413-2.33,10.8-5.507a21.884,21.884,0,0,0,10.7,5.613V39.4c0,11.014-8.366,18.427-10.8,20.333-2.33-1.8-10.7-9.319-10.7-20.227Z" transform="translate(0.1 0.025)" fill="#3f45ac"/>
    </g>
    <g id="Group_36702" data-name="Group 36702" transform="translate(8.299 40.292)">
      <path id="Path_39154" data-name="Path 39154" d="M16.588,38.315a1.029,1.029,0,0,0-1.483.106l-3.918,4.342L9.81,40.751a1.072,1.072,0,1,0-1.8,1.165l2.118,3.071a.859.859,0,0,0,.847.424,1.2,1.2,0,0,0,.847-.318l4.871-5.3A1.134,1.134,0,0,0,16.588,38.315Z" transform="translate(-7.831 -38.045)" fill="#3f45ac"/>
    </g>
    <g id="Group_36703" data-name="Group 36703" transform="translate(5.089 35.478)">
      <path id="Path_39155" data-name="Path 39155" d="M20.685,41.443a7.943,7.943,0,1,0-7.943,7.943A8,8,0,0,0,20.685,41.443Zm-13.767,0a5.825,5.825,0,1,1,5.825,5.825A5.808,5.808,0,0,1,6.918,41.443Z" transform="translate(-4.8 -33.5)" fill="#3f45ac"/>
    </g>
  </g>
</svg>
