<svg xmlns="http://www.w3.org/2000/svg" width="88.046" height="71.61" viewBox="0 0 88.046 71.61">
  <g id="Group_36674" data-name="Group 36674" transform="translate(-5.977 -966.557)">
    <path id="Path_39055" data-name="Path 39055" d="M7.913,966.558a1.893,1.893,0,0,0-.656.125,2.081,2.081,0,0,0-.594.375,2,2,0,0,0-.438.531,2.153,2.153,0,0,0-.219,1.344,2.075,2.075,0,0,0,.25.656,1.948,1.948,0,0,0,1.031.844l16.125,6.125,4.562,16.969,6.75,25.406a10.4,10.4,0,0,0-4.344,6,10.518,10.518,0,1,0,20.625,1.781l41.5-11.125a2.032,2.032,0,0,0,1.25-.937,1.872,1.872,0,0,0,.25-.719,2.066,2.066,0,0,0-.062-.812,1.9,1.9,0,0,0-.344-.687,2.046,2.046,0,0,0-.594-.531,1.8,1.8,0,0,0-1.531-.156l-41.594,11.125a10.588,10.588,0,0,0-1.969-2.656L86.6,1009.839a1.952,1.952,0,0,0,.688-.344,2.093,2.093,0,0,0,.531-.594,1.91,1.91,0,0,0,.25-.719,1.948,1.948,0,0,0-.062-.781l-6.5-24.312a2.1,2.1,0,0,0-.344-.719,1.989,1.989,0,0,0-.594-.5,2.058,2.058,0,0,0-.75-.25,2.015,2.015,0,0,0-.781.031L66.57,985l-3.75-13.969a2.091,2.091,0,0,0-.344-.719,1.983,1.983,0,0,0-.594-.5,2.058,2.058,0,0,0-.75-.25,1.86,1.86,0,0,0-.75.031l-27.937,7.5a1.95,1.95,0,0,0-.688.344,1.986,1.986,0,0,0-.5.594,1.909,1.909,0,0,0-.25.719,2.033,2.033,0,0,0,.031.781l4.25,15.906s0,.029,0,.031l5.844,21.719a10.579,10.579,0,0,0-2.687.188L31.851,992.5l-4.812-17.969a2.012,2.012,0,0,0-.469-.812,2.037,2.037,0,0,0-.781-.531L8.695,966.714a2.017,2.017,0,0,0-.781-.156Zm70.25,19.469,5.469,20.469-38.469,10.313-5.469-20.469,7.688-2.062,30.781-8.25ZM40.6,1021.152a6.692,6.692,0,0,1,1.625.219,6.477,6.477,0,0,1,4.594,7.969v.031A6.5,6.5,0,1,1,34.257,1026v-.031a6.459,6.459,0,0,1,6.344-4.812Z" fill="#b85bea" fill-rule="evenodd"/>
  </g>
</svg>
