<svg xmlns="http://www.w3.org/2000/svg" width="78.942" height="81" viewBox="0 0 78.942 81">
  <path id="Path_39205" data-name="Path 39205" d="M83.194,43.083a.889.889,0,0,1,0,1.777H80.653a35.63,35.63,0,0,1-33.48,34.653l3.972,3.963a.892.892,0,1,1-1.262,1.262l-5.42-5.42a.919.919,0,0,1,0-1.262l5.42-5.42A.892.892,0,1,1,51.144,73.9l-3.821,3.821A33.844,33.844,0,0,0,78.876,44.86H76.388a.889.889,0,0,1,0-1.777ZM7.029,44.86H9.57A35.612,35.612,0,0,0,35.862,78.331a.729.729,0,0,0,.231,0,.9.9,0,0,0,.231-1.777A33.835,33.835,0,0,1,11.347,44.86h2.488a.889.889,0,0,0,0-1.777H11.347A33.844,33.844,0,0,1,44.223,10.207v2.488a.889.889,0,0,0,1.777,0V10.207A33.7,33.7,0,0,1,78.431,38.231a.888.888,0,1,0,1.75-.3A35.461,35.461,0,0,0,46,8.412V5.889a.889.889,0,0,0-1.777,0V8.412A35.621,35.621,0,0,0,9.57,43.065H7.029a.889.889,0,0,0,0,1.777Zm38.083,26A25.874,25.874,0,1,1,70.985,44.984,25.874,25.874,0,0,1,45.111,70.858Zm0-1.777a24.1,24.1,0,1,0-24.1-24.1,24.1,24.1,0,0,0,24.1,24.1Zm-.382-9.321H29.4a.889.889,0,0,1-.889-.889,16.793,16.793,0,0,1,12.44-16.18,8.734,8.734,0,1,1,8.734,0,16.793,16.793,0,0,1,12.439,16.18.889.889,0,0,1-.889.889H52.353a.889.889,0,0,1,0-1.777h7.935a15,15,0,0,0-29.953,0H44.729a.889.889,0,0,1,0,1.777Zm.56-17.664a6.957,6.957,0,1,0-6.957-6.957A6.957,6.957,0,0,0,45.289,42.1ZM49.5,58.534a.5.5,0,0,0-.08-.151.889.889,0,0,0-.107-.142l-.133-.107-.16-.08a.569.569,0,0,0-.16-.053.894.894,0,0,0-1,1.226.826.826,0,0,0,.187.293,1.3,1.3,0,0,0,.293.2.889.889,0,0,0,.338.062h.338l.16-.089a1.4,1.4,0,0,0,.133-.107.933.933,0,0,0,.258-.631.551.551,0,0,0,0-.169.533.533,0,0,0-.071-.249Z" transform="translate(-5.64 -4.5)" fill="#0e61db" stroke="#0e61db" stroke-width="1"/>
</svg>
