<svg xmlns="http://www.w3.org/2000/svg" width="76.479" height="81.941" viewBox="0 0 76.479 81.941">
  <g id="Group_36716" data-name="Group 36716" transform="translate(-4 -2)">
    <path id="Path_39192" data-name="Path 39192" d="M79.8,27.22,68.187,20.432V8.828a1.366,1.366,0,0,0-1.366-1.366H53.165A5.455,5.455,0,0,0,42.624,5.485l-5.65-3.3a1.366,1.366,0,0,0-1.875.5L32.378,7.463H23.12c-.02,0-.036.01-.056.011a1.343,1.343,0,0,0-.405.082c-.038.014-.074.024-.11.041s-.05.015-.073.027a1.364,1.364,0,0,0-.311.232c-.014.014-.023.031-.037.046a1.355,1.355,0,0,0-.229.339c-.019.038-.035.076-.05.116a1.347,1.347,0,0,0-.1.472V26.07L4.179,56.866a1.366,1.366,0,0,0,.5,1.856L47.5,83.755a1.366,1.366,0,0,0,1.875-.5L59.9,64.822h6.923a1.366,1.366,0,0,0,1.366-1.366V50.3L80.3,29.076A1.366,1.366,0,0,0,79.8,27.22ZM44.971,10.194h5.463v5.463a2.731,2.731,0,0,1-5.463,0ZM47.7,4.731a2.737,2.737,0,0,1,2.731,2.731H44.971A2.734,2.734,0,0,1,47.7,4.731Zm-10.914.509,3.8,2.222H35.522Zm-7.315,9.464-4.987,8.312V11.38Zm18.219,66L7.222,57.046,21.754,31.581V63.456a1.366,1.366,0,0,0,1.366,1.366H56.754ZM65.456,62.09H24.485V28.326l8-13.332a1.365,1.365,0,0,0-.413-1.839L27.63,10.194H42.239v5.463a5.463,5.463,0,1,0,10.926,0V10.194H65.456v51.9Zm2.731-17.3V23.595l9.07,5.3Z" transform="translate(0 0)" fill="#f1c40f"/>
    <path id="Path_39193" data-name="Path 39193" d="M24.366,21.731H40.754a1.366,1.366,0,0,0,0-2.731H24.366a1.366,1.366,0,1,0,0,2.731Z" transform="translate(6.948 6.217)" fill="#f1c40f"/>
    <path id="Path_39194" data-name="Path 39194" d="M24.366,35.731H35.291a1.366,1.366,0,1,0,0-2.731H24.366a1.366,1.366,0,1,0,0,2.731Z" transform="translate(6.948 11.336)" fill="#f1c40f"/>
    <path id="Path_39195" data-name="Path 39195" d="M38.023,39H24.366a1.366,1.366,0,1,0,0,2.731H38.023a1.366,1.366,0,1,0,0-2.731Z" transform="translate(6.948 13.531)" fill="#f1c40f"/>
    <path id="Path_39196" data-name="Path 39196" d="M25.366,23A1.366,1.366,0,0,0,24,24.366V32.56a1.366,1.366,0,0,0,1.366,1.366H41.754A1.366,1.366,0,0,0,43.12,32.56V24.366A1.366,1.366,0,0,0,41.754,23Zm15.023,8.194H26.731V25.731H40.388Z" transform="translate(7.314 7.68)" fill="#f1c40f"/>
    <path id="Path_39197" data-name="Path 39197" d="M51.729,27.139,46.868,24.2a1.366,1.366,0,0,0-1.9.509l-8.42,15.285a2200.631,2200.631,0,0,1-.152.528c0,.018-.014.034-.015.052L36,47.139a1.366,1.366,0,0,0,2.141,1.2l5.237-3.624c.014-.01.021-.028.035-.039a1.343,1.343,0,0,0,.357-.378c.005-.009.005-.019.01-.028s.014-.012.018-.02l8.42-15.285A1.366,1.366,0,0,0,51.729,27.139ZM38.976,42.994l1.117.676-1.2.833Zm3.117-1.306-2.523-1.526,7.1-12.891L49.193,28.8Z" transform="translate(11.702 8.045)" fill="#f1c40f"/>
  </g>
</svg>
