<svg xmlns="http://www.w3.org/2000/svg" width="63.76" height="63.75" viewBox="0 0 63.76 63.75">
  <g id="Group_36718" data-name="Group 36718" transform="translate(-100.13 -3896)">
    <path id="Path_39207" data-name="Path 39207" d="M60,1.13H6A4.87,4.87,0,0,0,1.13,6V60a4.887,4.887,0,0,0,4.88,4.88h54A4.887,4.887,0,0,0,64.89,60V6A4.893,4.893,0,0,0,60,1.13ZM2.88,6A3.135,3.135,0,0,1,6.01,2.87h54A3.135,3.135,0,0,1,63.14,6v5.5H2.88ZM63.13,60A3.135,3.135,0,0,1,60,63.13H6A3.135,3.135,0,0,1,2.87,60V13.25H63.12V60Z" transform="translate(99 3894.87)" fill="#ac565c"/>
    <path id="Path_39208" data-name="Path 39208" d="M8,44.86H58a.881.881,0,0,0,.88-.88V18.38A.881.881,0,0,0,58,17.5H8a.881.881,0,0,0-.88.88V43.99A.886.886,0,0,0,8,44.86Zm28.41-1.75c-1.84-1.54-3.23-4.51-4.52-7.56,1.32-2.73,2.48-3.87,3.95-3.87,2.37,0,3.69,3.13,5.09,6.44a27.066,27.066,0,0,0,2.52,4.99Zm-2.44,0H10.11a34.075,34.075,0,0,0,4.12-7.87c2.1-4.97,4.09-9.67,7.82-9.67s5.71,4.7,7.82,9.67A33.1,33.1,0,0,0,33.97,43.11ZM57.13,19.25V43.11H45.76c-1.31-1.15-2.29-3.44-3.23-5.67-1.56-3.69-3.17-7.51-6.7-7.51-2.24,0-3.72,1.6-4.83,3.53-2.1-4.91-4.41-9.64-8.96-9.64-4.89,0-7.2,5.46-9.43,10.74a34.28,34.28,0,0,1-3.74,7.27V19.25Z" transform="translate(99 3894.87)" fill="#ac565c"/>
    <path id="Path_39209" data-name="Path 39209" d="M11.73,4.31a2.88,2.88,0,1,0,2.88,2.88A2.887,2.887,0,0,0,11.73,4.31Zm0,4a1.13,1.13,0,1,1,1.13-1.13A1.129,1.129,0,0,1,11.73,8.31Z" transform="translate(99 3894.87)" fill="#ac565c"/>
    <path id="Path_39210" data-name="Path 39210" d="M18.99,4.31a2.88,2.88,0,1,0,2.88,2.88A2.887,2.887,0,0,0,18.99,4.31Zm0,4a1.13,1.13,0,1,1,1.13-1.13A1.129,1.129,0,0,1,18.99,8.31Z" transform="translate(99 3894.87)" fill="#ac565c"/>
    <path id="Path_39211" data-name="Path 39211" d="M26.25,4.31a2.88,2.88,0,1,0,2.88,2.88A2.887,2.887,0,0,0,26.25,4.31Zm0,4a1.13,1.13,0,1,1,1.13-1.13A1.129,1.129,0,0,1,26.25,8.31Z" transform="translate(99 3894.87)" fill="#ac565c"/>
    <path id="Path_39212" data-name="Path 39212" d="M12,58.88A4.88,4.88,0,1,0,7.13,54,4.887,4.887,0,0,0,12,58.88Zm0-8A3.13,3.13,0,1,1,8.88,54,3.135,3.135,0,0,1,12,50.88Z" transform="translate(99 3894.87)" fill="#ac565c"/>
    <path id="Path_39213" data-name="Path 39213" d="M30.58,51.13H19.86a.88.88,0,0,0,0,1.76H30.58a.88.88,0,0,0,0-1.76Z" transform="translate(99 3894.87)" fill="#ac565c"/>
    <path id="Path_39214" data-name="Path 39214" d="M26.25,55.13H19.86a.88.88,0,0,0,0,1.76h6.39a.88.88,0,0,0,0-1.76Z" transform="translate(99 3894.87)" fill="#ac565c"/>
    <path id="Path_39215" data-name="Path 39215" d="M39.42,49.13A4.88,4.88,0,1,0,44.3,54,4.887,4.887,0,0,0,39.42,49.13Zm0,8A3.13,3.13,0,1,1,42.55,54,3.135,3.135,0,0,1,39.42,57.13Z" transform="translate(99 3894.87)" fill="#ac565c"/>
    <path id="Path_39216" data-name="Path 39216" d="M58,51.13H47.28a.88.88,0,1,0,0,1.76H58a.88.88,0,0,0,0-1.76Z" transform="translate(99 3894.87)" fill="#ac565c"/>
    <path id="Path_39217" data-name="Path 39217" d="M53.67,55.13H47.28a.88.88,0,1,0,0,1.76h6.39a.88.88,0,1,0,0-1.76Z" transform="translate(99 3894.87)" fill="#ac565c"/>
    <path id="Path_39218" data-name="Path 39218" d="M48.85,32.15a5.19,5.19,0,1,0-5.19-5.19A5.2,5.2,0,0,0,48.85,32.15Zm0-8.62a3.44,3.44,0,1,1-3.44,3.44A3.446,3.446,0,0,1,48.85,23.53Z" transform="translate(99 3894.87)" fill="#ac565c"/>
  </g>
</svg>
