<svg xmlns="http://www.w3.org/2000/svg" width="65.557" height="70" viewBox="0 0 65.557 70">
  <path id="Path_39206" data-name="Path 39206" d="M59.986,16.731H46.048V10.52A9.532,9.532,0,0,0,36.527,1H20.214a9.532,9.532,0,0,0-9.52,9.52v7.313a9.532,9.532,0,0,0,9.52,9.521h1.5l5.916,6.473a1,1,0,0,0,.333.239H14.506A10.566,10.566,0,0,0,3.951,44.623v8.2A10.567,10.567,0,0,0,14.506,63.376h1.731l6.669,7.3a.992.992,0,0,0,1.714-.527l.978-6.774h7.193A10.566,10.566,0,0,0,43.352,52.822v-8.2a10.542,10.542,0,0,0-.115-1.549c.146,0,.292.009.438.009H50l.862,5.946a.991.991,0,0,0,.69.805.97.97,0,0,0,.291.044.994.994,0,0,0,.732-.323l5.915-6.473h1.5a9.533,9.533,0,0,0,9.521-9.521V26.248A9.532,9.532,0,0,0,59.986,16.731ZM22.88,25.693a.991.991,0,0,0-.732-.323H20.214a7.545,7.545,0,0,1-7.536-7.537V10.52a7.545,7.545,0,0,1,7.536-7.536H36.527a7.545,7.545,0,0,1,7.537,7.536v7.313a7.545,7.545,0,0,1-7.537,7.537H29.346a.993.993,0,0,0-.978.85l-.684,4.724ZM29.34,33.3l.862-5.946h3.948v6.206c0,.2.008.4.021.6a10.537,10.537,0,0,0-1.377-.093H28.754a.992.992,0,0,0,.588-.77ZM41.366,52.822A8.58,8.58,0,0,1,32.8,61.392H24.742a.992.992,0,0,0-.978.85l-.808,5.548-5.547-6.075a.992.992,0,0,0-.732-.323h-2.17a8.58,8.58,0,0,1-8.571-8.571v-8.2a8.58,8.58,0,0,1,8.571-8.571H32.8a8.58,8.58,0,0,1,8.571,8.571ZM67.523,33.561A7.545,7.545,0,0,1,59.986,41.1H58.05a.993.993,0,0,0-.732.323l-4.8,5.251-.685-4.724a.992.992,0,0,0-.978-.85H43.673a7.575,7.575,0,0,1-.952-.062,10.6,10.6,0,0,0-6.5-6.4,7.5,7.5,0,0,1-.081-1.08v-6.2h.391a9.533,9.533,0,0,0,9.479-8.643h13.98a7.545,7.545,0,0,1,7.536,7.536ZM28.83,39.587a5.637,5.637,0,0,0-5.179,2.576,5.633,5.633,0,0,0-5.18-2.576,6.553,6.553,0,0,0-5.865,5.218c-.465,2.221-.367,8.011,10.581,13.8a.991.991,0,0,0,.927,0C35.061,52.814,35.16,47.024,34.7,44.805A6.548,6.548,0,0,0,28.83,39.587ZM23.651,56.6c-6.467-3.528-9.86-7.762-9.1-11.386a4.618,4.618,0,0,1,4.064-3.644c.1-.007.193-.011.289-.011,1.7,0,3.081,1.121,3.815,3.118a.992.992,0,0,0,1.862,0c.775-2.107,2.272-3.236,4.1-3.107a4.619,4.619,0,0,1,4.064,3.644c.765,3.622-2.63,7.856-9.1,11.384ZM53.306,22.626a3.566,3.566,0,0,0-6.088,2.522V34.6a3.51,3.51,0,0,0,2.2,3.294,3.613,3.613,0,0,0,1.387.281,3.515,3.515,0,0,0,2.5-1.054L58.032,32.4a3.571,3.571,0,0,0,0-5.043Zm3.324,8.368L51.9,35.721A1.581,1.581,0,0,1,49.2,34.6V25.147a1.539,1.539,0,0,1,.978-1.462,1.626,1.626,0,0,1,.624-.127,1.543,1.543,0,0,1,1.1.47h0l4.727,4.727a1.588,1.588,0,0,1,0,2.238Zm-23.58-8.544a.993.993,0,0,0,.668-.611c.044-.12,1.1-2.98,2.567-8.078a.991.991,0,0,0-.613-1.2l-2.041-.76a14.44,14.44,0,0,0,.753-2.976,3.946,3.946,0,0,0-3.093-4.23.991.991,0,0,0-1.179.626c-1.015,2.834-2.317,4.676-4.06,5.725a1.731,1.731,0,0,0-1.082-.376H23.088A1.763,1.763,0,0,0,21.351,12.2l-.924,8.543A1.61,1.61,0,0,0,20.841,22a1.78,1.78,0,0,0,1.322.59h2.805a1.731,1.731,0,0,0,1.046-.352,7.24,7.24,0,0,0,3.38.771,13.974,13.974,0,0,0,3.654-.561Zm-8.322-1.844h-2.29l.875-8.061h1.415ZM31.6,6.871a1.846,1.846,0,0,1,.807,1.748,17.639,17.639,0,0,1-.971,3.431.991.991,0,0,0,.587,1.265l2.1.781c-.984,3.355-1.76,5.631-2.092,6.57-2.805.682-4.3.293-5.32-.3V12.85A11.332,11.332,0,0,0,31.6,6.871Z" transform="translate(-3.951 -1)" fill="#00925c"/>
</svg>
