<svg xmlns="http://www.w3.org/2000/svg" width="63.703" height="63.733" viewBox="0 0 63.703 63.733">
  <g id="Group_36717" data-name="Group 36717" transform="translate(-9982.77 -2151.5)">
    <path id="Path_39198" data-name="Path 39198" d="M57.237,6.92H33.711a.741.741,0,0,0,0,1.482H57.237a.741.741,0,1,0,0-1.482Z" transform="translate(9981.622 2150.682)" fill="#e6416a" stroke="#e6416a" stroke-width="1"/>
    <path id="Path_39199" data-name="Path 39199" d="M60.06,1.25H5.183A3.922,3.922,0,0,0,1.27,5.163V48.035a3.926,3.926,0,0,0,3.923,3.923H18.67a.741.741,0,0,0,0-1.482H5.183a2.446,2.446,0,0,1-2.441-2.441v-34.1H62.491v34.1a2.446,2.446,0,0,1-2.441,2.441H58.163a.741.741,0,1,0,0,1.482H60.05a3.926,3.926,0,0,0,3.923-3.923V5.173A3.924,3.924,0,0,0,60.06,1.25ZM2.752,12.455V5.163A2.429,2.429,0,0,1,5.183,2.732H60.06A2.446,2.446,0,0,1,62.5,5.173v7.282Z" transform="translate(9982 2150.75)" fill="#e6416a" stroke="#e6416a" stroke-width="1"/>
    <path id="Path_39200" data-name="Path 39200" d="M9.278,5.02A2.618,2.618,0,1,0,11.9,7.638,2.623,2.623,0,0,0,9.278,5.02Zm0,3.755a1.136,1.136,0,0,1,0-2.273,1.124,1.124,0,0,1,1.136,1.136A1.136,1.136,0,0,1,9.278,8.775Z" transform="translate(9981.936 2150.705)" fill="#e6416a" stroke="#e6416a" stroke-width="1"/>
    <path id="Path_39201" data-name="Path 39201" d="M17.118,5.02a2.618,2.618,0,1,0,2.618,2.618A2.623,2.623,0,0,0,17.118,5.02Zm0,3.755a1.136,1.136,0,1,1,0-2.273,1.124,1.124,0,0,1,1.136,1.136A1.136,1.136,0,0,1,17.118,8.775Z" transform="translate(9981.842 2150.705)" fill="#e6416a" stroke="#e6416a" stroke-width="1"/>
    <path id="Path_39202" data-name="Path 39202" d="M24.958,5.02a2.618,2.618,0,1,0,2.618,2.618A2.623,2.623,0,0,0,24.958,5.02Zm0,3.755a1.136,1.136,0,1,1,0-2.273,1.124,1.124,0,0,1,1.136,1.136A1.136,1.136,0,0,1,24.958,8.775Z" transform="translate(9981.749 2150.705)" fill="#e6416a" stroke="#e6416a" stroke-width="1"/>
    <path id="Path_39203" data-name="Path 39203" d="M50.763,47.134a1.749,1.749,0,0,0-2.411,0l-.168.168-.79-.79a.43.43,0,0,1-.04-.543A17.847,17.847,0,0,0,31.9,18.48a17.7,17.7,0,0,0-12.8,5.849,18.116,18.116,0,0,0,.375,24.415,17.893,17.893,0,0,0,22.479,2.618.43.43,0,0,1,.543.04l.8.8-.158.158a1.718,1.718,0,0,0-.01,2.421l7.835,7.826a5.411,5.411,0,0,0,7.648-7.658Zm-9.614,2.984a16.407,16.407,0,0,1-20.611-2.4,16.614,16.614,0,0,1-.346-22.39A16.244,16.244,0,0,1,31.92,19.962h.405A16.215,16.215,0,0,1,43.9,24.754a16.474,16.474,0,0,1,2.194,20.414,1.909,1.909,0,0,0,.237,2.391l.79.79-2.8,2.8-.79-.79A1.9,1.9,0,0,0,41.149,50.118ZM57.541,61.57a4.023,4.023,0,0,1-5.553,0l-7.835-7.826a.227.227,0,0,1-.059-.158.235.235,0,0,1,.069-.168l5.227-5.227a.233.233,0,0,1,.158-.069.2.2,0,0,1,.158.069l7.826,7.826A3.9,3.9,0,0,1,58.668,58.8,3.812,3.812,0,0,1,57.541,61.57Z" transform="translate(9981.841 2150.544)" fill="#e6416a" stroke="#e6416a" stroke-width="1"/>
    <path id="Path_39204" data-name="Path 39204" d="M41.863,26.893a13.43,13.43,0,1,0,3.933,9.5A13.3,13.3,0,0,0,41.863,26.893ZM40.816,44.836a11.951,11.951,0,1,1,3.5-8.448A11.854,11.854,0,0,1,40.816,44.836Z" transform="translate(9981.789 2150.491)" fill="#e6416a" stroke="#e6416a" stroke-width="1"/>
  </g>
</svg>
