<svg xmlns="http://www.w3.org/2000/svg" width="60" height="54.438" viewBox="0 0 60 54.438">
  <path id="Path_39219" data-name="Path 39219" d="M55.048,8.634V6.887A1.078,1.078,0,0,0,53.97,5.809H49.325a1.078,1.078,0,0,0-1.077,1.078V8.632H41.617V6.887a1.078,1.078,0,0,0-1.078-1.078H35.894a1.078,1.078,0,0,0-1.079,1.078V8.632H28.185V6.887a1.078,1.078,0,0,0-1.078-1.078H22.461a1.078,1.078,0,0,0-1.079,1.078V8.632H14.752V6.887a1.078,1.078,0,0,0-1.078-1.078H9.028A1.078,1.078,0,0,0,7.952,6.887V8.634A6.525,6.525,0,0,0,1.5,15.15V53.731a6.526,6.526,0,0,0,6.516,6.516H54.984A6.526,6.526,0,0,0,61.5,53.731V15.15a6.525,6.525,0,0,0-6.452-6.516ZM50.4,7.964h2.49v4.575H50.4Zm-13.433,0h2.491v4.575h-2.49Zm-13.434,0h2.49v4.575h-2.49Zm-13.432,0H12.6v4.575H10.106ZM7.952,10.79v2.828A1.077,1.077,0,0,0,9.03,14.695h4.645a1.077,1.077,0,0,0,1.078-1.077v-2.83h6.63v2.83a1.077,1.077,0,0,0,1.078,1.077h4.645a1.077,1.077,0,0,0,1.078-1.077v-2.83h6.632v2.83a1.077,1.077,0,0,0,1.078,1.077h4.645a1.077,1.077,0,0,0,1.078-1.077v-2.83h6.632v2.83a1.077,1.077,0,0,0,1.078,1.077h4.645a1.077,1.077,0,0,0,1.078-1.077V10.79a4.368,4.368,0,0,1,4.294,4.361v2.788H3.655V15.151a4.368,4.368,0,0,1,4.3-4.361ZM3.655,53.73V20.095H59.345V38.473a12.172,12.172,0,0,1-3.114,3.13V23.209H6.769v31.77H42.077a14.948,14.948,0,0,1-3,3.114H8.016A4.368,4.368,0,0,1,3.655,53.73ZM46.159,43.4a1.078,1.078,0,0,0-1.343,1.161c.032.288.054.575.07.863H44.4V40.172h9.671V42.8a12.276,12.276,0,0,1-7.915.6Zm-1.317,4.179A15.1,15.1,0,0,1,44.4,50.05V47.576Zm9.233-9.56H44.4V32.771h9.671Zm-11.826,0h-9.67V32.771h9.67Zm-11.826,0h-9.67V32.771h9.67Zm0,2.156V45.42h-9.67V40.172Zm2.156,0h9.67V45.42h-9.67Zm21.5-9.559H44.4V25.364h9.671Zm-11.826,0h-9.67V25.364h9.67Zm-11.826,0h-9.67V25.364h9.67Zm-11.825,0H8.925V25.364H18.6ZM8.925,32.771H18.6v5.245H8.925Zm0,7.4H18.6v5.248H8.925Zm0,7.4H18.6v5.248H8.925Zm11.826,0h9.67v5.248h-9.67Zm11.826,0h9.67v5.248h-9.67Zm14.478-1.8A14.422,14.422,0,0,0,58.489,42.6a22.271,22.271,0,0,1-15.634,14.87,17.2,17.2,0,0,0,4.2-11.688Zm7.928,12.311h-7.56A24.478,24.478,0,0,0,59.345,46.264V53.73A4.368,4.368,0,0,1,54.984,58.094Z" transform="translate(-1.5 -5.809)" fill="#fff"/>
</svg>
