<svg xmlns="http://www.w3.org/2000/svg" width="64.174" height="60" viewBox="0 0 64.174 60">
  <g id="Group_36738" data-name="Group 36738" transform="translate(-6.23 -9.5)">
    <path id="Path_39242" data-name="Path 39242" d="M40.833,63.333V78.868H71.047V63.333ZM69.579,77.4H42.3V64.8H69.579Z" transform="translate(-9.206 -14.323)" fill="#fff"/>
    <rect id="Rectangle_15520" data-name="Rectangle 15520" width="1.468" height="3.18" transform="translate(21.351 54.026)" fill="#fff"/>
    <path id="Path_39243" data-name="Path 39243" d="M70.4,59.757V58.289H65.449V43.312c.5-.248,1.82-1,1.82-2.131V36.994l-8.532-9.88H47.5V24.3h3.265a2.931,2.931,0,0,0,2.892-2.508h2.9V12.008h-2.9A2.932,2.932,0,0,0,50.766,9.5H27.877a2.931,2.931,0,0,0-2.892,2.508H21.945v4.159h-3.59a6.984,6.984,0,0,0-.962,13.9l-6.026,6.925v4.188a2.36,2.36,0,0,0,1.238,1.8v1.936H8.554v3.794A3.872,3.872,0,0,0,6.23,52.575c0,2.239,1.343,3.992,3.058,3.992s3.058-1.754,3.058-3.992a3.87,3.87,0,0,0-2.324-3.869V46.381h2.583V58.29H6.8v1.468h5.811v8.274H6.8V69.5H70.4V68.032H65.449V59.757ZM55.1,20.326H53.7v-6.85h1.393v6.85ZM10.878,52.574c0,1.368-.728,2.524-1.59,2.524S7.7,53.943,7.7,52.574s.728-2.524,1.59-2.524S10.878,51.206,10.878,52.574Zm7.278-21.147H60.521l1.047,1.212H17.1Zm44.68,2.68,1.646,1.906H14.165l1.659-1.906Zm-3.582-4.148H19.434l1.2-1.377H58.064ZM46.033,27.115H32.606V24.3H46.033ZM24.941,20.326H23.413V17.634h1.528Zm1.468-2.691h1.839v5.2h-.371a1.469,1.469,0,0,1-1.468-1.468Zm3.307-6.666h1.468V22.834H29.716ZM45.863,22.834H44.4V10.968h1.468Zm1.468-11.866H48.8V22.834H47.331V10.968Zm-4.4,11.866H41.459V10.968h1.468Zm-2.936,0H38.524V10.968h1.468Zm-2.936,0H35.588V10.968h1.468Zm-2.936,0H32.652V10.968H34.12Zm18.114-10.4v8.93a1.469,1.469,0,0,1-1.468,1.468h-.5V10.968h.5A1.469,1.469,0,0,1,52.234,12.436ZM27.877,10.968h.371v5.2H26.409V12.436A1.469,1.469,0,0,1,27.877,10.968Zm-4.464,2.508h1.528v2.691H23.413Zm-5.058,15.2a5.52,5.52,0,0,1,0-11.04h3.59v4.159h3.039A2.931,2.931,0,0,0,27.877,24.3h3.261v2.813H19.963l-1.357,1.56Zm-5.52,8.868.053-.061H65.751l.051.059v3.638c-.016.142-.361.457-.8.708-.435-.25-.778-.565-.794-.705V39.989a1.774,1.774,0,0,0-3.547,0v1.19c-.016.142-.361.457-.8.708-.434-.25-.778-.565-.794-.705V39.989a1.774,1.774,0,0,0-3.547,0v1.19c-.016.142-.361.457-.8.708-.434-.25-.778-.565-.794-.705V39.989a1.774,1.774,0,0,0-3.547,0v1.19c-.016.142-.361.457-.8.708-.434-.25-.778-.565-.794-.705V39.989a1.774,1.774,0,0,0-3.547,0v1.19c-.016.142-.361.457-.8.708-.434-.25-.778-.565-.794-.705V39.989a1.774,1.774,0,0,0-3.547,0v1.19c-.016.142-.36.457-.795.708-.41-.237-.778-.554-.795-.705V39.989a1.774,1.774,0,0,0-3.548,0v1.19c-.016.142-.361.457-.795.708-.41-.236-.778-.554-.8-.705V39.989a1.774,1.774,0,0,0-3.548,0v1.19c-.016.142-.361.457-.795.708-.41-.236-.778-.554-.8-.705V39.989a1.774,1.774,0,0,0-3.548,0v1.19c-.016.142-.361.457-.795.708-.41-.236-.778-.554-.8-.705V39.989a1.774,1.774,0,0,0-3.548,0v1.19c-.016.142-.361.457-.795.708-.41-.236-.778-.554-.8-.705V39.989a1.774,1.774,0,0,0-3.548,0v1.19c-.016.142-.361.457-.795.708-.41-.236-.778-.554-.8-.705V37.542Zm1.238,5.77c.5-.247,1.82-1,1.82-2.131V39.989a.306.306,0,0,1,.612,0v1.192c0,1.257,1.635,2.053,1.963,2.2l.3.134.3-.134c.328-.147,1.963-.942,1.963-2.2V39.989a.306.306,0,0,1,.612,0v1.192c0,1.257,1.635,2.053,1.963,2.2l.3.134.3-.134c.328-.147,1.963-.942,1.963-2.2V39.989a.306.306,0,0,1,.612,0v1.192c0,1.257,1.635,2.053,1.963,2.2l.3.134.3-.134c.328-.147,1.963-.942,1.963-2.2V39.989a.306.306,0,0,1,.612,0v1.192c0,1.257,1.635,2.053,1.963,2.2l.3.134.3-.134c.328-.147,1.963-.942,1.963-2.2V39.989a.306.306,0,0,1,.612,0v1.192c0,1.257,1.635,2.053,1.963,2.2l.3.134.3-.134c.328-.147,1.963-.942,1.963-2.2V39.989a.306.306,0,1,1,.611,0v1.19c0,1.257,1.634,2.053,1.962,2.2l.3.134.3-.134c.328-.147,1.964-.942,1.964-2.2V39.989a.306.306,0,1,1,.611,0v1.19c0,1.257,1.634,2.053,1.962,2.2l.3.134.3-.134c.328-.147,1.964-.942,1.964-2.2V39.989a.306.306,0,1,1,.611,0v1.19c0,1.257,1.634,2.053,1.962,2.2l.3.134.3-.134c.328-.147,1.964-.942,1.964-2.2V39.989a.306.306,0,1,1,.611,0v1.19c0,1.257,1.634,2.053,1.962,2.2l.3.134.3-.134c.328-.147,1.964-.942,1.964-2.2V39.989a.306.306,0,1,1,.611,0v1.19a2.359,2.359,0,0,0,1.237,1.8v1.936H14.08v-1.6ZM28.019,46.38V68.032H19.211V46.38Zm-13.945,0h3.67V68.032h-3.67ZM29.487,68.032V46.38h34.5V68.032Z" fill="#fff"/>
    <rect id="Rectangle_15521" data-name="Rectangle 15521" width="1.468" height="8.165" transform="translate(46 52.711)" fill="#fff"/>
    <rect id="Rectangle_15522" data-name="Rectangle 15522" width="1.468" height="4.385" transform="translate(42.33 54.638)" fill="#fff"/>
    <rect id="Rectangle_15523" data-name="Rectangle 15523" width="1.468" height="4.385" transform="translate(49.669 54.638)" fill="#fff"/>
  </g>
</svg>
