<svg xmlns="http://www.w3.org/2000/svg" width="47.076" height="60.5" viewBox="0 0 47.076 60.5">
  <g id="Group_36737" data-name="Group 36737" transform="translate(-18.7 -9.75)">
    <path id="Path_39232" data-name="Path 39232" d="M53.145,57.267A12.343,12.343,0,0,0,63.751,45.051V43.1a6.25,6.25,0,0,0-6.243-6.243H55.967V33.054a.732.732,0,0,0-.732-.732H32.052a.732.732,0,0,0-.732.732v3.807H29.78A6.25,6.25,0,0,0,23.536,43.1v1.946A12.344,12.344,0,0,0,34.142,57.267a12.321,12.321,0,0,0,4.8,3.551v3.392h-3.7a.732.732,0,0,0-.732.732v9.907a.732.732,0,0,0,.732.732H52.048a.732.732,0,0,0,.732-.732V64.942a.732.732,0,0,0-.732-.732h-3.7V60.818A12.324,12.324,0,0,0,53.145,57.267Zm1.7-2.706c.043-.093.086-.186.126-.281.094-.22.181-.442.262-.666.024-.067.051-.132.074-.2q.149-.435.264-.88c.019-.073.033-.148.051-.221.055-.228.1-.458.145-.691.018-.1.034-.2.05-.3q.05-.327.082-.659c.009-.1.02-.19.028-.286.023-.312.039-.625.039-.941V38.325h1.541a4.785,4.785,0,0,1,4.78,4.78v1.946a10.89,10.89,0,0,1-7.933,10.48c.023-.041.043-.083.066-.123.048-.087.093-.175.139-.262Q54.711,54.857,54.847,54.562ZM25,45.051V43.1a4.785,4.785,0,0,1,4.78-4.78h1.541V49.433c0,.316.015.63.039.942.007.1.018.19.028.285q.032.331.082.659c.016.1.031.2.05.306.041.232.09.462.145.69.018.074.032.148.051.222q.115.445.264.881c.023.066.05.131.074.2.081.225.169.449.263.669.04.093.082.184.124.276q.138.3.293.594c.044.084.087.168.133.251.023.042.043.085.067.127A10.89,10.89,0,0,1,25,45.051ZM51.316,65.674v8.443H35.971V65.674H51.316ZM40.4,64.211V61.325l.023.006c.042.011.084.019.126.03q.4.1.814.18c.109.02.219.037.329.055q.32.051.643.084c.117.012.233.026.351.035q.412.031.825.036c.043,0,.084.005.127.005s.084-.005.127-.005q.413,0,.825-.036c.117-.009.234-.022.351-.035q.324-.034.645-.085c.109-.017.218-.034.326-.054q.422-.078.837-.186c.033-.009.067-.015.1-.024l.028-.007v2.885Zm6.958-4.572q-.446.163-.9.285a11.018,11.018,0,0,1-4.7.2,10.692,10.692,0,0,1-1.831-.488h0a10.872,10.872,0,0,1-4.82-3.5,10.76,10.76,0,0,1-2.319-6.705v-11.1h8.493a.732.732,0,1,0,0-1.463H32.784V33.786H54.5V49.433q0,.46-.037.913a10.752,10.752,0,0,1-2.281,5.792h0A10.875,10.875,0,0,1,47.363,59.638Z" transform="translate(-1.147 -5.581)" fill="#fff" stroke="#fff" stroke-width="0.5"/>
    <path id="Path_39233" data-name="Path 39233" d="M44.074,79.054v4.683a.732.732,0,0,0,.732.732H52.75a.732.732,0,0,0,.732-.732V79.054a.732.732,0,0,0-.732-.732H44.806A.732.732,0,0,0,44.074,79.054Zm1.463.732h6.481v3.219H45.537Z" transform="translate(-6.281 -17.081)" fill="#fff" stroke="#fff" stroke-width="0.5"/>
    <path id="Path_39234" data-name="Path 39234" d="M50.7,65.23q-.3.024-.6.023a.732.732,0,1,0,0,1.463q.359,0,.714-.028A.732.732,0,0,0,50.7,65.23Z" transform="translate(-7.605 -13.807)" fill="#fff" stroke="#fff" stroke-width="0.5"/>
    <path id="Path_39235" data-name="Path 39235" d="M44.726,62.03a7.619,7.619,0,0,1-4.994-7.138.732.732,0,0,0-1.463,0,9.086,9.086,0,0,0,5.957,8.513.732.732,0,1,0,.5-1.375Z" transform="translate(-4.83 -11.04)" fill="#fff" stroke="#fff" stroke-width="0.5"/>
    <path id="Path_39236" data-name="Path 39236" d="M54.51,38.379H53.367a.732.732,0,0,0,0,1.463H54.51a.732.732,0,1,0,0-1.463Z" transform="translate(-8.422 -7.095)" fill="#fff" stroke="#fff" stroke-width="0.5"/>
    <path id="Path_39237" data-name="Path 39237" d="M77.147,68.277a3.3,3.3,0,0,1-3.29-3.3.732.732,0,0,0-1.463,0,3.3,3.3,0,0,1-3.3,3.3.732.732,0,0,0,0,1.463,3.3,3.3,0,0,1,3.3,3.29.732.732,0,0,0,1.463,0,3.294,3.294,0,0,1,3.29-3.29.732.732,0,1,0,0-1.463ZM73.125,70.5a4.8,4.8,0,0,0-1.494-1.491,4.807,4.807,0,0,0,1.494-1.494,4.8,4.8,0,0,0,1.491,1.494A4.784,4.784,0,0,0,73.125,70.5Z" transform="translate(-12.354 -13.562)" fill="#fff" stroke="#fff" stroke-width="0.5"/>
    <path id="Path_39238" data-name="Path 39238" d="M60.19,15.492a3.3,3.3,0,0,1,3.3,3.29.732.732,0,1,0,1.463,0,3.294,3.294,0,0,1,3.29-3.29.732.732,0,0,0,0-1.463,3.3,3.3,0,0,1-3.29-3.3.732.732,0,1,0-1.463,0,3.3,3.3,0,0,1-3.3,3.3.732.732,0,0,0,0,1.463Zm4.028-2.226A4.8,4.8,0,0,0,65.71,14.76a4.793,4.793,0,0,0-1.492,1.491,4.792,4.792,0,0,0-1.494-1.491A4.8,4.8,0,0,0,64.218,13.266Z" transform="translate(-10.127)" fill="#fff" stroke="#fff" stroke-width="0.5"/>
    <path id="Path_39239" data-name="Path 39239" d="M48.3,24.342a1.744,1.744,0,0,1,1.744,1.74.732.732,0,1,0,1.463,0,1.742,1.742,0,0,1,1.74-1.74.732.732,0,0,0,0-1.463,1.744,1.744,0,0,1-1.74-1.744.732.732,0,1,0-1.463,0A1.746,1.746,0,0,1,48.3,22.879a.732.732,0,0,0,0,1.463Zm2.476-1.17a3.207,3.207,0,0,0,.437.438,3.2,3.2,0,0,0-.437.437,3.206,3.206,0,0,0-.438-.437A3.212,3.212,0,0,0,50.775,23.172Z" transform="translate(-7.155 -2.601)" fill="#fff" stroke="#fff" stroke-width="0.5"/>
    <path id="Path_39240" data-name="Path 39240" d="M24.629,67.862a1.744,1.744,0,0,1-1.74-1.745.732.732,0,0,0-1.463,0,1.746,1.746,0,0,1-1.744,1.745.732.732,0,1,0,0,1.463,1.744,1.744,0,0,1,1.744,1.74.732.732,0,0,0,1.463,0,1.742,1.742,0,0,1,1.74-1.74.732.732,0,1,0,0-1.463ZM22.157,69.03a3.2,3.2,0,0,0-.438-.437,3.253,3.253,0,0,0,.438-.438,3.248,3.248,0,0,0,.437.438A3.2,3.2,0,0,0,22.157,69.03Z" transform="translate(0 -13.846)" fill="#fff" stroke="#fff" stroke-width="0.5"/>
    <path id="Path_39241" data-name="Path 39241" d="M24.268,17.168A4.973,4.973,0,0,1,29.24,22.13a.732.732,0,1,0,1.463,0,4.968,4.968,0,0,1,4.963-4.963.732.732,0,1,0,0-1.463A4.973,4.973,0,0,1,30.7,10.732a.732.732,0,1,0-1.463,0A4.978,4.978,0,0,1,24.268,15.7a.732.732,0,0,0,0,1.463Zm5.7-3.456a6.478,6.478,0,0,0,2.72,2.724,6.476,6.476,0,0,0-2.72,2.72,6.478,6.478,0,0,0-2.724-2.72A6.479,6.479,0,0,0,29.971,13.711Z" transform="translate(-1.147)" fill="#fff" stroke="#fff" stroke-width="0.5"/>
  </g>
</svg>
