<svg xmlns="http://www.w3.org/2000/svg" width="58.951" height="64.1" viewBox="0 0 58.951 64.1">
  <g id="Group_36736" data-name="Group 36736" transform="translate(-3.574 -1)">
    <g id="Group_36724" data-name="Group 36724">
      <path id="Path_39220" data-name="Path 39220" d="M25.4,27.6a6.266,6.266,0,0,1,2.1,3.7,2.882,2.882,0,0,0-.1,5.3,2.663,2.663,0,0,0-.3,1.2A2.9,2.9,0,0,0,30,40.7h6a2.9,2.9,0,0,0,2.9-2.9,2.663,2.663,0,0,0-.3-1.2,2.882,2.882,0,0,0-.1-5.3,7.255,7.255,0,0,1,2.2-3.8,11.43,11.43,0,1,0-15.3.1ZM33,20.8a1.4,1.4,0,1,1,1.4-1.4A1.367,1.367,0,0,1,33,20.8Zm4.4,12.3a.9.9,0,0,1,0,1.8H28.6a.9.9,0,0,1,0-1.8ZM36,38.7H30a.9.9,0,0,1,0-1.8h6a.9.9,0,0,1,0,1.8Zm-12.4-21A9.445,9.445,0,1,1,39.3,26a9.562,9.562,0,0,0-2.9,5.1H34V22.7a3.421,3.421,0,1,0-4.4-3.3A3.549,3.549,0,0,0,32,22.7v8.4H29.6a9.239,9.239,0,0,0-2.8-5A9.618,9.618,0,0,1,23.6,17.7Z" fill="#fff"/>
    </g>
    <g id="Group_36725" data-name="Group 36725">
      <path id="Path_39221" data-name="Path 39221" d="M27.4,57.5c-3.2-1.9-5.7-1.9-5.7-4.1V51.5a11.679,11.679,0,0,0,1.6-5.7,5.513,5.513,0,0,0-5.9-5.9c-3.7,0-5.9,2.3-5.9,5.9a11.756,11.756,0,0,0,1.6,5.8v1.9c0,2.2-2.6,2.3-5.7,4.1a7.117,7.117,0,0,0-3.8,5.1,2.062,2.062,0,0,0,2,2.4H29.1a2.011,2.011,0,0,0,2-2.4A6.748,6.748,0,0,0,27.4,57.5Zm-10-15.7c1.8,0,3.9.7,3.9,3.9,0,3.3-2,6.7-3.9,6.7s-3.9-3.5-3.9-6.7C13.4,42.5,15.6,41.8,17.4,41.8ZM5.6,63h0a4.828,4.828,0,0,1,2.6-3.7c2.7-1.7,6.6-2,6.8-5.7a4.006,4.006,0,0,0,2.3.8,4.006,4.006,0,0,0,2.3-.8c.4,5.4,8.8,3.8,9.4,9.3H5.6Z" fill="#fff"/>
    </g>
    <g id="Group_36726" data-name="Group 36726">
      <path id="Path_39222" data-name="Path 39222" d="M62.5,62.6a7.117,7.117,0,0,0-3.8-5.1c-3.2-1.9-5.7-1.9-5.7-4.1V51.5a11.679,11.679,0,0,0,1.6-5.7,5.513,5.513,0,0,0-5.9-5.9c-3.7,0-5.9,2.3-5.9,5.9a11.756,11.756,0,0,0,1.6,5.8v1.9c0,2.2-2.5,2.3-5.7,4.1a7.117,7.117,0,0,0-3.8,5.1,2.062,2.062,0,0,0,2,2.4H60.4A2.21,2.21,0,0,0,62.5,62.6ZM48.6,41.8c1.8,0,3.9.7,3.9,3.9,0,3.3-2,6.7-3.9,6.7s-3.9-3.5-3.9-6.7S46.9,41.8,48.6,41.8ZM36.9,63h0a4.828,4.828,0,0,1,2.6-3.7c2.7-1.7,6.6-2,6.8-5.7a3.706,3.706,0,0,0,4.6,0c.2,3.7,4.1,4,6.8,5.7A4.669,4.669,0,0,1,60.3,63Z" fill="#fff"/>
    </g>
    <g id="Group_36727" data-name="Group 36727">
      <path id="Path_39223" data-name="Path 39223" d="M33,6.3a.945.945,0,0,0,1-1V2a1,1,0,0,0-2,0V5.3A1,1,0,0,0,33,6.3Z" fill="#fff"/>
    </g>
    <g id="Group_36728" data-name="Group 36728">
      <path id="Path_39224" data-name="Path 39224" d="M26.7,6.7a.985.985,0,1,0,1.8-.8l-1.3-3a.917.917,0,0,0-1.3-.5.917.917,0,0,0-.5,1.3Z" fill="#fff"/>
    </g>
    <g id="Group_36729" data-name="Group 36729">
      <path id="Path_39225" data-name="Path 39225" d="M22.3,10.1a.99.99,0,0,0,1.4-1.4L21.4,6.4A.99.99,0,1,0,20,7.8Z" fill="#fff"/>
    </g>
    <g id="Group_36730" data-name="Group 36730">
      <path id="Path_39226" data-name="Path 39226" d="M16.6,13.7l3,1.3a.985.985,0,0,0,.8-1.8l-3-1.3a.992.992,0,0,0-1.3.5C15.8,12.9,16,13.4,16.6,13.7Z" fill="#fff"/>
    </g>
    <g id="Group_36731" data-name="Group 36731">
      <path id="Path_39227" data-name="Path 39227" d="M45.1,14.4a.917.917,0,0,0,1.3.5l3-1.3a.917.917,0,0,0,.5-1.3.917.917,0,0,0-1.3-.5l-3,1.3A.992.992,0,0,0,45.1,14.4Z" fill="#fff"/>
    </g>
    <g id="Group_36732" data-name="Group 36732">
      <path id="Path_39228" data-name="Path 39228" d="M43.7,10.1,46,7.8a.99.99,0,1,0-1.4-1.4L42.3,8.7a.99.99,0,0,0,1.4,1.4Z" fill="#fff"/>
    </g>
    <g id="Group_36733" data-name="Group 36733">
      <path id="Path_39229" data-name="Path 39229" d="M38,7.3a.992.992,0,0,0,1.3-.5l1.3-3A.985.985,0,1,0,38.8,3L37.5,6A.992.992,0,0,0,38,7.3Z" fill="#fff"/>
    </g>
    <g id="Group_36734" data-name="Group 36734">
      <path id="Path_39230" data-name="Path 39230" d="M46.4,19.4a.945.945,0,0,0,1,1h4.2V35.9a1,1,0,0,0,2,0V19.4a.945.945,0,0,0-1-1H47.4A1,1,0,0,0,46.4,19.4Z" fill="#fff"/>
    </g>
    <g id="Group_36735" data-name="Group 36735">
      <path id="Path_39231" data-name="Path 39231" d="M13.7,36.8a.945.945,0,0,0,1-1V20.4h4.2a1,1,0,0,0,0-2H13.7a.945.945,0,0,0-1,1V35.9A.923.923,0,0,0,13.7,36.8Z" fill="#fff"/>
    </g>
  </g>
</svg>
