<svg xmlns="http://www.w3.org/2000/svg" xmlns:xlink="http://www.w3.org/1999/xlink" width="90" height="90" viewBox="0 0 90 90">
  <defs>
    <clipPath id="clip-path">
      <rect id="Rectangle_12246" data-name="Rectangle 12246" width="90" height="90" transform="translate(735 7361)" fill="#070938"/>
    </clipPath>
  </defs>
  <g id="Mask_Group_9077" data-name="Mask Group 9077" transform="translate(-735 -7361)" clip-path="url(#clip-path)">
    <g id="Group_32521" data-name="Group 32521" transform="translate(362 4957)">
      <path id="Path_35058" data-name="Path 35058" d="M233.705,213.134a1.5,1.5,0,0,0-1.835-.225l-3.1-2.686c-.54-.29-4.265,2.929-4.831,2.686-.686-.291.15.215-.564,0l-2.41-1.526c-.166-.669-1.675-3.383-2.364-3.383h-3.92a1.5,1.5,0,0,0-1.457,1.138l-1.177,4.71a20.371,20.371,0,0,0-3.754,1.56l-4.164-2.5a1.5,1.5,0,0,0-1.835.225l-4.693,4.687a1.5,1.5,0,0,0-.225,1.835l2.5,4.164a20.322,20.322,0,0,0-1.56,3.754l-4.71,1.177a1.5,1.5,0,0,0-1.138,1.457v6.629a1.5,1.5,0,0,0,1.138,1.456l4.71,1.178a20.364,20.364,0,0,0,1.56,3.754l-2.5,4.164c-.355.591.451.651.939,1.139.686.686,5.815-3.138,5.815-3.138l4.989,2.531,1.856,5.049h6.611l1.585-6.125,8.534.544,5.33-4.164-2.275-4.38s1.539.639,2.275-5.788c.135-1.176,4.921-.767,4.921-.767v-6.52s-4.569-.364-4.921-1.949C231.973,219.032,233.705,213.134,233.705,213.134Z" transform="translate(221.471 2239.723)" fill="#6febf7"/>
      <g id="analytics" transform="translate(374 2404)">
        <path id="Path_35059" data-name="Path 35059" d="M242.388,228.758l-4.709-1.178a20.4,20.4,0,0,0-1.56-3.754l2.5-4.164a1.5,1.5,0,0,0-.225-1.835l-4.687-4.693a1.5,1.5,0,0,0-1.835-.225l-4.164,2.5c-.54-.29-1.1-.557-1.662-.8a20.53,20.53,0,0,0-2.1-.76l-1.178-4.71A1.5,1.5,0,0,0,221.307,208h-6.624a1.5,1.5,0,0,0-1.457,1.138l-1.177,4.71a20.371,20.371,0,0,0-3.754,1.56l-4.164-2.5a1.5,1.5,0,0,0-1.835.225l-4.693,4.687a1.5,1.5,0,0,0-.225,1.835l2.5,4.164a20.322,20.322,0,0,0-1.56,3.754l-4.71,1.177a1.5,1.5,0,0,0-1.138,1.457v6.629a1.5,1.5,0,0,0,1.138,1.456l4.71,1.178a20.364,20.364,0,0,0,1.56,3.754l-2.5,4.164a1.5,1.5,0,0,0,.225,1.835l4.687,4.687a1.5,1.5,0,0,0,1.835.225l4.164-2.5a20.416,20.416,0,0,0,3.754,1.56l1.178,4.709a1.5,1.5,0,0,0,1.457,1.139h6.629a1.5,1.5,0,0,0,1.456-1.139l1.178-4.709a20.416,20.416,0,0,0,3.754-1.56l4.164,2.5a1.5,1.5,0,0,0,1.835-.225l4.686-4.687a1.5,1.5,0,0,0,.226-1.835l-2.5-4.164a20.417,20.417,0,0,0,1.56-3.754l4.709-1.178a1.5,1.5,0,0,0,1.138-1.456v-6.623A1.5,1.5,0,0,0,242.388,228.758Zm-1.865,6.912-4.419,1.106a1.5,1.5,0,0,0-1.093,1.087,17.393,17.393,0,0,1-1.92,4.628,1.505,1.505,0,0,0,0,1.541l2.346,3.9-3.022,3.035-3.9-2.346a1.5,1.5,0,0,0-1.541,0,17.407,17.407,0,0,1-4.628,1.919,1.5,1.5,0,0,0-1.087,1.093l-1.115,4.416h-4.283l-1.1-4.419a1.5,1.5,0,0,0-1.087-1.093,17.405,17.405,0,0,1-4.628-1.92,1.5,1.5,0,0,0-1.541,0l-3.9,2.346-3.035-3.022,2.346-3.9a1.5,1.5,0,0,0,0-1.541,17.406,17.406,0,0,1-1.919-4.628,1.5,1.5,0,0,0-1.093-1.087l-4.416-1.115v-4.282l4.419-1.106a1.5,1.5,0,0,0,1.093-1.087,17.39,17.39,0,0,1,1.919-4.628,1.5,1.5,0,0,0,0-1.541l-2.346-3.9,3.023-3.035,3.9,2.346a1.5,1.5,0,0,0,1.541,0,17.406,17.406,0,0,1,4.628-1.919,1.5,1.5,0,0,0,1.087-1.093L215.856,211h4.283l1.106,4.419a1.5,1.5,0,0,0,1.087,1.093,17.325,17.325,0,0,1,4.627,1.918,1.5,1.5,0,0,0,1.543,0l3.9-2.346,3.035,3.024-2.346,3.9a1.5,1.5,0,0,0,0,1.541,17.406,17.406,0,0,1,1.92,4.628,1.5,1.5,0,0,0,1.093,1.087l4.416,1.115Zm0,0" transform="translate(-156.428 -168.956)" fill="#070938"/>
        <path id="Path_35060" data-name="Path 35060" d="M276.482,280A12.014,12.014,0,1,0,288.5,292.014,12.013,12.013,0,0,0,276.482,280Zm0,21.024a9.01,9.01,0,1,1,9.01-9.01A9.01,9.01,0,0,1,276.482,301.024Zm0,0" transform="translate(-214.913 -227.441)" fill="#070938"/>
        <path id="Path_35061" data-name="Path 35061" d="M368.469,96h3v24.027h-3Zm0,0" transform="translate(-299.391 -77.98)" fill="#070938"/>
        <path id="Path_35062" data-name="Path 35062" d="M6.476,76.587v6.007a1.5,1.5,0,0,0,1.5,1.5H39.513v-3H9.479V76.587H27.5a1.506,1.506,0,0,0,.671-.15l6.007-3a1.5,1.5,0,0,0,0-2.688l-6.007-3a1.5,1.5,0,0,0-.671-.165H9.479V16.519H66.543a6.007,6.007,0,0,0,6.007-6.007v-3a1.5,1.5,0,0,0-1.5-1.5H66.543v3h3v1.5a3,3,0,0,1-6.007,0V6.007a3,3,0,0,1,3-3H72.55a3,3,0,0,1,3,3V40.546h3V6.007A6.007,6.007,0,0,0,72.55,0H6.476A6.007,6.007,0,0,0,.469,6.007v4.505a6.007,6.007,0,0,0,6.007,6.007V67.576h-1.5a4.505,4.505,0,1,0,0,9.01Zm-3-66.075V6.007a3,3,0,0,1,3-3h54.9a5.943,5.943,0,0,0-.834,3v4.505a5.943,5.943,0,0,0,.834,3H6.476A3,3,0,0,1,3.472,10.512Zm26.676,61.57-3,1.5H26v-3h1.147Zm-26.676,0a1.5,1.5,0,0,1,1.5-1.5h18.02v3H4.974A1.5,1.5,0,0,1,3.472,72.081Zm0,0" transform="translate(-0.469 0)" fill="#070938"/>
        <path id="Path_35063" data-name="Path 35063" d="M.469,120h3v30.034h-3Zm0,0" transform="translate(-0.469 -97.475)" fill="#36cedc"/>
        <path id="Path_35064" data-name="Path 35064" d="M117.059,115v-3H97.537a1.5,1.5,0,0,0-1.062.44l-2.744,2.744a16.464,16.464,0,0,0-21.39,1.652,1.5,1.5,0,0,0,0,2.123L82.96,129.571a1.5,1.5,0,0,0,1.062.443H99.038a1.5,1.5,0,0,0,1.5-1.5,16.448,16.448,0,0,0-4.548-11.35L98.159,115ZM97.452,127.01H84.643l-9.059-9.059a13.47,13.47,0,0,1,15.994-.623l-4.114,4.114,2.123,2.123,4.289-4.289A13.463,13.463,0,0,1,97.452,127.01Zm0,0" transform="translate(-58.493 -90.969)" fill="#36cedc"/>
        <path id="Path_35065" data-name="Path 35065" d="M328.469,112h3v3h-3Zm0,0" transform="translate(-266.899 -90.976)" fill="#070938"/>
        <path id="Path_35066" data-name="Path 35066" d="M88.469,232h3v3h-3Zm0,0" transform="translate(-71.95 -188.451)" fill="#070938"/>
        <path id="Path_35067" data-name="Path 35067" d="M120.469,232h15.017v3H120.469Zm0,0" transform="translate(-97.943 -188.451)" fill="#070938"/>
        <path id="Path_35068" data-name="Path 35068" d="M72.469,264H96.5v3H72.469Zm0,0" transform="translate(-58.953 -214.444)" fill="#070938"/>
        <path id="Path_35069" data-name="Path 35069" d="M248.469,144h3v3h-3Zm0,0" transform="translate(-201.916 -116.969)" fill="#070938"/>
        <path id="Path_35070" data-name="Path 35070" d="M280.469,144h12.014v3H280.469Zm0,0" transform="translate(-227.909 -116.969)" fill="#070938"/>
        <path id="Path_35071" data-name="Path 35071" d="M248.469,176h18.02v3h-18.02Zm0,0" transform="translate(-201.916 -142.963)" fill="#070938"/>
        <path id="Path_35072" data-name="Path 35072" d="M72.469,296H91.991v3H72.469Zm0,0" transform="translate(-58.953 -240.437)" fill="#070938"/>
      </g>
    </g>
  </g>
</svg>
