<svg xmlns="http://www.w3.org/2000/svg" xmlns:xlink="http://www.w3.org/1999/xlink" width="90" height="90" viewBox="0 0 90 90">
  <defs>
    <clipPath id="clip-path">
      <rect id="Rectangle_12247" data-name="Rectangle 12247" width="90" height="90" transform="translate(1096 7398)" fill="#070938"/>
    </clipPath>
  </defs>
  <g id="Mask_Group_9078" data-name="Mask Group 9078" transform="translate(-1096 -7398)" clip-path="url(#clip-path)">
    <g id="Group_32522" data-name="Group 32522" transform="translate(-10442 249)">
      <path id="Path_35073" data-name="Path 35073" d="M16,18.18V14h7.773a9.731,9.731,0,0,0-.44,2.933v8.8a13.78,13.78,0,0,0,.132,1.921A10.543,10.543,0,0,0,20.4,27.2a9.587,9.587,0,0,0-1.467.1V21.685A11.629,11.629,0,0,1,16,18.18Z" transform="translate(11543.533 7153.6)" fill="#fcd4a3"/>
      <path id="Path_35074" data-name="Path 35074" d="M47.205,48.491l-8.287,8.287-3.784-3.769a20.506,20.506,0,0,1-2.8,1.173v5.324H20.6V54.181a20.506,20.506,0,0,1-2.8-1.173l-.132.132-3.652,3.637L5.728,48.491,9.5,44.707a20.526,20.526,0,0,1-1.173-2.8H3V30.172H8.324a20.511,20.511,0,0,1,1.173-2.8L5.728,23.587l6.527-6.527a24.1,24.1,0,0,0,4.356,25.652A10.489,10.489,0,0,1,18,41.847a10.045,10.045,0,0,0,2.567,2.6,10.258,10.258,0,0,0,15.165-4,9.851,9.851,0,0,0,.939-3.476,6.512,6.512,0,0,0,.059-.924v5.867l7.333,5.867,1.349-1.085Z" transform="translate(11537.467 7155.028)" fill="#fcd4a3"/>
      <path id="Path_35075" data-name="Path 35075" d="M65.8,44.733V74.067H13V44.733A11.733,11.733,0,0,1,24.733,33h7.333v1.467L39.4,40.333l1.349-1.085,5.984-4.781V33h7.333A11.733,11.733,0,0,1,65.8,44.733Z" transform="translate(11542.134 7162.467)" fill="#ff8e2f"/>
      <path id="Path_35076" data-name="Path 35076" d="M26.019,30v.968a.2.2,0,0,1-.059-.044A6.532,6.532,0,0,0,26.019,30Z" transform="translate(11548.182 7161.067)" fill="#f9e109"/>
      <path id="Path_35077" data-name="Path 35077" d="M25.4,14.867v8.8A14.667,14.667,0,0,0,40.067,38.333,14.384,14.384,0,0,0,48,35.972a14.655,14.655,0,0,1-27-7.905v-8.8a10.105,10.105,0,0,1,2.479-6.644,10.214,10.214,0,0,1,6.233-3.4L31.267,9a15,15,0,0,0,5.515,5.368,15.1,15.1,0,0,0,7.436,1.965h6.116v2.933H44.217a15.107,15.107,0,0,1-12.951-7.333l-1.555.22A10.158,10.158,0,0,0,25.459,13.8C25.429,14.148,25.4,14.5,25.4,14.867Z" transform="translate(11545.866 7151.267)" fill="#fcd4a3"/>
      <path id="Path_35078" data-name="Path 35078" d="M44.2,33,38.333,46.2,31,40.333l7.333-5.867V33Z" transform="translate(11550.533 7162.467)" fill="#fcd4a3"/>
      <path id="Path_35079" data-name="Path 35079" d="M22,33l5.867,13.2L35.2,40.333l-7.333-5.867V33Z" transform="translate(11546.333 7162.467)" fill="#fcd4a3"/>
      <path id="Path_35080" data-name="Path 35080" d="M37,46.306l8.8,8.577L43.723,67,54.6,51.724Z" transform="translate(11553.333 7168.676)" fill="#fcd4a3"/>
      <path id="Path_35081" data-name="Path 35081" d="M54.6,37.587,49.162,48.608,37,50.375l17.6,5.418Z" transform="translate(11553.333 7164.607)" fill="#fcd4a3"/>
      <path id="Path_35082" data-name="Path 35082" d="M41.584,65.272l10.877-5.719,10.877,5.719L52.461,50Z" transform="translate(11555.473 7170.4)" fill="#fcd4a3"/>
      <path id="Path_35083" data-name="Path 35083" d="M56.867,22.333l-2.933-1.467L51,22.333V16.467A1.467,1.467,0,0,1,52.467,15H55.4a1.467,1.467,0,0,1,1.467,1.467Z" transform="translate(11559.866 7154.067)" fill="#fcd4a3"/>
      <path id="Path_35084" data-name="Path 35084" d="M20.467,45A1.467,1.467,0,0,0,19,46.467v22a1.467,1.467,0,0,0,2.933,0v-22A1.467,1.467,0,0,0,20.467,45Z" transform="translate(11544.934 7168.067)" fill="#070938"/>
      <path id="Path_35085" data-name="Path 35085" d="M24.424,18.816A1.467,1.467,0,0,0,26.5,20.889a2.685,2.685,0,0,1,3.793,0,1.467,1.467,0,0,0,2.074-2.074,5.62,5.62,0,0,0-7.941,0Z" transform="translate(11547.272 7155.081)" fill="#070938"/>
      <path id="Path_35086" data-name="Path 35086" d="M32.424,18.816A1.467,1.467,0,0,0,34.5,20.889a2.685,2.685,0,0,1,3.793,0,1.467,1.467,0,0,0,2.074-2.074,5.62,5.62,0,0,0-7.941,0Z" transform="translate(11551.006 7155.081)" fill="#070938"/>
      <path id="Path_35087" data-name="Path 35087" d="M31.688,8.76a15.519,15.519,0,0,0,5.067,3.4,15.519,15.519,0,0,0,5.985,1.182,1.467,1.467,0,0,0,0-2.933,12.613,12.613,0,0,1-4.862-.961,12.613,12.613,0,0,1-4.117-2.76l-.252-.251a1.467,1.467,0,1,0-2.071,2.077Z" transform="translate(11550.527 7149.861)" fill="#070938"/>
      <path id="Path_35088" data-name="Path 35088" d="M89.928,66.533a1.467,1.467,0,0,0-1.184-1l-11.4-1.656L72.253,53.546a1.455,1.455,0,0,0-1.508-.733A13.175,13.175,0,0,0,59.2,46H53.333V44.838a16.133,16.133,0,0,0,7.333-13.505v-3.4a13.119,13.119,0,0,0,4.4-9.8A16.152,16.152,0,0,0,48.933,2h-8.8A16.152,16.152,0,0,0,24,18.133H21.067A1.467,1.467,0,0,0,19.6,19.6v4.294c-.345.133-.691.279-1.027.433l-3.04-3.039a1.467,1.467,0,0,0-2.074,0l-8.306,8.3a1.467,1.467,0,0,0,0,2.074L8.194,34.7c-.155.345-.293.691-.433,1.035H3.467A1.467,1.467,0,0,0,2,37.2V48.933A1.467,1.467,0,0,0,3.467,50.4H7.761c.133.345.277.691.433,1.035l-3.04,3.039a1.467,1.467,0,0,0,0,2.074l8.3,8.3a1.467,1.467,0,0,0,2.074,0L16.667,63.7V88.533a1.467,1.467,0,0,0,2.933,0V59.2A10.278,10.278,0,0,1,29.867,48.933h.513l5.479,12.329a1.467,1.467,0,0,0,2.257.55l4.95-3.96V87.067a1.467,1.467,0,0,0,2.933,0V57.852l4.95,3.96a1.467,1.467,0,0,0,2.257-.55l5.479-12.329H59.2A10.236,10.236,0,0,1,68.7,55.4l-4.18,8.47-11.4,1.656a1.467,1.467,0,0,0-.813,2.5l8.249,8.034L58.613,87.425a1.467,1.467,0,0,0,2.127,1.549l8.727-4.592v4.152a1.467,1.467,0,0,0,2.933,0V84.381l8.727,4.592a1.467,1.467,0,0,0,2.127-1.549L81.309,76.067l8.251-8.034a1.467,1.467,0,0,0,.368-1.5ZM50.4,48.229l-5.867,4.693-5.867-4.693V46.346a15.918,15.918,0,0,0,11.733,0Zm7.333-16.9a13.2,13.2,0,1,1-26.4,0v-8.8a8.724,8.724,0,0,1,7.452-8.593l.623-.088a16.664,16.664,0,0,0,13.677,7.215h4.648Zm-17.6-26.4h8.8a13.215,13.215,0,0,1,13.2,13.2A10.206,10.206,0,0,1,60.667,23.4V19.6A1.467,1.467,0,0,0,59.2,18.133H53.085a13.709,13.709,0,0,1-11.7-6.622,1.467,1.467,0,0,0-1.467-.7l-1.555.223a11.669,11.669,0,0,0-9.969,11.5V23.4a10.206,10.206,0,0,1-1.467-5.271,13.215,13.215,0,0,1,13.2-13.2Zm-25.645,56.8L8.264,55.511,11,52.775a1.467,1.467,0,0,0,.267-1.706,17.255,17.255,0,0,1-1.078-2.586,1.467,1.467,0,0,0-1.4-1.016H4.933v-8.8H8.8a1.467,1.467,0,0,0,1.4-1.016,17.254,17.254,0,0,1,1.078-2.586A1.467,1.467,0,0,0,11,33.359l-2.74-2.737L14.489,24.4l2.738,2.738a1.466,1.466,0,0,0,1.706.267,17.488,17.488,0,0,1,2.586-1.079,1.467,1.467,0,0,0,1.015-1.395V21.067h1.8a13.125,13.125,0,0,0,4.071,6.87v3.508a11.711,11.711,0,0,0-9.387,20.262A13.107,13.107,0,0,0,16.667,59.2v.356ZM20.942,49.5a8.752,8.752,0,0,1,7.763-15.027,16.161,16.161,0,0,0,7.028,10.368V46H29.867a13.126,13.126,0,0,0-8.919,3.5Zm16.827,8.837-4.179-9.4h2.143a1.466,1.466,0,0,0,.55,1.145l5.9,4.721Zm13.529,0L46.88,54.8l5.9-4.721a1.467,1.467,0,0,0,.551-1.145h2.143ZM70.933,80.487a1.485,1.485,0,0,0-.683.167L64.823,83.51l6.11-8.581,6.112,8.581-5.427-2.856a1.483,1.483,0,0,0-.685-.167Zm5.227-13.82,5.72.83L72.4,70.414V60.48l2.658,5.383a1.467,1.467,0,0,0,1.1.8Zm-10.454,0a1.467,1.467,0,0,0,1.1-.8l2.658-5.383v9.934L59.991,67.5Zm-7,3.5L68.56,73.2,62.587,81.59l.991-5.783a1.467,1.467,0,0,0-.421-1.3Zm19.583,5.638.991,5.783L73.306,73.2l9.855-3.035-4.454,4.34a1.467,1.467,0,0,0-.418,1.3Z" transform="translate(11537 7148)" fill="#070938"/>
      <path id="Path_35089" data-name="Path 35089" d="M50.4,38.933H65.067a1.467,1.467,0,0,0,1.467-1.467V16.933a1.467,1.467,0,0,0-1.467-1.467H60.259A2.923,2.923,0,0,0,57.733,14H54.8a2.923,2.923,0,0,0-2.526,1.467H50.4a4.4,4.4,0,0,0-4.4,4.4V34.533a4.4,4.4,0,0,0,4.4,4.4Zm7.333-22v3.494l-.811-.406a1.466,1.466,0,0,0-1.311,0l-.811.406V16.933Zm-8.8,2.933A1.467,1.467,0,0,1,50.4,18.4h1.467v4.4a1.467,1.467,0,0,0,2.122,1.313l2.278-1.14,2.278,1.14A1.467,1.467,0,0,0,60.667,22.8V18.4H63.6V36H50.4a1.467,1.467,0,0,1-1.467-1.467Z" transform="translate(11557.533 7153.6)" fill="#070938"/>
      <path id="Path_35090" data-name="Path 35090" d="M51.467,26.933h4.4a1.467,1.467,0,0,0,0-2.933h-4.4a1.467,1.467,0,0,0,0,2.933Z" transform="translate(11559.4 7158.267)" fill="#070938"/>
    </g>
  </g>
</svg>
