<svg xmlns="http://www.w3.org/2000/svg" xmlns:xlink="http://www.w3.org/1999/xlink" width="90" height="90" viewBox="0 0 90 90">
  <defs>
    <clipPath id="clip-path">
      <rect id="Rectangle_12248" data-name="Rectangle 12248" width="90" height="90" transform="translate(1455 7361)" fill="#070938"/>
    </clipPath>
  </defs>
  <g id="Mask_Group_9079" data-name="Mask Group 9079" transform="translate(-1455 -7361)" clip-path="url(#clip-path)">
    <g id="Group_32525" data-name="Group 32525" transform="translate(-10090 591)">
      <g id="Group_32523" data-name="Group 32523" transform="translate(11555.955 6793.487)">
        <path id="Path_35091" data-name="Path 35091" d="M73.863,284.429l4.218,8.544,11,1.6-7.956,7.755L83,313.277l-9.835-5.17-11.186,4.348L63.857,301.5l-5.781-5.9,10.82-.355Z" transform="translate(-38.09 -266.885)" fill="#e4ddfe"/>
        <path id="Path_35092" data-name="Path 35092" d="M80.353,312.234a1.365,1.365,0,0,1-.632-.156l-9.956-5.234-9.956,5.234a1.36,1.36,0,0,1-1.973-1.433l1.9-11.087-8.055-7.852a1.36,1.36,0,0,1,.754-2.319l11.131-1.617,4.978-10.087a1.36,1.36,0,0,1,2.439,0l4.978,10.087,11.131,1.617a1.36,1.36,0,0,1,.755,2.319l-8.055,7.852,1.9,11.087a1.359,1.359,0,0,1-1.34,1.589m-24.8-20.551,6.595,6.428a1.362,1.362,0,0,1,.391,1.2l-1.557,9.075,8.151-4.285a1.36,1.36,0,0,1,1.265,0l8.15,4.285-1.557-9.075a1.365,1.365,0,0,1,.391-1.2l6.594-6.428-9.112-1.323a1.361,1.361,0,0,1-1.024-.744l-4.075-8.257-4.075,8.257a1.36,1.36,0,0,1-1.024.744Z" transform="translate(-35.91 -264.482)" fill="#070938"/>
        <path id="Path_35093" data-name="Path 35093" d="M34.743,302.015a1.359,1.359,0,0,1-1.34-1.589l1.334-7.782-5.653-5.512a1.36,1.36,0,0,1,.753-2.319l7.814-1.135,3.494-7.08a1.359,1.359,0,0,1,2.438,0l3.811,7.722a1.359,1.359,0,1,1-2.438,1.2l-2.592-5.25-2.591,5.25a1.36,1.36,0,0,1-1.024.744l-5.795.842,4.193,4.088a1.361,1.361,0,0,1,.391,1.2l-.99,5.772,5.183-2.725a1.36,1.36,0,0,1,1.595.242l3.524,3.524a1.36,1.36,0,1,1-1.924,1.922l-2.816-2.816-6.734,3.541a1.371,1.371,0,0,1-.633.156" transform="translate(-28.673 -264.134)" fill="#9275fd"/>
        <path id="Path_35094" data-name="Path 35094" d="M113.961,302.144a1.367,1.367,0,0,1-.633-.156l-6.9-3.627-3.183,3.147a1.359,1.359,0,1,1-1.911-1.933l3.889-3.847a1.359,1.359,0,0,1,1.589-.236l5.342,2.808-1.02-5.948a1.362,1.362,0,0,1,.391-1.2l4.321-4.212-5.972-.867a1.361,1.361,0,0,1-1.024-.744l-2.67-5.411-2.671,5.411a1.36,1.36,0,1,1-2.439-1.2l3.89-7.882a1.359,1.359,0,0,1,2.439,0l3.573,7.241,7.99,1.161a1.36,1.36,0,0,1,.755,2.319l-5.782,5.636,1.365,7.958a1.36,1.36,0,0,1-1.34,1.589" transform="translate(-51.815 -264.019)" fill="#9275fd"/>
        <path id="Path_35095" data-name="Path 35095" d="M77.373,264.041a1.36,1.36,0,0,1-1.359-1.359v-2.7a1.359,1.359,0,1,1,2.719,0v2.7a1.36,1.36,0,0,1-1.359,1.359" transform="translate(-43.834 -258.619)" fill="#070938"/>
        <path id="Path_35096" data-name="Path 35096" d="M61.238,269.692a1.36,1.36,0,0,1-1.141-.618l-1.164-1.79a1.36,1.36,0,0,1,2.28-1.483l1.164,1.79a1.359,1.359,0,0,1-1.139,2.1" transform="translate(-38.294 -260.721)" fill="#070938"/>
        <path id="Path_35097" data-name="Path 35097" d="M93.1,269.543a1.359,1.359,0,0,1-1.191-2.013l1.154-2.107a1.359,1.359,0,1,1,2.385,1.306l-1.154,2.107a1.358,1.358,0,0,1-1.194.706" transform="translate(-48.87 -260.572)" fill="#070938"/>
      </g>
      <g id="Group_32524" data-name="Group 32524" transform="translate(11563.215 6817.041)">
        <path id="Path_35098" data-name="Path 35098" d="M549.038,599.032a1.511,1.511,0,1,0,.553-2.064,1.511,1.511,0,0,0-.553,2.064" transform="translate(-480.299 -596.766)" fill="#070938"/>
        <path id="Path_35099" data-name="Path 35099" d="M520.854,631.086h53.772a15.958,15.958,0,0,0,15.94-15.939v-7.106a1.422,1.422,0,1,0-2.844,0v7.106a13.11,13.11,0,0,1-13.1,13.095H520.854a1.422,1.422,0,1,0,0,2.844" transform="translate(-519.432 -599.363)" fill="#070938"/>
      </g>
      <path id="Path_35100" data-name="Path 35100" d="M99.007,21.992V15.88a4.66,4.66,0,0,0-4.66-4.66H17.416a4.66,4.66,0,0,0-4.66,4.66V22.6H89.05Z" transform="translate(11534.493 6765.359)" fill="#9275fd"/>
      <path id="Path_35101" data-name="Path 35101" d="M14.95,119.889a1.472,1.472,0,1,1-.539-2.011,1.473,1.473,0,0,1,.539,2.011" transform="translate(11534.652 6734.597)" fill="#070938"/>
      <path id="Path_35102" data-name="Path 35102" d="M40.155,120.541H23.09a1.418,1.418,0,0,1,0-2.836H40.155a1.418,1.418,0,1,1,0,2.836" transform="translate(11531.916 6734.59)" fill="#070938"/>
      <path id="Path_35103" data-name="Path 35103" d="M37.867,87.341H12.381a1.418,1.418,0,0,1-1.418-1.418V26.371a1.418,1.418,0,0,1,1.418-1.418H97.6a1.418,1.418,0,1,1,0,2.836H13.8V84.505H37.867a1.418,1.418,0,0,1,0,2.836" transform="translate(11535.037 6761.424)" fill="#070938"/>
      <path id="Path_35104" data-name="Path 35104" d="M98.346,46.648a1.418,1.418,0,0,1-1.418-1.418V15.065A3.232,3.232,0,0,0,93.7,11.836H17.028A3.232,3.232,0,0,0,13.8,15.065v6.7a1.418,1.418,0,0,1-2.836,0v-6.7A6.072,6.072,0,0,1,17.028,9H93.7a6.071,6.071,0,0,1,6.063,6.065V45.23a1.417,1.417,0,0,1-1.417,1.418" transform="translate(11535.037 6766)" fill="#070938"/>
      <path id="Path_35105" data-name="Path 35105" d="M24.273,16.976a1.6,1.6,0,1,0,1.595,1.595,1.6,1.6,0,0,0-1.595-1.595" transform="translate(11531.625 6763.695)" fill="#fff"/>
      <path id="Path_35106" data-name="Path 35106" d="M32.249,16.976a1.6,1.6,0,1,0,1.595,1.595,1.6,1.6,0,0,0-1.595-1.595" transform="translate(11529.321 6763.695)" fill="#fff"/>
      <path id="Path_35107" data-name="Path 35107" d="M40.226,16.976a1.6,1.6,0,1,0,1.595,1.595,1.6,1.6,0,0,0-1.595-1.595" transform="translate(11527.017 6763.695)" fill="#fff"/>
    </g>
  </g>
</svg>
