<svg xmlns="http://www.w3.org/2000/svg" xmlns:xlink="http://www.w3.org/1999/xlink" width="90" height="90" viewBox="0 0 90 90">
  <defs>
    <clipPath id="clip-path">
      <rect id="Rectangle_12240" data-name="Rectangle 12240" width="90" height="90" transform="translate(1455 7152)" fill="#070938"/>
    </clipPath>
  </defs>
  <g id="Mask_Group_9075" data-name="Mask Group 9075" transform="translate(-1455 -7152)" clip-path="url(#clip-path)">
    <g id="Group_32520" data-name="Group 32520" transform="translate(-10107.936 154)">
      <path id="Path_35053" data-name="Path 35053" d="M11570.734,7035.414h10.468l5.58.905,2.632,4.159V7065.4l-1.473,4.446-3.658,1.4-6.531-1.4-7.018-3.289-1.168-2.44,1.168-7.552v-3.957l-6.452-7.145.962-3.29Z" transform="translate(-0.083 -1.262)" fill="#beedea"/>
      <path id="Good_Quality-595b40b75ba036ed117d8cb9" data-name="Good Quality-595b40b75ba036ed117d8cb9" d="M45.912.912a4.481,4.481,0,0,0-2.825.993l-6.85,5.547a1.491,1.491,0,0,1-1.177.315l-8.7-1.382a4.513,4.513,0,0,0-4.893,2.825L18.3,17.443a1.491,1.491,0,0,1-.859.859L9.211,21.459a4.512,4.512,0,0,0-2.825,4.893L7.768,35.06a1.5,1.5,0,0,1-.315,1.174L1.905,43.087a4.507,4.507,0,0,0,0,5.647l5.547,6.853a1.492,1.492,0,0,1,.315,1.174L6.386,65.469a4.513,4.513,0,0,0,2.825,4.893l8.232,3.158a1.5,1.5,0,0,1,.859.862l3.158,8.229a4.511,4.511,0,0,0,4.893,2.825l8.708-1.379a1.5,1.5,0,0,1,1.174.313l6.853,5.55a4.5,4.5,0,0,0,5.646,0l6.853-5.547a1.5,1.5,0,0,1,1.174-.315l8.708,1.382a4.518,4.518,0,0,0,4.893-2.825l3.158-8.232a1.5,1.5,0,0,1,.862-.859l8.229-3.158a4.512,4.512,0,0,0,2.825-4.893l-1.379-8.708a1.5,1.5,0,0,1,.313-1.174l5.55-6.85a4.511,4.511,0,0,0,0-5.649l-5.55-6.85a1.5,1.5,0,0,1-.313-1.177l1.379-8.7a4.513,4.513,0,0,0-2.825-4.893L74.381,18.3a1.491,1.491,0,0,1-.859-.859L70.361,9.211a4.515,4.515,0,0,0-4.893-2.825l-8.7,1.382a1.507,1.507,0,0,1-1.177-.315l-6.85-5.547A4.482,4.482,0,0,0,45.912.912Zm0,2.988a1.5,1.5,0,0,1,.944.333l6.85,5.547a4.487,4.487,0,0,0,3.526.946l8.708-1.382a1.505,1.505,0,0,1,1.63.941l3.158,8.229A4.5,4.5,0,0,0,73.308,21.1l8.229,3.158a1.5,1.5,0,0,1,.941,1.63L81.1,34.593a4.493,4.493,0,0,0,.944,3.526l5.547,6.853a1.506,1.506,0,0,1,0,1.884l-5.547,6.85a4.487,4.487,0,0,0-.944,3.526l1.379,8.708a1.5,1.5,0,0,1-.941,1.63l-8.229,3.158a4.5,4.5,0,0,0-2.582,2.582l-3.158,8.229a1.5,1.5,0,0,1-1.63.941L57.231,81.1a4.5,4.5,0,0,0-3.526.944l-6.853,5.547a1.5,1.5,0,0,1-1.884,0l-6.85-5.547a4.492,4.492,0,0,0-2.828-1,4.392,4.392,0,0,0-.7.056l-8.708,1.382a1.505,1.505,0,0,1-1.63-.941l-2.766-7.209h.394a7.429,7.429,0,0,0,5.74-2.746,1.5,1.5,0,0,0,.537.272,18.454,18.454,0,0,0,4.218.447c.325,0,.629-.005.9-.023L57.9,70.739a4.914,4.914,0,0,0,3.406-8.127,5.3,5.3,0,0,0,2.15-4.25v-.684a5.264,5.264,0,0,0-1.116-3.245,5.6,5.6,0,0,0,1.046-9.225,5.577,5.577,0,0,0,1.966-4.265v-.315a5.207,5.207,0,0,0-5.284-5.185H42.094L44.6,25.318A7.181,7.181,0,0,0,37.636,16.4h-.3a1.5,1.5,0,0,0-1.361.876l-9.1,20.018a7.336,7.336,0,0,0-4.992-1.852H10.762a5.578,5.578,0,0,0-.038-.85L9.345,25.885a1.5,1.5,0,0,1,.941-1.63L18.515,21.1A4.5,4.5,0,0,0,21.1,18.515l3.158-8.229a1.511,1.511,0,0,1,1.63-.941l8.708,1.379a4.49,4.49,0,0,0,3.526-.944l6.853-5.547A1.489,1.489,0,0,1,45.912,3.9ZM38.279,19.438A4.186,4.186,0,0,1,41.7,24.591L39.012,35.343H37.338a1.5,1.5,0,0,0,0,2.991H60.07a2.3,2.3,0,0,1,2.293,2.293v.315a2.6,2.6,0,0,1-2.176,2.571l-2.258.374a1.5,1.5,0,0,0,.248,2.971h1.583a2.607,2.607,0,0,1,.426,5.179l-2.255.377a1.494,1.494,0,0,0,.245,2.968,2.3,2.3,0,0,1,2.293,2.293v.684a2.3,2.3,0,0,1-1.843,2.249l-1.691.339a1.494,1.494,0,0,0,.3,2.959H57.6a1.924,1.924,0,0,1,.12,3.844L33.091,69.29a16.634,16.634,0,0,1-4.078-.31,7.41,7.41,0,0,0,.348-2.132V42.822a7.453,7.453,0,0,0-.59-2.915,1.478,1.478,0,0,0,.459-.555ZM9.676,38.25a1.432,1.432,0,0,0,.4.082h11.81a4.492,4.492,0,0,1,4.487,4.487V66.851a4.492,4.492,0,0,1-4.487,4.487H19.832a1.5,1.5,0,0,0-.2.041,4.427,4.427,0,0,0-1.116-.651l-8.229-3.161a1.5,1.5,0,0,1-.941-1.63l1.382-8.708A4.5,4.5,0,0,0,9.781,53.7l-5.547-6.85a1.506,1.506,0,0,1,0-1.884Z" transform="translate(11562.023 6997.088)" fill="#070938"/>
      <path id="Good_Quality-595b40b75ba036ed117d8cb9-2" data-name="Good Quality-595b40b75ba036ed117d8cb9" d="M55.788,16.226A1.467,1.467,0,0,0,54.573,17.3l-.764,2.839a1.469,1.469,0,0,0,1.039,1.8,1.5,1.5,0,0,0,.382.052A1.47,1.47,0,0,0,56.649,20.9l.761-2.839a1.471,1.471,0,0,0-1.622-1.837Zm7.475,2.934a1.467,1.467,0,0,0-1.453.723l-1.47,2.543a1.472,1.472,0,0,0,.537,2.009,1.472,1.472,0,0,0,2.007-.54l1.47-2.543a1.465,1.465,0,0,0-1.091-2.193Zm5.908,4.659a1.465,1.465,0,0,0-1.039.431l-2.078,2.078a1.47,1.47,0,1,0,2.078,2.078l2.078-2.078a1.47,1.47,0,0,0-1.039-2.509Zm4.49,6.1a1.466,1.466,0,0,0-.554.187l-2.543,1.47a1.469,1.469,0,1,0,1.47,2.543l2.543-1.47a1.469,1.469,0,0,0-.916-2.73Zm3.321,7.088a1.446,1.446,0,0,0-.583.04l-2.839.761a1.471,1.471,0,0,0,.379,2.891,1.43,1.43,0,0,0,.382-.052l2.839-.761a1.472,1.472,0,0,0-.178-2.879Zm-2.141,7.6a1.47,1.47,0,0,0,0,2.94h2.94a1.47,1.47,0,1,0,0-2.94Z" transform="translate(11559.037 6996.539)" fill="#36ccc4"/>
    </g>
  </g>
</svg>
