<svg xmlns="http://www.w3.org/2000/svg" xmlns:xlink="http://www.w3.org/1999/xlink" width="90" height="90" viewBox="0 0 90 90">
  <defs>
    <clipPath id="clip-path">
      <rect id="Rectangle_12233" data-name="Rectangle 12233" width="90" height="90" transform="translate(375 7218)" fill="#070938"/>
    </clipPath>
    <clipPath id="clip-path-2">
      <rect id="Rectangle_12232" data-name="Rectangle 12232" width="90.215" height="80.014" fill="#070938"/>
    </clipPath>
  </defs>
  <g id="Mask_Group_9072" data-name="Mask Group 9072" transform="translate(-375 -7218)" clip-path="url(#clip-path)">
    <g id="Group_32494" data-name="Group 32494" transform="translate(375 7223)">
      <g id="Group_32493" data-name="Group 32493" clip-path="url(#clip-path-2)">
        <path id="Path_34990" data-name="Path 34990" d="M31.427,62.884H1.109A1.11,1.11,0,0,1,0,61.774V9.183A3.982,3.982,0,0,1,3.978,5.2h6.745a1.109,1.109,0,0,1,0,2.218H3.978A1.761,1.761,0,0,0,2.218,9.183V60.665H31.427a1.109,1.109,0,1,1,0,2.218" transform="translate(0 -1.356)" fill="#070938"/>
        <path id="Path_34991" data-name="Path 34991" d="M81.941,24.431a1.11,1.11,0,0,1-1.109-1.109V9.183a1.761,1.761,0,0,0-1.759-1.759H70.109a1.109,1.109,0,1,1,0-2.218h8.963A3.982,3.982,0,0,1,83.05,9.183V23.322a1.11,1.11,0,0,1-1.109,1.109" transform="translate(-17.977 -1.356)" fill="#070938"/>
        <path id="Path_34992" data-name="Path 34992" d="M60.025,7.423H54.109a1.109,1.109,0,1,1,0-2.218h5.916a1.109,1.109,0,0,1,0,2.218" transform="translate(-13.808 -1.356)" fill="#070938"/>
        <path id="Path_34993" data-name="Path 34993" d="M44.025,7.423H38.109a1.109,1.109,0,1,1,0-2.218h5.916a1.109,1.109,0,1,1,0,2.218" transform="translate(-9.64 -1.356)" fill="#070938"/>
        <path id="Path_34994" data-name="Path 34994" d="M28.025,7.423H22.109a1.109,1.109,0,1,1,0-2.218h5.916a1.109,1.109,0,1,1,0,2.218" transform="translate(-5.471 -1.356)" fill="#070938"/>
        <path id="Path_34995" data-name="Path 34995" d="M68.7,22.423H22.109a1.109,1.109,0,1,1,0-2.218H68.7a1.109,1.109,0,1,1,0,2.218" transform="translate(-5.471 -5.264)" fill="#070938"/>
        <path id="Path_34996" data-name="Path 34996" d="M10.983,22.423H2.109a1.109,1.109,0,1,1,0-2.218h8.874a1.109,1.109,0,1,1,0,2.218" transform="translate(-0.261 -5.264)" fill="#070938"/>
        <path id="Path_34997" data-name="Path 34997" d="M17.33,11.092a3.5,3.5,0,0,1-1.049-.163A3.373,3.373,0,0,1,14,7.7v-4.3a3.328,3.328,0,1,1,6.655-.066V7.764A3.344,3.344,0,0,1,19.3,10.448a3.311,3.311,0,0,1-1.966.644m0-8.874a1.252,1.252,0,0,0-.383.061,1.153,1.153,0,0,0-.726,1.114V7.7a1.106,1.106,0,0,0,1.764.962,1.1,1.1,0,0,0,.454-.9V3.328a1.108,1.108,0,0,0-1.109-1.109" transform="translate(-3.647 0)" fill="#070938"/>
        <path id="Path_34998" data-name="Path 34998" d="M33.33,11.092a3.5,3.5,0,0,1-1.049-.163A3.373,3.373,0,0,1,30,7.7v-4.3a3.328,3.328,0,1,1,6.655-.066V7.764a3.326,3.326,0,0,1-3.325,3.328m0-8.874a1.252,1.252,0,0,0-.383.061,1.153,1.153,0,0,0-.726,1.114V7.7a1.106,1.106,0,0,0,1.764.962,1.1,1.1,0,0,0,.454-.9V3.328a1.108,1.108,0,0,0-1.109-1.109" transform="translate(-7.816 0)" fill="#070938"/>
        <path id="Path_34999" data-name="Path 34999" d="M49.33,11.092a3.5,3.5,0,0,1-1.049-.163A3.373,3.373,0,0,1,46,7.7v-4.3a3.328,3.328,0,1,1,6.655-.066V7.764A3.344,3.344,0,0,1,51.3,10.448a3.311,3.311,0,0,1-1.966.644m0-8.874a1.252,1.252,0,0,0-.383.061,1.153,1.153,0,0,0-.726,1.114V7.7a1.106,1.106,0,0,0,1.764.962,1.1,1.1,0,0,0,.454-.9V3.328a1.108,1.108,0,0,0-1.109-1.109" transform="translate(-11.984 0)" fill="#070938"/>
        <path id="Path_35000" data-name="Path 35000" d="M65.33,11.092a3.5,3.5,0,0,1-1.049-.163A3.373,3.373,0,0,1,62,7.7v-4.3a3.328,3.328,0,1,1,6.655-.066V7.764a3.326,3.326,0,0,1-3.325,3.328m0-8.874a1.252,1.252,0,0,0-.383.061,1.153,1.153,0,0,0-.726,1.114V7.7a1.106,1.106,0,0,0,1.764.962,1.1,1.1,0,0,0,.454-.9V3.328a1.108,1.108,0,0,0-1.109-1.109" transform="translate(-16.153 0)" fill="#070938"/>
        <rect id="Rectangle_12229" data-name="Rectangle 12229" width="11.831" height="11.831" transform="translate(7.395 40.822)" fill="#79c651"/>
        <rect id="Rectangle_12230" data-name="Rectangle 12230" width="11.831" height="11.831" transform="translate(7.395 23.815)" fill="#79c651"/>
        <rect id="Rectangle_12231" data-name="Rectangle 12231" width="11.831" height="11.831" transform="translate(23.663 23.815)" fill="#79c651"/>
        <path id="Path_35001" data-name="Path 35001" d="M42.722,67.036H33.109A1.11,1.11,0,0,1,32,65.927V56.314a1.11,1.11,0,0,1,1.109-1.109h9.613a1.11,1.11,0,0,1,1.109,1.109v9.613a1.11,1.11,0,0,1-1.109,1.109m-8.5-2.218h7.395V57.423H34.218Z" transform="translate(-8.337 -14.383)" fill="#070938"/>
        <path id="Path_35002" data-name="Path 35002" d="M32.948,89.079H4.109A1.11,1.11,0,0,1,3,87.969V81.314a1.109,1.109,0,1,1,2.218,0V86.86h27.73a1.109,1.109,0,1,1,0,2.218" transform="translate(-0.782 -20.896)" fill="#070938"/>
        <path id="Path_35003" data-name="Path 35003" d="M78.033,88.27a24.033,24.033,0,1,1,24.033-24.033A24.06,24.06,0,0,1,78.033,88.27m0-45.847A21.814,21.814,0,1,0,99.847,64.238,21.838,21.838,0,0,0,78.033,42.423" transform="translate(-14.069 -10.475)" fill="#79c651"/>
        <path id="Path_35004" data-name="Path 35004" d="M86.109,50.9A1.11,1.11,0,0,1,85,49.793V48.314a1.109,1.109,0,1,1,2.218,0v1.479A1.11,1.11,0,0,1,86.109,50.9" transform="translate(-22.145 -12.298)" fill="#070938"/>
        <path id="Path_35005" data-name="Path 35005" d="M86.109,96.9A1.11,1.11,0,0,1,85,95.793V94.314a1.109,1.109,0,0,1,2.218,0v1.479A1.11,1.11,0,0,1,86.109,96.9" transform="translate(-22.145 -24.283)" fill="#070938"/>
        <path id="Path_35006" data-name="Path 35006" d="M63.588,73.423H62.109a1.109,1.109,0,1,1,0-2.218h1.479a1.109,1.109,0,0,1,0,2.218" transform="translate(-15.892 -18.551)" fill="#070938"/>
        <path id="Path_35007" data-name="Path 35007" d="M109.588,73.423h-1.479a1.109,1.109,0,1,1,0-2.218h1.479a1.109,1.109,0,0,1,0,2.218" transform="translate(-27.877 -18.551)" fill="#070938"/>
        <path id="Path_35008" data-name="Path 35008" d="M97.108,53.919a1.109,1.109,0,0,1-.96-1.664l.739-1.28a1.108,1.108,0,0,1,1.515-.406c.531.306.406,1.515.406,1.515l-.739,1.28a1.109,1.109,0,0,1-.961.555" transform="translate(-25.011 -13.136)" fill="#79c651"/>
        <path id="Path_35009" data-name="Path 35009" d="M74.108,93.756a1.109,1.109,0,0,1-.96-1.664l.739-1.28a1.109,1.109,0,1,1,1.921,1.109L75.07,93.2a1.109,1.109,0,0,1-.961.555" transform="translate(-19.019 -23.515)" fill="#79c651"/>
        <path id="Path_35010" data-name="Path 35010" d="M66.6,62.163a1.1,1.1,0,0,1-.554-.149l-1.28-.739a1.109,1.109,0,1,1,1.109-1.921l1.28.739a1.109,1.109,0,0,1-.555,2.07" transform="translate(-16.73 -15.425)" fill="#79c651"/>
        <path id="Path_35011" data-name="Path 35011" d="M106.441,85.163a1.1,1.1,0,0,1-.554-.149l-1.28-.739a1.109,1.109,0,1,1,1.109-1.921l1.28.739a1.109,1.109,0,0,1-.555,2.07" transform="translate(-27.109 -21.417)" fill="#79c651"/>
        <path id="Path_35012" data-name="Path 35012" d="M65.326,85.163a1.109,1.109,0,0,1-.555-2.07l1.28-.739a1.109,1.109,0,0,1,1.109,1.921l-1.28.739a1.1,1.1,0,0,1-.554.149" transform="translate(-16.73 -21.417)" fill="#79c651"/>
        <path id="Path_35013" data-name="Path 35013" d="M74.849,53.919a1.108,1.108,0,0,1-.961-.555l-.739-1.28a1.109,1.109,0,0,1,1.921-1.109l.739,1.28a1.109,1.109,0,0,1-.96,1.664" transform="translate(-19.019 -13.136)" fill="#79c651"/>
        <path id="Path_35014" data-name="Path 35014" d="M97.849,93.756a1.108,1.108,0,0,1-.961-.555l-.739-1.28a1.109,1.109,0,0,1,1.921-1.109l.739,1.28a1.109,1.109,0,0,1-.96,1.664" transform="translate(-25.011 -23.515)" fill="#79c651"/>
        <path id="Path_35015" data-name="Path 35015" d="M86.11,70.558a1.109,1.109,0,0,1-.557-2.069L99.6,60.354a1.109,1.109,0,0,1,1.112,1.92l-14.05,8.134a1.1,1.1,0,0,1-.555.149" transform="translate(-22.145 -15.685)" fill="#070938"/>
        <path id="Path_35016" data-name="Path 35016" d="M87.7,72.054a1.849,1.849,0,1,1-1.849-1.849A1.848,1.848,0,0,1,87.7,72.054" transform="translate(-21.885 -18.291)" fill="#252d32"/>
        <path id="Path_35017" data-name="Path 35017" d="M77.251,89.707A26.251,26.251,0,1,1,103.5,63.456,26.281,26.281,0,0,1,77.251,89.707m0-50.284a24.033,24.033,0,1,0,24.033,24.033A24.06,24.06,0,0,0,77.251,39.423" transform="translate(-13.287 -9.693)" fill="#070938"/>
        <path id="Path_35018" data-name="Path 35018" d="M82.722,73.423H73.109a1.109,1.109,0,1,1,0-2.218h9.613a1.109,1.109,0,1,1,0,2.218" transform="translate(-18.758 -18.551)" fill="#252d32"/>
      </g>
    </g>
  </g>
</svg>
