<svg xmlns="http://www.w3.org/2000/svg" xmlns:xlink="http://www.w3.org/1999/xlink" width="90" height="90" viewBox="0 0 90 90">
  <defs>
    <clipPath id="clip-path">
      <rect id="Rectangle_12239" data-name="Rectangle 12239" width="90" height="90" transform="translate(1096 7188)" fill="#070938"/>
    </clipPath>
  </defs>
  <g id="Mask_Group_9074" data-name="Mask Group 9074" transform="translate(-1096 -7188)" clip-path="url(#clip-path)">
    <g id="Group_32519" data-name="Group 32519" transform="translate(343 6877)">
      <path id="Path_35030" data-name="Path 35030" d="M755,395v3.1a2.9,2.9,0,0,0,2.9,2.9H830.1a2.9,2.9,0,0,0,2.9-2.9V395Z" transform="translate(-0.5 -20.25)" fill="#61c4f2"/>
      <g id="Group_32498" data-name="Group 32498" transform="translate(753 323)">
        <path id="Path_35031" data-name="Path 35031" d="M829.431,385.25H757.57a4.575,4.575,0,0,1-4.57-4.57V330.57a4.575,4.575,0,0,1,4.57-4.57h5.555a1.125,1.125,0,1,1,0,2.25H757.57a2.323,2.323,0,0,0-2.32,2.32v50.111a2.323,2.323,0,0,0,2.32,2.32h71.861a2.323,2.323,0,0,0,2.32-2.32V360.875a1.125,1.125,0,1,1,2.25,0v19.805A4.575,4.575,0,0,1,829.431,385.25Z" transform="translate(-753 -326)" fill="#070938"/>
      </g>
      <g id="Group_32499" data-name="Group 32499" transform="translate(784.374 380.75)">
        <path id="Path_35032" data-name="Path 35032" d="M795.956,414.84a1.126,1.126,0,0,1-1-1.643,13.488,13.488,0,0,0,1.5-6.17v-2.9a1.125,1.125,0,1,1,2.25,0v2.9a15.748,15.748,0,0,1-1.752,7.2A1.124,1.124,0,0,1,795.956,414.84Z" transform="translate(-794.832 -403)" fill="#070938"/>
      </g>
      <g id="Group_32500" data-name="Group 32500" transform="translate(798.75 380.75)">
        <path id="Path_35033" data-name="Path 35033" d="M816.752,414.84a1.124,1.124,0,0,1-1-.609,15.75,15.75,0,0,1-1.752-7.2v-2.9a1.125,1.125,0,0,1,2.25,0v2.9a13.487,13.487,0,0,0,1.5,6.17,1.126,1.126,0,0,1-1,1.643Z" transform="translate(-814 -403)" fill="#070938"/>
      </g>
      <g id="Group_32501" data-name="Group 32501" transform="translate(777.75 391.25)">
        <path id="Path_35034" data-name="Path 35034" d="M817.125,424.5h-30A1.125,1.125,0,0,1,786,423.375v-5.25A1.125,1.125,0,0,1,787.125,417h10.5a1.125,1.125,0,0,1,0,2.25H788.25v3H816v-3H803.625a1.125,1.125,0,0,1,0-2.25h13.5a1.125,1.125,0,0,1,1.125,1.125v5.25A1.125,1.125,0,0,1,817.125,424.5Z" transform="translate(-786 -417)" fill="#070938"/>
      </g>
      <g id="Group_32502" data-name="Group 32502" transform="translate(753.75 373.25)">
        <path id="Path_35035" data-name="Path 35035" d="M831.625,395.25h-76.5a1.125,1.125,0,1,1,0-2.25h76.5a1.125,1.125,0,1,1,0,2.25Z" transform="translate(-754 -393)" fill="#252d32"/>
      </g>
      <g id="Group_32503" data-name="Group 32503" transform="translate(754.5 373.25)">
        <path id="Path_35036" data-name="Path 35036" d="M831.875,395.25h-75.75a1.125,1.125,0,1,1,0-2.25h75.75a1.125,1.125,0,1,1,0,2.25Z" transform="translate(-755 -393)" fill="#070938"/>
      </g>
      <g id="Group_32504" data-name="Group 32504" transform="translate(790.37 353)">
        <path id="Path_35037" data-name="Path 35037" d="M815.477,379.433a1.114,1.114,0,0,1-.527-.132,36.479,36.479,0,0,0-4.667-2.032c-3.323-1.21-7.457-2.715-7.457-7.649v-2.5a1.125,1.125,0,0,1,2.25,0v2.5c0,3.125,2.366,4.221,5.977,5.535a38.728,38.728,0,0,1,4.953,2.159,1.125,1.125,0,0,1-.529,2.119Z" transform="translate(-802.826 -366)" fill="#070938"/>
      </g>
      <g id="Group_32505" data-name="Group 32505" transform="translate(763.973 355.495)">
        <path id="Path_35038" data-name="Path 35038" d="M768.757,380.265a1.125,1.125,0,0,1-.529-2.119,38.694,38.694,0,0,1,4.952-2.159c3.611-1.315,5.977-2.41,5.977-5.535a1.125,1.125,0,0,1,2.25,0c0,4.934-4.135,6.44-7.458,7.649a36.477,36.477,0,0,0-4.666,2.032A1.115,1.115,0,0,1,768.757,380.265Z" transform="translate(-767.631 -369.327)" fill="#070938"/>
      </g>
      <path id="Rectangle_12236" data-name="Rectangle 12236" d="M2.6,0h.862a0,0,0,0,1,0,0V8.654a0,0,0,0,1,0,0H2.6A2.6,2.6,0,0,1,0,6.054V2.6A2.6,2.6,0,0,1,2.6,0Z" transform="translate(768.577 336.945)" fill="#61c4f2"/>
      <path id="Rectangle_12237" data-name="Rectangle 12237" d="M2.6,0H4.327a0,0,0,0,1,0,0V8.654a0,0,0,0,1,0,0H2.6A2.6,2.6,0,0,1,0,6.054V2.6A2.6,2.6,0,0,1,2.6,0Z" transform="translate(801.462 345.598) rotate(180)" fill="#61c4f2"/>
      <g id="Group_32506" data-name="Group 32506" transform="translate(780.913 348.136)">
        <path id="Path_35039" data-name="Path 35039" d="M793.816,362.423a6.041,6.041,0,0,1-3.04-.812,1.125,1.125,0,1,1,1.134-1.943,3.826,3.826,0,0,0,3.782,0,1.125,1.125,0,0,1,1.151,1.934A5.929,5.929,0,0,1,793.816,362.423Z" transform="translate(-790.218 -359.514)" fill="#070938"/>
      </g>
      <g id="Group_32507" data-name="Group 32507" transform="translate(783 335.75)">
        <path id="Path_35040" data-name="Path 35040" d="M794.74,353.5h-.615a1.125,1.125,0,0,1,0-2.25h.615a.51.51,0,0,0,.51-.51v-3.279c0-2.793,1.622-4.461,4.34-4.461h.535a1.125,1.125,0,1,1,0,2.25h-.535c-1.445,0-2.089.682-2.089,2.211v3.279A2.763,2.763,0,0,1,794.74,353.5Z" transform="translate(-793 -343)" fill="#070938"/>
      </g>
      <g id="Group_32508" data-name="Group 32508" transform="translate(771.75 326.859)">
        <path id="Path_35041" data-name="Path 35041" d="M780.213,353.479a1.125,1.125,0,0,1-1.03-.671A13.6,13.6,0,0,1,778,347.283v-7.412c0-4.343,2.426-8.726,7.848-8.726a1.121,1.121,0,0,1,.638.2,43.821,43.821,0,0,0,12.495,6.5,1.125,1.125,0,0,1-.712,2.135A45.194,45.194,0,0,1,785.51,333.4c-5,.224-5.26,5.41-5.26,6.468v7.412a11.367,11.367,0,0,0,.991,4.616,1.127,1.127,0,0,1-1.028,1.58Z" transform="translate(-778 -331.145)" fill="#252d32"/>
      </g>
      <g id="Group_32509" data-name="Group 32509" transform="translate(780.214 335)">
        <path id="Path_35042" data-name="Path 35042" d="M793.625,364.051A10.01,10.01,0,0,1,790,363.33a1.125,1.125,0,0,1,.814-2.1,7.788,7.788,0,0,0,2.807.568c4.509,0,11.2-4.855,11.2-11.561v-7.115a1.125,1.125,0,1,1,2.25,0v7.115C807.072,357.89,799.716,364.051,793.625,364.051Z" transform="translate(-789.286 -342)" fill="#070938"/>
      </g>
      <g id="Group_32510" data-name="Group 32510" transform="translate(774.493 360.386)">
        <path id="Path_35043" data-name="Path 35043" d="M791.348,381.587c-4.29,0-8.028-1.58-9.525-4.027a1.125,1.125,0,1,1,1.918-1.174c1.064,1.738,4.191,2.951,7.607,2.951s6.543-1.214,7.607-2.952a1.125,1.125,0,1,1,1.919,1.175C799.376,380.006,795.637,381.587,791.348,381.587Z" transform="translate(-781.657 -375.847)" fill="#070938"/>
      </g>
      <g id="Group_32511" data-name="Group 32511" transform="translate(777 335.75)">
        <path id="Path_35044" data-name="Path 35044" d="M789.125,345.25h-3a1.125,1.125,0,1,1,0-2.25h3a1.125,1.125,0,1,1,0,2.25Z" transform="translate(-785 -343)" fill="#070938"/>
      </g>
      <circle id="Ellipse_249" data-name="Ellipse 249" cx="1.169" cy="1.169" r="1.169" transform="translate(778.712 339.464)" fill="#070938"/>
      <path id="Path_35045" data-name="Path 35045" d="M803.239,347.952a1.169,1.169,0,1,0,1.17,1.169A1.169,1.169,0,0,0,803.239,347.952Z" transform="translate(-12.267 -8.488)" fill="#070938"/>
      <g id="Group_32512" data-name="Group 32512" transform="translate(767.25 344.75)">
        <path id="Path_35046" data-name="Path 35046" d="M780.625,364H778.9a6.9,6.9,0,0,1-6.9-6.9v-.979a1.125,1.125,0,1,1,2.25,0v.979a4.651,4.651,0,0,0,4.646,4.646h1.729a1.125,1.125,0,1,1,0,2.25Z" transform="translate(-772 -355)" fill="#61c4f2"/>
      </g>
      <g id="Group_32513" data-name="Group 32513" transform="translate(766.5 335)">
        <path id="Path_35047" data-name="Path 35047" d="M777.375,354h-2.507A3.873,3.873,0,0,1,771,350.131v-4.262A3.873,3.873,0,0,1,774.868,342h1.757a1.125,1.125,0,0,1,0,2.25h-1.757a1.62,1.62,0,0,0-1.618,1.619v4.262a1.62,1.62,0,0,0,1.618,1.619h2.507a1.125,1.125,0,1,1,0,2.25Z" transform="translate(-771 -342)" fill="#070938"/>
      </g>
      <g id="Group_32514" data-name="Group 32514" transform="translate(795.75 335)">
        <path id="Path_35048" data-name="Path 35048" d="M813.632,354h-2.506a1.125,1.125,0,1,1,0-2.25h2.506a1.62,1.62,0,0,0,1.619-1.619v-4.262a1.62,1.62,0,0,0-1.619-1.619h-1.756a1.125,1.125,0,1,1,0-2.25h1.756a3.873,3.873,0,0,1,3.869,3.869v4.262A3.873,3.873,0,0,1,813.632,354Z" transform="translate(-810 -342)" fill="#070938"/>
      </g>
      <g id="Group_32515" data-name="Group 32515" transform="translate(771.75 319.959)">
        <path id="Path_35049" data-name="Path 35049" d="M779.125,338.487A1.125,1.125,0,0,1,778,337.362V335.34a13.129,13.129,0,1,1,26.255-.269,1.125,1.125,0,0,1-2.25,0,10.9,10.9,0,0,0-12.882-10.7,10.983,10.983,0,0,0-8.873,10.967v2.022A1.125,1.125,0,0,1,779.125,338.487Z" transform="translate(-778 -321.946)" fill="#070938"/>
      </g>
      <g id="Group_32516" data-name="Group 32516" transform="translate(766.5 314)">
        <path id="Path_35050" data-name="Path 35050" d="M806.625,333.5a1.125,1.125,0,0,1-1.125-1.125,16.125,16.125,0,1,0-32.25,0,1.125,1.125,0,0,1-2.25,0,18.375,18.375,0,1,1,36.75,0A1.125,1.125,0,0,1,806.625,333.5Z" transform="translate(-771 -314)" fill="#61c4f2"/>
      </g>
      <rect id="Rectangle_12238" data-name="Rectangle 12238" width="4.327" height="4.327" rx="2.137" transform="translate(774.635 349.925)" fill="#61c4f2"/>
      <g id="Group_32517" data-name="Group 32517" transform="translate(802.5 334.25)">
        <path id="Path_35051" data-name="Path 35051" d="M820.125,364.25a1.125,1.125,0,0,1-1.038-1.559l4.413-10.568V343.7a2.7,2.7,0,0,1,2.7-2.7h21.6a2.7,2.7,0,0,1,2.7,2.7v13.35a2.7,2.7,0,0,1-2.7,2.7H830.09l-9.492,4.4A1.113,1.113,0,0,1,820.125,364.25Zm6.075-21a.45.45,0,0,0-.45.45v8.648a1.116,1.116,0,0,1-.087.434l-3.385,8.107,7.091-3.284a1.116,1.116,0,0,1,.473-.1H847.8a.45.45,0,0,0,.45-.45V343.7a.45.45,0,0,0-.45-.45Z" transform="translate(-819 -341)" fill="#070938"/>
      </g>
      <g id="Group_32518" data-name="Group 32518" transform="translate(813 323)">
        <path id="Path_35052" data-name="Path 35052" d="M861.875,349.25a1.114,1.114,0,0,1-.541-.139l-3.788-2.075a1.125,1.125,0,0,1,1.082-1.973l1.449.793-2.285-8.207a1.141,1.141,0,0,1-.041-.3V328.7a.45.45,0,0,0-.45-.45H835.7a.45.45,0,0,0-.45.45v4.425a1.125,1.125,0,1,1-2.25,0V328.7a2.7,2.7,0,0,1,2.7-2.7h21.6a2.7,2.7,0,0,1,2.7,2.7v8.495l2.959,10.629a1.124,1.124,0,0,1-1.084,1.427Z" transform="translate(-833 -326)" fill="#61c4f2"/>
      </g>
      <ellipse id="Ellipse_250" data-name="Ellipse 250" cx="1.731" cy="1.298" rx="1.731" ry="1.298" transform="translate(812.712 343.002)" fill="#070938"/>
      <ellipse id="Ellipse_251" data-name="Ellipse 251" cx="1.731" cy="1.298" rx="1.731" ry="1.298" transform="translate(818.769 343.002)" fill="#070938"/>
      <ellipse id="Ellipse_252" data-name="Ellipse 252" cx="1.731" cy="1.298" rx="1.731" ry="1.298" transform="translate(824.827 343.002)" fill="#070938"/>
    </g>
  </g>
</svg>
