<svg xmlns="http://www.w3.org/2000/svg" xmlns:xlink="http://www.w3.org/1999/xlink" width="90" height="90" viewBox="0 0 90 90">
  <defs>
    <clipPath id="clip-path">
      <rect id="Rectangle_12245" data-name="Rectangle 12245" width="90" height="90" transform="translate(375 7428)" fill="#070938"/>
    </clipPath>
  </defs>
  <g id="Mask_Group_9076" data-name="Mask Group 9076" transform="translate(-375 -7428)" clip-path="url(#clip-path)">
    <g id="achievement-badge-11" transform="translate(375.585 7431.629)">
      <path id="Path_35054" data-name="Path 35054" d="M10.914,67.405l10.717,15.2L11.9,81.839,6.561,86.8,1.137,73.26A14.629,14.629,0,0,0,7.2,71.6,11.881,11.881,0,0,0,10.914,67.405Z" transform="translate(66.485 -12.604)" fill="#faf1d5"/>
      <path id="Path_35055" data-name="Path 35055" d="M12.768,66.92,1.54,82.5l9.726-.771,5.344,4.962,5.62-13.886a13.39,13.39,0,0,1-5.62-1.661A12.955,12.955,0,0,1,12.768,66.92Z" transform="translate(-0.345 -13.272)" fill="#faf1d5"/>
      <path id="Path_35056" data-name="Path 35056" d="M66.208,8.769H24.551a1.228,1.228,0,0,0-1.239,1.239V41.049a1.246,1.246,0,0,0,.359.879L38.746,57a1.275,1.275,0,0,0,.879.359H51.131A1.281,1.281,0,0,0,52.01,57L67.085,41.928a1.248,1.248,0,0,0,.359-.879V10.008A1.232,1.232,0,0,0,66.208,8.769ZM64.969,40.528,50.626,54.885H40.135L25.79,40.528V11.247H64.97V40.528Zm24.079,28.6L77.615,53.745l-1.983,1.474,10.554,14.22-8.683-1.1-3.976,4.31-4.658-12.7-2.328.855,5,13.65a1.878,1.878,0,0,0,1.387,1.189,3.212,3.212,0,0,0,.346.025,1.875,1.875,0,0,0,1.375-.6l3.8-4.124,8.869,1.127a1.85,1.85,0,0,0,1.721-2.949ZM20.539,58.874l-4.645,12.7-3.976-4.31-8.7,1.1,10.566-14.22-1.994-1.474L.362,68.064a1.86,1.86,0,0,0,1.721,2.948l8.881-1.14L14.755,74a1.885,1.885,0,0,0,1.375.606,1.742,1.742,0,0,0,.359-.038,1.891,1.891,0,0,0,1.375-1.176l5-13.662Zm60.93-14.481a9.242,9.242,0,0,0-12.052.706,1.234,1.234,0,0,0-.384.967,1.247,1.247,0,0,0,.5.917,8.957,8.957,0,0,0,5.488,1.932,9.946,9.946,0,0,0,6.565-2.638,1.278,1.278,0,0,0,.384-.967A1.307,1.307,0,0,0,81.469,44.392Zm-9.031,1.474a6.5,6.5,0,0,1,5.97-.346A6.42,6.42,0,0,1,72.438,45.866Zm1.623,7.779a9.25,9.25,0,0,0-11.842-2.378,1.249,1.249,0,0,0-.372,1.846,8.793,8.793,0,0,0,7.11,3.554,10.06,10.06,0,0,0,4.732-1.176,1.236,1.236,0,0,0,.619-.83A1.3,1.3,0,0,0,74.061,53.646Zm-9.105-.866A6.485,6.485,0,0,1,70.8,53.956,6.46,6.46,0,0,1,64.956,52.779ZM81.914,8.745a1.232,1.232,0,0,0-.557-.879,1.2,1.2,0,0,0-1.028-.148,9.227,9.227,0,0,0-6.59,10.108,1.221,1.221,0,0,0,.545.879,1.239,1.239,0,0,0,.682.2,1.141,1.141,0,0,0,.346-.049A9.256,9.256,0,0,0,81.914,8.745Zm-5.76,7.1a6.5,6.5,0,0,1,3.271-5A6.406,6.406,0,0,1,76.154,15.842Zm8.757,2.663a1.249,1.249,0,0,0-.978-.372,9.259,9.259,0,0,0-8.609,8.472,1.256,1.256,0,0,0,.359.978,1.239,1.239,0,0,0,.879.372h.087a9.259,9.259,0,0,0,8.609-8.472A1.241,1.241,0,0,0,84.911,18.505Zm-6.8,6.677a6.5,6.5,0,0,1,4.249-4.175A6.447,6.447,0,0,1,78.111,25.182Zm7.965,6.886a1.243,1.243,0,0,0-.792-.682,9.263,9.263,0,0,0-11.012,4.942,1.228,1.228,0,0,0-.013,1.041,1.213,1.213,0,0,0,.792.682,9.075,9.075,0,0,0,11.012-4.943A1.272,1.272,0,0,0,86.076,32.068Zm-8.7,3.9a6.447,6.447,0,0,1,5.438-2.441A6.493,6.493,0,0,1,77.381,35.971Zm-60.955.359A9.252,9.252,0,0,0,5.414,31.388a1.21,1.21,0,0,0-.792.682,1.228,1.228,0,0,0,.013,1.041,9.471,9.471,0,0,0,8.237,5.364,9.537,9.537,0,0,0,2.775-.421,1.239,1.239,0,0,0,.792-.682A1.273,1.273,0,0,0,16.426,36.33Zm-8.546-2.8a6.5,6.5,0,0,1,5.438,2.441A6.423,6.423,0,0,1,7.879,33.53Zm-1.127-15.4a1.227,1.227,0,0,0-.967.372,1.2,1.2,0,0,0-.346.978,9.244,9.244,0,0,0,8.6,8.472h.1a1.258,1.258,0,0,0,.879-.372,1.2,1.2,0,0,0,.346-.978A9.248,9.248,0,0,0,6.752,18.134Zm1.573,2.874a6.451,6.451,0,0,1,4.249,4.175A6.472,6.472,0,0,1,8.325,21.007ZM10.357,7.717A1.226,1.226,0,0,0,8.783,8.745a9.24,9.24,0,0,0,6.59,10.108A1.264,1.264,0,0,0,16.4,18.7a1.235,1.235,0,0,0,.557-.879A9.235,9.235,0,0,0,10.357,7.717Zm.917,3.121a6.433,6.433,0,0,1,3.271,5A6.522,6.522,0,0,1,11.273,10.838ZM21.282,45.1A9.241,9.241,0,0,0,9.23,44.394a1.247,1.247,0,0,0-.5.917,1.232,1.232,0,0,0,.383.965,9.918,9.918,0,0,0,6.565,2.638,8.96,8.96,0,0,0,5.488-1.932,1.228,1.228,0,0,0,.112-1.882ZM12.3,45.52a6.485,6.485,0,0,1,5.946.346A6.486,6.486,0,0,1,12.3,45.52Zm16.165,5.748a9.239,9.239,0,0,0-11.829,2.378,1.207,1.207,0,0,0-.247,1.016,1.24,1.24,0,0,0,.619.83,10.015,10.015,0,0,0,4.732,1.176,8.775,8.775,0,0,0,7.1-3.554,1.176,1.176,0,0,0,.247-1A1.236,1.236,0,0,0,28.466,51.268Zm-8.571,2.688a6.467,6.467,0,0,1,5.834-1.176A6.436,6.436,0,0,1,19.895,53.956Z" transform="translate(0)" fill="#231f20"/>
      <path id="Path_35057" data-name="Path 35057" d="M45.879,33.535,47.867,41.9l-7.335-4.483a1.831,1.831,0,0,0-1.951,0L31.248,41.9l2.008-8.365a1.915,1.915,0,0,0-.6-1.857l-6.526-5.589,8.553-.675a1.868,1.868,0,0,0,1.576-1.164l3.3-7.914,3.3,7.914a1.9,1.9,0,0,0,1.6,1.164l8.553.675L46.48,31.678A1.883,1.883,0,0,0,45.879,33.535Z" transform="translate(5.837 -0.235)" fill="#ef6825"/>
    </g>
  </g>
</svg>
