<svg xmlns="http://www.w3.org/2000/svg" width="42.566" height="49.646" viewBox="0 0 42.566 49.646">
  <path id="android_apps" d="M23.535,46.468v-7.02H18.824v7.009A3.06,3.06,0,0,1,15.9,49.634a3.053,3.053,0,0,1-2.924-3.178V39.436H9.744A2.915,2.915,0,0,1,7.47,37.043V16.619H34.893V37.056a2.739,2.739,0,0,1-2.273,2.392H29.384v7.02a2.935,2.935,0,1,1-5.849,0ZM36.7,31.461V19.349a3.052,3.052,0,0,1,2.924-3.178v-.014a3.061,3.061,0,0,1,2.924,3.178V31.461a2.935,2.935,0,1,1-5.849,0Zm-36.7,0V19.349a3.052,3.052,0,0,1,2.924-3.178v-.014a3.061,3.061,0,0,1,2.924,3.178V31.461a3.053,3.053,0,0,1-2.924,3.178A3.06,3.06,0,0,1,0,31.461ZM7.63,15.037A12.1,12.1,0,0,1,14.775,4.348L12.5.362h.017a.551.551,0,0,1-.162-.318A.566.566,0,0,1,12.679.2l2.427,3.988a14.776,14.776,0,0,1,12.018,0L29.557.2s.162-.318.323-.159c.323.159.162.318.162.318L27.769,4.351A12.1,12.1,0,0,1,34.914,15.04ZM26.843,8.548a1.277,1.277,0,0,0,.924,2.184,1.39,1.39,0,0,0,1.3-1.276,1.39,1.39,0,0,0-1.3-1.276h-.02a1.291,1.291,0,0,0-.9.368Zm-12.992,0a1.277,1.277,0,0,0,.924,2.184,1.39,1.39,0,0,0,1.3-1.276,1.39,1.39,0,0,0-1.3-1.276h-.02a1.291,1.291,0,0,0-.9.368Z" transform="translate(0.005 0)" fill="#a4c639"/>
</svg>
