<svg xmlns="http://www.w3.org/2000/svg" width="43.566" height="36.915" viewBox="0 0 43.566 36.915">
  <g id="Group_9089" data-name="Group 9089" transform="translate(-3026.5 -3018.5)">
    <path id="Path_16822" data-name="Path 16822" d="M109.906,61.25H72.66A2.663,2.663,0,0,0,70,63.91V91.845a2.663,2.663,0,0,0,2.66,2.66H86.628v1.33H82.637a.665.665,0,0,0,0,1.33H99.93a.665.665,0,0,0,0-1.33H95.939V94.5h13.967a2.663,2.663,0,0,0,2.66-2.66V63.91A2.663,2.663,0,0,0,109.906,61.25Zm-15.3,34.585H87.958V94.5h6.651Zm16.628-3.991a1.331,1.331,0,0,1-1.33,1.33H72.66a1.331,1.331,0,0,1-1.33-1.33v-.333h39.906Zm0-1.663H71.33V63.911a1.331,1.331,0,0,1,1.33-1.33h37.246a1.331,1.331,0,0,1,1.33,1.33Z" transform="translate(2957 2957.75)" fill="#fff"/>
    <path id="Path_16822_-_Outline" data-name="Path 16822 - Outline" d="M72.66,60.75h37.246a3.168,3.168,0,0,1,3.16,3.16V91.845a3.168,3.168,0,0,1-3.16,3.16H96.439v.33H99.93a1.165,1.165,0,0,1,0,2.33H82.637a1.165,1.165,0,0,1,0-2.33h3.491V95H72.66a3.168,3.168,0,0,1-3.16-3.16V63.91A3.168,3.168,0,0,1,72.66,60.75ZM109.906,94a2.167,2.167,0,0,0,2.16-2.161V63.91a2.167,2.167,0,0,0-2.161-2.16H72.661A2.167,2.167,0,0,0,70.5,63.911V91.845a2.167,2.167,0,0,0,2.161,2.16H87.128v2.33H82.637a.165.165,0,0,0,0,.33H99.93a.165.165,0,0,0,0-.33H95.439V94ZM72.66,62.081h37.246a1.834,1.834,0,0,1,1.83,1.83V90.682H70.83V63.911A1.834,1.834,0,0,1,72.66,62.081Zm38.076,27.6V63.911a.832.832,0,0,0-.831-.83H72.66a.832.832,0,0,0-.83.831V89.682ZM70.83,91.012h40.906v.833a1.834,1.834,0,0,1-1.83,1.83H72.66a1.834,1.834,0,0,1-1.83-1.83Zm39.889,1H71.847a.833.833,0,0,0,.813.663h37.245A.833.833,0,0,0,110.719,92.012ZM87.458,94h7.651v2.33H87.458Zm6.651,1H88.458v.33h5.651Z" transform="translate(2957 2957.75)" fill="#fff"/>
    <path id="Path_16823" data-name="Path 16823" d="M301.371,258.12a4,4,0,1,0,2.82,1.17A4,4,0,0,0,301.371,258.12Zm0,6.651a2.66,2.66,0,1,1,1.881-.779A2.66,2.66,0,0,1,301.371,264.771Z" transform="translate(2746.912 2775.844)" fill="#fff"/>
    <path id="Path_16823_-_Outline" data-name="Path 16823 - Outline" d="M301.366,257.62h.006a4.5,4.5,0,1,1-4.413,3.614A4.507,4.507,0,0,1,301.366,257.62Zm0,7.991a3.5,3.5,0,0,0,.006-6.991l0-.5v.5a3.5,3.5,0,0,0,0,6.991Zm.005-6.661a3.161,3.161,0,1,1,0,6.321h0a3.161,3.161,0,0,1,0-6.321Zm0,5.321a2.16,2.16,0,1,0-2.119-1.739,2.147,2.147,0,0,0,2.119,1.739Z" transform="translate(2746.912 2775.844)" fill="#fff"/>
    <path id="Path_16824" data-name="Path 16824" d="M147.321,96.561a2.327,2.327,0,0,0-.665,4.558v5.751h-3.991v-4.988a.665.665,0,0,0-.665-.665h-9.644v-.431a2.328,2.328,0,1,0-1.33,0v.431h-9.644a.665.665,0,0,0-.665.665v4.988h-3.991v-5.751a2.328,2.328,0,1,0-1.33,0v12.07h7.648v.171a1.751,1.751,0,0,0,1.25,1.676,7.648,7.648,0,0,0,.39.942,1.751,1.751,0,0,0,.3,2.069l1.183,1.183h0a1.75,1.75,0,0,0,2.069.3,7.652,7.652,0,0,0,.942.39,1.751,1.751,0,0,0,1.676,1.25h1.672a1.751,1.751,0,0,0,1.676-1.25,7.658,7.658,0,0,0,.942-.39,1.751,1.751,0,0,0,2.069-.3l1.183-1.183h0a1.751,1.751,0,0,0,.3-2.069,7.646,7.646,0,0,0,.39-.942,1.751,1.751,0,0,0,1.25-1.676v-.171h7.648v-12.07a2.327,2.327,0,0,0-.665-4.558Zm-16.628,2a1,1,0,1,1,1,1,1,1,0,0,1-1-1Zm-15.629.333a1,1,0,1,1,1,1,1,1,0,0,1-1-1Zm23.944,14.471a.418.418,0,0,1-.418.418h-.54a6.447,6.447,0,0,1-.975,2.354l.382.382h0a.418.418,0,0,1,0,.591l-1.182,1.182a.418.418,0,0,1-.591,0l-.382-.382h0a6.446,6.446,0,0,1-2.355.976v.54a.418.418,0,0,1-.418.418h-1.672a.418.418,0,0,1-.418-.418v-.54a6.447,6.447,0,0,1-2.355-.975l-.382.382h0a.418.418,0,0,1-.591,0l-1.182-1.182a.418.418,0,0,1,0-.591l.382-.382h0a6.446,6.446,0,0,1-.975-2.355h-.54a.418.418,0,0,1-.418-.418v-1.672a.418.418,0,0,1,.418-.418h.54a6.447,6.447,0,0,1,.975-2.355l-.382-.382h0a.418.418,0,0,1,0-.591l1.182-1.182a.418.418,0,0,1,.591,0l.382.382h0a6.446,6.446,0,0,1,2.355-.976v-.54a.418.418,0,0,1,.418-.418h1.672a.418.418,0,0,1,.418.418v.54a6.448,6.448,0,0,1,2.355.975l.382-.382h0a.418.418,0,0,1,.591,0l1.182,1.182a.418.418,0,0,1,0,.591l-.382.382h0a6.446,6.446,0,0,1,.975,2.355h.54a.418.418,0,0,1,.418.418Zm7.648-1.5h-6.318v-.171a1.751,1.751,0,0,0-1.25-1.676,7.659,7.659,0,0,0-.39-.942,1.75,1.75,0,0,0-.3-2.069l-1.182-1.182a1.75,1.75,0,0,0-2.069-.3,7.653,7.653,0,0,0-.942-.39,1.751,1.751,0,0,0-1.676-1.25h-1.672a1.751,1.751,0,0,0-1.676,1.25,7.655,7.655,0,0,0-.942.39,1.751,1.751,0,0,0-2.069.3L124.985,107h0a1.751,1.751,0,0,0-.3,2.069,7.661,7.661,0,0,0-.39.942,1.751,1.751,0,0,0-1.25,1.676v.171h-6.318V108.2h4.656a.665.665,0,0,0,.665-.665v-4.988h19.288v4.988a.665.665,0,0,0,.665.665h4.656Zm.665-11.972a1,1,0,1,1,1-1,1,1,0,0,1-1,1Z" transform="translate(2916.592 2925.432)" fill="#fff"/>
    <path id="Path_16824_-_Outline" data-name="Path 16824 - Outline" d="M131.691,95.727a2.825,2.825,0,0,1,1.819,4.99H142a1.167,1.167,0,0,1,1.165,1.165v4.488h2.991v-4.906a2.827,2.827,0,0,1,1.164-5.4v0h0v0h0a2.827,2.827,0,0,1,1.165,5.4v12.224h-7.672a2.232,2.232,0,0,1-1.333,1.736c-.07.188-.147.374-.23.556a2.236,2.236,0,0,1-.5,2.419l-1.183,1.183a2.25,2.25,0,0,1-2.42.5c-.182.083-.368.16-.556.23a2.235,2.235,0,0,1-2.064,1.357h-1.673a2.236,2.236,0,0,1-2.064-1.357c-.188-.07-.374-.147-.556-.23a2.25,2.25,0,0,1-2.419-.5l-1.183-1.183a2.236,2.236,0,0,1-.5-2.419c-.083-.182-.16-.368-.23-.556a2.232,2.232,0,0,1-1.333-1.736H114.9V101.464a2.828,2.828,0,1,1,2.33,0v4.905h2.991v-4.488a1.167,1.167,0,0,1,1.165-1.165h8.49a2.825,2.825,0,0,1,1.819-4.989Zm15.63,1.092v.242a1.827,1.827,0,0,0-.522,3.578l.357.106v6.624h-4.991v-5.488a.165.165,0,0,0-.165-.165H131.856v-1.3l.357-.106a1.828,1.828,0,1,0-1.044,0l.357.106v1.3H121.381a.165.165,0,0,0-.165.165v5.488h-4.991v-6.624l.357-.106a1.828,1.828,0,1,0-1.044,0l.357.106v11.943h7.648v.671a1.243,1.243,0,0,0,.893,1.2l.248.074.083.245a7.169,7.169,0,0,0,.365.881l.115.232-.123.227a1.244,1.244,0,0,0,.215,1.478l1.182,1.182a1.25,1.25,0,0,0,1.478.215l.227-.123.232.115a7.181,7.181,0,0,0,.88.364l.245.083.074.248a1.244,1.244,0,0,0,1.2.893h1.672a1.243,1.243,0,0,0,1.2-.893l.074-.248.245-.083a7.183,7.183,0,0,0,.88-.364l.232-.115.227.123a1.25,1.25,0,0,0,1.478-.216l1.182-1.183a1.244,1.244,0,0,0,.215-1.478l-.123-.227.115-.232a7.172,7.172,0,0,0,.365-.881l.083-.245.248-.074a1.244,1.244,0,0,0,.893-1.2v-.67h7.648V100.745l.357-.106a1.827,1.827,0,0,0-.522-3.578v-.242Zm-15.63.24a1.5,1.5,0,0,1,0,3h0a1.5,1.5,0,0,1-1.5-1.5h0A1.5,1.5,0,0,1,131.691,97.059Zm0,2a.5.5,0,1,0-.352-.146A.5.5,0,0,0,131.691,99.054Zm-15.63-1.663a1.5,1.5,0,1,1-1.5,1.5A1.5,1.5,0,0,1,116.062,97.391Zm0,2a.5.5,0,1,0-.5-.5A.5.5,0,0,0,116.062,99.386Zm31.259-1.995a1.5,1.5,0,0,1,0,3h0a1.5,1.5,0,1,1,0-3Zm-25.774,4.656h20.288v5.488a.165.165,0,0,0,.165.165h5.156v4.658h-7.318v-.671a1.243,1.243,0,0,0-.893-1.2l-.248-.074-.083-.245a7.185,7.185,0,0,0-.364-.88l-.115-.232.123-.227a1.258,1.258,0,0,0-.216-1.478l-1.182-1.182a1.25,1.25,0,0,0-1.478-.215l-.227.123-.232-.115a7.18,7.18,0,0,0-.88-.364l-.245-.083-.074-.248a1.244,1.244,0,0,0-1.2-.893h-1.672a1.243,1.243,0,0,0-1.2.893l-.074.248-.245.083a7.184,7.184,0,0,0-.88.364l-.232.115-.227-.123a1.25,1.25,0,0,0-1.478.216l-1.182,1.182a1.244,1.244,0,0,0-.215,1.478l.123.227-.115.232a7.185,7.185,0,0,0-.365.881l-.083.245-.248.074a1.244,1.244,0,0,0-.893,1.2v.67h-7.318V107.7h5.156a.165.165,0,0,0,.165-.165Zm19.288,1H122.547v4.488a1.167,1.167,0,0,1-1.165,1.165h-4.156v2.658h5.342a2.232,2.232,0,0,1,1.333-1.736c.07-.188.147-.374.23-.556a2.236,2.236,0,0,1,.5-2.419l1.183-1.183a2.25,2.25,0,0,1,2.42-.5c.182-.083.368-.16.556-.23a2.235,2.235,0,0,1,2.064-1.357h1.673a2.236,2.236,0,0,1,2.064,1.357c.188.07.374.147.556.23a2.25,2.25,0,0,1,2.419.5l1.183,1.183a2.267,2.267,0,0,1,.5,2.419c.083.182.161.368.23.556a2.232,2.232,0,0,1,1.334,1.736h5.342V108.7H142a1.167,1.167,0,0,1-1.165-1.165Zm-9.98,1.66h1.673a.918.918,0,0,1,.918.918v.141a6.893,6.893,0,0,1,1.783.738l.1-.1a.918.918,0,0,1,1.3,0l1.182,1.182a.918.918,0,0,1,0,1.3l-.1.1a6.891,6.891,0,0,1,.738,1.783h.141a.919.919,0,0,1,.918.918v1.672a.918.918,0,0,1-.918.918h-.142a6.893,6.893,0,0,1-.738,1.783l.1.1a.918.918,0,0,1,0,1.3l-1.182,1.182a.918.918,0,0,1-1.3,0l-.1-.1a6.891,6.891,0,0,1-1.784.739v.141a.918.918,0,0,1-.918.918h-1.673a.918.918,0,0,1-.918-.918v-.141a6.893,6.893,0,0,1-1.783-.738l-.1.1a.918.918,0,0,1-1.3,0l-1.182-1.182a.919.919,0,0,1,0-1.3l.1-.1a6.892,6.892,0,0,1-.738-1.783h-.141a.918.918,0,0,1-.918-.919v-1.672a.918.918,0,0,1,.918-.918h.142a6.892,6.892,0,0,1,.738-1.783l-.1-.1a.919.919,0,0,1,0-1.3l1.182-1.182a.918.918,0,0,1,1.3,0l.1.1a6.892,6.892,0,0,1,1.783-.739v-.141a.918.918,0,0,1,.918-.918Zm1.591,1h-1.508v.87l-.4.079a5.915,5.915,0,0,0-2.172.9l-.342.23-.615-.615-1.066,1.066.615.615-.229.341a5.917,5.917,0,0,0-.9,2.172l-.079.4h-.87v1.508h.87l.079.4a5.915,5.915,0,0,0,.9,2.172l.229.341-.615.615,1.066,1.066.615-.615.341.229a5.916,5.916,0,0,0,2.172.9l.4.079v.87h1.508v-.87l.4-.079a5.915,5.915,0,0,0,2.172-.9l.342-.23.615.615,1.066-1.066-.615-.615.229-.341a5.916,5.916,0,0,0,.9-2.172l.079-.4h.87v-1.509h-.87l-.079-.4a5.915,5.915,0,0,0-.9-2.172l-.229-.341.615-.615-1.066-1.066-.615.615-.341-.229a5.917,5.917,0,0,0-2.172-.9l-.4-.079Z" transform="translate(2916.592 2925.432)" fill="#fff"/>
  </g>
</svg>
