<svg xmlns="http://www.w3.org/2000/svg" width="34.194" height="41.944" viewBox="0 0 34.194 41.944">
  <path id="apple" d="M18.867,3.65A8.977,8.977,0,0,1,25.454,0a8.956,8.956,0,0,1-2.168,6.7c-2.923,3.513-6.246,2.938-6.246,2.938S16.416,6.88,18.867,3.65ZM17.39,12.035c1.418,0,4.049-1.949,7.474-1.949a9.362,9.362,0,0,1,8.215,4.2,9.108,9.108,0,0,0-4.536,7.947,9.34,9.34,0,0,0,5.651,8.536s-3.95,11.118-9.286,11.118c-2.451,0-4.356-1.651-6.938-1.651-2.631,0-5.243,1.713-6.943,1.713C6.155,41.944,0,31.4,0,22.919,0,14.578,5.21,10.2,10.1,10.2c3.177,0,5.642,1.832,7.294,1.832Z"/>
</svg>
