<svg xmlns="http://www.w3.org/2000/svg" width="120" height="34.08" viewBox="0 0 120 34.08">
  <g id="clutch-co-vector-logo" transform="translate(-21 -235.9)">
    <path id="Path_34255" data-name="Path 34255" d="M177,235.9h5.52v34.08H177Z" transform="translate(-124.8 0)" fill="#17313b"/>
    <path id="Path_34256" data-name="Path 34256" d="M240.12,303.34c0,5.28-4.32,5.76-5.76,5.76-3.36,0-3.84-3.12-3.84-4.8V291.1H225v12.96c0,3.12.96,6,2.88,7.68a8.687,8.687,0,0,0,6.48,2.4c1.92,0,4.32-.48,5.76-1.92v1.92h5.52V291.1h-5.52Z" transform="translate(-163.2 -44.16)" fill="#17313b"/>
    <path id="Path_34257" data-name="Path 34257" d="M343.8,249.1h-5.52v8.4H334.2v5.28h4.08v17.76h5.52V262.78h4.08V257.5H343.8Z" transform="translate(-250.56 -10.56)" fill="#17313b"/>
    <path id="Path_34258" data-name="Path 34258" d="M423.72,305.26a7.577,7.577,0,0,1-4.56,1.68,6.368,6.368,0,0,1-6.48-6.72,6.173,6.173,0,0,1,6.48-6.48,6.335,6.335,0,0,1,4.56,1.68l.72.72,3.84-3.6-.96-.72a12.306,12.306,0,0,0-8.16-3.12,11.76,11.76,0,0,0,0,23.52,12.306,12.306,0,0,0,8.16-3.12l.96-.72-3.84-3.84Z" transform="translate(-309.12 -42.24)" fill="#17313b"/>
    <path id="Path_34259" data-name="Path 34259" d="M541.8,248.86a7.617,7.617,0,0,0-6-2.4,7.219,7.219,0,0,0-5.28,1.92V235.9H525v34.08h5.52V257.26c0-5.28,3.6-5.76,5.04-5.76,3.36,0,3.12,3.12,3.12,4.8v13.44h5.52v-13.2C544.2,253.42,543.48,250.54,541.8,248.86Z" transform="translate(-403.2 0)" fill="#17313b"/>
    <circle id="Ellipse_1" data-name="Ellipse 1" cx="3.84" cy="3.84" r="3.84" transform="translate(105.96 254.38)" fill="#ef4335"/>
    <path id="Path_34260" data-name="Path 34260" d="M44.52,266.357a11.254,11.254,0,0,1-7.92,3.12c-6,0-10.32-4.8-10.32-11.28s4.32-11.28,10.56-11.28a11.293,11.293,0,0,1,7.92,3.36l.72.72,3.6-3.6-.72-.72a16.163,16.163,0,0,0-11.52-4.8c-9.12-.24-15.84,6.96-15.84,16.32s6.72,16.56,15.6,16.56a15.762,15.762,0,0,0,11.52-4.8l.72-.72-3.6-3.6Z" transform="translate(0 -4.777)" fill="#17313b"/>
  </g>
</svg>
