<svg xmlns="http://www.w3.org/2000/svg" width="33.682" height="40.443" viewBox="0 0 33.682 40.443">
  <g id="codeigniter-icon" transform="translate(-0.001)">
    <path id="Path_38697" data-name="Path 38697" d="M10.835,40.436C8.409,39.39,6.142,36.724,6.135,34c-.007-2.972,1.876-5.5,4.219-7.151a3.225,3.225,0,0,0,.263,2.988,2.83,2.83,0,0,0,2.857,1.083c2.5-.55,2.62-3.3,1.135-4.91-1.468-1.59-2.889-3.386-2.33-5.69a5.93,5.93,0,0,1,1.889-3.011c-.691,1.817,1.274,3.607,2.567,4.5,2.244,1.547,4.706,2.718,6.77,4.532,2.169,1.905,3.771,4.482,3.449,7.474-.352,3.242-2.926,5.493-5.812,6.631,6.1-1.346,12.41-6.085,12.539-12.851.109-5.568-3.712-9.853-8.445-12.308l-.247-.135a2.069,2.069,0,0,1,.168.823,2.734,2.734,0,0,0,.079-.546,2.643,2.643,0,0,1-.086.661l.007-.115a2.747,2.747,0,0,1-.349.836l.069-.076a2.969,2.969,0,0,1-4.762.283c-2.031-2.606.043-5.42.332-8.181C20.8,5.371,18.631,2.011,15.939,0c1.481,2.4-.471,5.572-2.034,7.342C12.391,9.06,10.548,10.5,8.877,12.058a41.841,41.841,0,0,0-5,5.414C.922,21.414-.884,26.374.445,31.291s5.582,8.04,10.39,9.146Z" fill="#ee4323" fill-rule="evenodd"/>
  </g>
</svg>
