<svg xmlns="http://www.w3.org/2000/svg" width="72.75" height="59.202" viewBox="0 0 72.75 59.202">
  <g id="Group_33648" data-name="Group 33648" transform="translate(-258.518 -234.466)">
    <g id="Group_3115" data-name="Group 3115" transform="translate(258.518 273.328)">
      <path id="Path_16505" data-name="Path 16505" d="M264.274,587.793a.475.475,0,0,1-.339-.03q-.627-.312-1.261-.616a.464.464,0,0,1-.233-.23l-3.908-12.028a.366.366,0,0,1,.072-.329q.4-.63.811-1.258a.613.613,0,0,1,.3-.246q2.1-.649,4.213-1.218a.48.48,0,0,1,.367.052q.69.309,1.372.627a.379.379,0,0,1,.217.245l.66,2.6a.466.466,0,0,1-.074.377.568.568,0,0,1-.35.249q-.626.162-1.251.332a.6.6,0,0,1-.417-.037.448.448,0,0,1-.262-.3l-.517-1.868q-1.284.355-2.561.741l3.219,10.67q1.155-.349,2.316-.67l-.409-1.479a.451.451,0,0,1,.058-.368.528.528,0,0,1,.326-.24q.588-.16,1.177-.312a.536.536,0,0,1,.393.049.442.442,0,0,1,.241.289L269,585.02a.4.4,0,0,1-.057.315q-.38.6-.75,1.2a.416.416,0,0,1-.254.2Q266.1,587.229,264.274,587.793Z" transform="translate(-258.518 -567.764)" fill="#fff"/>
      <path id="Path_16506" data-name="Path 16506" d="M338.271,569.92a.471.471,0,0,1-.333-.059q-.6-.364-1.2-.722a.467.467,0,0,1-.212-.249l-2.9-12.41a.366.366,0,0,1,.1-.321q.448-.6.906-1.2a.532.532,0,0,1,.323-.2q2.135-.467,4.282-.854a.508.508,0,0,1,.357.067q.66.375,1.312.757a.379.379,0,0,1,.2.262l2.085,12.572a.4.4,0,0,1-.083.309q-.427.563-.844,1.129a.413.413,0,0,1-.268.179Q340.127,569.515,338.271,569.92Zm.247-2.25q1.174-.248,2.352-.469l-2.077-11.065q-1.3.245-2.6.52Z" transform="translate(-324.066 -552.117)" fill="#fff"/>
      <path id="Path_16507" data-name="Path 16507" d="M411.8,559.674a.492.492,0,0,1-.371-.1.476.476,0,0,1-.2-.321l-2.089-14.3a.45.45,0,0,1,.127-.369.6.6,0,0,1,.379-.209q2.734-.386,5.481-.643a.475.475,0,0,1,.351.114q.623.422,1.238.85a.38.38,0,0,1,.172.278l.381,4.782a.437.437,0,0,1-.117.317q-.485.517-.96,1.039.561.42,1.113.845a.389.389,0,0,1,.162.279l.5,6.263a.489.489,0,0,1-.119.358.482.482,0,0,1-.346.183q-.579.049-1.158.1a.491.491,0,0,1-.366-.118.477.477,0,0,1-.19-.33l-.641-6.348q-1.277.129-2.552.288l.789,6.331a.477.477,0,0,1-.112.364.491.491,0,0,1-.33.2Q412.367,559.594,411.8,559.674Zm.52-9.209q1.3-.162,2.6-.294l-.43-4.258q-1.352.137-2.7.3Z" transform="translate(-389.969 -543.24)" fill="#fff"/>
      <path id="Path_16508" data-name="Path 16508" d="M488.841,555.506a.49.49,0,0,1-.36-.133.476.476,0,0,1-.176-.337l-.868-14.4a.449.449,0,0,1,.157-.357.6.6,0,0,1,.395-.176q.807-.045,1.615-.078.111-.037.239.1a1.219,1.219,0,0,1,.209.291q1.213,3.777,2.288,7.576-.075-3.771-.151-7.541a.45.45,0,0,1,.172-.351.6.6,0,0,1,.4-.16q.658-.01,1.316-.012a.566.566,0,0,1,.395.153.459.459,0,0,1,.169.347l-.011,14.423a.49.49,0,0,1-.148.347.463.463,0,0,1-.343.154q-.572,0-1.145.011a1.857,1.857,0,0,1-.434-.025.149.149,0,0,1-.11-.159q-1.059-3.735-2.261-7.446.142,3.6.283,7.2a.477.477,0,0,1-.142.353.491.491,0,0,1-.345.168Q489.413,555.474,488.841,555.506Z" transform="translate(-458.312 -539.924)" fill="#fff"/>
      <path id="Path_16509" data-name="Path 16509" d="M560.229,556.181a.49.49,0,0,1-.348-.162.476.476,0,0,1-.148-.35q.144-7.178.289-14.356a.428.428,0,0,1,.185-.335.619.619,0,0,1,.407-.136q.657.017,1.314.04a.62.62,0,0,1,.4.161.428.428,0,0,1,.164.346l-.25,6.084q1.3.053,2.606.138l.394-6.109a.459.459,0,0,1,.191-.335.59.59,0,0,1,.423-.125q.666.046,1.331.1a.6.6,0,0,1,.39.186.451.451,0,0,1,.148.361q-.614,7.169-1.228,14.339a.489.489,0,0,1-.177.333.482.482,0,0,1-.372.123q-.579-.047-1.159-.087a.49.49,0,0,1-.341-.177.476.476,0,0,1-.133-.357q.2-3.07.4-6.141-1.277-.082-2.556-.135-.126,3.075-.253,6.149a.477.477,0,0,1-.17.341.489.489,0,0,1-.358.14Q560.8,556.2,560.229,556.181Z" transform="translate(-521.41 -540.725)" fill="#fff"/>
      <path id="Path_16510" data-name="Path 16510" d="M630.625,561.128a.468.468,0,0,1-.294-.165q-.441-.539-.891-1.075a.466.466,0,0,1-.118-.3l1.333-12.674a.367.367,0,0,1,.2-.271q.618-.421,1.244-.836a.53.53,0,0,1,.37-.086q2.161.258,4.315.6a.508.508,0,0,1,.315.181q.5.571.991,1.146a.378.378,0,0,1,.1.312l-2.152,12.561a.4.4,0,0,1-.18.264q-.588.391-1.167.79a.413.413,0,0,1-.312.081Q632.5,561.352,630.625,561.128Zm.969-2.045q1.186.15,2.37.327l1.666-11.134q-1.31-.2-2.624-.362Z" transform="translate(-582.146 -544.975)" fill="#fff"/>
      <path id="Path_16511" data-name="Path 16511" d="M696.825,572.455a.493.493,0,0,1-.318-.218.476.476,0,0,1-.088-.371L699.13,557.7a.448.448,0,0,1,.241-.307.6.6,0,0,1,.428-.073q.649.127,1.3.262a.6.6,0,0,1,.366.234.45.45,0,0,1,.1.377l-2.664,12.5q1.223.261,2.441.551a.52.52,0,0,1,.317.226.445.445,0,0,1,.075.367l-.275,1.13a.476.476,0,0,1-.234.3.5.5,0,0,1-.38.067Q698.841,572.851,696.825,572.455Z" transform="translate(-640.7 -555.096)" fill="#fff"/>
      <path id="Path_16512" data-name="Path 16512" d="M751.729,586.771a.5.5,0,0,1-.3-.24.474.474,0,0,1-.063-.376l3.684-13.945a.449.449,0,0,1,.263-.29.609.609,0,0,1,.433-.043q2.627.708,5.229,1.539a.614.614,0,0,1,.342.271.449.449,0,0,1,.064.386l-.349,1.075a.453.453,0,0,1-.276.276.6.6,0,0,1-.43.023q-1.655-.529-3.322-1.007l-1.247,4.347q1.249.358,2.491.746a.558.558,0,0,1,.322.262.458.458,0,0,1,.057.382l-.337,1.062a.463.463,0,0,1-.265.28.548.548,0,0,1-.408.033q-1.218-.381-2.444-.732l-1.243,4.332q1.507.432,3,.91a.524.524,0,0,1,.3.249.444.444,0,0,1,.048.372l-.359,1.106a.475.475,0,0,1-.257.282.5.5,0,0,1-.386.037Q754.015,587.387,751.729,586.771Z" transform="translate(-688.647 -567.793)" fill="#fff"/>
    </g>
    <g id="Group_3122" data-name="Group 3122" transform="translate(266.915 234.466)">
      <g id="Group_3116" data-name="Group 3116" transform="translate(11.028 7.985)">
        <path id="Path_16513" data-name="Path 16513" d="M411.2,297.24c.741-.017,1.481,0,2.222-.008,0,1.986,0,3.972,0,5.957,1.434-1.982,2.854-3.974,4.285-5.958.842,0,1.683,0,2.524,0-1.331,1.883-2.689,3.748-4.014,5.635,1.382,2.017,2.772,4.029,4.137,6.058-.88.006-1.761,0-2.641,0-.947-1.419-1.893-2.838-2.857-4.245-.421.54-.806,1.105-1.215,1.653-.092.139-.228.272-.22.452-.014.714,0,1.427,0,2.142-.741,0-1.481.008-2.222-.008Q411.219,303.082,411.2,297.24Z" transform="translate(-411.2 -297.23)" fill="#5c5c5c"/>
        <path id="Path_16514" data-name="Path 16514" d="M608.887,297.238c2.941-.018,5.883-.009,8.824,0-.008.746-.007,1.492,0,2.236-1.1.022-2.2,0-3.3.008q-.01,4.723,0,9.447c-.736,0-1.473.009-2.209,0q.013-4.72,0-9.441c-1.1-.011-2.205.014-3.307-.015C608.9,298.723,608.9,297.98,608.887,297.238Z" transform="translate(-583.736 -297.228)" fill="#5c5c5c"/>
      </g>
      <g id="Group_3117" data-name="Group 3117" transform="translate(0 0)">
        <path id="Path_16515" data-name="Path 16515" d="M330.289,234.478c13.636-.014,43.111-.019,44.213,0,.512,3.956,1.131,7.9,1.649,11.853.667,4.522,3.88,27.719,4.1,28.767a20.673,20.673,0,0,1-2.9-1.183q-2.407-18.5-4.836-37-20.124.006-40.249,0c-.323,2.23-3.525,26.9-4.851,37a20.559,20.559,0,0,1-2.9,1.185C324.885,273.071,329.232,241.881,330.289,234.478Z" transform="translate(-324.519 -234.466)" fill="#fff"/>
      </g>
      <g id="Group_3119" data-name="Group 3119" transform="translate(4.302 4.015)">
        <g id="Group_3118" data-name="Group 3118" transform="translate(1.163)">
          <path id="Path_16516" data-name="Path 16516" d="M370.7,266.036c6.234-.024,12.468,0,18.7-.013.056,1.758.02,3.518.016,5.276a6.071,6.071,0,0,0-3.692,1.177,1.95,1.95,0,0,0-.686,1.707,1.842,1.842,0,0,0,1.3,1.678,7.534,7.534,0,0,0,2.961.312c-.3.751-8.515,13.764-8.767,14.009a6.285,6.285,0,0,1-1.55.152,65.476,65.476,0,0,0-10.041,1.651c-.493.121-.964.323-1.465.416C367.573,290.872,370.51,267.725,370.7,266.036ZM373.039,270q.019,5.842,0,11.683c.741.016,1.481,0,2.222.008.008-.714-.009-1.428,0-2.142-.008-.18.129-.313.22-.452.408-.548.793-1.113,1.215-1.653.964,1.407,1.91,2.826,2.857,4.245.88,0,1.761.006,2.641,0-1.365-2.029-2.755-4.041-4.137-6.058,1.325-1.886,2.683-3.751,4.014-5.635-.841-.007-1.683,0-2.524,0-1.431,1.985-2.852,3.977-4.285,5.958-.01-1.986,0-3.972,0-5.957C374.52,270,373.78,269.986,373.039,270Z" transform="translate(-367.476 -266.023)" fill="#fff"/>
        </g>
        <path id="Path_16517" data-name="Path 16517" d="M397.708,474.5a2.523,2.523,0,0,1,1.171.187,10.31,10.31,0,0,0,2.937.422c.056.352-.242.591-.349.9a11.079,11.079,0,0,0-.242,2.918c-.345-.037-.675-.149-1.02-.188a2.113,2.113,0,0,1-.725-.132,5.624,5.624,0,0,0-1.177-.577,4.123,4.123,0,0,0-1.222.175l-.128-.144a3.838,3.838,0,0,1,.687-1.869c.1-.166.333-.308.257-.53A2.646,2.646,0,0,1,397.708,474.5Z" transform="translate(-392.041 -447.969)" fill="#fff"/>
        <path id="Path_16518" data-name="Path 16518" d="M361.041,504.475a2.159,2.159,0,0,1,.677-.082,2.4,2.4,0,0,1-.15,1.054c-.028.115.083.2.129.3a2.94,2.94,0,0,1,.668,1.71c-.371.014-.728-.132-1.1-.115-.481.123-.846.548-1.359.578a5.108,5.108,0,0,0-1.074.225c-.192-.749.054-1.542-.185-2.285-.078-.33-.359-.595-.311-.952A7.259,7.259,0,0,0,361.041,504.475Z" transform="translate(-358.331 -474.066)" fill="#fff"/>
      </g>
      <g id="Group_3121" data-name="Group 3121" transform="translate(28.3 4.017)">
        <g id="Group_3120" data-name="Group 3120">
          <path id="Path_16519" data-name="Path 16519" d="M547,266.039c6.229.013,12.457,0,18.687.007.125.914,3.243,25.661,3.228,26.382-.429-.093-.839-.245-1.258-.372a57.259,57.259,0,0,0-9.457-1.615c-.765-.129-1.543-.117-2.312-.212-.777-1.329-8.437-13.152-8.807-14.057a6.616,6.616,0,0,0,3.111-.349,1.994,1.994,0,0,0,1.126-1.2,3.879,3.879,0,0,0,.008-1.163,2.685,2.685,0,0,0-1.654-1.623,9.038,9.038,0,0,0-2.68-.535C546.951,270.256,546.945,266.743,547,266.039Zm7.842,3.978c.014.742.012,1.485,0,2.228,1.1.028,2.2,0,3.307.015q.015,4.72,0,9.441c.736.013,1.473.007,2.209,0q-.006-4.723,0-9.447c1.1-.009,2.2.014,3.3-.008,0-.745-.006-1.491,0-2.236C560.721,270.009,557.779,270,554.838,270.017Z" transform="translate(-546.959 -266.039)" fill="#fff"/>
        </g>
        <path id="Path_16520" data-name="Path 16520" d="M655.506,470.846a2.7,2.7,0,0,1,.88-.108,6.106,6.106,0,0,1-.211,1.393,3.869,3.869,0,0,1,.936,2.309c-.427.055-.819-.186-1.24-.174-.709.127-1.226.794-1.979.759a6.235,6.235,0,0,0-1.029.162,2.747,2.747,0,0,1-.047-.883,5.315,5.315,0,0,0-.114-1.647,6.7,6.7,0,0,0-.483-1.165c.5-.24,1.071-.086,1.6-.209A12.406,12.406,0,0,0,655.506,470.846Z" transform="translate(-638.828 -444.695)" fill="#fff"/>
        <path id="Path_16521" data-name="Path 16521" d="M693.12,502.231a1.257,1.257,0,0,1,.809.079,10.973,10.973,0,0,0,1.491.344c.379.073.8-.058,1.143.176a3.762,3.762,0,0,0-.527,2.338,1.34,1.34,0,0,1-.076.714,3.188,3.188,0,0,0-.873-.171c-.569.03-.974-.454-1.5-.587-.369-.033-.724.117-1.093.105a3.5,3.5,0,0,1,.787-2.013A1.8,1.8,0,0,1,693.12,502.231Z" transform="translate(-673.977 -472.144)" fill="#fff"/>
      </g>
    </g>
  </g>
</svg>
