<svg xmlns="http://www.w3.org/2000/svg" width="81.823" height="40.911" viewBox="0 0 81.823 40.911">
  <g id="Group_33649" data-name="Group 33649" transform="translate(-1207 -1155)">
    <path id="Path_1152" data-name="Path 1152" d="M662.184,14.517c0-2.936-.011-5.873.01-8.809,0-.485-.129-.666-.623-.624a13.323,13.323,0,0,1-1.517.019.5.5,0,0,1-.522-.6c.031-.333.249-.483.6-.477,2.747.047,5.494.112,8.24.12,1.482,0,2.964-.09,4.446-.145.578-.021.777.126.794.649q.075,2.327.136,4.654c.008.322-.035.641-.462.637-.4,0-.555-.262-.566-.633a3.5,3.5,0,0,0-.032-.606,15.064,15.064,0,0,0-.482-2.053,1.892,1.892,0,0,0-1.78-1.294c-1.769-.06-3.54-.043-5.311-.06-.289,0-.375.152-.375.416q.006,3.721,0,7.442c0,.319.15.4.437.4.826-.01,1.653,0,2.48-.006A1.785,1.785,0,0,0,669.6,11.95a8.2,8.2,0,0,0,.1-.9c.027-.274.111-.558.434-.476.153.039.3.309.348.5a3.357,3.357,0,0,1,0,.756q0,2.227,0,4.454c0,.169.02.338.013.506-.014.332.144.815-.382.829-.471.013-.372-.456-.438-.773a8.677,8.677,0,0,0-.337-1.256,1.31,1.31,0,0,0-1.294-.885c-.978-.021-1.956-.012-2.934-.026-.294,0-.369.134-.368.405q.009,4.176,0,8.353c0,.317.134.409.426.408,1.906-.007,3.813.02,5.718-.017a2.4,2.4,0,0,0,2.387-1.961,11.568,11.568,0,0,0,.266-1.948c.035-.391.083-.721.58-.7s.487.364.474.722q-.081,2.225-.154,4.451c-.021.625-.17.733-.809.726q-6.248-.071-12.5-.114c-.353,0-.705.063-1.059.085s-.533-.182-.539-.521a.486.486,0,0,1,.509-.564c.489-.007.978.017,1.467.024.679.009.681.008.681-.644q0-4.43,0-8.859" transform="translate(614.235 1151.409)" fill="#fff"/>
    <path id="Path_1153" data-name="Path 1153" d="M14,19.733c-.27.246-.511.474-.76.693a6.545,6.545,0,0,1-5.5,1.426A7.716,7.716,0,0,1,2.01,17.945,13.14,13.14,0,0,1,1.464,4.924,8.016,8.016,0,0,1,8.484.015a6.529,6.529,0,0,1,5.2,1.9c.06.059.122.116.186.171a.774.774,0,0,0,.122.064A1.9,1.9,0,0,0,14.685.723c.039-.3.048-.6.459-.589s.466.3.465.633q-.005,3.214,0,6.428c0,.084.028.2-.014.248-.133.164-.286.411-.447.424-.137.011-.391-.236-.431-.406-.186-.8-.236-1.638-.481-2.416a5.623,5.623,0,0,0-8.265-3,5.81,5.81,0,0,0-2.349,3.6,19.126,19.126,0,0,0-.561,5.064,19.764,19.764,0,0,0,.582,5.618c.529,1.834,1.435,3.439,3.389,4.047a5.545,5.545,0,0,0,7.19-3.481,14.376,14.376,0,0,0,.464-2.317c.053-.3.086-.595.488-.561.381.032.436.323.436.627q0,3.265,0,6.53c0,.307-.051.594-.436.62-.4.028-.451-.268-.481-.569a2.237,2.237,0,0,0-.685-1.5" transform="translate(1207 1155.001)" fill="#fff"/>
    <path id="Path_1154" data-name="Path 1154" d="M224.894,13.1c0,2.16,0,4.319,0,6.479a6.191,6.191,0,0,1-.551,2.855,5.841,5.841,0,0,1-4.729,3.217,7.62,7.62,0,0,1-5.876-1.256,5.143,5.143,0,0,1-2.143-4.005c-.063-1.178-.043-2.361-.044-3.542,0-3.627-.012-7.255.009-10.882,0-.507-.126-.706-.649-.654a13.884,13.884,0,0,1-1.416.027c-.443,0-.758-.276-.687-.614.087-.409.379-.465.768-.461q3.206.034,6.412,0c.386,0,.684.021.749.458.057.382-.2.617-.667.616-.506,0-1.013,0-1.517-.025-.377-.021-.5.121-.492.5.017,1.417.005,2.834.005,4.251,0,3.29-.007,6.58.006,9.87a4.511,4.511,0,0,0,.589,2.572,4.207,4.207,0,0,0,3.088,1.89c2.019.291,3.841-.037,5.149-1.8a4.834,4.834,0,0,0,.842-2.967c.015-4.606,0-9.212.013-13.818,0-.374-.119-.516-.495-.5-.522.027-1.045.017-1.568.022-.386,0-.626-.177-.608-.573s.279-.553.661-.506a21.028,21.028,0,0,0,5.246,0,.51.51,0,0,1,.65.471c.036.4-.2.6-.58.6-.539.009-1.08.011-1.619-.019-.416-.024-.557.121-.554.547.017,2.413.008,4.825.008,7.238Z" transform="translate(1019.336 1151.177)" fill="#fff"/>
    <path id="Path_1155" data-name="Path 1155" d="M642.229,343.809a1.449,1.449,0,0,0-1.589-.1,1.028,1.028,0,0,0-.436.759c-.005.2.28.483.5.593a9.594,9.594,0,0,0,1.246.406,3.444,3.444,0,0,1,.559.23,1.487,1.487,0,0,1,.9,1.593,1.749,1.749,0,0,1-1.568,1.355,2.441,2.441,0,0,1-2.091-.481,2.214,2.214,0,0,1-.47-.994c-.03-.116.211-.381.378-.443a.483.483,0,0,1,.564.7c-.216.352-.046.489.239.61a2.043,2.043,0,0,0,1.62.04.7.7,0,0,0,.527-.768,1.065,1.065,0,0,0-.523-.652,14.363,14.363,0,0,0-1.48-.5c-1.025-.361-1.46-1.147-1.082-2.034a1.677,1.677,0,0,1,1.7-1.052,3.574,3.574,0,0,1,1.5.475c.2.112.313.538.314.822a.427.427,0,0,1-.614.4c-.32-.114-.5-.349-.3-.713.038-.07.066-.145.11-.244" transform="translate(632.433 844.141)" fill="#fff"/>
    <path id="Path_1165" data-name="Path 1165" d="M461.76,23.2c-.329-.026-.491.17-.54.478-.013.083-.019.168-.038.25a.891.891,0,0,1-.967.713.723.723,0,0,1-.788-.693,6.947,6.947,0,0,1-.055-1.206c.032-.977.151-1.956.126-2.931a5.841,5.841,0,0,0-2.926-5.163c-.41-.247-.867-.416-1.4-.664.231-.081.388-.132.542-.19a5.1,5.1,0,0,0,2.759-2.262,4.451,4.451,0,0,0-2.405-6.478,11.844,11.844,0,0,0-4.27-.667c-2.088-.033-4.176-.089-6.264-.139-.354-.009-.613.122-.635.494-.023.387.2.593.591.593.438,0,.877-.013,1.315-.017.755-.007.758-.006.758.728q0,6.453,0,12.905c0,1.6-.006,3.205.008,4.808,0,.366-.1.523-.49.5-.5-.035-1.011-.024-1.517-.037-.392-.01-.678.123-.67.563s.3.53.693.528q3.284-.017,6.568,0c.389,0,.689-.074.7-.521s-.264-.58-.664-.569c-.539.015-1.079.01-1.618.03-.3.011-.441-.113-.421-.415,0-.05,0-.1,0-.152q0-4.125,0-8.249c0-.251-.048-.536.353-.524,1.112.032,2.232-.013,3.333.108a2.851,2.851,0,0,1,2.634,2.233,12.357,12.357,0,0,1,.282,1.792c.139,1.305.169,2.627.394,3.917a2.807,2.807,0,0,0,3.281,2.562,1.9,1.9,0,0,0,1.773-1.708c.007-.319-.072-.584-.445-.614m-8.471-9.577a24.377,24.377,0,0,1-2.771.147c-.386.016-.362-.266-.362-.525q0-2.733,0-5.465c0-.607.01-1.215,0-1.822-.007-.329.133-.455.453-.446.421.012.843,0,1.265,0l.016-.095c.86.144,1.726.256,2.577.44A2.045,2.045,0,0,1,456.029,7.5a5.913,5.913,0,0,1-.546,4.736,3.074,3.074,0,0,1-2.194,1.393" transform="translate(807.138 1151.18)" fill="#fff"/>
    <path id="Path_1166" data-name="Path 1166" d="M359.416,320.275c-.116.08-.231.162-.349.239-.141.092-.286.179-.429.269a1.887,1.887,0,0,1-.253-.446,1.761,1.761,0,0,1,.012-.5c.016-.32.049-.64.046-.96a2.606,2.606,0,0,0-1.542-2.338c.219-.139.347-.216.471-.3a1.88,1.88,0,0,0,.889-1.808,1.7,1.7,0,0,0-1.167-1.514,4.154,4.154,0,0,0-1.276-.267c-.959-.053-1.92-.056-2.881-.057a1.361,1.361,0,0,0-.452.179c.144.09.3.267.432.255.505-.045.621.164.616.639-.025,2.075-.012,4.15-.014,6.225,0,.681,0,.669-.68.75-.129.016-.243.162-.364.249.128.075.255.211.385.215q1.238.031,2.476,0c.132,0,.262-.136.392-.208a2.865,2.865,0,0,0-.4-.261c-.084-.038-.222.03-.3-.015-.13-.079-.324-.205-.327-.316q-.037-1.517,0-3.036a.468.468,0,0,1,.308-.335c1.773-.1,2.236.4,2.271,1.909a4.909,4.909,0,0,0,.008.506,7.583,7.583,0,0,0,.172,1.045,1.128,1.128,0,0,0,1.094.823,2.024,2.024,0,0,0,.883-.454c.072-.054-.013-.319-.025-.488m-3.986-3.88c-.741.023-.741.023-.742-.734q0-.886,0-1.772c0-.762,0-.762.773-.757,1.185.009,1.594.379,1.6,1.454.007,1.177-.532,1.775-1.632,1.809" transform="translate(890.204 871.532)" fill="#fff"/>
    <path id="Path_1167" data-name="Path 1167" d="M183.82,320.328c-.619.125-.677-.185-.671-.7.023-2.277.016-4.555,0-6.832,0-.19-.159-.533-.267-.542a9.614,9.614,0,0,0-1.511.036.307.307,0,0,0-.2.225c0,.074.128.19.218.211.143.033.313-.035.449.01s.316.173.318.269c.023.989.014,1.979.014,3.075a2.736,2.736,0,0,1-.271-.186,2.02,2.02,0,0,0-3.281.976,4.389,4.389,0,0,0-.079,2.345,2.04,2.04,0,0,0,2.408,1.7,4.441,4.441,0,0,0,1.105-.491c.154.127.3.348.469.367a7.257,7.257,0,0,0,1.312-.009c.117-.008.226-.14.338-.215-.117-.087-.251-.266-.346-.247M181.634,320a1.154,1.154,0,0,1-1.248.464c-.5-.1-.656-.5-.742-.922-.09-.443-.118-.9-.176-1.374.061-.467.089-.957.2-1.43a1.02,1.02,0,0,1,1.74-.592,1.73,1.73,0,0,1,.537.766,3.321,3.321,0,0,1-.307,3.087" transform="translate(1046.649 871.847)" fill="#fff"/>
    <path id="Path_1168" data-name="Path 1168" d="M501.733,345.443a2.4,2.4,0,0,0-2.026-2.375,1.992,1.992,0,0,0-1.59.638c-.163-.182-.283-.443-.43-.458a8.975,8.975,0,0,0-1.463.005c-.1.006-.182.16-.272.246a1.116,1.116,0,0,0,.281.234.769.769,0,0,0,.35,0c.285-.036.4.087.4.368q0,3.39,0,6.78c0,.312-.144.424-.438.4a.573.573,0,0,0-.3.006,1.545,1.545,0,0,0-.294.277c.1.065.208.183.314.185q1.212.023,2.425,0c.095,0,.187-.135.28-.207-.083-.086-.153-.212-.254-.249-.119-.043-.285.031-.4-.02-.137-.063-.336-.2-.339-.31-.027-.956-.015-1.912-.015-2.99a4.965,4.965,0,0,1,.426.3,2,2,0,0,0,2.937-.668,4.025,4.025,0,0,0,.4-2.158m-1.371,2.122a1.026,1.026,0,0,1-1.767.246,3.32,3.32,0,0,1-.144-3.69,1.214,1.214,0,0,1,1.221-.542,1,1,0,0,1,.817.914c.1.458.134.928.214,1.517a10.218,10.218,0,0,1-.341,1.556" transform="translate(761.252 844.154)" fill="#fff"/>
    <path id="Path_1169" data-name="Path 1169" d="M573.917,344.8a2.3,2.3,0,0,0-1.824-1.5,2.592,2.592,0,0,0-2.95,2.961,2.669,2.669,0,0,0,2.541,2.683,7.336,7.336,0,0,0,1.326-.517,3.006,3.006,0,0,0,.907-3.627m-1.092,2.829a1.054,1.054,0,0,1-1.172.761,1.125,1.125,0,0,1-1.188-.756,2.005,2.005,0,0,1-.136-.485c-.041-.351-.057-.7-.094-1.2a12.809,12.809,0,0,1,.185-1.3,1.119,1.119,0,0,1,1.227-.909,1.1,1.1,0,0,1,1.211.859,5.214,5.214,0,0,1-.034,3.039" transform="translate(695.479 843.964)" fill="#fff"/>
    <path id="Path_1170" data-name="Path 1170" d="M252.174,346.958a1.566,1.566,0,0,0-.5.471,1.459,1.459,0,0,1-1.454.725,1.182,1.182,0,0,1-1.187-.923,7.66,7.66,0,0,1-.2-1.5c-.006-.112.219-.327.353-.339.451-.043.909-.016,1.365-.016v0c.439,0,.878-.012,1.316,0,.372.014.466-.161.425-.5a2.145,2.145,0,0,0-3.181-1.6,3.1,3.1,0,0,0-.773,4.507,2.379,2.379,0,0,0,3.721-.107c.136-.218.438-.455.112-.728m-1.464-3.327a1.221,1.221,0,0,1,.5.677c.113.336-.022.575-.458.556-.583-.026-1.169-.006-1.751-.006a1.184,1.184,0,0,1,1.706-1.226" transform="translate(984.375 844.188)" fill="#fff"/>
    <path id="Path_1171" data-name="Path 1171" d="M439.885,347.423a1.561,1.561,0,0,1-1.445.759,1.187,1.187,0,0,1-1.194-.848,7.822,7.822,0,0,1-.265-1.628c-.009-.091.22-.284.349-.294.452-.037.908-.014,1.363-.014v0c.421,0,.843-.016,1.263,0,.377.018.5-.121.472-.5a2.083,2.083,0,0,0-3.1-1.6,3.009,3.009,0,0,0-.324,4.947,2.327,2.327,0,0,0,3.245-.57,2.187,2.187,0,0,0,.106-.719,2.879,2.879,0,0,0-.472.472m-1.219-3.872a.835.835,0,0,1,.712.744c.063.39-.045.61-.5.588-.519-.026-1.04-.008-1.559-.013a.781.781,0,0,1-.174-.05,1.245,1.245,0,0,1,1.517-1.269" transform="translate(815.261 844.167)" fill="#fff"/>
  </g>
</svg>
