<svg id="logo-home-update-black" xmlns="http://www.w3.org/2000/svg" xmlns:xlink="http://www.w3.org/1999/xlink" width="232.258" height="36" viewBox="0 0 232.258 36">
  <defs>
    <linearGradient id="linear-gradient" x1="1.003" y1="0.5" x2="0.474" y2="0.5" gradientUnits="objectBoundingBox">
      <stop offset="0" stop-color="#784cfb"/>
      <stop offset="1" stop-color="#2af4ff"/>
    </linearGradient>
    <linearGradient id="linear-gradient-2" x1="1.032" x2="0.065" xlink:href="#linear-gradient"/>
    <linearGradient id="linear-gradient-3" x1="0.821" x2="0.169" xlink:href="#linear-gradient"/>
    <linearGradient id="linear-gradient-4" x1="-0.117" x2="4.522" xlink:href="#linear-gradient"/>
    <linearGradient id="linear-gradient-5" x1="-1.284" x2="3.316" xlink:href="#linear-gradient"/>
    <linearGradient id="linear-gradient-6" x1="-2.695" y1="0.497" x2="2.345" y2="0.497" xlink:href="#linear-gradient"/>
    <linearGradient id="linear-gradient-7" x1="-3.699" x2="1.044" xlink:href="#linear-gradient"/>
  </defs>
  <path id="Path_34269" data-name="Path 34269" d="M12.693,15.56a.534.534,0,0,0,0,.081l-.383.43h0L3.054,29.147a.906.906,0,0,1-.093.128l-.139.2-.081.128-.128.186L0,33.49l1.068-7.351a3.484,3.484,0,0,1,.163-.778.987.987,0,0,1,.1-.348,6.073,6.073,0,0,1,.267-.7,4.645,4.645,0,0,1,.29-.523,1.637,1.637,0,0,1,.232-.348,2.5,2.5,0,0,1,.2-.232c.116-.139.221-.279.337-.395a7.141,7.141,0,0,1,.952-.825l8.245-5.806h.07Z" transform="translate(0 2.51)" fill="#774efb"/>
  <path id="Path_34270" data-name="Path 34270" d="M12.693,18.07l-.778-.546h-.07L3.6,11.613A6.143,6.143,0,0,1,1.068,7.5L.755,5.4h0L0,0,12.275,17.419Z" fill="#774efb"/>
  <path id="Path_34271" data-name="Path 34271" d="M25.4,18.07l-.79.546h-.07L0,36l2.613-3.681.441-.662,9.221-12.995h0l.325-.441a.534.534,0,0,1,0-.081h0l-.325-.72L0,0,24.538,17.419h.07Z" fill="url(#linear-gradient)"/>
  <path id="Path_34272" data-name="Path 34272" d="M8.351,16.178l-.825.592-.07.046L1.465,21.056l.894-4.239.012-.046.116-.592-.128-.511-.012-.046L1.36,11.51l6.155,4.111.07.046Z" transform="translate(0.219 1.856)" fill="url(#linear-gradient-2)"/>
  <path id="Path_34273" data-name="Path 34273" d="M12.7,18.07,0,0,.755,5.4Z" opacity="0.2"/>
  <path id="Path_34274" data-name="Path 34274" d="M25.4,15.56l-.79.546h-.07L0,33.49l1.068-7.351a3.484,3.484,0,0,1,.163-.778.987.987,0,0,1,.1-.348,6.073,6.073,0,0,1,.267-.7,4.645,4.645,0,0,1,.29-.523,1.637,1.637,0,0,1,.232-.348,2.5,2.5,0,0,1,.2-.232c.116-.139.221-.279.337-.395a6.968,6.968,0,0,1,.941-.836l8.257-5.806h.07l.778-.546Z" transform="translate(0 2.51)" opacity="0.2"/>
  <path id="Path_34275" data-name="Path 34275" d="M0,33.49S10.452,17.964,12.693,15.56A210.192,210.192,0,0,1,0,33.49Z" transform="translate(0 2.51)" fill="#50e2b6"/>
  <path id="Path_34276" data-name="Path 34276" d="M8.336,15.53l-.825.592-.07.046L1.45,20.407l.894-4.239.012-.046.116-.592Z" transform="translate(0.234 2.505)" opacity="0.2"/>
  <path id="Path_34277" data-name="Path 34277" d="M23.635,15.581l-1.556.36a8.129,8.129,0,0,1-1.87.221H14.3a8.126,8.126,0,0,1-1.926-.232l-1.441-.349,1.44-.348A8.129,8.129,0,0,1,14.3,15h5.911a8.13,8.13,0,0,1,1.87.221Z" transform="translate(1.763 2.419)" fill="url(#linear-gradient-3)"/>
  <path id="Path_34278" data-name="Path 34278" d="M28.65,6.76h8.129c6.526,0,11.032,4.378,11.032,10.092h0c0,5.714-4.506,10.15-11.032,10.15H28.65Zm8.129,16.258a5.806,5.806,0,0,0,6.213-6.05h0a5.9,5.9,0,0,0-6.259-6.12H33.249V23.03Z" transform="translate(4.621 1.09)"/>
  <path id="Path_34279" data-name="Path 34279" d="M48.61,6.76H64.264v3.972H53.151v4.123h9.79v3.972h-9.79v4.262H64.415v3.972H48.61Z" transform="translate(7.84 1.09)"/>
  <path id="Path_34280" data-name="Path 34280" d="M64.49,24.118l2.694-3.124a9.639,9.639,0,0,0,6.2,2.462c1.87,0,3-.72,3-1.916h0c0-1.161-.708-1.707-4.181-2.578-4.181-1.045-6.875-2.172-6.875-6.2h0c0-3.681,3.019-6.12,7.27-6.12a12.182,12.182,0,0,1,7.711,2.578l-2.323,3.368a9.871,9.871,0,0,0-5.4-2c-1.754,0-2.671.778-2.671,1.765h0c0,1.335.894,1.765,4.483,2.671,4.215,1.068,6.585,2.555,6.585,6.085h0c0,4.03-3.147,6.294-7.618,6.294a13.378,13.378,0,0,1-8.872-3.286Z" transform="translate(10.402 1.071)"/>
  <path id="Path_34281" data-name="Path 34281" d="M82.23,6.76h4.564v20.3H82.23Z" transform="translate(13.263 1.09)"/>
  <path id="Path_34282" data-name="Path 34282" d="M89.83,17h0A10.545,10.545,0,0,1,100.711,6.552a11.613,11.613,0,0,1,8.129,2.787l-2.88,3.391a7.734,7.734,0,0,0-5.4-2.172A6.155,6.155,0,0,0,94.6,16.876h0a6.143,6.143,0,0,0,6.294,6.457,7.4,7.4,0,0,0,4.3-1.161v-2.9h-4.645V15.413h9.012v8.814a13.645,13.645,0,0,1-8.861,3.217C94.278,27.444,89.83,23.007,89.83,17Z" transform="translate(14.489 1.055)"/>
  <path id="Path_34283" data-name="Path 34283" d="M110.63,6.76h4.215l9.72,12.5V6.76h4.506v20.3h-3.879l-10.057-12.9v12.9H110.63Z" transform="translate(17.844 1.09)"/>
  <path id="Path_34284" data-name="Path 34284" d="M130.8,6.762h9.523a8.385,8.385,0,0,1,6.05,2.055,6.294,6.294,0,0,1,1.777,4.645h0a6.318,6.318,0,0,1-4.483,6.352l5.075,7.246H143.4l-4.448-6.492h-3.588v6.492H130.8Zm9.186,9.859c2.218,0,3.484-1.161,3.484-2.868h0c0-1.916-1.359-2.9-3.588-2.9h-4.541v5.806Z" transform="translate(21.097 1.088)" fill="url(#linear-gradient-4)"/>
  <path id="Path_34285" data-name="Path 34285" d="M149,18.363V6.75h4.564V18.235c0,3.31,1.7,5.017,4.483,5.017s4.483-1.649,4.483-4.866V6.773h4.564v11.45c0,6.143-3.484,9.163-9.1,9.163S149,24.332,149,18.363Z" transform="translate(24.032 1.089)" fill="url(#linear-gradient-5)"/>
  <path id="Path_34286" data-name="Path 34286" d="M167.32,24.123,170.026,21a9.639,9.639,0,0,0,6.213,2.427c1.87,0,3-.72,3-1.916h0c0-1.161-.708-1.707-4.181-2.578-4.181-1.045-6.875-2.172-6.875-6.2h0c0-3.681,3.019-6.12,7.27-6.12a12.182,12.182,0,0,1,7.711,2.578l-2.323,3.368a9.871,9.871,0,0,0-5.4-2c-1.754,0-2.671.778-2.671,1.765h0c0,1.335.894,1.765,4.483,2.671,4.215,1.068,6.585,2.555,6.585,6.085h0c0,4.03-3.147,6.294-7.618,6.294a13.378,13.378,0,0,1-8.9-3.252Z" transform="translate(26.987 1.066)" fill="url(#linear-gradient-6)"/>
  <path id="Path_34287" data-name="Path 34287" d="M184.89,6.76h4.564V14.8h8.419V6.76h4.564v20.3h-4.564V18.93h-8.419v8.129H184.89Z" transform="translate(29.821 1.09)" fill="url(#linear-gradient-7)"/>
</svg>
