<svg xmlns="http://www.w3.org/2000/svg" width="31.926" height="43.868" viewBox="0 0 31.926 43.868">
  <g id="Firebase_Logo" transform="translate(-23.781 -5.97)">
    <path id="Path_38699" data-name="Path 38699" d="M23.833,41.364l5.4-34.551A1,1,0,0,1,31.1,6.5l5.584,10.415,2.226-4.238a1,1,0,0,1,1.765,0l15.069,28.69H23.833Z" transform="translate(-0.035)" fill="#ffa000"/>
    <path id="Path_38700" data-name="Path 38700" d="M42.487,49.646l-5.808-11L23.833,63.1Z" transform="translate(-0.035 -21.74)" fill="#f57c00"/>
    <path id="Path_38701" data-name="Path 38701" d="M55.742,59.2,51.606,33.607a1,1,0,0,0-1.688-.539L23.833,59.2l14.434,8.094a2.991,2.991,0,0,0,2.917,0L55.742,59.2Z" transform="translate(-0.035 -17.835)" fill="#ffca28"/>
    <path id="Path_38702" data-name="Path 38702" d="M51.571,15.774a1,1,0,0,0-1.688-.539l-5.177,5.19-4.071-7.75a1,1,0,0,0-1.765,0l-2.226,4.238L31.06,6.5a1,1,0,0,0-1.865.319L23.8,41.365h-.017l.017.02.142.07L49.876,15.49a1,1,0,0,1,1.69.538l4.1,25.362.04-.025L51.571,15.774ZM23.846,41.318,29.2,7.061a1,1,0,0,1,1.865-.319l5.584,10.415,2.226-4.238a1,1,0,0,1,1.765,0l3.989,7.586L23.846,41.318Z" transform="translate(0 -0.001)" fill="rgba(255,255,255,0.2)"/>
    <path id="Path_38703" data-name="Path 38703" d="M41.183,119.113a2.991,2.991,0,0,1-2.917,0l-14.4-8.072-.035.222,14.434,8.092a2.991,2.991,0,0,0,2.917,0l14.558-8.092-.037-.229-14.521,8.079Z" transform="translate(-0.035 -69.899)" fill="#a52714" opacity="0.2"/>
  </g>
</svg>
