<svg id="Component_84_1" data-name="Component 84 – 1" xmlns="http://www.w3.org/2000/svg" width="48" height="48" viewBox="0 0 48 48">
  <g id="noun-talent-4104007">
    <path id="Path_16730" data-name="Path 16730" d="M107.65,36.553a15.431,15.431,0,0,0-4.137-20.067,7.567,7.567,0,0,0-3.8-6.5,9.474,9.474,0,0,0-4.695-1.247h-1.58a9.474,9.474,0,0,0-4.695,1.247,7.567,7.567,0,0,0-3.8,6.5,15.472,15.472,0,0,0,4.053,26.945L87.584,45.9H81.065a2.322,2.322,0,0,0-2.323,2.323v6.194a2.322,2.322,0,0,0,2.323,2.323h20.129a2.322,2.322,0,0,0,2.323-2.323V48.223a2.322,2.322,0,0,0-2.323-2.323H94.675l-.893-1.562c.148,0,.3.014.444.014a15.36,15.36,0,0,0,7.684-2.06L115.168,55.55a4.059,4.059,0,0,0,5.741-5.74ZM89.51,11.331a7.93,7.93,0,0,1,3.927-1.043h1.58a7.931,7.931,0,0,1,3.927,1.043,5.977,5.977,0,0,1,2.251,8.139v-.807a5.4,5.4,0,0,0-.91-3.006L99.516,14.5a.774.774,0,0,0-1.109-.19l-1.032.774a7.006,7.006,0,0,1-4.181,1.394H91.13a3.876,3.876,0,0,0-3.794,3.111,5.966,5.966,0,0,1,2.174-8.261Zm1.62,16.8v2.4l-1.244.207a7.239,7.239,0,0,0-4.026,2.138,9.231,9.231,0,0,1,1.445-10.2,6.974,6.974,0,0,0,3.825,5.453Zm1.548.556a6.763,6.763,0,0,0,3.1,0v2.06a3.4,3.4,0,0,1-3.1,0Zm1.548-1.369A5.426,5.426,0,0,1,88.807,21.9V20.352A2.322,2.322,0,0,1,91.13,18.03h2.065a8.574,8.574,0,0,0,5.11-1.7l.376-.283.314.471a3.857,3.857,0,0,1,.651,2.148V21.9a5.426,5.426,0,0,1-5.419,5.419ZM90.14,32.27,91.766,32a4.846,4.846,0,0,0,4.924,0l1.626.271a5.7,5.7,0,0,1,3.455,2,9.261,9.261,0,0,1-15.083,0,5.7,5.7,0,0,1,3.453-2Zm12.453.611a7.238,7.238,0,0,0-4.026-2.138l-1.243-.207v-2.4a6.974,6.974,0,0,0,3.825-5.453,9.231,9.231,0,0,1,1.444,10.2Zm-1.4,14.568a.774.774,0,0,1,.774.774v6.194a.774.774,0,0,1-.774.774H81.065a.774.774,0,0,1-.774-.774V48.223a.774.774,0,0,1,.774-.774h6.968a.774.774,0,0,0,.672-.387l2.425-4.246,2.425,4.243a.773.773,0,0,0,.672.39Zm-8.33-4.718L91.8,40.873a.805.805,0,0,0-1.344,0l-.683,1.194h0A13.921,13.921,0,0,1,85.148,18.3a7.589,7.589,0,0,0,1.3,2.772l.114.155h0a10.839,10.839,0,1,0,15.329,0l.114-.155a7.59,7.59,0,0,0,1.3-2.772,13.93,13.93,0,0,1-9.076,24.5c-.454,0-.91-.029-1.362-.073Zm25.174,12.46a2.49,2.49,0,0,1-1.775-.735L103.24,41.433a15.564,15.564,0,0,0,3.551-3.551L119.813,50.9a2.511,2.511,0,0,1-1.774,4.286Z" transform="translate(-78.743 -8.739)" fill="#fff"/>
    <path id="Path_16731" data-name="Path 16731" d="M423.774,18.625l-1.424,4.981a.774.774,0,0,0,1.239.807l4.151-3.459,4.148,3.458a.774.774,0,0,0,1.239-.807L431.7,18.624l3.549-3.549h0a.774.774,0,0,0-.545-1.32h-4.166l-2.105-4.217a.807.807,0,0,0-1.386,0l-2.111,4.217h-4.168a.774.774,0,0,0-.547,1.322Zm1.644-3.322a.774.774,0,0,0,.7-.428l1.626-3.26,1.63,3.26h0a.775.775,0,0,0,.693.428h2.776l-2.549,2.549h0a.775.775,0,0,0-.2.76l.858,3-2.71-2.262a.774.774,0,0,0-.992,0l-2.715,2.262.858-3a.775.775,0,0,0-.2-.76L422.641,15.3Z" transform="translate(-389.804 -9.108)" fill="#fff"/>
    <path id="Path_16732" data-name="Path 16732" d="M461.673,189.231a.774.774,0,0,0-.716-.478h-4.166l-2.105-4.217a.807.807,0,0,0-1.386,0l-2.111,4.217h-4.168a.774.774,0,0,0-.548,1.322l3.549,3.549L448.6,198.6a.774.774,0,0,0,1.239.807l4.151-3.459,4.148,3.458a.774.774,0,0,0,1.239-.807l-1.423-4.982,3.549-3.549h0a.774.774,0,0,0,.171-.842Zm-5.134,3.62a.775.775,0,0,0-.2.76l.858,3-2.71-2.262a.774.774,0,0,0-.992,0l-2.715,2.262.858-3a.774.774,0,0,0-.2-.76L448.89,190.3h2.776a.774.774,0,0,0,.7-.428l1.626-3.26,1.63,3.26h0a.775.775,0,0,0,.693.428h2.776Z" transform="translate(-413.731 -168.623)" fill="#fff"/>
    <path id="Path_16733" data-name="Path 16733" d="M113.75,498.75h18.581V500.3H113.75Z" transform="translate(-110.653 -455.394)" fill="#fff"/>
    <path id="Path_16734" data-name="Path 16734" d="M131.25,463.75h15.484V465.3H131.25Z" transform="translate(-126.604 -423.491)" fill="#fff"/>
  </g>
</svg>
