<svg id="Component_83_1" data-name="Component 83 – 1" xmlns="http://www.w3.org/2000/svg" width="48" height="49.188" viewBox="0 0 48 49.188">
  <g id="noun-developers-969517">
    <path id="Path_16735" data-name="Path 16735" d="M300.507,91.167a5.577,5.577,0,1,0,3.05,2.985,5.583,5.583,0,0,0-3.05-2.985Zm1.565,6.638a3.926,3.926,0,1,1-.032-3,3.9,3.9,0,0,1,.032,3Z" transform="translate(-274.428 -84.639)" fill="#fff"/>
    <path id="Path_16736" data-name="Path 16736" d="M248.481,49.335l.6-.476a11.652,11.652,0,0,0,2.022-2.065l.465-.61-.574-.508a2.241,2.241,0,0,1,1.574-3.921l.765.029.087-.761a11.642,11.642,0,0,0-.032-2.89l-.1-.759-.764.047a2.242,2.242,0,0,1-1.66-3.886l.562-.52-.476-.6a11.652,11.652,0,0,0-2.065-2.022l-.61-.465-.508.574a2.241,2.241,0,0,1-3.921-1.574l.029-.765-.761-.087a11.641,11.641,0,0,0-2.89.032l-.759.1.047.764a2.242,2.242,0,0,1-3.886,1.66l-.519-.563-.6.476a11.652,11.652,0,0,0-2.022,2.065l-.465.61.574.508a2.241,2.241,0,0,1-1.574,3.921l-.765-.029-.087.761a11.64,11.64,0,0,0,.032,2.89l.1.759.765-.047a2.242,2.242,0,0,1,1.659,3.886l-.562.52.476.6a11.651,11.651,0,0,0,2.065,2.022l.61.465.508-.574a2.241,2.241,0,0,1,3.921,1.574l-.029.765.761.087a11.623,11.623,0,0,0,2.89-.032l.759-.1-.047-.764a2.242,2.242,0,0,1,3.886-1.66Zm-3.7-2.623a3.907,3.907,0,0,0-2.323,3.021,10.285,10.285,0,0,1-1.122.013,3.89,3.89,0,0,0-6.166-2.476,10.244,10.244,0,0,1-.8-.785,3.89,3.89,0,0,0-2.609-6.111,10.1,10.1,0,0,1-.013-1.122,3.89,3.89,0,0,0,2.476-6.166,10.249,10.249,0,0,1,.785-.8,3.89,3.89,0,0,0,6.111-2.609,10.19,10.19,0,0,1,1.122-.013,3.89,3.89,0,0,0,6.166,2.476,10.25,10.25,0,0,1,.8.785,3.89,3.89,0,0,0,2.609,6.111,10.1,10.1,0,0,1,.013,1.122,3.89,3.89,0,0,0-2.476,6.166,10.116,10.116,0,0,1-.785.8A3.9,3.9,0,0,0,244.785,46.712Z" transform="translate(-217.793 -28)" fill="#fff"/>
    <path id="Path_16737" data-name="Path 16737" d="M297.668,302.33a5.66,5.66,0,1,0,5.66,5.66A5.66,5.66,0,0,0,297.668,302.33Zm0,9.669a4.009,4.009,0,1,1,4.009-4.009A4.013,4.013,0,0,1,297.668,312Z" transform="translate(-273.668 -275.557)" fill="#fff"/>
    <path id="Path_16738" data-name="Path 16738" d="M153.322,328.475a5.291,5.291,0,1,0-5.291-5.291A5.292,5.292,0,0,0,153.322,328.475Zm0-8.932a3.64,3.64,0,1,1-3.64,3.64A3.644,3.644,0,0,1,153.322,319.543Z" transform="translate(-143.743 -289.6)" fill="#fff"/>
    <path id="Path_16739" data-name="Path 16739" d="M142.509,427.677a9.547,9.547,0,0,0-6.759,2.792,10.214,10.214,0,0,0-15.322,0,9.578,9.578,0,0,0-16.338,6.787h48a9.581,9.581,0,0,0-9.581-9.58Zm-24.521,7.928H105.915a7.918,7.918,0,0,1,13.506-3.792,10.163,10.163,0,0,0-1.432,3.792Zm16.766,0h-15.1a8.6,8.6,0,0,1,16.872,0Zm3.437,0a10.159,10.159,0,0,0-1.432-3.792,7.918,7.918,0,0,1,13.506,3.792Z" transform="translate(-104.09 -388.07)" fill="#fff"/>
    <path id="Path_16740" data-name="Path 16740" d="M448.822,328.475a5.291,5.291,0,1,0-5.291-5.291A5.292,5.292,0,0,0,448.822,328.475Zm0-8.932a3.64,3.64,0,1,1-3.64,3.64A3.644,3.644,0,0,1,448.822,319.543Z" transform="translate(-410.403 -289.6)" fill="#fff"/>
  </g>
</svg>
