<svg xmlns="http://www.w3.org/2000/svg" width="215.01" height="32.072" viewBox="0 0 215.01 32.072">
  <path id="Shape" d="M-113.413,247.052s-1.792-.179-1.792,1.4v7.06h11.754v2.114a1,1,0,0,1-1.075,1.039H-115.2v9.174h12.829s7.776-1.183,7.848-9.174V247.052ZM-94.886,235.8h-23.149c-8.385,1.971-8.565,8.851-8.565,8.851v23.221h8.887V246.73a2.186,2.186,0,0,1,1.792-2.114h21l.036-8.815Zm30.567,25.407c-.609.394-1.075.717-1.4.9a23.477,23.477,0,0,1-3.225,1.684,10.307,10.307,0,0,1-3.942.9,14.077,14.077,0,0,1-10-3.691,12.127,12.127,0,0,1-4.014-9.317,13.512,13.512,0,0,1,3.619-9.425,11.42,11.42,0,0,1,8.78-3.978,15.109,15.109,0,0,1,4.551.753,13.081,13.081,0,0,1,5.089,2.9l-2.293,2.544a8.629,8.629,0,0,0-3.727-2.078,13.133,13.133,0,0,0-3.691-.5,7.717,7.717,0,0,0-6.092,2.9,10.64,10.64,0,0,0-2.437,6.988,8.765,8.765,0,0,0,2.8,6.665,9.947,9.947,0,0,0,7.1,2.652,7.42,7.42,0,0,0,3.655-1.111c1.039-.788,1.577-1.183,1.577-1.183v-5.59H-75.75l1.111-3.476h10.32Zm23.4-6.809a9.752,9.752,0,0,1-2.867,6.988,9.467,9.467,0,0,1-7.1,2.974,9.44,9.44,0,0,1-6.844-2.9,9.445,9.445,0,0,1-2.938-7.024,10,10,0,0,1,2.8-7.059A8.944,8.944,0,0,1-51.06,244.4a9.828,9.828,0,0,1,7.274,2.867A9.613,9.613,0,0,1-40.919,254.4Zm-3.619.072a6.38,6.38,0,0,0-1.828-4.623,5.955,5.955,0,0,0-4.551-1.9,5.663,5.663,0,0,0-4.336,1.971,6.467,6.467,0,0,0-1.792,4.479,6.366,6.366,0,0,0,1.792,4.515,5.927,5.927,0,0,0,4.479,1.9,5.806,5.806,0,0,0,4.336-1.863,6.131,6.131,0,0,0,1.9-4.479Zm26.733-.072a9.752,9.752,0,0,1-2.867,6.988,9.467,9.467,0,0,1-7.1,2.974,9.44,9.44,0,0,1-6.844-2.9,9.445,9.445,0,0,1-2.938-7.024,10,10,0,0,1,2.8-7.059,8.944,8.944,0,0,1,6.809-2.974,9.828,9.828,0,0,1,7.275,2.867A9.613,9.613,0,0,1-17.805,254.4Zm-3.655.072a6.38,6.38,0,0,0-1.828-4.623,5.955,5.955,0,0,0-4.551-1.9,5.663,5.663,0,0,0-4.336,1.971,6.467,6.467,0,0,0-1.792,4.479,6.366,6.366,0,0,0,1.792,4.515,5.927,5.927,0,0,0,4.479,1.9,5.806,5.806,0,0,0,4.336-1.863,6.131,6.131,0,0,0,1.9-4.479Zm25.013,9.353-3.333.5V261.1l-.717.824a9.332,9.332,0,0,1-2.114,1.469,8.447,8.447,0,0,1-3.619.788,8.787,8.787,0,0,1-6.629-2.867,9.758,9.758,0,0,1-2.723-6.88,10.033,10.033,0,0,1,2.688-7.059,8.46,8.46,0,0,1,6.558-2.938,9.689,9.689,0,0,1,3.87.717,6.715,6.715,0,0,1,2.007,1.4c.179.251.358.5.573.753V238.81l3.548-.5ZM.435,254.649a6.539,6.539,0,0,0-1.935-4.8,6,6,0,0,0-4.444-1.971,5.739,5.739,0,0,0-4.479,1.863,6.28,6.28,0,0,0-1.613,4.372,7.006,7.006,0,0,0,1.684,4.8,5.392,5.392,0,0,0,4.264,1.863,6.58,6.58,0,0,0,4.515-1.756,5.664,5.664,0,0,0,2.007-4.372Zm21.9-12.327H12.368v6.773h7.74v3.476h-7.74v11.216l-3.87.573V238.81h13.08Zm7.991-1.971-2.4,3.01-2.293-3.01,2.4-2.974ZM29.6,263.823l-3.548.5V245.4l3.548-.538v18.957Zm16.054-19.172-1.684,3.87a4.112,4.112,0,0,0-.681-.036,10.135,10.135,0,0,0-1.039.072,2.972,2.972,0,0,0-1.111.394,4.245,4.245,0,0,0-1.935,2.078,8.706,8.706,0,0,0-.932,3.906v8.851l-3.548.573V245.4l3.3-.609v3.942c.43-.681.86-1.362,1.29-2.078a5.456,5.456,0,0,1,2.114-1.541,9.384,9.384,0,0,1,2.365-.394A14.25,14.25,0,0,1,45.659,244.651Zm26.518,19.172-3.548.5V251.352a3.629,3.629,0,0,0-.788-2.616,3.212,3.212,0,0,0-2.365-.824,3.1,3.1,0,0,0-2.831,1.541,4.344,4.344,0,0,0-.681,2.222v12.076l-3.548.645V251.388a3.807,3.807,0,0,0-.788-2.616,2.637,2.637,0,0,0-2.114-.9h-.358a2.834,2.834,0,0,0-2.723,1.577,6.244,6.244,0,0,0-.645,3.01v11.252l-3.691.645V245.332l3.333-.573V247.2a7.837,7.837,0,0,1,1.075-1.362,4.745,4.745,0,0,1,3.333-1.326,5.807,5.807,0,0,1,3.153.681,6.313,6.313,0,0,1,1.792,2.222,5.806,5.806,0,0,1,5.232-2.9,5.737,5.737,0,0,1,4.874,2.078,8.3,8.3,0,0,1,1.29,5.017Zm16.233-5.734a5.554,5.554,0,0,1-1.828,4.3,6.452,6.452,0,0,1-4.623,1.684,7.582,7.582,0,0,1-3.8-.968,6.9,6.9,0,0,1-2.544-2.258l2.508-2.222a3.681,3.681,0,0,0,.5.645,4.45,4.45,0,0,0,3.333,1.433,3.017,3.017,0,0,0,2.114-.717,2.441,2.441,0,0,0,.788-1.971c0-.968-.609-1.613-1.828-1.971-2.4-.717-3.727-1.147-3.906-1.218a6.733,6.733,0,0,1-2.4-1.863,5.223,5.223,0,0,1-.86-3.153,5.35,5.35,0,0,1,1.792-4.085,6.139,6.139,0,0,1,4.264-1.613,7.24,7.24,0,0,1,3.476.86,6.248,6.248,0,0,1,2.293,1.863l-2.114,2.293a7.785,7.785,0,0,0-1.039-.86,4.27,4.27,0,0,0-2.437-.9,3.15,3.15,0,0,0-1.828.5,2.041,2.041,0,0,0-.86,1.792,1.829,1.829,0,0,0,.824,1.684,11.854,11.854,0,0,0,3.082.968,7.31,7.31,0,0,1,3.691,1.971A5,5,0,0,1,88.41,258.089Z" transform="translate(126.6 -235.8)" fill="#3a7af3"/>
</svg>
