<svg id="Google-Logo.wine" xmlns="http://www.w3.org/2000/svg" width="127.59" height="42" viewBox="0 0 127.59 42">
  <path id="Path_34288" data-name="Path 34288" d="M91.947,35.025a10.528,10.528,0,1,1-10.528-10.5A10.366,10.366,0,0,1,91.947,35.025Zm-4.609,0a5.935,5.935,0,1,0-11.839,0,5.935,5.935,0,1,0,11.839,0Z" transform="translate(-37.346 -12.923)" fill="#ea4335"/>
  <path id="Path_34289" data-name="Path 34289" d="M139.947,35.025a10.528,10.528,0,1,1-10.528-10.5A10.366,10.366,0,0,1,139.947,35.025Zm-4.609,0a5.935,5.935,0,1,0-11.839,0,5.935,5.935,0,1,0,11.839,0Z" transform="translate(-62.633 -12.923)" fill="#fbbc05"/>
  <path id="Path_34290" data-name="Path 34290" d="M186.99,25.164V44.006c0,7.751-4.571,10.916-9.975,10.916a9.994,9.994,0,0,1-9.3-6.185l4.013-1.67a5.8,5.8,0,0,0,5.285,3.724c3.459,0,5.6-2.134,5.6-6.151V43.131h-.161a7.146,7.146,0,0,1-5.527,2.385,10.5,10.5,0,0,1,0-20.986,7.273,7.273,0,0,1,5.527,2.347h.161V25.169h4.377Zm-4.05,9.9c0-3.7-2.465-6.4-5.6-6.4-3.18,0-5.844,2.7-5.844,6.4a6.024,6.024,0,0,0,5.844,6.322C180.474,41.385,182.939,38.721,182.939,35.063Z" transform="translate(-87.909 -12.923)" fill="#4285f4"/>
  <path id="Path_34291" data-name="Path 34291" d="M219.635,2.53V33.287h-4.5V2.53Z" transform="translate(-113.339 -1.333)" fill="#34a853"/>
  <path id="Path_34292" data-name="Path 34292" d="M244.312,38.474l3.577,2.385a10.447,10.447,0,0,1-8.744,4.651,10.269,10.269,0,0,1-10.415-10.5c0-6.241,4.491-10.5,9.9-10.5,5.446,0,8.11,4.334,8.981,6.677l.478,1.192L234.058,38.2a5.341,5.341,0,0,0,5.087,3.18A5.99,5.99,0,0,0,244.312,38.474ZM233.3,34.7,242.68,30.8a4.063,4.063,0,0,0-3.894-2.224A5.757,5.757,0,0,0,233.3,34.7Z" transform="translate(-120.498 -12.917)" fill="#ea4335"/>
  <path id="Path_34293" data-name="Path 34293" d="M16.528,19.372V14.92h15a14.754,14.754,0,0,1,.222,2.688c0,3.341-.913,7.472-3.856,10.415a14.9,14.9,0,0,1-11.366,4.571A16.525,16.525,0,0,1,0,16.3,16.525,16.525,0,0,1,16.533,0,15.528,15.528,0,0,1,27.7,4.491L24.558,7.632a11.35,11.35,0,0,0-8.03-3.18A11.69,11.69,0,0,0,4.841,16.3,11.69,11.69,0,0,0,16.528,28.14a10.9,10.9,0,0,0,8.229-3.26,9.229,9.229,0,0,0,2.413-5.513Z" fill="#4285f4"/>
</svg>
