<svg xmlns="http://www.w3.org/2000/svg" width="40.411" height="41.601" viewBox="0 0 40.411 41.601">
  <path id="Laravel" d="M40.388,9.411a.658.658,0,0,1,.023.17v8.93a.651.651,0,0,1-.327.565l-7.495,4.315v8.553a.653.653,0,0,1-.326.565L16.619,41.514a.7.7,0,0,1-.114.047c-.015,0-.028.014-.044.018a.655.655,0,0,1-.334,0c-.018,0-.034-.015-.051-.021a.677.677,0,0,1-.107-.044L.327,32.508A.652.652,0,0,1,0,31.944V5.155a.666.666,0,0,1,.023-.171c0-.019.016-.036.023-.055a.642.642,0,0,1,.042-.1.609.609,0,0,1,.045-.058A.663.663,0,0,1,.19,4.7a.636.636,0,0,1,.064-.049A.531.531,0,0,1,.326,4.59h0L8.147.087a.653.653,0,0,1,.651,0l7.821,4.5h0a.8.8,0,0,1,.072.055.77.77,0,0,1,.063.049.762.762,0,0,1,.059.077.6.6,0,0,1,.044.058.679.679,0,0,1,.042.1c.007.019.018.036.023.055a.658.658,0,0,1,.023.17V21.887l6.517-3.753V9.581a.658.658,0,0,1,.023-.169c.006-.02.016-.037.023-.055a.734.734,0,0,1,.042-.1c.012-.021.03-.038.044-.058a.67.67,0,0,1,.059-.076.625.625,0,0,1,.063-.049.657.657,0,0,1,.072-.056h0l7.822-4.5a.652.652,0,0,1,.651,0l7.821,4.5a.719.719,0,0,1,.073.055c.02.016.044.031.063.049a.762.762,0,0,1,.059.077.492.492,0,0,1,.044.058.645.645,0,0,1,.042.1.465.465,0,0,1,.023.055Zm-1.281,8.723V10.709L36.37,12.284l-3.781,2.177v7.426l6.519-3.753ZM31.286,31.567v-7.43l-3.719,2.124L16.946,32.322v7.5l14.34-8.256ZM1.3,6.282V31.567l14.338,8.255v-7.5L8.152,28.084l0,0,0,0a30.648,30.648,0,0,0-.132-.1l0,0a.62.62,0,0,1-.054-.068.7.7,0,0,1-.049-.063v0a.519.519,0,0,1-.034-.081.482.482,0,0,1-.031-.073h0a.623.623,0,0,1-.013-.1.565.565,0,0,1-.01-.073V10.035L4.041,7.857,1.3,6.283ZM8.474,1.4,1.957,5.155,8.472,8.906l6.516-3.752L8.472,1.4Zm3.389,23.41,3.78-2.176V6.282L12.906,7.858,9.125,10.035V26.39l2.738-1.576ZM31.938,5.83,25.422,9.581l6.516,3.751,6.515-3.752Zm-.652,8.631L27.5,12.284l-2.737-1.576v7.426l3.78,2.176,2.738,1.576V14.461ZM16.293,31.195l9.557-5.456,4.777-2.726-6.511-3.749-7.5,4.316L9.788,27.513l6.505,3.682Z" transform="translate(0 0)" fill="#ff2d20" fill-rule="evenodd"/>
</svg>
