<svg xmlns="http://www.w3.org/2000/svg" width="34.102" height="38.447" viewBox="0 0 34.102 38.447">
  <path id="nodejs-logo" d="M15.569,38.052l-4.7-2.784c-.7-.391-.36-.532-.125-.615a9.257,9.257,0,0,0,2.128-.97.366.366,0,0,1,.349.026l3.613,2.148a.463.463,0,0,0,.438,0l14.088-8.135a.44.44,0,0,0,.214-.381V11.083a.443.443,0,0,0-.219-.386L17.264,2.575a.429.429,0,0,0-.433,0L2.753,10.7a.452.452,0,0,0-.224.386V27.349a.429.429,0,0,0,.224.376l3.858,2.232c2.1,1.048,3.379-.188,3.379-1.423V12.477a.405.405,0,0,1,.412-.407h1.788a.4.4,0,0,1,.407.407V28.531c0,2.8-1.523,4.4-4.171,4.4a6.028,6.028,0,0,1-3.243-.88l-3.7-2.129A2.965,2.965,0,0,1,0,27.347V11.085A2.957,2.957,0,0,1,1.475,8.519L15.569.38a3.08,3.08,0,0,1,2.96,0L32.619,8.519A2.974,2.974,0,0,1,34.1,11.085V27.344a2.983,2.983,0,0,1-1.482,2.57L18.529,38.046a2.949,2.949,0,0,1-2.962.006ZM13.943,22.039a.407.407,0,0,1,.407-.407h1.82a.409.409,0,0,1,.406.344c.278,1.856,1.1,2.79,4.823,2.79,2.965,0,4.234-.673,4.234-2.247,0-.907-.36-1.58-4.969-2.034-3.854-.381-6.241-1.231-6.241-4.319,0-2.841,2.4-4.536,6.413-4.536,4.515,0,6.747,1.564,7.029,4.927a.407.407,0,0,1-.11.313.425.425,0,0,1-.3.131h-1.83a.412.412,0,0,1-.4-.318c-.438-1.95-1.507-2.576-4.4-2.576-3.243,0-3.619,1.132-3.619,1.976,0,1.027.443,1.324,4.817,1.9,4.328.573,6.387,1.382,6.387,4.427.006,3.071-2.555,4.828-7.018,4.828C15.235,27.243,13.943,24.412,13.943,22.039Z" transform="translate(0 -0.001)" fill="#679e63"/>
</svg>
