<svg xmlns="http://www.w3.org/2000/svg" xmlns:xlink="http://www.w3.org/1999/xlink" width="118.959" height="118.959" viewBox="0 0 118.959 118.959">
  <defs>
    <filter id="Rectangle_14215" x="0" y="0" width="118.959" height="118.959" filterUnits="userSpaceOnUse">
      <feOffset input="SourceAlpha"/>
      <feGaussianBlur stdDeviation="5" result="blur"/>
      <feFlood flood-color="#969393" flood-opacity="0.161"/>
      <feComposite operator="in" in2="blur"/>
      <feComposite in="SourceGraphic"/>
    </filter>
    <clipPath id="clip-path">
      <rect id="Rectangle_14217" data-name="Rectangle 14217" width="64" height="59" transform="translate(17.523 57.713)" fill="#2689bf" opacity="0.5"/>
    </clipPath>
  </defs>
  <g id="Group_36417" data-name="Group 36417" transform="translate(-324 -1615)">
    <g transform="matrix(1, 0, 0, 1, 324, 1615)" filter="url(#Rectangle_14215)">
      <rect id="Rectangle_14215-2" data-name="Rectangle 14215" width="88.959" height="88.959" rx="20" transform="translate(15 15)" fill="#fff"/>
    </g>
    <g id="P3_logo" transform="translate(333.477 1587.287)" clip-path="url(#clip-path)">
      <path id="P3_logo-2" data-name="P3_logo" d="M30.834,58.633s-1.2-.374-1.6-.508l-.022-.008A41.171,41.171,0,0,1,13.5,47.639a29.151,29.151,0,0,1-7.24-12.612l-.01-.045q-.341-1.64-.571-3.169L2.013,33.931,0,30.446,31.13,12.46,62.259,30.446l-2.015,3.486-3.669-2.119c-.154,1.02-.341,2.076-.571,3.169l-.01.045a29.131,29.131,0,0,1-7.24,12.612,41.148,41.148,0,0,1-15.7,10.478l-.024.008c-.4.134-1.6.508-1.6.508a1.417,1.417,0,0,1-.295.051A1.391,1.391,0,0,1,30.834,58.633ZM9.084,29.846a35.942,35.942,0,0,0,.786,4.861A26.133,26.133,0,0,0,16.956,46.13a39.516,39.516,0,0,0,14.163,8.905h.02A39.524,39.524,0,0,0,45.3,46.13a26.108,26.108,0,0,0,7.083-11.422,35.94,35.94,0,0,0,.786-4.861L31.13,17.11Zm21.5,16.228.4-.691,3.067-5.3.083-.162,1.7-2.949,2.819,4.894.185.315a.58.58,0,0,0,.252.244,10.464,10.464,0,0,1-7.959,3.663C30.948,46.083,30.771,46.075,30.582,46.075Zm-8.814-5.728h.792l9.7,0-2.813,4.885h-.008l-.177.317a.684.684,0,0,0-.093.345A10.515,10.515,0,0,1,21.768,40.346Zm17.778.258-3.112-5.381L34.7,32.195H40.7a.736.736,0,0,0,.349-.094,10.518,10.518,0,0,1-1.105,9.186ZM20.618,35.571a10.509,10.509,0,0,1,1.69-5.714l.4.681,3.112,5.383,1.737,3.027H21.553a.751.751,0,0,0-.347.091A10.424,10.424,0,0,1,20.618,35.571Zm2.988-6.291-.185-.315a.885.885,0,0,0-.242-.25,10.424,10.424,0,0,1,7.951-3.654c.175,0,.364,0,.54,0l-.394.691L28.193,31.1l-.065.124-1.7,2.943ZM39.7,30.8H29.991l2.822-4.885.242-.418a.54.54,0,0,0,.083-.234A10.518,10.518,0,0,1,40.491,30.8Zm14.067-7.945c.077-1.292.15-2.71.211-4.262.13-3.254.124-4.851.124-7.059V10.5L48.949,8.7l-.006,3.273a.256.256,0,0,1-.1.2.267.267,0,0,1-.228.045L37.1,9.082a.258.258,0,0,1-.191-.248V5.5L31.13,3.975,25.351,5.5V8.834a.256.256,0,0,1-.191.248L13.642,12.225a.263.263,0,0,1-.225-.045.25.25,0,0,1-.1-.2L13.309,8.7,8.156,10.5V11.53c0,2.208,0,3.8.124,7.059.063,1.552.134,2.97.211,4.262L5,24.857c-.059-1.075-.1-2.108-.142-3.108-.047-1.172-.089-2.279-.158-3.378-.065-1.036-.173-4.694-.193-6.85-.037-1.351-.039-2.178-.041-2.287L4.449,8.7a.267.267,0,0,1,.189-.256L15.871,4.061a.27.27,0,0,1,.236.041.273.273,0,0,1,.106.213l-.02,3.214,5.741-1.554V2.7a.261.261,0,0,1,.2-.252L30.95.028a.577.577,0,0,1,.358,0l8.824,2.423a.261.261,0,0,1,.193.252v3.27l5.741,1.554-.018-3.214a.262.262,0,0,1,.106-.213.266.266,0,0,1,.234-.041L57.621,8.446a.265.265,0,0,1,.187.256l-.012.532c0,.11,0,.937-.039,2.287-.022,2.155-.128,5.814-.2,6.85-.067,1.1-.112,2.206-.158,3.378-.041,1-.081,2.033-.142,3.108Z" transform="translate(17.97 57.996)" fill="#2689bf"/>
    </g>
  </g>
</svg>
