<svg xmlns="http://www.w3.org/2000/svg" xmlns:xlink="http://www.w3.org/1999/xlink" width="118.959" height="118.958" viewBox="0 0 118.959 118.958">
  <defs>
    <filter id="Rectangle_14225" x="0" y="0" width="118.959" height="118.958" filterUnits="userSpaceOnUse">
      <feOffset input="SourceAlpha"/>
      <feGaussianBlur stdDeviation="5" result="blur"/>
      <feFlood flood-color="#969393" flood-opacity="0.161"/>
      <feComposite operator="in" in2="blur"/>
      <feComposite in="SourceGraphic"/>
    </filter>
    <clipPath id="clip-path">
      <path id="Path_2124" data-name="Path 2124" d="M618.084,433.35l4.769,2.595a10.747,10.747,0,0,0-2.514-.98,11.478,11.478,0,0,0-4.422-.226l-4.769-2.594a11.478,11.478,0,0,1,4.422.226A10.762,10.762,0,0,1,618.084,433.35Z" transform="translate(-611.148 -432.029)" fill="none"/>
    </clipPath>
    <clipPath id="clip-path-2">
      <path id="Path_2133" data-name="Path 2133" d="M586.03,460.479l-4.769-2.594c-4.884-2.657-7.157-8.9-5.131-15.159a15.825,15.825,0,0,1,2.064-4.165,15.618,15.618,0,0,1,2.207-2.542,13.948,13.948,0,0,1,7.458-3.656l4.769,2.594a13.948,13.948,0,0,0-7.458,3.656,15.615,15.615,0,0,0-2.207,2.541,15.834,15.834,0,0,0-2.064,4.166C578.872,451.58,581.145,457.822,586.03,460.479Z" transform="translate(-575.39 -432.363)" fill="none"/>
    </clipPath>
    <clipPath id="clip-path-3">
      <path id="Path_2138" data-name="Path 2138" d="M621.874,326.486l4.769,2.594a10.753,10.753,0,0,0-2.514-.98,11.488,11.488,0,0,0-4.421-.225l-4.769-2.594a11.489,11.489,0,0,1,4.421.225A10.761,10.761,0,0,1,621.874,326.486Z" transform="translate(-614.939 -325.165)" fill="none"/>
    </clipPath>
    <clipPath id="clip-path-4">
      <path id="Path_2148" data-name="Path 2148" d="M589.818,353.618l-4.769-2.594c-4.886-2.658-7.16-8.9-5.133-15.163A14.992,14.992,0,0,1,591.647,325.5l4.769,2.594a14.992,14.992,0,0,0-11.731,10.362C582.658,344.719,584.932,350.96,589.818,353.618Z" transform="translate(-579.176 -325.499)" fill="none"/>
    </clipPath>
    <clipPath id="clip-path-5">
      <path id="Path_2152" data-name="Path 2152" d="M565.492,383.98a10.756,10.756,0,0,1,2.515.98l4.769,2.595a10.758,10.758,0,0,0-2.515-.98,11.49,11.49,0,0,0-4.421-.225l-4.769-2.594A11.481,11.481,0,0,1,565.492,383.98Z" transform="translate(-561.071 -383.638)" fill="none"/>
    </clipPath>
    <clipPath id="clip-path-6">
      <path id="Path_2161" data-name="Path 2161" d="M526.055,394.334a14.985,14.985,0,0,1,11.729-10.361l4.769,2.594a14.985,14.985,0,0,0-11.728,10.361c-2.027,6.263.244,12.5,5.129,15.161l-4.769-2.595C526.3,406.838,524.028,400.6,526.055,394.334Z" transform="translate(-525.314 -383.973)" fill="none"/>
    </clipPath>
  </defs>
  <g id="Group_36421" data-name="Group 36421" transform="translate(-323 -3142)">
    <g transform="matrix(1, 0, 0, 1, 323, 3142)" filter="url(#Rectangle_14225)">
      <rect id="Rectangle_14225-2" data-name="Rectangle 14225" width="88.959" height="88.959" rx="20" transform="translate(15 15)" fill="#fff"/>
    </g>
    <g id="Group_10325" data-name="Group 10325" transform="translate(-167.314 2842.835)">
      <g id="Group_3669" data-name="Group 3669" transform="translate(525.314 325.165)">
        <g id="Group_3668" data-name="Group 3668" style="mix-blend-mode: normal;isolation: isolate">
          <g id="Group_3649" data-name="Group 3649" transform="translate(29.932 37.265)" style="mix-blend-mode: normal;isolation: isolate">
            <g id="Group_3648" data-name="Group 3648" clip-path="url(#clip-path)">
              <g id="Group_3647" data-name="Group 3647" style="mix-blend-mode: normal;isolation: isolate">
                <path id="Path_2121" data-name="Path 2121" d="M615.917,434.739l-4.769-2.594a11.478,11.478,0,0,1,4.422.226l.066.017,4.769,2.594-.066-.017a11.478,11.478,0,0,0-4.422-.226" transform="translate(-611.148 -432.029)" fill="#377f7a"/>
                <path id="Path_2122" data-name="Path 2122" d="M628.787,435.652l-4.769-2.594a10.805,10.805,0,0,1,2.057.76l4.769,2.595a10.8,10.8,0,0,0-2.057-.761" transform="translate(-619.53 -432.699)" fill="#357c76"/>
                <path id="Path_2123" data-name="Path 2123" d="M634.685,437.832l-4.769-2.594q.2.1.391.2l4.769,2.594q-.193-.105-.391-.2" transform="translate(-623.371 -434.119)" fill="#337873"/>
              </g>
            </g>
          </g>
          <g id="Group_3652" data-name="Group 3652" transform="translate(17.462 37.382)" style="mix-blend-mode: normal;isolation: isolate">
            <g id="Group_3651" data-name="Group 3651" clip-path="url(#clip-path-2)">
              <g id="Group_3650" data-name="Group 3650" style="mix-blend-mode: normal;isolation: isolate">
                <path id="Path_2125" data-name="Path 2125" d="M586.03,478.728l-4.769-2.594c-4.884-2.657-7.157-8.9-5.131-15.159q.1-.3.2-.591l4.769,2.594q-.108.292-.2.591c-2.026,6.26.246,12.5,5.131,15.159" transform="translate(-575.39 -450.612)" fill="#2b6460"/>
                <path id="Path_2126" data-name="Path 2126" d="M582.867,459.167l-4.769-2.594a15.88,15.88,0,0,1,.918-2.04l4.769,2.594a15.882,15.882,0,0,0-.918,2.04" transform="translate(-577.154 -446.802)" fill="#2d6864"/>
                <path id="Path_2127" data-name="Path 2127" d="M585.5,454.16l-4.769-2.594a15.806,15.806,0,0,1,.942-1.534l.038-.055,4.769,2.594-.038.054a15.829,15.829,0,0,0-.942,1.534" transform="translate(-578.868 -443.835)" fill="#2e6c68"/>
                <path id="Path_2128" data-name="Path 2128" d="M588.31,450l-4.769-2.594a15.686,15.686,0,0,1,1.084-1.376l4.769,2.594A15.746,15.746,0,0,0,588.31,450" transform="translate(-580.698 -441.265)" fill="#30706b"/>
                <path id="Path_2129" data-name="Path 2129" d="M591.42,446.273l-4.769-2.594q.517-.586,1.084-1.111l.163-.149,4.769,2.594-.163.149a15.487,15.487,0,0,0-1.084,1.111" transform="translate(-582.724 -438.912)" fill="#32746f"/>
                <path id="Path_2130" data-name="Path 2130" d="M595,442.784l-4.769-2.594A15.08,15.08,0,0,1,591.737,439l4.769,2.594A15.185,15.185,0,0,0,595,442.784" transform="translate(-585.054 -436.683)" fill="#337873"/>
                <path id="Path_2131" data-name="Path 2131" d="M599.323,439.378l-4.769-2.594A14.405,14.405,0,0,1,596.6,435.6l4.769,2.595a14.356,14.356,0,0,0-2.051,1.184" transform="translate(-587.871 -434.471)" fill="#357c76"/>
                <path id="Path_2132" data-name="Path 2132" d="M605.2,436.086l-4.769-2.594a13.032,13.032,0,0,1,3.736-1.128l4.769,2.594a13.03,13.03,0,0,0-3.736,1.129" transform="translate(-591.701 -432.363)" fill="#377f7a"/>
              </g>
            </g>
          </g>
          <g id="Group_3653" data-name="Group 3653" transform="translate(22.231 39.859)">
            <path id="Path_2134" data-name="Path 2134" d="M601.535,439.584a11.476,11.476,0,0,1,4.422.226c6.571,1.66,10,8.886,7.644,16.143a14.982,14.982,0,0,1-11.725,10.359,11.479,11.479,0,0,1-4.424-.226c-6.571-1.656-10-8.886-7.647-16.139a15.837,15.837,0,0,1,2.064-4.166,15.619,15.619,0,0,1,2.207-2.541A13.949,13.949,0,0,1,601.535,439.584Z" transform="translate(-589.065 -439.468)" fill="#48a8a1"/>
          </g>
          <g id="Group_3656" data-name="Group 3656" transform="translate(31.254)" style="mix-blend-mode: normal;isolation: isolate">
            <g id="Group_3655" data-name="Group 3655" clip-path="url(#clip-path-3)">
              <g id="Group_3654" data-name="Group 3654" style="mix-blend-mode: normal;isolation: isolate">
                <path id="Path_2135" data-name="Path 2135" d="M619.708,327.876l-4.769-2.594a11.489,11.489,0,0,1,4.421.225l.066.016,4.769,2.594-.066-.017a11.488,11.488,0,0,0-4.421-.225" transform="translate(-614.939 -325.165)" fill="#377f7a"/>
                <path id="Path_2136" data-name="Path 2136" d="M632.573,328.785l-4.769-2.594a10.824,10.824,0,0,1,2.057.761l4.769,2.594a10.8,10.8,0,0,0-2.057-.761" transform="translate(-623.318 -325.833)" fill="#357c76"/>
                <path id="Path_2137" data-name="Path 2137" d="M638.471,330.966l-4.769-2.594q.2.1.392.2l4.769,2.595q-.193-.105-.392-.2" transform="translate(-627.159 -327.254)" fill="#337873"/>
              </g>
            </g>
          </g>
          <g id="Group_3657" data-name="Group 3657" transform="translate(23.552 2.594)">
            <path id="Path_2139" data-name="Path 2139" d="M605.323,332.721a11.488,11.488,0,0,1,4.421.225c6.571,1.66,10,8.886,7.647,16.143A14.988,14.988,0,0,1,605.66,359.45a11.483,11.483,0,0,1-4.421-.225c-6.571-1.659-9.995-8.886-7.647-16.142A14.992,14.992,0,0,1,605.323,332.721Z" transform="translate(-592.852 -332.605)" fill="#48a8a1"/>
          </g>
          <g id="Group_3660" data-name="Group 3660" transform="translate(18.782 0.116)" style="mix-blend-mode: normal;isolation: isolate">
            <g id="Group_3659" data-name="Group 3659" clip-path="url(#clip-path-4)">
              <g id="Group_3658" data-name="Group 3658" style="mix-blend-mode: normal;isolation: isolate">
                <path id="Path_2140" data-name="Path 2140" d="M589.818,371.892l-4.769-2.594c-4.886-2.658-7.16-8.9-5.133-15.163q.095-.291.2-.577l4.769,2.595q-.1.286-.2.577c-2.027,6.264.247,12.5,5.133,15.162" transform="translate(-579.176 -343.773)" fill="#2b6460"/>
                <path id="Path_2141" data-name="Path 2141" d="M586.639,352.329l-4.769-2.594a15.868,15.868,0,0,1,.92-2.047l4.769,2.594a15.9,15.9,0,0,0-.921,2.048" transform="translate(-580.93 -339.95)" fill="#2d6864"/>
                <path id="Path_2142" data-name="Path 2142" d="M589.278,347.309l-4.769-2.594a15.759,15.759,0,0,1,.981-1.591l4.769,2.594a15.84,15.84,0,0,0-.981,1.591" transform="translate(-582.649 -336.978)" fill="#2e6c68"/>
                <path id="Path_2143" data-name="Path 2143" d="M592.091,343.142l-4.769-2.594a15.7,15.7,0,0,1,1.087-1.38l4.769,2.594a15.66,15.66,0,0,0-1.087,1.38" transform="translate(-584.481 -334.401)" fill="#30706b"/>
                <path id="Path_2144" data-name="Path 2144" d="M595.208,339.408l-4.769-2.594a15.546,15.546,0,0,1,1.248-1.261l4.769,2.595a15.546,15.546,0,0,0-1.248,1.261" transform="translate(-586.511 -332.047)" fill="#32746f"/>
                <path id="Path_2145" data-name="Path 2145" d="M598.788,335.919l-4.769-2.594a15.1,15.1,0,0,1,1.508-1.193l4.769,2.594a15.117,15.117,0,0,0-1.508,1.193" transform="translate(-588.843 -329.819)" fill="#337873"/>
                <path id="Path_2146" data-name="Path 2146" d="M603.112,332.519l-4.769-2.594a14.392,14.392,0,0,1,2.047-1.182l4.769,2.594a14.4,14.4,0,0,0-2.047,1.182" transform="translate(-591.659 -327.611)" fill="#357c76"/>
                <path id="Path_2147" data-name="Path 2147" d="M608.982,329.224l-4.769-2.594a13.04,13.04,0,0,1,3.74-1.131l4.769,2.594a13.03,13.03,0,0,0-3.74,1.131" transform="translate(-595.482 -325.499)" fill="#377f7a"/>
              </g>
            </g>
          </g>
          <g id="Group_3663" data-name="Group 3663" transform="translate(12.469 20.391)" style="mix-blend-mode: normal;isolation: isolate">
            <g id="Group_3662" data-name="Group 3662" clip-path="url(#clip-path-5)">
              <g id="Group_3661" data-name="Group 3661" style="mix-blend-mode: normal;isolation: isolate">
                <path id="Path_2149" data-name="Path 2149" d="M565.84,386.349l-4.769-2.594a11.481,11.481,0,0,1,4.421.225l.067.017,4.769,2.594-.067-.017a11.49,11.49,0,0,0-4.421-.225" transform="translate(-561.071 -383.638)" fill="#377f7a"/>
                <path id="Path_2150" data-name="Path 2150" d="M578.709,387.26l-4.769-2.594a10.81,10.81,0,0,1,2.057.761l4.769,2.594a10.83,10.83,0,0,0-2.057-.761" transform="translate(-569.452 -384.308)" fill="#357c76"/>
                <path id="Path_2151" data-name="Path 2151" d="M584.609,389.441l-4.769-2.594q.2.1.391.2L585,389.644q-.193-.105-.391-.2" transform="translate(-573.295 -385.728)" fill="#337873"/>
              </g>
            </g>
          </g>
          <g id="Group_3666" data-name="Group 3666" transform="translate(0 20.507)" style="mix-blend-mode: normal;isolation: isolate">
            <g id="Group_3665" data-name="Group 3665" clip-path="url(#clip-path-6)">
              <g id="Group_3664" data-name="Group 3664" style="mix-blend-mode: normal;isolation: isolate">
                <path id="Path_2153" data-name="Path 2153" d="M535.952,430.356l-4.769-2.594c-4.884-2.657-7.155-8.9-5.128-15.16q.095-.293.2-.58l4.769,2.594q-.106.287-.2.58c-2.027,6.263.245,12.5,5.128,15.16" transform="translate(-525.314 -402.24)" fill="#2b6460"/>
                <path id="Path_2154" data-name="Path 2154" d="M532.781,410.791l-4.769-2.594a15.824,15.824,0,0,1,.92-2.047l4.769,2.594a15.857,15.857,0,0,0-.92,2.047" transform="translate(-527.071 -398.417)" fill="#2d6864"/>
                <path id="Path_2155" data-name="Path 2155" d="M535.42,405.775l-4.769-2.594a15.75,15.75,0,0,1,.98-1.59l4.769,2.594a15.838,15.838,0,0,0-.98,1.59" transform="translate(-528.79 -395.447)" fill="#2e6c68"/>
                <path id="Path_2156" data-name="Path 2156" d="M538.23,401.61l-4.769-2.595a15.7,15.7,0,0,1,1.087-1.379l4.769,2.594a15.787,15.787,0,0,0-1.087,1.379" transform="translate(-530.62 -392.872)" fill="#30706b"/>
                <path id="Path_2157" data-name="Path 2157" d="M541.346,397.878l-4.769-2.594a15.439,15.439,0,0,1,1.248-1.26l4.769,2.594a15.488,15.488,0,0,0-1.248,1.26" transform="translate(-532.649 -390.519)" fill="#32746f"/>
                <path id="Path_2158" data-name="Path 2158" d="M544.925,394.391l-4.769-2.594a15.033,15.033,0,0,1,1.507-1.193l4.769,2.595a15.055,15.055,0,0,0-1.507,1.192" transform="translate(-534.98 -388.292)" fill="#337873"/>
                <path id="Path_2159" data-name="Path 2159" d="M549.247,390.991l-4.769-2.595a14.361,14.361,0,0,1,2.046-1.182l4.769,2.594a14.386,14.386,0,0,0-2.046,1.182" transform="translate(-537.795 -386.084)" fill="#357c76"/>
                <path id="Path_2160" data-name="Path 2160" d="M555.114,387.7l-4.769-2.594a13.029,13.029,0,0,1,3.74-1.131l4.769,2.594a13.041,13.041,0,0,0-3.74,1.13" transform="translate(-541.616 -383.973)" fill="#377f7a"/>
              </g>
            </g>
          </g>
          <g id="Group_3667" data-name="Group 3667" transform="translate(4.769 22.985)">
            <path id="Path_2162" data-name="Path 2162" d="M551.459,391.194a11.488,11.488,0,0,1,4.421.225c6.574,1.66,9.995,8.886,7.647,16.143a15.83,15.83,0,0,1-2.063,4.163,15.614,15.614,0,0,0-2.207,2.541,13.947,13.947,0,0,1-7.458,3.655,11.487,11.487,0,0,1-4.424-.226c-6.571-1.657-9.993-8.883-7.644-16.14A14.985,14.985,0,0,1,551.459,391.194Z" transform="translate(-538.99 -391.078)" fill="#48a8a1"/>
          </g>
        </g>
      </g>
    </g>
  </g>
</svg>
