<svg id="Component_81_1" data-name="Component 81 – 1" xmlns="http://www.w3.org/2000/svg" width="44.086" height="50.135" viewBox="0 0 44.086 50.135">
  <path id="Path_16789" data-name="Path 16789" d="M40.549,10.251a.484.484,0,0,0-.438-.407c-.182-.015-4.035-.3-4.035-.3S33.4,6.887,33.107,6.593a1.218,1.218,0,0,0-1.091-.139l-1.5.462c-.894-2.573-2.472-4.936-5.247-4.936-.077,0-.155,0-.234.007A3.374,3.374,0,0,0,22.425.49C15.959.49,12.87,8.573,11.9,12.68l-4.525,1.4c-1.4.44-1.447.484-1.631,1.805-.138,1-3.808,29.378-3.808,29.378L30.53,50.625l15.493-3.352S40.584,10.5,40.549,10.251ZM28.937,7.4l-2.42.749c0-.17,0-.339,0-.522a11.874,11.874,0,0,0-.578-3.907C27.371,3.9,28.324,5.532,28.937,7.4Zm-4.77-3.362A11.99,11.99,0,0,1,24.824,8.4c0,.1,0,.189,0,.28l-5,1.548C20.787,6.512,22.591,4.719,24.167,4.043ZM22.246,2.224a1.459,1.459,0,0,1,.829.28c-2.072.975-4.293,3.431-5.231,8.335l-3.95,1.223c1.1-3.741,3.708-9.838,8.352-9.838Z" transform="translate(-1.937 -0.49)" fill="#95bf46"/>
  <path id="Path_16791" data-name="Path 16791" d="M38.383,51.7l-1.91,5.682a8.79,8.79,0,0,0-3.726-.893c-3.008,0-3.159,1.887-3.159,2.363,0,2.6,6.765,3.59,6.765,9.669,0,4.783-3.034,7.862-7.124,7.862a9.912,9.912,0,0,1-7.418-3.055l1.314-4.342s2.58,2.215,4.757,2.215a1.919,1.919,0,0,0,2-1.938c0-3.385-5.55-3.537-5.55-9.1,0-4.682,3.361-9.213,10.144-9.213a8.345,8.345,0,0,1,3.906.749" transform="translate(-15.05 -33.783)" fill="#fff"/>
  <path id="Path_16790" data-name="Path 16790" d="M95.568,21.312c-.182-.015-4.035-.3-4.035-.3s-2.676-2.657-2.97-2.951a.736.736,0,0,0-.413-.19L85.988,62.092l15.491-3.351s-5.439-36.77-5.473-37.022a.484.484,0,0,0-.438-.407" transform="translate(-57.394 -11.958)" fill="#5e8e3e"/>
</svg>
