<svg id="certified-partners-1" xmlns="http://www.w3.org/2000/svg" width="44.086" height="46.576" viewBox="0 0 44.086 46.576">
  <path id="Path_16792" data-name="Path 16792" d="M3.118,24,11.444,9.7l15.737,2.392L13.795,36.8Z" transform="translate(-2.658 -6.926)" fill="#00d4e8"/>
  <path id="Path_16793" data-name="Path 16793" d="M23.517,76.535l7.4-12.819,5.811-10.066a4.629,4.629,0,0,0-4.009-6.943H6.3a4.628,4.628,0,0,0-4.008,6.943L15.5,76.535A4.629,4.629,0,0,0,23.517,76.535Z" transform="translate(-1.66 -32.273)" fill="#8752f6"/>
  <path id="Path_16794" data-name="Path 16794" d="M50.151,30.718l7.4-12.819L63.362,7.833A4.629,4.629,0,0,0,59.353.89H32.929a4.628,4.628,0,0,0-4.008,6.943L42.134,30.718A4.629,4.629,0,0,0,50.151,30.718Z" transform="translate(-19.903 -0.89)" fill="#ffc400"/>
  <path id="SVGCleanerId_0" d="M65.747,53.653l-5.189,8.988s0,0-.006,0a4.623,4.623,0,0,1-7.646-.545L44.022,46.708H61.736A4.631,4.631,0,0,1,65.747,53.653Z" transform="translate(-30.676 -32.273)" fill="#ff397f"/>
  <g id="Group_8999" data-name="Group 8999" transform="translate(13.346 14.435)">
    <path id="SVGCleanerId_0_1_" d="M65.747,53.653l-5.189,8.988s0,0-.006,0a4.623,4.623,0,0,1-7.646-.545L44.022,46.708H61.736A4.631,4.631,0,0,1,65.747,53.653Z" transform="translate(-44.022 -46.708)" fill="#ff397f"/>
  </g>
</svg>
