<svg xmlns="http://www.w3.org/2000/svg" width="45.291" height="45.262" viewBox="0 0 45.291 45.262">
  <path id="certified-partners_2" d="M.389,48.47a.4.4,0,0,1-.273-.677L18.665,29.33V42.08a.354.354,0,0,0,.352.327H30.984c4.36,0,6.607-2.681,6.607-6.037A5.474,5.474,0,0,0,34.26,31.2a.314.314,0,0,1-.214-.39.309.309,0,0,1,.187-.205,5.338,5.338,0,0,0,3.248-4.792c0-2.951-2.544-5.659-6.85-5.659H27.867l16.9-16.843c.218-.218.6-.054.514.244V48.171a.3.3,0,0,1-.3.3H.389ZM23.863,38.208a.357.357,0,0,1-.351-.351V33.443a.355.355,0,0,1,.351-.327h5.9a2.582,2.582,0,0,1,2.9,2.545c0,1.625-1.083,2.545-2.9,2.545Zm0-9.232a.353.353,0,0,1-.351-.327V24.643a.354.354,0,0,1,.351-.327h5.713a2.374,2.374,0,0,1,2.654,2.328c0,1.436-1.03,2.329-2.654,2.329Z" transform="translate(0 -3.208)" fill="#35323f"/>
</svg>
