<svg xmlns="http://www.w3.org/2000/svg" width="47.068" height="24.793" viewBox="0 0 47.068 24.793">
  <path id="php-logo" d="M0,12.4C0,5.554,10.538,0,23.534,0S47.068,5.554,47.068,12.4s-10.538,12.4-23.534,12.4S0,19.24,0,12.4ZM28.255,19.26h2.683l.706-3.295,2.507.02A5.5,5.5,0,0,0,39.8,12.031c1.036-3.616-1.182-5.211-3.436-5.168s-5.7,0-5.7,0ZM7.1,19.26H9.782l.706-3.295,2.506.02a5.514,5.514,0,0,0,5.659-3.958c1.036-3.612-1.182-5.207-3.439-5.163s-5.7,0-5.7,0Zm11.3-3.271h2.656l1.417-7.113s1.681,0,2.8.009c1.345,0,.836,1.4.721,2.219-.282,2-.928,4.88-.928,4.88h2.657s.824-3.276,1.267-6.345-3.275-2.777-3.275-2.777h-2.8l.682-3.328H20.873ZM34.269,14.04H31.953L32.972,8.8h2.477a1.6,1.6,0,0,1,1.767,1.844c-.125,3.33-2.73,3.4-2.936,3.4Zm-21.157,0H10.8L11.814,8.8h2.479a1.6,1.6,0,0,1,1.767,1.844c-.125,3.33-2.73,3.4-2.937,3.4Z" fill="#34313f"/>
</svg>
