<svg id="Component_90_2" data-name="Component 90 – 2" xmlns="http://www.w3.org/2000/svg" width="67.217" height="79.276" viewBox="0 0 67.217 79.276">
  <path id="Path_4" data-name="Path 4" d="M791.01,265.621h25.675a2.432,2.432,0,0,1,2.432,2.432V287a2.431,2.431,0,0,1-.266,1.107c-8.57,16.768-26.637,18.072-31.97,18.072-.991,0-1.554-.044-1.554-.044a2.436,2.436,0,0,1-1.935-3.623c5.709-10.087,5.193-34.16,5.187-34.4a2.432,2.432,0,0,1,2.431-2.492Zm23.242,4.864H793.462c-.017,5.913-.449,20.9-4.147,30.742,6.2-.444,18.531-2.884,24.938-14.822Z" transform="translate(-783.076 -226.906)" fill="#1476ba"/>
  <path id="Path_5" data-name="Path 5" d="M816.684,235.711a2.432,2.432,0,0,1,.913.178l31.176,12.634a2.432,2.432,0,0,1,1.519,2.254v8.151a2.432,2.432,0,0,1-2.432,2.432H785.507a2.432,2.432,0,0,1-2.432-2.432v-8.151a2.432,2.432,0,0,1,1.519-2.254l31.176-12.634A2.432,2.432,0,0,1,816.684,235.711Zm28.744,16.7-28.744-11.648L787.94,252.415v4.08h57.488Z" transform="translate(-783.075 -217.78)" fill="#1476ba"/>
  <path id="Path_6" data-name="Path 6" d="M830.373,265.621h25.675a2.432,2.432,0,0,1,2.431,2.492c-.006.242-.523,24.315,5.187,34.4a2.436,2.436,0,0,1-1.935,3.623s-.562.044-1.554.044c-5.333,0-23.4-1.3-31.969-18.072a2.432,2.432,0,0,1-.266-1.107v-18.95A2.432,2.432,0,0,1,830.373,265.621Zm23.223,4.864H832.805v15.92c6.407,11.938,18.74,14.378,24.937,14.822C854.045,291.384,853.613,276.4,853.6,270.485Z" transform="translate(-796.765 -226.906)" fill="#1476ba"/>
  <g id="Group_3" data-name="Group 3" transform="translate(31.176)">
    <path id="Line_4" data-name="Line 4" d="M-1.068,19.3A2.432,2.432,0,0,1-3.5,16.864V-1.068A2.432,2.432,0,0,1-1.068-3.5,2.432,2.432,0,0,1,1.364-1.068V16.864A2.432,2.432,0,0,1-1.068,19.3Z" transform="translate(3.5 3.5)" fill="#1476ba"/>
    <path id="Rectangle_7" data-name="Rectangle 7" d="M-1.068-3.5h17.32a2.432,2.432,0,0,1,2.432,2.432V10.343a2.432,2.432,0,0,1-2.432,2.432H-1.068A2.432,2.432,0,0,1-3.5,10.343V-1.068A2.432,2.432,0,0,1-1.068-3.5ZM13.82,1.364H1.364V7.911H13.82Z" transform="translate(3.5 3.5)" fill="#1476ba"/>
  </g>
</svg>
