<svg xmlns="http://www.w3.org/2000/svg" width="48.005" height="48.005" viewBox="0 0 48.005 48.005">
  <g id="Group_33771" data-name="Group 33771" transform="translate(-7040.08 -4543.75)">
    <path id="Path_35775" data-name="Path 35775" d="M206.792,490h-4.751a.792.792,0,0,0,0,1.583h4.751a.792.792,0,0,0,0-1.583Z" transform="translate(6849.373 4096.754)" fill="#fff"/>
    <path id="Path_35789_-_Outline" data-name="Path 35789 - Outline" d="M202.042,489.75h4.751a1.042,1.042,0,0,1,0,2.083h-4.751a1.042,1.042,0,0,1,0-2.083Zm4.751,1.583a.542.542,0,0,0,0-1.083h-4.751a.542.542,0,0,0,0,1.083Z" transform="translate(6849.373 4096.754)" fill="#fff"/>
    <path id="Path_35776" data-name="Path 35776" d="M132.631,17.5H110.462a2.375,2.375,0,0,0-2.375,2.375v3.959H89.876A2.375,2.375,0,0,0,87.5,26.209V62.63A2.375,2.375,0,0,0,89.876,65h22.169a2.375,2.375,0,0,0,2.375-2.375V58.671h18.21a2.375,2.375,0,0,0,2.375-2.375V19.875a2.375,2.375,0,0,0-2.375-2.375ZM89.084,30.168h23.752v26.92H89.084Zm25.336-3.959a2.375,2.375,0,0,0-2.375-2.375h21.377v26.92h-19Zm-3.959-7.126h22.169a.792.792,0,0,1,.792.792V22.25H109.67V19.875A.792.792,0,0,1,110.462,19.083ZM89.876,25.418h22.169a.792.792,0,0,1,.792.792v2.375H89.084V26.209A.792.792,0,0,1,89.876,25.418Zm22.169,38H89.876a.792.792,0,0,1-.792-.792V58.671h23.752V62.63a.792.792,0,0,1-.792.792Zm20.586-6.334H114.42v-4.75h19V56.3a.792.792,0,0,1-.792.792Z" transform="translate(6952.829 4526.5)" fill="#fff"/>
    <path id="Path_35790_-_Outline" data-name="Path 35790 - Outline" d="M110.462,17.25h22.169a2.625,2.625,0,0,1,2.625,2.625V56.3a2.625,2.625,0,0,1-2.625,2.625H114.67V62.63a2.625,2.625,0,0,1-2.625,2.625H89.876a2.625,2.625,0,0,1-2.625-2.625V26.209a2.625,2.625,0,0,1,2.625-2.625h17.96V19.875a2.625,2.625,0,0,1,2.625-2.625Zm22.169,41.171a2.125,2.125,0,0,0,2.125-2.125V19.875a2.125,2.125,0,0,0-2.125-2.125H110.462a2.125,2.125,0,0,0-2.125,2.125v4.209H89.876a2.125,2.125,0,0,0-2.125,2.125V62.63a2.125,2.125,0,0,0,2.125,2.125h22.169a2.125,2.125,0,0,0,2.125-2.125V58.421ZM110.462,18.833h22.169a1.035,1.035,0,0,1,.737.305,1.049,1.049,0,0,1,.305.737V22.5H109.42V19.875A1.043,1.043,0,0,1,110.462,18.833ZM133.172,22V19.875a.542.542,0,0,0-.542-.542H110.462a.542.542,0,0,0-.542.542V22Zm-21.127,1.584h21.627V51h-19.5V26.209a2.125,2.125,0,0,0-2.125-2.125Zm21.127.5H113.585a2.588,2.588,0,0,1,.316.269,2.643,2.643,0,0,1,.769,1.856V50.5h18.5Zm-43.3,1.083h22.169a1.042,1.042,0,0,1,1.042,1.042v2.625H88.834V26.209A1.043,1.043,0,0,1,89.876,25.167Zm22.711,3.167V26.209a.542.542,0,0,0-.542-.542H89.876a.542.542,0,0,0-.542.542v2.125ZM88.834,29.918h24.252v27.42H88.834Zm23.752.5H89.334v26.42h23.252Zm1.584,21.669h19.5V56.3a1.035,1.035,0,0,1-.305.737,1.049,1.049,0,0,1-.737.305H114.17Zm19,.5h-18.5v4.25h17.96a.542.542,0,0,0,.542-.542ZM88.834,58.421h24.252V62.63a1.042,1.042,0,0,1-1.042,1.042H89.876a1.043,1.043,0,0,1-1.042-1.042Zm23.752.5H89.334V62.63a.542.542,0,0,0,.542.542h22.169a.542.542,0,0,0,.542-.542Z" transform="translate(6952.829 4526.5)" fill="#fff"/>
    <path id="Path_35777" data-name="Path 35777" d="M434.292,420h-4.751a.792.792,0,0,0,0,1.583h4.751a.792.792,0,0,0,0-1.583Z" transform="translate(6642.458 4160.42)" fill="#fff"/>
    <path id="Path_35791_-_Outline" data-name="Path 35791 - Outline" d="M429.542,419.75h4.751a1.042,1.042,0,0,1,0,2.083h-4.751a1.042,1.042,0,0,1,0-2.083Zm4.751,1.583a.542.542,0,0,0,0-1.083h-4.751a.542.542,0,0,0,0,1.083Z" transform="translate(6642.458 4160.42)" fill="#fff"/>
    <path id="Path_35778" data-name="Path 35778" d="M149.459,226.094H134.131a1.306,1.306,0,0,1-1.3-1.3V214.724a1.306,1.306,0,0,1,1.3-1.3H146.1l-.166.087a.791.791,0,0,0,.356,1.5.741.741,0,0,0,.356-.087l3.167-1.583a.648.648,0,0,0,.19-.135v-.048a.725.725,0,0,0,.119-.182.237.237,0,0,0,0-.063.721.721,0,0,0,0-.554.159.159,0,0,0,0-.063.6.6,0,0,0-.119-.182v-.048a.649.649,0,0,0-.19-.135l-3.167-1.583a.792.792,0,0,0-.713,1.41l.166.087H134.131a2.882,2.882,0,0,0-2.882,2.882V224.8a2.882,2.882,0,0,0,2.882,2.882h15.328a.792.792,0,1,0,0-1.583Z" transform="translate(6913.04 4351.16)" fill="#fff"/>
    <path id="Path_35792_-_Outline" data-name="Path 35792 - Outline" d="M149.459,227.927H134.131A3.132,3.132,0,0,1,131,224.8V214.724a3.132,3.132,0,0,1,3.132-3.132H145.44a1.041,1.041,0,0,1,1.3-1.477l.016.007,3.164,1.582a.9.9,0,0,1,.26.185l.072.073v.06a.849.849,0,0,1,.1.175l.009.023,0,.024a.407.407,0,0,1,.008.076.962.962,0,0,1,0,.632.487.487,0,0,1,0,.056l0,.037-.015.034a.983.983,0,0,1-.1.165v.062l-.072.073a.9.9,0,0,1-.26.185l-3.161,1.581a.994.994,0,0,1-.462.115h-.011a1.04,1.04,0,0,1-.883-1.584H134.131a1.056,1.056,0,0,0-1.049,1.05V224.8a1.056,1.056,0,0,0,1.05,1.049h15.327a1.042,1.042,0,1,1,0,2.083Zm-15.328-15.835a2.632,2.632,0,0,0-2.632,2.632V224.8a2.632,2.632,0,0,0,2.632,2.632h15.328a.542.542,0,1,0,0-1.083H134.131a1.556,1.556,0,0,1-1.549-1.547V214.724a1.556,1.556,0,0,1,1.547-1.549H146.1l.116.471-.166.087a.541.541,0,0,0,.241,1.025h.008a.492.492,0,0,0,.23-.058l.006,0,3.174-1.587a.383.383,0,0,0,.045-.025v-.026l.064-.071a.465.465,0,0,0,.054-.074l-.006-.042.026-.059a.468.468,0,0,0,0-.362l-.029-.071.007-.036a.357.357,0,0,0-.047-.063l-.068-.072v-.03a.383.383,0,0,0-.045-.025l-.007,0-3.159-1.579a.541.541,0,0,0-.684.259.544.544,0,0,0,.2.705l.159.083-.116.472Z" transform="translate(6913.04 4351.16)" fill="#fff"/>
    <path id="Path_35779" data-name="Path 35779" d="M422.572,140H412.042a.792.792,0,0,0,0,1.583h10.531a1.322,1.322,0,0,1,1.346,1.3v10.071a1.322,1.322,0,0,1-1.346,1.3H415.4l.166-.087a.792.792,0,1,0-.713-1.41l-3.167,1.584a.648.648,0,0,0-.19.135l-.04.047h0a.6.6,0,0,0-.119.182.158.158,0,0,0,0,.063.72.72,0,0,0,0,.554.234.234,0,0,0,0,.063.723.723,0,0,0,.119.182l.04.047h0a.648.648,0,0,0,.19.135l3.167,1.584a.741.741,0,0,0,.356.087.791.791,0,0,0,.356-1.5l-.166-.087h7.173a2.905,2.905,0,0,0,2.93-2.882V142.881a2.905,2.905,0,0,0-2.93-2.882Z" transform="translate(6658.375 4415.086)" fill="#fff"/>
    <path id="Path_35793_-_Outline" data-name="Path 35793 - Outline" d="M422.6,139.748a3.155,3.155,0,0,1,3.156,3.13v10.073a3.155,3.155,0,0,1-3.155,3.132h-6.5a1.041,1.041,0,0,1-.885,1.584H415.2a.994.994,0,0,1-.462-.115l-3.161-1.581a.9.9,0,0,1-.26-.185l-.072-.073V155.7a.974.974,0,0,1-.136-.217l-.015-.033-.005-.036a.477.477,0,0,1,0-.057.962.962,0,0,1,0-.632.411.411,0,0,1,.008-.076l0-.024.009-.022a.851.851,0,0,1,.1-.176h0l.005-.006q.025-.034.054-.065l.051-.06a.894.894,0,0,1,.26-.185l3.156-1.578a1.042,1.042,0,0,1,1.505,1.259,1.039,1.039,0,0,1-.1.207H422.6a1.072,1.072,0,0,0,1.072-1.053V142.881a1.072,1.072,0,0,0-1.072-1.049H412.042a1.042,1.042,0,0,1,0-2.083Zm0,15.836a2.655,2.655,0,0,0,2.655-2.634V142.881a2.655,2.655,0,0,0-2.656-2.632H412.042a.542.542,0,0,0,0,1.083H422.6a1.572,1.572,0,0,1,1.572,1.544v10.076a1.572,1.572,0,0,1-1.6,1.549H415.4l-.116-.471.186-.1a.542.542,0,1,0-.487-.965l-.017.009-3.174,1.587a.39.39,0,0,0-.085.053h0l-.068.073a.355.355,0,0,0-.047.062l.007.036-.03.071a.467.467,0,0,0,0,.362l.026.063-.005.039a.465.465,0,0,0,.053.073l.04.047a.394.394,0,0,0,.109.075l.007,0,3.173,1.586a.492.492,0,0,0,.23.058h.006a.541.541,0,0,0,.246-1.024l-.169-.088.116-.471Z" transform="translate(6658.375 4415.086)" fill="#fff"/>
  </g>
</svg>
