<svg xmlns="http://www.w3.org/2000/svg" width="41.278" height="36.729" viewBox="0 0 41.278 36.729">
  <path id="react_native_app" d="M25.637,35.823a17.929,17.929,0,0,1-3.805-2.575c-.379-.327-.752-.669-1.116-1.018-.293.284-.583.55-.861.794a18.353,18.353,0,0,1-4,2.728,8.377,8.377,0,0,1-3.587.96,3.894,3.894,0,0,1-1.97-.486,3.761,3.761,0,0,1-1.332-1.351,6.618,6.618,0,0,1-.774-2.106,15.885,15.885,0,0,1,.15-5.939c.093-.491.2-.987.324-1.474-.376-.108-.752-.225-1.116-.349a16.476,16.476,0,0,1-5.481-2.965A5.152,5.152,0,0,1,0,18.327,3.761,3.761,0,0,1,.5,16.5a6.624,6.624,0,0,1,1.437-1.723,15.892,15.892,0,0,1,5.221-2.837c.477-.166.991-.328,1.528-.481-.113-.452-.216-.912-.305-1.367a16.482,16.482,0,0,1-.2-6.054,6.731,6.731,0,0,1,.758-2.147A3.709,3.709,0,0,1,10.266.519a3.822,3.822,0,0,1,1.942-.48,8.331,8.331,0,0,1,3.65,1.013,19.414,19.414,0,0,1,4.117,2.876c.231.205.461.418.684.632.335-.323.681-.641,1.028-.943A18.552,18.552,0,0,1,25.581.944,7.968,7.968,0,0,1,29.034,0a3.722,3.722,0,0,1,1.885.467A3.817,3.817,0,0,1,32.3,1.906a7.08,7.08,0,0,1,.783,2.27,17.324,17.324,0,0,1-.271,6.4c-.062.3-.133.6-.205.906.446.128.893.269,1.327.419a16.477,16.477,0,0,1,5.341,2.855,6.726,6.726,0,0,1,1.478,1.732,3.709,3.709,0,0,1,.52,1.837,3.821,3.821,0,0,1-.555,1.919,7.08,7.08,0,0,1-1.576,1.814,17.315,17.315,0,0,1-5.68,2.965c-.239.079-.49.158-.768.24.1.387.179.758.247,1.1a16.476,16.476,0,0,1,.181,6.229,5.154,5.154,0,0,1-2.18,3.651,3.8,3.8,0,0,1-1.927.478,7.911,7.911,0,0,1-3.383-.9ZM25.4,26.572a41.417,41.417,0,0,1-3.46,4.394c.347.334.7.653,1.038.946a16.654,16.654,0,0,0,3.339,2.283,6.369,6.369,0,0,0,2.689.771,2.089,2.089,0,0,0,1.056-.247,3.655,3.655,0,0,0,1.351-2.562,14.909,14.909,0,0,0-.2-5.448c-.062-.315-.138-.651-.221-1a41.152,41.152,0,0,1-5.593.862Zm-15.332.588c-.708,3.72-.262,6.75,1.106,7.539a2.168,2.168,0,0,0,1.09.248,5.525,5.525,0,0,0,1.8-.357A14.909,14.909,0,0,0,18.7,31.7c.269-.235.533-.479.786-.724a42.85,42.85,0,0,1-3.544-4.379,41.53,41.53,0,0,1-5.563-.805C10.261,26.242,10.16,26.7,10.073,27.159ZM20.709,29.7a37.636,37.636,0,0,0,2.424-2.981c-.824.037-1.663.055-2.492.055-.814,0-1.627-.016-2.415-.047C19.037,27.8,19.873,28.8,20.709,29.7ZM13.124,18.37c.542,1.125,1.135,2.244,1.761,3.326s1.308,2.163,2.017,3.2c1.207.078,2.464.118,3.737.118s2.547-.044,3.78-.133c.691-1.038,1.358-2.113,1.981-3.2s1.224-2.212,1.774-3.341c-.554-1.117-1.153-2.231-1.78-3.312s-1.293-2.146-1.989-3.176c-1.239-.095-2.508-.142-3.766-.142s-2.516.047-3.759.142c-.7,1.031-1.377,2.1-2,3.186h0C14.256,16.123,13.665,17.243,13.124,18.37ZM10.85,24.088a37.625,37.625,0,0,0,3.805.612c-.45-.7-.885-1.411-1.3-2.12s-.8-1.418-1.17-2.136C11.665,21.685,11.215,22.911,10.85,24.088Zm17.078-1.522c-.406.7-.832,1.411-1.267,2.1a37.522,37.522,0,0,0,3.85-.656,37.567,37.567,0,0,0-1.385-3.63C28.745,21.113,28.342,21.848,27.928,22.566ZM7.744,13.6c-3.578,1.247-5.98,3.145-5.98,4.723A3.658,3.658,0,0,0,3.3,20.782a14.912,14.912,0,0,0,4.814,2.558c.336.114.679.221,1.018.319a42.868,42.868,0,0,1,2.035-5.287A42.268,42.268,0,0,1,9.16,13.157C8.687,13.291,8.209,13.442,7.744,13.6Zm22.39,4.732a41.386,41.386,0,0,1,2.09,5.229c.25-.074.477-.145.693-.217a16.4,16.4,0,0,0,4.83-2.42,6.124,6.124,0,0,0,1.312-1.334,2.286,2.286,0,0,0,.455-1.267,2.168,2.168,0,0,0-.424-1.19,5.764,5.764,0,0,0-1.219-1.257,15.553,15.553,0,0,0-4.508-2.31c-.381-.133-.8-.262-1.227-.387a41.3,41.3,0,0,1-2.007,5.153Zm-2.212-4.187c.408.7.807,1.426,1.188,2.148a37.7,37.7,0,0,0,1.32-3.555c-1.188-.271-2.454-.492-3.764-.658C27.1,12.76,27.519,13.455,27.921,14.149ZM10.875,12.724c.359,1.158.8,2.36,1.312,3.572.371-.719.763-1.437,1.165-2.135s.83-1.4,1.266-2.08C13.308,12.245,12.048,12.461,10.875,12.724Zm11.97-7.779c-.321.281-.641.575-.949.87a41.418,41.418,0,0,1,3.49,4.355,42.188,42.188,0,0,1,5.519.872c.065-.265.128-.544.186-.821a16.4,16.4,0,0,0,.318-5.4,6.123,6.123,0,0,0-.5-1.8,2.288,2.288,0,0,0-.869-1.029,2.012,2.012,0,0,0-1.015-.236c-1.577,0-3.887,1.192-6.179,3.187ZM10.4,11.024a43.006,43.006,0,0,1,5.509-.856,42.2,42.2,0,0,1,3.516-4.351c-.218-.208-.42-.4-.62-.572a18.2,18.2,0,0,0-3.65-2.572A6.8,6.8,0,0,0,12.219,1.8a2.114,2.114,0,0,0-1.069.249,2.168,2.168,0,0,0-.817.961,5.759,5.759,0,0,0-.477,1.685,15.558,15.558,0,0,0,.259,5.059h0C10.2,10.176,10.294,10.606,10.4,11.024ZM20.637,9.951c.814,0,1.637.019,2.451.058a37.773,37.773,0,0,0-2.429-2.93c-.827.892-1.651,1.878-2.45,2.932.807-.038,1.624-.057,2.428-.057Zm-3.684,8.376a3.686,3.686,0,1,1,3.686,3.686,3.686,3.686,0,0,1-3.686-3.686Z" transform="translate(0 0.002)" fill="#00d8ff"/>
</svg>
