<svg xmlns="http://www.w3.org/2000/svg" xmlns:xlink="http://www.w3.org/1999/xlink" width="139.286" height="30" viewBox="0 0 139.286 30">
  <defs>
    <clipPath id="clip-path">
      <rect id="Rectangle_299" data-name="Rectangle 299" width="139.286" height="30" transform="translate(653 -240)" fill="#fff"/>
    </clipPath>
  </defs>
  <g id="Shinelife_Logo_black" transform="translate(-653 240)" clip-path="url(#clip-path)">
    <g id="Shinelife_Logo" transform="translate(653 -238.968)">
      <g id="Group_3354" data-name="Group 3354" transform="translate(0 4.906)">
        <path id="Union_16" data-name="Union 16" d="M123.783,15.648c0-4.642,3.283-7.931,8.321-7.931,4.273,0,7.152,2.5,7.152,5.083,0,2.016-1.844,2.892-10.7,4.338.493,4.117,2.968,5.477,5.444,5.477a7.187,7.187,0,0,0,4-1.227v.395a8.383,8.383,0,0,1-5.442,1.84C128.326,23.623,123.783,21.125,123.783,15.648Zm4.677,0a8.167,8.167,0,0,0,.045,1.052c5.489-1.226,6.521-1.884,6.521-3.943,0-2.1-.855-4.557-3.014-4.557-2.473,0-3.552,3.462-3.552,7.448Zm-55.954,0c0-4.642,3.283-7.931,8.321-7.931,4.273,0,7.152,2.5,7.152,5.083,0,2.016-1.844,2.892-10.7,4.338.495,4.119,2.969,5.477,5.442,5.477a7.187,7.187,0,0,0,4-1.227v.395a8.383,8.383,0,0,1-5.442,1.84C77.049,23.623,72.507,21.125,72.507,15.648Zm4.633,0a8.241,8.241,0,0,0,.045,1.052c5.532-1.227,6.522-1.884,6.522-3.944,0-2.1-.855-4.557-3.014-4.557C78.219,8.2,77.14,11.662,77.14,15.648ZM.585,22.353V16.7H.9c.63,4.644,4.678,6.441,7.827,6.441,2.923,0,4.633-1.533,4.633-3.593S11.65,16.13,9.041,15.079C5.261,13.545,0,12.581,0,7.5,0,3.467,3.554,1.846,7.872,1.846a22.672,22.672,0,0,1,7.287,1.315V8.112H14.8c-.584-4.294-3.642-5.785-6.881-5.785-3.283,0-4.59,1.49-4.59,3.155,0,1.49,1.035,2.585,3.194,3.417,3.645,1.316,10.346,2.411,10.346,8.326,0,4.47-3.688,6.4-8.681,6.4a29.377,29.377,0,0,1-7.6-1.269Zm102.1-1.841V10c0-.832-.315-1.1-2.2-1.444V8.245a27.983,27.983,0,0,0,6.792-.658V21.081c0,1.139.495,1.709,1.8,1.709.27-.044.495-.044.81-.088v.351a21.137,21.137,0,0,1-3.823.482C103.632,23.535,102.688,22.571,102.688,20.512Zm-10.795,0V2.854c0-.832-.361-1.1-2.249-1.444V1.1A28.615,28.615,0,0,0,96.481.444V21.037c0,1.139.45,1.709,1.8,1.709a4.756,4.756,0,0,0,.765-.044v.351a21.137,21.137,0,0,1-3.823.482c-2.384,0-3.329-.963-3.329-3.023Zm-27.932,0V12.187c0-1.884-.584-3.067-2.654-3.067a12.688,12.688,0,0,0-3.778.789v11.7c0,.832.315,1.095,2.2,1.444v.307H50.692v-.35c1.889-.351,2.2-.613,2.2-1.444V10c0-.832-.361-1.1-2.2-1.444V8.245a28.616,28.616,0,0,0,6.837-.658v1.84a16.84,16.84,0,0,1,6.477-1.665c3.1,0,4.59,1.84,4.59,5.3v8.017c0,1.139.495,1.709,1.8,1.709.179-.044.4-.044.722-.088v.351a20.27,20.27,0,0,1-3.778.482c-2.433,0-3.378-.964-3.378-3.023Zm-21.23-.044V9.952c0-.832-.315-1.1-2.2-1.444V8.2a27.983,27.983,0,0,0,6.792-.658V21.037c0,1.139.495,1.709,1.8,1.709a4.482,4.482,0,0,0,.765-.044v.351a21.137,21.137,0,0,1-3.823.482c-2.43-.044-3.33-.963-3.33-3.067Zm-10.212.044V12.187c0-1.884-.584-3.067-2.654-3.067a12.688,12.688,0,0,0-3.777.789v11.7c0,.832.315,1.095,2.2,1.444v.307H19.251v-.35c1.889-.351,2.2-.613,2.2-1.444V2.854c0-.832-.361-1.1-2.2-1.444V1.1A28.619,28.619,0,0,0,26.088.444V9.383a16.838,16.838,0,0,1,6.477-1.665c3.1,0,4.59,1.84,4.59,5.3v8.018c0,1.139.495,1.709,1.8,1.709a4.5,4.5,0,0,0,.722-.044v.351a20.727,20.727,0,0,1-3.778.482c-2.434,0-3.379-.963-3.379-3.023Zm78.894,2.848v-.351c1.889-.351,2.249-.613,2.249-1.444V8.418h-2.384V7.937h2.384V5.616c0-3.593,2.476-5.039,5.173-5.039a7.408,7.408,0,0,1,5.218,2.059V5.659h-.361c-.81-3.067-2.16-4.384-3.283-4.384-1.17,0-2.16,1.358-2.16,3.593V7.979h3.78v.485h-3.778V21.607c0,.832.315,1.095,2.744,1.444v.307Zm-8.95-20.9a2.543,2.543,0,0,1,5.083,0,2.542,2.542,0,1,1-5.083,0Z" transform="translate(0 -0.012)" fill="#fff"/>
      </g>
      <path id="Path_3119" data-name="Path 3119" d="M87.3,5.507a7.316,7.316,0,0,0,3.559-1.949A7.316,7.316,0,0,0,92.807,0a7.494,7.494,0,0,0,2.041,3.513A7.316,7.316,0,0,0,98.407,5.46a7.556,7.556,0,0,0-5.6,5.46,7.316,7.316,0,0,0-1.947-3.559A8.035,8.035,0,0,0,87.3,5.507Z" transform="translate(-47.545 0)" fill="#fff"/>
    </g>
  </g>
</svg>
