<svg xmlns="http://www.w3.org/2000/svg" xmlns:xlink="http://www.w3.org/1999/xlink" width="118.959" height="118.958" viewBox="0 0 118.959 118.958">
  <defs>
    <filter id="Rectangle_31" x="0" y="0" width="118.959" height="118.958" filterUnits="userSpaceOnUse">
      <feOffset input="SourceAlpha"/>
      <feGaussianBlur stdDeviation="5" result="blur"/>
      <feFlood flood-color="#969393" flood-opacity="0.161"/>
      <feComposite operator="in" in2="blur"/>
      <feComposite in="SourceGraphic"/>
    </filter>
  </defs>
  <g id="Group_36425" data-name="Group 36425" transform="translate(-942 -3901)">
    <g id="Group_33706" data-name="Group 33706" transform="translate(-284 2564)">
      <g id="Group_2127" data-name="Group 2127" transform="translate(1073 -65)">
        <g transform="matrix(1, 0, 0, 1, 153, 1402)" filter="url(#Rectangle_31)">
          <rect id="Rectangle_31-2" data-name="Rectangle 31" width="88.959" height="88.959" rx="20" transform="translate(15 15)" fill="#fff"/>
        </g>
      </g>
    </g>
    <g id="Group_10149" data-name="Group 10149" transform="translate(972 3931)">
      <g id="torch">
        <path id="Path_3437" data-name="Path 3437" d="M44.244,7.39a.87.87,0,0,0,1.175-.352l3.1-5.758A.868.868,0,0,0,46.994.456l-3.1,5.758a.868.868,0,0,0,.352,1.175Zm14.9,3.69a.868.868,0,0,0-1.175-.352l-5.758,3.1a.868.868,0,1,0,.823,1.528l5.758-3.1A.868.868,0,0,0,59.145,11.08Zm-39.222,32.4a1.484,1.484,0,0,0,1.056-.437l1.771-1.771a1.5,1.5,0,0,0,0-2.113L20.094,36.5a1.494,1.494,0,0,0-2.112,0L16.211,38.27a1.494,1.494,0,0,0,0,2.113l2.656,2.656A1.484,1.484,0,0,0,19.924,43.475ZM19.038,37.9l2.314,2.314L19.924,41.64l-2.314-2.314ZM48.026,11.224a.868.868,0,0,0,1.227,0l4.43-4.431a.868.868,0,0,0-1.227-1.227L48.026,10a.868.868,0,0,0,0,1.227ZM37.947,4.2a1.69,1.69,0,0,0-2.372,0L34.266,5.513a1.685,1.685,0,0,0-.031,2.339l-6.642,6.641a.958.958,0,0,0-.182.258l-4.438,9.673-21.6,21.6a4.642,4.642,0,0,0,0,6.539l5.312,5.312a4.629,4.629,0,0,0,6.539,0L24.106,46.994a.868.868,0,1,0-1.227-1.227L11.994,56.652a2.892,2.892,0,0,1-4.085,0L2.6,51.34a2.906,2.906,0,0,1,0-4.085l21.1-21.1,9.4,9.4L25.76,42.886a.868.868,0,0,0,1.227,1.227l7.839-7.839L44.5,31.837a.9.9,0,0,0,.258-.182l6.642-6.64a1.677,1.677,0,0,0,2.338-.031l1.309-1.309a1.692,1.692,0,0,0,0-2.372ZM34.509,34.511l-9.77-9.77,3.731-8.132L42.641,30.78Zm18.041-10.8L40.9,12.07A.868.868,0,1,0,39.677,13.3L50.169,23.789l-6.033,6.032L29.428,15.113l6.033-6.032L36.82,10.44a.868.868,0,0,0,1.227-1.227L35.534,6.7l1.227-1.227L53.777,22.488ZM13.726,41.373a1.484,1.484,0,0,0-1.056.437L10.9,43.581a1.5,1.5,0,0,0,0,2.113l2.656,2.656a1.494,1.494,0,0,0,2.112,0l1.771-1.771a1.5,1.5,0,0,0,0-2.113l-2.656-2.656A1.483,1.483,0,0,0,13.726,41.373Zm.885,5.578L12.3,44.638l1.429-1.429,2.314,2.314Z" transform="translate(-0.024 0)" fill="#1fb9ff"/>
      </g>
      <path id="Path_3438" data-name="Path 3438" d="M-57.444-1640.657l-4.618-5.711-2.005-1.367,24.85-24.273,4.861-10.329,7.413-6.319-1.7-1.58,1.7-2.43,18.471,17.62-.608,1.7-1.7,1.337L-12-1673.345l-6.926,7.048-10.329,4.739-7.291,8.263-15.068,14.46h-2.552Z" transform="translate(65.859 1698.743)" fill="#1fb9ff" opacity="0.14"/>
    </g>
  </g>
</svg>
