<svg xmlns="http://www.w3.org/2000/svg" xmlns:xlink="http://www.w3.org/1999/xlink" width="118.959" height="118.958" viewBox="0 0 118.959 118.958">
  <defs>
    <filter id="Rectangle_14269" x="0" y="0" width="118.959" height="118.958" filterUnits="userSpaceOnUse">
      <feOffset input="SourceAlpha"/>
      <feGaussianBlur stdDeviation="5" result="blur"/>
      <feFlood flood-color="#969393" flood-opacity="0.161"/>
      <feComposite operator="in" in2="blur"/>
      <feComposite in="SourceGraphic"/>
    </filter>
  </defs>
  <g id="Group_36433" data-name="Group 36433" transform="translate(-323 -7710)">
    <g transform="matrix(1, 0, 0, 1, 323, 7710)" filter="url(#Rectangle_14269)">
      <rect id="Rectangle_14269-2" data-name="Rectangle 14269" width="88.959" height="88.959" rx="20" transform="translate(15 15)" fill="#fff"/>
    </g>
    <g id="Group_33723" data-name="Group 33723" transform="translate(352 7740)">
      <path id="Path_1548" data-name="Path 1548" d="M1174.216,155.344s-7.315,6.411-7.651,6.661-10.51,10.658-10.426,10.991,1.85,2.914,3.363,2.5a10.327,10.327,0,0,0,1.864-1.06,27.234,27.234,0,0,1-2,2.064s-.391,3.3-.391,4.238a23,23,0,0,0,1.563,5.044c.234.336,7.735,2.489,8.36,2.489a6.6,6.6,0,0,0,1.975-1.1,1.868,1.868,0,0,0-.092.231c-.425,1.509,2.21,3.268,2.549,3.352s10.963-10.057,11.218-10.392,7.435-8.429,7.435-8.429C1189.6,171.308,1174.463,173.645,1174.216,155.344Z" transform="translate(-1134.153 -152.74)" fill="#359cf4" opacity="0.26"/>
      <path id="Path_1549" data-name="Path 1549" d="M1137.641,214.919c-.7,8.521,3.426,14.582,13.44,13.7l-14.845,9.026a33.823,33.823,0,0,1-2.9-2.042c-.066-.2-4.283-4.15-4.283-4.15a6.044,6.044,0,0,1,0-1.911C1129.252,229.15,1137.641,214.919,1137.641,214.919Z" transform="translate(-1118.062 -188.019)" fill="#cae5fc"/>
      <path id="Path_1550" data-name="Path 1550" d="M1174.382,166.986a1.382,1.382,0,0,0-1.958,0l-14.684,14.684a7,7,0,0,1-5.345,1.434l18.068-18.068a1.387,1.387,0,0,0,0-1.961h0a1.387,1.387,0,0,0-1.961,0L1150.08,181.5a5.7,5.7,0,0,1-7.6.541,5.542,5.542,0,0,1-.407-8.2l18.594-18.595a1.386,1.386,0,0,0,0-1.961h0a1.386,1.386,0,0,0-1.96,0l-18.068,18.068a5.576,5.576,0,0,1,1.434-5.345l14.684-14.684a1.383,1.383,0,0,0,0-1.958h0a1.383,1.383,0,0,0-1.953,0l-14.689,14.689a8.331,8.331,0,0,0-1.56,2.172L1123.721,191a2.008,2.008,0,0,0,.991,2.916,8.639,8.639,0,0,1,5.12,5.118,2.007,2.007,0,0,0,2.916.992l24.771-14.833a8.155,8.155,0,0,0,2.172-1.56l14.689-14.689a1.383,1.383,0,0,0,0-1.953Zm-41.857,29.935a8.568,8.568,0,0,0-5.713-5.7l11.258-18.8a8.7,8.7,0,0,0,.591,1.413,8.312,8.312,0,0,0,11.248,11.247,8.7,8.7,0,0,0,1.413.59Z" transform="translate(-1114.784 -148.959)" fill="#3c9af4"/>
      <path id="Path_1551" data-name="Path 1551" d="M1162.087,277.887h-56.869l6.343-3.036a3.784,3.784,0,0,0,1.2-5.991l-.039-.039-.039-.039a3.784,3.784,0,0,0-5.992,1.2l-4.466,9.333h59.859a.716.716,0,0,0,0-1.431Z" transform="translate(-1102.228 -219.318)" fill="#3a9af3"/>
    </g>
  </g>
</svg>
