<svg id="Component_82_1" data-name="Component 82 – 1" xmlns="http://www.w3.org/2000/svg" width="52" height="51.86" viewBox="0 0 52 51.86">
  <path id="Path_16610" data-name="Path 16610" d="M60.554,37.457A25.037,25.037,0,0,0,38.338,13.092,2.934,2.934,0,0,0,35.457,10.7a2.9,2.9,0,0,0-2.881,2.49A24.814,24.814,0,0,0,10.8,37.9a.732.732,0,1,0,1.465,0A23.334,23.334,0,0,1,32.723,14.655a2.908,2.908,0,0,0,2.734,1.953,2.95,2.95,0,0,0,2.783-2,23.636,23.636,0,0,1,20.9,22.9A2.928,2.928,0,1,0,62.8,40.338,2.988,2.988,0,0,0,60.554,37.457Zm-25.1-22.362a1.465,1.465,0,1,1,1.465-1.465A1.439,1.439,0,0,1,35.457,15.094ZM59.87,41.754a1.465,1.465,0,1,1,1.465-1.465A1.469,1.469,0,0,1,59.87,41.754Z" transform="translate(-10.8 -10.7)" fill="#fff"/>
  <path id="Path_16612" data-name="Path 16612" d="M18.062,38.412a.736.736,0,0,0-.879-.586l-2,.391-.391-2.051a.747.747,0,0,0-1.465.293l.391,2.051-2.051.391a.739.739,0,0,0,.146,1.465h.146l2.051-.391.391,2.051a.736.736,0,0,0,.732.586h.146a.736.736,0,0,0,.586-.879l-.391-2.051,2.051-.391A.769.769,0,0,0,18.062,38.412Z" transform="translate(-10.934 -23.422)" fill="#fff"/>
  <path id="noun-expert-3264266" d="M116.3.008a7.805,7.805,0,0,0-4.536,14.167,9.958,9.958,0,0,0-5.418,8.849v4.843a1.287,1.287,0,0,0,1.292,1.284h17.316a1.287,1.287,0,0,0,1.292-1.284V23.024a9.956,9.956,0,0,0-5.408-8.849A7.805,7.805,0,0,0,116.3.008Zm0,2.573a5.244,5.244,0,1,1-5.252,5.245A5.223,5.223,0,0,1,116.3,2.581Zm0,13.061a7.334,7.334,0,0,1,7.371,7.381v3.551H108.917V23.024a7.343,7.343,0,0,1,7.381-7.381Zm-12.87,14.519a1.286,1.286,0,0,0-.96.472l-1.6,1.925-2.327.937a1.287,1.287,0,0,0-.6,1.877l1.344,2.121.171,2.488h0a1.287,1.287,0,0,0,1.6,1.161l2.423-.626,2.435.608a1.287,1.287,0,0,0,1.593-1.166l.156-2.5L109,35.336a1.287,1.287,0,0,0-.623-1.872l-2.327-.92-1.606-1.92a1.245,1.245,0,0,0-1.013-.462Zm12.827,0a1.286,1.286,0,0,0-.96.472l-1.6,1.925-2.327.937a1.287,1.287,0,0,0-.6,1.877l1.344,2.121.171,2.488h0a1.287,1.287,0,0,0,1.6,1.161l2.423-.626,2.435.608a1.287,1.287,0,0,0,1.593-1.166l.156-2.5,1.33-2.121a1.287,1.287,0,0,0-.623-1.872l-2.327-.92-1.606-1.92a1.245,1.245,0,0,0-1.013-.462Zm12.827,0a1.286,1.286,0,0,0-.96.472l-1.6,1.925L124.2,33.5a1.287,1.287,0,0,0-.6,1.877l1.344,2.121.171,2.488h0a1.287,1.287,0,0,0,1.6,1.161l2.423-.626,2.435.608a1.287,1.287,0,0,0,1.593-1.166l.156-2.5,1.33-2.121a1.287,1.287,0,0,0-.623-1.872l-2.327-.92-1.606-1.92a1.245,1.245,0,0,0-1.013-.462Zm-25.619,3.3.827.983a1.288,1.288,0,0,0,.51.369l1.2.472-.686,1.086a1.284,1.284,0,0,0-.191.606l-.083,1.274-1.239-.307a1.287,1.287,0,0,0-.636.008l-1.242.317-.09-1.284a1.286,1.286,0,0,0-.194-.6l-.688-1.088,1.189-.477a1.288,1.288,0,0,0,.51-.375Zm12.827,0,.827.983h0a1.288,1.288,0,0,0,.51.369l1.2.472-.686,1.086a1.284,1.284,0,0,0-.191.606l-.083,1.274-1.239-.307a1.287,1.287,0,0,0-.636.008l-1.242.317-.09-1.284a1.286,1.286,0,0,0-.2-.6l-.686-1.088,1.189-.477a1.288,1.288,0,0,0,.51-.375Zm12.827,0,.827.983h0a1.288,1.288,0,0,0,.51.369l1.2.472-.686,1.086a1.284,1.284,0,0,0-.191.606l-.083,1.274-1.239-.307a1.287,1.287,0,0,0-.636.008l-1.242.317-.09-1.284a1.286,1.286,0,0,0-.194-.6L126.6,35.3l1.189-.477a1.288,1.288,0,0,0,.51-.375Z" transform="translate(-91.187 10.678)" fill="#fff"/>
</svg>
