<svg id="Component_91_4" data-name="Component 91 – 4" xmlns="http://www.w3.org/2000/svg" width="105.235" height="79.276" viewBox="0 0 105.235 79.276">
  <g id="Group_1" data-name="Group 1" transform="translate(15.123)">
    <path id="Line_1" data-name="Line 1" d="M45.548,75.776a2.841,2.841,0,0,1-2.41-1.331L-3.065.854a2.843,2.843,0,0,1,.9-3.919,2.843,2.843,0,0,1,3.919.9l46.2,73.59a2.843,2.843,0,0,1-2.4,4.354Z" transform="translate(26.602 3.5)" fill="#1476ba"/>
    <path id="Line_2" data-name="Line 2" d="M-.66,75.776a2.829,2.829,0,0,1-1.509-.436,2.843,2.843,0,0,1-.9-3.919l46.2-73.59a2.843,2.843,0,0,1,3.919-.9,2.843,2.843,0,0,1,.9,3.919L1.75,74.444A2.841,2.841,0,0,1-.66,75.776Z" transform="translate(3.5 3.5)" fill="#1476ba"/>
  </g>
  <path id="Line_3" data-name="Line 3" d="M98.892,2.185H-.657A2.843,2.843,0,0,1-3.5-.657,2.843,2.843,0,0,1-.657-3.5H98.892a2.843,2.843,0,0,1,2.843,2.843A2.843,2.843,0,0,1,98.892,2.185Z" transform="translate(3.5 77.091)" fill="#1476ba"/>
  <path id="Rectangle_5" data-name="Rectangle 5" d="M8.75-3.5A12.264,12.264,0,0,1,21,8.75V25.063a2.843,2.843,0,0,1-2.843,2.843H-.657A2.843,2.843,0,0,1-3.5,25.063V8.75A12.264,12.264,0,0,1,8.75-3.5Zm6.565,25.721V8.75A6.572,6.572,0,0,0,8.75,2.185h0A6.572,6.572,0,0,0,2.185,8.75V22.221Z" transform="translate(43.868 51.37)" fill="#1476ba"/>
</svg>
