<svg xmlns="http://www.w3.org/2000/svg" width="140" height="38.37" viewBox="0 0 140 38.37">
  <g id="UpCity-Logo-Primary" transform="translate(-1 -1)">
    <path id="Path_34261" data-name="Path 34261" d="M17.364,4.531a11.155,11.155,0,0,1,6.718,4.134,11.773,11.773,0,0,1,2.5,7.235c0,1.766-.99,4.479-2.8,7.795.56.947,1.163,1.981,1.852,3.1,2.282-3.962,4-7.967,4-10.9a15.068,15.068,0,0,0-2.8-8.828A14.386,14.386,0,0,0,20.163,1.9,12.652,12.652,0,0,0,15.34,1C7.416,1,1,7.675,1,15.9c0,5.986,7.192,16.364,11.455,22.006a3.575,3.575,0,0,0,5.771,0c.9-1.163,1.895-2.541,2.971-4.048-.646-.947-1.249-1.895-1.852-2.842-1.077,1.55-2.239,3.144-3.488,4.823a.655.655,0,0,1-.99,0C8.106,26.924,4.1,19.474,4.1,15.9A11.435,11.435,0,0,1,15.34,4.316,10.774,10.774,0,0,1,17.364,4.531Z" transform="translate(0 0)" fill="#d37728"/>
    <path id="Path_34262" data-name="Path 34262" d="M42.87,33.858c1.034,1.507,2.067,2.885,2.971,4.048a3.575,3.575,0,0,0,5.771,0c4.22-5.641,11.412-16.063,11.412-22.006,0-8.225-6.416-14.9-14.34-14.9a13.035,13.035,0,0,0-4.866.9,16.467,16.467,0,0,1,2.842,2.627,10.405,10.405,0,0,1,2.024-.215A11.408,11.408,0,0,1,59.923,15.9c0,3.574-4,11.024-10.766,19.938a.655.655,0,0,1-.99,0c-1.249-1.679-2.412-3.273-3.488-4.823a81.8,81.8,0,0,1-4.522-7.321C38.348,20.336,37.4,17.623,37.4,15.9a11.68,11.68,0,0,1,2.5-7.235,9.452,9.452,0,0,0-2.8-1.593A15.068,15.068,0,0,0,34.3,15.9c0,2.928,1.723,6.933,4,10.9C39.726,29.25,41.319,31.661,42.87,33.858Z" transform="translate(-18.96 0)" fill="#d37728"/>
    <path id="Path_34263" data-name="Path 34263" d="M131.925,26.536V38.68c0,5.6-2.971,8.527-8.7,8.527-5.771,0-8.527-2.885-8.527-8.57V26.364a1.462,1.462,0,0,1,1.507-1.464,1.512,1.512,0,0,1,1.593,1.464V38.551c0,4.177,1.723,5.9,5.426,5.9,3.66,0,5.6-1.636,5.6-5.814v-12.1a1.557,1.557,0,0,1,1.507-1.636A1.573,1.573,0,0,1,131.925,26.536Z" transform="translate(-64.737 -13.608)" fill="#394053"/>
    <path id="Path_34264" data-name="Path 34264" d="M177.239,48.607c0,5.125-2.8,7.881-7.795,7.881a9.748,9.748,0,0,1-3.23-.517v4.522a1.4,1.4,0,0,1-1.507,1.421,1.428,1.428,0,0,1-1.507-1.421v-18a1.244,1.244,0,0,1,1.292-1.292c.818,0,1.206.517,1.292,1.292l.086,1.163a5.357,5.357,0,0,1,4.78-2.455C174.741,41.2,177.239,43.569,177.239,48.607Zm-3.014.172c0-3.488-1.55-5-4.091-5a3.7,3.7,0,0,0-3.919,3.66h-.043V53.3a7.678,7.678,0,0,0,3.1.689C172.329,53.947,174.224,52.44,174.224,48.779Z" transform="translate(-92.351 -22.888)" fill="#394053"/>
    <path id="Path_34265" data-name="Path 34265" d="M221.614,30.714a1.208,1.208,0,0,1-1.292,1.249,1.174,1.174,0,0,1-1.335-.947,4.98,4.98,0,0,0-5.168-3.4c-4.22,0-6.976,2.67-6.976,8.182,0,5.771,2.971,8.613,7.795,8.613a12.2,12.2,0,0,0,4.737-.99,3.064,3.064,0,0,1,.9-.172,1.188,1.188,0,0,1,1.206,1.249,1.481,1.481,0,0,1-.861,1.421,14.583,14.583,0,0,1-6.33,1.292c-6.546,0-10.594-3.876-10.594-11.2,0-7.192,3.962-11.11,10.034-11.11C219.2,24.9,221.614,28.13,221.614,30.714Z" transform="translate(-115.41 -13.608)" fill="#394053"/>
    <path id="Path_34266" data-name="Path 34266" d="M252.8,27.924a1.925,1.925,0,0,1,1.938-2.024,2.026,2.026,0,0,1,0,4.048A1.925,1.925,0,0,1,252.8,27.924Zm3.359,5.9V46.312a1.4,1.4,0,0,1-1.507,1.421,1.428,1.428,0,0,1-1.507-1.421V33.824a1.428,1.428,0,0,1,1.507-1.421A1.454,1.454,0,0,1,256.159,33.824Z" transform="translate(-143.366 -14.177)" fill="#394053"/>
    <path id="Path_34267" data-name="Path 34267" d="M272.741,38.5v8.01c0,1.507.689,1.895,1.723,1.895.258,0,.517-.043,1.034-.086a1.088,1.088,0,0,1,1.292,1.163,1.292,1.292,0,0,1-1.077,1.335,14.136,14.136,0,0,1-1.981.172c-2.627,0-3.919-.947-3.919-4.263V38.5h-1.507a1.214,1.214,0,0,1-1.206-1.249,1.188,1.188,0,0,1,1.206-1.249h1.507V33.121A1.428,1.428,0,0,1,271.32,31.7a1.391,1.391,0,0,1,1.464,1.421v2.885h2.842a1.165,1.165,0,0,1,1.206,1.249,1.188,1.188,0,0,1-1.206,1.249Z" transform="translate(-151.508 -17.479)" fill="#394053"/>
    <path id="Path_34268" data-name="Path 34268" d="M307.539,42.292a1.932,1.932,0,0,1-.215.818l-.472,1.125-5.9,14.077a4.861,4.861,0,0,1-5,3.4c-.517,0-.775-.043-.99-.043a1.257,1.257,0,0,1-1.249-1.292,1.142,1.142,0,0,1,1.206-1.249c.215,0,.431.043.9.043,1.464,0,2.325-.474,2.756-1.636l.646-1.636-5.512-12.747a1.932,1.932,0,0,1-.215-.818A1.334,1.334,0,0,1,294.921,41a1.553,1.553,0,0,1,1.421.99l4.306,10.378,4.134-10.421a1.4,1.4,0,0,1,1.421-.9A1.236,1.236,0,0,1,307.539,42.292Z" transform="translate(-166.539 -22.775)" fill="#394053"/>
  </g>
</svg>
