<svg xmlns="http://www.w3.org/2000/svg" width="44.807" height="44.83" viewBox="0 0 44.807 44.83">
  <g id="Group_33759" data-name="Group 33759" transform="translate(-3199.146 -3249.75)">
    <path id="Path_35780" data-name="Path 35780" d="M265.21,35.546V37.4a2.376,2.376,0,0,0,2.376,2.376h9.637A2.376,2.376,0,0,0,279.6,37.4V35.546a7.194,7.194,0,0,0-3.868-6.358,5.793,5.793,0,1,0-6.652,0,7.194,7.194,0,0,0-3.868,6.358Zm3.326-11.081h0a1.6,1.6,0,1,1-.019,0Zm3.868,5.793a5.3,5.3,0,0,1,5.294,5.289V37.4a.475.475,0,0,1-.475.475h-9.637a.475.475,0,0,1-.475-.475V35.546a5.3,5.3,0,0,1,5.294-5.289Z" transform="translate(2949.145 3231.347)" fill="#fff"/>
    <path id="Path_35780_-_Outline" data-name="Path 35780 - Outline" d="M277.223,40.025h-9.637A2.626,2.626,0,0,1,264.96,37.4V35.546a7.444,7.444,0,0,1,3.66-6.389,6.043,6.043,0,1,1,7.569,0,7.444,7.444,0,0,1,3.66,6.389V37.4a2.626,2.626,0,0,1-2.626,2.626ZM272.4,18.9a5.543,5.543,0,0,0-3.183,10.08l.337.236-.365.19a6.944,6.944,0,0,0-3.734,6.137V37.4a2.126,2.126,0,0,0,2.126,2.126h9.637a2.126,2.126,0,0,0,2.126-2.126V35.546a6.944,6.944,0,0,0-3.734-6.136l-.365-.19.337-.236A5.543,5.543,0,0,0,272.4,18.9Zm4.819,19.222h-9.637a.726.726,0,0,1-.725-.725V35.546a5.549,5.549,0,0,1,5.543-5.539h0a5.549,5.549,0,0,1,5.543,5.539V37.4a.72.72,0,0,1-.212.513A.729.729,0,0,1,277.223,38.125ZM272.4,30.507a5.049,5.049,0,0,0-5.043,5.039V37.4a.225.225,0,0,0,.225.225h9.637a.225.225,0,0,0,.225-.225V35.546a5.049,5.049,0,0,0-5.044-5.039Zm.024-1.9H272.4a4.142,4.142,0,0,1-4.136-4.142V24.22h.026a4.142,4.142,0,0,1,4.134-3.9h.01a4.142,4.142,0,0,1-.009,8.284Zm-3.892-4.142h.231a3.642,3.642,0,0,0,3.637,3.642h.023a3.642,3.642,0,0,0,.008-7.284h-.008a3.642,3.642,0,0,0-3.641,3.642h-.25Z" transform="translate(2949.145 3231.347)" fill="#fff"/>
    <path id="Path_35781" data-name="Path 35781" d="M441.558,309.118v1.853a2.376,2.376,0,0,0,2.376,2.376h9.632a2.376,2.376,0,0,0,2.376-2.376v-1.853a7.194,7.194,0,0,0-3.849-6.363,5.793,5.793,0,1,0-6.686,0,7.2,7.2,0,0,0-3.849,6.363Zm3.326-11.081h0a1.612,1.612,0,1,1-.024,0Zm3.892,5.793h0a5.3,5.3,0,0,1,5.265,5.289v1.853a.475.475,0,0,1-.475.475h-9.632a.475.475,0,0,1-.475-.475v-1.853a5.3,5.3,0,0,1,5.294-5.289Z" transform="translate(2787.761 2980.983)" fill="#fff"/>
    <path id="Path_35781_-_Outline" data-name="Path 35781 - Outline" d="M453.566,313.6h-9.632a2.626,2.626,0,0,1-2.626-2.626v-1.854a7.446,7.446,0,0,1,3.643-6.394,6.043,6.043,0,1,1,7.6,0,7.444,7.444,0,0,1,3.643,6.394v1.853a2.625,2.625,0,0,1-2.626,2.626Zm-11.758-4.512v1.886a2.126,2.126,0,0,0,2.126,2.126h9.632a2.125,2.125,0,0,0,2.126-2.126v-1.853a6.944,6.944,0,0,0-3.715-6.142l-.361-.19.333-.236a5.543,5.543,0,1,0-6.4,0l.334.236-.362.19a6.946,6.946,0,0,0-3.715,6.109Zm11.758,2.612h-9.632a.726.726,0,0,1-.725-.725v-1.853a5.549,5.549,0,0,1,5.543-5.539h.025a5.548,5.548,0,0,1,5.514,5.538v1.854a.725.725,0,0,1-.725.725Zm-4.814-7.618a5.049,5.049,0,0,0-5.043,5.039v1.853a.225.225,0,0,0,.225.225h9.632a.225.225,0,0,0,.225-.225v-1.853a5.048,5.048,0,0,0-5.017-5.039Zm0-1.9a4.117,4.117,0,0,1-2.92-1.2,4.17,4.17,0,0,1-1.222-2.938v-.245h.031a4.142,4.142,0,1,1,4.135,4.388Zm-3.618-3.731a3.67,3.67,0,0,0,1.051,2.172,3.62,3.62,0,0,0,2.567,1.059h.022a3.642,3.642,0,1,0-3.64-3.642Z" transform="translate(2787.761 2980.983)" fill="#fff"/>
    <path id="Path_35782" data-name="Path 35782" d="M103.312,309.118a7.2,7.2,0,0,0-3.849-6.363,5.793,5.793,0,1,0-6.686,0,7.194,7.194,0,0,0-3.849,6.363v1.853a2.375,2.375,0,0,0,2.376,2.376h9.632a2.376,2.376,0,0,0,2.376-2.376ZM92.231,298.037a3.892,3.892,0,1,1,1.14,2.752A3.891,3.891,0,0,1,92.231,298.037Zm9.181,12.935a.475.475,0,0,1-.475.475H91.3a.475.475,0,0,1-.475-.475v-1.853a5.294,5.294,0,0,1,10.582,0Z" transform="translate(3110.469 2980.983)" fill="#fff"/>
    <path id="Path_35782_-_Outline" data-name="Path 35782 - Outline" d="M100.936,313.6H91.3a2.625,2.625,0,0,1-2.626-2.626v-1.853a7.444,7.444,0,0,1,3.643-6.394,6.043,6.043,0,1,1,7.6,0,7.445,7.445,0,0,1,3.643,6.394v1.854a2.626,2.626,0,0,1-2.626,2.626ZM96.12,292.482a5.543,5.543,0,0,0-3.2,10.069l.334.236-.362.19a6.944,6.944,0,0,0-3.715,6.142v1.853A2.125,2.125,0,0,0,91.3,313.1h9.632a2.126,2.126,0,0,0,2.126-2.126v-1.853a6.946,6.946,0,0,0-3.716-6.142l-.362-.19.334-.236a5.543,5.543,0,0,0-3.2-10.069Zm4.816,19.215H91.3a.726.726,0,0,1-.725-.725v-1.861a5.544,5.544,0,0,1,11.082,0v1.861a.725.725,0,0,1-.725.725Zm-9.857-2.575v1.849a.226.226,0,0,0,.225.225h9.632a.225.225,0,0,0,.225-.225v-1.849a5.044,5.044,0,0,0-10.082,0Zm5.044-6.943a4.141,4.141,0,1,1,2.929-1.213A4.115,4.115,0,0,1,96.123,302.179Zm0-7.784a3.642,3.642,0,1,0,3.642,3.642,3.667,3.667,0,0,0-1.066-2.575A3.618,3.618,0,0,0,96.123,294.4Z" transform="translate(3110.469 2980.983)" fill="#fff"/>
    <path id="Path_35783" data-name="Path 35783" d="M277.969,311.14a.95.95,0,0,0-.347-1.3l-5.831-3.478v-6.306a.95.95,0,0,0-1.9,0v6.315l-5.831,3.469a.95.95,0,1,0,.95,1.634l5.831-3.459,5.8,3.455a.95.95,0,0,0,1.331-.328Z" transform="translate(2950.709 2974.694)" fill="#fff"/>
    <path id="Path_35783_-_Outline" data-name="Path 35783 - Outline" d="M264.451,311.9a1.2,1.2,0,0,1-.507-2.288l5.7-3.39v-6.173a1.2,1.2,0,0,1,2.4,0v6.164l5.709,3.406a1.2,1.2,0,1,1-1.242,2.058L270.84,308.3l-5.693,3.378A1.193,1.193,0,0,1,264.451,311.9Zm6.39-12.551a.7.7,0,0,0-.7.7v6.457l-5.978,3.555a.7.7,0,1,0,.7,1.2l.019-.013,5.958-3.535,5.931,3.534a.7.7,0,0,0,.98-.242.7.7,0,0,0-.255-.96l-5.956-3.553v-6.448A.7.7,0,0,0,270.841,299.353Z" transform="translate(2950.709 2974.694)" fill="#fff"/>
  </g>
</svg>
