<svg xmlns="http://www.w3.org/2000/svg" width="48.012" height="39.752" viewBox="0 0 48.012 39.752">
  <g id="Group_9093" data-name="Group 9093" transform="translate(-4005.331 -2845.75)">
    <path id="Path_16825" data-name="Path 16825" d="M120.472,60.323a.652.652,0,0,1-.652-.652V52.963h-44.9v6.708a.652.652,0,0,1-1.3,0v-7.36a.652.652,0,0,1,.652-.652h46.208a.652.652,0,0,1,.652.652v7.36a.652.652,0,0,1-.652.652Z" transform="translate(3931.969 2794.341)" fill="#fff"/>
    <path id="Path_16825_-_Outline" data-name="Path 16825 - Outline" d="M120.472,60.573v0a.9.9,0,0,1-.9-.9V53.213h-44.4v6.458a.9.9,0,0,1-1.8,0v-7.36a.9.9,0,0,1,.9-.9h46.209a.9.9,0,0,1,.9.9v7.36a.9.9,0,0,1-.9.9Zm-45.806-7.86h45.4v6.958a.4.4,0,0,0,.4.4h0a.4.4,0,0,0,.4-.4v-7.36a.4.4,0,0,0-.4-.4H74.264a.4.4,0,0,0-.4.4v7.36a.4.4,0,0,0,.8,0Z" transform="translate(3931.969 2794.341)" fill="#fff"/>
    <path id="Path_16826" data-name="Path 16826" d="M120.474,169.192H74.266a.652.652,0,0,1-.652-.652V137.952a.652.652,0,0,1,.652-.652h46.208a.652.652,0,0,1,.652.652V168.54a.652.652,0,0,1-.652.652Zm-45.556-1.3h44.9V138.6h-44.9Z" transform="translate(3931.967 2716.061)" fill="#fff"/>
    <path id="Path_16826_-_Outline" data-name="Path 16826 - Outline" d="M120.474,169.442H74.266a.9.9,0,0,1-.9-.9V137.952a.9.9,0,0,1,.9-.9h46.208a.9.9,0,0,1,.9.9V168.54A.9.9,0,0,1,120.474,169.442ZM74.266,137.55a.4.4,0,0,0-.4.4V168.54a.4.4,0,0,0,.4.4h46.208a.4.4,0,0,0,.4-.4V137.952a.4.4,0,0,0-.4-.4Zm45.806,30.587h-45.4V138.353h45.4Zm-44.9-.5h44.4V138.853h-44.4Z" transform="translate(3931.967 2716.061)" fill="#fff"/>
    <path id="Path_16827" data-name="Path 16827" d="M173.476,229.878a.652.652,0,0,1-.652-.652v-2.95a.652.652,0,0,1,.652-.652h15.17a.652.652,0,0,1,0,1.3H174.128v2.3a.652.652,0,0,1-.652.652Z" transform="translate(3841.284 2635.329)" fill="#fff"/>
    <path id="Path_16827_-_Outline" data-name="Path 16827 - Outline" d="M173.476,230.128a.9.9,0,0,1-.8-.488l-.018-.012h.012a.9.9,0,0,1-.094-.4v-2.95a.9.9,0,0,1,.9-.9h15.17a.9.9,0,0,1,0,1.8H174.378v2.048a.9.9,0,0,1-.264.638.919.919,0,0,1-.092.08l.273.184Zm-.018-.5h.017a.4.4,0,0,0,.4-.4v-2.548h14.768a.4.4,0,0,0,0-.8h-15.17a.4.4,0,0,0-.4.4v2.95a.4.4,0,0,0,.384.4Z" transform="translate(3841.284 2635.329)" fill="#fff"/>
    <path id="Path_16828" data-name="Path 16828" d="M199.574,349.315h-26.1a.652.652,0,0,1-.652-.652v-7.4a.652.652,0,0,1,1.3,0v6.745h24.794v-7.6a.652.652,0,1,1,1.3,0v8.254a.652.652,0,0,1-.652.652Z" transform="translate(3841.284 2531.006)" fill="#fff"/>
    <path id="Path_16828_-_Outline" data-name="Path 16828 - Outline" d="M173.476,349.565a.9.9,0,0,1-.9-.9v-7.4a.9.9,0,0,1,1.8,0v6.495h24.294v-7.352a.9.9,0,1,1,1.8,0v8.254a.9.9,0,0,1-.9.9v0h-26.1Zm0-8.7a.4.4,0,0,0-.4.4v7.4a.4.4,0,0,0,.4.4h26.1a.4.4,0,0,0,.4-.4v-8.254a.4.4,0,1,0-.8,0v7.852H173.878v-6.995A.4.4,0,0,0,173.476,340.864Z" transform="translate(3841.284 2531.006)" fill="#fff"/>
    <path id="Path_16829" data-name="Path 16829" d="M366.791,208.443H349.966a.652.652,0,0,1-.652-.652V195.32a.652.652,0,0,1,.652-.652h16.825a.652.652,0,0,1,.652.652v12.471a.651.651,0,0,1-.652.652Zm-16.173-1.3h15.52V195.972h-15.52Z" transform="translate(3679.964 2663.624)" fill="#fff"/>
    <path id="Path_16829_-_Outline" data-name="Path 16829 - Outline" d="M366.792,208.693H349.966a.9.9,0,0,1-.9-.9V195.32a.9.9,0,0,1,.9-.9h16.826a.9.9,0,0,1,.9.9v12.471a.908.908,0,0,1-.264.638A.9.9,0,0,1,366.792,208.693Zm-16.826-13.775a.4.4,0,0,0-.4.4v12.471a.4.4,0,0,0,.4.4h16.826a.4.4,0,0,0,.284-.118.4.4,0,0,0,.118-.284V195.32a.4.4,0,0,0-.4-.4Zm16.423,12.471h-16.02V195.722h16.02Zm-15.52-.5h15.02V196.222h-15.02Z" transform="translate(3679.964 2663.624)" fill="#fff"/>
    <path id="Path_16830" data-name="Path 16830" d="M349.951,262.646a.654.654,0,0,1-.469-1.109l4.708-4.829a.649.649,0,0,1,.466-.2.655.655,0,0,1,.466.2l4.174,4.282a.652.652,0,1,1-.935.91l-3.7-3.8-4.242,4.351a.65.65,0,0,1-.466.2Z" transform="translate(3679.979 2607.094)" fill="#fff"/>
    <path id="Path_16830_-_Outline" data-name="Path 16830 - Outline" d="M349.951,262.9a.9.9,0,0,1-.648-1.533l4.708-4.829a.9.9,0,0,1,1.289,0l4.175,4.283a.9.9,0,1,1-1.293,1.259l-3.523-3.62-4.063,4.167a.9.9,0,0,1-.644.274Zm4.7-6.133a.4.4,0,0,0-.286.12l-4.708,4.829a.4.4,0,1,0,.576.562l4.422-4.535,3.881,3.988a.4.4,0,1,0,.576-.561l-4.174-4.282A.407.407,0,0,0,354.655,256.763Z" transform="translate(3679.979 2607.094)" fill="#fff"/>
    <path id="Path_16831" data-name="Path 16831" d="M452.078,272.242a.645.645,0,0,1-.466-.2l-4.115-4.223-3.757,3.854a.652.652,0,0,1-.935-.91l4.226-4.335a.652.652,0,0,1,.931,0l4.583,4.7a.654.654,0,0,1-.469,1.109Z" transform="translate(3594.678 2598.208)" fill="#fff"/>
    <path id="Path_16831_-_Outline" data-name="Path 16831 - Outline" d="M451.828,272.492v-.036a.9.9,0,0,1-.4-.236l-3.935-4.039-3.578,3.67a.9.9,0,0,1-1.293-1.259l4.227-4.335a.9.9,0,0,1,1.289,0l4.584,4.7a.9.9,0,0,1-.647,1.533Zm-4.33-5.028,4.294,4.407a.4.4,0,0,0,.284.12h.017a.4.4,0,0,0,.275-.685l-4.583-4.7a.4.4,0,0,0-.574,0l-4.226,4.335a.4.4,0,0,0,.577.561Z" transform="translate(3594.678 2598.208)" fill="#fff"/>
    <path id="Path_16832" data-name="Path 16832" d="M450.023,223.065a2,2,0,1,1,2-2A2,2,0,0,1,450.023,223.065Zm0-2.7a.7.7,0,1,0,.7.7A.7.7,0,0,0,450.023,220.364Z" transform="translate(3589.742 2641.328)" fill="#fff"/>
    <path id="Path_16832_-_Outline" data-name="Path 16832 - Outline" d="M450.023,223.315h0a2.253,2.253,0,1,1,2.253-2.253A2.255,2.255,0,0,1,450.023,223.315Zm0-4.005a1.753,1.753,0,1,0,1.753,1.752A1.755,1.755,0,0,0,450.023,219.31Zm0,2.7a.949.949,0,1,1,0-1.9h0a.949.949,0,0,1,0,1.9Zm0-1.4a.449.449,0,1,0,.449.449A.449.449,0,0,0,450.022,220.614Z" transform="translate(3589.742 2641.328)" fill="#fff"/>
    <path id="Path_16833" data-name="Path 16833" d="M227.406,379.045h-13.72a.652.652,0,0,1-.652-.652V376.25a.652.652,0,0,1,.652-.652h13.72a.652.652,0,0,1,.652.652v2.143a.652.652,0,0,1-.652.652Zm-13.067-1.3h12.416V376.9H214.338Z" transform="translate(3804.531 2498.245)" fill="#fff"/>
    <path id="Path_16833_-_Outline" data-name="Path 16833 - Outline" d="M227.406,379.295h-13.72a.9.9,0,0,1-.9-.9V376.25a.9.9,0,0,1,.9-.9h13.72a.9.9,0,0,1,.9.9v2.143a.9.9,0,0,1-.9.9Zm-13.72-3.447a.4.4,0,0,0-.4.4v2.143a.4.4,0,0,0,.4.4h13.72v0a.4.4,0,0,0,.4-.4V376.25a.4.4,0,0,0-.4-.4ZM227,377.991H214.088v-1.338H227Zm-12.416-.5H226.5v-.338H214.588Z" transform="translate(3804.531 2498.245)" fill="#fff"/>
    <path id="Path_16834" data-name="Path 16834" d="M375.389,372.034c-.115,0-.233-.006-.348-.016a3.324,3.324,0,0,1-.845-.177,4.181,4.181,0,0,1-1.32-.866l-.015-.012a.652.652,0,0,1,.854-.984l.015.012a3.1,3.1,0,0,0,.9.624,1.97,1.97,0,0,0,.516.105,3.687,3.687,0,0,0,2.469-.814,15.961,15.961,0,0,1-2.127-1.367l-.109-.077a.95.95,0,0,0-.711-.217,1.91,1.91,0,0,0-.925.547.652.652,0,1,1-.913-.932,3.165,3.165,0,0,1,1.609-.9,2.22,2.22,0,0,1,1.7.441l.109.077a13.063,13.063,0,0,0,2.258,1.407c.009,0,.037.016.059.022a1.113,1.113,0,0,1,.8.73.67.67,0,0,1-.18.624c-.121.121-.236.23-.351.332a5.242,5.242,0,0,1-3.45,1.44Z" transform="translate(3658.646 2506.169)" fill="#fff"/>
    <path id="Path_16834_-_Outline" data-name="Path 16834 - Outline" d="M375.389,372.284c-.113,0-.237-.006-.368-.016a3.572,3.572,0,0,1-.907-.19,4.33,4.33,0,0,1-1.386-.9l-.031-.026a.9.9,0,0,1,1.178-1.365l.019.016a2.943,2.943,0,0,0,.824.578,1.718,1.718,0,0,0,.449.092c.078.007.153.01.228.01a3.348,3.348,0,0,0,1.743-.547,18.952,18.952,0,0,1-1.785-1.185l-.115-.082a.717.717,0,0,0-.524-.175,1.642,1.642,0,0,0-.792.478.9.9,0,1,1-1.263-1.288,3.414,3.414,0,0,1,1.738-.968,2.236,2.236,0,0,1,.394-.035,2.583,2.583,0,0,1,1.5.519l.12.085a12.846,12.846,0,0,0,2.2,1.37l.014.006.021.008.026.009a1.343,1.343,0,0,1,.945.907.914.914,0,0,1-.248.855c-.12.12-.238.232-.361.342a5.529,5.529,0,0,1-3.586,1.5h-.031Zm-.027-.5h.027a5.021,5.021,0,0,0,3.284-1.377c.115-.1.226-.208.34-.323a.418.418,0,0,0,.113-.392c-.069-.313-.363-.447-.633-.548h0c-.022-.007-.041-.015-.055-.02l-.025-.01a13.171,13.171,0,0,1-2.291-1.424L376,367.6a2.061,2.061,0,0,0-1.211-.426,1.735,1.735,0,0,0-.3.027,2.92,2.92,0,0,0-1.478.833.4.4,0,1,0,.563.575,2.15,2.15,0,0,1,1.056-.614.929.929,0,0,1,.158-.014,1.281,1.281,0,0,1,.744.274l.116.083a15.721,15.721,0,0,0,2.087,1.341l.36.182-.323.242a4.062,4.062,0,0,1-2.374.874c-.089,0-.178,0-.266-.011a2.211,2.211,0,0,1-.577-.118,3.254,3.254,0,0,1-.981-.668l-.019-.016a.4.4,0,0,0-.529.6l.033.027a3.934,3.934,0,0,0,1.225.807,3.074,3.074,0,0,0,.78.163C375.169,371.778,375.27,371.783,375.362,371.784Z" transform="translate(3658.646 2506.169)" fill="#fff"/>
    <path id="Path_16835" data-name="Path 16835" d="M155.906,268.968H140.416a.652.652,0,0,1-.652-.652V260.6a.652.652,0,0,1,.652-.652H155.9a.652.652,0,0,1,.652.652v7.717a.647.647,0,0,1-.649.652Zm-14.837-1.3h14.182v-6.413H141.068Z" transform="translate(3871.503 2603.956)" fill="#fff"/>
    <path id="Path_16835_-_Outline" data-name="Path 16835 - Outline" d="M155.908,269.218H140.416a.9.9,0,0,1-.9-.9V260.6a.9.9,0,0,1,.9-.9H155.9a.9.9,0,0,1,.9.9v7.717a.9.9,0,0,1-.9.9ZM140.416,260.2a.4.4,0,0,0-.4.4v7.717a.4.4,0,0,0,.4.4h15.492a.394.394,0,0,0,.282-.117.4.4,0,0,0,.116-.283V260.6a.4.4,0,0,0-.4-.4Zm15.085,7.717H140.818V261H155.5Zm-14.182-.5H155V261.5H141.318Z" transform="translate(3871.503 2603.956)" fill="#fff"/>
    <path id="Path_16836" data-name="Path 16836" d="M227.277,291.172h-6.431a.652.652,0,0,1,0-1.3h6.431a.652.652,0,0,1,0,1.3Z" transform="translate(3797.986 2576.607)" fill="#fff"/>
    <path id="Path_16836_-_Outline" data-name="Path 16836 - Outline" d="M227.277,291.422h-6.431a.9.9,0,0,1,0-1.8h6.431a.9.9,0,0,1,0,1.8Zm-6.431-1.3a.4.4,0,0,0,0,.8h6.431a.4.4,0,0,0,0-.8Z" transform="translate(3797.986 2576.607)" fill="#fff"/>
    <path id="Path_16837" data-name="Path 16837" d="M167.741,291.172h-2.357a.652.652,0,0,1,0-1.3h2.357a.652.652,0,0,1,0,1.3Z" transform="translate(3848.681 2576.607)" fill="#fff"/>
    <path id="Path_16837_-_Outline" data-name="Path 16837 - Outline" d="M167.741,291.422h-2.357a.9.9,0,0,1,0-1.8h2.357a.9.9,0,0,1,0,1.8Zm-2.357-1.3a.4.4,0,0,0,0,.8h2.357a.4.4,0,0,0,0-.8Z" transform="translate(3848.681 2576.607)" fill="#fff"/>
    <path id="Path_16838" data-name="Path 16838" d="M270.009,321.122H267.6a.652.652,0,1,1,0-1.3h2.413a.652.652,0,0,1,0,1.3Z" transform="translate(3755.255 2549.231)" fill="#fff"/>
    <path id="Path_16838_-_Outline" data-name="Path 16838 - Outline" d="M270.009,321.372H267.6a.9.9,0,1,1,0-1.8h2.413a.9.9,0,0,1,0,1.8Zm-2.413-1.3a.4.4,0,1,0,0,.8h2.413a.4.4,0,0,0,0-.8Z" transform="translate(3755.255 2549.231)" fill="#fff"/>
    <path id="Path_16839" data-name="Path 16839" d="M172.026,321.122H165.38a.652.652,0,0,1,0-1.3h6.645a.652.652,0,0,1,0,1.3Z" transform="translate(3848.685 2549.231)" fill="#fff"/>
    <path id="Path_16839_-_Outline" data-name="Path 16839 - Outline" d="M172.026,321.372H165.38a.9.9,0,1,1,0-1.8h6.645a.9.9,0,0,1,0,1.8Zm-6.645-1.3a.4.4,0,1,0,0,.8h6.645a.4.4,0,0,0,0-.8Z" transform="translate(3848.685 2549.231)" fill="#fff"/>
    <path id="Path_16840" data-name="Path 16840" d="M137.2,91.594a1.087,1.087,0,1,1,1.086-1.087A1.087,1.087,0,0,1,137.2,91.594Z" transform="translate(3874.843 2759.825)" fill="#fff"/>
    <path id="Path_16840_-_Outline" data-name="Path 16840 - Outline" d="M137.2,91.844h0a1.337,1.337,0,1,1,1.337-1.337A1.338,1.338,0,0,1,137.2,91.844Zm0-2.174a.837.837,0,0,0,0,1.674v0a.837.837,0,0,0,0-1.674Z" transform="translate(3874.843 2759.825)" fill="#fff"/>
    <path id="Path_16841" data-name="Path 16841" d="M187.062,91.594a1.087,1.087,0,1,1,1.087-1.087A1.087,1.087,0,0,1,187.062,91.594Z" transform="translate(3829.264 2759.825)" fill="#fff"/>
    <path id="Path_16841_-_Outline" data-name="Path 16841 - Outline" d="M187.062,91.844h0a1.337,1.337,0,1,1,1.337-1.337A1.338,1.338,0,0,1,187.062,91.844Zm0-2.174a.837.837,0,1,0,.837.837A.838.838,0,0,0,187.062,89.67Z" transform="translate(3829.264 2759.825)" fill="#fff"/>
    <path id="Path_16842" data-name="Path 16842" d="M236.922,91.594a1.087,1.087,0,1,1,1.087-1.087A1.087,1.087,0,0,1,236.922,91.594Z" transform="translate(3783.69 2759.825)" fill="#fff"/>
    <path id="Path_16842_-_Outline" data-name="Path 16842 - Outline" d="M236.922,91.844h0a1.337,1.337,0,1,1,1.337-1.337A1.338,1.338,0,0,1,236.922,91.844Zm0-2.174a.837.837,0,1,0,.837.837A.838.838,0,0,0,236.922,89.67Z" transform="translate(3783.69 2759.825)" fill="#fff"/>
  </g>
</svg>
