<svg xmlns="http://www.w3.org/2000/svg" width="51.561" height="51.566" viewBox="0 0 51.561 51.566">
  <path id="noun-integration-3266035_-_Outline" data-name="noun-integration-3266035 - Outline" d="M133.7,34.184a1.4,1.4,0,0,1,1.4,1.407v4.238a20.847,20.847,0,0,1,5.5,2.285l3-3.006a1.411,1.411,0,0,1,.993-.412,1.394,1.394,0,0,1,.993.413l5.245,5.252a1.405,1.405,0,0,1,0,1.977l-3.005,3.007a20.833,20.833,0,0,1,2.284,5.508h4.247a1.4,1.4,0,0,1,1.4,1.4v7.431a1.406,1.406,0,0,1-1.4,1.4h-.5v0h-3.74a20.839,20.839,0,0,1-2.285,5.51l3,3a1.406,1.406,0,0,1,0,1.977L145.6,80.823a1.392,1.392,0,0,1-.993.412,1.41,1.41,0,0,1-.994-.413l-3.01-3.01a20.841,20.841,0,0,1-5.5,2.278v4.254a1.4,1.4,0,0,1-1.4,1.405H126.27a1.4,1.4,0,0,1-1.4-1.407V80.1a20.842,20.842,0,0,1-5.509-2.276l-3,3a1.409,1.409,0,0,1-.993.412,1.392,1.392,0,0,1-.994-.413l-5.251-5.251a1.405,1.405,0,0,1,0-1.978l3.012-3.012a20.838,20.838,0,0,1-2.284-5.5h-4.249a1.406,1.406,0,0,1-1.4-1.4V56.252a1.406,1.406,0,0,1,1.4-1.4h4.237a20.855,20.855,0,0,1,2.291-5.508l-3-3.006a1.4,1.4,0,0,1,0-1.978l5.253-5.253a1.394,1.394,0,0,1,.993-.412,1.411,1.411,0,0,1,.994.413l3,3a20.862,20.862,0,0,1,5.5-2.271V35.589a1.4,1.4,0,0,1,1.4-1.405Zm7.054,9.2-.337-.209a19.857,19.857,0,0,0-5.929-2.462l-.386-.091V35.589a.4.4,0,0,0-.4-.405v0H126.27a.4.4,0,0,0-.4.4v5.044l-.386.091a19.87,19.87,0,0,0-5.929,2.448l-.337.209-3.562-3.563a.405.405,0,0,0-.286-.119.4.4,0,0,0-.285.119l-5.253,5.253a.4.4,0,0,0,0,.565L113.4,49.2l-.209.337a19.865,19.865,0,0,0-2.467,5.935l-.09.386h-5.023a.4.4,0,0,0-.4.4v7.427a.4.4,0,0,0,.4.4h5.035l.09.386a19.849,19.849,0,0,0,2.461,5.929l.209.337L109.835,74.3a.4.4,0,0,0,0,.566l5.251,5.251a.4.4,0,0,0,.57,0l3.556-3.556.337.209a19.853,19.853,0,0,0,5.936,2.453l.386.091v5.031a.4.4,0,0,0,.4.405H133.7a.4.4,0,0,0,.405-.4V79.3l.386-.091a19.852,19.852,0,0,0,5.923-2.455l.337-.209,3.568,3.568a.4.4,0,0,0,.286.119.4.4,0,0,0,.285-.118l5.246-5.253a.4.4,0,0,0,0-.566l-3.555-3.561.208-.336a19.848,19.848,0,0,0,2.462-5.936l.09-.386h5.044a.4.4,0,0,0,.384-.4V56.251a.4.4,0,0,0-.4-.4h-5.035l-.09-.386a19.846,19.846,0,0,0-2.46-5.935l-.209-.337,3.562-3.563a.4.4,0,0,0,0-.565l-5.245-5.252a.4.4,0,0,0-.57,0Zm-14.081-7.392H133.3V40.8a.4.4,0,0,0,.323.4,19.024,19.024,0,0,1,6.937,2.838h0l.127.086a.4.4,0,0,0,.507-.047l3.407-3.4,4.681,4.672-3.409,3.417a.4.4,0,0,0-.051.508,19.035,19.035,0,0,1,2.925,7.06.4.4,0,0,0,.394.321h4.82v6.624H149.15a.4.4,0,0,0-.393.327,19,19,0,0,1-2.427,6.282h.026l-.526.78a.4.4,0,0,0,.05.51l3.4,3.4L144.6,79.26l-3.415-3.407a.4.4,0,0,0-.507-.048,19.02,19.02,0,0,1-7.06,2.919.4.4,0,0,0-.321.394v4.828h-6.626V79.133a.4.4,0,0,0-.327-.4,19.021,19.021,0,0,1-7.062-2.927.4.4,0,0,0-.512.047l-3.4,3.408-4.689-4.689,3.424-3.415a.4.4,0,0,0,.038-.5,19.035,19.035,0,0,1-2.919-7.061.4.4,0,0,0-.395-.328h-4.826V56.652h4.814a.4.4,0,0,0,.394-.324,19.028,19.028,0,0,1,2.926-7.065.4.4,0,0,0-.047-.508l-3.4-3.408,4.681-4.681,3.41,3.417a.4.4,0,0,0,.509.046,19,19,0,0,1,7.056-2.921.4.4,0,0,0,.328-.395Zm5.626,1h-4.626v3.827a1.4,1.4,0,0,1-1.139,1.376,18.005,18.005,0,0,0-6.683,2.766,1.4,1.4,0,0,1-1.778-.166l-2.7-2.71-3.267,3.267,2.7,2.7a1.406,1.406,0,0,1,.166,1.773,18.037,18.037,0,0,0-2.773,6.7,1.407,1.407,0,0,1-1.374,1.131h-3.814v4.624h3.826a1.4,1.4,0,0,1,1.377,1.139,18.039,18.039,0,0,0,2.766,6.691,1.4,1.4,0,0,1-.167,1.772l-.855.86v-.008L112.1,74.578l3.273,3.273,2.7-2.7a1.4,1.4,0,0,1,1.78-.168,18.023,18.023,0,0,0,6.69,2.772,1.4,1.4,0,0,1,1.138,1.377v3.813H132.3V79.119a1.4,1.4,0,0,1,1.128-1.376,18.03,18.03,0,0,0,6.694-2.767,1.4,1.4,0,0,1,.783-.239q.068,0,.135.006v-.45l3.562,3.554,3.267-3.268-2.7-2.7a1.4,1.4,0,0,1-.413-1h-.287L145,70.1a18.025,18.025,0,0,0,2.773-6.692,1.4,1.4,0,0,1,1.374-1.138h3.814V57.652h-3.821a1.406,1.406,0,0,1-1.374-1.128,18.048,18.048,0,0,0-2.774-6.7,1.407,1.407,0,0,1,.174-1.771l2.7-2.709L144.6,42.087l-2.7,2.7a1.4,1.4,0,0,1-1.626.251h-.018l-.127-.086a18.035,18.035,0,0,0-6.7-2.771A1.406,1.406,0,0,1,132.3,40.8Zm-2.317,9.871a13.109,13.109,0,1,1-13.108,13.108A13.126,13.126,0,0,1,129.985,46.859Zm0,25.218a12.109,12.109,0,1,0-12.108-12.11A12.126,12.126,0,0,0,129.985,72.076Zm0-23.414a11.312,11.312,0,1,1-11.258,12.243l-.044-.541h11.662l-3.156,2.962a.4.4,0,0,0,.252.716.407.407,0,0,0,.3-.132l.028-.028,3.847-3.609.01-.009.012-.011.016-.015.007-.008.005-.006.011-.014.009-.013.015-.025.006-.01a.389.389,0,0,0,.052-.189.4.4,0,0,0-.156-.329l-.026-.02-3.814-3.578a.4.4,0,0,0-.278-.113h-.011a.4.4,0,0,0-.256.7l0,0,3.117,2.927H118.682l.045-.541A11.283,11.283,0,0,1,129.5,48.673v-.01Zm0,21.608a10.3,10.3,0,0,0,.123-20.608h-.123a10.283,10.283,0,0,0-10.2,8.9h8.027l-1.274-1.2a1.4,1.4,0,0,1,.9-2.431h.042a1.393,1.393,0,0,1,.972.392l3.771,3.538a1.4,1.4,0,0,1,.347,1.8c-.016.029-.034.059-.053.087l-.02.03-.024.034-.038.049-.021.025,0,0-.016.018-.042.045-.049.047-.037.033L128.463,64.6a1.409,1.409,0,0,1-1.01.443h-.012a1.4,1.4,0,0,1-.893-2.483l1.272-1.195h-8.037a10.282,10.282,0,0,0,10.2,8.906Z" transform="translate(-104.208 -34.184)" fill="#fff"/>
</svg>
