<svg id="Group_33762" data-name="Group 33762" xmlns="http://www.w3.org/2000/svg" width="36.271" height="46.895" viewBox="0 0 36.271 46.895">
  <g id="Group_33653" data-name="Group 33653" transform="translate(0 33.974)">
    <path id="Path_35757" data-name="Path 35757" d="M36.771,34.272a.991.991,0,0,0-.318-.734C35.113,32.3,29.485,27.8,18.817,27.8S2.256,32.3.838,33.536a.993.993,0,0,0-.338.753v5.427a1.007,1.007,0,0,0,1.005,1.007h0a1.007,1.007,0,0,0,1.009-1.007V35.264a1,1,0,0,1,.4-.809c2.055-1.516,7.329-4.639,15.9-4.639,8.628,0,13.631,3.09,15.556,4.595a1,1,0,0,1,.382.793v4.512a1.007,1.007,0,0,0,2.015,0Z" transform="translate(-0.5 -27.802)" fill="#fff"/>
    <path id="Path_35758" data-name="Path 35758" d="M36.77,34.272a.991.991,0,0,0-.318-.734C35.112,32.3,29.484,27.8,18.817,27.8S2.256,32.3.838,33.536a.993.993,0,0,0-.338.753v5.427a1.007,1.007,0,0,0,1.005,1.007h0a1.007,1.007,0,0,0,1.009-1.007V35.264a1,1,0,0,1,.4-.809c2.055-1.516,7.329-4.639,15.9-4.639,8.628,0,13.631,3.09,15.556,4.595a1,1,0,0,1,.383.793v4.512a1.007,1.007,0,1,0,2.015,0Z" transform="translate(-0.5 -27.802)" fill="#fff"/>
  </g>
  <g id="Group_33654" data-name="Group 33654" transform="translate(2.431)">
    <path id="Path_35759" data-name="Path 35759" d="M34.357,16.188A12.473,12.473,0,0,1,15.769,25.1l.931-1.613-5.887.207,2.766,5.2.944-1.635A14.968,14.968,0,0,0,34.979,6.807L32.817,8.055a12.431,12.431,0,0,1,1.54,8.133" transform="translate(-7.021 0.693)" fill="#fff"/>
    <path id="Path_35760" data-name="Path 35760" d="M34.357,16.188A12.473,12.473,0,0,1,15.769,25.1l.931-1.613-5.887.207,2.766,5.2.944-1.635A14.968,14.968,0,0,0,34.979,6.807L32.817,8.055A12.431,12.431,0,0,1,34.357,16.188Z" transform="translate(-7.021 0.693)" fill="#fff"/>
    <path id="Path_35761" data-name="Path 35761" d="M11.914,21.946A12.474,12.474,0,0,1,28.962,4.9l-.93,1.614,5.886-.206L31.154,1.1l-.942,1.634A14.969,14.969,0,0,0,9.753,23.194Z" transform="translate(-7.735 -0.719)" fill="#fff"/>
    <path id="Path_35762" data-name="Path 35762" d="M11.914,21.946A12.474,12.474,0,0,1,28.962,4.9l-.93,1.614,5.886-.206L31.154,1.1l-.942,1.634A14.969,14.969,0,0,0,9.753,23.194Z" transform="translate(-7.735 -0.719)" fill="#fff"/>
    <path id="Path_35763" data-name="Path 35763" d="M28.08,16.705l.846-5.078a.591.591,0,0,0-.584-.689H18.054a.592.592,0,0,1-.569-.43,3.708,3.708,0,0,0-3.566-2.693H13.4a.592.592,0,0,0-.591.593V9.1a.592.592,0,0,0,.591.593h.524a1.947,1.947,0,0,1,1.764,1.33L17.334,16.8A2.387,2.387,0,0,0,19.5,18.433h6.546a2.144,2.144,0,0,0,2.038-1.727" transform="translate(-6.559 0.927)" fill="#fff"/>
    <path id="Path_35764" data-name="Path 35764" d="M28.08,16.705l.846-5.078a.591.591,0,0,0-.584-.689H18.054a.592.592,0,0,1-.569-.43,3.708,3.708,0,0,0-3.566-2.693H13.4a.592.592,0,0,0-.591.593V9.1a.592.592,0,0,0,.591.593h.524a1.947,1.947,0,0,1,1.764,1.33L17.334,16.8A2.387,2.387,0,0,0,19.5,18.433h6.546A2.144,2.144,0,0,0,28.08,16.705Z" transform="translate(-6.559 0.927)" fill="#fff"/>
    <path id="Path_35765" data-name="Path 35765" d="M21.929,18.7a1.249,1.249,0,1,0,1.249-1.248A1.249,1.249,0,0,0,21.929,18.7" transform="translate(-4.443 3.161)" fill="#fff"/>
    <circle id="Ellipse_279" data-name="Ellipse 279" cx="1.249" cy="1.249" r="1.249" transform="translate(17.486 20.608)" fill="#fff"/>
    <path id="Path_35766" data-name="Path 35766" d="M17.874,18.7a1.249,1.249,0,1,0,1.249-1.248A1.248,1.248,0,0,0,17.874,18.7" transform="translate(-5.384 3.161)" fill="#fff"/>
    <circle id="Ellipse_280" data-name="Ellipse 280" cx="1.249" cy="1.249" r="1.249" transform="translate(12.491 20.608)" fill="#fff"/>
    <path id="Path_35767" data-name="Path 35767" d="M23.877,14.184H18.818l-.382-1.334H24.1Z" transform="translate(-5.253 2.095)" fill="#fff"/>
    <path id="Path_35768" data-name="Path 35768" d="M23.877,14.184H18.818l-.382-1.334H24.1Z" transform="translate(-5.253 2.095)" fill="#fff"/>
  </g>
</svg>
