<svg xmlns="http://www.w3.org/2000/svg" width="47.197" height="35.62" viewBox="0 0 47.197 35.62">
  <g id="Group_33770" data-name="Group 33770" transform="translate(-15291.001 -3864.69)">
    <path id="Path_35774" data-name="Path 35774" d="M170.442,112H131.557a4.161,4.161,0,0,0-4.156,4.156v27.309a4.161,4.161,0,0,0,4.156,4.156h38.885a4.161,4.161,0,0,0,4.156-4.156V116.156A4.161,4.161,0,0,0,170.442,112Zm1.781,31.464a1.783,1.783,0,0,1-1.781,1.781H131.557a1.783,1.783,0,0,1-1.781-1.781V125.951h42.447Zm0-19.888H129.776v-7.421a1.783,1.783,0,0,1,1.781-1.781h38.885a1.783,1.783,0,0,1,1.781,1.781Zm-29.09,10.241h-9.128v2.374h9.128Zm18.849,0H146.324v2.374h15.658Z" transform="translate(15163.6 3752.69)" fill="#fff"/>
  </g>
</svg>
