<svg xmlns="http://www.w3.org/2000/svg" width="120" height="48.387" viewBox="0 0 120 48.387">
  <g id="Group_32265" data-name="Group 32265" transform="translate(-321 -446)">
    <g id="layer1" transform="translate(321 446)">
      <g id="g832" transform="translate(0 0)">
        <path id="path815" d="M118.828,21.765a13.212,13.212,0,0,0-2.57-3.6,5.786,5.786,0,0,0-.68-.555,6.149,6.149,0,0,0-.566-.383h-.041l-.051-.029a6.923,6.923,0,0,0-.651-.3h-.057a4.863,4.863,0,0,0-1.754-.328h-.249a4.848,4.848,0,0,0-1.891.513,8.122,8.122,0,0,0-1.891,1.361h-.035l-.035.034a.435.435,0,0,1-.074.066l-.108.1c-.384.355-.77.739-1.217,1.189l-.317.324q-.6.592-1.194,1.193c.123-2.1.255-4.25.362-6.384,0-.272.029-.555.051-.823a21.614,21.614,0,0,0,.057-2.806v-.228a6.794,6.794,0,0,0-1.23-4.05c-.8-1.025-2.383-2.224-5.4-2.224a15.36,15.36,0,0,0-2.044.15,20.185,20.185,0,0,0-3.279.739C90.6,6.805,88.657,8.5,88.17,10.8a6.839,6.839,0,0,0,.7,4.172l.09.212a21.041,21.041,0,0,0,1.308,2.5l.408.717q1.563,2.789,3.165,5.557L92.223,23.4l-.413-.144c-.6-.216-1.131-.4-1.625-.557l-.135-.038-.1-.028h-.092a8.179,8.179,0,0,0-2.311-.405h-.123a4.671,4.671,0,0,0-1.807.355,4.793,4.793,0,0,0-1.666,1.15q-.232.269-.441.557l-.033.044-.035.05a6.445,6.445,0,0,0-.7,1.367v.034a12.891,12.891,0,0,0-.708,4.317c-1.444-5.557-6.176-9.664-11.76-9.664a11.629,11.629,0,0,0-5.764,1.546,5.786,5.786,0,0,0-7.1-.206V18.858a5.721,5.721,0,0,0-11.439.09v6.074a6.41,6.41,0,0,0-.458-.529,13.6,13.6,0,0,0-6.008-3.585,13.211,13.211,0,0,0-7.049.006H32.4a12.369,12.369,0,0,0-5.016,2.623,5.587,5.587,0,0,0-5.063-3.122,5.651,5.651,0,0,0-1.585.227c-2.831.839-3.964,3.54-4.655,5.152-.063.15-.12.29-.18.423-.171.4-.335.756-.465,1.04s-.253.555-.363.839c-.08.216-.147.365-.225.555q-.709-1.412-1.433-2.817l-.285-.589c-.713-1.5-1.783-3.757-4.443-4.546A5.626,5.626,0,0,0,1.9,23.827c-1.286,2.984.311,5.617,1.166,7.029.612,1,1.4,2.327,2.135,3.707.315.555.435.789,1.131,2.116l.1.184.884,1.667c.21.383.441.822.713,1.334.29.555.618,1.155.98,1.822-.062.084-.125.172-.2.256L8.759,42l-.08-.038A7.505,7.505,0,0,0,6.9,41.343a6.026,6.026,0,0,0-1.331-.15A5.6,5.6,0,0,0,.729,43.932,5.32,5.32,0,0,0,.8,49.43c1.7,2.778,5.157,3.789,7.848,3.789A10.061,10.061,0,0,0,10.774,53c6.043-1.289,8.658-7,10.567-11.175l.384-.839q.59-1.328,1.229-2.635l.38-.817a12.876,12.876,0,0,0,1.681,3.424,14.371,14.371,0,0,0,1.507,1.851A13.848,13.848,0,0,0,28.35,44.35a12.852,12.852,0,0,0,2.1,1.161,11.382,11.382,0,0,0,2.344.779,13.006,13.006,0,0,0,1.507.271,11.664,11.664,0,0,0,1.4.062h.413a14.844,14.844,0,0,0,4.922-.834,12.616,12.616,0,0,0,2.1-.9,7.446,7.446,0,0,0,2.83-2.857,5.725,5.725,0,0,0,9.06,3.817v1.757a5.72,5.72,0,0,0,11.437,0V46.073a11.57,11.57,0,0,0,3.754.621c6.715,0,12.178-5.869,12.19-13.082a5.854,5.854,0,0,0,.566,1.252,4.844,4.844,0,0,0,1.388,1.405,5.163,5.163,0,0,0,2.695.839H87.5a9.647,9.647,0,0,0,2.213-.311h.12l3.13-.7c-.492.667-.974,1.317-1.438,1.962l-.261.361c-.378.511-.7.962-.99,1.395l-.08.122-.057.084-.027.038v.04a7.953,7.953,0,0,0-1.043,2.084,4.59,4.59,0,0,0-.18,1.94,4.676,4.676,0,0,0,.678,1.878v.028a4.376,4.376,0,0,0,.425.555l.035.034.029.038a6.769,6.769,0,0,0,.51.523,5.721,5.721,0,0,0,.668.557,14.266,14.266,0,0,0,3.634,1.75,13.345,13.345,0,0,0,3.4.639h.33a4.754,4.754,0,0,0,.566-.028,6.564,6.564,0,0,0,.7-.094h.1a7.2,7.2,0,0,0,.7-.2h.035a4.86,4.86,0,0,0,1.7-1.056,4.792,4.792,0,0,0,1.07-1.627,7.875,7.875,0,0,0,.488-2.268v-.1a.51.51,0,0,0,0-.1v-.128c.05-.555.074-1.066.1-1.667v-.854l.194.343.221.406c.306.555.566,1.022.837,1.467l.069.11.062.1v.034l.03.044a8.088,8.088,0,0,0,1.573,1.761,4.743,4.743,0,0,0,1.7,1.006h.035a4.86,4.86,0,0,0,1.523.244,4.353,4.353,0,0,0,.48-.028h.053a6.1,6.1,0,0,0,.725-.122h.1a5.893,5.893,0,0,0,.686-.221,6.2,6.2,0,0,0,.776-.351,13.008,13.008,0,0,0,2.774-2.04,14.078,14.078,0,0,0,2.491-3.134,6.012,6.012,0,0,0,.59-1.462V40.07a5.8,5.8,0,0,0,.125-.7V39.3a4.689,4.689,0,0,0-.227-1.956,4.639,4.639,0,0,0-1.043-1.667,8.265,8.265,0,0,0-1.862-1.423h-.041l-.045-.027-.09-.05-.114-.074c-.452-.261-.956-.555-1.489-.81l-.441-.234q-1.055-.578-2.135-1.112l3.1-.705h.12a8.671,8.671,0,0,0,2.518-.884,5.056,5.056,0,0,0,2.045-1.912,4.528,4.528,0,0,0,.566-1.839,8.664,8.664,0,0,0-1.125-4.839Z" transform="translate(-0.001 -4.832)" fill="rgba(255,255,255,0.96)"/>
        <path id="path817" d="M103.378,32.908l1.868-.424c.039-.009.105-.024.183-.049a2.021,2.021,0,0,0,1.475-2.409l-.007-.032a2,2,0,0,0-.318-.682,2.589,2.589,0,0,0-.762-.642,7.123,7.123,0,0,0-1.083-.492l-2.048-.735c-1.149-.42-2.3-.828-3.46-1.227-.752-.262-1.389-.493-1.943-.663q-.158-.043-.314-.094a5.57,5.57,0,0,0-1.538-.287,1.861,1.861,0,0,0-.776.138,1.991,1.991,0,0,0-.675.471,4.042,4.042,0,0,0-.264.327,3.827,3.827,0,0,0-.393.769A10.259,10.259,0,0,0,92.76,30.3a6.475,6.475,0,0,0,.626,3.318,1.966,1.966,0,0,0,.56.6,2.415,2.415,0,0,0,1.286.353,6.63,6.63,0,0,0,1.936-.258l6.206-1.406Zm20.842-9.733a10.417,10.417,0,0,0-2.029-2.838,3.106,3.106,0,0,0-.345-.292,2.985,2.985,0,0,0-.735-.412,2.011,2.011,0,0,0-.815-.133,1.882,1.882,0,0,0-.761.211,5.549,5.549,0,0,0-1.254.92c-.071.069-.159.147-.24.221-.422.39-.893.872-1.453,1.432-.866.859-1.717,1.722-2.564,2.592l-1.516,1.543a6.964,6.964,0,0,0-.753.909,2.533,2.533,0,0,0-.4.906,2.039,2.039,0,0,0,.018.751l.007.032a2.06,2.06,0,0,0,2.4,1.532q.095-.013.188-.035l8.076-1.832a6.57,6.57,0,0,0,1.855-.6,2.355,2.355,0,0,0,1-.869,1.932,1.932,0,0,0,.237-.778,6.458,6.458,0,0,0-.912-3.256Zm-14.458,3.333a4.641,4.641,0,0,0,.636-2.677c.177-2.938.362-5.876.51-8.816a30.12,30.12,0,0,0,.11-3.334,4.826,4.826,0,0,0-.657-2.748c-1.05-1.34-3.292-1.23-4.821-1.021q-.708.1-1.4.259c-.465.109-.927.228-1.377.371-1.468.471-3.531,1.337-3.879,3a4.837,4.837,0,0,0,.63,2.754,30.53,30.53,0,0,0,1.585,2.948c1.445,2.579,2.916,5.143,4.382,7.708a4.75,4.75,0,0,0,1.763,2.133c.057.024.114.044.173.063a2.089,2.089,0,0,0,1.19.078l.071-.015a2.078,2.078,0,0,0,.956-.564c.048-.044.092-.088.135-.137Zm-.7,7.866a1.887,1.887,0,0,0-2.08-.688,1.927,1.927,0,0,0-.258.1,2.513,2.513,0,0,0-.368.225,4.8,4.8,0,0,0-.878.882,2.124,2.124,0,0,1-.2.259l-1.3,1.753c-.735.984-1.463,1.969-2.182,2.969-.471.647-.876,1.193-1.2,1.675-.06.091-.123.191-.18.274a5.354,5.354,0,0,0-.716,1.39,1.784,1.784,0,0,0-.078.784,1.973,1.973,0,0,0,.276.775c.078.118.162.233.252.343a3.94,3.94,0,0,0,.653.589,11.475,11.475,0,0,0,2.911,1.393,10.453,10.453,0,0,0,2.656.5,3.454,3.454,0,0,0,.462-.009q.213-.02.423-.059a4.1,4.1,0,0,0,.414-.118,2.016,2.016,0,0,0,.705-.442,1.8,1.8,0,0,0,.429-.661,5.388,5.388,0,0,0,.315-1.526c0-.1.02-.216.03-.324.051-.574.075-1.252.111-2.044.065-1.221.114-2.436.153-3.654l.084-2.168a5.059,5.059,0,0,0-.138-1.548,2.3,2.3,0,0,0-.3-.673Zm14.665,3.392a5.48,5.48,0,0,0-1.26-.943c-.087-.049-.191-.112-.285-.168-.5-.3-1.112-.611-1.822-.99-1.091-.589-2.182-1.161-3.285-1.729l-1.946-1.013a2.229,2.229,0,0,1-.3-.146,4.913,4.913,0,0,0-1.182-.414,2.552,2.552,0,0,0-.429-.044,2.217,2.217,0,0,0-.279.016,1.855,1.855,0,0,0-1.561,1.515,2.32,2.32,0,0,0,.029.728,5.066,5.066,0,0,0,.566,1.452l1.038,1.913c.579,1.078,1.164,2.15,1.765,3.219.387.7.71,1.293,1.011,1.788.057.093.122.193.171.28a5.584,5.584,0,0,0,.96,1.237,1.893,1.893,0,0,0,1.513.5,4.091,4.091,0,0,0,.425-.074,3.964,3.964,0,0,0,.827-.32,10.291,10.291,0,0,0,2.165-1.591,11.263,11.263,0,0,0,2-2.507,2.952,2.952,0,0,0,.192-.412,4.129,4.129,0,0,0,.131-.4,3.964,3.964,0,0,0,.072-.417,1.939,1.939,0,0,0-.095-.814,1.8,1.8,0,0,0-.42-.672Z" transform="translate(-7.941 -5.085)" fill="#ff1a1a"/>
        <path id="path819" d="M49.031,19.96A2.888,2.888,0,0,1,51.916,17.1,2.953,2.953,0,0,1,54.8,19.983V42.331a2.9,2.9,0,0,1-4.938,2.022,2.806,2.806,0,0,1-.834-2.022Zm-2.684,13.8a2.884,2.884,0,0,1-.72,1.864,2.851,2.851,0,0,1-1.985.8q-3.095.018-6.19.022t-6.19.022a5.168,5.168,0,0,0,1.352,2.175,5.6,5.6,0,0,0,1.173.844,4.39,4.39,0,0,0,2.164.6,6.783,6.783,0,0,0,3.091-.844l.08-.041a7.7,7.7,0,0,1,2.107-.825,2.52,2.52,0,0,1,2.051.511,2.146,2.146,0,0,1,.7,2.286,4.346,4.346,0,0,1-2.006,2.33,10,10,0,0,1-1.579.732,12.112,12.112,0,0,1-4.352.667,9.841,9.841,0,0,1-1.128-.044,10.414,10.414,0,0,1-1.194-.222,8.586,8.586,0,0,1-1.805-.6,9.935,9.935,0,0,1-1.646-.91,10.71,10.71,0,0,1-1.442-1.221,11.01,11.01,0,0,1-1.2-1.464,10.356,10.356,0,0,1-1.669-6.237,10.744,10.744,0,0,1,2.12-5.991,4.749,4.749,0,0,1,.459-.576c.068-.077.134-.15.2-.224a9.048,9.048,0,0,1,4.662-2.8l.05-.015a10.3,10.3,0,0,1,5.525,0,10.849,10.849,0,0,1,4.713,2.819,8.7,8.7,0,0,1,.654.8,10.487,10.487,0,0,1,1.733,3.561l0,.012a7.324,7.324,0,0,1,.27,1.973ZM33.11,30.1a4.986,4.986,0,0,0-1.759,2.8h9.831A5.138,5.138,0,0,0,39.4,30.1a5.2,5.2,0,0,0-3.157-1.109A5.116,5.116,0,0,0,33.109,30.1ZM70.5,24.22A8.871,8.871,0,0,0,63.913,27.2v-.068a2.877,2.877,0,0,0-5.75.156V48.611A2.8,2.8,0,0,0,59,50.621a2.933,2.933,0,0,0,4.091,0,2.8,2.8,0,0,0,.841-2.01V41.952a8.914,8.914,0,0,0,6.584,2.975c5.165,0,9.359-4.595,9.359-10.321C79.856,28.882,75.662,24.22,70.5,24.22ZM69.235,40.288a5.658,5.658,0,1,1,5.321-5.636A5.481,5.481,0,0,1,69.235,40.288Zm-47.6-4.194-.947,2.043c-.429.887-.858,1.8-1.263,2.707l-.392.854c-1.8,3.935-3.942,8.607-8.606,9.6-2.255.489-5.66-.177-6.923-2.264A2.681,2.681,0,0,1,6.524,45.06a5.129,5.129,0,0,1,1.133.451,3.1,3.1,0,0,0,1.957.482,2.809,2.809,0,0,0,1.579-1.177,5.5,5.5,0,0,0,1.172-2.2l-.033-.077q-.016-.04-.035-.078c-.587-1.075-1.1-2.035-1.528-2.838q-.361-.68-.728-1.356l-.983-1.832c-.72-1.34-.84-1.561-1.158-2.14q-1.052-1.949-2.21-3.839C4.855,29.08,4,27.55,4.7,25.929A2.773,2.773,0,0,1,8.08,24.376c1.451.432,2.095,1.788,2.695,3.054.11.23.216.457.327.673.969,1.887,1.916,3.773,2.863,5.66.084.187.21.442.366.754.138.277.3.6.468.954l.251.513c.1.2.183.371.246.508q.659-1.613,1.329-3.218t1.331-3.218a6.914,6.914,0,0,1,.276-.635c.134-.293.3-.669.491-1.1l.191-.452c.585-1.4,1.29-3.082,2.854-3.542a2.81,2.81,0,0,1,3.045,1.043,2.753,2.753,0,0,1,.5,1.532,8.76,8.76,0,0,1-1.059,3.526c-.12.265-.237.518-.338.757l-.06.13c-.138.3-.513,1.13-1.158,2.489-.233.486-.456.975-.683,1.468Z" transform="translate(-0.266 -5.882)" fill-rule="evenodd"/>
      </g>
    </g>
  </g>
</svg>
