<svg width="43" height="42" viewBox="0 0 43 42" fill="none" xmlns="http://www.w3.org/2000/svg">
<g clip-path="url(#clip0_87_1071)">
<path d="M22.6557 23.9107H28.0799C29.6225 23.9107 30.5985 23.0817 30.5985 21.7496C30.5985 20.4935 29.6225 19.5885 28.0799 19.5885H22.6557C22.476 19.5885 22.3223 19.7388 22.3223 19.8907V23.6085C22.3465 23.7841 22.4743 23.9107 22.6557 23.9107ZM22.6557 32.4776H28.2596C29.9818 32.4776 31.0097 31.6232 31.0097 30.1155C31.0097 28.8087 30.0337 27.7535 28.2596 27.7535H22.6557C22.476 27.7535 22.3223 27.9037 22.3223 28.0557V32.1517C22.3465 32.3526 22.4743 32.4776 22.6557 32.4776Z" fill="#34313F"/>
<path d="M42.5008 0.0928452L26.4596 15.7204H29.0819C33.1691 15.7204 35.5858 18.2327 35.5858 20.9713C35.5858 23.1324 34.095 24.7144 32.5006 25.4185C32.2432 25.5198 32.2432 25.8709 32.5265 25.9706C34.3766 26.6746 35.6877 28.5588 35.6877 30.7689C35.6877 33.884 33.5543 36.3709 29.4153 36.3709H18.0538C17.8741 36.3709 17.7204 36.2207 17.7204 36.0687V24.2349L0.110639 41.3719C-0.120841 41.5981 0.0329028 42 0.368031 42H42.7064C42.8602 42 42.9897 41.875 42.9897 41.7231V0.319087C43.0657 0.0421939 42.7064 -0.108071 42.5008 0.0928452Z" fill="#34313F"/>
</g>
<defs>
<clipPath id="clip0_87_1071">
<rect width="43" height="42" fill="white"/>
</clipPath>
</defs>
</svg>
