<svg width="37" height="42" viewBox="0 0 37 42" fill="none" xmlns="http://www.w3.org/2000/svg">
<g clip-path="url(#clip0_87_1063)">
<path d="M32.3414 8.24755C32.3124 8.03755 32.1275 7.92133 31.9748 7.90853C31.8223 7.89587 28.5955 7.65782 28.5955 7.65782C28.5955 7.65782 26.3545 5.44347 26.1086 5.19838C25.8624 4.95342 25.3818 5.02793 25.1952 5.08259C25.1678 5.09064 24.7056 5.23261 23.9411 5.46807C23.1925 3.32405 21.8713 1.35379 19.5471 1.35379C19.4829 1.35379 19.4169 1.35638 19.3508 1.36012C18.6898 0.490061 17.871 0.112061 17.1637 0.112061C11.7494 0.112061 9.16266 6.8486 8.35163 10.2719C6.24776 10.9207 4.75317 11.382 4.56226 11.4417C3.38792 11.8083 3.35078 11.8452 3.19658 12.9465C3.08053 13.7803 0.0078125 37.4311 0.0078125 37.4311L23.9511 41.896L36.9243 39.1027C36.9243 39.1027 32.37 8.45755 32.3414 8.24755ZM22.6178 5.87541L20.5918 6.49951C20.5925 6.3574 20.5932 6.21759 20.5932 6.0647C20.5932 4.7322 20.4074 3.65933 20.1092 2.80883C21.3068 2.95842 22.1044 4.31465 22.6178 5.87541ZM18.6236 3.07306C18.9566 3.90342 19.1731 5.0951 19.1731 6.70318C19.1731 6.78546 19.1723 6.86068 19.1716 6.93677C17.854 7.34296 16.4223 7.78396 14.9874 8.2264C15.7931 5.13164 17.3033 3.6369 18.6236 3.07306ZM17.015 1.55746C17.2487 1.55746 17.4841 1.63643 17.7094 1.79077C15.9742 2.60344 14.1142 4.65022 13.3288 8.73759L10.0214 9.7571C10.9414 6.63946 13.126 1.55746 17.015 1.55746Z" fill="#95BF46"/>
<path d="M31.9747 7.90851C31.8222 7.89585 28.5955 7.6578 28.5955 7.6578C28.5955 7.6578 26.3545 5.44345 26.1085 5.19836C26.0164 5.10717 25.8923 5.06042 25.7625 5.04028L23.9521 41.8957L36.9243 39.1027C36.9243 39.1027 32.37 8.45753 32.3413 8.24753C32.3123 8.03753 32.1275 7.92131 31.9747 7.90851Z" fill="#5E8E3E"/>
<path d="M19.5466 15.043L17.9469 19.779C17.9469 19.779 16.5454 19.0345 14.8274 19.0345C12.3087 19.0345 12.182 20.6076 12.182 21.004C12.182 23.167 17.8471 23.9958 17.8471 29.0623C17.8471 33.0484 15.3069 35.6151 11.8818 35.6151C7.77177 35.6151 5.66992 33.0692 5.66992 33.0692L6.77042 29.4503C6.77042 29.4503 8.93094 31.2965 10.754 31.2965C11.9453 31.2965 12.4298 30.363 12.4298 29.6809C12.4298 26.8594 7.78218 26.7336 7.78218 22.0973C7.78218 18.1952 10.5962 14.4191 16.2766 14.4191C18.4653 14.4191 19.5466 15.043 19.5466 15.043Z" fill="white"/>
</g>
<defs>
<clipPath id="clip0_87_1063">
<rect width="37" height="42" fill="white"/>
</clipPath>
</defs>
</svg>
