<svg width="43" height="26" viewBox="0 0 43 26" fill="none" xmlns="http://www.w3.org/2000/svg">
<g clip-path="url(#clip0_112_877)">
<path d="M3.99231 0H38.99C41.205 0 42.9979 1.81405 42.9979 4.05515V17.5719C42.9979 19.813 41.205 21.6271 38.99 21.6271H26.4394L28.1621 25.8955L20.5859 21.6271H4.00978C1.79498 21.6271 0.00208213 19.813 0.00208213 17.5719V4.05515C-0.0155529 1.8319 1.77718 0 3.99231 0Z" fill="#9B5C8F"/>
<path d="M2.45022 3.69608C2.69493 3.35995 3.0619 3.18321 3.55132 3.14787C4.44281 3.077 4.94969 3.50133 5.07196 4.42102C5.61378 8.1171 6.208 11.2473 6.83715 13.8114L10.6648 6.43712C11.0145 5.76503 11.4515 5.4114 11.9758 5.37605C12.7449 5.32303 13.2167 5.81805 13.409 6.86145C13.846 9.21334 14.4053 11.2118 15.0694 12.9094C15.5238 8.41771 16.2929 5.18147 17.3765 3.18321C17.6385 2.68802 18.0232 2.44043 18.53 2.40491C18.9321 2.36974 19.2991 2.49345 19.6311 2.75872C19.9632 3.02398 20.138 3.35995 20.1729 3.76677C20.1904 4.08506 20.138 4.35032 19.9983 4.61559C19.3166 5.88891 18.7571 8.02873 18.3028 10.9995C17.8659 13.8821 17.7086 16.1282 17.8134 17.7374C17.8485 18.1793 17.7784 18.5684 17.6038 18.9045C17.3938 19.2935 17.0794 19.5058 16.6773 19.5411C16.2229 19.5765 15.7511 19.3644 15.2966 18.8869C13.6712 17.2067 12.3777 14.6956 11.434 11.3533C10.2978 13.6169 9.45889 15.3145 8.91708 16.4463C7.88585 18.4447 7.01199 19.4704 6.27787 19.5234C5.80592 19.5588 5.40401 19.152 5.0545 18.3033C4.16317 15.9866 3.20181 11.5124 2.17074 4.88086C2.10071 4.42102 2.20551 4.01419 2.45022 3.69608ZM40.0105 6.47247C39.3814 5.35838 38.455 4.68646 37.2141 4.42102C36.8819 4.35032 36.5675 4.31498 36.2702 4.31498C34.5924 4.31498 33.2291 5.19915 32.1629 6.96766C31.254 8.47073 30.7997 10.133 30.7997 11.9546C30.7997 13.3162 31.0793 14.4834 31.6386 15.4561C32.2677 16.5702 33.1942 17.2421 34.435 17.5073C34.767 17.5782 35.0816 17.6136 35.3789 17.6136C37.0742 17.6136 38.4375 16.7294 39.4862 14.9609C40.395 13.44 40.8495 11.7777 40.8495 9.9563C40.8669 8.57694 40.5698 7.42733 40.0105 6.47247ZM37.8083 11.371C37.5636 12.5381 37.1266 13.4046 36.4798 13.9882C35.9731 14.448 35.5012 14.6424 35.0643 14.554C34.6448 14.4657 34.2951 14.0944 34.0331 13.4046C33.8232 12.8564 33.7185 12.3082 33.7185 11.7953C33.7185 11.3533 33.7535 10.9112 33.8408 10.5045C33.9982 9.7794 34.2953 9.07196 34.7671 8.40004C35.344 7.53337 35.9557 7.17991 36.5848 7.30362C37.0044 7.39198 37.354 7.76346 37.616 8.45306C37.8258 9.00127 37.9306 9.54948 37.9306 10.0623C37.9306 10.5222 37.8957 10.9644 37.8083 11.371ZM29.0692 6.47247C28.4401 5.35838 27.4962 4.68646 26.2728 4.42102C25.9408 4.35032 25.6262 4.31498 25.3289 4.31498C23.6511 4.31498 22.2878 5.19915 21.2216 6.96766C20.3129 8.47073 19.8584 10.133 19.8584 11.9546C19.8584 13.3162 20.138 14.4834 20.6973 15.4561C21.3264 16.5702 22.2529 17.2421 23.4937 17.5073C23.8259 17.5782 24.1403 17.6136 24.4376 17.6136C26.1329 17.6136 27.4962 16.7294 28.5449 14.9609C29.4539 13.44 29.9082 11.7777 29.9082 9.9563C29.9082 8.57694 29.6285 7.42733 29.0692 6.47247ZM26.8496 11.371C26.6049 12.5381 26.1679 13.4046 25.5212 13.9882C25.0144 14.448 24.5424 14.6424 24.1054 14.554C23.686 14.4657 23.3365 14.0944 23.0742 13.4046C22.8646 12.8564 22.7598 12.3082 22.7598 11.7953C22.7598 11.3533 22.7947 10.9112 22.882 10.5045C23.0394 9.7794 23.3365 9.07196 23.8085 8.40004C24.3852 7.53337 24.9969 7.17991 25.626 7.30362C26.0456 7.39198 26.3953 7.76346 26.6573 8.45306C26.8672 9.00127 26.9718 9.54948 26.9718 10.0623C26.9895 10.5222 26.9369 10.9644 26.8496 11.371Z" fill="white"/>
</g>
<defs>
<clipPath id="clip0_112_877">
<rect width="43" height="26" fill="white"/>
</clipPath>
</defs>
</svg>
