<svg xmlns="http://www.w3.org/2000/svg" xmlns:xlink="http://www.w3.org/1999/xlink" width="46" height="46" viewBox="0 0 46 46">
  <defs>
    <clipPath id="clip-path">
      <rect id="Rectangle_14053" data-name="Rectangle 14053" width="46" height="46" transform="translate(3463 2673)" fill="red"/>
    </clipPath>
  </defs>
  <g id="Mask_Group_9087" data-name="Mask Group 9087" transform="translate(-3463 -2673)" clip-path="url(#clip-path)">
    <g id="_3rd_Party_API_Development" data-name="3rd Party API Development" transform="translate(3466.523 2676.523)">
      <rect id="Rectangle_14052" data-name="Rectangle 14052" width="38" height="38" transform="translate(0.477 0.477)" fill="rgba(255,255,255,0.01)"/>
      <path id="Path_38478" data-name="Path 38478" d="M18,20.18V8.869a4.869,4.869,0,0,1,9.738,0V10.5" transform="translate(-3.392 -0.754)" fill="none" stroke="#fff" stroke-linecap="round" stroke-width="4"/>
      <path id="Path_38479" data-name="Path 38479" d="M27.738,24V35.362a4.869,4.869,0,1,1-9.738,0V33.715" transform="translate(-3.392 -4.524)" fill="none" stroke="#fff" stroke-linecap="round" stroke-width="4"/>
      <path id="Path_38480" data-name="Path 38480" d="M20.231,27.738H8.856a4.869,4.869,0,0,1,0-9.738h1.627" transform="translate(-0.754 -3.392)" fill="none" stroke="#fff" stroke-linecap="round" stroke-width="4"/>
      <path id="Path_38481" data-name="Path 38481" d="M24,18H35.352a4.869,4.869,0,1,1,0,9.738h-1.56" transform="translate(-4.523 -3.392)" fill="none" stroke="#fff" stroke-linecap="round" stroke-width="4"/>
    </g>
  </g>
</svg>
