<svg xmlns="http://www.w3.org/2000/svg" width="51.906" height="59.807" viewBox="0 0 51.906 59.807">
  <g id="android" transform="translate(0 2.049)">
    <path id="Path_22269" data-name="Path 22269" d="M91.274,207.092a3.629,3.629,0,0,1,3.629,3.629v15.567a3.629,3.629,0,0,1-7.258,0V210.721a3.629,3.629,0,0,1,3.629-3.629Z" transform="translate(-73.507 -172.159)" fill="#a4c639"/>
    <path id="Path_22270" data-name="Path 22270" d="M69.308,133.645c-.012.138-.022.277-.022.417v23.586a4.532,4.532,0,0,0,4.5,4.58H97.772a4.532,4.532,0,0,0,4.5-4.58V134.062c0-.141-.005-.28-.017-.417Z" transform="translate(-59.826 -117.429)" fill="#a4c639"/>
    <path id="Path_22271" data-name="Path 22271" d="M66.3,106.986a3.629,3.629,0,0,1,3.629,3.629v15.567a3.629,3.629,0,0,1-7.258,0V110.615a3.629,3.629,0,0,1,3.629-3.629ZM35.793,90.369A3.629,3.629,0,0,1,39.422,94v15.567a3.629,3.629,0,0,1-7.258,0V94A3.629,3.629,0,0,1,35.793,90.369Zm44.648,0A3.629,3.629,0,0,1,84.07,94v15.567a3.629,3.629,0,0,1-7.258,0V94A3.629,3.629,0,0,1,80.441,90.369ZM41.752,86.721c.1-7.245,6.424-13.185,14.541-13.968H59.94c8.117.783,14.44,6.723,14.541,13.968Z" transform="translate(-32.164 -72.054)" fill="#a4c639"/>
    <path id="Path_22272" data-name="Path 22272" d="M74.743,70.009l3.828,6.631m26.378-6.631L101.12,76.64" transform="translate(-63.893 -70.009)" fill="none" stroke="#a4c639" stroke-linecap="round" stroke-linejoin="round" stroke-width="3"/>
    <path id="Path_22273" data-name="Path 22273" d="M103.9,96.71a1.878,1.878,0,0,1-3.755.01v-.01a1.878,1.878,0,0,1,3.755-.01Zm14.015,0a1.878,1.878,0,0,1-3.755.01v-.01a1.878,1.878,0,0,1,3.755-.01Z" transform="translate(-82.82 -88.535)" fill="#fff"/>
  </g>
</svg>
