<svg id="apple" xmlns="http://www.w3.org/2000/svg" width="50.322" height="61.727" viewBox="0 0 50.322 61.727">
  <path id="apple-2" data-name="apple" d="M27.765,5.372A13.211,13.211,0,0,1,37.459,0a13.181,13.181,0,0,1-3.19,9.867c-4.3,5.17-9.192,4.324-9.192,4.324S24.158,10.125,27.765,5.372Zm-2.173,12.34c2.086,0,5.959-2.868,11-2.868,8.676,0,12.089,6.174,12.089,6.174a13.4,13.4,0,0,0-6.676,11.695c0,9.343,8.316,12.562,8.316,12.562S44.508,61.636,36.656,61.636c-3.606,0-6.41-2.43-10.21-2.43-3.872,0-7.715,2.521-10.218,2.521C9.058,61.727,0,46.206,0,33.729,0,21.454,7.667,15.015,14.859,15.015c4.675,0,8.3,2.7,10.734,2.7Z" transform="translate(0 0)" fill="#999"/>
</svg>
