<svg xmlns="http://www.w3.org/2000/svg" xmlns:xlink="http://www.w3.org/1999/xlink" width="50" height="50" viewBox="0 0 50 50">
  <defs>
    <clipPath id="clip-path">
      <rect id="Rectangle_5659" data-name="Rectangle 5659" width="50" height="50" transform="translate(-281 4933)" fill="#fff"/>
    </clipPath>
  </defs>
  <g id="Mask_Group_9013" data-name="Mask Group 9013" transform="translate(281 -4933)" clip-path="url(#clip-path)">
    <g id="Group_11902" data-name="Group 11902" transform="translate(-279.333 4934.667)">
      <path id="Path_29695" data-name="Path 29695" d="M225.963,67.031a4.084,4.084,0,1,0,4.084,4.084,4.042,4.042,0,0,0-4.084-4.084Zm0,6.689a2.676,2.676,0,1,1,2.676-2.676A2.589,2.589,0,0,1,225.963,73.72Z" transform="translate(-209.271 -61.468)"/>
      <path id="Path_29696" data-name="Path 29696" d="M115.941,26.766l-5-6.267a2.232,2.232,0,0,0-.845-.563V3.881a.665.665,0,0,0-.7-.7H90.168L87.14.219a.681.681,0,0,0-.986,0L70.17,15.992a.66.66,0,0,0-.141.774.676.676,0,0,0,.634.422h1.62V39.44a.665.665,0,0,0,.7.7h27.321a.665.665,0,0,0,.7-.7V17.189h1.62a.665.665,0,0,0,.7-.7.869.869,0,0,0-.282-.563L91.646,4.584h17.041V20.005a1.8,1.8,0,0,0-.845.563l-4.929,6.2a2.094,2.094,0,0,0-.563,1.408v16.2a2.118,2.118,0,0,0,2.112,2.112h9.858a2.118,2.118,0,0,0,2.112-2.112v-16.2a2.269,2.269,0,0,0-.493-1.408ZM82.211,38.736V25.075h9.014V38.736Zm17.464,0H92.633V24.371a.665.665,0,0,0-.7-.7H81.508a.665.665,0,0,0-.7.7V38.736H73.762V17.188H99.674ZM72.354,15.78,86.648,1.7c5.07,5,9.295,9.154,14.294,14.083Zm42.672,28.588a.706.706,0,0,1-.7.7h-9.858a.706.706,0,0,1-.7-.7v-16.2a.76.76,0,0,1,.211-.493l4.929-6.2c.282-.282.634-.211.493-.211a.638.638,0,0,1,.493.211l5,6.267a.518.518,0,0,1,.141.422Z" transform="translate(-69.956 -0.008)"/>
      <path id="Path_29697" data-name="Path 29697" d="M513.248,302.746a2.887,2.887,0,1,0-2.887-2.887A2.9,2.9,0,0,0,513.248,302.746Zm0-4.3a1.479,1.479,0,1,1-1.478,1.479A1.487,1.487,0,0,1,513.248,298.451Z" transform="translate(-473.812 -272.327)"/>
      <path id="Path_29698" data-name="Path 29698" d="M496.322,408.12h-8.168a.7.7,0,1,0,0,1.408h8.168a.7.7,0,1,0,0-1.408Z" transform="translate(-452.802 -374.25)"/>
      <path id="Path_29699" data-name="Path 29699" d="M496.322,455.64h-8.168a.7.7,0,1,0,0,1.408h8.168a.665.665,0,0,0,.7-.7A.706.706,0,0,0,496.322,455.64Z" transform="translate(-452.802 -417.827)"/>
      <path id="Path_29700" data-name="Path 29700" d="M496.322,504h-8.168a.7.7,0,1,0,0,1.408h8.168a.7.7,0,1,0,0-1.408Z" transform="translate(-452.802 -462.173)"/>
    </g>
  </g>
</svg>
