<svg xmlns="http://www.w3.org/2000/svg" xmlns:xlink="http://www.w3.org/1999/xlink" width="46" height="46" viewBox="0 0 46 46">
  <defs>
    <clipPath id="clip-path">
      <rect id="Rectangle_14098" data-name="Rectangle 14098" width="46" height="46" transform="translate(158 3075)" fill="#fff"/>
    </clipPath>
  </defs>
  <g id="Mask_Group_9103" data-name="Mask Group 9103" transform="translate(-158 -3075)" clip-path="url(#clip-path)">
    <g id="icons" transform="translate(150.165 3066.89)">
      <g id="XMLID_150_" transform="translate(10.1 11.3)">
        <g id="XMLID_84_" transform="translate(0 11.498)">
          <path id="XMLID_107_" d="M30.835,35.093V32.831l-3.581-.471a8,8,0,0,0-.848-2.073l2.168-2.827-1.6-1.7L24.143,27.93a8,8,0,0,0-2.073-.848L21.6,23.5H19.336l-.471,3.581a8,8,0,0,0-2.073.848l-2.827-2.168-1.6,1.6,2.168,2.827a8,8,0,0,0-.848,2.073l-3.581.471V35l3.581.565a8,8,0,0,0,.848,2.073l-2.168,2.827,1.6,1.6L16.792,39.9a8,8,0,0,0,2.073.848l.471,3.581H21.6l.471-3.581a8,8,0,0,0,2.073-.848l2.827,2.168,1.6-1.6-2.168-2.827a8,8,0,0,0,.848-2.073Z" transform="translate(-10.1 -23.5)" fill="none" stroke="#fff" stroke-width="2"/>
          <circle id="XMLID_81_" cx="3.204" cy="3.204" r="3.204" transform="translate(7.069 7.257)" fill="none" stroke="#fff" stroke-width="2"/>
        </g>
        <path id="XMLID_93_" d="M53.663,46.738c0-4.9-7.163-3.676-7.163-3.676V11.3h3.581a3.58,3.58,0,0,1,3.581,3.581V46.738Z" transform="translate(-12.193 -11.3)" fill="none" stroke="#fff" stroke-width="2"/>
        <path id="XMLID_102_" d="M20.9,20.77V18.7A1.689,1.689,0,0,1,22.6,17H42.766" transform="translate(-10.721 -11.628)" fill="none" stroke="#fff" stroke-width="2"/>
        <path id="XMLID_96_" d="M52.2,42.3v5.749A4.023,4.023,0,0,1,48.144,52.1H22.7a1.689,1.689,0,0,1-1.7-1.7V47.672" transform="translate(-10.727 -13.083)" fill="none" stroke="#fff" stroke-width="2"/>
        <path id="XMLID_104_" d="M28.3,21a13.953,13.953,0,0,1,1.037,25.919" transform="translate(-11.147 -11.858)" fill="none" stroke="#fff" stroke-width="2" stroke-dasharray="1.986 1.986"/>
      </g>
    </g>
  </g>
</svg>
