<svg id="Component_195_1" data-name="Component 195 – 1" xmlns="http://www.w3.org/2000/svg" width="39.5" height="43.304" viewBox="0 0 39.5 43.304">
  <g id="Group_11493" data-name="Group 11493" transform="translate(0.25 0.25)">
    <path id="Path_29583" data-name="Path 29583" d="M113.7,115.079h10.844l-.823,5.736a3.329,3.329,0,0,0-2.911,3.3v.475h19.024v-.475a3.329,3.329,0,0,0-2.911-3.3l-.823-5.736h10.867a2.878,2.878,0,0,0,2.854-2.854V90.372a2.892,2.892,0,0,0-2.854-2.878.476.476,0,1,0,0,.951,1.931,1.931,0,0,1,1.9,1.926v19h-37.1v-19a1.931,1.931,0,0,1,1.9-1.926.476.476,0,1,0,0-.951,2.892,2.892,0,0,0-2.854,2.878v21.853a2.877,2.877,0,0,0,2.878,2.854Zm25.135,8.561H121.813a2.378,2.378,0,0,1,2.331-1.9h12.365a2.379,2.379,0,0,1,2.331,1.9Zm-2.878-2.854H124.691l.818-5.707h9.635Zm12.913-10.463v1.9a1.931,1.931,0,0,1-1.9,1.9H113.7a1.931,1.931,0,0,1-1.926-1.9v-1.9Z" transform="translate(-110.827 -81.787)" fill="#fff"/>
    <path id="Path_29583_-_Outline" data-name="Path 29583 - Outline" d="M140.089,124.841H120.565v-.725a3.587,3.587,0,0,1,2.94-3.52l.755-5.267H113.7a3.136,3.136,0,0,1-3.128-3.1V90.372a3.142,3.142,0,0,1,3.1-3.128.726.726,0,1,1,0,1.451,1.688,1.688,0,0,0-1.652,1.677v18.75h36.6V90.371a1.689,1.689,0,0,0-1.656-1.676.726.726,0,0,1,0-1.451,3.142,3.142,0,0,1,3.1,3.127v21.855a3.128,3.128,0,0,1-3.1,3.1H136.394l.755,5.267a3.587,3.587,0,0,1,2.94,3.519Zm-19.024-.5h18.524v-.226a3.085,3.085,0,0,0-2.692-3.053l-.189-.024-.891-6.21h11.156a2.639,2.639,0,0,0,2.6-2.606V90.372a2.642,2.642,0,0,0-2.607-2.628.226.226,0,0,0,0,.451,2.192,2.192,0,0,1,2.152,2.176v19.251h-37.6V90.372a2.191,2.191,0,0,1,2.148-2.176.226.226,0,1,0,0-.451,2.642,2.642,0,0,0-2.6,2.629v21.852a2.634,2.634,0,0,0,2.627,2.6v0h11.132l-.891,6.21-.189.024a3.085,3.085,0,0,0-2.692,3.053Zm17.627-.174-.057-.277H121.507l.061-.3a2.638,2.638,0,0,1,2.575-2.1h12.365a2.639,2.639,0,0,1,2.576,2.1l.026.126Zm-16.55-.777H138.51a2.139,2.139,0,0,0-2-1.4H124.144A2.138,2.138,0,0,0,122.143,123.39Zm14.108-2.354H124.4l.89-6.207h10.069Zm-11.271-.5h10.695l-.746-5.207h-9.2ZM113.7,114.378a2.192,2.192,0,0,1-2.176-2.149v-2.156h37.6v2.152a2.171,2.171,0,0,1-2.148,2.152Zm-1.676-3.8v1.652a1.689,1.689,0,0,0,1.677,1.653h33.268a1.672,1.672,0,0,0,1.652-1.656v-1.649Z" transform="translate(-110.827 -81.787)" fill="#fff"/>
    <path id="Path_29584" data-name="Path 29584" d="M188.414,44.134a.476.476,0,0,0,.475-.476V17.5H157.5V43.658a.476.476,0,1,0,.951,0V21.306h29.487V43.658a.476.476,0,0,0,.476.475Zm-29.963-23.78v-1.9h29.487v1.9Z" transform="translate(-153.695 -17.5)" fill="#fff"/>
    <path id="Path_29584_-_Outline" data-name="Path 29584 - Outline" d="M157.976,44.384a.726.726,0,0,1-.726-.726V17.25h31.89V43.658a.726.726,0,0,1-1.452,0v-22.1H158.7v22.1A.727.727,0,0,1,157.976,44.384ZM157.75,17.75V43.658a.226.226,0,1,0,.451,0v-22.6h29.987v22.6a.226.226,0,0,0,.452,0V17.75ZM188.188,20.6H158.2V18.2h29.987ZM158.7,20.1h28.987V18.7H158.7Z" transform="translate(-153.695 -17.5)" fill="#fff"/>
    <path id="Path_29585" data-name="Path 29585" d="M180.83,35h.82v.82h-.82Z" transform="translate(-175.123 -33.573)" fill="#fff"/>
    <path id="Path_29585-2" data-name="Path 29585" d="M180.83,35h.82v.82h-.82Z" transform="translate(-173.482 -33.573)" fill="#fff"/>
    <path id="Path_29585-3" data-name="Path 29585" d="M180.83,35h.82v.82h-.82Z" transform="translate(-171.842 -33.573)" fill="#fff"/>
  </g>
  <g id="Group_11492" data-name="Group 11492" transform="translate(9.017 10.551)">
    <path id="Path_29588" data-name="Path 29588" d="M187.147,246.8a.789.789,0,1,1,1.542.333l-1.994,9.136a.788.788,0,1,1-1.541-.333l1.994-9.135Zm3.949.756a.786.786,0,1,1,1.041-1.178l5.179,4.567a.786.786,0,0,1,.068,1.11.842.842,0,0,1-.074.074l-5.172,4.561a.786.786,0,0,1-1.041-1.178l4.511-3.979-4.511-3.978Zm-9.393-1.178a.786.786,0,0,1,1.041,1.178l-4.511,3.979,4.511,3.979a.786.786,0,0,1-1.041,1.178l-5.172-4.561a.727.727,0,0,1-.075-.074.786.786,0,0,1,.068-1.11l5.179-4.567Z" transform="translate(-176.259 -246.177)" fill="#fff"/>
    <path id="Path_29588_-_Outline" data-name="Path 29588 - Outline" d="M181.953,245.822v.143a1.036,1.036,0,0,1,.957,1.776l-4.3,3.791,4.3,3.791a1.036,1.036,0,1,1-1.372,1.552l-5.171-4.561a.959.959,0,0,1-.1-.1,1.036,1.036,0,0,1,.091-1.462Zm.27,10.815a.536.536,0,0,0,.355-.937l-4.723-4.166,4.723-4.166a.536.536,0,0,0-.71-.8l-.416.367v0l-4.763,4.2a.536.536,0,0,0-.046.757.483.483,0,0,0,.05.05l5.175,4.564A.535.535,0,0,0,182.224,256.637Zm5.693-10.709a1.039,1.039,0,0,1,1.016,1.258l-1.994,9.137a1.038,1.038,0,0,1-2.03-.439l1.994-9.136A1.044,1.044,0,0,1,187.917,245.927Zm-1.992,10.713a.541.541,0,0,0,.526-.425l1.994-9.137a.539.539,0,0,0-1.048-.246l0,.02-1.994,9.135a.539.539,0,0,0,.527.652Zm5.692-10.71a1.035,1.035,0,0,1,.686.26l5.179,4.567a1.036,1.036,0,0,1,.09,1.464,1.093,1.093,0,0,1-.1.1l-5.171,4.561a1.036,1.036,0,0,1-1.372-1.552l4.3-3.792-4.3-3.795a1.036,1.036,0,0,1,.689-1.809Zm0,10.708a.535.535,0,0,0,.355-.135l5.172-4.561a.592.592,0,0,0,.052-.052.536.536,0,0,0-.046-.758l-5.179-4.567a.536.536,0,1,0-.71.8l0,0,4.72,4.163-4.723,4.167a.536.536,0,0,0,.356.937Z" transform="translate(-176.259 -246.177)" fill="#fff"/>
  </g>
</svg>
