<svg xmlns="http://www.w3.org/2000/svg" width="38.599" height="40.143" viewBox="0 0 38.599 40.143">
  <path id="Barbershop" d="M18.44,3a9.266,9.266,0,0,0-3.763.965A7.365,7.365,0,0,0,10.72,10.72V32.914A5.2,5.2,0,0,0,8.4,32.335a5.4,5.4,0,1,0,5.356,6.176h.048V27.7L16.9,30.019v8.492h.048A5.407,5.407,0,1,0,22.3,32.335a5.2,5.2,0,0,0-2.316.579V3Zm7.72,0V6.088h6.176V7.632H26.159V10.72h6.176v1.544H26.159v3.088h6.176V16.9H26.159v3.088h6.176v1.544H26.159v3.088h6.176v1.544H26.159v3.088h6.176v13.9H41.6V3H26.159Zm9.264,3.088h3.088V40.055H35.423ZM16.9,6.474V26.159l-3.088-2.316V10.72c0-2.528,1.036-3.406,2.219-4A2.591,2.591,0,0,1,16.9,6.474ZM8.4,35.423a2.316,2.316,0,1,1-2.316,2.316A2.293,2.293,0,0,1,8.4,35.423Zm13.9,0a2.316,2.316,0,1,1-2.316,2.316A2.293,2.293,0,0,1,22.3,35.423Z" transform="translate(-3 -3)" fill="#fff"/>
</svg>
