<svg id="Component_123_10" data-name="Component 123 – 10" xmlns="http://www.w3.org/2000/svg" xmlns:xlink="http://www.w3.org/1999/xlink" width="40.414" height="27.848" viewBox="0 0 40.414 27.848">
  <defs>
    <clipPath id="clip-path">
      <rect id="Rectangle_2960" data-name="Rectangle 2960" width="40.414" height="27.848" fill="none"/>
    </clipPath>
  </defs>
  <path id="Path_18449" data-name="Path 18449" d="M9.44,0,.95,6.634,0,16.7l7.044,8.239,31.025,2.907L40.413,2.959Z" transform="translate(0 0)" fill="#050605"/>
  <path id="Path_18450" data-name="Path 18450" d="M5.045,10.837,13.227,4.51l30.205,2.9L41.2,31.227l-30.308-2.9L4.1,20.446Z" transform="translate(-3.584 -3.945)" fill="#ffe600" fill-rule="evenodd"/>
  <path id="Path_18451" data-name="Path 18451" d="M118.657,46.078l6.856.655-.2,2.054-3.088-.3-.063.661,2.817.269-.181,1.883-2.8-.266-.071.747,3.157.3L124.9,54.04l-6.906-.661Z" transform="translate(-103.221 -40.309)" fill="#050605" fill-rule="evenodd"/>
  <g id="Group_9854" data-name="Group 9854" transform="translate(0 0)">
    <g id="Group_9853" data-name="Group 9853" clip-path="url(#clip-path)">
      <path id="Path_18452" data-name="Path 18452" d="M177.158,58.536l-1.3,1.913a11.033,11.033,0,0,0,3.89,1.073c2.257.2,3.912-.447,4.443-1.528a1.918,1.918,0,0,0-1.15-2.644c-1.047-.339-2.862-.7-2.673-1.06s1.328-.284,2.02,0a3.466,3.466,0,0,1,.881.461l1.191-1.7a7.244,7.244,0,0,0-3.632-1.066c-2.368-.14-4.109,1.045-4.23,2.147s.586,1.752,1.662,2.146c0,0,.913.294,1.6.444s1.125.6.3.766a4.641,4.641,0,0,1-3.009-.955" transform="translate(-153.843 -47.219)" fill="#050605" fill-rule="evenodd"/>
      <path id="Path_18453" data-name="Path 18453" d="M247.384,60.618l-2.018-.192.226-2.376,7.773.742-.226,2.376-2.02-.194-.471,4.938-3.685-.352Z" transform="translate(-214.646 -50.782)" fill="#050605" fill-rule="evenodd"/>
      <path id="Path_18454" data-name="Path 18454" d="M124.718,112.723l3.567.323-.379,4.143s-.352.994.836,1.108a.922.922,0,0,0,1.136-.955l.39-4.09,3.581.342-.46,4.82s-.423,2.631-4.8,2.213-4.319-3.186-4.319-3.186Z" transform="translate(-108.709 -98.61)" fill="#050605" fill-rule="evenodd"/>
      <path id="Path_18455" data-name="Path 18455" d="M204.654,120.177l1.023,2.015L207,120.4l4.157.4-3.878,3.843-.3,3.139-3.648-.348.294-3.088-3.11-4.545Z" transform="translate(-175.407 -104.799)" fill="#050605" fill-rule="evenodd"/>
      <path id="Path_18456" data-name="Path 18456" d="M57.837,110.039a1.828,1.828,0,0,0,1.463-1.829c-.039-1.536-3.1-1.917-3.1-1.917l-5.059-.5-.691,7.326s4.038.424,5.214.519,3.546-.007,3.78-1.521-1.6-2.076-1.6-2.076m-3.454-2.1s1.554-.143,1.468.586-1.563.4-1.563.4Zm-.324,3.736.081-1.191s1.942-.073,1.879.761-1.96.429-1.96.429" transform="translate(-44.131 -92.546)" fill="#050605" fill-rule="evenodd"/>
      <path id="Path_18457" data-name="Path 18457" d="M51.936,43a1.828,1.828,0,0,0,1.463-1.83c-.039-1.534-3.1-1.918-3.1-1.918l-5.061-.5-.689,7.326s4.038.424,5.212.518,3.546,0,3.78-1.52S51.936,43,51.936,43m-3.423-2.078s1.555-.142,1.47.586-1.563.4-1.563.4Zm-.323,3.738.081-1.192s1.941-.071,1.88.763-1.96.429-1.96.429" transform="translate(-38.969 -33.897)" fill="#050605"/>
      <path id="Path_18458" data-name="Path 18458" d="M16.764,87.235a1.374,1.374,0,1,1-1.236-1.5,1.374,1.374,0,0,1,1.236,1.5" transform="translate(-12.266 -74.997)" fill="#050605"/>
      <path id="Path_18459" data-name="Path 18459" d="M19.795,90.72a.869.869,0,1,1-.782-.949.869.869,0,0,1,.782.949" transform="translate(-15.799 -78.529)" fill="#fff"/>
      <path id="Path_18460" data-name="Path 18460" d="M285.718,129.782a.592.592,0,1,1,.532.645.591.591,0,0,1-.532-.645m1.032.1a.447.447,0,1,0-.49.432.451.451,0,0,0,.49-.432m-.639-.4.247.024c.161.015.242.079.229.219a.168.168,0,0,1-.192.163l.152.308-.129-.011-.144-.3-.076-.006-.028.287-.124-.011Zm.1.3.108.011c.074.007.139,0,.147-.087s-.061-.1-.126-.1l-.111-.011Z" transform="translate(-249.944 -113.065)" fill="#050605"/>
    </g>
  </g>
</svg>
