<svg xmlns="http://www.w3.org/2000/svg" xmlns:xlink="http://www.w3.org/1999/xlink" width="46" height="46" viewBox="0 0 46 46">
  <defs>
    <clipPath id="clip-path">
      <rect id="Rectangle_7226" data-name="Rectangle 7226" width="46" height="46" transform="translate(1807 3330)" fill="#fff"/>
    </clipPath>
    <clipPath id="clip-path-2">
      <rect id="Rectangle_7225" data-name="Rectangle 7225" width="46" height="44.374" fill="#fff"/>
    </clipPath>
  </defs>
  <g id="Mask_Group_9003" data-name="Mask Group 9003" transform="translate(-1807 -3330)" clip-path="url(#clip-path)">
    <g id="Group_17387" data-name="Group 17387" transform="translate(1807 3333.625)">
      <g id="Group_17386" data-name="Group 17386" transform="translate(0 -2.625)" clip-path="url(#clip-path-2)">
        <path id="Path_31422" data-name="Path 31422" d="M13.572,23.437v3.582h6.572V39.4H4.268l.01-12.376h6.561V23.437Zm.627-2.768H10.213a2.267,2.267,0,0,0-2.142,2.388v1.194H3.641a2.259,2.259,0,0,0-2.13,2.389L1.5,39.776a2.267,2.267,0,0,0,2.141,2.388H20.77a2.267,2.267,0,0,0,2.142-2.388V26.64a2.268,2.268,0,0,0-2.142-2.389H16.34V23.057A2.267,2.267,0,0,0,14.2,20.669" transform="translate(0.346 0.826)" fill="#fff"/>
        <rect id="Rectangle_7223" data-name="Rectangle 7223" width="3.019" height="3.09" transform="translate(10.58 30.1)" fill="#fff"/>
        <path id="Line_136" data-name="Line 136" d="M20.631,1.5H0v-3H20.631Z" transform="translate(1.774 35.579)" fill="#fff"/>
        <path id="Line_137" data-name="Line 137" d="M9.132,1.5H0v-3H9.132Z" transform="translate(7.524 26.459)" fill="#fff"/>
        <path id="Path_31423" data-name="Path 31423" d="M9.913,15a1.5,1.5,0,0,1-1.061-2.561l4.8-4.8L8.571,2.561A1.5,1.5,0,1,1,10.692.439l7.2,7.2-6.917,6.918A1.5,1.5,0,0,1,9.913,15Z" transform="translate(0.058 3.249)" fill="#fff"/>
        <path id="Path_31424" data-name="Path 31424" d="M37.218,4.268V7.85H43.79V20.227H27.914l.01-12.376h6.561V4.268ZM37.845,1.5H33.859a2.267,2.267,0,0,0-2.142,2.388V5.082h-4.43a2.258,2.258,0,0,0-2.13,2.389l-.011,13.136a2.267,2.267,0,0,0,2.141,2.388H44.416a2.267,2.267,0,0,0,2.142-2.388V7.471a2.268,2.268,0,0,0-2.142-2.389h-4.43V3.888A2.267,2.267,0,0,0,37.845,1.5" transform="translate(-2.077 -1.5)" fill="#fff"/>
        <rect id="Rectangle_7224" data-name="Rectangle 7224" width="3.019" height="3.09" transform="translate(32.4 8.605)" fill="#fff"/>
        <path id="Line_138" data-name="Line 138" d="M20.631,1.5H0v-3H20.631Z" transform="translate(23.594 14.084)" fill="#fff"/>
        <path id="Line_139" data-name="Line 139" d="M9.132,1.5H0v-3H9.132Z" transform="translate(29.344 4.965)" fill="#fff"/>
        <path id="Path_31425" data-name="Path 31425" d="M39.415,43.894a1.5,1.5,0,0,1-1.061-.439l-7.2-7.2,6.917-6.918a1.5,1.5,0,1,1,2.121,2.121l-4.8,4.8,5.078,5.078a1.5,1.5,0,0,1-1.061,2.561Z" transform="translate(-2.364 -2.744)" fill="#fff"/>
      </g>
    </g>
  </g>
</svg>
