<svg id="Component_197_1" data-name="Component 197 – 1" xmlns="http://www.w3.org/2000/svg" width="50.162" height="43.001" viewBox="0 0 50.162 43.001">
  <path id="Path_31426" data-name="Path 31426" d="M37.38,11.384a1.247,1.247,0,0,1,1.246,1.246V39.085a1.248,1.248,0,0,1-1.246,1.247H3.618a1.248,1.248,0,0,1-1.246-1.247V12.629a1.247,1.247,0,0,1,1.246-1.246Zm0-2.373H3.618A3.619,3.619,0,0,0,0,12.629V39.085A3.619,3.619,0,0,0,3.618,42.7H37.38A3.619,3.619,0,0,0,41,39.085V12.629A3.619,3.619,0,0,0,37.38,9.011" transform="translate(0.2 0.097)" fill="#fff"/>
  <path id="Path_31426_-_Outline" data-name="Path 31426 - Outline" d="M37.38,42.9H3.618A3.823,3.823,0,0,1-.2,39.085V12.629A3.823,3.823,0,0,1,3.618,8.811H37.38A3.823,3.823,0,0,1,41.2,12.629V39.085A3.823,3.823,0,0,1,37.38,42.9ZM3.618,9.211A3.422,3.422,0,0,0,.2,12.629V39.085A3.423,3.423,0,0,0,3.618,42.5H37.38A3.423,3.423,0,0,0,40.8,39.085V12.629A3.422,3.422,0,0,0,37.38,9.211ZM37.38,40.531H3.618a1.448,1.448,0,0,1-1.446-1.447V12.629a1.447,1.447,0,0,1,1.446-1.446H37.38a1.447,1.447,0,0,1,1.446,1.446V39.085A1.448,1.448,0,0,1,37.38,40.531ZM3.618,11.584a1.047,1.047,0,0,0-1.046,1.046V39.085a1.047,1.047,0,0,0,1.046,1.047H37.38a1.047,1.047,0,0,0,1.046-1.047V12.629a1.047,1.047,0,0,0-1.046-1.046Z" transform="translate(0.2 0.097)" fill="#fff"/>
  <path id="Line_140" data-name="Line 140" d="M38.75,1.2H0V-1.2H38.75Z" transform="translate(1.324 19.133)" fill="#fff"/>
  <path id="Path_31427" data-name="Path 31427" d="M5.953,13.662A1.055,1.055,0,1,1,4.9,12.606a1.056,1.056,0,0,1,1.056,1.056" transform="translate(1.156 1.057)" fill="#fff"/>
  <path id="Path_31428" data-name="Path 31428" d="M11.879,13.662a1.056,1.056,0,1,1-1.056-1.056,1.056,1.056,0,0,1,1.056,1.056" transform="translate(1.089 1.057)" fill="#fff"/>
  <path id="Path_31429" data-name="Path 31429" d="M46.245,2.373A1.247,1.247,0,0,1,47.49,3.618V30.074a1.248,1.248,0,0,1-1.246,1.247H12.483a1.248,1.248,0,0,1-1.246-1.247V3.618a1.247,1.247,0,0,1,1.246-1.246Zm0-2.373H12.483A3.619,3.619,0,0,0,8.865,3.618V30.074a3.619,3.619,0,0,0,3.618,3.619H46.245a3.619,3.619,0,0,0,3.618-3.619V3.618A3.619,3.619,0,0,0,46.245,0" transform="translate(0.099 0.2)" fill="#fff"/>
  <path id="Path_31429_-_Outline" data-name="Path 31429 - Outline" d="M46.245,33.893H12.483a3.823,3.823,0,0,1-3.818-3.819V3.618A3.823,3.823,0,0,1,12.483-.2H46.245a3.823,3.823,0,0,1,3.818,3.818V30.074A3.823,3.823,0,0,1,46.245,33.893ZM12.483.2A3.422,3.422,0,0,0,9.065,3.618V30.074a3.423,3.423,0,0,0,3.418,3.419H46.245a3.423,3.423,0,0,0,3.418-3.419V3.618A3.422,3.422,0,0,0,46.245.2ZM46.245,31.52H12.483a1.448,1.448,0,0,1-1.446-1.447V3.618a1.447,1.447,0,0,1,1.446-1.446H46.245A1.447,1.447,0,0,1,47.69,3.618V30.074A1.448,1.448,0,0,1,46.245,31.52ZM12.483,2.573a1.047,1.047,0,0,0-1.046,1.046V30.074a1.047,1.047,0,0,0,1.046,1.047H46.245a1.047,1.047,0,0,0,1.046-1.047V3.618a1.047,1.047,0,0,0-1.046-1.046Z" transform="translate(0.099 0.2)" fill="#fff"/>
  <path id="Path_31430" data-name="Path 31430" d="M14.921,4.66A1.056,1.056,0,1,1,13.865,3.6,1.056,1.056,0,0,1,14.921,4.66" transform="translate(1.054 1.159)" fill="#fff"/>
  <path id="Path_31431" data-name="Path 31431" d="M17.883,4.66A1.056,1.056,0,1,1,16.827,3.6,1.056,1.056,0,0,1,17.883,4.66" transform="translate(1.021 1.159)" fill="#fff"/>
  <path id="Path_31432" data-name="Path 31432" d="M20.846,4.66A1.056,1.056,0,1,1,19.79,3.6,1.056,1.056,0,0,1,20.846,4.66" transform="translate(0.987 1.159)" fill="#fff"/>
  <path id="Line_141" data-name="Line 141" d="M38.75,1.4H0V-1.4H38.75Z" transform="translate(10.082 10.224)" fill="#fff"/>
  <path id="Path_31433" data-name="Path 31433" d="M21.983,12.412c-.375,0-.7.435-.7,1.032v3.1c-4.85,0-10.442,2.673-12.4,6.7,0,4.1.012,4.6.018,4.6l0-.05,1.961,4.389c0-4.214,6.088-9.755,10.422-9.755v3.405c0,.6.324,1.031.7,1.031a.621.621,0,0,0,.437-.206l6.81-6.192a1.255,1.255,0,0,0,0-1.651l-6.81-6.192a.625.625,0,0,0-.437-.206" transform="translate(0.099 1.307)" fill="#fff"/>
</svg>
