<svg id="business_center_black_24dp" xmlns="http://www.w3.org/2000/svg" width="76" height="76" viewBox="0 0 76 76">
  <path id="Path_29628" data-name="Path 29628" d="M0,0H76V76H0ZM31.667,15.833H44.333v6.333H31.667Zm0,0H44.333v6.333H31.667Z" fill="none"/>
  <path id="Path_29629" data-name="Path 29629" d="M28.6,47.6V44.167H5.358L5.325,57.889a6.735,6.735,0,0,0,6.65,6.861h46.55a6.735,6.735,0,0,0,6.65-6.861V44.167H41.9V47.6ZM61.85,16.722H48.517V9.861L41.867,3h-13.3l-6.65,6.861v6.861H8.65A6.778,6.778,0,0,0,2,23.583V33.875a6.735,6.735,0,0,0,6.65,6.861H28.6V33.875H41.9v6.861H61.85a6.778,6.778,0,0,0,6.65-6.861V23.583A6.778,6.778,0,0,0,61.85,16.722Zm-19.95,0H28.6V9.861H41.9Z" transform="translate(2.75 4.125)" fill="#fd581b"/>
</svg>
