<svg xmlns="http://www.w3.org/2000/svg" width="36.078" height="35.828" viewBox="0 0 36.078 35.828">
  <path id="local_taxi_FILL0_wght400_GRAD0_opsz48" d="M10.009,37.868v2.706a1.457,1.457,0,0,1-1.5,1.5h-1a1.457,1.457,0,0,1-1.5-1.5V24.339l4.259-12.828a1.687,1.687,0,0,1,.777-1.1,2.5,2.5,0,0,1,1.378-.4h6.364V6.25H29.4v3.758h6.264a2.5,2.5,0,0,1,1.378.4,1.687,1.687,0,0,1,.777,1.1l4.259,12.828V40.574a1.457,1.457,0,0,1-1.5,1.5H39.523a1.457,1.457,0,0,1-1.5-1.5V37.868Zm.15-16.536h27.76l-2.756-8.318H12.915ZM9.007,24.339v0Zm5.312,8.017a2.577,2.577,0,0,0,1.929-.8,2.643,2.643,0,0,0,.777-1.9,2.79,2.79,0,0,0-.777-1.979,2.539,2.539,0,0,0-1.929-.827,2.823,2.823,0,0,0-2.806,2.806,2.539,2.539,0,0,0,.827,1.929A2.79,2.79,0,0,0,14.318,32.357Zm19.492,0a2.743,2.743,0,0,0,1.979-.8,2.563,2.563,0,0,0,.827-1.9,2.823,2.823,0,0,0-2.806-2.806,2.539,2.539,0,0,0-1.929.827,2.79,2.79,0,0,0-.777,1.979,2.577,2.577,0,0,0,.8,1.929A2.643,2.643,0,0,0,33.81,32.357Zm-24.8,2.505H39.072V24.339H9.007Z" transform="translate(-6 -6.25)" fill="#fff"/>
</svg>
