<svg xmlns="http://www.w3.org/2000/svg" width="36.111" height="39.643" viewBox="0 0 36.111 39.643">
  <g id="Group_10367" data-name="Group 10367" transform="translate(-20 -24.004)">
    <path id="Path_19228" data-name="Path 19228" d="M73.852,19.265v26.7a1.366,1.366,0,0,1-1.365,1.365H53.465A1.366,1.366,0,0,1,52.1,45.96v-26.7A1.366,1.366,0,0,1,53.465,17.9H72.486A1.366,1.366,0,0,1,73.852,19.265Z" transform="translate(-17.74 6.104)" fill="#81c5d6"/>
    <path id="Path_19229" data-name="Path 19229" d="M59.545,28.593H52.2V19.742a1.182,1.182,0,0,1,.377-.942Z" transform="translate(-17.793 5.628)" fill="#29a4c3"/>
    <path id="Path_19230" data-name="Path 19230" d="M43.352,39.6V67.66a1.366,1.366,0,0,1-1.365,1.365H22.965A1.366,1.366,0,0,1,21.6,67.66v-26.7A1.366,1.366,0,0,1,22.965,39.6Z" transform="translate(-1.6 -5.379)" fill="#fff"/>
    <path id="Path_19231" data-name="Path 19231" d="M43.4,67.8l-5.226,6.591-1.93,2.448L32.529,81.5,28.856,76.84l-1.93-2.448L21.7,67.8v4.9L25,76.84l-3.3,4.143v1.6a1.366,1.366,0,0,0,1.365,1.365h.188l3.719-4.661,3.719,4.661h3.861l3.719-4.661,3.719,4.661h.094a1.366,1.366,0,0,0,1.365-1.365v-1.6l-3.3-4.143,3.3-4.143V67.8Z" transform="translate(-1.653 -20.302)" fill="#91e9fe"/>
    <path id="Path_19232" data-name="Path 19232" d="M44.694,66.7l-.094.094h.141Z" transform="translate(-13.771 -19.72)" fill="#51bdff"/>
    <ellipse id="Ellipse_218" data-name="Ellipse 218" cx="3.908" cy="0.847" rx="3.908" ry="0.847" transform="translate(27.015 50.652)" fill="#29a4c3"/>
    <path id="Path_19233" data-name="Path 19233" d="M42.411,55.746,38.5,60.077a.683.683,0,0,1-.989,0l-3.908-4.331A5.956,5.956,0,0,1,32.1,51.838h0A5.807,5.807,0,0,1,37.938,46h.047a5.807,5.807,0,0,1,5.838,5.838h0A5.235,5.235,0,0,1,42.411,55.746Z" transform="translate(-7.156 -8.766)" fill="#81c5d6"/>
    <circle id="Ellipse_219" data-name="Ellipse 219" cx="2.919" cy="2.919" r="2.919" transform="translate(28.004 40.153)" fill="#29a4c3"/>
    <path id="Path_19234" data-name="Path 19234" d="M81.581,38.053H73.2a.794.794,0,0,1-.8-.8V26.8a.794.794,0,0,1,.8-.8h8.38a.794.794,0,0,1,.8.8v10.4A.835.835,0,0,1,81.581,38.053Z" transform="translate(-27.896 1.818)" fill="#fff"/>
    <path id="Path_19235" data-name="Path 19235" d="M73.524,60.342H81.9a.464.464,0,0,0,.424-.471A.435.435,0,0,0,81.9,59.4h-8.38a.473.473,0,0,0,0,.942Z" transform="translate(-28.596 -15.857)" fill="#fff"/>
    <path id="Path_19236" data-name="Path 19236" d="M81.951,65H73.524a.464.464,0,0,0-.424.471.435.435,0,0,0,.424.471H81.9a.464.464,0,0,0,.424-.471A.379.379,0,0,0,81.951,65Z" transform="translate(-28.596 -18.821)" fill="#fff"/>
    <path id="Path_19237" data-name="Path 19237" d="M81.951,70.6H73.524a.464.464,0,0,0-.424.471.435.435,0,0,0,.424.471H81.9a.464.464,0,0,0,.424-.471A.379.379,0,0,0,81.951,70.6Z" transform="translate(-28.596 -21.784)" fill="#fff"/>
  </g>
</svg>
