<svg xmlns="http://www.w3.org/2000/svg" width="38.875" height="37.487" viewBox="0 0 38.875 37.487">
  <g id="_x31_286_x2C__Blackboard_x2C__Conference_x2C__Education_x2C__Presentation_x2C__Teacher" transform="translate(-16 -16)">
    <g id="Group_10368" data-name="Group 10368" transform="translate(16 16)">
      <path id="XMLID_55974_" d="M87.339,190.589V197.8H76v-7.212c0-2.535,2.538-4.589,5.669-4.589a6.386,6.386,0,0,1,4.009,1.344A4.192,4.192,0,0,1,87.339,190.589Z" transform="translate(-71.141 -172.232)" fill="#fff"/>
      <path id="XMLID_55976_" d="M54.065,42.379H32.2a.736.736,0,1,1,0-1.466H53.255V17.466H17.62V40.914h3.24a.736.736,0,1,1,0,1.466H16.81a.774.774,0,0,1-.81-.733V16.733A.774.774,0,0,1,16.81,16H54.065a.774.774,0,0,1,.81.733V41.647A.774.774,0,0,1,54.065,42.379Z" transform="translate(-16 -16)" fill="#fff"/>
      <path id="XMLID_55977_" d="M30.049,404.1a4.049,4.049,0,1,1,4.049-4.049A4.054,4.054,0,0,1,30.049,404.1Z" transform="translate(-25.19 -366.612)" fill="#fff"/>
      <path id="XMLID_55980_" d="M150.049,404.1a4.049,4.049,0,1,1,4.049-4.049A4.054,4.054,0,0,1,150.049,404.1Z" transform="translate(-135.471 -366.612)" fill="#fff"/>
      <path id="XMLID_55983_" d="M270.049,404.1a4.049,4.049,0,1,1,4.049-4.049A4.054,4.054,0,0,1,270.049,404.1Z" transform="translate(-245.753 -366.612)" fill="#fff"/>
      <path id="XMLID_55986_" d="M390.049,404.1a4.049,4.049,0,1,1,4.049-4.049A4.054,4.054,0,0,1,390.049,404.1Z" transform="translate(-356.034 -366.612)" fill="#fff"/>
      <path id="XMLID_55989_" d="M285.909,67.62h-9.29a.839.839,0,0,1,0-1.62h9.29a.839.839,0,0,1,0,1.62Z" transform="translate(-251.703 -61.95)" fill="#fff"/>
      <path id="XMLID_55990_" d="M285.909,117.62h-9.29a.839.839,0,0,1,0-1.62h9.29a.839.839,0,0,1,0,1.62Z" transform="translate(-251.703 -107.901)" fill="#fff"/>
      <path id="XMLID_55991_" d="M285.909,167.62h-9.29a.839.839,0,0,1,0-1.62h9.29a.839.839,0,0,1,0,1.62Z" transform="translate(-251.703 -153.852)" fill="#fff"/>
      <path id="XMLID_55992_" d="M285.909,217.62h-9.29a.839.839,0,0,1,0-1.62h9.29a.839.839,0,0,1,0,1.62Z" transform="translate(-251.703 -199.802)" fill="#fff"/>
      <path id="XMLID_55993_" d="M285.909,267.62h-9.29a.839.839,0,0,1,0-1.62h9.29a.839.839,0,0,1,0,1.62Z" transform="translate(-251.703 -245.753)" fill="#fff"/>
      <path id="XMLID_55995_" d="M78.148,189.426H66.81a.75.75,0,0,1-.81-.671V181.37c0-2.961,2.907-5.37,6.479-5.37a7.169,7.169,0,0,1,4.581,1.573,4.923,4.923,0,0,1,1.9,3.8v7.384A.75.75,0,0,1,78.148,189.426ZM67.62,188.083h9.719V181.37a3.693,3.693,0,0,0-1.423-2.848,5.378,5.378,0,0,0-3.436-1.179c-2.679,0-4.859,1.807-4.859,4.028Z" transform="translate(-61.951 -163.042)" fill="#fff"/>
      <path id="XMLID_55998_" d="M90.859,85.719a4.859,4.859,0,1,1,4.859-4.859A4.865,4.865,0,0,1,90.859,85.719Zm0-8.1a3.24,3.24,0,1,0,3.24,3.24A3.243,3.243,0,0,0,90.859,77.62Z" transform="translate(-80.331 -71.141)" fill="#fff"/>
      <path id="XMLID_56001_" d="M206.809,200.047a.81.81,0,0,1-.417-1.5l4.05-2.43a.81.81,0,1,1,.833,1.389l-4.049,2.43A.806.806,0,0,1,206.809,200.047Z" transform="translate(-190.61 -181.42)" fill="#fff"/>
    </g>
  </g>
</svg>
