<svg xmlns="http://www.w3.org/2000/svg" xmlns:xlink="http://www.w3.org/1999/xlink" width="46" height="46" viewBox="0 0 46 46">
  <defs>
    <clipPath id="clip-path">
      <rect id="Rectangle_14094" data-name="Rectangle 14094" width="46" height="46" transform="translate(3463 2805)" fill="red"/>
    </clipPath>
  </defs>
  <g id="Mask_Group_9099" data-name="Mask Group 9099" transform="translate(-3463 -2805)" clip-path="url(#clip-path)">
    <g id="Layer_2" data-name="Layer 2" transform="translate(3467 2809)">
      <g id="Layer_1" data-name="Layer 1" transform="translate(0 0)">
        <path id="custom_coding" data-name="custom coding" d="M36.747,5.5H33.795V.59A.59.59,0,0,0,33.209,0H5.7A.59.59,0,0,0,5.1.59V5.5H2.161A2.165,2.165,0,0,0,0,7.664V32.035A2.165,2.165,0,0,0,2.161,34.2h9.632v3.538H7.664a.59.59,0,1,0,0,1.178H31.25a.59.59,0,0,0,0-1.178H27.117V34.2h9.63a2.165,2.165,0,0,0,2.161-2.161V7.664A2.165,2.165,0,0,0,36.747,5.5Zm0,1.179a.982.982,0,0,1,.982.982V28.3H33.795V6.689ZM6.287,1.179H32.619V28.3H6.287ZM1.179,7.664a.982.982,0,0,1,.982-.975H5.1V28.3H1.179Zm24.76,30.067H12.969V34.193H25.939Zm11.793-5.7a.982.982,0,0,1-.982.982H2.161a.982.982,0,0,1-.982-.979V29.477h36.55ZM29.254,6.689H9.653a.59.59,0,0,1,0-1.179h19.6a.59.59,0,1,1,0,1.179ZM23.38,2.918a.6.6,0,0,1-.415,1.014C21.859,3.827,22.514,2.237,23.38,2.918Zm2.728-.165a.59.59,0,1,1-.59.59.59.59,0,0,1,.59-.59Zm3.561.165a.6.6,0,0,1-.417,1.014C28.147,3.827,28.8,2.237,29.669,2.918Zm-7.315,9.426-4.717,11a.593.593,0,1,1-1.091-.466l4.715-11a.59.59,0,1,1,1.084.465ZM14.9,14.516l-3.443,3.1,3.443,3.1a.591.591,0,0,1-.789.88l-3.93-3.538a.59.59,0,0,1,0-.88l3.93-3.538a.591.591,0,0,1,.789.88Zm13.815,2.66a.591.591,0,0,1,0,.88l-3.93,3.536a.591.591,0,0,1-.789-.88l3.445-3.1L24,14.514a.591.591,0,0,1,.789-.88Z" transform="translate(0 0)" fill="#fff" stroke="#fff" stroke-width="1"/>
      </g>
    </g>
  </g>
</svg>
