<svg xmlns="http://www.w3.org/2000/svg" width="42.715" height="31.017" viewBox="0 0 42.715 31.017">
  <path id="local_shipping_FILL1_wght400_GRAD0_opsz48" d="M10.931,39.017a5.562,5.562,0,0,1-4.053-1.65A5.5,5.5,0,0,1,5.2,33.289H4.912a2.809,2.809,0,0,1-2.063-.849A2.809,2.809,0,0,1,2,30.377V10.912a2.794,2.794,0,0,1,.874-2.039A2.794,2.794,0,0,1,4.912,8H30.1a2.9,2.9,0,0,1,2.912,2.912v5.194h4.369a1.5,1.5,0,0,1,.68.146,1.252,1.252,0,0,1,.485.437L44.424,24.5a1.42,1.42,0,0,1,.291.874v6.456a1.411,1.411,0,0,1-1.456,1.456h-1.99a5.5,5.5,0,0,1-1.675,4.077,5.8,5.8,0,0,1-8.106,0,5.5,5.5,0,0,1-1.675-4.077H16.659a5.5,5.5,0,0,1-1.675,4.077A5.562,5.562,0,0,1,10.931,39.017Zm0-2.912A2.815,2.815,0,1,0,8.941,31.3a2.815,2.815,0,0,0,1.99,4.805Zm24.61,0a2.817,2.817,0,1,0-1.99-.825A2.712,2.712,0,0,0,35.541,36.1Zm-2.524-9.9h9.028l-5.388-7.184H33.017Z" transform="translate(-2 -8)" fill="#fff"/>
</svg>
