<svg id="Component_194_1" data-name="Component 194 – 1" xmlns="http://www.w3.org/2000/svg" width="43.765" height="43.765" viewBox="0 0 43.765 43.765">
  <path id="Path_34393" data-name="Path 34393" d="M36.023,40.118l2.2-11.012a2.88,2.88,0,0,0-2.933-3.576H8.473A2.88,2.88,0,0,0,5.54,29.106l2.2,11.012H0v3.647H43.765V40.118Zm-3.721,0H11.462L9.274,29.177H34.491Z" fill="#fff"/>
  <rect id="Rectangle_12043" data-name="Rectangle 12043" width="3.647" height="3.647" transform="translate(20.059 32.824)" fill="#fff"/>
  <path id="Path_34394" data-name="Path 34394" d="M8.11,18.643l2.832,1.416h3.647V10.941a7.294,7.294,0,0,1,14.588,0V18.3a24.03,24.03,0,0,1-9.118,1.758V23.7a26.227,26.227,0,0,0,16.412-5.471V13.676a1.62,1.62,0,0,0-.815-1.319l-2.832-1.416a10.941,10.941,0,0,0-21.882,0L8.11,12.357a1.619,1.619,0,0,0-.816,1.319v3.647a1.619,1.619,0,0,0,.816,1.32" fill="#fff"/>
</svg>
