<svg xmlns="http://www.w3.org/2000/svg" xmlns:xlink="http://www.w3.org/1999/xlink" width="50" height="50" viewBox="0 0 50 50">
  <defs>
    <clipPath id="clip-path">
      <rect id="Rectangle_5657" data-name="Rectangle 5657" width="50" height="50" transform="translate(-229 4732)" fill="#fff"/>
    </clipPath>
  </defs>
  <g id="Mask_Group_9012" data-name="Mask Group 9012" transform="translate(229 -4732)" clip-path="url(#clip-path)">
    <g id="Group_11901" data-name="Group 11901" transform="translate(-226.5 4734.5)">
      <path id="Path_29688" data-name="Path 29688" d="M312.185,258.086a4.063,4.063,0,0,0,1.354-7.89V232.352a1.354,1.354,0,1,0-2.709,0V250.2a4.063,4.063,0,0,0,1.354,7.89Zm0-5.418a1.354,1.354,0,1,1-1.354,1.354,1.354,1.354,0,0,1,1.354-1.354Z" transform="translate(-289.837 -213.391)"/>
      <path id="Path_29689" data-name="Path 29689" d="M206.554,281.357v-7a1.354,1.354,0,1,0-2.709,0v7a1.366,1.366,0,0,1-.4.958l-1.919,1.919a4.078,4.078,0,1,0,1.915,1.915l1.919-1.919A4.035,4.035,0,0,0,206.554,281.357Zm-6.772,7.894a1.355,1.355,0,1,1,.958-.4,1.354,1.354,0,0,1-.958.4Z" transform="translate(-188.27 -251.328)"/>
      <path id="Path_29690" data-name="Path 29690" d="M398.772,291.962a4.063,4.063,0,1,0-1.747-7.726l-1.919-1.919h0a1.367,1.367,0,0,1-.4-.958v-7a1.354,1.354,0,1,0-2.709,0v7a4.034,4.034,0,0,0,1.19,2.872l1.919,1.919a4.054,4.054,0,0,0,3.662,5.811Zm1.354-4.063a1.355,1.355,0,1,1-.4-.958,1.354,1.354,0,0,1,.4.958Z" transform="translate(-365.589 -251.33)"/>
      <path id="Path_29691" data-name="Path 29691" d="M123.063,80.151h7.449a1.354,1.354,0,1,0,0-2.709h-7.449a1.355,1.355,0,0,1-1.354-1.354V58.481h39.278V76.088a1.355,1.355,0,0,1-1.354,1.354h-7.449a1.354,1.354,0,1,0,0,2.709h7.449a4.068,4.068,0,0,0,4.063-4.063V53.063A4.068,4.068,0,0,0,159.632,49H123.063A4.068,4.068,0,0,0,119,53.063V76.088a4.068,4.068,0,0,0,4.063,4.063Zm0-28.443h36.569a1.355,1.355,0,0,1,1.354,1.354v2.709H121.709V53.063A1.355,1.355,0,0,1,123.063,51.709Z" transform="translate(-119 -49)"/>
      <path id="Path_29692" data-name="Path 29692" d="M156.709,85.354A1.354,1.354,0,1,1,155.354,84a1.355,1.355,0,0,1,1.354,1.354" transform="translate(-150.614 -80.614)"/>
      <path id="Path_29693" data-name="Path 29693" d="M191.709,85.354A1.354,1.354,0,1,1,190.354,84a1.355,1.355,0,0,1,1.354,1.354" transform="translate(-182.228 -80.614)"/>
      <path id="Path_29694" data-name="Path 29694" d="M226.709,85.354A1.354,1.354,0,1,1,225.354,84a1.355,1.355,0,0,1,1.354,1.354" transform="translate(-213.842 -80.614)"/>
    </g>
  </g>
</svg>
