<svg xmlns="http://www.w3.org/2000/svg" xmlns:xlink="http://www.w3.org/1999/xlink" width="46" height="46" viewBox="0 0 46 46">
  <defs>
    <clipPath id="clip-path">
      <rect id="Rectangle_14095" data-name="Rectangle 14095" width="46" height="46" transform="translate(3565 2869)" fill="red"/>
    </clipPath>
  </defs>
  <g id="Mask_Group_9100" data-name="Mask Group 9100" transform="translate(-3565 -2869)" clip-path="url(#clip-path)">
    <g id="Layer_2" data-name="Layer 2" transform="translate(3562 2863.26)">
      <g id="Icons" transform="translate(5 11.74)">
        <g id="Development">
          <circle id="Ellipse_297" data-name="Ellipse 297" cx="0.804" cy="0.804" r="0.804" transform="translate(2.678 2.413)" fill="#fff" stroke="#fff" stroke-width="0.3"/>
          <ellipse id="Ellipse_298" data-name="Ellipse 298" cx="1" cy="0.5" rx="1" ry="0.5" transform="translate(7.797 2.757)" fill="#fff" stroke="#fff" stroke-width="0.3"/>
          <circle id="Ellipse_299" data-name="Ellipse 299" cx="0.804" cy="0.804" r="0.804" transform="translate(5.364 2.413)" fill="#fff" stroke="#fff" stroke-width="0.3"/>
          <path id="Path_38514" data-name="Path 38514" d="M19.524,29.327l2.413-2.413a.807.807,0,0,0-1.142-1.142l-2.992,3a.8.8,0,0,0,0,1.134l2.992,3a.8.8,0,1,0,1.142-1.134Z" transform="translate(-7.461 -14.441)" fill="#fff" stroke="#fff" stroke-width="0.3"/>
          <path id="Path_38515" data-name="Path 38515" d="M34.262,32.9a.8.8,0,0,0,1.134,0l3-2.959a.8.8,0,0,0,0-1.134l-3-3a.8.8,0,0,0-1.134,1.142l2.413,2.413L34.262,31.77A.8.8,0,0,0,34.262,32.9Z" transform="translate(-10.683 -14.448)" fill="#fff" stroke="#fff" stroke-width="0.3"/>
          <path id="Path_38516" data-name="Path 38516" d="M29.979,26.124a.8.8,0,0,0-1.1.3l-2.967,5.211a.8.8,0,1,0,1.391.8l3-5.187a.8.8,0,0,0-.322-1.126Z" transform="translate(-9.07 -14.535)" fill="#fff" stroke="#fff" stroke-width="0.3"/>
          <path id="Path_38517" data-name="Path 38517" d="M45.9,34.466a.233.233,0,0,1-.217-.153,8.388,8.388,0,0,0-1.343-2.324.233.233,0,0,1,0-.265,1.85,1.85,0,0,0-.676-2.525l-.6-.362V14.153A2.413,2.413,0,0,0,40.65,11.74H7.413A2.413,2.413,0,0,0,5,14.153V34.531A1.882,1.882,0,0,0,6.874,36.4H17.867l-.8,2.975h-1.07a3.482,3.482,0,0,0-3.386,2.678H10.629a.8.8,0,1,0,0,1.608H31.112a1.7,1.7,0,0,0,.056.571,1.809,1.809,0,0,0,.86,1.126l1.7.981a1.85,1.85,0,0,0,2.525-.684.249.249,0,0,1,.249-.113,7.833,7.833,0,0,0,2.67,0,.241.241,0,0,1,.249.121,1.85,1.85,0,0,0,1.608.917,1.825,1.825,0,0,0,.925-.241l1.7-.981a1.842,1.842,0,0,0,.86-1.126,1.817,1.817,0,0,0-.185-1.4.241.241,0,0,1,0-.273,8.46,8.46,0,0,0,1.343-2.316.225.225,0,0,1,.217-.153,1.858,1.858,0,0,0,1.85-1.85V36.284A1.85,1.85,0,0,0,45.9,34.466ZM6.608,14.153a.8.8,0,0,1,.8-.8H40.65a.8.8,0,0,1,.8.8v2.413H6.608ZM6.874,34.8a.265.265,0,0,1-.265-.265V18.173H41.454v9.859a1.842,1.842,0,0,0-2.035.8h0a.233.233,0,0,1-.241.1,8.259,8.259,0,0,0-2.67,0,.225.225,0,0,1-.241-.1h0a1.842,1.842,0,0,0-2.525-.676l-1.7.981a1.8,1.8,0,0,0-.86,1.118,1.866,1.866,0,0,0,.177,1.407.217.217,0,0,1,0,.265,8.388,8.388,0,0,0-1.343,2.324.233.233,0,0,1-.217.153,1.842,1.842,0,0,0-1.094.362ZM28.321,39.38h-9.65l.8-2.975h8.444v1.842a1.866,1.866,0,0,0,.4,1.134ZM16,40.988H30.316a8.845,8.845,0,0,0,.627,1.07H14.3a1.874,1.874,0,0,1,1.689-1.07Zm30.141-2.742a.241.241,0,0,1-.241.241,1.858,1.858,0,0,0-1.729,1.19,6.8,6.8,0,0,1-1.078,1.874,1.858,1.858,0,0,0-.169,2.091.209.209,0,0,1,0,.177.233.233,0,0,1-.113.153l-1.673.949a.241.241,0,0,1-.33-.1,1.858,1.858,0,0,0-1.906-.893,6.369,6.369,0,0,1-2.139,0,1.858,1.858,0,0,0-1.906.9.249.249,0,0,1-.33.088l-1.7-.981a.233.233,0,0,1-.113-.153.209.209,0,0,1,0-.177,1.874,1.874,0,0,0-.169-2.091,6.715,6.715,0,0,1-1.086-1.874,1.834,1.834,0,0,0-1.7-1.158.241.241,0,0,1-.241-.241V36.284a.233.233,0,0,1,.241-.241,1.85,1.85,0,0,0,1.721-1.19,6.6,6.6,0,0,1,1.086-1.874,1.874,1.874,0,0,0,.169-2.091.225.225,0,0,1,0-.185.209.209,0,0,1,.113-.145l1.7-.981a.225.225,0,0,1,.121,0,.241.241,0,0,1,.2.113h0a1.866,1.866,0,0,0,1.906.9,6.369,6.369,0,0,1,2.139,0,1.874,1.874,0,0,0,1.89-.949h0a.233.233,0,0,1,.322-.08l1.7.981a.209.209,0,0,1,.113.145.225.225,0,0,1,0,.185,1.85,1.85,0,0,0,.169,2.083,6.844,6.844,0,0,1,1.078,1.882A1.866,1.866,0,0,0,45.9,36.075a.233.233,0,0,1,.241.241Z" transform="translate(-5 -11.74)" fill="#fff" stroke="#fff" stroke-width="0.3"/>
          <path id="Path_38518" data-name="Path 38518" d="M44.941,38.94a3.651,3.651,0,1,0,3.651,3.651A3.651,3.651,0,0,0,44.941,38.94Zm0,5.694a2.035,2.035,0,1,0,0-.016Z" transform="translate(-12.106 -17.066)" fill="#fff" stroke="#fff" stroke-width="0.3"/>
        </g>
      </g>
    </g>
  </g>
</svg>
