<svg xmlns="http://www.w3.org/2000/svg" width="76" height="59.012" viewBox="0 0 76 59.012">
  <path id="Path_38535" data-name="Path 38535" d="M105.191,120.12h23.656v3.619H105.191ZM91.573,105.357h58.765l-4.611,10.084h-3.909l-6.96,25.8H99.181L89.5,105.357h2.074Zm4.965,3.618H93.648l7.729,28.645h31.285l5.985-22.18H98.96v-3.618h44.986l1.3-2.848H96.54Zm15.68,40.452a8.066,8.066,0,0,1,.733,3.387,7.722,7.722,0,0,1-1.719,4.952,5.207,5.207,0,0,1-8.286,0,7.723,7.723,0,0,1-1.723-4.952,8.023,8.023,0,0,1,.734-3.387H93.692l-12.141-45H74.339v-3.618h9.409l12.141,45H136v3.618h-5.481a8.05,8.05,0,0,1,.733,3.387,7.722,7.722,0,0,1-1.719,4.952,5.208,5.208,0,0,1-8.287,0,7.7,7.7,0,0,1-1.723-4.952,8.034,8.034,0,0,1,.734-3.387Zm-3.124.988a2.645,2.645,0,0,0-1.971-.988h-.073a2.63,2.63,0,0,0-1.969.991,3.884,3.884,0,0,0-.005,4.792,2.535,2.535,0,0,0,4.017.006,3.894,3.894,0,0,0,0-4.8Zm18.305,0a2.646,2.646,0,0,0-1.972-.988h-.073a2.635,2.635,0,0,0-1.972.988,3.883,3.883,0,0,0,0,4.795,2.53,2.53,0,0,0,4.012.006,3.892,3.892,0,0,0,0-4.8Zm-22.208-22.437h23.656V131.6H105.192Z" transform="translate(-74.339 -100.806)" fill="#50bceb"/>
</svg>
