<svg id="_6154899041595452851" data-name="6154899041595452851" xmlns="http://www.w3.org/2000/svg" width="37.923" height="42.143" viewBox="0 0 37.923 42.143">
  <path id="Path_19225" data-name="Path 19225" d="M39.866,14.153a1.319,1.319,0,0,0-1.406,0l-6.47,3.115a3.946,3.946,0,0,0-4.079-3.251H8.219A4.07,4.07,0,0,0,4,18.081v8.126a4.07,4.07,0,0,0,4.219,4.063h7.173L11.173,36.23a1.3,1.3,0,0,0,.422,1.9,1.414,1.414,0,0,0,1.969-.406l4.5-6.5,4.5,6.5a1.3,1.3,0,0,0,1.125.542,2.052,2.052,0,0,0,.844-.271,1.3,1.3,0,0,0,.422-1.9l-4.219-5.959H27.91a3.946,3.946,0,0,0,4.079-3.251L38.459,30a.79.79,0,0,0,.7.271,6.3,6.3,0,0,0,.7-.135,1.412,1.412,0,0,0,.7-1.219V15.372A1.6,1.6,0,0,0,39.866,14.153Z" transform="translate(-2.646 3.789)" fill="#fff"/>
  <path id="Path_19226" data-name="Path 19226" d="M24.67,1A8.218,8.218,0,0,0,17.9,4.657,8.117,8.117,0,0,0,3,9.126,8.117,8.117,0,0,0,17.9,13.6a8.117,8.117,0,0,0,14.9-4.47A8.15,8.15,0,0,0,24.67,1ZM11.126,11.835a2.709,2.709,0,1,1,2.709-2.709A2.717,2.717,0,0,1,11.126,11.835Zm13.544,0a2.709,2.709,0,1,1,2.709-2.709A2.717,2.717,0,0,1,24.67,11.835Z" transform="translate(-3 -1)" fill="#fff"/>
</svg>
