<svg xmlns="http://www.w3.org/2000/svg" xmlns:xlink="http://www.w3.org/1999/xlink" width="46" height="46" viewBox="0 0 46 46">
  <defs>
    <clipPath id="clip-path">
      <rect id="Rectangle_14093" data-name="Rectangle 14093" width="46" height="46" transform="translate(3559 2756)" fill="red"/>
    </clipPath>
  </defs>
  <g id="Mask_Group_9098" data-name="Mask Group 9098" transform="translate(-3559 -2756)" clip-path="url(#clip-path)">
    <g id="_40-Web_Development" data-name="40-Web Development" transform="translate(3561.236 2758.236)">
      <path id="Path_38511" data-name="Path 38511" d="M40.663,20.764a.865.865,0,0,0,.865-.865V4.326A4.331,4.331,0,0,0,37.2,0H4.326A4.331,4.331,0,0,0,0,4.326V28.55a4.331,4.331,0,0,0,4.326,4.326h9.517v3.863l-2.21,1.471a.865.865,0,0,0-.385.722V39.8a1.73,1.73,0,0,0,1.73,1.73H28.55a1.73,1.73,0,0,0,1.73-1.73v-.865a.865.865,0,0,0-.385-.72l-2.21-1.473V35.472a.865.865,0,0,0-1.73,0V37.2a.865.865,0,0,0,.385.72L28.55,39.4v.4H12.977v-.4l2.21-1.471a.865.865,0,0,0,.385-.722V32.876H37.2a4.331,4.331,0,0,0,4.326-4.326V24.225a.865.865,0,0,0-.865-.865H5.191a.865.865,0,1,0,0,1.73H39.8V28.55a2.6,2.6,0,0,1-2.6,2.6H4.326a2.6,2.6,0,0,1-2.6-2.6V4.326a2.6,2.6,0,0,1,2.6-2.6H37.2a2.6,2.6,0,0,1,2.6,2.6V19.9A.865.865,0,0,0,40.663,20.764Z" fill="#fff" stroke="#fff" stroke-width="1"/>
      <path id="Path_38512" data-name="Path 38512" d="M18.668,7.254a.865.865,0,0,0-1.223,0l-5.191,5.191a.865.865,0,0,0,0,1.223l5.191,5.191a.865.865,0,1,0,1.223-1.223l-4.579-4.579,4.579-4.579a.865.865,0,0,0,0-1.223Z" transform="translate(-1.618 -0.944)" fill="#fff" stroke="#fff" stroke-width="1"/>
      <path id="Path_38513" data-name="Path 38513" d="M28.253,18.859a.865.865,0,0,0,1.223,0l5.191-5.191a.865.865,0,0,0,0-1.223L29.477,7.253a.865.865,0,1,0-1.223,1.223l4.579,4.579-4.579,4.579A.865.865,0,0,0,28.253,18.859Z" transform="translate(-3.775 -0.944)" fill="#fff" stroke="#fff" stroke-width="1"/>
    </g>
  </g>
</svg>
