<svg xmlns="http://www.w3.org/2000/svg" width="21.749" height="24.972" viewBox="0 0 21.749 24.972">
  <path id="etsy" d="M79.752,54.274V45.113c0-.339.034-.543.611-.543h7.769c1.357,0,2.1,1.154,2.647,3.325l.441,1.731h1.323c.237-4.92.441-7.057.441-7.057s-3.325.373-5.293.373H77.751l-5.328-.17V44.2l1.8.339c1.255.238,1.56.509,1.663,1.663,0,0,.1,3.393.1,8.991s-.1,8.957-.1,8.957c0,1.018-.407,1.391-1.663,1.629l-1.8.339v1.424l5.328-.169H86.64c2,0,6.65.169,6.65.169.1-1.222.78-6.752.882-7.362H92.917L91.594,63.2c-1.052,2.374-2.578,2.544-4.275,2.544H82.263c-1.7,0-2.511-.679-2.511-2.137V55.869s3.7,0,4.987.1c.95.068,1.527.339,1.832,1.663l.407,1.764h1.458l-.1-4.445.2-4.478H87.08l-.475,1.968c-.306,1.289-.509,1.527-1.832,1.663-1.493.17-5.022.136-5.022.136v.034h0Z" transform="translate(-72.423 -42.569)" fill="#f27224"/>
</svg>
