<svg xmlns="http://www.w3.org/2000/svg" xmlns:xlink="http://www.w3.org/1999/xlink" width="94" height="82" viewBox="0 0 94 82">
  <defs>
    <clipPath id="clip-path">
      <rect id="Rectangle_5655" data-name="Rectangle 5655" width="94" height="82" transform="translate(403 2256)" fill="#b28a8a"/>
    </clipPath>
  </defs>
  <g id="faq-icon" transform="translate(-403 -2256)" clip-path="url(#clip-path)">
    <g id="Group_11838" data-name="Group 11838" transform="translate(149.466 -427)">
      <path id="Path_29603" data-name="Path 29603" d="M186.487,146.665H208.3a6.231,6.231,0,0,1,6.231,6.231v37.387a6.231,6.231,0,0,1-6.231,6.231h-7.789a1.558,1.558,0,0,0-1.558,1.558v7.144a1.558,1.558,0,0,1-2.659,1.1l-9.347-9.347a1.558,1.558,0,0,0-1.1-.456h-30.51a6.231,6.231,0,0,1-6.231-6.231V173.929Z" transform="translate(132.473 2558.144)" fill="#00d8ff"/>
      <path id="Path_29604" data-name="Path 29604" d="M59.2,30.7H6.231A6.231,6.231,0,0,0,0,36.929V74.316a6.231,6.231,0,0,0,6.231,6.231H14.02A1.558,1.558,0,0,1,15.577,82.1v7.144a1.558,1.558,0,0,0,2.659,1.1L27.583,81a1.558,1.558,0,0,1,1.1-.456H59.2a6.231,6.231,0,0,0,6.231-6.231V36.929A6.231,6.231,0,0,0,59.2,30.7Z" transform="translate(253.534 2652.302)" fill="#f26522"/>
      <circle id="Ellipse_239" data-name="Ellipse 239" cx="3.116" cy="3.116" r="3.116" transform="matrix(0.16, -0.987, 0.987, 0.16, 296.679, 2744.764)" fill="#fff"/>
      <g id="Group_11832" data-name="Group 11832" transform="translate(276.9 2689.231)">
        <g id="Group_11831" data-name="Group 11831" transform="translate(0 0)">
          <circle id="Ellipse_240" data-name="Ellipse 240" cx="3.116" cy="3.116" r="3.116" transform="translate(4.933 34.269) rotate(-45)" fill="#fff"/>
          <g id="Group_11830" data-name="Group 11830">
            <path id="Path_29605" data-name="Path 29605" d="M133.6,88.758a3.116,3.116,0,0,1-3.116-3.116V82.527a6.946,6.946,0,0,1,4.3-6.463,3.116,3.116,0,1,0-3.307-5.163,3.086,3.086,0,0,0-.991,2.279,3.116,3.116,0,1,1-6.231,0,9.347,9.347,0,1,1,12.9,8.648.747.747,0,0,0-.434.7v3.116a3.115,3.115,0,0,1-3.115,3.116Z" transform="translate(-124.249 -63.834)" fill="#fff"/>
          </g>
        </g>
      </g>
      <circle id="Ellipse_241" data-name="Ellipse 241" cx="3.116" cy="3.116" r="3.116" transform="translate(324.561 2744.545) rotate(-76.7)" fill="#fff"/>
      <circle id="Ellipse_242" data-name="Ellipse 242" cx="3.116" cy="3.116" r="3.116" transform="matrix(0.16, -0.987, 0.987, 0.16, 310.696, 2744.766)" fill="#fff"/>
      <g id="Group_11833" data-name="Group 11833" transform="translate(269.111 2683)">
        <path id="Path_29606" data-name="Path 29606" d="M90.36,296.221l-7.527,7.527v.718a1.558,1.558,0,0,0,2.659,1.1l9.347-9.347a1.558,1.558,0,0,1,1.1-.456H91.462A1.557,1.557,0,0,0,90.36,296.221Z" transform="translate(-82.833 -245.916)" fill="#c1433a"/>
        <path id="Path_29607" data-name="Path 29607" d="M295.431,30.7h-4.479a6.231,6.231,0,0,1,6.231,6.231V74.316a6.231,6.231,0,0,1-6.231,6.231h4.479a6.231,6.231,0,0,0,6.231-6.231V36.929A6.231,6.231,0,0,0,295.431,30.7Z" transform="translate(-251.813 -30.698)" fill="#c1433a"/>
      </g>
      <g id="Group_11837" data-name="Group 11837" transform="translate(326.944 2704.809)">
        <g id="Group_11836" data-name="Group 11836" transform="translate(0 0)">
          <g id="Group_11834" data-name="Group 11834" transform="translate(0 49.849)">
            <path id="Path_29608" data-name="Path 29608" d="M390.353,413.291v6.426l1.819,1.819a1.558,1.558,0,0,0,2.659-1.1v-7.144a1.558,1.558,0,0,1,1.558-1.558h-4.479a1.558,1.558,0,0,0-1.558,1.558Z" transform="translate(-390.353 -411.733)" fill="#35ade3"/>
          </g>
          <g id="Group_11835" data-name="Group 11835" transform="translate(9.346)">
            <path id="Path_29609" data-name="Path 29609" d="M444.531,146.665h-4.479a6.231,6.231,0,0,1,6.231,6.231v37.387a6.231,6.231,0,0,1-6.231,6.231h4.479a6.231,6.231,0,0,0,6.231-6.231V152.9A6.231,6.231,0,0,0,444.531,146.665Z" transform="translate(-440.052 -146.665)" fill="#35ade3"/>
          </g>
        </g>
      </g>
    </g>
  </g>
</svg>
