<svg id="Fast_Robust" data-name="Fast &amp; Robust" xmlns="http://www.w3.org/2000/svg" width="48.022" height="42.258" viewBox="0 0 48.022 42.258">
  <path id="Path_19722" data-name="Path 19722" d="M35.4,27.172l-1.238-1.238a1.156,1.156,0,0,0-1.635,0l-.632.629s0-.009-.009-.011l-1.238-1.238a1.159,1.159,0,0,0-1.635,0l-.423.423-.009-.009-1.652-1.652a1.159,1.159,0,0,0-1.635,0l-.423.423-.009-.009L23.63,23.244a1.159,1.159,0,0,0-1.635,0L20.34,24.894a1.156,1.156,0,0,0,0,1.635l1.241,1.241.009.006-.423.423a1.141,1.141,0,0,0-.34.818,1.155,1.155,0,0,0,.337.818l1.652,1.652.009.006-.423.423a1.159,1.159,0,0,0,0,1.635l1.238,1.238.009.009-.629.626a1.158,1.158,0,0,0-.34.818,1.141,1.141,0,0,0,.34.818L24.253,38.3a1.161,1.161,0,0,0,.818.337,1.149,1.149,0,0,0,.818-.337L29,35.193l.809-.806,1.672-1.669.809-.806,3.113-3.1a1.153,1.153,0,0,0,0-1.635ZM21.146,25.706l1.675-1.652,1.238,1.255L22.4,26.96c-.006.006-.014.006-.017,0Zm.823,3.3,4.156-4.125,1.652,1.666-4.136,4.128a.024.024,0,0,1-.02,0Zm1.238,3.716,6.637-6.6,1.238,1.258-6.617,6.6a.014.014,0,0,1-.02,0Zm1.872,4.765c0,.006-.011.006-.017,0l-1.238-1.255,9.533-9.49L34.6,28Z" transform="translate(-14.283 -17.243)" fill="#ff3668"/>
  <path id="Path_19723" data-name="Path 19723" d="M51.49,57.69l.809-.808,5.2,5.2-.808.808Zm2.481-2.475.808-.808L59.974,59.6l-.808.808Z" transform="translate(-36.772 -39.738)" fill="#ff3668"/>
  <circle id="Ellipse_235" data-name="Ellipse 235" cx="0.572" cy="0.572" r="0.572" transform="translate(0 41.11)" fill="#ff3668"/>
  <path id="Path_19724" data-name="Path 19724" d="M7.429,146.908H6.572a.572.572,0,0,0,0,1.143h.858a.572.572,0,0,0,0-1.143Zm42.591,0h-.858a.572.572,0,0,0,0,1.143h.858a.572.572,0,0,0,0-1.143Z" transform="translate(-4.285 -105.799)" fill="#ff3668"/>
  <circle id="Ellipse_236" data-name="Ellipse 236" cx="0.572" cy="0.572" r="0.572" transform="translate(46.879 41.11)" fill="#ff3668"/>
  <path id="Path_19725" data-name="Path 19725" d="M53.8,58.355H51.833l.846-.843a1.156,1.156,0,0,0,0-1.635l-1.241-1.241-.009-.006.423-.423a1.141,1.141,0,0,0,.34-.818,1.155,1.155,0,0,0-.337-.818l-1.652-1.649-.009-.009.423-.423a1.159,1.159,0,0,0,0-1.635L49.374,47.61,50,46.984a1.158,1.158,0,0,0,.34-.818,1.141,1.141,0,0,0-.34-.818l-1.238-1.241a1.161,1.161,0,0,0-1.635,0l-3.113,3.1-.809.806-1.672,1.669-.809.806-3.113,3.1a1.153,1.153,0,0,0,0,1.635l1.238,1.238a1.159,1.159,0,0,0,1.635,0l.632-.629s0,.009.009.011l1.238,1.238a1.152,1.152,0,0,0,.818.34A1.166,1.166,0,0,0,44,57.094l.423-.423,1.661,1.661.026.023H23.339l.026-.023,1.661-1.661.423.423a1.166,1.166,0,0,0,.818.337,1.152,1.152,0,0,0,.818-.34l1.238-1.238c.006,0,.006-.009.009-.011l.632.632a1.163,1.163,0,0,0,1.635,0l1.238-1.238a1.153,1.153,0,0,0,0-1.635l-3.113-3.1-.809-.806-1.672-1.669-.809-.806-3.113-3.1a1.161,1.161,0,0,0-1.635,0l-1.238,1.241a1.141,1.141,0,0,0-.34.818,1.158,1.158,0,0,0,.34.818l.629.626-1.246,1.246a1.159,1.159,0,0,0,0,1.635l.423.423-.009.006-1.652,1.652a1.155,1.155,0,0,0-.337.818,1.141,1.141,0,0,0,.34.818l.423.423-.009.006-1.241,1.241a1.156,1.156,0,0,0,0,1.635l.846.843H15.653a.577.577,0,1,0,0,1.143H53.8a.577.577,0,1,0,0-1.143ZM21.51,44.917l9.522,9.5c0,.006,0,.006-.006.009l-1.255,1.238-9.516-9.5Zm-.615,3.51.046.046,6.577,6.563a.013.013,0,0,1,0,.009l-1.258,1.241-6.62-6.62Zm-.406,8.684-1.258,1.241-1.655-1.666,1.258-1.241.02.02,1.638,1.641s0,.006,0,.006Zm.374,1.243.434-.434.009-.009.423.423a.157.157,0,0,1,.026.02ZM18.4,53.381l1.672-1.652,4.139,4.136a.011.011,0,0,1,0,.009l-1.669,1.649Zm21.261,2.281-1.238-1.238v-.017l9.533-9.49,1.238,1.255Zm3.513.623-1.241-1.241,6.64-6.617,1.238,1.255Zm2.067-.412v-.017l.023-.023,4.133-4.1L51.049,53.4l-4.156,4.125Zm2.453,2.481a.157.157,0,0,1,.026-.02l.423-.423.009.009.434.434Zm1.266-1.243V57.1l1.672-1.652L51.873,56.7,50.2,58.352Zm-8.232-25.2.809.806,1.672,1.669.809.806,3.113,3.1a1.149,1.149,0,0,0,.818.337,1.161,1.161,0,0,0,.818-.337L50,37.059a1.141,1.141,0,0,0,.34-.818,1.158,1.158,0,0,0-.34-.818l-.632-.626.011-.009,1.238-1.238a1.159,1.159,0,0,0,0-1.635l-.423-.423.009-.006,1.652-1.652a1.155,1.155,0,0,0,.337-.818,1.141,1.141,0,0,0-.34-.818l-.423-.423.009-.006,1.241-1.241a1.156,1.156,0,0,0,0-1.635l-1.655-1.649a1.161,1.161,0,0,0-1.635,0l-1.238,1.241-.009.009-.423-.423a1.159,1.159,0,0,0-1.635,0l-1.652,1.652-.009.009L44,25.314a1.159,1.159,0,0,0-1.635,0l-1.238,1.238c-.006,0-.006.009-.009.011l-.632-.629a1.156,1.156,0,0,0-1.635,0l-1.238,1.238a1.153,1.153,0,0,0,0,1.635Zm9.49-7.858,1.655,1.666-1.241,1.241h-.017L48.96,25.3Zm-3.307.829,4.139,4.142L49.4,30.679h-.02l-4.136-4.142Zm-3.719,1.241,6.62,6.617-1.238,1.238h-.02l-6.62-6.617Zm-3.513.62,9.516,9.5-1.238,1.241-9.533-9.507Z" transform="translate(-10.714 -17.245)" fill="#ff3668"/>
  <path id="Path_19726" data-name="Path 19726" d="M67.595,55.214l-15.3,15.3-.809-.806,15.3-15.3Zm2.481,2.475-15.3,15.3-.809-.806,15.3-15.3Zm-6,7.621.81-.807,5.188,5.207-.81.807ZM61.6,67.789l.81-.807,5.185,5.2-.81.807Z" transform="translate(-36.772 -39.739)" fill="#ff3668"/>
  <path id="Path_19727" data-name="Path 19727" d="M44.09,7.924a.858.858,0,1,0-.858-.858A.858.858,0,0,0,44.09,7.924Zm0-1.286a.429.429,0,1,1-.429.429A.429.429,0,0,1,44.09,6.638ZM54.953,18.632a.572.572,0,1,0,.572.572A.572.572,0,0,0,54.953,18.632Zm0,.858a.286.286,0,1,1,.286-.286.286.286,0,0,1-.286.286ZM11.877,3.408a.572.572,0,1,0,.572.572A.572.572,0,0,0,11.877,3.408Zm0,.858a.286.286,0,1,1,.286-.286A.286.286,0,0,1,11.877,4.266Zm41.448.715a.572.572,0,1,0,.572.572A.572.572,0,0,0,53.325,4.98Zm0,.858a.286.286,0,1,1,.286-.286A.286.286,0,0,1,53.325,5.838ZM22.234,7.781a.572.572,0,1,0-.572.572A.572.572,0,0,0,22.234,7.781Zm-.858,0a.286.286,0,1,1,.286.286.286.286,0,0,1-.286-.286Z" transform="translate(-8.073 -3.318)" fill="#ff3668"/>
  <path id="Path_19728" data-name="Path 19728" d="M5.831,13l.425-.559-.268-.152-.273.626H5.705L5.428,12.3l-.273.156L5.576,13v.009l-.658-.085v.3l.662-.085v.009l-.425.546.255.161.291-.631H5.71l.268.626.282-.161-.429-.537v-.009l.675.081v-.3l-.675.089V13ZM26.638,9.682,26.394,10l.147.093.168-.363h.005l.154.36.162-.093-.247-.309v0l.389.046V9.55l-.389.051V9.6l.245-.322-.154-.087-.157.36h-.005l-.16-.358-.158.09.242.314V9.6l-.379-.049v.175l.381-.049Zm21.267,5.853v-.3l-.662.088v-.009l.417-.548-.263-.149-.268.614h-.009l-.272-.61-.268.153.412.535v.009l-.645-.083v.3L47,15.452v.009L46.581,16l.25.158.285-.619h.009l.263.614.276-.158-.421-.527v-.009l.662.079ZM30.173,3.693l.36-.473-.227-.129-.231.53h-.008L29.833,3.1l-.231.132.356.462V3.7L29.4,3.625v.257l.56-.072v.007l-.36.462.216.136.246-.534h.007l.227.53.238-.136-.363-.454V3.815l.571.068V3.625l-.571.076Z" transform="translate(-3.512 -3.092)" fill="#ff3668"/>
</svg>
