<svg xmlns="http://www.w3.org/2000/svg" width="27.993" height="35.535" viewBox="0 0 27.993 35.535">
  <g id="Feasibility-icon" transform="translate(0 0)">
    <path id="Union_8" data-name="Union 8" d="M0,35.535V1.92H5.552V0H7.634V1.92h5.321V0h2.082V1.92h5.321V0h2.082V1.92h5.552V35.535Zm2.082-2.082H25.911V8.444H2.082Zm0-27.091H25.911V4H2.082Zm13.4,24.292V28.571H22.14v2.082Zm-9.624,0V28.571h6.663v2.082ZM15.477,26.7V24.615H22.14V26.7Zm-9.624,0V24.615h6.663V26.7Zm9.624-3.956V20.659H22.14v2.082Zm-9.624,0V20.659h6.663v2.082ZM9.185,15.77,7.7,17.254,6.227,15.782,7.712,14.3,6.227,12.812,7.7,11.34l1.485,1.485,1.485-1.485,1.472,1.472L10.657,14.3l1.485,1.485-1.472,1.472Zm6.759-1.222,1.472-1.472L18.438,14.1l2.225-2.225,1.472,1.472-3.7,3.7Z" transform="translate(0 0)" fill="#fff"/>
  </g>
</svg>
