<svg id="fastfood_black_24dp" xmlns="http://www.w3.org/2000/svg" width="42.209" height="42.209" viewBox="0 0 42.209 42.209">
  <path id="Path_19025" data-name="Path 19025" d="M0,0H42.209V42.209H0Z" fill="none"/>
  <path id="Path_19026" data-name="Path 19026" d="M31.393,40.179h2.957a2.944,2.944,0,0,0,2.9-2.6l2.94-29.362H31.286V1h-3.51V8.216H18.922l.534,4.169a18.261,18.261,0,0,1,7.607,4.027c2.565,2.53,4.329,5.149,4.329,9.425V40.179ZM1,38.4V36.633H27.777V38.4a1.791,1.791,0,0,1-1.8,1.782H2.8A1.791,1.791,0,0,1,1,38.4ZM27.777,25.926C27.777,11.672,1,11.672,1,25.926ZM1.036,29.507H27.759V33.07H1.036Z" transform="translate(0.507 0.507)" fill="#fff"/>
</svg>
