<svg xmlns="http://www.w3.org/2000/svg" xmlns:xlink="http://www.w3.org/1999/xlink" width="46" height="46" viewBox="0 0 46 46">
  <defs>
    <clipPath id="clip-path">
      <rect id="Rectangle_14097" data-name="Rectangle 14097" width="46" height="46" transform="translate(75 3060)" fill="#fff" stroke="#fff" stroke-width="1"/>
    </clipPath>
  </defs>
  <g id="Mask_Group_9102" data-name="Mask Group 9102" transform="translate(-75 -3060)" clip-path="url(#clip-path)">
    <g id="Layer_2" data-name="Layer 2" transform="translate(76.983 3061.977)">
      <g id="Layer_1" data-name="Layer 1" transform="translate(0 0)">
        <path id="development" d="M34.58,32.137l-1.236-.715a12.19,12.19,0,0,0,.436-1.617H35.2c1.887-.068,1.289-2.359,1.378-3.573A1.38,1.38,0,0,0,35.2,24.854H33.783a12.191,12.191,0,0,0-.436-1.617l1.238-.715a1.38,1.38,0,0,0,.5-1.887c-.674-1-1.321-3.3-2.978-2.4l-1.238.715a12.773,12.773,0,0,0-1.185-1.185l.715-1.238c.891-1.65-1.408-2.3-2.4-2.978a1.378,1.378,0,0,0-1.887.5L25.4,15.282a13.233,13.233,0,0,0-1.619-.434V13.428c-.068-1.887-2.359-1.289-3.573-1.378a1.38,1.38,0,0,0-1.376,1.378v1.425a13.172,13.172,0,0,0-1.621.434L16.5,14.053a1.38,1.38,0,0,0-1.887-.5c-1,.674-3.3,1.321-2.406,2.978l.715,1.238a12.524,12.524,0,0,0-1.183,1.185L10.5,18.235c-1.65-.893-2.306,1.408-2.98,2.4a1.38,1.38,0,0,0,.5,1.887l1.236.715a12.645,12.645,0,0,0-.436,1.617H7.4c-1.887.068-1.287,2.359-1.376,3.573A1.38,1.38,0,0,0,7.4,29.81H8.827a12.567,12.567,0,0,0,.436,1.617l-1.236.715c-1.593.987.066,2.7.595,3.775a1.378,1.378,0,0,0,1.887.5l1.238-.713A12.506,12.506,0,0,0,12.93,36.89l-.715,1.24a1.378,1.378,0,0,0,.506,1.887c1.072.527,2.812,2.187,3.775.595l.713-1.236a13.022,13.022,0,0,0,1.621.436v1.425c.066,1.887,2.357,1.287,3.571,1.376a1.378,1.378,0,0,0,1.378-1.376V39.811a12.911,12.911,0,0,0,1.619-.436l.713,1.236c.968,1.593,2.712-.07,3.775-.595a1.378,1.378,0,0,0,.5-1.887l-.715-1.24a12.753,12.753,0,0,0,1.185-1.183l1.238.713a1.378,1.378,0,0,0,1.887-.5C34.515,34.833,36.174,33.124,34.58,32.137Zm-.608,1.234-1.1,1.9a.091.091,0,0,1-.117.03l-1.708-.985a.644.644,0,0,0-.827.155,11.513,11.513,0,0,1-1.767,1.768c-.693.525.377,1.568.83,2.535a.089.089,0,0,1-.032.117l-1.9,1.1a.094.094,0,0,1-.117-.03l-.983-1.7a.645.645,0,0,0-.795-.279,11.235,11.235,0,0,1-2.414.649.645.645,0,0,0-.549.638v1.968a.089.089,0,0,1-.087.087h-2.2a.087.087,0,0,1-.085-.087V39.256a.647.647,0,0,0-.549-.638,11.25,11.25,0,0,1-2.416-.649c-.8-.342-1.174,1.11-1.778,1.985a.1.1,0,0,1-.117.03l-1.9-1.1a.085.085,0,0,1-.032-.117l.985-1.708a.649.649,0,0,0-.159-.827,11.437,11.437,0,0,1-1.768-1.768c-.527-.695-1.565.377-2.533.83a.087.087,0,0,1-.119-.03l-1.1-1.9a.085.085,0,0,1,.043-.111l1.7-.985a.644.644,0,0,0,.277-.793A11.356,11.356,0,0,1,10,29.065C9.891,28.2,8.461,28.6,7.4,28.518a.087.087,0,0,1-.085-.087v-2.2a.087.087,0,0,1,.085-.087c1.061-.083,2.5.315,2.606-.547a11.324,11.324,0,0,1,.647-2.416.645.645,0,0,0-.277-.795l-1.7-.983a.085.085,0,0,1-.032-.117l1.1-1.9.117-.03,1.7.985a.644.644,0,0,0,.827-.157,11.513,11.513,0,0,1,1.774-1.77c.695-.517-.377-1.574-.83-2.533a.1.1,0,0,1,.03-.117l1.9-1.1a.089.089,0,0,1,.119.032l.985,1.7a.642.642,0,0,0,.793.279,11.352,11.352,0,0,1,2.416-.649c.864-.1.464-1.546.549-2.6a.087.087,0,0,1,.085-.087H22.4a.089.089,0,0,1,.087.087v1.972a.645.645,0,0,0,.547.638,11.352,11.352,0,0,1,2.416.649c.8.34,1.163-1.089,1.778-1.984a.087.087,0,0,1,.119-.032l1.9,1.1.032.117-.985,1.7a.644.644,0,0,0,.155.827,11.618,11.618,0,0,1,1.768,1.77c.517.693,1.57-.377,2.533-.83a.092.092,0,0,1,.117.03l1.108,1.91a.087.087,0,0,1-.032.117l-1.7.983a.647.647,0,0,0-.279.795,11.413,11.413,0,0,1,.649,2.416c.1.863,1.546.464,2.6.547a.087.087,0,0,1,.087.087v2.195a.087.087,0,0,1-.087.087H33.238a.644.644,0,0,0-.638.547,11.412,11.412,0,0,1-.649,2.416.644.644,0,0,0,.279.793l1.7.985a.087.087,0,0,1,.043.117ZM21.3,18.507c-11.66.377-11.658,17.277,0,17.645C32.964,35.782,32.96,18.873,21.3,18.507Zm0,16.354a7.532,7.532,0,1,1,7.532-7.532A7.531,7.531,0,0,1,21.3,34.861ZM41.963,0H.645A.645.645,0,0,0,0,.645V35.939a.645.645,0,0,0,.645.645H5.809a.645.645,0,1,0,0-1.291H1.291V7.317H41.315V35.293H36.8a.645.645,0,0,0,0,1.291h5.164a.645.645,0,0,0,.644-.645V.645A.645.645,0,0,0,41.963,0Zm-.647,6.026H1.291V1.291H41.315Zm-3.946-1.91c-.608-.587.342-1.51.913-.912S37.96,4.718,37.369,4.116ZM33.738,3.66a.645.645,0,0,1,1.289,0,.645.645,0,0,1-1.285,0Zm-3.254.457c-.6-.587.323-1.489.912-.921s-.319,1.523-.908.921Zm-7.27,19.1L20.63,31.82a.646.646,0,0,1-1.236-.377l2.582-8.606a.647.647,0,0,1,1.238.377ZM18.441,25.13l-1.483,2.225,1.483,2.223a.646.646,0,1,1-1.074.717l-1.721-2.584a.642.642,0,0,1,0-.715l1.717-2.582a.647.647,0,0,1,1.078.715Zm6.794-.715L26.957,27a.642.642,0,0,1,0,.715L25.235,30.3a.646.646,0,1,1-1.074-.717l1.482-2.223L24.162,25.13a.648.648,0,0,1,1.08-.715Z" transform="translate(0 0)" fill="#fff" stroke="#fff" stroke-width="1"/>
      </g>
    </g>
  </g>
</svg>
