<svg id="Fully-Functional" xmlns="http://www.w3.org/2000/svg" width="43.651" height="43.651" viewBox="0 0 43.651 43.651">
  <path id="Path_19735" data-name="Path 19735" d="M17.888,34.946h-.039a2.915,2.915,0,0,0,.035,5.83h.039a2.915,2.915,0,0,0-.035-5.83Zm1.044,3.934a1.451,1.451,0,0,1-1.027.441h-.02a1.461,1.461,0,0,1-.017-2.921h.02a1.461,1.461,0,0,1,1.044,2.48Z" transform="translate(-5.534 -10.978)" fill="#239b8c"/>
  <path id="Path_19736" data-name="Path 19736" d="M22.832,38.226a.728.728,0,0,0,.718-.737l-.033-2.612a.728.728,0,0,0-.728-.718H22.78l-.942.012q-.093-.243-.205-.478l.657-.674a.727.727,0,0,0-.013-1.029l-1.87-1.823a.728.728,0,0,0-1.029.013l-.657.674q-.238-.107-.484-.193l-.012-.942a.726.726,0,0,0-.22-.511A.716.716,0,0,0,17.488,29l-2.613.033a.728.728,0,0,0-.718.737l.012.942q-.243.092-.478.2l-.674-.657a.773.773,0,0,0-.517-.207.723.723,0,0,0-.511.22l-1.824,1.871a.728.728,0,0,0,.013,1.029l.675.657q-.107.237-.193.483l-.942.011A.728.728,0,0,0,9,35.063l.033,2.612a.747.747,0,0,0,.737.718l.942-.012q.093.243.205.478l-.657.674a.727.727,0,0,0,.013,1.029l1.87,1.823a.756.756,0,0,0,.517.207.723.723,0,0,0,.511-.22l.657-.674c.159.071.319.135.484.193l.012.942a.729.729,0,0,0,.727.719h.009l2.613-.033a.728.728,0,0,0,.718-.737l-.012-.942c.163-.061.322-.13.478-.2l.674.657a.727.727,0,0,0,1.029-.013l1.824-1.871a.728.728,0,0,0-.013-1.029L21.7,38.72c.071-.158.136-.319.193-.483l.943-.011Zm-1.5-1.436a.727.727,0,0,0-.7.556,4.439,4.439,0,0,1-.463,1.161.728.728,0,0,0,.124.882l.537.523-.808.829-.537-.524a.73.73,0,0,0-.887-.1,4.489,4.489,0,0,1-1.149.493.728.728,0,0,0-.536.712l.009.75-1.157.015-.009-.75a.728.728,0,0,0-.555-.7,4.46,4.46,0,0,1-1.162-.463.729.729,0,0,0-.883.123l-.524.537-.829-.808.523-.537a.728.728,0,0,0,.1-.885,4.482,4.482,0,0,1-.493-1.149.726.726,0,0,0-.712-.537l-.75.009-.015-1.157.75-.009a.727.727,0,0,0,.7-.556,4.439,4.439,0,0,1,.463-1.161.728.728,0,0,0-.124-.882l-.537-.523.808-.829.537.524a.728.728,0,0,0,.887.1,4.489,4.489,0,0,1,1.149-.493.728.728,0,0,0,.536-.712l-.009-.75,1.157-.015.009.75a.728.728,0,0,0,.555.7,4.459,4.459,0,0,1,1.162.463.729.729,0,0,0,.883-.123l.524-.537.829.808-.523.537a.728.728,0,0,0-.1.885,4.482,4.482,0,0,1,.493,1.149.742.742,0,0,0,.712.537l.75-.009.015,1.157Zm13.8-3.464a2.915,2.915,0,0,0,.035,5.83h.039a2.915,2.915,0,0,0,2-5A3.006,3.006,0,0,0,35.138,33.326Zm1.083,3.934a1.451,1.451,0,0,1-1.027.441h-.02a1.461,1.461,0,0,1-.017-2.921h.02a1.461,1.461,0,0,1,1.044,2.48Z" transform="translate(-3.907 -9.357)" fill="#239b8c"/>
  <path id="Path_19737" data-name="Path 19737" d="M44.134,38.667a.723.723,0,0,0,.511-.22l1.824-1.871a.728.728,0,0,0-.013-1.029l-.675-.657c.071-.158.136-.319.193-.483l.942-.012a.728.728,0,0,0,.718-.737L47.6,31.046a.728.728,0,0,0-.728-.718h-.009l-.942.012q-.093-.243-.205-.478l.657-.674a.727.727,0,0,0-.013-1.029l-1.87-1.823a.726.726,0,0,0-1.029.013l-.657.674q-.238-.107-.484-.193l-.012-.942a.726.726,0,0,0-.22-.511.713.713,0,0,0-.517-.207l-2.613.033a.728.728,0,0,0-.718.737l.012.942q-.243.092-.478.2l-.674-.657a.771.771,0,0,0-.517-.207.723.723,0,0,0-.511.22l-1.824,1.871a.728.728,0,0,0,.013,1.029l.675.657q-.107.237-.193.483L33.8,30.5a.728.728,0,0,0-.718.737l.033,2.613a.728.728,0,0,0,.728.718h.009l.942-.012q.093.243.205.478l-.657.674a.727.727,0,0,0,.013,1.029l1.87,1.823a.759.759,0,0,0,.517.207.723.723,0,0,0,.511-.22l.657-.674c.159.071.319.135.484.193l.012.942a.726.726,0,0,0,.728.717h.009l2.613-.033a.728.728,0,0,0,.718-.737l-.012-.942c.163-.061.322-.13.478-.2l.674.657a.723.723,0,0,0,.517.207Zm-1.446-2.38a4.489,4.489,0,0,1-1.149.493.728.728,0,0,0-.536.712l.009.75-1.157.015-.009-.75a.728.728,0,0,0-.555-.7,4.46,4.46,0,0,1-1.162-.463.729.729,0,0,0-.883.123l-.524.537-.829-.808.523-.537a.728.728,0,0,0,.1-.885,4.482,4.482,0,0,1-.493-1.149.728.728,0,0,0-.7-.537h-.009l-.75.009-.015-1.157.75-.009a.727.727,0,0,0,.7-.556,4.439,4.439,0,0,1,.463-1.161.728.728,0,0,0-.124-.882L35.8,28.81l.808-.829.537.524a.728.728,0,0,0,.887.1,4.489,4.489,0,0,1,1.149-.493.728.728,0,0,0,.536-.712l-.009-.75,1.157-.015.009.75a.728.728,0,0,0,.555.7,4.46,4.46,0,0,1,1.162.463.729.729,0,0,0,.883-.123L44,27.886l.829.808-.523.537a.728.728,0,0,0-.1.885,4.482,4.482,0,0,1,.493,1.149.7.7,0,0,0,.712.537l.75-.009.015,1.157-.75.009a.727.727,0,0,0-.7.556,4.439,4.439,0,0,1-.463,1.161.728.728,0,0,0,.124.882l.537.523-.808.829-.537-.524A.728.728,0,0,0,42.689,36.288ZM32.921,15.773a3.021,3.021,0,0,0-2.072-.827,2.915,2.915,0,0,0,.035,5.83h.039a2.916,2.916,0,0,0,2-5Zm-.989,3.107a1.451,1.451,0,0,1-1.027.441,1.589,1.589,0,0,1-1.037-.414,1.46,1.46,0,0,1,1-2.506h.02a1.461,1.461,0,0,1,1.045,2.479Z" transform="translate(-9.077 -5.528)" fill="#239b8c"/>
  <path id="Path_19738" data-name="Path 19738" d="M27.083,20.383a.816.816,0,0,0,.517.207.723.723,0,0,0,.511-.22L29.936,18.5a.728.728,0,0,0-.013-1.029l-.675-.657c.071-.158.136-.319.193-.483l.942-.012a.728.728,0,0,0,.718-.737l-.033-2.612a.735.735,0,0,0-.737-.718l-.942.012q-.093-.243-.205-.478l.657-.674a.727.727,0,0,0-.013-1.029l-1.87-1.823a.727.727,0,0,0-1.029.013l-.657.674q-.238-.107-.484-.193l-.012-.942a.726.726,0,0,0-.736-.718l-2.613.033a.728.728,0,0,0-.718.737l.012.942q-.243.092-.478.2l-.674-.657a.689.689,0,0,0-.517-.207.723.723,0,0,0-.511.22l-1.824,1.871a.728.728,0,0,0,.013,1.029l.675.657q-.107.237-.193.483l-.942.012a.728.728,0,0,0-.718.737l.033,2.613a.728.728,0,0,0,.728.718h.009l.942-.012q.093.243.205.478l-.657.674a.727.727,0,0,0,.013,1.029l1.87,1.823a.758.758,0,0,0,.517.207.723.723,0,0,0,.511-.22l.657-.674c.159.071.319.135.484.193l.012.942a.726.726,0,0,0,.726.717h.009l2.613-.033a.728.728,0,0,0,.718-.737l-.012-.942c.163-.061.322-.129.478-.2l.675.657ZM25.005,18.7a.728.728,0,0,0-.536.712l.009.75-1.157.015-.009-.75a.728.728,0,0,0-.555-.7,4.46,4.46,0,0,1-1.162-.463.729.729,0,0,0-.883.123l-.524.537-.829-.808.523-.537a.728.728,0,0,0,.1-.885,4.482,4.482,0,0,1-.493-1.149.725.725,0,0,0-.712-.537l-.75.009-.015-1.157.75-.009a.727.727,0,0,0,.7-.556,4.439,4.439,0,0,1,.463-1.161.728.728,0,0,0-.124-.882l-.537-.523.808-.829.537.524a.73.73,0,0,0,.887.1,4.489,4.489,0,0,1,1.149-.493.728.728,0,0,0,.536-.712l-.009-.75,1.157-.015.009.75a.728.728,0,0,0,.555.7,4.46,4.46,0,0,1,1.162.463.729.729,0,0,0,.883-.123l.524-.537.829.808-.523.537a.728.728,0,0,0-.1.885,4.482,4.482,0,0,1,.493,1.149.741.741,0,0,0,.712.537l.75-.009.015,1.157-.75.009a.727.727,0,0,0-.7.556,4.439,4.439,0,0,1-.463,1.161.728.728,0,0,0,.124.882l.537.523-.808.829-.537-.524a.728.728,0,0,0-.887-.1,4.427,4.427,0,0,1-1.149.493ZM4.217,29.363q-.188-.669-.331-1.35l-1.424.3c.1.484.22.97.354,1.446Zm.934,2.614q-.278-.636-.512-1.291l-1.37.491c.167.465.351.93.548,1.382l1.334-.582Zm1.283,2.46q-.362-.592-.683-1.208L4.46,33.9c.227.437.473.872.733,1.3ZM3.648,26.644q-.1-.688-.143-1.382l-1.452.1c.035.493.086.991.154,1.481l1.44-.2ZM8.041,36.7Q7.6,36.166,7.2,35.6l-1.187.841c.284.4.588.8.9,1.184ZM15.07,3.828c-.452.2-.9.415-1.342.644L14.4,5.761q.616-.322,1.252-.6L15.07,3.828ZM2,23.825v.047l1.455-.047q0-.678.044-1.345l-1.452-.095Q2,23.1,2,23.825ZM13.194,6.446l-.762-1.24c-.423.26-.841.536-1.241.821l.842,1.186C12.409,6.947,12.8,6.689,13.194,6.446Zm4.77,38.408c.478.133.965.25,1.448.349l.292-1.425q-.681-.14-1.351-.326ZM3.78,15.177l1.336.577c.182-.421.382-.844.6-1.258l-1.293-.666q-.342.663-.638,1.347Zm6.294,25.6c.384.313.784.615,1.187.9l.838-1.189q-.568-.4-1.109-.84Zm3.733,2.447.669-1.292q-.618-.319-1.213-.682l-.756,1.243C12.929,42.747,13.367,42.993,13.807,43.221Zm1.347.639c.452.2.919.38,1.388.546l.486-1.372q-.657-.232-1.3-.509l-.578,1.336ZM6.862,10.092l1.13.917c.292-.361.6-.714.912-1.05L7.838,8.968q-.508.544-.976,1.124ZM30.579,4.6c.433.152.869.322,1.3.506l.574-1.337q-.685-.295-1.388-.542ZM10.929,8.056,10.006,6.93c-.383.314-.76.645-1.119.982l1,1.06C10.219,8.657,10.571,8.349,10.929,8.056ZM2.194,20.9l1.442.193c.06-.455.138-.915.231-1.371l-1.425-.29c-.1.487-.183.981-.247,1.468Zm.6-2.917,1.4.388c.121-.44.262-.887.416-1.326l-1.373-.482q-.247.7-.446,1.421Zm2.357-5.459,1.245.754c.24-.4.5-.789.761-1.164l-1.189-.838C5.68,11.683,5.405,12.1,5.147,12.529Zm4.794,26.2q-.509-.475-.985-.982L7.9,38.745c.337.36.692.714,1.054,1.051l.992-1.064ZM45.451,26.8l-1.442-.2q-.093.689-.234,1.37l1.425.295C45.3,27.782,45.383,27.288,45.451,26.8Zm-.6,2.915-1.4-.392q-.187.669-.42,1.325l1.371.487c.164-.463.315-.941.45-1.419Zm-2.37,5.453-1.243-.757q-.361.594-.763,1.161l1.187.842q.431-.609.82-1.246Zm3.173-11.354v-.076H44.2v.093q0,.7-.047,1.39l1.452.1Q45.651,24.562,45.651,23.809Zm-1.8,8.709-1.334-.579q-.277.638-.6,1.256l1.291.671C43.439,33.426,43.655,32.972,43.851,32.518ZM42.482,15.634c.188.429.361.862.514,1.288l1.37-.49q-.252-.7-.552-1.383l-1.331.586ZM44,20.963q.1.684.146,1.383l1.451-.105q-.053-.742-.156-1.48ZM40.759,37.6l-1.128-.919c-.295.362-.6.714-.914,1.047l1.063.995C40.114,38.362,40.444,37.984,40.759,37.6Zm.434-24.422c.242.394.473.8.686,1.207l1.288-.675q-.345-.66-.736-1.294l-1.238.762Zm2.23,5.071c.124.438.237.892.334,1.35l1.424-.3q-.155-.728-.358-1.446ZM16.451,3.277l.492,1.37c.436-.156.88-.3,1.323-.424l-.4-1.4c-.474.135-.952.287-1.419.455Zm5.917.23q.694-.049,1.39-.052L23.752,2c-.5,0-1,.02-1.488.055l.1,1.451Zm-1.383.145-.2-1.44c-.488.068-.982.154-1.467.256l.3,1.424q.681-.143,1.37-.239Zm8.656-.869q-.718-.2-1.448-.346L27.9,3.862c.45.091.9.2,1.352.323l.386-1.4Zm-3.11.85.191-1.442q-.738-.1-1.481-.146L25.148,3.5c.458.029.923.074,1.383.135ZM22.459,44.151q-.694-.046-1.383-.138l-.195,1.442c.487.065.985.116,1.481.149Zm16.268-4.379-.993-1.063q-.508.475-1.047.914l.92,1.128Q38.183,40.281,38.727,39.772Zm-.061-31.95-.99,1.067c.34.315.671.645.987.98l1.06-1q-.511-.542-1.056-1.049ZM37.54,6.847q-.579-.469-1.19-.9l-.835,1.192c.38.267.754.548,1.109.837l.917-1.131ZM33.8,4.408,33.135,5.7c.41.211.818.439,1.214.679L35.1,5.135q-.638-.385-1.3-.727Zm5.779,6.5c.3.36.58.731.845,1.1l1.185-.844q-.432-.606-.9-1.182ZM32.537,43.843q.682-.3,1.343-.641l-.671-1.291c-.41.213-.832.415-1.254.6Zm-8.687,1.808q.744,0,1.487-.052l-.1-1.451q-.69.047-1.39.048l0,1.455Zm10.568-4.423.757,1.243q.636-.388,1.244-.818l-.84-1.188C35.2,40.734,34.808,40.991,34.419,41.228Zm-7.6,4.218c.488-.067.982-.151,1.468-.252l-.3-1.424c-.453.094-.914.173-1.37.236l.2,1.441Zm2.523-2.006.392,1.4q.718-.2,1.42-.452l-.489-1.371C30.23,43.174,29.785,43.316,29.341,43.44Z" transform="translate(-2 -2)" fill="#239b8c"/>
</svg>
