<svg id="a3bbc4f94ab957af96bc5f335dc9407d" xmlns="http://www.w3.org/2000/svg" width="32" height="32.658" viewBox="0 0 32 32.658">
  <path id="Path_16369" data-name="Path 16369" d="M53.64,38.5a14.145,14.145,0,0,1,2.712-3.9,16.291,16.291,0,0,1,22.47-1.148c.245.211.306.334.038.594-1.368,1.339-2.713,2.7-4.068,4.053-.139.139-.232.309-.479.083a9.379,9.379,0,0,0-12.6.281A10.412,10.412,0,0,0,59,42.6c-.084-.055-.173-.1-.253-.166Q56.191,40.473,53.64,38.5Z" transform="translate(-51.88 -29.498)" fill="#d62b2a" fill-rule="evenodd"/>
  <path id="Path_16370" data-name="Path 16370" d="M58.873,161.39a10.952,10.952,0,0,0,2,3.413,9.61,9.61,0,0,0,8.554,3.276,10.341,10.341,0,0,0,4.377-1.526c.13.115.253.239.389.346q2.367,1.849,4.74,3.694a13.572,13.572,0,0,1-6.115,3.343,16.447,16.447,0,0,1-14.954-3.017,15.154,15.154,0,0,1-4.324-5.388Q56.209,163.458,58.873,161.39Z" transform="translate(-51.795 -141.901)" fill="#47ac48" fill-rule="evenodd"/>
  <path id="Path_16371" data-name="Path 16371" d="M162.819,134.569q-2.369-1.846-4.74-3.694c-.136-.106-.26-.231-.389-.346a8.3,8.3,0,0,0,2.549-3.01,10.666,10.666,0,0,0,.554-1.519c.106-.358.074-.5-.368-.492-2.63.022-5.261.012-7.891.01-.557,0-.557,0-.557-.576,0-1.782.009-3.566-.007-5.348,0-.344.058-.476.445-.474q7.277.022,14.555,0c.262,0,.427.019.471.337a17.9,17.9,0,0,1-2.1,12.042A12.073,12.073,0,0,1,162.819,134.569Z" transform="translate(-135.68 -105.877)" fill="#5d80c0" fill-rule="evenodd"/>
  <path id="Path_16372" data-name="Path 16372" d="M48.811,100.933q-2.666,2.07-5.331,4.139a14.776,14.776,0,0,1-1.6-5.153,16.138,16.138,0,0,1,1.367-9.009c.072-.158.166-.306.248-.46L48.6,94.382c.08.062.168.111.253.165A10.326,10.326,0,0,0,48.811,100.933Z" transform="translate(-41.734 -81.443)" fill="#f3c317" fill-rule="evenodd"/>
</svg>
