<svg xmlns="http://www.w3.org/2000/svg" xmlns:xlink="http://www.w3.org/1999/xlink" width="54" height="54" viewBox="0 0 54 54">
  <defs>
    <clipPath id="clip-path">
      <rect id="Rectangle_5649" data-name="Rectangle 5649" width="54" height="54" transform="translate(256 3331)" fill="red"/>
    </clipPath>
  </defs>
  <g id="Mask_Group_9008" data-name="Mask Group 9008" transform="translate(-256 -3331)" clip-path="url(#clip-path)">
    <g id="Group_11897" data-name="Group 11897" transform="translate(263.043 3332.174)">
      <g id="Group_11895" data-name="Group 11895" transform="translate(0 37.688)">
        <path id="Path_29664" data-name="Path 29664" d="M40.735,34.979a1.1,1.1,0,0,0-.352-.815C38.9,32.8,32.653,27.8,20.82,27.8S2.448,32.793.875,34.163A1.1,1.1,0,0,0,.5,35v6.021a1.117,1.117,0,0,0,1.115,1.117h0a1.118,1.118,0,0,0,1.119-1.117V36.08a1.106,1.106,0,0,1,.449-.9c2.279-1.682,8.13-5.146,17.635-5.146,9.571,0,15.121,3.427,17.257,5.1a1.109,1.109,0,0,1,.424.88v5.005a1.117,1.117,0,1,0,2.235,0Z" transform="translate(-0.5 -27.802)"/>
        <path id="Path_29665" data-name="Path 29665" d="M40.735,34.979a1.1,1.1,0,0,0-.352-.815C38.9,32.8,32.653,27.8,20.819,27.8S2.447,32.793.875,34.163A1.1,1.1,0,0,0,.5,35v6.021a1.117,1.117,0,0,0,1.115,1.117h0a1.118,1.118,0,0,0,1.119-1.117V36.08a1.106,1.106,0,0,1,.449-.9c2.279-1.682,8.13-5.146,17.635-5.146,9.571,0,15.121,3.427,17.257,5.1a1.109,1.109,0,0,1,.424.88v5.005a1.117,1.117,0,1,0,2.235,0Z" transform="translate(-0.5 -27.802)" fill="none" stroke="#000" stroke-width="1.5"/>
      </g>
      <g id="Group_11896" data-name="Group 11896" transform="translate(2.697)">
        <path id="Path_29666" data-name="Path 29666" d="M36.931,17.213A13.836,13.836,0,0,1,16.311,27.1l1.033-1.789-6.531.23,3.068,5.771L14.928,29.5A16.6,16.6,0,0,0,37.621,6.807l-2.4,1.384a13.789,13.789,0,0,1,1.708,9.022" transform="translate(-6.607 1.513)"/>
        <path id="Path_29667" data-name="Path 29667" d="M36.931,17.213A13.836,13.836,0,0,1,16.311,27.1l1.033-1.789-6.531.23,3.068,5.771L14.928,29.5A16.6,16.6,0,0,0,37.621,6.807l-2.4,1.384A13.789,13.789,0,0,1,36.931,17.213Z" transform="translate(-6.607 1.513)" fill="none" stroke="#000" stroke-width="1"/>
        <path id="Path_29668" data-name="Path 29668" d="M12.37,24.266A13.838,13.838,0,0,1,31.282,5.356l-1.032,1.79,6.529-.228L33.713,1.147,32.668,2.959A16.6,16.6,0,0,0,9.973,25.651Z" transform="translate(-7.735 -0.719)"/>
        <path id="Path_29669" data-name="Path 29669" d="M12.37,24.266A13.838,13.838,0,0,1,31.282,5.356l-1.032,1.79,6.529-.228L33.713,1.147,32.668,2.959A16.6,16.6,0,0,0,9.973,25.651Z" transform="translate(-7.735 -0.719)" fill="none" stroke="#000" stroke-width="1"/>
        <path id="Path_29670" data-name="Path 29670" d="M29.749,17.677l.939-5.633a.656.656,0,0,0-.648-.764H18.628A.657.657,0,0,1,18,10.8a4.114,4.114,0,0,0-3.956-2.987H13.46a.656.656,0,0,0-.656.657v.764a.656.656,0,0,0,.656.657h.581A2.16,2.16,0,0,1,16,11.37l1.831,6.413a2.648,2.648,0,0,0,2.4,1.809h7.262a2.378,2.378,0,0,0,2.26-1.916" transform="translate(-5.877 1.883)"/>
        <path id="Path_29671" data-name="Path 29671" d="M29.749,17.677l.939-5.633a.656.656,0,0,0-.648-.764H18.628A.657.657,0,0,1,18,10.8a4.114,4.114,0,0,0-3.956-2.987H13.46a.656.656,0,0,0-.656.657v.764a.656.656,0,0,0,.656.657h.581A2.16,2.16,0,0,1,16,11.37l1.831,6.413a2.648,2.648,0,0,0,2.4,1.809h7.262A2.378,2.378,0,0,0,29.749,17.677Z" transform="translate(-5.877 1.883)" fill="none" stroke="#000" stroke-width="1"/>
        <path id="Path_29672" data-name="Path 29672" d="M21.929,18.832a1.386,1.386,0,1,0,1.386-1.384,1.385,1.385,0,0,0-1.386,1.384" transform="translate(-2.532 5.413)"/>
        <circle id="Ellipse_236" data-name="Ellipse 236" cx="1.385" cy="1.385" r="1.385" transform="translate(19.398 22.861)" fill="none" stroke="#000" stroke-width="0.25"/>
        <path id="Path_29673" data-name="Path 29673" d="M17.874,18.832a1.386,1.386,0,1,0,1.386-1.384,1.385,1.385,0,0,0-1.386,1.384" transform="translate(-4.018 5.413)"/>
        <circle id="Ellipse_237" data-name="Ellipse 237" cx="1.385" cy="1.385" r="1.385" transform="translate(13.856 22.861)" fill="none" stroke="#000" stroke-width="0.25"/>
        <path id="Path_29674" data-name="Path 29674" d="M24.472,14.33H18.86l-.424-1.48h6.282Z" transform="translate(-3.812 3.728)"/>
        <path id="Path_29675" data-name="Path 29675" d="M24.472,14.33H18.86l-.424-1.48h6.282Z" transform="translate(-3.812 3.728)" fill="none" stroke="#000" stroke-width="0.25"/>
      </g>
    </g>
  </g>
</svg>
