<svg xmlns="http://www.w3.org/2000/svg" width="40.854" height="33.473" viewBox="0 0 40.854 33.473">
  <path id="chair_FILL1_wght400_GRAD0_opsz48" d="M9.1,39.473A1.35,1.35,0,0,1,7.71,38.08v-2H6.828A4.47,4.47,0,0,1,3.37,34.575,5.171,5.171,0,0,1,2,30.977V19.742a3.563,3.563,0,0,1,.952-2.484A3.047,3.047,0,0,1,5.3,16.214a3.047,3.047,0,0,1,2.344,1.045,3.563,3.563,0,0,1,.952,2.484v8.032h27.67V19.742a3.563,3.563,0,0,1,.952-2.484,3.153,3.153,0,0,1,4.689,0,3.563,3.563,0,0,1,.952,2.484V30.977a5.171,5.171,0,0,1-1.37,3.6,4.419,4.419,0,0,1-3.412,1.509h-.929v2a1.393,1.393,0,1,1-2.786,0v-2H10.5v2A1.35,1.35,0,0,1,9.1,39.473Zm2.275-14.485V19.742a6.708,6.708,0,0,0-1.23-3.969,5.353,5.353,0,0,0-3.319-2.205V10.782a4.809,4.809,0,0,1,1.3-3.366A4.228,4.228,0,0,1,11.378,6h22.1A4.3,4.3,0,0,1,36.75,7.416a4.762,4.762,0,0,1,1.323,3.366v2.786a5.647,5.647,0,0,0-3.343,2.252,6.551,6.551,0,0,0-1.253,3.923v5.246Z" transform="translate(-2 -6)" fill="#fff"/>
</svg>
