<svg id="icon" xmlns="http://www.w3.org/2000/svg" width="61.225" height="61.225" viewBox="0 0 61.225 61.225">
  <path id="Shape" d="M94.761,279.6a13.961,13.961,0,1,0,13.961,13.961A13.967,13.967,0,0,0,94.761,279.6Z" transform="translate(-64.149 -262.889)" fill="#3880ff"/>
  <circle id="Oval" cx="6.376" cy="6.376" r="6.376" transform="translate(44.241 5.198)" fill="#3880ff"/>
  <path id="Shape_1_" d="M84.144,242.25l-.242-.574-.423.514a9.6,9.6,0,0,1-3.838,2.629l-.423.181.181.423A24.307,24.307,0,0,1,81.3,255,25.025,25.025,0,1,1,67.01,232.4l.363.181.181-.423a9.505,9.505,0,0,1,2.841-3.717l.514-.423-.574-.3a30.6,30.6,0,1,0,16.59,27.2A31.242,31.242,0,0,0,84.144,242.25Z" transform="translate(-25.7 -224.3)" fill="#3880ff"/>
</svg>
