<svg xmlns="http://www.w3.org/2000/svg" width="56" height="85.195" viewBox="0 0 56 85.195">
  <g id="java-seeklogo.com" transform="translate(-0.517 -0.372)">
    <path id="Path_38554" data-name="Path 38554" d="M69.6,267.473s-2.9,1.893,2.065,2.534c6.017.77,9.092.66,15.723-.748a26.323,26.323,0,0,0,4.178,2.289c-14.864,7.148-33.64-.414-21.965-4.074" transform="translate(-51.049 -201.215)" fill="#5382a1"/>
    <path id="Path_38555" data-name="Path 38555" d="M59.79,229.659s-3.254,2.7,1.716,3.28a54.8,54.8,0,0,0,20.286-1.093,8.97,8.97,0,0,0,3.125,2.138c-17.972,5.9-37.989.465-25.127-4.325" transform="translate(-43.054 -172.729)" fill="#5382a1"/>
    <path id="Path_38556" data-name="Path 38556" d="M132.021,94.249c3.663,4.731-.962,8.989-.962,8.989s9.3-5.387,5.029-12.132c-3.989-6.29-7.048-9.416,9.512-20.192,0,0-25.994,7.284-13.579,23.335" transform="translate(-99.973 -53.142)" fill="#e76f00"/>
    <path id="Path_38557" data-name="Path 38557" d="M51.707,293.241s2.147,1.985-2.365,3.521c-8.58,2.916-35.71,3.8-43.247.116-2.709-1.322,2.371-3.158,3.969-3.543a9.225,9.225,0,0,1,2.619-.33c-3.013-2.381-19.474,4.676-8.362,6.7,30.306,5.515,55.245-2.483,47.384-6.462" transform="translate(0 -220.084)" fill="#5382a1"/>
    <path id="Path_38558" data-name="Path 38558" d="M41.587,190.437s-13.8,3.678-4.887,5.013c3.763.565,11.266.437,18.254-.22,5.711-.541,11.446-1.69,11.446-1.69a23.425,23.425,0,0,0-3.471,2.084c-14.014,4.135-41.086,2.212-33.292-2.018a23.7,23.7,0,0,1,11.95-3.169" transform="translate(-21.639 -143.172)" fill="#5382a1"/>
    <path id="Path_38559" data-name="Path 38559" d="M200.49,203.492c14.246-8.306,7.659-16.288,3.062-15.213a9.78,9.78,0,0,0-1.629.491,2.693,2.693,0,0,1,1.217-1.054c9.1-3.588,16.09,10.582-2.936,16.193a1.376,1.376,0,0,0,.286-.419" transform="translate(-155.787 -140.7)" fill="#5382a1"/>
    <path id="Path_38560" data-name="Path 38560" d="M100.153.371s7.889,8.855-7.483,22.472c-12.327,10.923-2.811,17.151-.005,24.267-7.2-7.284-12.476-13.7-8.933-19.665,5.2-8.761,19.6-13.008,16.421-27.074" transform="translate(-64.039 0)" fill="#e76f00"/>
    <path id="Path_38561" data-name="Path 38561" d="M57.174,320.83c13.674.982,34.672-.545,35.169-7.8,0,0-.956,2.752-11.3,4.938a100.358,100.358,0,0,1-34.6.6s1.748,1.623,10.735,2.27" transform="translate(-35.827 -235.531)" fill="#5382a1"/>
  </g>
</svg>
