<svg xmlns="http://www.w3.org/2000/svg" width="32.441" height="40.552" viewBox="0 0 32.441 40.552">
  <path id="_-Icon-Color" data-name="🔹-Icon-Color" d="M32.386,2.02a4.024,4.024,0,0,1,4.055,4.035V38.5a4.041,4.041,0,0,1-4.055,4.055H8.055A4.041,4.041,0,0,1,4,38.5V6.055A4.041,4.041,0,0,1,8.055,2Zm0,36.476V6.055H8.035L8.055,38.5ZM12.11,12.138a2.028,2.028,0,1,1,2.028-2.028A2.028,2.028,0,0,1,12.11,12.138Zm6.083,0a2.028,2.028,0,1,1,2.028-2.028A2.028,2.028,0,0,1,18.193,12.138Zm2.028,24.331A10.138,10.138,0,1,1,30.358,26.331,10.142,10.142,0,0,1,20.221,36.469Zm4.785-14.923-9.57,9.57a6.767,6.767,0,1,0,9.57-9.57Z" transform="translate(-4 -2)" fill="#fff" fill-rule="evenodd"/>
</svg>
