<svg xmlns="http://www.w3.org/2000/svg" width="40.035" height="39.669" viewBox="0 0 40.035 39.669">
  <g id="_5451650431595988892" data-name="5451650431595988892" transform="translate(-1.945 -2.175)">
    <path id="Path_19223" data-name="Path 19223" d="M41.336,31.01a5.965,5.965,0,0,0-7.122,0h-.142l1.994-5L21.822,20l-14.1,6.005,1.994,5H9.572a5.965,5.965,0,0,0-7.122,0,1.385,1.385,0,0,0-.142,2,1.373,1.373,0,0,0,1.994.143,3.224,3.224,0,0,1,3.561,0A5.328,5.328,0,0,0,11.424,34.3a6.217,6.217,0,0,0,3.561-1.144,3.224,3.224,0,0,1,3.561,0,5.965,5.965,0,0,0,7.122,0,3.224,3.224,0,0,1,3.561,0,5.965,5.965,0,0,0,7.122,0,3.224,3.224,0,0,1,3.561,0,1.51,1.51,0,0,0,1.994-.143A1.9,1.9,0,0,0,41.336,31.01Z" transform="translate(0 7.51)" fill="#fff"/>
    <path id="Path_19224" data-name="Path 19224" d="M5.84,31.093,20.5,24.945h0c.142,0,.285-.143.569-.143a.853.853,0,0,1,.569.143h0L36.3,31.093,38.01,26.8a1.585,1.585,0,0,0,0-1.144,1.46,1.46,0,0,0-.854-.715l-4.7-1.859V14.793a4.2,4.2,0,0,0-4.27-4.289H25.341V4.784a1.3,1.3,0,0,0-.427-1,5.4,5.4,0,0,0-7.687,0,1.3,1.3,0,0,0-.427,1V10.5H13.954a4.2,4.2,0,0,0-4.27,4.289v8.293L4.986,24.8a1.46,1.46,0,0,0-.854.715,1.573,1.573,0,0,0,0,1.144Zm9.537-16.3H26.764a1.348,1.348,0,0,1,1.423,1.43,1.348,1.348,0,0,1-1.423,1.43H15.377a1.348,1.348,0,0,1-1.423-1.43A1.348,1.348,0,0,1,15.377,14.793Z" transform="translate(0.894 0)" fill="#fff"/>
  </g>
</svg>
