<svg xmlns="http://www.w3.org/2000/svg" xmlns:xlink="http://www.w3.org/1999/xlink" width="50" height="50" viewBox="0 0 50 50">
  <defs>
    <clipPath id="clip-path">
      <rect id="Rectangle_5654" data-name="Rectangle 5654" width="50" height="50" transform="translate(-242 4844)" fill="#fff"/>
    </clipPath>
  </defs>
  <g id="Mask_Group_9010" data-name="Mask Group 9010" transform="translate(242 -4844)" clip-path="url(#clip-path)">
    <path id="M-Commerce" d="M92.783,23.566a.673.673,0,0,0,.673.673h8.8a.673.673,0,0,0,0-1.346h-8.8A.673.673,0,0,0,92.783,23.566ZM108.162,15v-.02a.3.3,0,0,0,0-.057c0-.019,0-.015,0-.023a.52.52,0,0,0-.011-.054l-.005-.022c-.005-.02-.012-.039-.019-.058v-.011l-.005-.013h0l-2.5-6.289V3.38a3.37,3.37,0,0,0-3.37-3.366H98.258a.658.658,0,0,0-.233,0h-12.1a.658.658,0,0,0-.233,0H81.7a3.37,3.37,0,0,0-3.37,3.366v4.8a.67.67,0,0,0,.029.2l-2.52,6.362h0l-.005.013v.011c-.007.019-.013.039-.019.058l-.005.022a.519.519,0,0,0-.011.054V17.75a3.78,3.78,0,0,0,2.531,3.569V42.592A3.37,3.37,0,0,0,81.7,45.958h20.552a3.37,3.37,0,0,0,3.37-3.363V21.322a3.78,3.78,0,0,0,2.547-3.569V15Zm-1.664-.669h-4.752l-1.724-5.116h4.447ZM95.751,15.678h4.859V17.75a2.43,2.43,0,1,1-4.859,0Zm-.069-1.346-.556-5.116H98.6l1.724,5.116ZM97.044,1.361l-.619,1.229a.863.863,0,0,1-.777.476H88.3a.863.863,0,0,1-.777-.476l-.619-1.229ZM79.678,3.38a2.021,2.021,0,0,1,2.02-2.02h3.7L86.32,3.2A2.2,2.2,0,0,0,88.3,4.412h7.346A2.2,2.2,0,0,0,97.63,3.2l.924-1.835h3.7a2.021,2.021,0,0,1,2.021,2.02V7.868H79.678ZM94.4,15.677v2.072a2.43,2.43,0,0,1-4.86,0V15.678Zm-4.782-1.346.556-5.116h3.59l.556,5.116Zm-6.014,0,1.724-5.116h3.5l-.556,5.116ZM88.2,15.677v2.072a2.43,2.43,0,1,1-4.859,0V15.678ZM79.479,9.215h4.426l-1.724,5.116H77.452ZM77.134,17.75V15.678h4.86V17.75a2.43,2.43,0,1,1-4.86,0Zm27.138,24.845a2.021,2.021,0,0,1-2.02,2.02H81.7a2.021,2.021,0,0,1-2.023-2.02V21.522A3.77,3.77,0,0,0,82.663,19.9a3.77,3.77,0,0,0,6.205,0,3.77,3.77,0,0,0,6.206,0,3.77,3.77,0,0,0,6.205,0,3.77,3.77,0,0,0,2.993,1.624Zm2.547-24.845a2.43,2.43,0,0,1-4.86,0V15.678h4.86Zm-6.587,17.44H95.475a2.693,2.693,0,0,0,0,5.386h4.757a2.693,2.693,0,0,0,0-5.386Zm0,4.039H95.475a1.346,1.346,0,0,1,0-2.693h4.757a1.346,1.346,0,0,1,0,2.693Zm-2.108,2.693h-12.3a.673.673,0,1,0,0,1.346h12.3a.673.673,0,0,0,0-1.346Zm4.129-16.336h-8.8a.673.673,0,1,0,0,1.346h8.8a.673.673,0,1,0,0-1.346Zm-10.818,12.3a2.693,2.693,0,0,0-2.693-2.693H83.717a2.693,2.693,0,1,0,0,5.386h5.027A2.693,2.693,0,0,0,91.436,37.882Zm-9.066,0a1.346,1.346,0,0,1,1.346-1.346h5.027a1.346,1.346,0,0,1,0,2.693H83.717a1.346,1.346,0,0,1-1.346-1.346Zm17.182-8.258a.673.673,0,1,0,0-1.346h-6.1a.673.673,0,1,0,0,1.346ZM81.7,33.574h9.066a.673.673,0,0,0,.673-.673V23.566a.673.673,0,0,0-.673-.673H81.7a.673.673,0,0,0-.673.673V32.9A.673.673,0,0,0,81.7,33.574ZM90.09,32.18l-3.046-3.046,1.071-1.067,1.975,1.975ZM82.37,24.239H90.09v3.9l-1.5-1.5a.673.673,0,0,0-.952,0l-1.544,1.544-1.543-1.544a.673.673,0,0,0-.952,0L82.37,27.861Zm0,5.527,1.705-1.7,1.542,1.542h0l2.616,2.619H82.37Z" transform="translate(-308.633 4845.663)"/>
  </g>
</svg>
