<svg xmlns="http://www.w3.org/2000/svg" width="40.425" height="90" viewBox="0 0 40.425 90">
  <g id="mongodb-icon-1" transform="translate(-8.813 0)">
    <path id="Path_38758" data-name="Path 38758" d="M15.944.087l2.4,4.511A13.477,13.477,0,0,0,20.16,6.853,63.012,63.012,0,0,1,25.8,13.226,55.382,55.382,0,0,1,34.57,30.921a43.512,43.512,0,0,1,1.862,12.008A42.378,42.378,0,0,1,24.058,74.2a35.716,35.716,0,0,1-4.415,3.774c-.832,0-1.226-.638-1.569-1.226a10.093,10.093,0,0,1-1.226-3.529,17.053,17.053,0,0,1-.394-4.46v-.686c-.067-.146-.8-67.641-.509-67.987Z" transform="translate(12.8 0.158)" fill="#599636"/>
    <path id="Path_38759" data-name="Path 38759" d="M28.744.1c-.1-.2-.2-.048-.3.048a4.532,4.532,0,0,1-.832,2.7A12.935,12.935,0,0,1,25.459,5,46.975,46.975,0,0,0,14.921,18.432,53.955,53.955,0,0,0,8.847,40.391c-.245,2.793.883,12.647,1.763,15.49a46.958,46.958,0,0,0,12.3,19.363,53.762,53.762,0,0,0,4.359,3.726c.442,0,.489-.394.591-.686a13.442,13.442,0,0,0,.442-1.912l.984-7.351Z" transform="translate(0 0)" fill="#6cac48"/>
    <path id="Path_38760" data-name="Path 38760" d="M19.25,37.529a6.71,6.71,0,0,1,1.226-2.989A3.094,3.094,0,0,1,19.1,33.266a9.1,9.1,0,0,1-.731-1.617,27.989,27.989,0,0,1-1.029-6.322V24.053a6.111,6.111,0,0,0-.3,2.109,48.851,48.851,0,0,1-.883,6.617,5.888,5.888,0,0,1-.787,2.548.976.976,0,0,0,.048.343A29.268,29.268,0,0,1,16.7,43.612V44.6c0,1.176-.048.928.928,1.322a4.3,4.3,0,0,1,1.226.489c.3,0,.343-.245.343-.442l-.146-1.617V39.838a11.929,11.929,0,0,1,.2-2.306Z" transform="translate(11.896 43.592)" fill="#c2bfbf"/>
  </g>
</svg>
