<svg xmlns="http://www.w3.org/2000/svg" xmlns:xlink="http://www.w3.org/1999/xlink" width="50" height="50" viewBox="0 0 50 50">
  <defs>
    <clipPath id="clip-path">
      <rect id="Rectangle_5655" data-name="Rectangle 5655" width="50" height="50" transform="translate(-250 4756)" fill="#fff"/>
    </clipPath>
  </defs>
  <g id="Mask_Group_9011" data-name="Mask Group 9011" transform="translate(250 -4756)" clip-path="url(#clip-path)">
    <g id="Group_11900" data-name="Group 11900" transform="translate(-250 4756)">
      <path id="Path_29680" data-name="Path 29680" d="M148.85,315.05a8.8,8.8,0,1,0-8.8,8.8A8.81,8.81,0,0,0,148.85,315.05Zm-8.8,7.2a7.2,7.2,0,1,1,7.2-7.2A7.208,7.208,0,0,1,140.05,322.25Z" transform="translate(-126.45 -279.049)"/>
      <path id="Path_29681" data-name="Path 29681" d="M203.65,344.45a.8.8,0,0,1,.8.8h1.6a2.4,2.4,0,0,0-1.6-2.253V341.25h-1.6v1.6h-1.6v2.4a2.4,2.4,0,0,0,2.4,2.4.8.8,0,0,1,.8.8v.8h-.8a.8.8,0,0,1-.8-.8h-1.6a2.4,2.4,0,0,0,1.6,2.253v1.747h1.6v-1.6h1.6v-2.4a2.4,2.4,0,0,0-2.4-2.4.8.8,0,0,1-.8-.8v-.8Z" transform="translate(-190.05 -310.849)"/>
      <path id="Path_29682" data-name="Path 29682" d="M166.25,393.75h1.6v1.6h-1.6Z" transform="translate(-158.25 -358.549)"/>
      <path id="Path_29683" data-name="Path 29683" d="M271.25,393.75h1.6v1.6h-1.6Z" transform="translate(-253.65 -358.549)"/>
      <path id="Path_29684" data-name="Path 29684" d="M126.751,42.35a11.215,11.215,0,0,0-7.717-10.639,6.4,6.4,0,1,0-6.97,0,11.189,11.189,0,0,0-7.661,9.548l-.647-.216a11.958,11.958,0,0,0-.717-1.739l1.033-2.065-.522-.521V31.149A11.215,11.215,0,0,0,95.834,20.51a6.4,6.4,0,1,0-6.967,0A11.215,11.215,0,0,0,81.15,31.149v5.567l-.521.521L81.662,39.3a11.932,11.932,0,0,0-.717,1.739l-2.195.731v5.953l2.194.731a11.958,11.958,0,0,0,.717,1.739l-1.033,2.066,4.21,4.21L86.9,55.44a12.01,12.01,0,0,0,1.739.717l.731,2.194h37.378V47.15a1.6,1.6,0,0,0,1.6-1.6v-1.6a1.6,1.6,0,0,0-1.6-1.6Zm-1.6,0h-2.4v-3.2h-1.6v3.2H116.93l4.379-7.664a9.582,9.582,0,0,1,3.842,7.664Zm-9.6-9.6a9.661,9.661,0,0,1,1.881.187l-1.881,1.882-1.885-1.885a9.685,9.685,0,0,1,1.885-.184Zm2.29,4.781-1.217-1.522,2.547-2.547c.269.11.53.233.786.366Zm-3.362-1.522-1.217,1.522-2.119-3.709c.257-.133.518-.257.785-.366Zm1.072,1.221,1.435,1.794-1.435,2.513-1.435-2.513Zm-4.8-10.881a4.8,4.8,0,1,1,4.8,4.8A4.805,4.805,0,0,1,110.751,26.349Zm-1.989,9.213a9.7,9.7,0,0,1,1.029-.88l4.382,7.668h-4.222v-3.2h-1.6v3.2h-2.4A9.538,9.538,0,0,1,108.762,35.562Zm-6.811-4.412v3.967l-2.088-2.089-.312.157V27.949h-1.6v6.034l-.153.077a12.01,12.01,0,0,0-1.739-.717l-.731-2.194h-1.6l4.379-7.664a9.581,9.581,0,0,1,3.843,7.664ZM87.945,22.628a9.52,9.52,0,0,1,2.455-.88L89.7,25.7Zm4.114-1.065c.1,0,.193-.014.291-.014s.194.012.291.014l1.116,6.31L92.35,30.337l-1.407-2.463ZM95,25.7l-.7-3.954a9.524,9.524,0,0,1,2.455.88ZM87.55,15.149a4.8,4.8,0,1,1,4.8,4.8A4.805,4.805,0,0,1,87.55,15.149Zm-4.8,16a9.581,9.581,0,0,1,3.843-7.664l4.379,7.664h-1.6l-.732,2.194a11.957,11.957,0,0,0-1.739.717l-.151-.077V27.949h-1.6v5.234l-.312-.156L82.75,35.116Zm9.6,25.6H90.527L89.9,54.858l-.406-.117a10.276,10.276,0,0,1-2.187-.9l-.369-.206-1.781.89-2.579-2.579.89-1.781-.206-.369a10.355,10.355,0,0,1-.9-2.186l-.116-.406-1.891-.629V42.926l1.892-.63.116-.406a10.323,10.323,0,0,1,.9-2.186l.206-.369-.89-1.781,2.579-2.579,1.78.89.369-.206a10.276,10.276,0,0,1,2.187-.9l.406-.117.631-1.89h3.647l.631,1.892.406.117a10.276,10.276,0,0,1,2.187.9l.369.206,1.78-.89,2.579,2.579-.89,1.781.206.369a10.355,10.355,0,0,1,.9,2.186l.116.406,1.891.629v3.647l-1.892.63-.116.406a10.323,10.323,0,0,1-.9,2.186l-.206.369.89,1.781-2.579,2.579-1.781-.89-.369.206a10.276,10.276,0,0,1-2.187.9l-.406.117-.63,1.891Zm32.8,0H95.86l.2-.594a11.926,11.926,0,0,0,1.739-.717l2.065,1.032,4.21-4.21L103.04,50.2a11.931,11.931,0,0,0,.717-1.739l2.194-.731V47.15h19.2Zm1.6-11.2h-20.8v-1.6h20.8Z" transform="translate(-78.75 -8.749)"/>
      <path id="Path_29685" data-name="Path 29685" d="M551.25,498.75h1.6v1.6h-1.6Z" transform="translate(-508.049 -453.949)"/>
      <path id="Path_29686" data-name="Path 29686" d="M516.25,498.75h1.6v1.6h-1.6Z" transform="translate(-476.249 -453.949)"/>
      <path id="Path_29687" data-name="Path 29687" d="M481.25,498.75h1.6v1.6h-1.6Z" transform="translate(-444.449 -453.949)"/>
    </g>
  </g>
</svg>
