<svg xmlns="http://www.w3.org/2000/svg" width="76" height="76.011" viewBox="0 0 76 76.011">
  <g id="next-js" transform="translate(-0.5 -0.325)">
    <path id="Path_38543" data-name="Path 38543" d="M36.011.345c-.163.015-.683.067-1.152.1A38.091,38.091,0,0,0,7.55,16.2,37.62,37.62,0,0,0,.842,32.8,29.089,29.089,0,0,0,.5,38.338a29.089,29.089,0,0,0,.342,5.535,38.158,38.158,0,0,0,25.995,30.7,40.175,40.175,0,0,0,8.023,1.664,70,70,0,0,0,7.281,0,38.367,38.367,0,0,0,13.692-4c.654-.334.78-.423.691-.5-.059-.045-2.845-3.781-6.188-8.3l-6.077-8.209-7.615-11.27c-4.19-6.2-7.637-11.263-7.667-11.263s-.059,5-.074,11.114c-.022,10.705-.03,11.136-.163,11.389a1.35,1.35,0,0,1-.654.676c-.238.119-.446.141-1.568.141H25.232L24.89,55.8a1.389,1.389,0,0,1-.5-.542l-.156-.334.015-14.9.022-14.9.23-.29a2.038,2.038,0,0,1,.55-.453c.3-.149.423-.163,1.709-.163,1.516,0,1.768.059,2.162.49.111.119,4.235,6.33,9.168,13.811s11.679,17.7,14.992,22.711L59.1,70.35l.3-.2a39.01,39.01,0,0,0,7.808-6.85,37.832,37.832,0,0,0,8.945-19.427,29.09,29.09,0,0,0,.342-5.535,29.09,29.09,0,0,0-.342-5.535A38.158,38.158,0,0,0,50.164,2.1,39.9,39.9,0,0,0,42.252.442c-.713-.074-5.624-.156-6.24-.1ZM51.568,23.331a1.5,1.5,0,0,1,.75.877c.059.193.074,4.324.059,13.632L52.355,51.2,50,47.587l-2.362-3.611v-9.71c0-6.278.03-9.806.074-9.977a1.516,1.516,0,0,1,.735-.936c.3-.156.416-.171,1.582-.171,1.1,0,1.293.015,1.538.149Z" transform="translate(0 0)"/>
    <path id="Path_38544" data-name="Path 38544" d="M759.073,943.156c-.26.163-.342.275-.111.149.164-.1.431-.3.386-.3A1.535,1.535,0,0,0,759.073,943.156Zm-.513.334c-.134.1-.134.111.03.03a.456.456,0,0,0,.163-.111c0-.059-.037-.045-.193.082Zm-.371.223c-.134.1-.134.111.03.03a.455.455,0,0,0,.163-.111C758.382,943.572,758.345,943.587,758.189,943.713Zm-.371.223c-.134.1-.134.111.03.03a.454.454,0,0,0,.163-.111C758.01,943.795,757.973,943.81,757.817,943.936Zm-.565.3c-.282.149-.267.208.015.067a.775.775,0,0,0,.223-.149C757.49,944.1,757.483,944.107,757.253,944.233Z" transform="translate(-700.343 -872.643)"/>
  </g>
</svg>
