<svg xmlns="http://www.w3.org/2000/svg" xmlns:xlink="http://www.w3.org/1999/xlink" width="88" height="39" viewBox="0 0 88 39">
  <defs>
    <clipPath id="clip-path">
      <rect id="Rectangle_14231" data-name="Rectangle 14231" width="86" height="38" transform="translate(0.267 0.2)"/>
    </clipPath>
    <clipPath id="clip-path-2">
      <rect id="Rectangle_14232" data-name="Rectangle 14232" width="87" height="36" transform="translate(-0.467 -0.267)"/>
    </clipPath>
    <clipPath id="clip-path-3">
      <rect id="Rectangle_14233" data-name="Rectangle 14233" width="87" height="37" transform="translate(0 0.467)"/>
    </clipPath>
    <clipPath id="clip-path-4">
      <rect id="Rectangle_14234" data-name="Rectangle 14234" width="86" height="37" transform="translate(-0.467 -0.067)"/>
    </clipPath>
    <clipPath id="clip-path-5">
      <path id="Path_38645" data-name="Path 38645" d="M58.3,27,50.507,31.5a.94.94,0,0,0-.47.815v9a.942.942,0,0,0,.47.815l7.788,4.5a.939.939,0,0,0,.941,0l7.786-4.5a.942.942,0,0,0,.47-.815v-9a.94.94,0,0,0-.47-.814L59.235,27a.94.94,0,0,0-.94,0" transform="translate(-50.037 -26.876)"/>
    </clipPath>
    <linearGradient id="linear-gradient" x1="-3.263" y1="4.38" x2="-3.257" y2="4.38" gradientUnits="objectBoundingBox">
      <stop offset="0" stop-color="#41873f"/>
      <stop offset="0.329" stop-color="#418b3d"/>
      <stop offset="0.635" stop-color="#419637"/>
      <stop offset="0.932" stop-color="#3fa92d"/>
      <stop offset="1" stop-color="#3fae2a"/>
    </linearGradient>
    <clipPath id="clip-path-6">
      <path id="Path_38647" data-name="Path 38647" d="M50.463,41.912a.95.95,0,0,0,.276.244l6.68,3.858,1.112.639a.945.945,0,0,0,.543.123.99.99,0,0,0,.185-.035L67.472,31.7a.974.974,0,0,0-.218-.174l-5.1-2.943-2.695-1.551a.943.943,0,0,0-.245-.1Z" transform="translate(-50.463 -26.939)"/>
    </clipPath>
    <linearGradient id="linear-gradient-2" x1="-2.975" y1="4.111" x2="-2.969" y2="4.111" gradientUnits="objectBoundingBox">
      <stop offset="0" stop-color="#41873f"/>
      <stop offset="0.138" stop-color="#41873f"/>
      <stop offset="0.403" stop-color="#54a044"/>
      <stop offset="0.714" stop-color="#66b848"/>
      <stop offset="0.908" stop-color="#6cc04a"/>
      <stop offset="1" stop-color="#6cc04a"/>
    </linearGradient>
    <clipPath id="clip-path-7">
      <path id="Path_38648" data-name="Path 38648" d="M59.262,26.883a.939.939,0,0,0-.376.121L51.12,31.485l8.372,15.252a.952.952,0,0,0,.335-.117l7.786-4.5a.945.945,0,0,0,.455-.643L59.532,26.9a1,1,0,0,0-.191-.019c-.026,0-.053,0-.079,0" transform="translate(-51.12 -26.879)"/>
    </clipPath>
    <linearGradient id="linear-gradient-3" x1="-6.879" y1="7.068" x2="-6.868" y2="7.068" gradientUnits="objectBoundingBox">
      <stop offset="0" stop-color="#6cc04a"/>
      <stop offset="0.092" stop-color="#6cc04a"/>
      <stop offset="0.286" stop-color="#66b848"/>
      <stop offset="0.597" stop-color="#54a044"/>
      <stop offset="0.862" stop-color="#41873f"/>
      <stop offset="1" stop-color="#41873f"/>
    </linearGradient>
  </defs>
  <g id="Group_36270" data-name="Group 36270" transform="translate(-8271 -6679.933)">
    <g id="Group_36265" data-name="Group 36265" transform="translate(8271 6680)">
      <g id="Group_36261" data-name="Group 36261" transform="translate(0.733 0.733)" clip-path="url(#clip-path)">
        <path id="Path_38640" data-name="Path 38640" d="M20.392,31.98a.944.944,0,0,0-.473-.822L12.09,26.654a.92.92,0,0,0-.431-.125h-.081a.936.936,0,0,0-.432.125L3.318,31.159a.95.95,0,0,0-.474.822l.017,12.132a.465.465,0,0,0,.236.408.457.457,0,0,0,.47,0l4.652-2.664a.953.953,0,0,0,.474-.821V35.368a.943.943,0,0,1,.472-.819l1.981-1.141a.938.938,0,0,1,.474-.127.926.926,0,0,1,.47.127l1.981,1.141a.944.944,0,0,1,.473.819v5.668a.956.956,0,0,0,.474.821l4.651,2.664a.462.462,0,0,0,.473,0,.473.473,0,0,0,.235-.408Z" transform="translate(-0.104 -13.841)" fill="#333" fill-rule="evenodd"/>
      </g>
      <g id="Group_36262" data-name="Group 36262" transform="translate(1.467 2.2)" clip-path="url(#clip-path-2)">
        <path id="Path_38641" data-name="Path 38641" d="M109.436,1.76a.473.473,0,0,0-.7.413V14.188a.331.331,0,0,1-.5.286l-1.961-1.129a.946.946,0,0,0-.944,0L97.5,17.864a.945.945,0,0,0-.473.819v9.042a.947.947,0,0,0,.473.819l7.831,4.522a.943.943,0,0,0,.946,0l7.833-4.522a.946.946,0,0,0,.473-.819V5.187a.945.945,0,0,0-.485-.826Zm-.726,22.994a.236.236,0,0,1-.118.2l-2.69,1.551a.237.237,0,0,1-.235,0l-2.689-1.551a.235.235,0,0,1-.118-.2v-3.1a.235.235,0,0,1,.118-.2l2.689-1.554a.236.236,0,0,1,.236,0l2.689,1.554a.237.237,0,0,1,.118.2Z" transform="translate(-52.213 -1.764)" fill="#333" fill-rule="evenodd"/>
      </g>
      <g id="Group_36263" data-name="Group 36263" transform="translate(0 1.467)" clip-path="url(#clip-path-3)">
        <path id="Path_38642" data-name="Path 38642" d="M161.266,35.244a.946.946,0,0,0,.471-.818V32.235a.946.946,0,0,0-.471-.818L153.485,26.9a.945.945,0,0,0-.948,0l-7.829,4.52a.945.945,0,0,0-.473.819v9.04a.945.945,0,0,0,.478.822l7.78,4.433a.946.946,0,0,0,.927,0l4.706-2.615a.473.473,0,0,0,.006-.824l-7.879-4.522a.474.474,0,0,1-.238-.41V35.333a.473.473,0,0,1,.237-.41L152.7,33.51a.471.471,0,0,1,.472,0l2.453,1.414a.474.474,0,0,1,.237.41v2.229a.472.472,0,0,0,.71.408Z" transform="translate(-76.498 -14.706)" fill="#333" fill-rule="evenodd"/>
      </g>
      <g id="Group_36264" data-name="Group 36264" transform="translate(1.467 0)" clip-path="url(#clip-path-4)">
        <path id="Path_38643" data-name="Path 38643" d="M161.378,44.451a.18.18,0,0,1,.181,0l1.5.867a.181.181,0,0,1,.091.158V47.21a.182.182,0,0,1-.091.158l-1.5.866a.18.18,0,0,1-.181,0l-1.5-.866a.182.182,0,0,1-.09-.158V45.475a.182.182,0,0,1,.09-.158Z" transform="translate(-86.447 -22.87)" fill="#699f63" fill-rule="evenodd"/>
      </g>
    </g>
    <g id="Group_36267" data-name="Group 36267" transform="translate(8295.923 6693.579)">
      <g id="Group_36266" data-name="Group 36266" transform="translate(0 0)" clip-path="url(#clip-path-5)">
        <path id="Path_38644" data-name="Path 38644" d="M65.916,22.454,54.665,45.405,32.723,34.65,43.974,11.7Z" transform="translate(-40.592 -18.597)" fill="url(#linear-gradient)"/>
      </g>
    </g>
    <g id="Group_36268" data-name="Group 36268" transform="translate(8296.116 6693.607)" clip-path="url(#clip-path-6)">
      <path id="Path_38646" data-name="Path 38646" d="M29.589,24.192,50.079,9.053l15.494,20.97L45.083,45.162Z" transform="translate(-39.076 -17.182)" fill="url(#linear-gradient-2)"/>
    </g>
    <g id="Group_36269" data-name="Group 36269" transform="translate(8296.415 6693.58)" clip-path="url(#clip-path-7)">
      <rect id="Rectangle_14235" data-name="Rectangle 14235" width="16.946" height="19.857" transform="translate(0 0)" fill="url(#linear-gradient-3)"/>
    </g>
  </g>
</svg>
