<svg xmlns="http://www.w3.org/2000/svg" width="76" height="76" viewBox="0 0 76 76">
  <g id="Group_36222" data-name="Group 36222" transform="translate(-782 -54)">
    <path id="Path_38536" data-name="Path 38536" d="M75.995,21.05c0-.764-.013-1.528-.034-2.294a33.264,33.264,0,0,0-.439-4.991,16.833,16.833,0,0,0-1.564-4.747A15.959,15.959,0,0,0,66.98,2.042,16.845,16.845,0,0,0,62.236.479a33.238,33.238,0,0,0-4.993-.44C56.478.019,55.714.01,54.949.005,54.042,0,53.134,0,52.226,0H23.774c-.908,0-1.815,0-2.723.005-.765,0-1.53.013-2.294.034-.416.011-.834.026-1.251.046a28.973,28.973,0,0,0-3.742.394,17.368,17.368,0,0,0-3.6,1.035q-.578.239-1.147.528A15.938,15.938,0,0,0,5.9,4.127q-.477.407-.921.851A15.944,15.944,0,0,0,2.042,9.019,16.84,16.84,0,0,0,.478,13.766,33.33,33.33,0,0,0,.04,18.757c-.021.765-.03,1.529-.035,2.294-.006.908,0,1.816,0,2.723V52.226c0,.908,0,1.815,0,2.724,0,.764.014,1.528.035,2.292a33.3,33.3,0,0,0,.439,4.992,16.845,16.845,0,0,0,1.564,4.747A15.971,15.971,0,0,0,9.02,73.958a16.84,16.84,0,0,0,4.744,1.563,33.212,33.212,0,0,0,4.993.439c.764.02,1.529.029,2.294.034.907.007,1.814.006,2.723.006H52.226c.907,0,1.815,0,2.723-.006.765,0,1.529-.013,2.294-.034a33.239,33.239,0,0,0,4.993-.439,16.844,16.844,0,0,0,4.744-1.563,15.969,15.969,0,0,0,6.977-6.977,16.836,16.836,0,0,0,1.564-4.747,33.251,33.251,0,0,0,.439-4.992c.021-.764.029-1.528.034-2.292C76,54.041,76,53.134,76,52.226V23.774C76,22.866,76,21.958,75.995,21.05Z" transform="translate(782 54)" fill="#197be4"/>
    <path id="Union_51" data-name="Union 51" d="M0,21.135V.057H5v1.89H2.35V19.284H5v1.889Zm49.6,0V19.246h2.654V1.89H49.6V0h5V21.135ZM27.115,16.2l.249-1.68a4.391,4.391,0,0,0,1.26.207c1.16,0,1.842-.547,1.842-2.531l.019-7.365h2.037v7.45c0,3.164-1.493,4.223-3.686,4.223A5.331,5.331,0,0,1,27.115,16.2Zm18.215.254c-3.547,0-5.7-2.275-5.7-5.759a5.842,5.842,0,0,1,1.659-4.4A5.542,5.542,0,0,1,45.6,4.637a6.312,6.312,0,0,1,2.764.511L47.909,6.81a5.291,5.291,0,0,0-2.193-.444c-2.276,0-3.914,1.464-3.914,4.221,0,2.513,1.446,4.136,3.9,4.136a5.568,5.568,0,0,0,2.22-.425l.3,1.644a6.9,6.9,0,0,1-2.617.514C45.507,16.456,45.419,16.454,45.33,16.45ZM6.476,10.586c0-3.522,2.156-6.006,5.307-6.006s5.2,2.587,5.2,5.808c0,3.844-2.275,6.035-5.362,6.035S6.476,13.958,6.476,10.586Zm5.262,4.155c1.963,0,3.086-1.888,3.086-4.267,0-2.163-1.041-4.2-3.086-4.2S8.613,8.245,8.613,10.6l.019-.046C8.632,12.891,9.774,14.741,11.738,14.741Zm6.992,1.446L18.712,4.978a16.649,16.649,0,0,1,2.968-.256,5.191,5.191,0,0,1,3.206.728,2.428,2.428,0,0,1,1.16,2.143A2.653,2.653,0,0,1,24.2,10.077a2.874,2.874,0,0,1,2.257,2.833,3,3,0,0,1-1.079,2.36c-.792.718-2.109,1.067-4.146,1.067h-.1A19.583,19.583,0,0,1,18.73,16.188Zm2.009-1.417a8.929,8.929,0,0,0,1.078.046c1.309,0,2.469-.509,2.469-1.888s-1.123-1.888-2.532-1.888H20.739Zm-.008-8.4L20.739,9.5H21.78c1.409,0,2.2-.678,2.2-1.653s-.792-1.565-2.09-1.565c-.066,0-.131,0-.2,0A5.312,5.312,0,0,0,20.731,6.366ZM34.08,12.477V11.031h4.239v1.446Z" transform="translate(793.084 81.708)" fill="#fff"/>
  </g>
</svg>
