<svg xmlns="http://www.w3.org/2000/svg" xmlns:xlink="http://www.w3.org/1999/xlink" width="46" height="46" viewBox="0 0 46 46">
  <defs>
    <clipPath id="clip-path">
      <rect id="Rectangle_14096" data-name="Rectangle 14096" width="46" height="46" transform="translate(75 3003)" fill="#fff"/>
    </clipPath>
  </defs>
  <g id="Mask_Group_9101" data-name="Mask Group 9101" transform="translate(-75 -3003)" clip-path="url(#clip-path)">
    <g id="Open_Source_Web_Development" data-name="Open Source Web  Development" transform="translate(52 2905.47)">
      <path id="Path_38519" data-name="Path 38519" d="M51.915,129.489H88.88V108.768a1.242,1.242,0,0,0-1.24-1.238H53.154a1.241,1.241,0,0,0-1.239,1.238Z" transform="translate(-24.404)" fill="none" stroke="#fff" stroke-linecap="round" stroke-linejoin="round" stroke-width="1.5" fill-rule="evenodd"/>
      <path id="Path_38520" data-name="Path 38520" d="M256.56,144.506h12.8a.3.3,0,0,1,.3.3v6.023a.3.3,0,0,1-.3.3h-12.8a.3.3,0,0,1-.3-.3v-6.023A.3.3,0,0,1,256.56,144.506Z" transform="translate(-209.681 -33.526)" fill="none" stroke="#fff" stroke-linecap="round" stroke-linejoin="round" stroke-width="1.5" fill-rule="evenodd"/>
      <path id="Path_38521" data-name="Path 38521" d="M25,342.985H66.988v3.231" transform="translate(0 -213.485)" fill="none" stroke="#fff" stroke-linecap="round" stroke-linejoin="round" stroke-width="1.5" fill-rule="evenodd"/>
      <path id="Path_38522" data-name="Path 38522" d="M461.536,377.61A1.39,1.39,0,0,1,460.15,379" transform="translate(-394.547 -244.88)" fill="none" stroke="#fff" stroke-linecap="round" stroke-linejoin="round" stroke-width="1.5" fill-rule="evenodd"/>
      <line id="Line_175" data-name="Line 175" x1="39.493" transform="translate(26.11 134.117)" fill="none" stroke="#fff" stroke-linecap="round" stroke-linejoin="round" stroke-width="1.5"/>
      <path id="Path_38523" data-name="Path 38523" d="M26.11,381.685a1.113,1.113,0,0,1-1.11-1.11" transform="translate(0 -247.568)" fill="none" stroke="#fff" stroke-linecap="round" stroke-linejoin="round" stroke-width="1.5" fill-rule="evenodd"/>
      <line id="Line_176" data-name="Line 176" y1="3.507" transform="translate(25 129.5)" fill="none" stroke="#fff" stroke-linecap="round" stroke-linejoin="round" stroke-width="1.5"/>
      <line id="Line_177" data-name="Line 177" x2="13.607" transform="translate(27.038 131.808)" fill="none" stroke="#fff" stroke-linecap="round" stroke-linejoin="round" stroke-width="1.5"/>
      <path id="Path_38524" data-name="Path 38524" d="M399.379,365.171a.293.293,0,1,0-.294-.294.294.294,0,0,0,.294.294" transform="translate(-339.18 -233.069)" fill="none" stroke="#fff" stroke-linecap="round" stroke-linejoin="round" stroke-width="1.5" fill-rule="evenodd"/>
      <path id="Path_38525" data-name="Path 38525" d="M422.961,365.171a.293.293,0,1,0,0-.587.293.293,0,0,0,0,.587" transform="translate(-360.563 -233.069)" fill="none" stroke="#fff" stroke-linecap="round" stroke-linejoin="round" stroke-width="1.5" fill-rule="evenodd"/>
      <path id="Path_38526" data-name="Path 38526" d="M444.57,365.171a.293.293,0,1,0-.293-.294.295.295,0,0,0,.293.294" transform="translate(-380.155 -233.069)" fill="none" stroke="#fff" stroke-linecap="round" stroke-linejoin="round" stroke-width="1.5" fill-rule="evenodd"/>
      <line id="Line_178" data-name="Line 178" x2="13.628" transform="translate(46.355 120.171)" fill="none" stroke="#fff" stroke-linecap="round" stroke-linejoin="round" stroke-width="1.5"/>
      <g id="Group_36125" data-name="Group 36125" transform="translate(31.222 122.481)">
        <line id="Line_179" data-name="Line 179" x1="18.794" transform="translate(10.119)" fill="none" stroke="#fff" stroke-linecap="round" stroke-linejoin="round" stroke-width="1.5"/>
        <line id="Line_180" data-name="Line 180" x1="8.195" fill="none" stroke="#fff" stroke-linecap="round" stroke-linejoin="round" stroke-width="1.5"/>
      </g>
      <g id="Group_36126" data-name="Group 36126" transform="translate(31.222 124.791)">
        <line id="Line_181" data-name="Line 181" x2="11.529" fill="none" stroke="#fff" stroke-linecap="round" stroke-linejoin="round" stroke-width="1.5"/>
        <line id="Line_182" data-name="Line 182" x2="15.514" transform="translate(13.399)" fill="none" stroke="#fff" stroke-linecap="round" stroke-linejoin="round" stroke-width="1.5"/>
      </g>
      <line id="Line_183" data-name="Line 183" x2="28.913" transform="translate(31.222 127.101)" fill="none" stroke="#fff" stroke-linecap="round" stroke-linejoin="round" stroke-width="1.5"/>
      <g id="Group_36127" data-name="Group 36127" transform="translate(31.438 110.98)">
        <path id="Path_38527" data-name="Path 38527" d="M96.822,158.514,94,161.436l2.878,2.952" transform="translate(-94.003 -157.207)" fill="none" stroke="#fff" stroke-linecap="round" stroke-linejoin="round" stroke-width="1.5" fill-rule="evenodd"/>
        <path id="Path_38528" data-name="Path 38528" d="M185.18,158.514,188,161.436l-2.878,2.952" transform="translate(-176.62 -157.207)" fill="none" stroke="#fff" stroke-linecap="round" stroke-linejoin="round" stroke-width="1.5" fill-rule="evenodd"/>
        <line id="Line_184" data-name="Line 184" x1="3.128" y2="8.487" transform="translate(4.261 0)" fill="none" stroke="#fff" stroke-linecap="round" stroke-linejoin="round" stroke-width="1.5"/>
      </g>
    </g>
  </g>
</svg>
