<svg xmlns="http://www.w3.org/2000/svg" width="102.233" height="69.853" viewBox="0 0 102.233 69.853">
  <g id="Group_33365" data-name="Group 33365" transform="translate(-580.833 -1964.434)">
    <path id="Path_35677" data-name="Path 35677" d="M133.179,22.425l-.87,0c.013-5.488.085-8.886.141-11.617.07-3.4.121-5.851.032-10.216l-.009-.427L132.9.145c6.759-.268,13.925-.082,14-.079l.418.011.191,13.006-.87.014-.18-12.17c-1.585-.034-7.431-.137-13.1.072.077,4.119.027,6.529-.041,9.824-.056,2.727-.126,6.121-.141,11.6" transform="translate(498.958 1964.957)" fill="#fff" stroke="#fff" stroke-width="1"/>
    <path id="Path_35678" data-name="Path 35678" d="M138.512,61.777l-56.9-25.234.353-.8,56.567,25.114Z" transform="translate(530.52 1942.701)" fill="#fff" stroke="#fff" stroke-width="1"/>
    <path id="Path_35679" data-name="Path 35679" d="M163.218,42.251c-2.339-1.92-8.786-6.835-10.857-6.835l-.078,0c-6.4.44-7.767-3.006-7.822-3.152a2.488,2.488,0,0,1,.3-2.225c.636-.806,1.885-1.113,3.719-.909a6.584,6.584,0,0,1,5.73,5.333l-.861.134a5.614,5.614,0,0,0-4.966-4.6c-1.486-.165-2.5.035-2.935.579a1.63,1.63,0,0,0-.171,1.391c.043.109,1.25,2.952,6.947,2.582,2.644-.164,10.644,6.289,11.543,7.028Z" transform="translate(491.478 1946.857)" fill="#fff" stroke="#fff" stroke-width="1"/>
    <path id="Path_35680" data-name="Path 35680" d="M143.279,39.829l-.341-.8a89.764,89.764,0,0,1,9.793-3.549l-.065-.031A10.044,10.044,0,0,1,159.6,30.11a3.073,3.073,0,0,1,2.809.562,2.59,2.59,0,0,1,.624,2.1c-.056.2-1.179,3.539-7.865,3.181-1.957-.1-8.635,2.489-11.884,3.874m17.274-8.939a4.817,4.817,0,0,0-.81.077,9.09,9.09,0,0,0-5.964,4.269,6.386,6.386,0,0,1,1.43-.151c5.9.316,6.938-2.41,6.973-2.51a1.746,1.746,0,0,0-.394-1.287,1.7,1.7,0,0,0-1.235-.4" transform="translate(492.34 1946.266)" fill="#fff" stroke="#fff" stroke-width="1"/>
    <path id="Path_35681" data-name="Path 35681" d="M0,0V8.7" transform="translate(645.791 1984.958)" fill="#fff" stroke="#fff" stroke-width="1.8"/>
    <path id="Path_35682" data-name="Path 35682" d="M51.006,35.663,31.861,44.154q-.017.527-.021,1.057l19.555-8.673Z" transform="translate(561.51 1942.753)" fill="#fff" stroke="#fff" stroke-width="1"/>
    <path id="Path_35683" data-name="Path 35683" d="M3.682,132.253a3.73,3.73,0,0,1,0-7.459,3.73,3.73,0,0,1,0,7.459m0-6.613a2.885,2.885,0,1,0,2.789,2.883,2.787,2.787,0,0,0-2.789-2.883" transform="translate(581.333 1887.26)" fill="#fff" stroke="#fff" stroke-width="1"/>
    <path id="Path_35684" data-name="Path 35684" d="M28.147,131.382a3.094,3.094,0,0,1-2.413,1.128,3,3,0,0,1-2.679-1.473,3.968,3.968,0,0,1-.423-2.021v-3.808h.893v3.666a3.07,3.07,0,0,0,.408,1.849,2.124,2.124,0,0,0,1.8.94,2.762,2.762,0,0,0,2.382-1.488v-4.967h.893v7.145h-.862Z" transform="translate(567.243 1887.002)" fill="#fff" stroke="#fff" stroke-width="1"/>
    <path id="Path_35685" data-name="Path 35685" d="M48.277,125.656a4.213,4.213,0,0,0-.423-.016,2.489,2.489,0,0,0-2.241,1.583V132.1H44.72V124.95h.893v.94a2.743,2.743,0,0,1,2.256-1.1c.125,0,.439.015.533.031Z" transform="translate(553.49 1887.26)" fill="#fff" stroke="#fff" stroke-width="1"/>
    <path id="Path_35686" data-name="Path 35686" d="M72.38,134.368a3.272,3.272,0,0,1-3.1,1.645,3.8,3.8,0,0,1-3.244-1.708l.705-.517a2.9,2.9,0,0,0,2.554,1.379,2.387,2.387,0,0,0,2.3-1.222,4.03,4.03,0,0,0,.282-1.849v-1.019a3.152,3.152,0,0,1-2.538,1.176,3.629,3.629,0,0,1-2.131-.674,3.669,3.669,0,0,1-1.52-3.055,3.814,3.814,0,0,1,1.332-2.931,3.64,3.64,0,0,1,2.272-.8,3.48,3.48,0,0,1,2.617,1.144v-.987h.862v7.114a4.829,4.829,0,0,1-.392,2.3m-.5-7.287a3.144,3.144,0,0,0-2.57-1.442,2.763,2.763,0,0,0-1.724.611,2.923,2.923,0,0,0-1,2.272,2.761,2.761,0,0,0,2.743,2.883,2.967,2.967,0,0,0,2.554-1.567Z" transform="translate(540.436 1887.26)" fill="#fff" stroke="#fff" stroke-width="1"/>
    <path id="Path_35687" data-name="Path 35687" d="M92.373,125.656a4.224,4.224,0,0,0-.423-.016,2.488,2.488,0,0,0-2.241,1.583V132.1h-.893V124.95h.893v.94a2.744,2.744,0,0,1,2.257-1.1c.125,0,.439.015.533.031Z" transform="translate(526.036 1887.26)" fill="#fff" stroke="#fff" stroke-width="1"/>
    <path id="Path_35688" data-name="Path 35688" d="M105.492,130.936a3.7,3.7,0,0,1-2.915,1.317,3.546,3.546,0,0,1-3.588-3.73,3.5,3.5,0,0,1,3.416-3.729,3.327,3.327,0,0,1,3.322,3.494,2.662,2.662,0,0,1-.016.313H99.882a2.71,2.71,0,0,0,2.7,2.8,2.856,2.856,0,0,0,2.288-1.065Zm-5.563-3.149H104.8a2.418,2.418,0,0,0-2.4-2.147,2.546,2.546,0,0,0-2.476,2.147" transform="translate(519.703 1887.26)" fill="#fff" stroke="#fff" stroke-width="1"/>
    <path id="Path_35689" data-name="Path 35689" d="M125.425,130.936a3.7,3.7,0,0,1-2.915,1.317,3.546,3.546,0,0,1-3.588-3.73,3.5,3.5,0,0,1,3.416-3.729,3.327,3.327,0,0,1,3.322,3.494,2.724,2.724,0,0,1-.015.313h-5.829a2.71,2.71,0,0,0,2.7,2.8,2.855,2.855,0,0,0,2.288-1.065Zm-5.563-3.149h4.873a2.419,2.419,0,0,0-2.4-2.147,2.547,2.547,0,0,0-2.476,2.147" transform="translate(507.293 1887.26)" fill="#fff" stroke="#fff" stroke-width="1"/>
    <path id="Path_35690" data-name="Path 35690" d="M142,125.953a3.3,3.3,0,0,1,5.061.047,3.419,3.419,0,0,1,.611,2.287V132.1h-.893v-3.745a2.832,2.832,0,0,0-.408-1.755,2.217,2.217,0,0,0-1.865-.956,2.831,2.831,0,0,0-2.476,1.489V132.1h-.893v-7.145H142Z" transform="translate(493.463 1887.26)" fill="#fff" stroke="#fff" stroke-width="1"/>
    <path id="Path_35691" data-name="Path 35691" d="M172.008,119.6a3.308,3.308,0,0,1,5.029.094,3.417,3.417,0,0,1,.611,2.287v3.808h-.893v-3.745a2.835,2.835,0,0,0-.407-1.755,2.219,2.219,0,0,0-1.865-.956,2.831,2.831,0,0,0-2.475,1.488v4.967h-.893V114.663h.893Z" transform="translate(474.797 1893.568)" fill="#fff" stroke="#fff" stroke-width="1"/>
    <path id="Path_35692" data-name="Path 35692" d="M194.4,132.253a3.73,3.73,0,1,1,3.682-3.73,3.649,3.649,0,0,1-3.682,3.73m0-6.613a2.885,2.885,0,1,0,2.789,2.883,2.787,2.787,0,0,0-2.789-2.883" transform="translate(462.595 1887.26)" fill="#fff" stroke="#fff" stroke-width="1"/>
    <path id="Path_35693" data-name="Path 35693" d="M218.86,131.382a3.094,3.094,0,0,1-2.413,1.128,3,3,0,0,1-2.68-1.473,3.963,3.963,0,0,1-.423-2.021v-3.808h.893v3.666a3.069,3.069,0,0,0,.408,1.849,2.126,2.126,0,0,0,1.8.94,2.761,2.761,0,0,0,2.381-1.488v-4.967h.893v7.145h-.862Z" transform="translate(448.506 1887.002)" fill="#fff" stroke="#fff" stroke-width="1"/>
    <path id="Path_35694" data-name="Path 35694" d="M234.943,130.545a3.388,3.388,0,0,0,2.162.862c.893,0,1.645-.5,1.645-1.254,0-1.833-4.121-.83-4.121-3.274a2.257,2.257,0,0,1,2.429-2.084,4.143,4.143,0,0,1,2.3.689l-.47.737a2.936,2.936,0,0,0-1.786-.58c-.752,0-1.583.391-1.583,1.222,0,1.583,4.121.736,4.121,3.244a2.248,2.248,0,0,1-2.476,2.147,4.053,4.053,0,0,1-2.774-1.019Z" transform="translate(435.399 1887.26)" fill="#fff" stroke="#fff" stroke-width="1"/>
    <path id="Path_35695" data-name="Path 35695" d="M256.885,130.936a3.7,3.7,0,0,1-2.915,1.317,3.546,3.546,0,0,1-3.588-3.73,3.5,3.5,0,0,1,3.415-3.729,3.327,3.327,0,0,1,3.322,3.494,2.652,2.652,0,0,1-.016.313h-5.829a2.71,2.71,0,0,0,2.695,2.8,2.856,2.856,0,0,0,2.288-1.065Zm-5.563-3.149H256.2a2.418,2.418,0,0,0-2.4-2.147,2.546,2.546,0,0,0-2.476,2.147" transform="translate(425.445 1887.26)" fill="#fff" stroke="#fff" stroke-width="1"/>
    <path id="Path_35696" data-name="Path 35696" d="M122.19,170.622a1.909,1.909,0,0,1-1.81.959,2.218,2.218,0,0,1-1.892-1l.411-.3a1.694,1.694,0,0,0,1.49.8,1.392,1.392,0,0,0,1.343-.713,2.342,2.342,0,0,0,.165-1.078V168.7a1.839,1.839,0,0,1-1.481.686,2.118,2.118,0,0,1-1.243-.393,2.14,2.14,0,0,1-.886-1.782,2.222,2.222,0,0,1,.777-1.709,2.121,2.121,0,0,1,1.325-.466,2.028,2.028,0,0,1,1.526.667v-.576h.5v4.15a2.817,2.817,0,0,1-.229,1.344m-.292-4.25a1.835,1.835,0,0,0-1.5-.841,1.613,1.613,0,0,0-1.006.356,1.706,1.706,0,0,0-.585,1.325,1.611,1.611,0,0,0,1.6,1.682,1.732,1.732,0,0,0,1.49-.914Z" transform="translate(507.688 1862.205)" fill="#fff" stroke="#fff" stroke-width="1"/>
    <path id="Path_35697" data-name="Path 35697" d="M133.133,160.217a.468.468,0,0,1,.466.466.46.46,0,0,1-.466.457.452.452,0,0,1-.457-.457.46.46,0,0,1,.457-.466m-.256,1.91h.521V166.3h-.521Z" transform="translate(498.729 1865.206)" fill="#fff" stroke="#fff" stroke-width="1"/>
    <path id="Path_35698" data-name="Path 35698" d="M139.66,159.415a1.155,1.155,0,0,0-.311-.036.944.944,0,0,0-.814.393,1.376,1.376,0,0,0-.192.868v.658h1.416v.494h-1.416v3.674h-.521v-3.674h-1.079V161.3h1.079v-.631a1.867,1.867,0,0,1,.347-1.27,1.513,1.513,0,0,1,1.188-.512,1.926,1.926,0,0,1,.4.046Z" transform="translate(496.196 1866.035)" fill="#fff" stroke="#fff" stroke-width="1"/>
    <path id="Path_35699" data-name="Path 35699" d="M149.275,163.9h-1.417v2.285a1.02,1.02,0,0,0,.183.695.855.855,0,0,0,.695.292,1.673,1.673,0,0,0,.448-.055l.092.475a2.042,2.042,0,0,1-.539.073,1.4,1.4,0,0,1-1.115-.476,1.539,1.539,0,0,1-.283-1.024V163.9h-1.17v-.494h1.17v-1.133h.521v1.133h1.417Z" transform="translate(490.33 1863.924)" fill="#fff" stroke="#fff" stroke-width="1"/>
    <path id="Path_35700" data-name="Path 35700" d="M157,168.392a1.976,1.976,0,0,0,1.262.5c.521,0,.959-.292.959-.731,0-1.07-2.4-.485-2.4-1.91a1.317,1.317,0,0,1,1.417-1.215,2.419,2.419,0,0,1,1.344.4l-.275.43a1.71,1.71,0,0,0-1.042-.339c-.439,0-.923.229-.923.713,0,.923,2.4.43,2.4,1.892a1.311,1.311,0,0,1-1.444,1.252,2.366,2.366,0,0,1-1.618-.594Z" transform="translate(483.785 1862.204)" fill="#fff" stroke="#fff" stroke-width="1"/>
    <path id="Path_35701" data-name="Path 35701" d="M175.482,163.9h-1.417v2.285a1.019,1.019,0,0,0,.183.695.854.854,0,0,0,.695.292,1.672,1.672,0,0,0,.447-.055l.092.475a2.046,2.046,0,0,1-.539.073,1.4,1.4,0,0,1-1.115-.476,1.537,1.537,0,0,1-.283-1.024V163.9h-1.17v-.494h1.17v-1.133h.52v1.133h1.417Z" transform="translate(474.014 1863.924)" fill="#fff" stroke="#fff" stroke-width="1"/>
    <path id="Path_35702" data-name="Path 35702" d="M184.376,162.007a1.93,1.93,0,0,1,2.934.054,2,2,0,0,1,.356,1.335v2.221h-.521v-2.184a1.652,1.652,0,0,0-.237-1.024,1.293,1.293,0,0,0-1.088-.558,1.651,1.651,0,0,0-1.444.868v2.9h-.521v-6.489h.521Z" transform="translate(466.865 1865.884)" fill="#fff" stroke="#fff" stroke-width="1"/>
    <path id="Path_35703" data-name="Path 35703" d="M200.345,169.3v-.612a1.837,1.837,0,0,1-1.5.7,2.118,2.118,0,0,1-1.243-.393,2.14,2.14,0,0,1-.887-1.782,2.223,2.223,0,0,1,.777-1.709,2.121,2.121,0,0,1,1.325-.466,2.03,2.03,0,0,1,1.526.667v-.576h.5V169.3Zm-.018-2.925a1.833,1.833,0,0,0-1.5-.841,1.612,1.612,0,0,0-1.005.356,1.706,1.706,0,0,0-.585,1.325,1.611,1.611,0,0,0,1.6,1.682,1.731,1.731,0,0,0,1.49-.914Z" transform="translate(458.858 1862.205)" fill="#fff" stroke="#fff" stroke-width="1"/>
    <path id="Path_35704" data-name="Path 35704" d="M212.807,163.9H211.39v2.285a1.022,1.022,0,0,0,.183.695.855.855,0,0,0,.695.292,1.675,1.675,0,0,0,.448-.055l.091.475a2.036,2.036,0,0,1-.539.073,1.4,1.4,0,0,1-1.115-.476,1.539,1.539,0,0,1-.283-1.024V163.9H209.7v-.494h1.17v-1.133h.521v1.133h1.416Z" transform="translate(450.775 1863.924)" fill="#fff" stroke="#fff" stroke-width="1"/>
    <path id="Path_35705" data-name="Path 35705" d="M230.509,170.622a1.909,1.909,0,0,1-1.81.959,2.217,2.217,0,0,1-1.892-1l.411-.3a1.694,1.694,0,0,0,1.49.8,1.392,1.392,0,0,0,1.343-.713,2.348,2.348,0,0,0,.165-1.078V168.7a1.839,1.839,0,0,1-1.481.686,2.118,2.118,0,0,1-1.243-.393,2.14,2.14,0,0,1-.887-1.782,2.223,2.223,0,0,1,.777-1.709,2.121,2.121,0,0,1,1.325-.466,2.03,2.03,0,0,1,1.526.667v-.576h.5v4.15a2.817,2.817,0,0,1-.228,1.344m-.292-4.25a1.833,1.833,0,0,0-1.5-.841,1.612,1.612,0,0,0-1.005.356,1.706,1.706,0,0,0-.585,1.325,1.611,1.611,0,0,0,1.6,1.682,1.731,1.731,0,0,0,1.49-.914Z" transform="translate(440.249 1862.205)" fill="#fff" stroke="#fff" stroke-width="1"/>
    <path id="Path_35706" data-name="Path 35706" d="M241.452,160.217a.468.468,0,0,1,.466.466.46.46,0,0,1-.466.457.452.452,0,0,1-.457-.457.46.46,0,0,1,.457-.466m-.256,1.91h.521V166.3H241.2Z" transform="translate(431.29 1865.206)" fill="#fff" stroke="#fff" stroke-width="1"/>
    <path id="Path_35707" data-name="Path 35707" d="M247.123,169.447l-1.938-4.168h.566l1.536,3.327,1.535-3.327h.567l-1.929,4.168Z" transform="translate(428.682 1862.054)" fill="#fff" stroke="#fff" stroke-width="1"/>
    <path id="Path_35708" data-name="Path 35708" d="M261.306,168.62a2.161,2.161,0,0,1-1.7.768,2.068,2.068,0,0,1-2.093-2.175,2.043,2.043,0,0,1,1.993-2.175,1.941,1.941,0,0,1,1.938,2.038,1.529,1.529,0,0,1-.009.183h-3.4a1.581,1.581,0,0,0,1.572,1.636,1.666,1.666,0,0,0,1.335-.622Zm-3.245-1.837H260.9a1.411,1.411,0,0,0-1.4-1.252,1.485,1.485,0,0,0-1.445,1.252" transform="translate(421.006 1862.205)" fill="#fff" stroke="#fff" stroke-width="1"/>
  </g>
</svg>
