<svg xmlns="http://www.w3.org/2000/svg" width="138.224" height="36.243" viewBox="0 0 138.224 36.243">
  <path id="Union_66" data-name="Union 66" d="M113.087,36.137a18.337,18.337,0,0,1-2.106-.334,24.282,24.282,0,0,1-2.781-.752c-.647-.223-1.3-.5-1.916-.78a22.8,22.8,0,0,1-3.617-2.171A21.1,21.1,0,0,1,97.7,26.839c-.081-.084-.135-.167-.081-.278a.24.24,0,0,1,.3-.111,14.975,14.975,0,0,0,1.539.306c.7.139,1.377.251,2.079.362.621.111,1.269.2,1.89.278a1.324,1.324,0,0,0,.324.056c.378-.056.567.139.756.473a6.915,6.915,0,0,0,.783,1.253,7.818,7.818,0,0,0,2.727,1.977,11.777,11.777,0,0,0,2.564.919c1,.222,2,.389,3.024.529a26.5,26.5,0,0,0,4.7.111c.621-.028,1.242-.139,1.863-.222a15.825,15.825,0,0,0,2.538-.529,11.21,11.21,0,0,0,4.157-2.033,4.776,4.776,0,0,0,1.161-1.392c.324-.585.7-1.142,1.053-1.7a.24.24,0,0,1,.216-.139c.594-.056,1.134-.251,1.728-.334.567-.083,1.107-.278,1.674-.39.486-.111,1-.222,1.485-.362.378-.111.513-.223.459-.446-.027-.167-.189-.251-.54-.167-.513.111-1.026.251-1.539.362-.648.139-1.269.306-1.917.418a3.773,3.773,0,0,1-1,.167c.675-1.113,1.35-2.2,2.025-3.285,2.187.5,4.373,1.03,6.56,1.448.027.2-.108.278-.135.362a24.158,24.158,0,0,1-2.726,3.062,33.237,33.237,0,0,1-7.775,5.6,27.191,27.191,0,0,1-4.752,1.948,24.519,24.519,0,0,1-3.752.863,11.954,11.954,0,0,1-2.241.222c-.323,0-.647.056-.972.056-.256.015-.514.022-.774.022C114.425,36.243,113.749,36.2,113.087,36.137ZM81.231,32.546a4.054,4.054,0,0,1-3.59-2.673,9.02,9.02,0,0,1-.513-2.673c-.135,0-.162.111-.216.195a15.167,15.167,0,0,1-2.106,2.645,5.206,5.206,0,0,1-2.295,1.392,2.016,2.016,0,0,1-1.647-.167,1.906,1.906,0,0,1-.81-1.67,7,7,0,0,1,.432-2.45,23.669,23.669,0,0,1,2.673-5.457,11.226,11.226,0,0,1,1.916-2.339,4.439,4.439,0,0,1,1.7-.919,1.842,1.842,0,0,1,1.431.251c.054.028.108.111.189.111H78.5c.135-.39.243-.807.378-1.2.216-.724.459-1.42.7-2.116.486-1.392,1.026-2.729,1.566-4.093.216-.5.405-1,.648-1.5a.91.91,0,0,1,1.215-.446.966.966,0,0,1,.513,1.169c-.324.947-.594,1.921-.891,2.9-.485,1.531-.972,3.062-1.511,4.594-.459,1.336-.945,2.673-1.512,3.981a4.664,4.664,0,0,0-.189.835,22.821,22.821,0,0,0-.378,2.673,10.521,10.521,0,0,0,0,2.06,4.457,4.457,0,0,0,.621,2.032,1.962,1.962,0,0,0,1.35.919,6.122,6.122,0,0,0,2.916-.278,12.979,12.979,0,0,0,1.242-.418V0h27.59V4.176c-.486.028-.945.028-1.4.055a17.545,17.545,0,0,0-3.779.584,5.5,5.5,0,0,0-2,1.03,2.121,2.121,0,0,0-.81,1.81c.027.752.162,1.475.243,2.2.054.584.135,1.169.216,1.754.081.64.162,1.309.243,1.949.054.529.135,1.086.189,1.615a1.1,1.1,0,0,1-.027.418,13.264,13.264,0,0,0-1.944.835,6.684,6.684,0,0,0-2.511,2.033,3.352,3.352,0,0,0-.513,3.062c.108.362.108.362-.27.557a41.153,41.153,0,0,0-4.346,2.729.542.542,0,0,1-.54.083c-.513-.139-1.053-.251-1.566-.39-.648-.167-1.3-.362-1.944-.529-.918-.251-1.835-.557-2.754-.835a.741.741,0,0,0-.486,1.392,6.572,6.572,0,0,0,.783.279c1.053.306,2.079.64,3.132.919.945.278,1.89.473,2.861.724a23.977,23.977,0,0,0,4.185,5.317.429.429,0,0,1-.378.111c-4.454,0-8.882,0-13.336-.028a4.833,4.833,0,0,0-1.673.306,8.562,8.562,0,0,1-2.493.421A5.811,5.811,0,0,1,81.231,32.546ZM76.858,20.463a4.1,4.1,0,0,0-1.377,1.28,17.872,17.872,0,0,0-2.159,3.508,15.818,15.818,0,0,0-1.3,3.48A2.087,2.087,0,0,0,72,29.65a4.684,4.684,0,0,0,1.106-.584A9.273,9.273,0,0,0,75,26.95a27.581,27.581,0,0,0,2.214-4.037c.054-.167.216-.334.189-.529a1.312,1.312,0,0,1-.027-.724,3.389,3.389,0,0,0-.135-1.281.321.321,0,0,0-.1-.018A.588.588,0,0,0,76.858,20.463ZM47.729,32.045a2.541,2.541,0,0,1-1-1.531,2.316,2.316,0,0,1-.162-.975c-.162.028-.243.167-.324.251a3.851,3.851,0,0,1-1.512.975,2.161,2.161,0,0,1-2.637-.933l.019.042v1.949H38.956c-.108-.111-.054-.251-.054-.39V22.523c0-.306-.081-.418-.351-.418a.412.412,0,0,0-.486.418V31.46a1.086,1.086,0,0,1-.027.418h-3.1V19.322h2.888c.108.139.027.334.081.5a3,3,0,0,1,2.754-.557A1.541,1.541,0,0,1,42.033,20.6a5.233,5.233,0,0,1,.135,1.113c.027.7,0,1.365,0,2.06a4.9,4.9,0,0,1-.083.712c.259-.945.579-2.021.676-2.355.243-.863.54-1.726.837-2.589.27-.724.54-1.448.837-2.144a.9.9,0,0,1,1.161-.529.965.965,0,0,1,.54,1.169c-.135.5-.351.975-.54,1.476-.432,1.169-.837,2.366-1.188,3.564-.27.891-.513,1.837-.7,2.756a9.49,9.49,0,0,0-.189,2.478c0,.223.324,1.058,1.053.39a6.269,6.269,0,0,0,1.188-1.364,17.8,17.8,0,0,0,1.323-2.589,5.68,5.68,0,0,0,.3-1.113c.216-.947.513-1.894.81-2.84a35.474,35.474,0,0,1,1.188-3.368A.894.894,0,0,1,50.51,16.9a.95.95,0,0,1,.594,1.086c-.135.613-.27,1.225-.432,1.81-.216.78-.459,1.559-.675,2.338-.27.947-.621,1.865-.972,2.784a8.7,8.7,0,0,0-.459,1.838,15.083,15.083,0,0,0-.243,2.227,5.541,5.541,0,0,0,.162,1.142c.054.362.3.473.647.39a3.455,3.455,0,0,0,1.917-1.365,9.521,9.521,0,0,0,1.35-2.338,24.448,24.448,0,0,0,1.053-3.091c.27-1,.513-2,.7-3.006.135-.7.243-1.392.351-2.088.054-.474.135-.975.189-1.448.081-.64.135-1.281.216-1.921a.925.925,0,0,1,.945-.835.913.913,0,0,1,.891.919c0,.334-.054.64-.08.974-.108,1.03-.27,2.033-.405,3.063a2.832,2.832,0,0,0-.108.835c.3-.223.567-.446.837-.64a5.74,5.74,0,0,1,3.455-1.086,2.9,2.9,0,0,1,2.646,2.088,7.383,7.383,0,0,1,.27,2.032,1.281,1.281,0,0,0,.027.445,1.445,1.445,0,0,0,.519-.038,1.649,1.649,0,0,1,.453-.046,1.083,1.083,0,0,0,.594-.111.957.957,0,0,1,1.269.223.989.989,0,0,1,.081,1.086c-.216.557-.486,1.113-.729,1.67a13.311,13.311,0,0,0-.81,2.617,2.78,2.78,0,0,0,0,1.058,3.036,3.036,0,0,0,1.187-.418A6.71,6.71,0,0,0,67.9,26.922,10.34,10.34,0,0,0,69.218,23.5a4.084,4.084,0,0,0,.054-1.81c-.081-.39-.189-.474-.567-.445a4,4,0,0,0-1.566.7,5.388,5.388,0,0,0-.647.445.912.912,0,0,1-1.3-.222.968.968,0,0,1,.216-1.337,7.673,7.673,0,0,1,2.457-1.364,2.369,2.369,0,0,1,2.376.334,2.759,2.759,0,0,1,.81,1.448,6.805,6.805,0,0,1-.027,2.867,12.525,12.525,0,0,1-2.133,4.649,6.477,6.477,0,0,1-2.106,1.949,3.86,3.86,0,0,1-2.052.557,1.893,1.893,0,0,1-1.755-1.531,4.742,4.742,0,0,1,.054-1.949,12.973,12.973,0,0,1,.81-2.645.471.471,0,0,0,.054-.278,3.188,3.188,0,0,0-.864.111,15.706,15.706,0,0,1-1.107,2.7,8,8,0,0,1-2.538,2.868,3.462,3.462,0,0,1-2.484.529,1.721,1.721,0,0,1-1.3-1.113A4.167,4.167,0,0,1,55.5,27.59a15.875,15.875,0,0,1,.918-3.063,4.829,4.829,0,0,1-.918-.918,2.694,2.694,0,0,0-.324.918,21.335,21.335,0,0,1-.783,2.339,14.165,14.165,0,0,1-1.673,3.174,5.858,5.858,0,0,1-2.538,2.088,3.394,3.394,0,0,1-1.249.271A2.191,2.191,0,0,1,47.729,32.045Zm9.5-2.728a1.392,1.392,0,0,0,1.026-.223,7.292,7.292,0,0,0,2.7-3.814,15.346,15.346,0,0,1-2.781-.083A9.982,9.982,0,0,0,57.232,29.317Zm-15.5-3.4a11.437,11.437,0,0,0-.189,2.116,1.768,1.768,0,0,0,.022.206,9.965,9.965,0,0,1,.166-2.294q0-.032.01-.07Zm17.089-4.093a.928.928,0,0,1,.378,1.225.3.3,0,0,0-.054.307,10.322,10.322,0,0,0,2.268-.084,6.351,6.351,0,0,0,.027-1.893,1.073,1.073,0,0,0-.621-.891,1.953,1.953,0,0,0-.891-.084,4.94,4.94,0,0,0-.918.223,4,4,0,0,0-1.836,1.392c-.243.362-.243.473,0,.807.216-.2.27-.474.432-.7a.971.971,0,0,1,.78-.431A.821.821,0,0,1,58.825,21.827Zm-39.441,10.3a6.757,6.757,0,0,1-1.485-.2,1.647,1.647,0,0,1-1.242-1.308,8.18,8.18,0,0,1-.189-1.977V19.127a10.45,10.45,0,0,1,.108-1.587c.216-1.169.7-1.671,1.755-1.782a13.959,13.959,0,0,1,3.05-.028,2.813,2.813,0,0,1,.81.167,1.611,1.611,0,0,1,1.026,1.114,5.538,5.538,0,0,1,.216,1.615v3.842a.209.209,0,0,1-.054.167h-2.97a.988.988,0,0,1-.027-.39V18.876c-.027-.251-.189-.278-.378-.278-.27,0-.324.028-.351.278v9.855c.027.362.081.446.378.446s.378-.084.378-.446V25.475a.851.851,0,0,1,.054-.446h2.969a.311.311,0,0,1,.054.307c0,1.253.027,2.506,0,3.758a5.4,5.4,0,0,1-.189,1.615,1.637,1.637,0,0,1-1.188,1.225,6.8,6.8,0,0,1-1.858.213C19.963,32.146,19.673,32.137,19.383,32.128Zm9.934-.195c-.432-2.617-.756-5.262-1.08-7.879H28.13v7.851H24.917V15.925H28.13v5.569h.081c.135-.919.243-1.838.378-2.756s.27-1.865.459-2.812h3.185c-.135.808-.27,1.559-.432,2.339-.3,1.392-.567,2.784-.864,4.176a.4.4,0,0,0,0,.251c.378,1.754.675,3.535.972,5.317q.325,1.754.648,3.591a1.354,1.354,0,0,1,0,.334Zm-17.3-.028V28.76a3.476,3.476,0,0,0-.756-.028v3.146H8.207a.492.492,0,0,1-.054-.334V19.21a15.668,15.668,0,0,1,.081-1.587A1.8,1.8,0,0,1,9.88,15.814a12.533,12.533,0,0,1,3.536-.028,1.523,1.523,0,0,1,.378.084,1.8,1.8,0,0,1,1.3,1.5,9,9,0,0,1,.135,1.7c0,4.149,0,8.324-.027,12.5a.491.491,0,0,1-.054.334ZM11.23,18.988v6.626a.687.687,0,0,0,.054.39h.7a.4.4,0,0,0,0-.251V19.071c0-.111-.027-.195-.027-.278-.027-.083-.054-.139-.135-.167a.438.438,0,0,0-.214-.061A.41.41,0,0,0,11.23,18.988ZM0,31.878V15.9a.334.334,0,0,1,.162-.028c.647.011,1.291.008,1.931,0,.853,0,1.7-.009,2.55.023a4.287,4.287,0,0,1,1.323.251,1.545,1.545,0,0,1,.945,1.03A6.435,6.435,0,0,1,7.127,18.4q.041,2.464,0,4.928a4.052,4.052,0,0,1-.189,1.142A1.66,1.66,0,0,1,5.507,25.7a8.32,8.32,0,0,1-1.674.139H3.185v6.042ZM3.293,18.737a.2.2,0,0,0-.108.028v4.4c.648.084.729.028.729-.612v-3.2c0-.511-.041-.618-.43-.618C3.428,18.731,3.365,18.734,3.293,18.737ZM114.977,31.265a17.942,17.942,0,0,1-5.912-1.225,7.731,7.731,0,0,1-2.4-1.475,3.547,3.547,0,0,1-.648-.891,2.1,2.1,0,0,1,.027-1.921,3.378,3.378,0,0,1,.647-.836,37.816,37.816,0,0,0,19.464,0,2.827,2.827,0,0,1,.729,1.03,2.108,2.108,0,0,1-.432,2.255,5.874,5.874,0,0,1-2.159,1.587,15.161,15.161,0,0,1-4.374,1.253,23.139,23.139,0,0,1-3.53.259Q115.68,31.3,114.977,31.265ZM103.5,26.811c-.756-.111-1.512-.223-2.268-.362-.756-.111-1.512-.251-2.268-.39a5.791,5.791,0,0,0-1-.167.239.239,0,0,1-.243-.2c-.027-.111.027-.167.108-.222a40.388,40.388,0,0,1,3.617-2.172.2.2,0,0,1,.135-.028c.729,1.142,1.431,2.311,2.16,3.48a.142.142,0,0,1-.122.07C103.584,26.825,103.544,26.811,103.5,26.811ZM127.26,25.5a3.8,3.8,0,0,0-.567-.78,19,19,0,0,0,2.754-1.225c-.594.974-1.215,1.948-1.863,3.006A3.922,3.922,0,0,0,127.26,25.5Zm-23.81-1.977a21.554,21.554,0,0,0,2.7,1.169,6.588,6.588,0,0,0-.566.835,3.847,3.847,0,0,0-.3.947C104.637,25.475,104.043,24.5,103.449,23.526Zm3.833.974c.081-.195.243-.251.378-.334a12.322,12.322,0,0,1,3.672-1.42,24.365,24.365,0,0,1,6.371-.584,19.669,19.669,0,0,1,5.534,1.03,8.014,8.014,0,0,1,2.349,1.253,37.093,37.093,0,0,1-9.224,1.176A37.972,37.972,0,0,1,107.283,24.5Zm16.251-1.754a18.1,18.1,0,0,0-3.806-.919,23.9,23.9,0,0,0-4.238-.195,19.977,19.977,0,0,0-6.614,1.308,8.367,8.367,0,0,0-2,1.114.479.479,0,0,1-.54.084,10.476,10.476,0,0,1-3.212-1.671,2.916,2.916,0,0,1-1.026-1.392,1.783,1.783,0,0,1,.162-1.531,3.846,3.846,0,0,1,1.107-1.2,11.5,11.5,0,0,1,3.05-1.475,26.841,26.841,0,0,1,3.645-.891c.944-.167,1.89-.278,2.861-.362a48.112,48.112,0,0,1,4.914-.111,36.614,36.614,0,0,1,4.589.446,22.822,22.822,0,0,1,4.509,1.141,9.282,9.282,0,0,1,2.943,1.615,2.741,2.741,0,0,1,.756.919,2,2,0,0,1-.108,2.088,4.4,4.4,0,0,1-1.268,1.2,12.486,12.486,0,0,1-2.97,1.336A9.532,9.532,0,0,0,123.534,22.746ZM106.365,8.687a12.305,12.305,0,0,0,5.588,1.225,18.487,18.487,0,0,0,4.454-.334,6.708,6.708,0,0,0,2.511-.918c-.216,1.809-.432,3.563-.648,5.373a38.449,38.449,0,0,0-11.122,1.086C106.878,12.974,106.635,10.858,106.365,8.687Zm4.778.668a13.024,13.024,0,0,1-3.564-.668,3.032,3.032,0,0,1-1.053-.585.7.7,0,0,1,.027-1.169,3.54,3.54,0,0,1,.891-.5,10.917,10.917,0,0,1,2.321-.585,20.289,20.289,0,0,1,3-.167,16.679,16.679,0,0,1,4.293.5,5.746,5.746,0,0,1,1.43.584,1.74,1.74,0,0,1,.351.278.675.675,0,0,1-.027,1,2.071,2.071,0,0,1-.728.473,10.351,10.351,0,0,1-2.727.7,16.65,16.65,0,0,1-2.613.19C112.209,9.406,111.676,9.386,111.143,9.355Z" fill="#fff"/>
</svg>
