<svg xmlns="http://www.w3.org/2000/svg" width="76" height="39.561" viewBox="0 0 76 39.561">
  <g id="back-end-icon-1" transform="translate(-4.754 -1.309)">
    <ellipse id="Ellipse_302" data-name="Ellipse 302" cx="38" cy="19.781" rx="38" ry="19.781" transform="translate(4.754 1.309)" fill="#6181b6"/>
    <path id="Path_38631" data-name="Path 38631" d="M28.693,45.746l4.164-21.082h9.63c4.164.26,6.247,2.343,6.247,5.987,0,6.247-4.945,9.891-9.37,9.63H34.68l-1.041,5.466H28.693Z" transform="translate(-13.268 -12.944)" fill="#fff"/>
    <path id="Path_38632" data-name="Path 38632" d="M44.457,41.23l1.3-7.809h3.383c1.822,0,3.123.781,3.123,2.343-.26,4.425-2.342,5.206-4.685,5.466Z" transform="translate(-22.005 -17.797)" fill="#6181b6"/>
    <path id="Path_38633" data-name="Path 38633" d="M71.48,33.485,75.644,12.4H80.59l-1.041,5.465h4.685c4.164.26,5.726,2.343,5.206,4.945L87.617,33.484H82.412l1.822-9.63c.259-1.3.259-2.082-1.562-2.082h-3.9L76.426,33.484H71.48Z" transform="translate(-36.982 -6.149)" fill="#fff"/>
    <path id="Path_38634" data-name="Path 38634" d="M106.933,45.746,111.1,24.664h9.63c4.165.26,6.247,2.343,6.247,5.987,0,6.247-4.945,9.891-9.37,9.63h-4.685l-1.041,5.466h-4.945Z" transform="translate(-56.631 -12.944)" fill="#fff"/>
    <path id="Path_38635" data-name="Path 38635" d="M122.7,41.23l1.3-7.809h3.384c1.822,0,3.123.781,3.123,2.343-.26,4.425-2.342,5.206-4.685,5.466Z" transform="translate(-65.367 -17.797)" fill="#6181b6"/>
  </g>
</svg>
