<svg xmlns="http://www.w3.org/2000/svg" width="75.772" height="89.5" viewBox="0 0 75.772 89.5">
  <path id="Podio-icon" d="M65.05,11.146a38.165,38.165,0,0,0-53.736-.171l-.174.174a38.163,38.163,0,0,0,.009,53.9L34.1,88a5.131,5.131,0,0,0,7.256-7.256L18.4,57.792A27.888,27.888,0,0,1,18.3,18.5l.1-.1a27.89,27.89,0,0,1,39.388,0c8.914,8.915,10.193,24.17,2.97,35.49a5.13,5.13,0,0,0,8.648,5.52c9.912-15.532,8.077-35.828-4.361-48.266M55.864,66.227a5.132,5.132,0,1,1-7.257,7.257L25.656,50.537A17.589,17.589,0,0,1,38.093,20.507H38.1a17.6,17.6,0,0,1,16.85,22.637,5.133,5.133,0,0,1-9.837-2.937A7.331,7.331,0,0,0,38.1,30.769h0A7.328,7.328,0,0,0,32.912,43.28L55.864,66.227" fill="#5088ac"/>
</svg>
