<svg xmlns="http://www.w3.org/2000/svg" xmlns:xlink="http://www.w3.org/1999/xlink" width="46" height="46" viewBox="0 0 46 46">
  <defs>
    <clipPath id="clip-path">
      <rect id="Rectangle_14089" data-name="Rectangle 14089" width="46" height="46" transform="translate(3296 2830)" fill="#fff"/>
    </clipPath>
  </defs>
  <g id="Mask_Group_9096" data-name="Mask Group 9096" transform="translate(-3296 -2830)" clip-path="url(#clip-path)">
    <g id="Progressive_Web_Apps" data-name="Progressive Web  Apps" transform="translate(3298.416 2832.334)">
      <g id="Path_38504" data-name="Path 38504" transform="translate(-18.287 -23.621)" fill="#fff">
        <path d="M 54.76630783081055 64.04042053222656 L 49.19520950317383 64.04042053222656 C 48.74947738647461 64.04042053222656 48.44999694824219 63.74093627929688 48.44999694824219 63.29520797729492 C 48.44999694824219 62.82873916625977 48.82889938354492 62.54999923706055 49.19520950317383 62.54999923706055 L 54.76630783081055 62.54999923706055 C 55.13261795043945 62.54999923706055 55.51152038574219 62.82873916625977 55.51152038574219 63.29520797729492 C 55.51152038574219 63.76167678833008 55.13261795043945 64.04042053222656 54.76630783081055 64.04042053222656 Z" stroke="none"/>
        <path d="M 49.19520950317383 62.79999923706055 C 48.94759750366211 62.79999923706055 48.69999694824219 62.98569869995117 48.69999694824219 63.29520797729492 C 48.69999694824219 63.60471725463867 48.88570785522461 63.7904167175293 49.19520950317383 63.7904167175293 L 54.76630783081055 63.7904167175293 C 55.01391983032227 63.7904167175293 55.26152038574219 63.60471725463867 55.26152038574219 63.29520797729492 C 55.26152038574219 62.9857063293457 55.01391983032227 62.79999923706055 54.76630783081055 62.79999923706055 L 49.19520950317383 62.79999923706055 M 49.19520950317383 62.29999542236328 L 54.76630783081055 62.29999542236328 C 55.32436752319336 62.29999542236328 55.76152038574219 62.73714828491211 55.76152038574219 63.29520797729492 C 55.76152038574219 63.85326766967773 55.32436752319336 64.29042053222656 54.76630783081055 64.29042053222656 L 49.19520950317383 64.29042053222656 C 48.60924911499023 64.29042053222656 48.19999694824219 63.88116836547852 48.19999694824219 63.29520797729492 C 48.19999694824219 62.73714828491211 48.63714981079102 62.29999542236328 49.19520950317383 62.29999542236328 Z" stroke="none" fill="#fff"/>
      </g>
      <g id="Path_38505" data-name="Path 38505" transform="translate(-23.24 -23.621)" fill="#fff">
        <path d="M 62.81422424316406 64.04042053222656 L 62.19520568847656 64.04042053222656 C 61.74947357177734 64.04042053222656 61.45000457763672 63.74093627929688 61.45000457763672 63.29520797729492 C 61.45000457763672 62.82873916625977 61.82889556884766 62.54999923706055 62.19520568847656 62.54999923706055 L 62.81422424316406 62.54999923706055 C 63.18053436279297 62.54999923706055 63.5594367980957 62.82873916625977 63.5594367980957 63.29520797729492 C 63.5594367980957 63.76167678833008 63.18053436279297 64.04042053222656 62.81422424316406 64.04042053222656 Z" stroke="none"/>
        <path d="M 62.19520568847656 62.79999923706055 C 61.94760513305664 62.79999923706055 61.70000457763672 62.98569869995117 61.70000457763672 63.29520797729492 C 61.70000457763672 63.60471725463867 61.88570404052734 63.7904167175293 62.19520568847656 63.7904167175293 L 62.81422424316406 63.7904167175293 C 63.06182479858398 63.7904167175293 63.3094367980957 63.60471725463867 63.3094367980957 63.29520797729492 C 63.3094367980957 62.9857063293457 63.06182479858398 62.79999923706055 62.81422424316406 62.79999923706055 L 62.19520568847656 62.79999923706055 M 62.19520568847656 62.29999542236328 L 62.81422424316406 62.29999542236328 C 63.37228393554688 62.29999542236328 63.8094367980957 62.73714828491211 63.8094367980957 63.29520797729492 C 63.8094367980957 63.85326766967773 63.37228393554688 64.29042053222656 62.81422424316406 64.29042053222656 L 62.19520568847656 64.29042053222656 C 61.60924530029297 64.29042053222656 61.20000457763672 63.88116836547852 61.20000457763672 63.29520797729492 C 61.20000457763672 62.73714828491211 61.63714599609375 62.29999542236328 62.19520568847656 62.29999542236328 Z" stroke="none" fill="#fff"/>
      </g>
      <g id="Path_38506" data-name="Path 38506" transform="translate(-1.524 -22.059)" fill="#fff">
        <path d="M 6.495133876800537 62.5402717590332 C 6.028664112091064 62.5402717590332 5.749923706054688 62.16137313842773 5.749923706054688 61.79505157470703 L 5.749923706054688 61.24034118652344 L 5.195213794708252 61.24034118652344 C 4.749484062194824 61.24034118652344 4.450004100799561 60.94086074829102 4.450004100799561 60.49513244628906 C 4.450004100799561 60.02866363525391 4.828903675079346 59.74992370605469 5.195213794708252 59.74992370605469 L 5.688024044036865 59.74992370605469 L 5.688024044036865 59.1952018737793 C 5.688024044036865 58.74947357177734 5.987504005432129 58.44999313354492 6.433233737945557 58.44999313354492 C 6.899703979492188 58.44999313354492 7.178443908691406 58.82889175415039 7.178443908691406 59.1952018737793 L 7.178443908691406 59.74992370605469 L 7.671253681182861 59.74992370605469 C 8.026433944702148 59.74992370605469 8.540264129638672 60.01529312133789 8.540264129638672 60.49513244628906 C 8.540264129638672 60.96160125732422 8.16136360168457 61.24034118652344 7.795053958892822 61.24034118652344 L 7.240344047546387 61.24034118652344 L 7.240344047546387 61.79506301879883 C 7.240344047546387 62.24079132080078 6.940864086151123 62.5402717590332 6.495133876800537 62.5402717590332 Z" stroke="none"/>
        <path d="M 6.433233737945557 58.69999313354492 C 6.123723983764648 58.69999313354492 5.938024044036865 58.88570404052734 5.938024044036865 59.1952018737793 L 5.938024044036865 59.99992370605469 L 5.195213794708252 59.99992370605469 C 4.947604179382324 59.99992370605469 4.700003623962402 60.18562316894531 4.700003623962402 60.49513244628906 C 4.700003623962402 60.80463409423828 4.885704040527344 60.99034118652344 5.195213794708252 60.99034118652344 L 5.999923706054688 60.99034118652344 L 5.999923706054688 61.79505157470703 C 5.999923706054688 62.04266357421875 6.185623645782471 62.2902717590332 6.495133876800537 62.2902717590332 C 6.804644107818604 62.2902717590332 6.990344047546387 62.10456085205078 6.990344047546387 61.79506301879883 L 6.990344047546387 60.99034118652344 L 7.795053958892822 60.99034118652344 C 8.04266357421875 60.99034118652344 8.290264129638672 60.80464172363281 8.290264129638672 60.49513244628906 C 8.290264129638672 60.18563079833984 7.918863773345947 59.99992370605469 7.671253681182861 59.99992370605469 L 6.928443908691406 59.99992370605469 L 6.928443908691406 59.1952018737793 C 6.928443908691406 58.94760131835938 6.742733955383301 58.69999313354492 6.433233737945557 58.69999313354492 M 6.433233737945557 58.19999313354492 C 6.991293907165527 58.19999313354492 7.428443908691406 58.63714218139648 7.428443908691406 59.1952018737793 L 7.428443908691406 59.49992370605469 L 7.671253681182861 59.49992370605469 C 8.211664199829102 59.49992370605469 8.790264129638672 59.89982223510742 8.790264129638672 60.49513244628906 C 8.790264129638672 61.05319213867188 8.353113174438477 61.49034118652344 7.795053958892822 61.49034118652344 L 7.490344047546387 61.49034118652344 L 7.490344047546387 61.79506301879883 C 7.490344047546387 62.38102340698242 7.081093788146973 62.7902717590332 6.495133876800537 62.7902717590332 C 5.937073707580566 62.7902717590332 5.499923706054688 62.35312271118164 5.499923706054688 61.79505157470703 L 5.499923706054688 61.49034118652344 L 5.195213794708252 61.49034118652344 C 4.609253883361816 61.49034118652344 4.200003623962402 61.08109283447266 4.200003623962402 60.49513244628906 C 4.200003623962402 59.93707275390625 4.637153625488281 59.49992370605469 5.195213794708252 59.49992370605469 L 5.438024044036865 59.49992370605469 L 5.438024044036865 59.1952018737793 C 5.438024044036865 58.6092414855957 5.847273826599121 58.19999313354492 6.433233737945557 58.19999313354492 Z" stroke="none" fill="#fff"/>
      </g>
      <g id="Path_38507" data-name="Path 38507" fill="#fff">
        <path d="M 39.57393264770508 34.22901916503906 L 33.75522232055664 34.22901916503906 C 33.30949020385742 34.22901916503906 33.010009765625 33.92953872680664 33.010009765625 33.48381042480469 C 33.010009765625 33.01733779907227 33.38891220092773 32.73859786987305 33.75522232055664 32.73859786987305 L 38.89062118530273 32.73859786987305 L 38.89062118530273 6.930609226226807 L 1.940421104431152 6.930609226226807 L 1.940421104431152 32.73859786987305 L 7.01392126083374 32.73859786987305 C 7.459650993347168 32.73859786987305 7.759130954742432 33.03807830810547 7.759130954742432 33.48381042480469 C 7.759130954742432 33.95027923583984 7.380230903625488 34.22901916503906 7.01392126083374 34.22901916503906 L 1.195211052894592 34.22901916503906 C 0.7287410497665405 34.22901916503906 0.450001060962677 33.85012054443359 0.450001060962677 33.48381042480469 L 0.450001060962677 1.295209169387817 C 0.450001060962677 0.8287392258644104 0.8289010524749756 0.5499991774559021 1.195211052894592 0.5499991774559021 L 39.57393264770508 0.5499991774559021 C 39.94024276733398 0.5499991774559021 40.31914138793945 0.8287392258644104 40.31914138793945 1.295209169387817 L 40.31914138793945 33.48381042480469 C 40.31914138793945 33.95027923583984 39.94024276733398 34.22901916503906 39.57393264770508 34.22901916503906 Z M 1.940421104431152 5.502089023590088 L 38.89062118530273 5.502089023590088 L 38.89062118530273 1.978519201278687 L 1.940421104431152 1.978519201278687 L 1.940421104431152 5.502089023590088 Z" stroke="none"/>
        <path d="M 1.195209503173828 0.7999992370605469 C 0.947601318359375 0.7999992370605469 0.7000007629394531 0.9856986999511719 0.7000007629394531 1.295207977294922 L 0.7000007629394531 33.48381042480469 C 0.7000007629394531 33.73141098022461 0.8857002258300781 33.97901916503906 1.195209503173828 33.97901916503906 L 7.013912200927734 33.97901916503906 C 7.261520385742188 33.97901916503906 7.509132385253906 33.79331970214844 7.509132385253906 33.48381042480469 C 7.509132385253906 33.17430877685547 7.323421478271484 32.98859786987305 7.013912200927734 32.98859786987305 L 1.690422058105469 32.98859786987305 L 1.690422058105469 6.680608749389648 L 39.14062118530273 6.680608749389648 L 39.14062118530273 32.98859786987305 L 33.75522232055664 32.98859786987305 C 33.50761032104492 32.98859786987305 33.260009765625 33.17430877685547 33.260009765625 33.48381042480469 C 33.260009765625 33.79331970214844 33.44570922851562 33.97901916503906 33.75522232055664 33.97901916503906 L 39.57393264770508 33.97901916503906 C 39.82152938842773 33.97901916503906 40.06914138793945 33.79331970214844 40.06914138793945 33.48381042480469 L 40.06914138793945 1.295207977294922 C 40.06914138793945 0.9856986999511719 39.82152938842773 0.7999992370605469 39.57393264770508 0.7999992370605469 L 1.195209503173828 0.7999992370605469 M 39.14062118530273 5.75208854675293 L 1.690422058105469 5.75208854675293 L 1.690422058105469 1.728519439697266 L 39.14062118530273 1.728519439697266 L 39.14062118530273 5.75208854675293 M 1.195209503173828 0.2999992370605469 L 39.57393264770508 0.2999992370605469 C 40.13199234008789 0.2999992370605469 40.56914138793945 0.7371482849121094 40.56914138793945 1.295207977294922 L 40.56914138793945 33.48381042480469 C 40.56914138793945 34.0418701171875 40.13199234008789 34.47901916503906 39.57393264770508 34.47901916503906 L 33.75522232055664 34.47901916503906 C 33.16926193237305 34.47901916503906 32.760009765625 34.06977081298828 32.760009765625 33.48381042480469 C 32.760009765625 32.92575073242188 33.19716262817383 32.48859786987305 33.75522232055664 32.48859786987305 L 38.64062118530273 32.48859786987305 L 38.64062118530273 7.180608749389648 L 2.190422058105469 7.180608749389648 L 2.190422058105469 32.48859786987305 L 7.013912200927734 32.48859786987305 C 7.599880218505859 32.48859786987305 8.009132385253906 32.89785003662109 8.009132385253906 33.48381042480469 C 8.009132385253906 34.0418701171875 7.571979522705078 34.47901916503906 7.013912200927734 34.47901916503906 L 1.195209503173828 34.47901916503906 C 0.6371498107910156 34.47901916503906 0.2000007629394531 34.0418701171875 0.2000007629394531 33.48381042480469 L 0.2000007629394531 1.295207977294922 C 0.2000007629394531 0.7371482849121094 0.6371498107910156 0.2999992370605469 1.195209503173828 0.2999992370605469 Z M 38.64062118530273 2.228519439697266 L 2.190422058105469 2.228519439697266 L 2.190422058105469 5.25208854675293 L 38.64062118530273 5.25208854675293 L 38.64062118530273 2.228519439697266 Z" stroke="none" fill="#fff"/>
      </g>
      <g id="Path_38508" data-name="Path 38508" transform="translate(-1.905 -4.915)" fill="#fff">
        <path d="M 38.38381195068359 35.98681640625 C 37.99272155761719 35.98681640625 37.70050048828125 35.62605667114258 37.70050048828125 35.30350494384766 L 37.70050048828125 14.94041633605957 L 6.940420627593994 14.94041633605957 L 6.940420627593994 35.24160766601562 C 6.940420627593994 35.68733596801758 6.64094066619873 35.98681640625 6.195210933685303 35.98681640625 C 5.728740692138672 35.98681640625 5.450000762939453 35.60791778564453 5.450000762939453 35.24160766601562 L 5.450000762939453 14.19520664215088 C 5.450000762939453 13.72873687744141 5.828900814056396 13.44999694824219 6.195210933685303 13.44999694824219 L 38.38381195068359 13.44999694824219 C 38.85028076171875 13.44999694824219 39.12902069091797 13.82889652252197 39.12902069091797 14.19520664215088 L 39.12902069091797 35.24160766601562 C 39.12902069091797 35.70807647705078 38.7501220703125 35.98681640625 38.38381195068359 35.98681640625 Z" stroke="none"/>
        <path d="M 38.38381195068359 35.73681640625 C 38.63142013549805 35.73681640625 38.87902069091797 35.55110549926758 38.87902069091797 35.24160766601562 L 38.87902069091797 14.19520664215088 C 38.87902069091797 13.94760704040527 38.69332122802734 13.69999694824219 38.38381195068359 13.69999694824219 L 6.195210933685303 13.69999694824219 C 5.947610855102539 13.69999694824219 5.700000762939453 13.88570690155029 5.700000762939453 14.19520664215088 L 5.700000762939453 35.24160766601562 C 5.700000762939453 35.48920822143555 5.885700702667236 35.73681640625 6.195210933685303 35.73681640625 C 6.504710674285889 35.73681640625 6.690420627593994 35.55110549926758 6.690420627593994 35.24160766601562 L 6.690420627593994 14.69041633605957 L 37.95050048828125 14.69041633605957 L 37.95050048828125 35.30350494384766 C 37.95050048828125 35.48920822143555 38.13621139526367 35.73681640625 38.38381195068359 35.73681640625 M 38.38381195068359 36.23681640625 C 37.83380126953125 36.23681640625 37.45050048828125 35.74494552612305 37.45050048828125 35.30350494384766 L 37.45050048828125 15.19041633605957 L 7.190420627593994 15.19041633605957 L 7.190420627593994 35.24160766601562 C 7.190420627593994 35.82756805419922 6.781170845031738 36.23681640625 6.195210933685303 36.23681640625 C 5.637150764465332 36.23681640625 5.200000762939453 35.79966735839844 5.200000762939453 35.24160766601562 L 5.200000762939453 14.19520664215088 C 5.200000762939453 13.63714694976807 5.637150764465332 13.19999694824219 6.195210933685303 13.19999694824219 L 38.38381195068359 13.19999694824219 C 38.94187164306641 13.19999694824219 39.37902069091797 13.63714694976807 39.37902069091797 14.19520664215088 L 39.37902069091797 35.24160766601562 C 39.37902069091797 35.79966735839844 38.94187164306641 36.23681640625 38.38381195068359 36.23681640625 Z" stroke="none" fill="#fff"/>
      </g>
      <g id="Ellipse_294" data-name="Ellipse 294" transform="translate(4.29 3.09)" fill="#fff" stroke="#fff" stroke-width="0.5">
        <circle cx="0.619" cy="0.619" r="0.619" stroke="none"/>
        <circle cx="0.619" cy="0.619" r="0.869" fill="none"/>
      </g>
      <g id="Ellipse_295" data-name="Ellipse 295" transform="translate(9.242 3.09)" fill="#fff" stroke="#fff" stroke-width="0.5">
        <circle cx="0.619" cy="0.619" r="0.619" stroke="none"/>
        <circle cx="0.619" cy="0.619" r="0.869" fill="none"/>
      </g>
      <g id="Ellipse_296" data-name="Ellipse 296" transform="translate(6.766 3.09)" fill="#fff" stroke="#fff" stroke-width="0.5">
        <circle cx="0.619" cy="0.619" r="0.619" stroke="none"/>
        <circle cx="0.619" cy="0.619" r="0.869" fill="none"/>
      </g>
      <g id="Path_38509" data-name="Path 38509" transform="translate(-3.81 -7.582)" fill="#fff">
        <path d="M 26.67049980163574 47.93889999389648 L 21.78030967712402 47.93889999389648 C 21.31384086608887 47.93889999389648 21.03510093688965 47.56000137329102 21.03510093688965 47.19369125366211 L 21.03510093688965 45.02830123901367 C 20.30249404907227 44.80509948730469 19.54995536804199 44.49236297607422 18.7932300567627 44.09661102294922 L 17.25259971618652 45.63724136352539 C 17.11556053161621 45.77426910400391 16.93186950683594 45.84973907470703 16.73536109924316 45.84973907470703 C 16.53885078430176 45.84973907470703 16.35515975952148 45.77426910400391 16.21813011169434 45.63724136352539 L 12.75166034698486 42.17078018188477 C 12.46647071838379 41.88557052612305 12.46647071838379 41.4215087890625 12.75166034698486 41.13631057739258 L 14.29059219360352 39.65432357788086 C 13.8956241607666 38.89866256713867 13.58347702026367 38.14726638793945 13.36059856414795 37.41571044921875 L 11.19521045684814 37.41571044921875 C 10.72874069213867 37.41571044921875 10.45000076293945 37.03681182861328 10.45000076293945 36.67050170898438 L 10.45000076293945 31.78030967712402 C 10.45000076293945 31.31384086608887 10.82890033721924 31.03510093688965 11.19521045684814 31.03510093688965 L 13.36059951782227 31.03510093688965 C 13.58380031585693 30.30249404907227 13.89653778076172 29.54995536804199 14.2922887802124 28.7932300567627 L 12.75166034698486 27.25259971618652 C 12.46647071838379 26.96738052368164 12.46647071838379 26.50333023071289 12.75166034698486 26.21813011169434 L 16.21813011169434 22.75166130065918 C 16.35515975952148 22.6146297454834 16.53885078430176 22.53917121887207 16.73537063598633 22.53917121887207 C 16.93188095092773 22.53917121887207 17.11557006835938 22.6146297454834 17.25259971618652 22.75166130065918 L 18.73458671569824 24.29059410095215 C 19.49028015136719 23.8956184387207 20.24167823791504 23.58347129821777 20.97319984436035 23.36059951782227 L 20.97319984436035 21.19520950317383 C 20.97319984436035 20.72874069213867 21.35210037231445 20.45000076293945 21.71841049194336 20.45000076293945 L 26.60860061645508 20.45000076293945 C 27.07506942749023 20.45000076293945 27.35381126403809 20.82890129089355 27.35381126403809 21.19520950317383 L 27.35381126403809 23.36059951782227 C 28.08534622192383 23.5834789276123 28.83686447143555 23.89568710327148 29.59253311157227 24.2906551361084 L 31.13313102722168 22.6930103302002 C 31.27334022521973 22.55273056030273 31.45703125 22.47727012634277 31.65355110168457 22.47727012634277 C 31.85005950927734 22.47727012634277 32.03374862670898 22.55273056030273 32.17078018188477 22.68976020812988 L 35.63724136352539 26.15623092651367 C 35.77426910400391 26.29326057434082 35.84973907470703 26.47694969177246 35.84973907470703 26.67346954345703 C 35.84973907470703 26.86997985839844 35.77426910400391 27.05367088317871 35.63722991943359 27.19070053100586 L 34.09661102294922 28.7313289642334 C 34.49237823486328 29.48808479309082 34.80511856079102 30.24062347412109 35.02830123901367 30.97319984436035 L 37.19369888305664 30.97319984436035 C 37.66016006469727 30.97319984436035 37.93889999389648 31.35210037231445 37.93889999389648 31.71841049194336 L 37.93889999389648 36.60860061645508 C 37.93889999389648 37.07506942749023 37.56000900268555 37.35380935668945 37.19369888305664 37.35380935668945 L 35.02830123901367 37.35380935668945 C 34.80511856079102 38.08638763427734 34.49237823486328 38.83891677856445 34.09661102294922 39.59567260742188 L 35.63724136352539 41.13629913330078 C 35.92169189453125 41.42076110839844 35.9079704284668 41.86627960205078 35.73036956787109 42.1326789855957 L 35.71664047241211 42.15327072143555 L 35.69913864135742 42.17078018188477 L 32.23268127441406 45.63724136352539 C 32.09564971923828 45.77426910400391 31.91196060180664 45.84973907470703 31.71545028686523 45.84973907470703 C 31.51893043518066 45.84973907470703 31.33524131774902 45.77426910400391 31.19820976257324 45.63724136352539 L 29.65757179260254 44.09661102294922 C 28.90083885192871 44.49237060546875 28.14830207824707 44.80509948730469 27.41571044921875 45.02830123901367 L 27.41571044921875 47.19369125366211 C 27.41571044921875 47.66016006469727 27.03680992126465 47.93889999389648 26.67049980163574 47.93889999389648 Z M 22.46362113952637 46.51039123535156 L 25.92529106140137 46.51039123535156 L 25.92529106140137 44.47005081176758 C 25.92529106140137 44.15196990966797 26.20473098754883 43.88719940185547 26.46764945983887 43.7995719909668 L 26.47840118408203 43.79597854614258 L 26.48944091796875 43.79339218139648 C 27.45380783081055 43.56647109985352 28.42786407470703 43.16064834594727 29.38471794128418 42.58710479736328 C 29.49099349975586 42.517822265625 29.61627960205078 42.48123168945312 29.74749946594238 42.48123168945312 C 29.93642997741699 42.48123168945312 30.12496948242188 42.55696868896484 30.25184059143066 42.68383026123047 L 31.68449020385742 44.11648178100586 L 34.11648178100586 41.68449020385742 L 32.68383026123047 40.25183868408203 C 32.48602676391602 40.05403900146484 32.39665603637695 39.67669677734375 32.58711624145508 39.38470077514648 C 33.16065216064453 38.4278678894043 33.56645965576172 37.45383834838867 33.79339218139648 36.48944091796875 C 33.87805938720703 36.15065002441406 34.14966201782227 35.92528915405273 34.47005081176758 35.92528915405273 L 36.51039123535156 35.92528915405273 L 36.51039123535156 32.46361923217773 L 34.47005081176758 32.46361923217773 C 34.15198135375977 32.46361923217773 33.88721084594727 32.18418884277344 33.7995719909668 31.9212703704834 L 33.79597854614258 31.9105110168457 L 33.79339218139648 31.89947128295898 C 33.56647109985352 30.93509292602539 33.16061401367188 29.96099090576172 32.58707809448242 29.00413703918457 C 32.39664840698242 28.71215057373047 32.48603820800781 28.33486175537109 32.68383026123047 28.13706016540527 L 34.11648178100586 26.70441055297852 L 31.68449020385742 24.27242088317871 L 30.25184059143066 25.70507049560547 C 30.12496948242188 25.83193016052246 29.93642997741699 25.90767097473145 29.74748992919922 25.90767097473145 C 29.61629295349121 25.90767097473145 29.49103927612305 25.87109756469727 29.3847770690918 25.80183029174805 C 28.42791175842285 25.22828483581543 27.45380783081055 24.82242965698242 26.48944091796875 24.59552001953125 C 26.15065002441406 24.51085090637207 25.92529106140137 24.23925018310547 25.92529106140137 23.91885948181152 L 25.92529106140137 21.87852096557617 L 22.46362113952637 21.87852096557617 L 22.46362113952637 23.91885948181152 C 22.46362113952637 24.23693084716797 22.18419075012207 24.50169944763184 21.9212703704834 24.58934020996094 L 21.9105110168457 24.59292984008789 L 21.89947128295898 24.59552001953125 C 20.93509292602539 24.82242965698242 19.96098899841309 25.22828483581543 19.00412368774414 25.80183029174805 C 18.89786148071289 25.87109756469727 18.77260780334473 25.90767097473145 18.64141082763672 25.90767097473145 C 18.45248031616211 25.90767097473145 18.26394081115723 25.83193016052246 18.13706970214844 25.70507049560547 L 16.70441055297852 24.27241897583008 L 14.27241992950439 26.70441055297852 L 15.70507049560547 28.13706016540527 C 15.90286159515381 28.33486175537109 15.99225425720215 28.71215057373047 15.8018217086792 29.00413703918457 C 15.2282772064209 29.96100234985352 14.82242965698242 30.93509292602539 14.59552001953125 31.89947128295898 C 14.51084995269775 32.23826217651367 14.23925018310547 32.46361923217773 13.91886043548584 32.46361923217773 L 11.87852001190186 32.46361923217773 L 11.87852001190186 35.92528915405273 L 13.91886043548584 35.92528915405273 C 14.23694038391113 35.92528915405273 14.50170993804932 36.20473098754883 14.58934020996094 36.4676513671875 L 14.59293079376221 36.47840118408203 L 14.59552001953125 36.48944091796875 C 14.8224401473999 37.45382690429688 15.22825050354004 38.4278564453125 15.80178451538086 39.38470077514648 C 15.99224376678467 39.67669677734375 15.90287303924561 40.05403900146484 15.70507049560547 40.25183868408203 L 14.27241992950439 41.68449020385742 L 16.70441055297852 44.11648178100586 L 18.13706016540527 42.68383026123047 C 18.26393127441406 42.55696868896484 18.45247077941895 42.48123168945312 18.64141082763672 42.48123168945312 C 18.77260780334473 42.48123168945312 18.89786148071289 42.51780319213867 19.00412368774414 42.58707046508789 C 19.96097755432129 43.16060638427734 20.93509292602539 43.56647109985352 21.89947128295898 43.79339218139648 C 22.23826026916504 43.87805938720703 22.46362113952637 44.14966201782227 22.46362113952637 44.47005081176758 L 22.46362113952637 46.51039123535156 Z" stroke="none"/>
        <path d="M 26.67049980163574 47.68889999389648 C 26.91810035705566 47.68889999389648 27.16571044921875 47.50320053100586 27.16571044921875 47.19369125366211 L 27.16571044921875 44.84144973754883 C 28.03232955932617 44.59384155273438 28.89894104003906 44.22243881225586 29.70364952087402 43.78913116455078 L 31.37499046325684 45.4604606628418 C 31.56068992614746 45.64616012573242 31.87020301818848 45.64615631103516 32.05590057373047 45.4604606628418 L 35.52236175537109 41.99399948120117 C 35.64617156982422 41.80828857421875 35.64617156982422 41.4987907409668 35.4604606628418 41.31307983398438 L 33.78913116455078 39.64175033569336 C 34.22243881225586 38.83703994750977 34.59384918212891 37.97042083740234 34.84144973754883 37.10380935668945 L 37.19369888305664 37.10380935668945 C 37.44129943847656 37.10380935668945 37.68889999389648 36.91810989379883 37.68889999389648 36.60860061645508 L 37.68889999389648 31.71841049194336 C 37.68889999389648 31.47080039978027 37.50320053100586 31.22319984436035 37.19369888305664 31.22319984436035 L 34.84144973754883 31.22319984436035 C 34.59384918212891 30.35658073425293 34.22243881225586 29.48995971679688 33.78913116455078 28.68525123596191 L 35.4604606628418 27.01391983032227 C 35.64617156982422 26.82822036743164 35.64617156982422 26.51871109008789 35.4604606628418 26.33300971984863 L 31.99399948120117 22.86654090881348 C 31.80830001831055 22.68084144592285 31.4987907409668 22.68084144592285 31.31309127807617 22.86654090881348 L 29.64175033569336 24.59976959228516 C 28.83703994750977 24.16646957397461 27.97042083740234 23.7950611114502 27.10381126403809 23.54745101928711 L 27.10381126403809 21.19520950317383 C 27.10381126403809 20.94761085510254 26.91810035705566 20.70000076293945 26.60860061645508 20.70000076293945 L 21.71841049194336 20.70000076293945 C 21.47080039978027 20.70000076293945 21.22319984436035 20.88570022583008 21.22319984436035 21.19520950317383 L 21.22319984436035 23.54745101928711 C 20.35658073425293 23.7950611114502 19.48997116088867 24.16646957397461 18.68525123596191 24.59976959228516 L 17.07582092285156 22.92844009399414 C 16.89012145996094 22.74274063110352 16.58061027526855 22.74274063110352 16.39491081237793 22.92844009399414 L 12.92844009399414 26.39491081237793 C 12.74274063110352 26.58061027526855 12.74274063110352 26.89011001586914 12.92844009399414 27.07582092285156 L 14.59977054595947 28.74715042114258 C 14.16646003723145 29.55186080932617 13.79506015777588 30.41847991943359 13.54745006561279 31.28510093688965 L 11.19521045684814 31.28510093688965 C 10.94761085510254 31.28510093688965 10.70000076293945 31.47080039978027 10.70000076293945 31.78030967712402 L 10.70000076293945 36.67050170898438 C 10.70000076293945 36.91810989379883 10.88570022583008 37.16571044921875 11.19521045684814 37.16571044921875 L 13.54745006561279 37.16571044921875 C 13.79506015777588 38.03232955932617 14.16646003723145 38.89894104003906 14.59977054595947 39.70365905761719 L 12.92844009399414 41.31307983398438 C 12.74274063110352 41.4987907409668 12.74274063110352 41.80828857421875 12.92844009399414 41.99399948120117 L 16.39491081237793 45.4604606628418 C 16.58061027526855 45.64616394042969 16.89011001586914 45.64615631103516 17.07582092285156 45.4604606628418 L 18.74715042114258 43.78913116455078 C 19.55186080932617 44.22243881225586 20.41847991943359 44.59384155273438 21.28510093688965 44.84144973754883 L 21.28510093688965 47.19369125366211 C 21.28510093688965 47.44129943847656 21.47080039978027 47.68889999389648 21.78030967712402 47.68889999389648 L 26.67049980163574 47.68889999389648 M 18.64140892028809 42.73122787475586 C 18.5141544342041 42.73122787475586 18.39035415649414 42.78409576416016 18.31384086608887 42.86061096191406 L 16.70441055297852 44.47003936767578 L 13.91886043548584 41.68449020385742 L 15.52829074859619 40.0750617980957 C 15.65209007263184 39.95125961303711 15.71399021148682 39.70365905761719 15.59018993377686 39.51795196533203 C 15.03308010101318 38.58943939208984 14.59977054595947 37.5990104675293 14.35216999053955 36.54669952392578 C 14.29027080535889 36.36098861694336 14.10456085205078 36.17528915405273 13.91886043548584 36.17528915405273 L 11.62852001190186 36.17528915405273 L 11.62852001190186 32.21361923217773 L 13.91886043548584 32.21361923217773 C 14.10456085205078 32.21361923217773 14.29027080535889 32.08980941772461 14.35216999053955 31.84221076965332 C 14.59977054595947 30.78989028930664 15.03308010101318 29.79947090148926 15.59018993377686 28.87095069885254 C 15.71399021148682 28.68525123596191 15.65209007263184 28.43764114379883 15.52829074859619 28.31384086608887 L 13.91886043548584 26.70441055297852 L 16.70441055297852 23.91885948181152 L 18.31384086608887 25.52828979492188 C 18.43764877319336 25.65209197998047 18.68524742126465 25.71398735046387 18.87095069885254 25.59019088745117 C 19.79947090148926 25.0330810546875 20.78989028930664 24.59976959228516 21.84221076965332 24.35217094421387 C 22.02791023254395 24.29026985168457 22.21362113952637 24.10456085205078 22.21362113952637 23.91885948181152 L 22.21362113952637 21.62852096557617 L 26.17529106140137 21.62852096557617 L 26.17529106140137 23.91885948181152 C 26.17529106140137 24.10456085205078 26.2990894317627 24.29026985168457 26.54669952392578 24.35217094421387 C 27.59902000427246 24.59976959228516 28.58942985534668 25.0330810546875 29.5179500579834 25.59019088745117 C 29.70365333557129 25.71398735046387 29.95125961303711 25.65209007263184 30.07505989074707 25.52828979492188 L 31.68449020385742 23.91885948181152 L 34.47003936767578 26.70441055297852 L 32.86061096191406 28.31384086608887 C 32.73680877685547 28.43764114379883 32.67491149902344 28.68525123596191 32.79870986938477 28.87095069885254 C 33.35581970214844 29.79947090148926 33.78913116455078 30.78989028930664 34.03673934936523 31.84221076965332 C 34.09864044189453 32.02791213989258 34.28433990478516 32.21361923217773 34.47005081176758 32.21361923217773 L 36.76039123535156 32.21361923217773 L 36.76039123535156 36.17528915405273 L 34.47005081176758 36.17528915405273 C 34.28433990478516 36.17528915405273 34.09864044189453 36.29909133911133 34.03673934936523 36.54669952392578 C 33.78913116455078 37.5990104675293 33.35581970214844 38.58943939208984 32.79870986938477 39.51795196533203 C 32.67491149902344 39.70365905761719 32.73680877685547 39.95125961303711 32.86061096191406 40.0750617980957 L 34.47003936767578 41.68449020385742 L 31.68449020385742 44.47003936767578 L 30.07505989074707 42.86061096191406 C 29.95126152038574 42.73680877685547 29.70366477966309 42.67490768432617 29.5179500579834 42.79870986938477 C 28.58942985534668 43.35581970214844 27.59902000427246 43.78913116455078 26.54669952392578 44.03673934936523 C 26.36099052429199 44.09864044189453 26.17529106140137 44.28433990478516 26.17529106140137 44.47005081176758 L 26.17529106140137 46.76039123535156 L 22.21362113952637 46.76039123535156 L 22.21362113952637 44.47005081176758 C 22.21362113952637 44.28433990478516 22.08981132507324 44.09864044189453 21.84221076965332 44.03673934936523 C 20.78989028930664 43.78913116455078 19.79947090148926 43.35581970214844 18.87095069885254 42.79870986938477 C 18.80002021789551 42.75142288208008 18.72005462646484 42.73122787475586 18.64140892028809 42.73122787475586 M 26.67049980163574 48.18889999389648 L 21.78030967712402 48.18889999389648 C 21.22224998474121 48.18889999389648 20.78510093688965 47.75175094604492 20.78510093688965 47.19369125366211 L 20.78510093688965 45.21189498901367 C 20.14696502685547 45.00608825683594 19.49563026428223 44.73490905761719 18.84094047546387 44.40243911743164 L 17.42937088012695 45.81401062011719 C 17.24512100219727 45.99827194213867 16.99864959716797 46.09973907470703 16.73536109924316 46.09973907470703 C 16.47208023071289 46.09973907470703 16.22561073303223 45.99827194213867 16.04136085510254 45.81401062011719 L 12.57489013671875 42.34754943847656 C 12.19222068786621 41.96487045288086 12.19222068786621 41.34220886230469 12.57488059997559 40.95954132080078 L 12.58162021636963 40.95291900634766 L 13.98313236236572 39.60332489013672 C 13.65217208862305 38.9508171081543 13.38212966918945 38.30171585083008 13.17700862884521 37.66571044921875 L 11.19521045684814 37.66571044921875 C 10.63715076446533 37.66571044921875 10.20000076293945 37.22856140136719 10.20000076293945 36.67050170898438 L 10.20000076293945 31.78030967712402 C 10.20000076293945 31.22224998474121 10.63715076446533 30.78510093688965 11.19521045684814 30.78510093688965 L 13.17700672149658 30.78510093688965 C 13.3828125 30.14696502685547 13.65399074554443 29.49563026428223 13.98646068572998 28.84094047546387 L 12.57489013671875 27.42937088012695 C 12.19222068786621 27.04668045043945 12.19222068786621 26.42402076721191 12.57489013671875 26.04136085510254 L 16.04136085510254 22.57489013671875 C 16.22560119628906 22.39064025878906 16.47208023071289 22.28917121887207 16.73537063598633 22.28917121887207 C 16.99866104125977 22.28917121887207 17.24513053894043 22.39064025878906 17.42937088012695 22.57489013671875 L 17.43597984313965 22.58162117004395 L 18.78558731079102 23.98313522338867 C 19.4381160736084 23.65216827392578 20.08721351623535 23.38211822509766 20.72319984436035 23.17700576782227 L 20.72319984436035 21.19520950317383 C 20.72319984436035 20.63714981079102 21.16035079956055 20.20000076293945 21.71841049194336 20.20000076293945 L 26.60860061645508 20.20000076293945 C 27.16666030883789 20.20000076293945 27.60381126403809 20.63714981079102 27.60381126403809 21.19520950317383 L 27.60381126403809 23.1770076751709 C 28.23985862731934 23.38214302062988 28.88908386230469 23.65225791931152 29.54165267944336 23.98325729370117 L 30.95954132080078 22.51299095153809 C 31.14377975463867 22.3287410736084 31.39026069641113 22.22727012634277 31.65355110168457 22.22727012634277 C 31.91683959960938 22.22727012634277 32.16331100463867 22.3287410736084 32.34754943847656 22.51299095153809 L 35.81401062011719 25.97945976257324 C 35.99827194213867 26.16370010375977 36.09973907470703 26.41016960144043 36.09973907470703 26.67346954345703 C 36.09973907470703 26.93675994873047 35.99827194213867 27.18322944641113 35.81399917602539 27.36748123168945 L 34.40243911743164 28.77903938293457 C 34.73492050170898 29.43374633789062 35.006103515625 30.08508491516113 35.21189880371094 30.72319984436035 L 37.19369888305664 30.72319984436035 C 37.75175857543945 30.72319984436035 38.18889999389648 31.16035079956055 38.18889999389648 31.71841049194336 L 38.18889999389648 36.60860061645508 C 38.18889999389648 37.16666030883789 37.75175857543945 37.60380935668945 37.19369888305664 37.60380935668945 L 35.21189880371094 37.60380935668945 C 35.006103515625 38.24192428588867 34.73492050170898 38.89325714111328 34.40243911743164 39.5479621887207 L 35.81401062011719 40.95952987670898 C 36.15570068359375 41.30121994018555 36.20917129516602 41.86518096923828 35.93838119506836 42.27135848999023 L 35.91091918945312 42.31254959106445 L 32.40945053100586 45.81401062011719 C 32.22520065307617 45.99827194213867 31.97873115539551 46.09973907470703 31.71545028686523 46.09973907470703 C 31.4521598815918 46.09973907470703 31.20569038391113 45.99827194213867 31.02144050598145 45.81401062011719 L 29.60986328125 44.40244293212891 C 28.95517349243164 44.73491668701172 28.3038387298584 45.00608825683594 27.66571044921875 45.21189498901367 L 27.66571044921875 47.19369125366211 C 27.66571044921875 47.75175094604492 27.22855949401855 48.18889999389648 26.67049980163574 48.18889999389648 Z M 22.71362113952637 46.26039123535156 L 25.67529106140137 46.26039123535156 L 25.67529106140137 44.47005081176758 C 25.67529106140137 44.0302619934082 26.03413009643555 43.6805419921875 26.38858985900879 43.56240081787109 L 26.43218040466309 43.55002975463867 C 27.37026977539062 43.32930374145508 28.31923675537109 42.93386459350586 29.25283432006836 42.37467575073242 C 29.3988094329834 42.28078079223633 29.56951332092285 42.23123168945312 29.74749946594238 42.23123168945312 C 30.00127983093262 42.23123168945312 30.25589942932129 42.3343391418457 30.42860984802246 42.50706100463867 L 31.68449020385742 43.762939453125 L 33.762939453125 41.68449020385742 L 32.50706100463867 40.42861175537109 C 32.24309158325195 40.16464996337891 32.10892868041992 39.6649169921875 32.37477874755859 39.25265884399414 C 32.93390655517578 38.31913757324219 33.32930374145508 37.37023162841797 33.55002975463867 36.43217849731445 L 33.55167007446289 36.42544174194336 C 33.6638298034668 35.97674942016602 34.03290176391602 35.67528915405273 34.47005081176758 35.67528915405273 L 36.26039123535156 35.67528915405273 L 36.26039123535156 32.71361923217773 L 34.47005081176758 32.71361923217773 C 34.0302619934082 32.71361923217773 33.68054962158203 32.35478973388672 33.56240081787109 32.00032043457031 L 33.55002975463867 31.95672988891602 C 33.32933044433594 31.01874732971191 32.93393707275391 30.06986808776855 32.37486267089844 29.13637924194336 C 32.10893630981445 28.72410774230957 32.24306488037109 28.22427558898926 32.50706100463867 27.96029090881348 L 33.762939453125 26.70441055297852 L 31.68449020385742 24.62596130371094 L 30.42860984802246 25.88183975219727 C 30.25589942932129 26.0545597076416 30.00127029418945 26.15767097473145 29.74748992919922 26.15767097473145 C 29.56945991516113 26.15767097473145 29.39873886108398 26.10809707641602 29.25275993347168 26.01418113708496 C 28.31915283203125 25.45499038696289 27.37025833129883 25.05959892272949 26.43218040466309 24.83888053894043 L 26.42543983459473 24.83724021911621 C 25.97675132751465 24.7250804901123 25.67529106140137 24.35601043701172 25.67529106140137 23.91885948181152 L 25.67529106140137 22.12852096557617 L 22.71362113952637 22.12852096557617 L 22.71362113952637 23.91885948181152 C 22.71362113952637 24.35865020751953 22.35478973388672 24.70836067199707 22.00032043457031 24.82650947570801 L 21.95672988891602 24.83888053894043 C 21.01864242553711 25.05959892272949 20.06966400146484 25.45503425598145 19.13606643676758 26.01422500610352 C 18.99009132385254 26.10811805725098 18.81939888000488 26.15767097473145 18.64141082763672 26.15767097473145 C 18.38763046264648 26.15767097473145 18.13300132751465 26.0545597076416 17.96029090881348 25.88183975219727 L 16.70441055297852 24.62596130371094 L 14.62596035003662 26.70441055297852 L 15.88184070587158 27.96029090881348 C 16.14583587646484 28.22427558898926 16.27996253967285 28.7241096496582 16.01403617858887 29.13638114929199 C 15.45495414733887 30.06986999511719 15.05957221984863 31.01875686645508 14.83888053894043 31.95672988891602 L 14.83724021911621 31.96347999572754 C 14.72506999969482 32.41215896606445 14.35599994659424 32.71361923217773 13.91886043548584 32.71361923217773 L 12.12852001190186 32.71361923217773 L 12.12852001190186 35.67528915405273 L 13.91886043548584 35.67528915405273 C 14.35865020751953 35.67528915405273 14.70837020874023 36.03413009643555 14.82651042938232 36.38859176635742 L 14.83888053894043 36.43217849731445 C 15.05959510803223 37.37022018432617 15.45499420166016 38.31913757324219 16.01412200927734 39.25265884399414 C 16.27997016906738 39.6649169921875 16.14580917358398 40.16464996337891 15.88184070587158 40.42861175537109 L 14.62596035003662 41.68449020385742 L 16.70441055297852 43.762939453125 L 17.96029090881348 42.50706100463867 C 18.13300132751465 42.3343391418457 18.38763046264648 42.23123168945312 18.64141082763672 42.23123168945312 C 18.8194408416748 42.23123168945312 18.99015998840332 42.28080368041992 19.13613891601562 42.37471771240234 C 20.06973838806152 42.93389892578125 21.01863098144531 43.32930374145508 21.95672988891602 43.55002975463867 L 21.96347999572754 43.55167007446289 C 22.41216087341309 43.66384124755859 22.71362113952637 44.03290939331055 22.71362113952637 44.47005081176758 L 22.71362113952637 46.26039123535156 Z" stroke="none" fill="#fff"/>
      </g>
      <g id="Path_38510" data-name="Path 38510" transform="translate(-7.81 -11.62)" fill="#fff">
        <path d="M 28.19483184814453 45.5396614074707 C 26.24195098876953 45.5396614074707 24.41773223876953 44.79093933105469 23.0582218170166 43.43143844604492 C 21.69872093200684 42.07192993164062 20.95000267028809 40.24771118164062 20.95000267028809 38.29483032226562 C 20.95000267028809 36.34854125976562 21.70715141296387 34.52413177490234 23.08198165893555 33.15768051147461 C 24.44948196411133 31.79852104187012 26.26526260375977 31.05000114440918 28.19483184814453 31.05000114440918 C 30.1244010925293 31.05000114440918 31.94018173217773 31.79852104187012 33.30768203735352 33.15768051147461 C 34.68251037597656 34.52413177490234 35.43966293334961 36.34854125976562 35.43966293334961 38.29483032226562 C 35.43966293334961 40.24771118164062 34.69094085693359 42.07192993164062 33.33143997192383 43.43143844604492 C 31.97193145751953 44.79093933105469 30.14771270751953 45.5396614074707 28.19483184814453 45.5396614074707 Z M 28.19483184814453 32.41661071777344 C 24.98771095275879 32.41661071777344 22.37852096557617 35.02579879760742 22.37852096557617 38.23292922973633 C 22.37852096557617 41.4400520324707 24.98771095275879 44.04924011230469 28.19483184814453 44.04924011230469 C 31.40195274353027 44.04924011230469 34.01114273071289 41.4400520324707 34.01114273071289 38.23292922973633 C 34.01114273071289 35.02579879760742 31.40195274353027 32.41661071777344 28.19483184814453 32.41661071777344 Z" stroke="none"/>
        <path d="M 28.19483184814453 31.29999923706055 C 24.35696029663086 31.29999923706055 21.20000076293945 34.39506149291992 21.20000076293945 38.29483032226562 C 21.20000076293945 42.19459915161133 24.29506301879883 45.28965759277344 28.19483184814453 45.28965759277344 C 32.0946044921875 45.28965759277344 35.18965911865234 42.19459915161133 35.18965911865234 38.29483032226562 C 35.18965911865234 34.39506149291992 32.03269958496094 31.29999923706055 28.19483184814453 31.29999923706055 M 28.19483184814453 44.29924011230469 C 24.85217094421387 44.29924011230469 22.12851333618164 41.57559204101562 22.12851333618164 38.23292922973633 C 22.12851333618164 34.8902702331543 24.85217094421387 32.16661071777344 28.19483184814453 32.16661071777344 C 31.5374927520752 32.16661071777344 34.26114273071289 34.8902702331543 34.26114273071289 38.23292922973633 C 34.26114273071289 41.57559204101562 31.5374927520752 44.29924011230469 28.19483184814453 44.29924011230469 M 28.19483184814453 30.79999923706055 C 30.19089126586914 30.79999923706055 32.06925964355469 31.5743408203125 33.48392105102539 32.98036956787109 C 34.90631103515625 34.39408874511719 35.68965911865234 36.28147125244141 35.68965911865234 38.29483032226562 C 35.68965911865234 40.31449127197266 34.91493988037109 42.20148086547852 33.50820922851562 43.60821151733398 C 32.10148239135742 45.01493835449219 30.21449279785156 45.78965759277344 28.19483184814453 45.78965759277344 C 26.1751708984375 45.78965759277344 24.28818130493164 45.01493835449219 22.88145065307617 43.60821151733398 C 21.4747200012207 42.20148086547852 20.70000076293945 40.31449127197266 20.70000076293945 38.29483032226562 C 20.70000076293945 36.28147125244141 21.48335266113281 34.39408874511719 22.90574264526367 32.98036956787109 C 24.32040023803711 31.5743408203125 26.19877243041992 30.79999923706055 28.19483184814453 30.79999923706055 Z M 28.19483184814453 43.79924011230469 C 31.26410102844238 43.79924011230469 33.76114273071289 41.30220031738281 33.76114273071289 38.23292922973633 C 33.76114273071289 35.16365051269531 31.26410102844238 32.66661071777344 28.19483184814453 32.66661071777344 C 25.12555122375488 32.66661071777344 22.62851333618164 35.16365051269531 22.62851333618164 38.23292922973633 C 22.62851333618164 41.30220031738281 25.12555122375488 43.79924011230469 28.19483184814453 43.79924011230469 Z" stroke="none" fill="#fff"/>
      </g>
    </g>
  </g>
</svg>
