<svg xmlns="http://www.w3.org/2000/svg" width="76" height="67.625" viewBox="0 0 76 67.625">
  <g id="front-end-icon-3" transform="translate(-0.374 -0.777)">
    <circle id="Ellipse_300" data-name="Ellipse 300" cx="6.791" cy="6.791" r="6.791" transform="translate(31.597 27.724)" fill="#00d8ff"/>
    <g id="Group_36229" data-name="Group 36229" transform="translate(0.374 19.093)">
      <path id="Path_38545" data-name="Path 38545" d="M38.387,54.911c-9.537,0-17.871-1.122-24.107-3.26a30.62,30.62,0,0,1-9.93-5.317C1.754,44.115.374,41.694.374,39.353c0-4.491,4.924-8.887,13.19-11.755,6.764-2.354,15.584-3.666,24.81-3.666,9.064,0,17.762,1.271,24.485,3.6a31.154,31.154,0,0,1,9.605,5.059c2.556,2.137,3.909,4.478,3.909,6.764,0,4.667-5.506,9.389-14.38,12.324C55.716,53.762,47.329,54.911,38.387,54.911Zm0-27.733c-8.753,0-17.41,1.271-23.742,3.477-7.6,2.652-11.011,6.278-11.011,8.7,0,2.516,3.666,6.48,11.7,9.227,5.9,2.016,13.879,3.084,23.051,3.084,8.6,0,16.626-1.083,22.592-3.071,8.347-2.773,12.161-6.737,12.161-9.24,0-1.285-.974-2.8-2.746-4.275a27.822,27.822,0,0,0-8.577-4.491A74.875,74.875,0,0,0,38.387,27.178Z" transform="translate(-0.374 -23.932)" fill="#00d8ff"/>
    </g>
    <g id="Group_36230" data-name="Group 36230" transform="translate(15.074 0.777)">
      <path id="Path_38546" data-name="Path 38546" d="M26.863,68.361a7.127,7.127,0,0,1-3.625-.893c-3.882-2.245-5.235-8.712-3.6-17.3,1.339-7.048,4.613-15.328,9.227-23.323C33.4,19,38.835,12.1,44.206,7.432a30.879,30.879,0,0,1,9.185-5.79c3.124-1.15,5.83-1.15,7.805-.013,4.045,2.326,5.384,9.469,3.49,18.614-1.339,6.493-4.532,14.326-9,22.077-4.762,8.253-9.9,14.908-14.867,19.25a30.633,30.633,0,0,1-9.564,5.94A13.206,13.206,0,0,1,26.863,68.361Zm3.4-40.705,1.406.812c-4.37,7.575-7.6,15.7-8.848,22.308-1.5,7.913-.054,12.675,2.029,13.879a4.014,4.014,0,0,0,2.016.46c2.692,0,6.926-1.7,11.823-5.98,4.695-4.1,9.6-10.484,14.19-18.425,4.3-7.453,7.36-14.948,8.632-21.1,1.771-8.617.244-13.893-1.935-15.15C58.464,3.819,56.664,3.9,54.5,4.7a27.642,27.642,0,0,0-8.17,5.195c-5.1,4.438-10.308,11.039-14.664,18.587Z" transform="translate(-18.957 -0.777)" fill="#00d8ff"/>
    </g>
    <g id="Group_36231" data-name="Group 36231" transform="translate(15.09 0.844)">
      <path id="Path_38547" data-name="Path 38547" d="M57.683,68.42c-3.679,0-8.348-2.219-13.217-6.412-5.438-4.68-10.971-11.648-15.6-19.642h0c-4.545-7.846-7.792-16-9.158-23a31.031,31.031,0,0,1-.433-10.849c.569-3.287,1.907-5.628,3.9-6.777C27.2-.6,34.063,1.81,41.043,8.019c4.951,4.4,10.146,11.079,14.624,18.817,4.775,8.254,7.981,16.031,9.253,22.5A30.935,30.935,0,0,1,65.3,60.588c-.622,3.369-2.028,5.763-4.059,6.94A6.954,6.954,0,0,1,57.683,68.42Zm-26-27.679c4.383,7.575,9.821,14.434,14.907,18.8,6.1,5.25,10.945,6.386,13.042,5.168,2.178-1.258,3.774-6.412,2.124-14.745-1.218-6.114-4.288-13.556-8.887-21.5-4.316-7.454-9.28-13.852-13.975-18.019-6.575-5.844-11.9-7.156-14.083-5.9C23.7,5.19,22.876,6.8,22.484,9.072a27.666,27.666,0,0,0,.419,9.673,74.493,74.493,0,0,0,8.78,22Z" transform="translate(-18.977 -0.862)" fill="#00d8ff"/>
    </g>
  </g>
</svg>
