<svg id="react-2" xmlns="http://www.w3.org/2000/svg" width="61.873" height="55.1" viewBox="0 0 61.873 55.1">
  <path id="Path_22274" data-name="Path 22274" d="M237.573,105.556c0-4.1-5.133-7.983-13-10.392,1.816-8.021,1.009-14.4-2.548-16.446a5.529,5.529,0,0,0-2.825-.706v2.812a2.92,2.92,0,0,1,1.438.328c1.715.984,2.459,4.729,1.879,9.547-.139,1.185-.366,2.434-.643,3.708a61.116,61.116,0,0,0-8.008-1.375,61.519,61.519,0,0,0-5.246-6.306c4.111-3.821,7.971-5.915,10.594-5.915V78c-3.468,0-8.008,2.472-12.6,6.76-4.591-4.263-9.131-6.709-12.6-6.709v2.812c2.611,0,6.482,2.081,10.594,5.877a59.566,59.566,0,0,0-5.209,6.293,58.892,58.892,0,0,0-8.021,1.387c-.29-1.261-.5-2.484-.656-3.657-.593-4.818.139-8.563,1.841-9.56a2.807,2.807,0,0,1,1.45-.328V78.063a5.623,5.623,0,0,0-2.85.706c-3.544,2.043-4.338,8.412-2.51,16.408C180.808,97.6,175.7,101.47,175.7,105.556s5.133,7.983,13,10.392c-1.816,8.021-1.009,14.4,2.548,16.446a5.544,5.544,0,0,0,2.838.706c3.468,0,8.008-2.472,12.6-6.76,4.591,4.263,9.131,6.709,12.6,6.709a5.623,5.623,0,0,0,2.85-.706c3.544-2.043,4.338-8.412,2.51-16.408C232.465,113.527,237.573,109.643,237.573,105.556Zm-16.42-8.412c-.467,1.627-1.047,3.3-1.7,4.982-.517-1.009-1.059-2.018-1.652-3.027s-1.2-1.993-1.816-2.951C217.772,96.413,219.5,96.741,221.152,97.144Zm-5.776,13.431c-.984,1.7-1.993,3.317-3.039,4.818-1.879.164-3.783.252-5.7.252s-3.809-.088-5.675-.24q-1.57-2.251-3.052-4.792-1.438-2.478-2.623-5.019c.782-1.69,1.665-3.38,2.611-5.032.984-1.7,1.993-3.317,3.039-4.818,1.879-.164,3.783-.252,5.7-.252s3.809.088,5.675.24q1.57,2.251,3.052,4.792,1.438,2.478,2.623,5.019c-.795,1.69-1.665,3.38-2.611,5.032Zm4.074-1.64c.681,1.69,1.261,3.38,1.74,5.019-1.652.4-3.393.744-5.2,1.009.618-.971,1.236-1.967,1.816-2.989S218.933,109.945,219.45,108.936Zm-12.788,13.457a51.988,51.988,0,0,1-3.506-4.036c1.135.05,2.3.088,3.468.088s2.358-.025,3.506-.088A49.221,49.221,0,0,1,206.662,122.393Zm-9.383-7.428c-1.791-.265-3.519-.593-5.171-1,.467-1.627,1.047-3.3,1.7-4.982.517,1.009,1.059,2.018,1.652,3.027S196.661,114.006,197.279,114.965ZM206.6,88.72a52,52,0,0,1,3.506,4.036c-1.135-.05-2.3-.088-3.468-.088s-2.358.025-3.506.088A49.225,49.225,0,0,1,206.6,88.72Zm-9.333,7.428c-.618.971-1.236,1.967-1.816,2.989s-1.122,2.018-1.64,3.027c-.681-1.69-1.261-3.38-1.74-5.019C193.722,96.754,195.462,96.413,197.266,96.148Zm-11.414,15.79c-4.465-1.9-7.353-4.4-7.353-6.381s2.888-4.49,7.353-6.381c1.085-.467,2.27-.883,3.493-1.274a60.571,60.571,0,0,0,2.838,7.68,59.714,59.714,0,0,0-2.8,7.643C188.135,112.833,186.95,112.4,185.852,111.938Zm6.785,18.022c-1.715-.984-2.459-4.729-1.879-9.547.139-1.186.366-2.434.643-3.708a61.119,61.119,0,0,0,8.008,1.375,61.521,61.521,0,0,0,5.246,6.306c-4.111,3.821-7.971,5.915-10.594,5.915A3.01,3.01,0,0,1,192.637,129.96Zm29.915-9.61c.593,4.818-.139,8.563-1.841,9.56a2.807,2.807,0,0,1-1.45.328c-2.611,0-6.482-2.081-10.594-5.877a59.569,59.569,0,0,0,5.209-6.293,58.894,58.894,0,0,0,8.021-1.387A35.306,35.306,0,0,1,222.552,120.35Zm4.855-8.412c-1.085.467-2.27.883-3.493,1.274a60.573,60.573,0,0,0-2.838-7.68,59.719,59.719,0,0,0,2.8-7.643c1.249.391,2.434.82,3.544,1.286,4.465,1.9,7.353,4.4,7.353,6.381S231.872,110.046,227.408,111.938Z" transform="translate(-175.7 -78)" fill="#61dafb"/>
  <circle id="Ellipse_247" data-name="Ellipse 247" cx="5.764" cy="5.764" r="5.764" transform="translate(25.16 21.793)" fill="#61dafb"/>
</svg>
