<svg xmlns="http://www.w3.org/2000/svg" width="76" height="76" viewBox="0 0 76 76">
  <g id="Group_36211" data-name="Group 36211" transform="translate(-1360 -3402)">
    <g id="Group_11856" data-name="Group 11856" transform="translate(1360 3402)">
      <rect id="Rectangle_5850" data-name="Rectangle 5850" width="76" height="76" fill="none"/>
    </g>
    <g id="Group_11857" data-name="Group 11857" transform="translate(1367.125 3409.125)">
      <path id="Path_29625" data-name="Path 29625" d="M51.028,30.444V3H16.722V16.722H3V64.75H30.444V51.028h6.861V64.75H64.75V30.444ZM16.722,57.889H9.861V51.028h6.861Zm0-13.722H9.861V37.306h6.861Zm0-13.722H9.861V23.583h6.861ZM30.444,44.167H23.583V37.306h6.861Zm0-13.722H23.583V23.583h6.861Zm0-13.722H23.583V9.861h6.861ZM44.167,44.167H37.306V37.306h6.861Zm0-13.722H37.306V23.583h6.861Zm0-13.722H37.306V9.861h6.861ZM57.889,57.889H51.028V51.028h6.861Zm0-13.722H51.028V37.306h6.861Z" transform="translate(-3 -3)" fill="#ea4335"/>
    </g>
  </g>
</svg>
