<svg xmlns="http://www.w3.org/2000/svg" xmlns:xlink="http://www.w3.org/1999/xlink" width="73" height="102" viewBox="0 0 73 102">
  <defs>
    <clipPath id="clip-path">
      <path id="Path_29624" data-name="Path 29624" d="M0-1H73V101H0Z" transform="translate(924 2244)" fill="#824d4d"/>
    </clipPath>
  </defs>
  <g id="Mask_Group_8994" data-name="Mask Group 8994" transform="translate(-924 -2243)" clip-path="url(#clip-path)">
    <g id="Group_11856" data-name="Group 11856" transform="translate(1514.21 -285)">
      <g id="Group_11839" data-name="Group 11839" transform="translate(-590.21 2535.392)">
        <path id="Path_29610" data-name="Path 29610" d="M69.234,119.647H2.943A2.943,2.943,0,0,1,0,116.7V27.767a2.943,2.943,0,0,1,2.943-2.943H69.234a2.943,2.943,0,0,1,2.943,2.943V116.7A2.943,2.943,0,0,1,69.234,119.647Z" transform="translate(0 -24.824)" fill="#35ade3"/>
      </g>
      <g id="Group_11840" data-name="Group 11840" transform="translate(-559.116 2529)">
        <path id="Path_29611" data-name="Path 29611" d="M169.555,14.278h-9.989v-5.5a4.921,4.921,0,0,1,4.921-4.921h.146a4.921,4.921,0,0,1,4.921,4.921Z" transform="translate(-159.566 -3.858)" fill="#ffc846"/>
      </g>
      <path id="Path_29612" data-name="Path 29612" d="M177.943,3.858H177.8a4.914,4.914,0,0,0-1.492.231,4.923,4.923,0,0,1,3.429,4.69v5.5h3.131v-5.5a4.921,4.921,0,0,0-4.921-4.921Z" transform="translate(-731.991 2525.142)" fill="#eeb226"/>
      <g id="Group_11841" data-name="Group 11841" transform="translate(-584.671 2544.337)">
        <path id="Path_29613" data-name="Path 29613" d="M50.839,157.407H92.853a3.073,3.073,0,0,0,3.073-3.073v-72.5a3.115,3.115,0,0,0-3.115-3.115H37.942a3.115,3.115,0,0,0-3.115,3.115V141.4a1.037,1.037,0,0,0,.137.516c.045.079,9.989,5.356,9.989,5.356s5.348,9.99,5.368,10A1.037,1.037,0,0,0,50.839,157.407Z" transform="translate(-34.827 -78.722)" fill="#fff"/>
      </g>
      <g id="Group_11842" data-name="Group 11842" transform="translate(-584.53 2607.525)">
        <path id="Path_29614" data-name="Path 29614" d="M48.965,387.152a1.908,1.908,0,0,1,1.908,1.908v13.448a1.031,1.031,0,0,1-.22-.163L35.68,387.372a1.032,1.032,0,0,1-.163-.22H48.965Z" transform="translate(-35.517 -387.152)" fill="#e4f6ff"/>
      </g>
      <g id="Group_11843" data-name="Group 11843" transform="translate(-576.452 2607.525)">
        <path id="Path_29615" data-name="Path 29615" d="M80.315,387.153H74.944a1.908,1.908,0,0,1,1.908,1.908V397.2l5.15,5.15a1.045,1.045,0,0,0,.218.167l0-13.452a1.908,1.908,0,0,0-1.908-1.908Z" transform="translate(-74.944 -387.153)" fill="#d3effb"/>
      </g>
      <g id="Group_11844" data-name="Group 11844" transform="translate(-567.977 2538.641)">
        <path id="Path_29616" data-name="Path 29616" d="M143.486,60.861l-2.3,1.475a1.163,1.163,0,0,1-1.255,0L137.72,60.92a1.163,1.163,0,0,0-1.255,0l-2.208,1.415a1.163,1.163,0,0,1-1.255,0l-2.209-1.416a1.163,1.163,0,0,0-1.255,0l-2.208,1.416a1.163,1.163,0,0,1-1.255,0l-2.208-1.416a1.163,1.163,0,0,0-1.255,0L120.4,62.335a1.163,1.163,0,0,1-1.255,0l-2.3-1.475a1.163,1.163,0,0,1-.535-.979V52.994a2.077,2.077,0,0,1,2.077-2.077h23.553a2.077,2.077,0,0,1,2.077,2.077v6.888A1.163,1.163,0,0,1,143.486,60.861Z" transform="translate(-116.314 -50.917)" fill="#ffc846"/>
      </g>
      <g id="Group_11846" data-name="Group 11846" transform="translate(-547.095 2538.641)">
        <g id="Group_11845" data-name="Group 11845" transform="translate(0 0)">
          <path id="Path_29617" data-name="Path 29617" d="M222.993,50.916h-4.748a2.077,2.077,0,0,1,2.077,2.077v6.888a1.163,1.163,0,0,1-.535.979l-.555.355,1.746,1.119a1.163,1.163,0,0,0,1.255,0l2.3-1.475a1.163,1.163,0,0,0,.535-.979V52.993a2.077,2.077,0,0,0-2.077-2.077Z" transform="translate(-218.245 -50.916)" fill="#eeb226"/>
        </g>
      </g>
      <g id="Group_11847" data-name="Group 11847" transform="translate(-576.598 2559.069)">
        <circle id="Ellipse_243" data-name="Ellipse 243" cx="2.282" cy="2.282" r="2.282" transform="translate(0 0)" fill="#ec407a"/>
      </g>
      <g id="Group_11848" data-name="Group 11848" transform="translate(-576.598 2573.414)">
        <circle id="Ellipse_244" data-name="Ellipse 244" cx="2.282" cy="2.282" r="2.282" transform="translate(0 0)" fill="#ec407a"/>
      </g>
      <g id="Group_11849" data-name="Group 11849" transform="translate(-576.598 2587.814)">
        <circle id="Ellipse_245" data-name="Ellipse 245" cx="2.282" cy="2.282" r="2.282" transform="translate(0 0)" fill="#ec407a"/>
      </g>
      <g id="Group_11850" data-name="Group 11850" transform="translate(-567.032 2559.793)">
        <path id="Path_29618" data-name="Path 29618" d="M151.051,157.282H122.486a1.558,1.558,0,0,1,0-3.116h28.565a1.558,1.558,0,1,1,0,3.116Z" transform="translate(-120.928 -154.166)" fill="#35ade3"/>
      </g>
      <g id="Group_11851" data-name="Group 11851" transform="translate(-567.032 2566.965)">
        <path id="Path_29619" data-name="Path 29619" d="M145.268,192.29H122.486a1.558,1.558,0,0,1,0-3.116h22.782a1.558,1.558,0,0,1,0,3.116Z" transform="translate(-120.928 -189.174)" fill="#35ade3"/>
      </g>
      <g id="Group_11852" data-name="Group 11852" transform="translate(-567.032 2574.137)">
        <path id="Path_29620" data-name="Path 29620" d="M151.051,227.3H122.486a1.558,1.558,0,0,1,0-3.116h28.565a1.558,1.558,0,0,1,0,3.116Z" transform="translate(-120.928 -224.182)" fill="#35ade3"/>
      </g>
      <g id="Group_11853" data-name="Group 11853" transform="translate(-567.032 2588.481)">
        <path id="Path_29621" data-name="Path 29621" d="M151.051,297.315H122.486a1.558,1.558,0,1,1,0-3.116h28.565a1.558,1.558,0,1,1,0,3.116Z" transform="translate(-120.928 -294.199)" fill="#35ade3"/>
      </g>
      <g id="Group_11854" data-name="Group 11854" transform="translate(-567.032 2595.654)">
        <path id="Path_29622" data-name="Path 29622" d="M151.051,332.323H122.486a1.558,1.558,0,0,1,0-3.116h28.565a1.558,1.558,0,0,1,0,3.116Z" transform="translate(-120.928 -329.207)" fill="#35ade3"/>
      </g>
      <g id="Group_11855" data-name="Group 11855" transform="translate(-567.032 2602.826)">
        <path id="Path_29623" data-name="Path 29623" d="M145.268,367.332H122.486a1.558,1.558,0,1,1,0-3.116h22.782a1.558,1.558,0,1,1,0,3.116Z" transform="translate(-120.928 -364.216)" fill="#35ade3"/>
      </g>
    </g>
  </g>
</svg>
