<svg xmlns="http://www.w3.org/2000/svg" width="36.034" height="36.032" viewBox="0 0 36.034 36.032">
  <g id="Research-icon" transform="translate(0 0)">
    <path id="Union_7" data-name="Union 7" d="M1.017,35.016a3.473,3.473,0,0,1,0-4.911L7.2,23.921a3.479,3.479,0,0,1,4.049-.63L13.8,20.742a12.606,12.606,0,1,1,1.493,1.493l-2.548,2.548a3.478,3.478,0,0,1-.632,4.049L5.928,35.016a3.477,3.477,0,0,1-4.911,0Zm7.677-9.6L2.51,31.6a1.361,1.361,0,1,0,1.925,1.925l6.184-6.184a1.361,1.361,0,0,0-1.925-1.925ZM16.007,5.185a10.494,10.494,0,1,0,7.421-3.074A10.426,10.426,0,0,0,16.007,5.185ZM27.58,17.11V8.1a1.056,1.056,0,0,1,2.111,0V17.11a1.056,1.056,0,0,1-2.111,0Zm-3.519,0V11.62a1.056,1.056,0,1,1,2.111,0v5.49a1.056,1.056,0,0,1-2.111,0Zm-3.519,0v-6.9a1.056,1.056,0,0,1,2.111,0v6.9a1.056,1.056,0,0,1-2.111,0Zm-3.519,0V13.732a1.056,1.056,0,1,1,2.111,0V17.11a1.056,1.056,0,0,1-2.111,0Z" transform="translate(0 0)" fill="#fff"/>
  </g>
</svg>
