<svg id="Group_10246" data-name="Group 10246" xmlns="http://www.w3.org/2000/svg" width="76" height="73.425" viewBox="0 0 76 73.425">
  <path id="Path_19036" data-name="Path 19036" d="M77.587,22.947,73.607,9.2A7.594,7.594,0,0,0,66.344,3H13.589A7.6,7.6,0,0,0,6.374,9.2L2.386,22.949A14.005,14.005,0,0,0,5.8,35.879V68.267a7.915,7.915,0,0,0,7.6,8.158H66.572a7.915,7.915,0,0,0,7.6-8.158V35.879A14.009,14.009,0,0,0,77.587,22.947ZM43.79,11.158h7.444l2.051,14.359a5.131,5.131,0,0,1-4.862,6.037,5.046,5.046,0,0,1-4.633-5.342ZM18.869,26.9a4.931,4.931,0,0,1-4.6,4.642c-3.532,0-5.128-3.957-4.519-6.69l3.835-13.7h7.483Zm17.319-.693a5.078,5.078,0,0,1-4.9,5.344,5.178,5.178,0,0,1-4.642-6.037l2.089-14.359h7.444ZM65.7,31.555a4.9,4.9,0,0,1-4.6-4.642L58.9,11.158l7.329-.041,3.989,13.748c.607,2.734-.95,6.69-4.519,6.69Z" transform="translate(-1.986 -3)" fill="#2b5474"/>
</svg>
