<svg xmlns="http://www.w3.org/2000/svg" width="34.587" height="41.014" viewBox="0 0 34.587 41.014">
  <g id="Reusable" transform="translate(0.509 0.5)">
    <path id="Path_19729" data-name="Path 19729" d="M78.172,18.769a4.092,4.092,0,0,0,.049-5.32l.526-.64a.567.567,0,1,0-.874-.72l-.493.6a4.1,4.1,0,0,0-5.61.967v-.081a1.93,1.93,0,0,0-1.929-1.928H67.8V9.687a.567.567,0,0,0-.567-.567H63.659a.567.567,0,0,0-.567.567v1.957H61.068a1.93,1.93,0,0,0-1.929,1.928v.592a16.809,16.809,0,0,0-1.619,30.375v1.629a2.97,2.97,0,0,0,2.966,2.966h9.936a2.97,2.97,0,0,0,2.968-2.966V44.542a16.849,16.849,0,0,0,8.856-14.765A16.666,16.666,0,0,0,78.172,18.769Zm-3.1-5.659a2.953,2.953,0,0,1,1.58.457l-1.8,2.192-.471-.616a.567.567,0,1,0-.9.687l.905,1.182a.567.567,0,0,0,.44.222h.01a.567.567,0,0,0,.438-.206l2.211-2.686a2.969,2.969,0,1,1-2.409-1.232Zm-10.85-2.857h2.444v1.39H64.226Zm-3.953,3.318a.8.8,0,0,1,.8-.794h8.772a.8.8,0,0,1,.8.794v.772H60.272Zm-2.753,14.46V43.238a15.681,15.681,0,0,1,.061-27.049,2.368,2.368,0,0,0-.061.529v5.1A1.376,1.376,0,0,0,58.9,23.191a.243.243,0,0,1,.243.243v2.979a.243.243,0,0,1-.243.243h-.058A1.376,1.376,0,0,0,57.519,28.032ZM72.255,46.168A1.835,1.835,0,0,1,70.423,48H60.487a1.835,1.835,0,0,1-1.835-1.832V28.031a.243.243,0,0,1,.243-.243h9.1a.567.567,0,1,0,0-1.134H60.251a1.336,1.336,0,0,0,.023-.243v-2.98A1.376,1.376,0,0,0,58.9,22.055a.243.243,0,0,1-.243-.243v-5.1a1.242,1.242,0,0,1,.983-1.214.491.491,0,0,0,.068,0H71.011a4.169,4.169,0,0,0-.04.572,4.091,4.091,0,0,0,1.285,2.977v2.753a.243.243,0,0,1-.243.243H63.161a.567.567,0,1,0,0,1.134h7.5a1.342,1.342,0,0,0-.023.243v2.984a1.376,1.376,0,0,0,1.376,1.376.243.243,0,0,1,.243.243Zm4.415-5.506a15.753,15.753,0,0,1-3.282,2.579V28.032a1.376,1.376,0,0,0-1.376-1.376.243.243,0,0,1-.243-.243v-2.98a.243.243,0,0,1,.243-.243h.058a1.376,1.376,0,0,0,1.318-1.376V19.82a4.087,4.087,0,0,0,3.932-.305,15.658,15.658,0,0,1-.648,21.145Z" transform="translate(-48.667 -9.12)" fill="#3898ff" stroke="#3898ff" stroke-width="1"/>
    <path id="Path_19730" data-name="Path 19730" d="M223.344,303.479a1.436,1.436,0,0,0-2.411,0c-.543.925-2.234,4.082-1.2,5.891a3.08,3.08,0,0,0,4.808,0C225.578,307.561,223.887,304.4,223.344,303.479ZM222.227,304.133Zm1.193,4.593c-.071.125-.288.5-1.28.5s-1.208-.378-1.279-.5c-.51-.891.257-3,1.188-4.587a.213.213,0,0,1,.183,0C223.556,306.4,223.776,308.1,223.421,308.727Z" transform="translate(-205.581 -279.043)" fill="#3898ff" stroke="#3898ff" stroke-width="1"/>
  </g>
</svg>
