<svg xmlns="http://www.w3.org/2000/svg" width="44.4" height="45.629" viewBox="0 0 44.4 45.629">
  <g id="SOW-icon" transform="translate(0.2 0.2)" fill="#fff">
    <path d="M 22.04046058654785 45.32853698730469 C 20.80784034729004 45.32853698730469 19.60502052307129 44.88987731933594 18.65360069274902 44.09336853027344 C 17.72014999389648 43.31231689453125 17.06550979614258 42.22201919555664 16.81028938293457 41.02330780029297 L 16.8080997467041 41.01301574707031 L 16.8080997467041 41.01202774047852 C 16.80232429504395 40.98278045654297 16.79852676391602 40.9571418762207 16.79624938964844 40.93207550048828 C 16.79599952697754 40.93001556396484 16.79570960998535 40.92571640014648 16.79549026489258 40.92142868041992 L 16.7952995300293 40.91973876953125 L 16.7950496673584 40.91557693481445 C 16.79342079162598 40.89438629150391 16.79191970825195 40.87368774414062 16.79191970825195 40.8519287109375 L 16.79191970825195 39.41308975219727 C 15.46108818054199 39.01872634887695 14.16763401031494 38.46261215209961 12.94515895843506 37.75922012329102 L 10.40361022949219 40.3012580871582 C 10.22451019287109 40.47980880737305 9.977299690246582 40.58213806152344 9.725250244140625 40.58213806152344 C 9.472660064697266 40.58213806152344 9.225410461425781 40.47976684570312 9.046899795532227 40.30126571655273 L 3.699229955673218 34.95360565185547 C 3.520420074462891 34.77479553222656 3.41786003112793 34.52753829956055 3.41786003112793 34.27524566650391 C 3.41786003112793 34.02241897583008 3.520450115203857 33.77512741088867 3.699340105056763 33.59678649902344 L 6.241272449493408 31.05485534667969 C 5.460731506347656 29.69908905029297 4.860030174255371 28.24849510192871 4.4547438621521 26.74070739746094 L 0.8592399954795837 26.74070739746094 C 0.3303099870681763 26.74070739746094 -0.1000000014901161 26.31039810180664 -0.1000000014901161 25.78146743774414 L -0.1000000014901161 18.21902656555176 C -0.1000000014901161 17.68982696533203 0.3303099870681763 17.25929641723633 0.8592399954795837 17.25929641723633 L 4.460709571838379 17.25929641723633 C 4.866825103759766 15.75484085083008 5.468171119689941 14.30698299407959 6.249063491821289 12.95343112945557 L 3.699229955673218 10.40359687805176 C 3.520420074462891 10.22478771209717 3.41786003112793 9.977537155151367 3.41786003112793 9.725247383117676 C 3.41786003112793 9.472416877746582 3.520450115203857 9.225127220153809 3.699340105056763 9.046787261962891 L 9.046899795532227 3.69923734664917 C 9.225119590759277 3.520467281341553 9.472410202026367 3.417867422103882 9.725250244140625 3.417867422103882 C 9.97754955291748 3.417867422103882 10.22480010986328 3.520427465438843 10.40359973907471 3.69923734664917 L 12.95941638946533 6.255044460296631 C 14.31037616729736 5.478886604309082 15.756272315979 4.880781650543213 17.25930023193359 4.476335048675537 L 17.25930023193359 0.8592373728752136 C 17.25930023193359 0.3303073346614838 17.6898307800293 -0.1000026538968086 18.21902084350586 -0.1000026538968086 L 25.78146934509277 -0.1000026538968086 C 26.31040000915527 -0.1000026538968086 26.74070930480957 0.3303073346614838 26.74070930480957 0.8592373728752136 L 26.74070930480957 4.482312679290771 C 28.24003791809082 4.887471675872803 29.68335151672363 5.486393928527832 31.03278732299805 6.263330459594727 L 33.59638977050781 3.699247360229492 C 33.77783966064453 3.517797231674194 34.01892852783203 3.417867422103882 34.27524948120117 3.417867422103882 C 34.52754974365234 3.417867422103882 34.77479934692383 3.520427465438843 34.9536018371582 3.69923734664917 L 40.30126190185547 9.046896934509277 C 40.47946166992188 9.22509765625 40.58166122436523 9.472347259521484 40.58166122436523 9.725247383117676 C 40.58166122436523 9.977607727050781 40.47949981689453 10.22481727600098 40.30136871337891 10.40348720550537 L 37.73715591430664 12.96722984313965 C 38.51381301879883 14.31659889221191 39.11247634887695 15.75975322723389 39.51769638061523 17.25929641723633 L 43.14076995849609 17.25929641723633 C 43.6696891784668 17.25929641723633 44.09999847412109 17.68982696533203 44.09999847412109 18.21902656555176 L 44.09999847412109 25.78146743774414 C 44.09999847412109 26.31039810180664 43.6696891784668 26.74070739746094 43.14076995849609 26.74070739746094 L 39.52368927001953 26.74070739746094 C 39.12008285522461 28.24230194091797 38.52196502685547 29.68817901611328 37.74496459960938 31.04059028625488 L 40.30126190185547 33.59689712524414 C 40.47975921630859 33.77539825439453 40.5821418762207 34.02264785766602 40.5821418762207 34.27524566650391 C 40.5821418762207 34.52730560302734 40.47980117797852 34.77452850341797 40.30136871337891 34.95349884033203 L 34.9536018371582 40.30126571655273 C 34.77243041992188 40.482177734375 34.53153991699219 40.5817756652832 34.27524948120117 40.5817756652832 C 34.01895904541016 40.5817756652832 33.77806854248047 40.482177734375 33.59693908691406 40.30131912231445 L 31.04703903198242 37.75093460083008 C 29.86537551879883 38.43216323852539 28.60163307189941 38.98059844970703 27.28850936889648 39.38201141357422 L 27.28850936889648 40.8519287109375 C 27.28850936889648 40.87243270874023 27.2871150970459 40.89294052124023 27.28555870056152 40.91344451904297 C 27.28548622131348 40.92025756835938 27.28520965576172 40.92747497558594 27.28447914123535 40.93407821655273 C 27.28145217895508 40.96175765991211 27.27762031555176 40.98727416992188 27.27281951904297 41.01161193847656 L 27.27281951904297 41.01203918457031 L 27.2706298828125 41.02330780029297 C 27.01539993286133 42.22202682495117 26.36075973510742 43.31232833862305 25.42729949951172 44.09337615966797 C 24.47538948059082 44.88988876342773 23.27259063720703 45.32853698730469 22.04046058654785 45.32853698730469 Z M 18.77977180480957 41.6743278503418 C 19.42685890197754 42.89987564086914 20.68992233276367 43.6832389831543 22.04046058654785 43.6832389831543 C 23.39100646972656 43.6832389831543 24.65407180786133 42.89987564086914 25.30115699768066 41.6743278503418 L 18.77977180480957 41.6743278503418 Z M 18.43770980834961 39.94320678710938 L 25.64322090148926 39.94320678710938 L 25.64322090148926 38.00247573852539 L 18.43770980834961 38.00247573852539 L 18.43770980834961 39.94320678710938 Z M 5.734303951263428 34.27524185180664 L 9.725245475769043 38.26571273803711 L 12.11993980407715 35.87102890014648 C 12.30115985870361 35.6898078918457 12.54213047027588 35.58999633789062 12.79848003387451 35.58999633789062 C 12.98036956787109 35.58999633789062 13.15787982940674 35.64154815673828 13.3118200302124 35.73905563354492 C 14.3978214263916 36.4266471862793 15.56801986694336 36.98505020141602 16.79191970825195 37.39988327026367 L 16.79191970825195 33.88383102416992 C 16.76327896118164 33.55791473388672 16.74876022338867 33.21805572509766 16.74876022338867 32.87359619140625 C 16.74876022338867 32.08486557006836 16.11879920959473 31.24402809143066 15.32124042510986 30.17947769165039 C 14.33953952789307 28.87005805969238 13.12112998962402 27.24490737915039 12.51321029663086 24.92056655883789 C 12.39832973480225 24.48163795471191 12.66182041168213 24.03108787536621 13.1005802154541 23.91623687744141 C 13.16888999938965 23.89835739135742 13.23904037475586 23.8892879486084 13.30910015106201 23.8892879486084 C 13.68290996551514 23.8892879486084 14.01016998291016 24.14209747314453 14.10492038726807 24.50407791137695 C 14.63119029998779 26.51582717895508 15.69575977325439 27.93617820739746 16.635009765625 29.18932723999023 C 17.57943916320801 30.44891738891602 18.39455032348633 31.5360164642334 18.39455032348633 32.87359619140625 C 18.39455032348633 32.92559432983398 18.39491271972656 32.97723007202148 18.3956413269043 33.02861785888672 L 21.21756935119629 33.02861785888672 L 21.21756935119629 31.46850776672363 C 21.21756935119629 31.01476669311523 21.58671951293945 30.64561653137207 22.04046058654785 30.64561653137207 C 22.49420928955078 30.64561653137207 22.86335945129395 31.01476669311523 22.86335945129395 31.46850776672363 L 22.86335945129395 33.02861785888672 L 25.68495941162109 33.02861785888672 C 25.68582916259766 32.97723388671875 25.68638038635254 32.92559432983398 25.68638038635254 32.87359619140625 C 25.68638038635254 31.53534698486328 26.50155067443848 30.44816780090332 27.44543075561523 29.18931770324707 C 28.72009086608887 27.48880767822266 30.30525970458984 25.37404823303223 30.30525970458984 21.84330749511719 C 30.30525970458984 17.28608703613281 26.59769058227539 13.57851696014404 22.04046058654785 13.57851696014404 C 18.46726989746094 13.57851696014404 15.31317043304443 15.8564977645874 14.19188976287842 19.24697685241699 C 14.078049659729 19.59208679199219 13.70363998413086 20.30487823486328 13.27313041687012 20.30494689941406 C 13.23213005065918 20.30494689941406 13.19153022766113 20.29841804504395 13.15244007110596 20.2855281829834 C 12.94954013824463 20.21823692321777 12.77336978912354 19.96778678894043 12.66895961761475 19.59833717346191 C 12.57756996154785 19.27498817443848 12.56221008300781 18.93431663513184 12.62981033325195 18.73044776916504 C 13.97377967834473 14.6648473739624 17.75564002990723 11.93321704864502 22.04046058654785 11.93321704864502 C 27.50490951538086 11.93321704864502 31.95055961608887 16.37886810302734 31.95055961608887 21.84330749511719 C 31.95055961608887 25.92225646972656 30.10839080810547 28.38005828857422 28.76329040527344 30.17466735839844 L 28.67962074279785 30.11956787109375 L 28.7596492767334 30.17952728271484 C 27.96211051940918 31.24405670166016 27.33216094970703 32.08488845825195 27.33216094970703 32.87359619140625 C 27.33216094970703 33.21441268920898 27.31747245788574 33.55426406860352 27.28850936889648 33.88383102416992 L 27.28850936889648 37.36597061157227 C 28.46977806091309 36.95985412597656 29.60982894897461 36.41028213500977 30.67926025390625 35.73127746582031 C 30.83329963684082 35.63346862792969 31.01104927062988 35.58176803588867 31.19329071044922 35.58175659179688 L 31.19330024719238 35.58175659179688 C 31.44964027404785 35.58175659179688 31.69072914123535 35.6815071105957 31.87215995788574 35.86262893676758 L 34.27525329589844 38.26571273803711 L 38.26619720458984 34.27524185180664 L 35.85778045654297 31.8668270111084 C 35.53797149658203 31.54756736755371 35.48326110839844 31.05765724182129 35.72478866577148 30.67550659179688 C 36.71997833251953 29.1018180847168 37.43022155761719 27.38469696044922 37.83578109741211 25.57180786132812 C 37.93460083007812 25.13017654418945 38.3195915222168 24.82174682617188 38.77201080322266 24.82174682617188 L 42.18154144287109 24.82174682617188 L 42.18154144287109 19.17825698852539 L 38.76710891723633 19.17825698852539 C 38.31539916992188 19.17825698852539 37.93061828613281 18.87027740478516 37.83140182495117 18.42929649353027 C 37.42372131347656 16.61912727355957 36.71232986450195 14.90460777282715 35.71699142456055 13.33339691162109 C 35.47467041015625 12.95143699645996 35.52893829345703 12.46146774291992 35.8490104675293 12.14194774627686 L 38.26571273803711 9.72524356842041 L 34.27524566650391 5.734301567077637 L 31.85848999023438 8.151057243347168 C 31.67727088928223 8.332277297973633 31.43630027770996 8.432077407836914 31.17995071411133 8.432077407836914 C 30.99806022644043 8.432077407836914 30.8205394744873 8.380537033081055 30.66659927368164 8.283017158508301 C 29.09429931640625 7.287157535552979 27.37978935241699 6.575937271118164 25.57070922851562 6.169097423553467 C 25.12972068786621 6.069747447967529 24.82175064086914 5.684767246246338 24.82175064086914 5.232897281646729 L 24.82175064086914 1.818957328796387 L 19.17826080322266 1.818957328796387 L 19.17826080322266 5.227997303009033 C 19.17826080322266 5.68054723739624 18.86981964111328 6.065537452697754 18.42818069458008 6.164227485656738 C 16.61529922485352 6.569797515869141 14.89817047119141 7.280037403106689 13.3245096206665 8.27520751953125 C 13.17082977294922 8.372337341308594 12.99367046356201 8.423677444458008 12.81217002868652 8.423686981201172 C 12.55583000183105 8.423697471618652 12.31486988067627 8.323917388916016 12.13366985321045 8.142717361450195 L 9.725250244140625 5.734297275543213 L 5.734306812286377 9.725240707397461 L 8.137800216674805 12.12826728820801 C 8.452930450439453 12.44338703155518 8.508190155029297 12.94491767883301 8.269189834594727 13.32080745697021 C 7.27032995223999 14.89433765411377 6.556320190429688 16.61310768127441 6.147019863128662 18.4293270111084 C 6.047810077667236 18.87027740478516 5.66303014755249 19.17825698852539 5.211319923400879 19.17825698852539 L 1.818959951400757 19.17825698852539 L 1.818959951400757 24.82174682617188 L 5.206419944763184 24.82174682617188 C 5.658969879150391 24.82174682617188 6.043960094451904 25.13019752502441 6.142640113830566 25.57182693481445 C 6.548840045928955 27.38852691650391 7.261710166931152 29.11008644104004 8.261440277099609 30.68868827819824 C 8.5035400390625 31.0703067779541 8.44929027557373 31.56024742126465 8.129469871520996 31.88006782531738 L 5.734303951263428 34.27524185180664 Z M 18.43770980834961 36.357177734375 L 25.64322090148926 36.357177734375 L 25.64322090148926 34.67391586303711 L 18.43770980834961 34.67391586303711 L 18.43770980834961 36.357177734375 Z M 32.26546096801758 32.89120864868164 C 32.04582977294922 32.89120864868164 31.83922958374023 32.80555725097656 31.68371963500977 32.65004730224609 L 30.32229042053223 31.28860664367676 C 30.16678047180176 31.13309669494629 30.08112907409668 30.92643737792969 30.08112907409668 30.70668792724609 C 30.08112907409668 30.48690795898438 30.16679954528809 30.28034782409668 30.32234954833984 30.12507820129395 C 30.47750091552734 29.96964645385742 30.68405914306641 29.88397789001465 30.90383911132812 29.88397789001465 C 31.12359046936035 29.88397789001465 31.33024978637695 29.96962738037109 31.48575973510742 30.12513732910156 L 32.84719848632812 31.4865665435791 C 33.00270843505859 31.64207649230957 33.08835983276367 31.84874725341797 33.08835983276367 32.06848907470703 C 33.08835983276367 32.28826904296875 33.00268936157227 32.49482727050781 32.84714126586914 32.65010833740234 C 32.69168853759766 32.80555725097656 32.48508834838867 32.89120864868164 32.26546096801758 32.89120864868164 Z M 11.81546974182129 32.89120864868164 C 11.59584045410156 32.89120864868164 11.38924026489258 32.80555725097656 11.23373031616211 32.65004730224609 C 10.91322994232178 32.32955551147461 10.91320991516113 31.80764770507812 11.23367023468018 31.48662757873535 L 12.59566020965576 30.1251277923584 C 12.75086975097656 29.96964645385742 12.95740032196045 29.88397789001465 13.17714977264404 29.88397789001465 C 13.39688968658447 29.88397789001465 13.60342025756836 29.96964645385742 13.75870037078857 30.12519645690918 C 13.91413021087646 30.28034782409668 13.99979972839355 30.48690795898438 13.99979972839355 30.70668792724609 C 13.99979972839355 30.92643737792969 13.91415023803711 31.13309669494629 13.75864028930664 31.28860664367676 L 12.3971996307373 32.65004730224609 C 12.24168968200684 32.80555725097656 12.03509044647217 32.89120864868164 11.81546974182129 32.89120864868164 Z M 22.04046058654785 29.40031814575195 C 21.58671951293945 29.40031814575195 21.21756935119629 29.03116798400879 21.21756935119629 28.57741737365723 C 21.21756935119629 28.12367820739746 21.58671951293945 27.7545280456543 22.04046058654785 27.7545280456543 C 22.49420928955078 27.7545280456543 22.86335945129395 28.12367820739746 22.86335945129395 28.57741737365723 C 22.86335945129395 29.03116798400879 22.49420928955078 29.40031814575195 22.04046058654785 29.40031814575195 Z M 22.04046058654785 26.50921821594238 C 21.58671951293945 26.50921821594238 21.21756935119629 26.14006805419922 21.21756935119629 25.68632698059082 L 21.21756935119629 24.12621688842773 L 19.45442008972168 24.12621688842773 C 19.00068092346191 24.12621688842773 18.63153076171875 23.75706672668457 18.63153076171875 23.30331802368164 C 18.63153076171875 22.8498477935791 19.00068092346191 22.48091697692871 19.45442008972168 22.48091697692871 L 24.62700080871582 22.48091697692871 C 25.08046913146973 22.48091697692871 25.44939994812012 22.8498477935791 25.44939994812012 23.30331802368164 C 25.44939994812012 23.75706672668457 25.08046913146973 24.12621688842773 24.62700080871582 24.12621688842773 L 22.86335945129395 24.12621688842773 L 22.86335945129395 25.68632698059082 C 22.86335945129395 26.14006805419922 22.49420928955078 26.50921821594238 22.04046058654785 26.50921821594238 Z M 35.79607009887695 22.66620826721191 L 33.87015151977539 22.66620826721191 C 33.41640853881836 22.66620826721191 33.04726028442383 22.29705810546875 33.04726028442383 21.84330749511719 C 33.04726028442383 21.38956642150879 33.41640853881836 21.02041816711426 33.87015151977539 21.02041816711426 L 35.79607009887695 21.02041816711426 C 36.24954986572266 21.02041816711426 36.61848068237305 21.38956642150879 36.61848068237305 21.84330749511719 C 36.61848068237305 22.29705810546875 36.24954986572266 22.66620826721191 35.79607009887695 22.66620826721191 Z M 12.95277976989746 22.66620826721191 C 12.49930000305176 22.66620826721191 12.13037014007568 22.29705810546875 12.13037014007568 21.84330749511719 C 12.13037014007568 21.38956642150879 12.49930000305176 21.02041816711426 12.95277976989746 21.02041816711426 C 13.40651988983154 21.02041816711426 13.77567005157471 21.38956642150879 13.77567005157471 21.84330749511719 C 13.77567005157471 22.29705810546875 13.40651988983154 22.66620826721191 12.95277976989746 22.66620826721191 Z M 10.21078014373779 22.66620826721191 L 8.285340309143066 22.66620826721191 C 7.831600189208984 22.66620826721191 7.46245002746582 22.29705810546875 7.46245002746582 21.84330749511719 C 7.46245002746582 21.38956642150879 7.831600189208984 21.02041816711426 8.285340309143066 21.02041816711426 L 10.21078014373779 21.02041816711426 C 10.66452026367188 21.02041816711426 11.03367042541504 21.38956642150879 11.03367042541504 21.84330749511719 C 11.03367042541504 22.29705810546875 10.66452026367188 22.66620826721191 10.21078014373779 22.66620826721191 Z M 30.40526008605957 14.30141735076904 C 30.18508911132812 14.30141735076904 29.97845077514648 14.21572780609131 29.82340049743652 14.06013774871826 C 29.50300025939941 13.73917770385742 29.50301933288574 13.21726703643799 29.82352066040039 12.89677715301514 L 31.18544960021973 11.53484725952148 C 31.34071922302246 11.37957763671875 31.5472297668457 11.2940673828125 31.76693916320801 11.2940673828125 C 31.98664093017578 11.2940673828125 32.19314956665039 11.37957763671875 32.34843063354492 11.53484725952148 C 32.50394058227539 11.69035720825195 32.5895881652832 11.89704704284668 32.5895881652832 12.11683750152588 C 32.5895881652832 12.33662700653076 32.50394058227539 12.54330730438232 32.34843063354492 12.69881725311279 L 30.98698997497559 14.06025695800781 C 30.83148002624512 14.21576690673828 30.62487983703613 14.30141735076904 30.40526008605957 14.30141735076904 Z M 13.67566967010498 14.30141735076904 C 13.45604991912842 14.30141735076904 13.24946022033691 14.21577739715576 13.0939302444458 14.06025695800781 L 11.73200988769531 12.69882774353027 C 11.41147994995117 12.37774753570557 11.4115104675293 11.85583782196045 11.73200035095215 11.53533744812012 C 11.88751029968262 11.37982749938965 12.09420013427734 11.29418754577637 12.31398963928223 11.29418754577637 C 12.53378009796143 11.29418754577637 12.74046039581299 11.37982749938965 12.89597034454346 11.53533744812012 L 14.25741004943848 12.89677715301514 C 14.4128999710083 13.05199718475342 14.49857044219971 13.25855731964111 14.49857044219971 13.47833728790283 C 14.49857044219971 13.69807720184326 14.41291999816895 13.90474700927734 14.25741004943848 14.06025695800781 C 14.10190010070801 14.21576690673828 13.89529991149902 14.30141735076904 13.67566967010498 14.30141735076904 Z M 22.04046058654785 10.83651733398438 C 21.58671951293945 10.83651733398438 21.21756935119629 10.46736717224121 21.21756935119629 10.01361751556396 L 21.21756935119629 8.088187217712402 C 21.21756935119629 7.634447574615479 21.58671951293945 7.265297412872314 22.04046058654785 7.265297412872314 C 22.49420928955078 7.265297412872314 22.86335945129395 7.634447574615479 22.86335945129395 8.088187217712402 L 22.86335945129395 10.01361751556396 C 22.86335945129395 10.46736717224121 22.49420928955078 10.83651733398438 22.04046058654785 10.83651733398438 Z" stroke="none"/>
    <path d="M 22.04046058654785 45.22853851318359 C 23.24888038635254 45.22853851318359 24.42885971069336 44.79842758178711 25.36313056945801 44.01668548583984 C 26.27926063537598 43.25013732910156 26.92221069335938 42.17952728271484 27.17281913757324 41.00248718261719 C 27.17281913757324 41.00199890136719 27.17281913757324 41.00199890136719 27.17281913757324 41.00150680541992 C 27.17822074890137 40.97600555419922 27.1821403503418 40.95001602172852 27.18508911132812 40.92303848266602 C 27.18557929992676 40.91862869262695 27.18557929992676 40.91371917724609 27.18557929992676 40.90930557250977 C 27.18704986572266 40.89017868041992 27.18851089477539 40.87105560302734 27.18851089477539 40.8519287109375 L 27.18851089477539 39.30785751342773 C 28.55612945556641 38.89586639404297 29.8457202911377 38.33489608764648 31.06340980529785 37.62587738037109 L 33.66759872436523 40.23055648803711 C 34.0030632019043 40.56551742553711 34.54743957519531 40.56551742553711 34.88288879394531 40.23055648803711 L 40.23054885864258 34.88289642333984 C 40.39141082763672 34.7215461730957 40.48213958740234 34.5028076171875 40.48213958740234 34.27524566650391 C 40.48213958740234 34.04719924926758 40.39141082763672 33.82846832275391 40.23054885864258 33.66760635375977 L 37.61999130249023 31.05703735351562 C 38.42527008056641 29.66911697387695 39.03781890869141 28.18899726867676 39.44684982299805 26.64070701599121 L 43.14076995849609 26.64070701599121 C 43.61550903320312 26.64070701599121 44 26.25620651245117 44 25.78146743774414 L 44 18.21902656555176 C 44 17.74428749084473 43.61550903320312 17.35929679870605 43.14076995849609 17.35929679870605 L 39.44095993041992 17.35929679870605 C 39.03047180175781 15.8139476776123 38.41743087768555 14.33627700805664 37.61214065551758 12.9508171081543 L 40.23054885864258 10.33288764953613 C 40.39141082763672 10.17153739929199 40.48165893554688 9.952807426452637 40.48165893554688 9.725247383117676 C 40.48165893554688 9.497197151184082 40.39141082763672 9.278467178344727 40.23054885864258 9.117607116699219 L 34.88288879394531 3.769947290420532 C 34.72153854370117 3.608587265014648 34.50281143188477 3.51786732673645 34.27524948120117 3.51786732673645 C 34.04719924926758 3.51786732673645 33.82846832275391 3.608587265014648 33.66711044311523 3.769947290420532 L 31.04919052124023 6.388357162475586 C 29.66420936584473 5.583067417144775 28.18605041503906 4.969537258148193 26.64071083068848 4.559047222137451 L 26.64071083068848 0.8592373728752136 C 26.64071083068848 0.384497344493866 26.25621032714844 -2.650756869115867e-06 25.78146934509277 -2.650756869115867e-06 L 18.21902084350586 -2.650756869115867e-06 C 17.74428939819336 -2.650756869115867e-06 17.35930061340332 0.384497344493866 17.35930061340332 0.8592373728752136 L 17.35930061340332 4.553157329559326 C 15.81101036071777 4.962667465209961 14.33088970184326 5.574727535247803 12.94297027587891 6.380017280578613 L 10.33288955688477 3.769947290420532 C 10.17154026031494 3.608587265014648 9.952810287475586 3.51786732673645 9.725250244140625 3.51786732673645 C 9.497200012207031 3.51786732673645 9.278470039367676 3.608587265014648 9.117609977722168 3.769947290420532 L 3.76993989944458 9.117607116699219 C 3.608589887619019 9.278467178344727 3.517859935760498 9.497197151184082 3.517859935760498 9.725247383117676 C 3.517859935760498 9.952807426452637 3.608589887619019 10.17153739929199 3.76993989944458 10.33288764953613 L 6.374129772186279 12.93707752227783 C 5.564919948577881 14.32598781585693 4.948939800262451 15.80855751037598 4.537469863891602 17.35929679870605 L 0.8592399954795837 17.35929679870605 C 0.3844999969005585 17.35929679870605 -3.552713678800501e-15 17.74428749084473 -3.552713678800501e-15 18.21902656555176 L -3.552713678800501e-15 25.78146743774414 C -3.552713678800501e-15 26.25620651245117 0.3844999969005585 26.64070701599121 0.8592399954795837 26.64070701599121 L 4.531579971313477 26.64070701599121 C 4.942070007324219 28.19439697265625 5.557069778442383 29.67941665649414 6.366290092468262 31.07125663757324 L 3.76993989944458 33.66760635375977 C 3.608589887619019 33.82846832275391 3.517859935760498 34.04719924926758 3.517859935760498 34.27524566650391 C 3.517859935760498 34.5028076171875 3.608589887619019 34.7215461730957 3.76993989944458 34.88289642333984 L 9.117609977722168 40.23055648803711 C 9.278470039367676 40.39140701293945 9.497200012207031 40.48213577270508 9.725250244140625 40.48213577270508 C 9.952810287475586 40.48213577270508 10.17154026031494 40.39140701293945 10.33288955688477 40.23055648803711 L 12.92873954772949 37.63420867919922 C 14.18819046020508 38.36595916748047 15.5239200592041 38.93927764892578 16.89192008972168 39.3382568359375 L 16.89192008972168 40.8519287109375 C 16.89192008972168 40.87154769897461 16.89339065551758 40.89017868041992 16.89485931396484 40.90930557250977 C 16.89534950256348 40.91371917724609 16.89534950256348 40.91862869262695 16.89583969116211 40.92303848266602 C 16.89829063415527 40.95001602172852 16.9027099609375 40.97600555419922 16.90810012817383 41.00199890136719 L 16.90810012817383 41.00248718261719 C 17.15871047973633 42.17952728271484 17.80167007446289 43.25013732910156 18.7177906036377 44.01668548583984 C 19.65156936645508 44.79842758178711 20.83204078674316 45.22853851318359 22.04046058654785 45.22853851318359 M 18.61775016784668 41.57432556152344 L 25.46318054199219 41.57432556152344 C 24.83493995666504 42.89457702636719 23.50979995727539 43.78323745727539 22.04046058654785 43.78323745727539 C 20.57113075256348 43.78323745727539 19.24599075317383 42.89457702636719 18.61775016784668 41.57432556152344 M 18.33770942687988 37.9024772644043 L 25.74321937561035 37.9024772644043 L 25.74321937561035 40.04320907592773 L 18.33770942687988 40.04320907592773 L 18.33770942687988 37.9024772644043 M 31.19330024719238 35.68175888061523 C 31.03445053100586 35.68176651000977 30.87461090087891 35.7256965637207 30.73286056518555 35.81569671630859 C 29.61154937744141 36.52764892578125 28.41733932495117 37.09511566162109 27.18851089477539 37.50543594360352 L 27.18851089477539 33.87946701049805 C 27.21696090698242 33.55725860595703 27.2321605682373 33.2193489074707 27.2321605682373 32.87359619140625 C 27.2321605682373 32.0506477355957 27.8721809387207 31.19730758666992 28.68236923217773 30.11589813232422 C 30.01929092407227 28.33219718933105 31.85055923461914 25.88985824584961 31.85055923461914 21.84330749511719 C 31.85055923461914 16.43385696411133 27.44992065429688 12.03321743011475 22.04046058654785 12.03321743011475 C 17.79920959472656 12.03321743011475 14.05525970458984 14.73696708679199 12.72472953796387 18.76192665100098 C 12.59916973114014 19.14054679870605 12.80515956878662 20.06500816345215 13.18377017974854 20.1905574798584 C 13.56286334991455 20.31561088562012 13.97188949584961 19.59467887878418 14.09694957733154 19.21557807922363 C 15.23180961608887 15.78403759002686 18.42353057861328 13.47851753234863 22.04046058654785 13.47851753234863 C 26.65296936035156 13.47851753234863 30.40526008605957 17.23080825805664 30.40526008605957 21.84330749511719 C 30.40526008605957 25.40824699401855 28.80841064453125 27.5377082824707 27.52544021606445 29.24930763244629 C 26.59214973449707 30.49402809143066 25.78638076782227 31.56953811645508 25.78638076782227 32.87359619140625 C 25.78638076782227 32.95941925048828 25.7849006652832 33.04425811767578 25.78293991088867 33.12861633300781 L 22.76335906982422 33.12861633300781 L 22.76335906982422 31.46850776672363 C 22.76335906982422 31.06929779052734 22.43967056274414 30.7456169128418 22.04046058654785 30.7456169128418 C 21.64125061035156 30.7456169128418 21.31756973266602 31.06929779052734 21.31756973266602 31.46850776672363 L 21.31756973266602 33.12861633300781 L 18.29750061035156 33.12861633300781 C 18.29553031921387 33.04425811767578 18.2945499420166 32.95941925048828 18.2945499420166 32.87359619140625 C 18.2945499420166 31.56904792785645 17.48827934265137 30.49402809143066 16.55499076843262 29.24930763244629 C 15.60993003845215 27.98840713500977 14.53931999206543 26.55978775024414 14.00817966461182 24.52939796447754 C 13.907151222229 24.1434383392334 13.51186847686768 23.91194343566895 13.12590026855469 24.01297760009766 C 12.73993015289307 24.1140079498291 12.50893974304199 24.50929641723633 12.60995960235596 24.89526748657227 C 13.21269989013672 27.19979667663574 14.42455959320068 28.81674766540527 15.3985595703125 30.11589813232422 C 16.20874977111816 31.19730758666992 16.8487606048584 32.0506477355957 16.8487606048584 32.87359619140625 C 16.8487606048584 33.2193489074707 16.86347007751465 33.55725860595703 16.89192008972168 33.87946701049805 L 16.89192008972168 37.53874588012695 C 15.60216045379639 37.11373901367188 14.39305019378662 36.54198837280273 13.25831031799316 35.82353591918945 C 12.9184398651123 35.60823440551758 12.47509956359863 35.65727615356445 12.19064998626709 35.94173812866211 L 9.725250244140625 38.40712738037109 L 5.592879772186279 34.27524566650391 L 8.058759689331055 31.80935668945312 C 8.343210220336914 31.5249080657959 8.39225959777832 31.08156776428223 8.176959991455078 30.7421875 C 7.17156982421875 29.1546573638916 6.454070091247559 27.42294692993164 6.045050144195557 25.59363746643066 C 5.95727014541626 25.20079803466797 5.608570098876953 24.9217472076416 5.206419944763184 24.9217472076416 L 1.718960046768188 24.9217472076416 L 1.718960046768188 19.07825660705566 L 5.211319923400879 19.07825660705566 C 5.612979888916016 19.07825660705566 5.961190223693848 18.79969787597656 6.049469947814941 18.40734672546387 C 6.460939884185791 16.58147811889648 7.178929805755615 14.85172748565674 8.184800148010254 13.26714706420898 C 8.400589942932129 12.92776775360107 8.351550102233887 12.48342704772949 8.067099571228027 12.19898700714111 L 5.592879772186279 9.725247383117676 L 9.725250244140625 5.592877388000488 L 12.20438003540039 8.072007179260254 C 12.48833847045898 8.355966567993164 12.93119812011719 8.405496597290039 13.2710599899292 8.19068717956543 C 14.85466957092285 7.18922758102417 16.58245086669922 6.474677562713623 18.40637016296387 6.066637516021729 C 18.79920959472656 5.978847503662109 19.07826042175293 5.630637168884277 19.07826042175293 5.227997303009033 L 19.07826042175293 1.718957304954529 L 24.92174911499023 1.718957304954529 L 24.92174911499023 5.232897281646729 C 24.92174911499023 5.63505744934082 25.2007999420166 5.983257293701172 25.59264945983887 6.071537494659424 C 27.41362953186035 6.4810471534729 29.13895988464355 7.19707727432251 30.7201099395752 8.19853687286377 C 31.05997657775879 8.413838386535645 31.50332832336426 8.364797592163086 31.78778076171875 8.080347061157227 L 34.27524948120117 5.592877388000488 L 38.40713119506836 9.725247383117676 L 35.91965866088867 12.21271705627441 C 35.63521957397461 12.49667739868164 35.5861701965332 12.94051742553711 35.80147171020508 13.27988719940186 C 36.80342102050781 14.86153697967529 37.51895904541016 16.58686828613281 37.92895889282227 18.40734672546387 C 38.01723861694336 18.79969787597656 38.36544036865234 19.07825660705566 38.76710891723633 19.07825660705566 L 42.28153991699219 19.07825660705566 L 42.28153991699219 24.9217472076416 L 38.77201080322266 24.9217472076416 C 38.36936187744141 24.9217472076416 38.02116012573242 25.2012882232666 37.93336868286133 25.59363746643066 C 37.52534103393555 27.41754722595215 36.8107795715332 29.14533805847168 35.80931854248047 30.72893714904785 C 35.59450912475586 31.06880760192871 35.64403915405273 31.51215744018555 35.92848968505859 31.79611778259277 L 38.40761947631836 34.27524566650391 L 34.27524948120117 38.40712738037109 L 31.80150985717773 35.93339920043945 C 31.63541030883789 35.767578125 31.41531944274902 35.68175888061523 31.19330024719238 35.68175888061523 M 18.33770942687988 34.57391738891602 L 25.74321937561035 34.57391738891602 L 25.74321937561035 36.45717620849609 L 18.33770942687988 36.45717620849609 L 18.33770942687988 34.57391738891602 M 32.26546096801758 32.79120635986328 C 32.45035171508789 32.79120635986328 32.63525009155273 32.72057723999023 32.7764892578125 32.57933807373047 C 33.05897903442383 32.29733657836914 33.05897903442383 31.83976745605469 32.7764892578125 31.55727767944336 L 31.4150505065918 30.19584655761719 C 31.132568359375 29.91335678100586 30.67498970031738 29.91335678100586 30.39299964904785 30.19584655761719 C 30.11050987243652 30.47783660888672 30.11050987243652 30.93541717529297 30.39299964904785 31.21789741516113 L 31.75443077087402 32.57933807373047 C 31.89566993713379 32.72057723999023 32.08057022094727 32.79120635986328 32.26546096801758 32.79120635986328 M 11.81546974182129 32.79120635986328 C 12.00035953521729 32.79120635986328 12.1852502822876 32.72057723999023 12.32649040222168 32.57933807373047 L 13.6879301071167 31.21789741516113 C 13.97041988372803 30.93541717529297 13.97041988372803 30.47783660888672 13.6879301071167 30.19584655761719 C 13.405930519104 29.91335678100586 12.94835948944092 29.91335678100586 12.66635990142822 30.19584655761719 L 11.30443954467773 31.55727767944336 C 11.02243995666504 31.83976745605469 11.02243995666504 32.29733657836914 11.30443954467773 32.57933807373047 C 11.44567966461182 32.72057723999023 11.63057041168213 32.79120635986328 11.81546974182129 32.79120635986328 M 22.04046058654785 29.30031776428223 C 22.43869018554688 29.30031776428223 22.76335906982422 28.97564697265625 22.76335906982422 28.57741737365723 C 22.76335906982422 28.1791877746582 22.43869018554688 27.85452651977539 22.04046058654785 27.85452651977539 C 21.6422290802002 27.85452651977539 21.31756973266602 28.1791877746582 21.31756973266602 28.57741737365723 C 21.31756973266602 28.97564697265625 21.6422290802002 29.30031776428223 22.04046058654785 29.30031776428223 M 22.04046058654785 26.40921783447266 C 22.43967056274414 26.40921783447266 22.76335906982422 26.08553695678711 22.76335906982422 25.68632698059082 L 22.76335906982422 24.02621650695801 L 24.62700080871582 24.02621650695801 C 25.02621078491211 24.02621650695801 25.34939956665039 23.70253753662109 25.34939956665039 23.30331802368164 C 25.34939956665039 22.90410804748535 25.02621078491211 22.58091735839844 24.62700080871582 22.58091735839844 L 19.45442008972168 22.58091735839844 C 19.05521011352539 22.58091735839844 18.73152923583984 22.90410804748535 18.73152923583984 23.30331802368164 C 18.73152923583984 23.70253753662109 19.05521011352539 24.02621650695801 19.45442008972168 24.02621650695801 L 21.31756973266602 24.02621650695801 L 21.31756973266602 25.68632698059082 C 21.31756973266602 26.08553695678711 21.64125061035156 26.40921783447266 22.04046058654785 26.40921783447266 M 35.79607009887695 22.56620788574219 C 36.19528961181641 22.56620788574219 36.51847839355469 22.24251747131348 36.51847839355469 21.84330749511719 C 36.51847839355469 21.4440975189209 36.19528961181641 21.12041664123535 35.79607009887695 21.12041664123535 L 33.87015151977539 21.12041664123535 C 33.47093963623047 21.12041664123535 33.14725875854492 21.4440975189209 33.14725875854492 21.84330749511719 C 33.14725875854492 22.24251747131348 33.47093963623047 22.56620788574219 33.87015151977539 22.56620788574219 L 35.79607009887695 22.56620788574219 M 12.95277976989746 22.56620788574219 C 13.35099983215332 22.56620788574219 13.67566967010498 22.24153709411621 13.67566967010498 21.84330749511719 C 13.67566967010498 21.44507789611816 13.35099983215332 21.12041664123535 12.95277976989746 21.12041664123535 C 12.55455017089844 21.12041664123535 12.23036956787109 21.44507789611816 12.23036956787109 21.84330749511719 C 12.23036956787109 22.24153709411621 12.55455017089844 22.56620788574219 12.95277976989746 22.56620788574219 M 10.21078014373779 22.56620788574219 C 10.60999011993408 22.56620788574219 10.93367004394531 22.24251747131348 10.93367004394531 21.84330749511719 C 10.93367004394531 21.4440975189209 10.60999011993408 21.12041664123535 10.21078014373779 21.12041664123535 L 8.285340309143066 21.12041664123535 C 7.886129856109619 21.12041664123535 7.562449932098389 21.4440975189209 7.562449932098389 21.84330749511719 C 7.562449932098389 22.24251747131348 7.886129856109619 22.56620788574219 8.285340309143066 22.56620788574219 L 10.21078014373779 22.56620788574219 M 30.40526008605957 14.20141696929932 C 30.59015083312988 14.20141696929932 30.77503967285156 14.13078689575195 30.91628074645996 13.98954772949219 L 32.2777214050293 12.62810707092285 C 32.56021118164062 12.345627784729 32.56021118164062 11.88804721832275 32.2777214050293 11.60555744171143 C 31.99571990966797 11.32356929779053 31.53815460205078 11.32356739044189 31.25616073608398 11.60555744171143 L 29.89422988891602 12.96748733520508 C 29.61223030090332 13.24948692321777 29.61223030090332 13.70705699920654 29.89422988891602 13.98954772949219 C 30.03498077392578 14.13078689575195 30.22035980224609 14.20141696929932 30.40526008605957 14.20141696929932 M 13.67566967010498 14.20141696929932 C 13.86056041717529 14.20141696929932 14.04545974731445 14.13078689575195 14.18669986724854 13.98954772949219 C 14.46918964385986 13.70705699920654 14.46918964385986 13.24948692321777 14.18669986724854 12.96748733520508 L 12.82526016235352 11.60604763031006 C 12.54277992248535 11.32356739044189 12.08520126342773 11.32356739044189 11.80270957946777 11.60604763031006 C 11.52071952819824 11.88804721832275 11.52071952819824 12.345627784729 11.80270957946777 12.62810707092285 L 13.16464042663574 13.98954772949219 C 13.30589008331299 14.13078689575195 13.49077987670898 14.20141696929932 13.67566967010498 14.20141696929932 M 22.04046058654785 10.73651695251465 C 22.43967056274414 10.73651695251465 22.76335906982422 10.41283702850342 22.76335906982422 10.01361751556396 L 22.76335906982422 8.088187217712402 C 22.76335906982422 7.688977241516113 22.43967056274414 7.365297317504883 22.04046058654785 7.365297317504883 C 21.64125061035156 7.365297317504883 21.31756973266602 7.688977241516113 21.31756973266602 8.088187217712402 L 21.31756973266602 10.01361751556396 C 21.31756973266602 10.41283702850342 21.64125061035156 10.73651695251465 22.04046058654785 10.73651695251465 M 22.04046058654785 45.42853546142578 C 20.78441047668457 45.42853546142578 19.55879974365234 44.98159790039062 18.58941078186035 44.17003631591797 C 17.63891983032227 43.37473678588867 16.97233963012695 42.26459884643555 16.71248054504395 41.04413604736328 L 16.70809936523438 41.02157592773438 C 16.70268058776855 40.99282455444336 16.69899368286133 40.96683883666992 16.69665908813477 40.94112777709961 C 16.69641304016113 40.93930053710938 16.69600677490234 40.93358612060547 16.69568252563477 40.92766571044922 L 16.69544982910156 40.92462921142578 C 16.69351959228516 40.89950561523438 16.69191932678223 40.87630844116211 16.69191932678223 40.8519287109375 L 16.69191932678223 39.48759078979492 C 15.40290927886963 39.09964752197266 14.14943885803223 38.56075286865234 12.96182250976562 37.88398742675781 L 10.47432041168213 40.37196731567383 C 10.27651023864746 40.56916809082031 10.00356960296631 40.68213653564453 9.725250244140625 40.68213653564453 C 9.446330070495605 40.68213653564453 9.173310279846191 40.56908798217773 8.976189613342285 40.37198638916016 L 3.628520011901855 35.02431869506836 C 3.431090116500854 34.82688903808594 3.317859888076782 34.55386734008789 3.317859888076782 34.27524566650391 C 3.317859888076782 33.99603652954102 3.431169986724854 33.72293853759766 3.628730058670044 33.52596664428711 L 6.116489410400391 31.03821754455566 C 5.362848281860352 29.71628379821777 4.778706550598145 28.30572319030762 4.378234386444092 26.84070777893066 L 0.8592399954795837 26.84070777893066 C 0.2751699984073639 26.84070777893066 -0.2000000029802322 26.36553764343262 -0.2000000029802322 25.78146743774414 L -0.2000000029802322 18.21902656555176 C -0.2000000029802322 17.63468742370605 0.2751699984073639 17.15929794311523 0.8592399954795837 17.15929794311523 L 4.384300231933594 17.15929794311523 C 4.785555362701416 15.69759273529053 5.370291233062744 14.2896842956543 6.124228954315186 12.97001647949219 L 3.628520011901855 10.4743070602417 C 3.431090116500854 10.27687740325928 3.317859888076782 10.00385761260986 3.317859888076782 9.725247383117676 C 3.317859888076782 9.446037292480469 3.431169986724854 9.172937393188477 3.628730058670044 8.975967407226562 L 8.976189613342285 3.628527402877808 C 9.172920227050781 3.431177377700806 9.446029663085938 3.317867279052734 9.725250244140625 3.317867279052734 C 10.00387001037598 3.317867279052734 10.27690029144287 3.431097269058228 10.47432041168213 3.628527402877808 L 12.97611045837402 6.130318164825439 C 14.29318141937256 5.38100528717041 15.69912433624268 4.799405574798584 17.15929985046387 4.399858951568604 L 17.15929985046387 0.8592373728752136 C 17.15929985046387 0.2751673460006714 17.63468933105469 -0.2000026553869247 18.21902084350586 -0.2000026553869247 L 25.78146934509277 -0.2000026553869247 C 26.36553955078125 -0.2000026553869247 26.8407096862793 0.2751673460006714 26.8407096862793 0.8592373728752136 L 26.8407096862793 4.405913829803467 C 28.29741287231445 4.806193828582764 29.70051002502441 5.388411045074463 31.01614189147949 6.138545036315918 L 33.52568054199219 3.62853741645813 C 33.72602081298828 3.428197383880615 33.99222183227539 3.317867279052734 34.27524948120117 3.317867279052734 C 34.55387115478516 3.317867279052734 34.82690048217773 3.431097269058228 35.02431869506836 3.628527402877808 L 40.37197113037109 8.976187705993652 C 40.56877899169922 9.17299747467041 40.68165969848633 9.446017265319824 40.68165969848633 9.725247383117676 C 40.68165969848633 10.00387763977051 40.5688591003418 10.27681732177734 40.37218856811523 10.47409725189209 L 37.86193084716797 12.98388671875 C 38.61173248291016 14.29938697814941 39.19379806518555 15.70248126983643 39.59409332275391 17.15929794311523 L 43.14076995849609 17.15929794311523 C 43.72483062744141 17.15929794311523 44.20000076293945 17.63468742370605 44.20000076293945 18.21902656555176 L 44.20000076293945 25.78146743774414 C 44.20000076293945 26.36553764343262 43.72483062744141 26.84070777893066 43.14076995849609 26.84070777893066 L 39.60019302368164 26.84070777893066 C 39.20139312744141 28.29964637756348 38.6198616027832 29.70537376403809 37.86968994140625 31.02389717102051 L 40.37197113037109 33.52618789672852 C 40.569091796875 33.72330856323242 40.6821403503418 33.9963264465332 40.6821403503418 34.27524566650391 C 40.6821403503418 34.5535774230957 40.56917190551758 34.8265266418457 40.37218856811523 35.02410888671875 L 35.02431106567383 40.37197875976562 C 34.82421112060547 40.5717887878418 34.55823135375977 40.68177795410156 34.27524948120117 40.68177795410156 C 33.99227905273438 40.68177795410156 33.72629165649414 40.57179641723633 33.52627944946289 40.37208557128906 L 31.03042602539062 37.87575531005859 C 29.88266944885254 38.53093719482422 28.65890121459961 39.06187438964844 27.38850975036621 39.45585632324219 L 27.38850975036621 40.8519287109375 C 27.38850975036621 40.87393951416016 27.38714027404785 40.89594268798828 27.38549613952637 40.91794967651367 C 27.38531875610352 40.927001953125 27.38483619689941 40.93643188476562 27.38386917114258 40.94512557983398 C 27.38094329833984 40.97185897827148 27.37730026245117 40.99695587158203 27.3728199005127 41.02109146118164 L 27.3728199005127 41.02256774902344 L 27.36844062805176 41.04413604736328 C 27.10857963562012 42.26460647583008 26.44198989868164 43.37474822998047 25.49147033691406 44.17007827758789 C 24.5216007232666 44.98160552978516 23.2960090637207 45.42853546142578 22.04046058654785 45.42853546142578 Z M 18.94992637634277 41.77432632446289 C 19.60052490234375 42.8828125 20.78156089782715 43.58323669433594 22.04046058654785 43.58323669433594 C 23.29935836791992 43.58323669433594 24.48040390014648 42.8828125 25.13100433349609 41.77432632446289 L 18.94992637634277 41.77432632446289 Z M 18.53771018981934 39.84320831298828 L 25.54322052001953 39.84320831298828 L 25.54322052001953 38.10247802734375 L 18.53771018981934 38.10247802734375 L 18.53771018981934 39.84320831298828 Z M 5.875728130340576 34.27523803710938 L 9.725241661071777 38.12429428100586 L 12.04922962188721 35.80031585693359 C 12.24934005737305 35.6002082824707 12.51543045043945 35.48999786376953 12.79848003387451 35.48999786376953 C 12.99936008453369 35.48999786376953 13.19536972045898 35.54690551757812 13.36534023284912 35.65458679199219 C 14.40552806854248 36.31316757202148 15.52335834503174 36.85247802734375 16.69191932678223 37.2597770690918 L 16.69191932678223 33.88817977905273 C 16.66327667236328 33.56071853637695 16.64875984191895 33.21940612792969 16.64875984191895 32.87359619140625 C 16.64875984191895 32.1181755065918 16.02761077880859 31.28908729553223 15.24120998382568 30.23943710327148 C 14.2542896270752 28.92304801940918 13.02935028076172 27.28918647766113 12.41646957397461 24.94587707519531 C 12.28763008117676 24.4536075592041 12.58316040039062 23.94830703735352 13.07526016235352 23.81949806213379 C 13.15182018280029 23.79944801330566 13.23050022125244 23.78928756713867 13.30910015106201 23.78928756713867 C 13.72836971282959 23.78928756713867 14.09541034698486 24.07280731201172 14.20166015625 24.47875785827637 C 14.7229700088501 26.47154808044434 15.78129005432129 27.88356781005859 16.71503067016602 29.12935829162598 C 17.67017936706543 30.40323829650879 18.49455070495605 31.50268745422363 18.49455070495605 32.87359619140625 C 18.49455070495605 32.8919792175293 18.49459648132324 32.91032028198242 18.49468803405762 32.92861557006836 L 21.1175708770752 32.92861557006836 L 21.1175708770752 31.46850776672363 C 21.1175708770752 30.95962715148926 21.53157997131348 30.54561805725098 22.04046058654785 30.54561805725098 C 22.54935073852539 30.54561805725098 22.96335983276367 30.95962715148926 22.96335983276367 31.46850776672363 L 22.96335983276367 32.92861557006836 L 25.586181640625 32.92861557006836 C 25.58631134033203 32.91032028198242 25.58638000488281 32.89198303222656 25.58638000488281 32.87359619140625 C 25.58638000488281 31.50202751159668 26.41081047058105 30.40248680114746 27.36541938781738 29.12932777404785 C 28.63117027282715 27.44070816040039 30.20525932312012 25.34072685241699 30.20525932312012 21.84330749511719 C 30.20525932312012 17.34122657775879 26.54254913330078 13.67851734161377 22.04046058654785 13.67851734161377 C 18.51049041748047 13.67851734161377 15.39455032348633 15.92892742156982 14.28684043884277 19.27837753295898 C 14.19046974182129 19.57050704956055 13.79728031158447 20.40485763549805 13.27313995361328 20.40494728088379 C 13.22142028808594 20.40494728088379 13.17026996612549 20.3967170715332 13.12108039855957 20.38047790527344 C 12.79942989349365 20.27381706237793 12.63947010040283 19.86170768737793 12.57271957397461 19.62553787231445 C 12.4959602355957 19.35392761230469 12.44571971893311 18.96789741516113 12.53489971160889 18.69897651672363 C 13.89239978790283 14.59242725372314 17.71240997314453 11.83321762084961 22.04046058654785 11.83321762084961 C 27.56004905700684 11.83321762084961 32.05055999755859 16.32372665405273 32.05055999755859 21.84330749511719 C 32.05055999755859 25.9555778503418 30.19684028625488 28.42877769470215 28.84330940246582 30.23463821411133 L 28.67962074279785 30.11956787109375 L 28.83967971801758 30.23948669433594 C 28.05330085754395 31.28912734985352 27.43215942382812 32.11818695068359 27.43215942382812 32.87359619140625 C 27.43215942382812 33.21580123901367 27.4174747467041 33.55709075927734 27.38850975036621 33.88817977905273 L 27.38850975036621 37.22518157958984 C 28.51516342163086 36.82648849487305 29.60287284851074 36.29624938964844 30.62565994262695 35.64685821533203 C 30.79574966430664 35.53885650634766 30.99202919006348 35.48176574707031 31.19329071044922 35.48175811767578 L 31.19330024719238 35.48175811767578 C 31.47632026672363 35.48175811767578 31.74250030517578 35.59188842773438 31.94281005859375 35.7918586730957 L 34.2752571105957 38.12429428100586 L 38.12477111816406 34.27523803710938 L 35.78707122802734 31.93753814697266 C 35.4339714050293 31.58504676818848 35.37355041503906 31.0440673828125 35.6402587890625 30.6220874786377 C 36.62931060791016 29.05810737609863 37.33515167236328 27.35161781311035 37.73818969726562 25.54997825622559 C 37.84730911254883 25.06232643127441 38.27243041992188 24.72174644470215 38.77201080322266 24.72174644470215 L 42.08153915405273 24.72174644470215 L 42.08153915405273 19.27825736999512 L 38.76710891723633 19.27825736999512 C 38.2682991027832 19.27825736999512 37.84339904785156 18.93817710876465 37.73384094238281 18.45124816894531 C 37.32868957519531 16.65231704711914 36.62170028686523 14.94841766357422 35.63251876831055 13.38691711425781 C 35.36494064331055 12.96514701843262 35.42488861083984 12.42404747009277 35.77835845947266 12.07117748260498 L 38.12429809570312 9.725238800048828 L 34.27524185180664 5.875725746154785 L 31.92919921875 8.221767425537109 C 31.72909927368164 8.421876907348633 31.46301078796387 8.532077789306641 31.17995071411133 8.532077789306641 C 30.97907066345215 8.532077789306641 30.78305053710938 8.475167274475098 30.61307907104492 8.367486953735352 C 29.05051040649414 7.37779712677002 27.34662055969238 6.670977115631104 25.54877090454102 6.266667366027832 C 25.06180000305176 6.156957149505615 24.72175025939941 5.731857299804688 24.72175025939941 5.232897281646729 L 24.72175025939941 1.918957352638245 L 19.27825927734375 1.918957352638245 L 19.27825927734375 5.227997303009033 C 19.27825927734375 5.727717399597168 18.93766021728516 6.15283727645874 18.44998931884766 6.26182746887207 C 16.64838027954102 6.664877414703369 14.94188022613525 7.370707511901855 13.37796020507812 8.359726905822754 C 13.20825004577637 8.466987609863281 13.01263046264648 8.523677825927734 12.81217956542969 8.523687362670898 C 12.52912044525146 8.523696899414062 12.26303958892822 8.413516998291016 12.06295967102051 8.213427543640137 L 9.725250244140625 5.875717163085938 L 5.875738620758057 9.725228309631348 L 8.208510398864746 12.0575475692749 C 8.556500434875488 12.40552711486816 8.617500305175781 12.9593677520752 8.353569984436035 13.37445735931396 C 7.3609299659729 14.93819713592529 6.651340007781982 16.64633750915527 6.244579792022705 18.45131683349609 C 6.135029792785645 18.93817710876465 5.710130214691162 19.27825736999512 5.211319923400879 19.27825736999512 L 1.918959975242615 19.27825736999512 L 1.918959975242615 24.72174644470215 L 5.206419944763184 24.72174644470215 C 5.706140041351318 24.72174644470215 6.131269931793213 25.06234741210938 6.240240097045898 25.55002784729004 C 6.643909931182861 27.35543823242188 7.352369785308838 29.06633758544922 8.345930099487305 30.63517761230469 C 8.613249778747559 31.05656814575195 8.553350448608398 31.59760665893555 8.200180053710938 31.95077705383301 L 5.875728130340576 34.27523803710938 Z M 18.53771018981934 36.25717544555664 L 25.54322052001953 36.25717544555664 L 25.54322052001953 34.77391815185547 L 18.53771018981934 34.77391815185547 L 18.53771018981934 36.25717544555664 Z M 32.26546096801758 32.99120712280273 C 32.01911926269531 32.99120712280273 31.78741073608398 32.89515686035156 31.61301040649414 32.72075653076172 L 30.25157928466797 31.35931777954102 C 30.07718086242676 31.18492698669434 29.98113059997559 30.95314788818359 29.98113059997559 30.70668792724609 C 29.98113059997559 30.46015739440918 30.07722091674805 30.22847747802734 30.25169944763184 30.05429649353027 C 30.42564010620117 29.88006782531738 30.65732955932617 29.78397750854492 30.90383911132812 29.78397750854492 C 31.15028953552246 29.78397750854492 31.38207054138184 29.88002777099609 31.55647087097168 30.05442810058594 L 32.91791152954102 31.41585731506348 C 33.09231185913086 31.59025764465332 33.18835830688477 31.82203674316406 33.18835830688477 32.06848907470703 C 33.18835830688477 32.31501770019531 33.09226989746094 32.54670715332031 32.91778945922852 32.72087860107422 C 32.74351119995117 32.89515686035156 32.51179885864258 32.99120712280273 32.26546096801758 32.99120712280273 Z M 11.81546974182129 32.99120712280273 C 11.56912994384766 32.99120712280273 11.33742046356201 32.89515686035156 11.16302013397217 32.72075653076172 C 10.80356979370117 32.36130905151367 10.80350971221924 31.77598762512207 11.1628999710083 31.41597747802734 L 12.52495956420898 30.05439758300781 C 12.69900035858154 29.88006782531738 12.9306697845459 29.78397750854492 13.17714977264404 29.78397750854492 C 13.42362022399902 29.78397750854492 13.65528964996338 29.88006782531738 13.82946968078613 30.0545482635498 C 14.00370979309082 30.22847747802734 14.09980010986328 30.46015739440918 14.09980010986328 30.70668792724609 C 14.09980010986328 30.95314788818359 14.00374984741211 31.18492698669434 13.82935047149658 31.35931777954102 L 12.46790981292725 32.72075653076172 C 12.29351043701172 32.89515686035156 12.06180000305176 32.99120712280273 11.81546974182129 32.99120712280273 Z M 22.04046058654785 29.50031661987305 C 21.53157997131348 29.50031661987305 21.1175708770752 29.08630752563477 21.1175708770752 28.57741737365723 C 21.1175708770752 28.06853675842285 21.53157997131348 27.65452766418457 22.04046058654785 27.65452766418457 C 22.54935073852539 27.65452766418457 22.96335983276367 28.06853675842285 22.96335983276367 28.57741737365723 C 22.96335983276367 29.08630752563477 22.54935073852539 29.50031661987305 22.04046058654785 29.50031661987305 Z M 22.04046058654785 26.60921669006348 C 21.53157997131348 26.60921669006348 21.1175708770752 26.1952075958252 21.1175708770752 25.68632698059082 L 21.1175708770752 24.22621726989746 L 19.45442008972168 24.22621726989746 C 18.9455394744873 24.22621726989746 18.53153038024902 23.81220817565918 18.53153038024902 23.30331802368164 C 18.53153038024902 22.79470825195312 18.9455394744873 22.38091659545898 19.45442008972168 22.38091659545898 L 24.62700080871582 22.38091659545898 C 25.13561058044434 22.38091659545898 25.54940032958984 22.79470825195312 25.54940032958984 23.30331802368164 C 25.54940032958984 23.81220817565918 25.13561058044434 24.22621726989746 24.62700080871582 24.22621726989746 L 22.96335983276367 24.22621726989746 L 22.96335983276367 25.68632698059082 C 22.96335983276367 26.1952075958252 22.54935073852539 26.60921669006348 22.04046058654785 26.60921669006348 Z M 35.79607009887695 22.76620674133301 L 33.87015151977539 22.76620674133301 C 33.36127090454102 22.76620674133301 32.94726181030273 22.35219764709473 32.94726181030273 21.84330749511719 C 32.94726181030273 21.33442687988281 33.36127090454102 20.92041778564453 33.87015151977539 20.92041778564453 L 35.79607009887695 20.92041778564453 C 36.30469131469727 20.92041778564453 36.71847915649414 21.33442687988281 36.71847915649414 21.84330749511719 C 36.71847915649414 22.35219764709473 36.30469131469727 22.76620674133301 35.79607009887695 22.76620674133301 Z M 12.95277976989746 22.76620674133301 C 12.44416046142578 22.76620674133301 12.03036975860596 22.35219764709473 12.03036975860596 21.84330749511719 C 12.03036975860596 21.33442687988281 12.44416046142578 20.92041778564453 12.95277976989746 20.92041778564453 C 13.46166038513184 20.92041778564453 13.87567043304443 21.33442687988281 13.87567043304443 21.84330749511719 C 13.87567043304443 22.35219764709473 13.46166038513184 22.76620674133301 12.95277976989746 22.76620674133301 Z M 10.21078014373779 22.76620674133301 L 8.285340309143066 22.76620674133301 C 7.77646017074585 22.76620674133301 7.362450122833252 22.35219764709473 7.362450122833252 21.84330749511719 C 7.362450122833252 21.33442687988281 7.77646017074585 20.92041778564453 8.285340309143066 20.92041778564453 L 10.21078014373779 20.92041778564453 C 10.71965980529785 20.92041778564453 11.13366985321045 21.33442687988281 11.13366985321045 21.84330749511719 C 11.13366985321045 22.35219764709473 10.71965980529785 22.76620674133301 10.21078014373779 22.76620674133301 Z M 30.40526008605957 14.40141773223877 C 30.1583194732666 14.40141773223877 29.9265193939209 14.30528736114502 29.75255966186523 14.13072776794434 C 29.3932991027832 13.77083778381348 29.39336013793945 13.18551731109619 29.75280952453613 12.8260669708252 L 31.1147403717041 11.46413707733154 C 31.28890991210938 11.28997707366943 31.52053070068359 11.19406700134277 31.76693916320801 11.19406700134277 C 32.01335144042969 11.19406700134277 32.24496841430664 11.28997707366943 32.41913986206055 11.46412754058838 C 32.59354019165039 11.63853740692139 32.68959045410156 11.87033748626709 32.68959045410156 12.11683750152588 C 32.68959045410156 12.36333751678467 32.59354019165039 12.59513759613037 32.41913986206055 12.76952743530273 L 31.05769920349121 14.13096714019775 C 30.88330078125 14.3053674697876 30.65159034729004 14.40141773223877 30.40526008605957 14.40141773223877 Z M 13.67566967010498 14.40141773223877 C 13.42934036254883 14.40141773223877 13.19762992858887 14.3053674697876 13.02322006225586 14.13097763061523 L 11.66131019592285 12.76955699920654 C 11.30179023742676 12.40940761566162 11.30183982849121 11.82408714294434 11.66129016876221 11.46462726593018 C 11.83570003509521 11.29022693634033 12.06750011444092 11.19418716430664 12.31398963928223 11.19418716430664 C 12.56048965454102 11.19418716430664 12.79228973388672 11.29022693634033 12.96667957305908 11.46462726593018 L 14.32812023162842 12.8260669708252 C 14.50247955322266 13.00011730194092 14.59856986999512 13.23180770874023 14.59856986999512 13.47833728790283 C 14.59856986999512 13.72478771209717 14.50251960754395 13.95656776428223 14.32812023162842 14.13096714019775 C 14.15371990203857 14.3053674697876 13.92201042175293 14.40141773223877 13.67566967010498 14.40141773223877 Z M 22.04046058654785 10.9365177154541 C 21.53157997131348 10.9365177154541 21.1175708770752 10.5225076675415 21.1175708770752 10.01361751556396 L 21.1175708770752 8.088187217712402 C 21.1175708770752 7.579307556152344 21.53157997131348 7.165297508239746 22.04046058654785 7.165297508239746 C 22.54935073852539 7.165297508239746 22.96335983276367 7.579307556152344 22.96335983276367 8.088187217712402 L 22.96335983276367 10.01361751556396 C 22.96335983276367 10.5225076675415 22.54935073852539 10.9365177154541 22.04046058654785 10.9365177154541 Z" stroke="none" fill="#fff"/>
  </g>
</svg>
