<svg id="Secure" xmlns="http://www.w3.org/2000/svg" width="37.279" height="41.506" viewBox="0 0 37.279 41.506">
  <path id="Path_19731" data-name="Path 19731" d="M102.417,75.341q2.2-1.4,4.409-2.8c.665-.421,1.338-.838,1.985-1.29a26.235,26.235,0,0,0,9.948-13.132,27.243,27.243,0,0,0,1.42-8.931V43.409a1.781,1.781,0,0,0-1.277-1.677,16.19,16.19,0,0,1-1.564-.539c.139.056.278.117.417.174a11.707,11.707,0,0,1-2.541-1.481l.352.274A11.621,11.621,0,0,1,113.5,38.1l.274.352a11.754,11.754,0,0,1-1.486-2.546c.056.139.117.278.174.417-.13-.313-.252-.634-.356-.956a1.785,1.785,0,0,0-1.677-1.277H94.837c-.717,0-1.438-.022-2.155,0h-.03a1.781,1.781,0,0,0-1.677,1.277c-.1.326-.222.643-.356.956.056-.139.117-.278.174-.417a11.858,11.858,0,0,1-1.486,2.546l.274-.352a11.621,11.621,0,0,1-2.068,2.063l.352-.274a11.81,11.81,0,0,1-2.541,1.481c.139-.056.278-.117.417-.174-.513.213-1.034.378-1.564.539A1.781,1.781,0,0,0,82.9,43.409v5.239c0,.921,0,1.842.065,2.763a26.963,26.963,0,0,0,.982,5.543,26.683,26.683,0,0,0,5.247,9.722,28.068,28.068,0,0,0,6.542,5.543l4.809,3.049.122.078a1.75,1.75,0,0,0,2.376-.626,1.775,1.775,0,0,0-.626-2.376q-1.173-.743-2.341-1.486l-2.993-1.9q-1.049-.665-2.042-1.42l.352.274A24.722,24.722,0,0,1,91,63.422l.274.352a24.978,24.978,0,0,1-3.2-5.478c.056.139.117.278.174.417a24.658,24.658,0,0,1-1.716-6.286c.022.152.043.308.061.46a32,32,0,0,1-.217-4.227V43.427c-.426.56-.851,1.116-1.277,1.677a14.1,14.1,0,0,0,4.222-1.968,13.134,13.134,0,0,0,5.009-6.829c-.56.426-1.116.851-1.677,1.277h15.59c.717,0,1.438.017,2.155,0h.03c-.56-.426-1.116-.851-1.677-1.277a13.213,13.213,0,0,0,6.816,7.889,17.552,17.552,0,0,0,2.415.908c-.426-.56-.851-1.116-1.277-1.677v6.16a25.433,25.433,0,0,1-.217,3.3c.022-.152.043-.308.061-.46a25.068,25.068,0,0,1-1.716,6.286c.056-.139.117-.278.174-.417a24.979,24.979,0,0,1-3.2,5.478l.274-.352a24.722,24.722,0,0,1-4.392,4.392l.352-.274c-.973.751-2.007,1.4-3.041,2.059q-1.72,1.095-3.44,2.185l-.89.565a1.822,1.822,0,0,0-.8,1.038,1.8,1.8,0,0,0,.174,1.338A1.763,1.763,0,0,0,102.417,75.341Z" transform="translate(-82.9 -34.078)" fill="#ffd658"/>
  <path id="Path_19732" data-name="Path 19732" d="M297.256,333.471l4.461,4.461.634.634a1.765,1.765,0,0,0,2.459,0l3.445-3.445,5.452-5.452,1.255-1.255a1.739,1.739,0,1,0-2.459-2.459l-3.445,3.445-5.452,5.452-1.255,1.255h2.459l-4.461-4.461-.634-.634a1.739,1.739,0,0,0-2.459,2.459Z" transform="translate(-287.469 -312.801)" fill="#ffd658"/>
</svg>
