<svg id="Group_9089" data-name="Group 9089" xmlns="http://www.w3.org/2000/svg" width="42.566" height="35.916" viewBox="0 0 42.566 35.916">
  <path id="Path_16822" data-name="Path 16822" d="M109.906,61.25H72.66A2.663,2.663,0,0,0,70,63.91V91.845a2.663,2.663,0,0,0,2.66,2.66H86.628v1.33H82.637a.665.665,0,0,0,0,1.33H99.93a.665.665,0,0,0,0-1.33H95.939V94.5h13.967a2.663,2.663,0,0,0,2.66-2.66V63.91A2.663,2.663,0,0,0,109.906,61.25Zm-15.3,34.585H87.958V94.5h6.651Zm16.628-3.991a1.331,1.331,0,0,1-1.33,1.33H72.66a1.331,1.331,0,0,1-1.33-1.33v-.333h39.906Zm0-1.663H71.33V63.911a1.331,1.331,0,0,1,1.33-1.33h37.246a1.331,1.331,0,0,1,1.33,1.33Z" transform="translate(-70 -61.25)" fill="#fff"/>
  <path id="Path_16823" data-name="Path 16823" d="M301.371,258.12a4,4,0,1,0,2.82,1.17A4,4,0,0,0,301.371,258.12Zm0,6.651a2.66,2.66,0,1,1,1.881-.779A2.66,2.66,0,0,1,301.371,264.771Z" transform="translate(-280.088 -243.156)" fill="#fff"/>
  <path id="Path_16824" data-name="Path 16824" d="M147.321,96.561a2.327,2.327,0,0,0-.665,4.558v5.751h-3.991v-4.988a.665.665,0,0,0-.665-.665h-9.644v-.431a2.328,2.328,0,1,0-1.33,0v.431h-9.644a.665.665,0,0,0-.665.665v4.988h-3.991v-5.751a2.328,2.328,0,1,0-1.33,0v12.07h7.648v.171a1.751,1.751,0,0,0,1.25,1.676,7.648,7.648,0,0,0,.39.942,1.751,1.751,0,0,0,.3,2.069l1.183,1.183h0a1.75,1.75,0,0,0,2.069.3,7.652,7.652,0,0,0,.942.39,1.751,1.751,0,0,0,1.676,1.25h1.672a1.751,1.751,0,0,0,1.676-1.25,7.658,7.658,0,0,0,.942-.39,1.751,1.751,0,0,0,2.069-.3l1.183-1.183h0a1.751,1.751,0,0,0,.3-2.069,7.646,7.646,0,0,0,.39-.942,1.751,1.751,0,0,0,1.25-1.676v-.171h7.648v-12.07a2.327,2.327,0,0,0-.665-4.558Zm-16.628,2a1,1,0,1,1,1,1,1,1,0,0,1-1-1Zm-15.629.333a1,1,0,1,1,1,1,1,1,0,0,1-1-1Zm23.944,14.471a.418.418,0,0,1-.418.418h-.54a6.447,6.447,0,0,1-.975,2.354l.382.382h0a.418.418,0,0,1,0,.591l-1.182,1.182a.418.418,0,0,1-.591,0l-.382-.382h0a6.446,6.446,0,0,1-2.355.976v.54a.418.418,0,0,1-.418.418h-1.672a.418.418,0,0,1-.418-.418v-.54a6.447,6.447,0,0,1-2.355-.975l-.382.382h0a.418.418,0,0,1-.591,0l-1.182-1.182a.418.418,0,0,1,0-.591l.382-.382h0a6.446,6.446,0,0,1-.975-2.355h-.54a.418.418,0,0,1-.418-.418v-1.672a.418.418,0,0,1,.418-.418h.54a6.447,6.447,0,0,1,.975-2.355l-.382-.382h0a.418.418,0,0,1,0-.591l1.182-1.182a.418.418,0,0,1,.591,0l.382.382h0a6.446,6.446,0,0,1,2.355-.976v-.54a.418.418,0,0,1,.418-.418h1.672a.418.418,0,0,1,.418.418v.54a6.448,6.448,0,0,1,2.355.975l.382-.382h0a.418.418,0,0,1,.591,0l1.182,1.182a.418.418,0,0,1,0,.591l-.382.382h0a6.446,6.446,0,0,1,.975,2.355h.54a.418.418,0,0,1,.418.418Zm7.648-1.5h-6.318v-.171a1.751,1.751,0,0,0-1.25-1.676,7.659,7.659,0,0,0-.39-.942,1.75,1.75,0,0,0-.3-2.069l-1.182-1.182a1.75,1.75,0,0,0-2.069-.3,7.653,7.653,0,0,0-.942-.39,1.751,1.751,0,0,0-1.676-1.25h-1.672a1.751,1.751,0,0,0-1.676,1.25,7.655,7.655,0,0,0-.942.39,1.751,1.751,0,0,0-2.069.3L124.985,107h0a1.751,1.751,0,0,0-.3,2.069,7.661,7.661,0,0,0-.39.942,1.751,1.751,0,0,0-1.25,1.676v.171h-6.318V108.2h4.656a.665.665,0,0,0,.665-.665v-4.988h19.288v4.988a.665.665,0,0,0,.665.665h4.656Zm.665-11.972a1,1,0,1,1,1-1,1,1,0,0,1-1,1Z" transform="translate(-110.408 -93.568)" fill="#fff"/>
</svg>
