<svg id="Group_9093" data-name="Group 9093" xmlns="http://www.w3.org/2000/svg" width="47.512" height="39.253" viewBox="0 0 47.512 39.253">
  <path id="Path_16825" data-name="Path 16825" d="M120.472,60.323a.652.652,0,0,1-.652-.652V52.963h-44.9v6.708a.652.652,0,0,1-1.3,0v-7.36a.652.652,0,0,1,.652-.652h46.208a.652.652,0,0,1,.652.652v7.36a.652.652,0,0,1-.652.652Z" transform="translate(-73.612 -51.659)" fill="#fff"/>
  <path id="Path_16826" data-name="Path 16826" d="M120.474,169.192H74.266a.652.652,0,0,1-.652-.652V137.952a.652.652,0,0,1,.652-.652h46.208a.652.652,0,0,1,.652.652V168.54a.652.652,0,0,1-.652.652Zm-45.556-1.3h44.9V138.6h-44.9Z" transform="translate(-73.614 -129.939)" fill="#fff"/>
  <path id="Path_16827" data-name="Path 16827" d="M173.476,229.878a.652.652,0,0,1-.652-.652v-2.95a.652.652,0,0,1,.652-.652h15.17a.652.652,0,0,1,0,1.3H174.128v2.3a.652.652,0,0,1-.652.652Z" transform="translate(-164.297 -210.671)" fill="#fff"/>
  <path id="Path_16828" data-name="Path 16828" d="M199.574,349.315h-26.1a.652.652,0,0,1-.652-.652v-7.4a.652.652,0,0,1,1.3,0v6.745h24.794v-7.6a.652.652,0,1,1,1.3,0v8.254a.652.652,0,0,1-.652.652Z" transform="translate(-164.297 -314.994)" fill="#fff"/>
  <path id="Path_16829" data-name="Path 16829" d="M366.791,208.443H349.966a.652.652,0,0,1-.652-.652V195.32a.652.652,0,0,1,.652-.652h16.825a.652.652,0,0,1,.652.652v12.471a.651.651,0,0,1-.652.652Zm-16.173-1.3h15.52V195.972h-15.52Z" transform="translate(-325.617 -182.376)" fill="#fff"/>
  <path id="Path_16830" data-name="Path 16830" d="M349.951,262.646a.654.654,0,0,1-.469-1.109l4.708-4.829a.649.649,0,0,1,.466-.2.655.655,0,0,1,.466.2l4.174,4.282a.652.652,0,1,1-.935.91l-3.7-3.8-4.242,4.351a.65.65,0,0,1-.466.2Z" transform="translate(-325.602 -238.906)" fill="#fff"/>
  <path id="Path_16831" data-name="Path 16831" d="M452.078,272.242a.645.645,0,0,1-.466-.2l-4.115-4.223-3.757,3.854a.652.652,0,0,1-.935-.91l4.226-4.335a.652.652,0,0,1,.931,0l4.583,4.7a.654.654,0,0,1-.469,1.109Z" transform="translate(-410.904 -247.792)" fill="#fff"/>
  <path id="Path_16832" data-name="Path 16832" d="M450.023,223.065a2,2,0,1,1,2-2A2,2,0,0,1,450.023,223.065Zm0-2.7a.7.7,0,1,0,.7.7A.7.7,0,0,0,450.023,220.364Z" transform="translate(-415.84 -204.672)" fill="#fff"/>
  <path id="Path_16833" data-name="Path 16833" d="M227.406,379.045h-13.72a.652.652,0,0,1-.652-.652V376.25a.652.652,0,0,1,.652-.652h13.72a.652.652,0,0,1,.652.652v2.143a.652.652,0,0,1-.652.652Zm-13.067-1.3h12.416V376.9H214.338Z" transform="translate(-201.05 -347.755)" fill="#fff"/>
  <path id="Path_16834" data-name="Path 16834" d="M375.389,372.034c-.115,0-.233-.006-.348-.016a3.324,3.324,0,0,1-.845-.177,4.181,4.181,0,0,1-1.32-.866l-.015-.012a.652.652,0,0,1,.854-.984l.015.012a3.1,3.1,0,0,0,.9.624,1.97,1.97,0,0,0,.516.105,3.687,3.687,0,0,0,2.469-.814,15.961,15.961,0,0,1-2.127-1.367l-.109-.077a.95.95,0,0,0-.711-.217,1.91,1.91,0,0,0-.925.547.652.652,0,1,1-.913-.932,3.165,3.165,0,0,1,1.609-.9,2.22,2.22,0,0,1,1.7.441l.109.077a13.063,13.063,0,0,0,2.258,1.407c.009,0,.037.016.059.022a1.113,1.113,0,0,1,.8.73.67.67,0,0,1-.18.624c-.121.121-.236.23-.351.332a5.242,5.242,0,0,1-3.45,1.44Z" transform="translate(-346.935 -339.831)" fill="#fff"/>
  <path id="Path_16835" data-name="Path 16835" d="M155.906,268.968H140.416a.652.652,0,0,1-.652-.652V260.6a.652.652,0,0,1,.652-.652H155.9a.652.652,0,0,1,.652.652v7.717a.647.647,0,0,1-.649.652Zm-14.837-1.3h14.182v-6.413H141.068Z" transform="translate(-134.078 -242.044)" fill="#fff"/>
  <path id="Path_16836" data-name="Path 16836" d="M227.277,291.172h-6.431a.652.652,0,0,1,0-1.3h6.431a.652.652,0,0,1,0,1.3Z" transform="translate(-207.595 -269.393)" fill="#fff"/>
  <path id="Path_16837" data-name="Path 16837" d="M167.741,291.172h-2.357a.652.652,0,0,1,0-1.3h2.357a.652.652,0,0,1,0,1.3Z" transform="translate(-156.9 -269.393)" fill="#fff"/>
  <path id="Path_16838" data-name="Path 16838" d="M270.009,321.122H267.6a.652.652,0,1,1,0-1.3h2.413a.652.652,0,0,1,0,1.3Z" transform="translate(-250.327 -296.769)" fill="#fff"/>
  <path id="Path_16839" data-name="Path 16839" d="M172.026,321.122H165.38a.652.652,0,0,1,0-1.3h6.645a.652.652,0,0,1,0,1.3Z" transform="translate(-156.896 -296.769)" fill="#fff"/>
  <path id="Path_16840" data-name="Path 16840" d="M137.2,91.594a1.087,1.087,0,1,1,1.086-1.087A1.087,1.087,0,0,1,137.2,91.594Z" transform="translate(-130.738 -86.175)" fill="#fff"/>
  <path id="Path_16841" data-name="Path 16841" d="M187.062,91.594a1.087,1.087,0,1,1,1.087-1.087A1.087,1.087,0,0,1,187.062,91.594Z" transform="translate(-176.317 -86.175)" fill="#fff"/>
  <path id="Path_16842" data-name="Path 16842" d="M236.922,91.594a1.087,1.087,0,1,1,1.087-1.087A1.087,1.087,0,0,1,236.922,91.594Z" transform="translate(-221.891 -86.175)" fill="#fff"/>
</svg>
