<svg xmlns="http://www.w3.org/2000/svg" width="41" height="40.985" viewBox="0 0 41 40.985">
  <g id="Group_33131" data-name="Group 33131" transform="translate(-4083 -3279)">
    <path id="Path_35190" data-name="Path 35190" d="M31.468,4.291a.708.708,0,0,1,.509.21l6.52,6.508a.72.72,0,0,1,0,1.018l-6.521,6.521a.72.72,0,0,1-1.017,0L24.44,12.027a.719.719,0,0,1,0-1.018L30.96,4.5a.7.7,0,0,1,.508-.21m-15.928.494a.72.72,0,0,1,.719.719V16.036a.72.72,0,0,1-.719.719H5.01a.72.72,0,0,1-.719-.719V5.5a.72.72,0,0,1,.719-.719H15.541M37.48,26.725a.72.72,0,0,1,.719.719V37.974a.72.72,0,0,1-.719.719H26.949a.72.72,0,0,1-.719-.719V27.444a.72.72,0,0,1,.719-.719H37.48m-21.939,0a.72.72,0,0,1,.719.719V37.974a.72.72,0,0,1-.719.719H5.01a.72.72,0,0,1-.719-.719V27.444a.72.72,0,0,1,.719-.719H15.541M31.468,1.5a3.5,3.5,0,0,0-2.479,1.026L22.468,9.034a3.51,3.51,0,0,0,0,4.966l6.521,6.521a3.511,3.511,0,0,0,4.964,0L40.471,14a3.509,3.509,0,0,0,0-4.966L33.949,2.526A3.5,3.5,0,0,0,31.468,1.5m-15.928.494H5.01A3.511,3.511,0,0,0,1.5,5.5V16.036a3.511,3.511,0,0,0,3.51,3.51H15.541a3.511,3.511,0,0,0,3.51-3.51V5.5a3.511,3.511,0,0,0-3.51-3.51M37.48,23.934H26.949a3.511,3.511,0,0,0-3.51,3.51V37.974a3.511,3.511,0,0,0,3.51,3.51H37.48a3.511,3.511,0,0,0,3.51-3.51V27.444a3.511,3.511,0,0,0-3.51-3.51m-21.939,0H5.01a3.51,3.51,0,0,0-3.51,3.51V37.974a3.51,3.51,0,0,0,3.51,3.51H15.541a3.51,3.51,0,0,0,3.51-3.51V27.444a3.51,3.51,0,0,0-3.51-3.51" transform="translate(4082 3278)" fill="#fff"/>
    <path id="Path_34392_-_Outline" data-name="Path 34392 - Outline" d="M37.48,41.985H26.949a4.015,4.015,0,0,1-4.01-4.01V27.444a4.015,4.015,0,0,1,4.01-4.01H37.48a4.015,4.015,0,0,1,4.01,4.01V37.974A4.015,4.015,0,0,1,37.48,41.985ZM26.949,24.434a3.014,3.014,0,0,0-3.01,3.01V37.974a3.014,3.014,0,0,0,3.01,3.01H37.48a3.014,3.014,0,0,0,3.01-3.01V27.444a3.014,3.014,0,0,0-3.01-3.01ZM15.541,41.985H5.01A4.015,4.015,0,0,1,1,37.974V27.444a4.015,4.015,0,0,1,4.01-4.01H15.541a4.015,4.015,0,0,1,4.01,4.01V37.974A4.015,4.015,0,0,1,15.541,41.985ZM5.01,24.434A3.014,3.014,0,0,0,2,27.444V37.974a3.014,3.014,0,0,0,3.01,3.01H15.541a3.014,3.014,0,0,0,3.01-3.01V27.444a3.014,3.014,0,0,0-3.01-3.01Zm32.47,14.76H26.949a1.221,1.221,0,0,1-1.219-1.219V27.444a1.221,1.221,0,0,1,1.219-1.219H37.48A1.221,1.221,0,0,1,38.7,27.444V37.974A1.221,1.221,0,0,1,37.48,39.193ZM26.949,27.225a.219.219,0,0,0-.219.219V37.974a.219.219,0,0,0,.219.219H37.48a.219.219,0,0,0,.219-.219V27.444a.219.219,0,0,0-.219-.219ZM15.541,39.193H5.01a1.221,1.221,0,0,1-1.219-1.219V27.444A1.221,1.221,0,0,1,5.01,26.225H15.541a1.221,1.221,0,0,1,1.219,1.219V37.974A1.221,1.221,0,0,1,15.541,39.193ZM5.01,27.225a.219.219,0,0,0-.219.219V37.974a.219.219,0,0,0,.219.219H15.541a.219.219,0,0,0,.219-.219V27.444a.219.219,0,0,0-.219-.219Zm26.458-5.176a3.984,3.984,0,0,1-2.836-1.174l-6.521-6.521a4.01,4.01,0,0,1,0-5.674l6.521-6.508a4.009,4.009,0,0,1,5.666,0L40.823,8.68a4.009,4.009,0,0,1,0,5.674L34.3,20.875A3.981,3.981,0,0,1,31.468,22.049ZM31.468,2a2.989,2.989,0,0,0-2.126.88L22.821,9.388a3.01,3.01,0,0,0,0,4.259l6.521,6.521a3.011,3.011,0,0,0,4.257,0l6.521-6.521a3.009,3.009,0,0,0,0-4.259L33.6,2.88A2.993,2.993,0,0,0,31.468,2ZM15.541,20.046H5.01A4.015,4.015,0,0,1,1,16.036V5.5a4.015,4.015,0,0,1,4.01-4.01H15.541a4.015,4.015,0,0,1,4.01,4.01V16.036A4.015,4.015,0,0,1,15.541,20.046ZM5.01,2.494A3.014,3.014,0,0,0,2,5.5V16.036a3.014,3.014,0,0,0,3.01,3.01H15.541a3.014,3.014,0,0,0,3.01-3.01V5.5a3.014,3.014,0,0,0-3.01-3.01ZM31.468,19.258a1.21,1.21,0,0,1-.862-.357L24.086,12.38a1.219,1.219,0,0,1,0-1.725l6.521-6.508a1.22,1.22,0,0,1,1.723,0l6.521,6.508a1.22,1.22,0,0,1,0,1.724L32.331,18.9A1.211,1.211,0,0,1,31.468,19.258Zm0-14.467a.2.2,0,0,0-.154.064l-6.521,6.508a.207.207,0,0,0-.064.155.2.2,0,0,0,.065.155l6.521,6.521a.2.2,0,0,0,.154.064.207.207,0,0,0,.155-.064l6.521-6.521a.206.206,0,0,0,.064-.155.2.2,0,0,0-.064-.154L31.624,4.855A.206.206,0,0,0,31.468,4.791ZM15.541,17.255H5.01a1.221,1.221,0,0,1-1.219-1.219V5.5A1.221,1.221,0,0,1,5.01,4.285H15.541A1.221,1.221,0,0,1,16.76,5.5V16.036A1.221,1.221,0,0,1,15.541,17.255ZM5.01,5.285a.219.219,0,0,0-.219.219V16.036a.219.219,0,0,0,.219.219H15.541a.219.219,0,0,0,.219-.219V5.5a.219.219,0,0,0-.219-.219Z" transform="translate(4082 3278)" fill="#fff"/>
  </g>
</svg>
