<svg xmlns="http://www.w3.org/2000/svg" width="68.5" height="68.5" viewBox="0 0 68.5 68.5">
  <g id="Group_11855" data-name="Group 11855" transform="translate(1 1)">
    <g id="Group_11854" data-name="Group 11854">
      <g id="Path_29624" data-name="Path 29624" transform="translate(-2 -2)" fill="#fcd03e">
        <path d="M 35.25 69 C 30.69643974304199 69 26.27776908874512 68.10713195800781 22.11672973632812 66.34618377685547 C 18.09822082519531 64.64556121826172 14.48878955841064 62.21139907836914 11.38869953155518 59.11130142211914 C 8.288599967956543 56.01121139526367 5.854440212249756 52.40177917480469 4.153820037841797 48.38327026367188 C 2.39286994934082 44.22222900390625 1.5 39.80355834960938 1.5 35.25 C 1.5 30.69643974304199 2.39286994934082 26.27776908874512 4.153820037841797 22.11672973632812 C 5.854440212249756 18.09822082519531 8.288599967956543 14.48878955841064 11.38869953155518 11.38869953155518 C 14.48878955841064 8.288599967956543 18.09822082519531 5.854440212249756 22.11672973632812 4.153820037841797 C 26.27776908874512 2.39286994934082 30.69643974304199 1.5 35.25 1.5 C 39.80355834960938 1.5 44.22222900390625 2.39286994934082 48.38327026367188 4.153820037841797 C 52.40177917480469 5.854440212249756 56.01121139526367 8.288599967956543 59.11130142211914 11.38869953155518 C 62.21139907836914 14.48878955841064 64.64556121826172 18.09822082519531 66.34618377685547 22.11672973632812 C 68.10713195800781 26.27776908874512 69 30.69643974304199 69 35.25 C 69 39.80355834960938 68.10713195800781 44.22222900390625 66.34618377685547 48.38327026367188 C 64.64556121826172 52.40177917480469 62.21139907836914 56.01121139526367 59.11130142211914 59.11130142211914 C 56.01121139526367 62.21139907836914 52.40177917480469 64.64556121826172 48.38327026367188 66.34618377685547 C 44.22222900390625 68.10713195800781 39.80355834960938 69 35.25 69 Z M 27.29951477050781 60.07863235473633 C 29.93128395080566 60.9223747253418 32.60490036010742 61.35000991821289 35.25 61.35000991821289 C 37.8957633972168 61.35000991821289 40.57036590576172 60.92206192016602 43.20277404785156 60.07789993286133 L 45.32605743408203 55.58867263793945 L 43.47312927246094 52.375 L 27.05880928039551 52.375 L 25.20642852783203 55.55878829956055 L 27.29951477050781 60.07863235473633 Z M 51.91207885742188 51.76541519165039 L 55.18690490722656 52.05267715454102 C 59.16323471069336 47.35984039306641 61.35000991821289 41.40329360961914 61.35000991821289 35.25 C 61.35000991821289 34.95183944702148 61.33034896850586 34.67374420166016 61.30569839477539 34.38975524902344 L 58.37308120727539 32.24893569946289 L 54.23163986206055 33.6492919921875 L 49.52807235717773 47.63112258911133 L 51.91207885742188 51.76541519165039 Z M 9.195771217346191 34.35543441772461 C 9.170942306518555 34.65712356567383 9.149999618530273 34.94768142700195 9.149999618530273 35.25 C 9.149999618530273 41.40330123901367 11.33677387237549 47.35984802246094 15.31309604644775 52.05267715454102 L 18.58618354797363 51.76556396484375 L 20.93920516967773 47.6327018737793 L 16.23425102233887 33.64673233032227 L 12.12469291687012 32.21731948852539 L 9.195771217346191 34.35543441772461 Z M 28.06178283691406 44.72500991821289 L 42.43906784057617 44.72500991821289 L 46.72600936889648 32.05328750610352 L 35.25039672851562 24.02353096008301 L 23.80636787414551 32.05331039428711 L 28.06178283691406 44.72500991821289 Z M 14.57690906524658 24.9853401184082 L 18.57952117919922 26.34919166564941 L 31.42499923706055 17.36701583862305 L 31.42499923706055 13.2320384979248 L 27.35145378112793 10.36546993255615 C 21.64289855957031 12.21237945556641 16.70963096618652 15.97695446014404 13.41683959960938 20.99946022033691 L 14.57690906524658 24.9853401184082 Z M 39.07500076293945 17.36701583862305 L 51.92049026489258 26.34919166564941 L 55.92309188842773 24.9853401184082 L 57.08340454101562 20.99862098693848 C 53.79146957397461 15.94507026672363 48.85859680175781 12.18065452575684 43.14982223510742 10.364577293396 L 39.07500076293945 13.23203945159912 L 39.07500076293945 17.36701583862305 Z" stroke="none"/>
        <path d="M 35.25 2 C 16.89599990844727 2 2 16.89599990844727 2 35.25 C 2 53.60400009155273 16.89599990844727 68.5 35.25 68.5 C 53.60400009155273 68.5 68.5 53.60400009155273 68.5 35.25 C 68.5 16.89599990844727 53.60400009155273 2 35.25 2 M 18.65824890136719 26.90423965454102 L 14.16949844360352 25.37474822998047 L 12.87274932861328 20.91923904418945 C 16.23099899291992 15.69900131225586 21.38475036621094 11.70899963378906 27.43624877929688 9.813751220703125 L 31.92499923706055 12.97249984741211 L 31.92499923706055 17.62749099731445 L 18.65824890136719 26.90423965454102 M 51.84175109863281 26.90425109863281 L 38.57500076293945 17.62749099731445 L 38.57500076293945 12.97249984741211 L 43.06375122070312 9.813751220703125 C 49.11525726318359 11.67575073242188 54.26899719238281 15.66574859619141 57.62725067138672 20.91925048828125 L 56.33049774169922 25.37474822998047 L 51.84175109863281 26.90425109863281 M 42.79775238037109 45.22500991821289 L 27.70225143432617 45.22500991821289 L 23.2134895324707 31.85848999023438 L 35.25 23.41299057006836 L 47.31974792480469 31.85848999023438 L 42.79775238037109 45.22500991821289 M 15.10049819946289 52.57324981689453 C 11.07725143432617 47.91825866699219 8.650001525878906 41.86675262451172 8.650001525878906 35.25 C 8.650001525878906 34.85100173950195 8.683250427246094 34.48524856567383 8.716499328613281 34.08625030517578 L 12.04150009155273 31.65900039672852 L 16.63000106811523 33.25500106811523 L 21.48450088500977 47.68550109863281 L 18.89099884033203 52.24074935913086 L 15.10049819946289 52.57324981689453 M 55.39949798583984 52.57324981689453 L 51.60900115966797 52.24074935913086 L 48.98225021362305 47.68550109863281 L 53.83675003051758 33.25500106811523 L 58.45849990844727 31.69224166870117 L 61.78350067138672 34.11949920654297 C 61.81674957275391 34.48524856567383 61.84999847412109 34.85100173950195 61.84999847412109 35.25 C 61.84999847412109 41.86675262451172 59.42275238037109 47.91825866699219 55.39949798583984 52.57324981689453 M 35.25 61.84999847412109 C 32.35725021362305 61.84999847412109 29.56425094604492 61.35124969482422 26.9375 60.48674774169922 L 24.64324951171875 55.53250122070312 L 26.7712516784668 51.875 L 43.76200103759766 51.875 L 45.88999938964844 55.56575012207031 L 43.5625 60.48674774169922 C 40.93574905395508 61.35124969482422 38.14274978637695 61.84999847412109 35.25 61.84999847412109 M 35.25 1 C 39.87087249755859 1 44.3551025390625 1.906181335449219 48.57814025878906 3.693351745605469 C 52.65621185302734 5.419181823730469 56.31903076171875 7.889320373535156 59.46485900878906 11.03514099121094 C 62.61067962646484 14.18096923828125 65.08081817626953 17.84378814697266 66.80664825439453 21.92185974121094 C 68.59381866455078 26.14490127563477 69.5 30.62913131713867 69.5 35.25 C 69.5 39.87087249755859 68.59381866455078 44.3551025390625 66.80664825439453 48.57814025878906 C 65.08081817626953 52.65621185302734 62.61067962646484 56.31903076171875 59.46485900878906 59.46485900878906 C 56.31903076171875 62.61067962646484 52.65621185302734 65.08081817626953 48.57814025878906 66.80664825439453 C 44.3551025390625 68.59381866455078 39.87087249755859 69.5 35.25 69.5 C 30.62913131713867 69.5 26.14490127563477 68.59381866455078 21.92185974121094 66.80664825439453 C 17.84378814697266 65.08081817626953 14.18096923828125 62.61067962646484 11.03514099121094 59.46485900878906 C 7.889320373535156 56.31903076171875 5.419181823730469 52.65621185302734 3.693351745605469 48.57814025878906 C 1.906181335449219 44.3551025390625 1 39.87087249755859 1 35.25 C 1 30.62913131713867 1.906181335449219 26.14490127563477 3.693351745605469 21.92185974121094 C 5.419181823730469 17.84378814697266 7.889320373535156 14.18096923828125 11.03514099121094 11.03514099121094 C 14.18096923828125 7.889320373535156 17.84378814697266 5.419181823730469 21.92185974121094 3.693351745605469 C 26.14490127563477 1.906181335449219 30.62913131713867 1 35.25 1 Z M 56.538818359375 21.08052825927734 C 53.35647583007812 16.28887176513672 48.66067504882812 12.70237731933594 43.23342132568359 10.91713714599609 L 39.57500076293945 13.49158096313477 L 39.57500076293945 17.10651397705078 L 51.99921798706055 25.79413604736328 L 55.51567840576172 24.5959358215332 L 56.538818359375 21.08052825927734 Z M 30.92499923706055 13.49158096313477 L 27.26908111572266 10.91889572143555 C 21.84140014648438 12.73321151733398 17.14511108398438 16.31948089599609 13.96167755126953 21.08221817016602 L 14.98432159423828 24.59593200683594 L 18.50078201293945 25.79412460327148 L 30.92499923706055 17.10651397705078 L 30.92499923706055 13.49158096313477 Z M 46.13227081298828 32.24808120727539 L 35.25078582763672 24.63404083251953 L 24.39921569824219 32.24811935424805 L 28.42130661010742 44.22500991821289 L 42.08037948608398 44.22500991821289 L 46.13227081298828 32.24808120727539 Z M 15.83848571777344 34.03845977783203 L 12.20788955688477 32.77564239501953 L 9.676223754882812 34.62375640869141 C 9.660659790039062 34.83644485473633 9.650001525878906 35.03914642333984 9.650001525878906 35.25 C 9.650001525878906 41.19864654541016 11.73426055908203 46.96033477783203 15.52884292602539 51.53184127807617 L 18.28136444091797 51.29039001464844 L 20.39390563964844 47.57990646362305 L 15.83848571777344 34.03845977783203 Z M 60.8258056640625 34.65848541259766 L 58.28765487670898 32.80562973022461 L 54.62654495239258 34.04356384277344 L 50.07389831542969 47.57677459716797 L 52.21515274047852 51.29008483886719 L 54.97115707397461 51.53184127807617 C 58.76573944091797 46.96033477783203 60.84999847412109 41.19864654541016 60.84999847412109 35.25 C 60.84999847412109 35.04870223999023 60.84017944335938 34.85399627685547 60.8258056640625 34.65848541259766 Z M 43.18425750732422 52.875 L 27.34637069702148 52.875 L 25.76960754394531 55.58506011962891 L 27.66054916381836 59.66839981079102 C 30.17546844482422 60.45263671875 32.7265625 60.84999847412109 35.25 60.84999847412109 C 37.77489852905273 60.84999847412109 40.32768249511719 60.45211791992188 42.84401702880859 59.66697311401367 L 44.76210784912109 55.6115837097168 L 43.18425750732422 52.875 Z" stroke="none" fill="#fff"/>
      </g>
    </g>
  </g>
</svg>
