<svg xmlns="http://www.w3.org/2000/svg" width="76" height="76" viewBox="0 0 76 76">
  <g id="Group_36226" data-name="Group 36226" transform="translate(0)">
    <g id="Group_36225" data-name="Group 36225" transform="translate(0)">
      <path id="Path_38541" data-name="Path 38541" d="M75.995,21.05c0-.764-.013-1.528-.034-2.294a33.264,33.264,0,0,0-.439-4.991,16.833,16.833,0,0,0-1.564-4.747A15.959,15.959,0,0,0,66.98,2.042,16.845,16.845,0,0,0,62.236.479a33.238,33.238,0,0,0-4.993-.44C56.478.019,55.714.01,54.949.005,54.042,0,53.134,0,52.226,0H23.774c-.908,0-1.815,0-2.723.005-.765,0-1.53.013-2.294.034-.416.011-.834.026-1.251.046a28.973,28.973,0,0,0-3.742.394,17.368,17.368,0,0,0-3.6,1.035q-.578.239-1.147.528A15.938,15.938,0,0,0,5.9,4.127q-.477.407-.921.851A15.944,15.944,0,0,0,2.042,9.019,16.84,16.84,0,0,0,.478,13.766,33.33,33.33,0,0,0,.04,18.757c-.021.765-.03,1.529-.035,2.294-.006.908,0,1.816,0,2.723V52.226c0,.908,0,1.815,0,2.724,0,.764.014,1.528.035,2.292a33.3,33.3,0,0,0,.439,4.992,16.845,16.845,0,0,0,1.564,4.747A15.971,15.971,0,0,0,9.02,73.958a16.84,16.84,0,0,0,4.744,1.563,33.212,33.212,0,0,0,4.993.439c.764.02,1.529.029,2.294.034.907.007,1.814.006,2.723.006H52.226c.907,0,1.815,0,2.723-.006.765,0,1.529-.013,2.294-.034a33.239,33.239,0,0,0,4.993-.439,16.844,16.844,0,0,0,4.744-1.563,15.969,15.969,0,0,0,6.977-6.977,16.836,16.836,0,0,0,1.564-4.747,33.251,33.251,0,0,0,.439-4.992c.021-.764.029-1.528.034-2.292C76,54.041,76,53.134,76,52.226V23.774C76,22.866,76,21.958,75.995,21.05Z" transform="translate(0)" fill="#f05138"/>
      <path id="Path_38542" data-name="Path 38542" d="M58.554,44.554l-.005-.006c.084-.286.171-.57.244-.864,3.154-12.567-4.544-27.425-17.572-35.249,5.709,7.739,8.233,17.113,5.99,25.311a21.274,21.274,0,0,1-.706,2.115c-.288-.19-.652-.4-1.14-.674a164.282,164.282,0,0,1-27-22.154A168.187,168.187,0,0,0,34.769,33.688c-4.2-2.358-15.911-10.878-23.324-17.662a33.657,33.657,0,0,0,3.185,4.389c6.19,7.851,14.263,17.537,23.935,24.975-6.8,4.159-16.4,4.482-25.958,0A39.217,39.217,0,0,1,5.962,41.43,39.8,39.8,0,0,0,23.827,56.748c9.047,3.888,18.043,3.624,24.743.064l-.005.008c.031-.019.069-.04.1-.06.275-.148.548-.3.815-.458,3.219-1.671,9.578-3.366,12.991,3.274C63.308,61.2,65.084,52.589,58.554,44.554Z" transform="translate(1.667 2.359)" fill="#fff"/>
    </g>
  </g>
</svg>
