<svg id="Component_18_1" data-name="Component 18 – 1" xmlns="http://www.w3.org/2000/svg" width="67.055" height="60" viewBox="0 0 67.055 60">
  <path id="Path_18404" data-name="Path 18404" d="M67.426,50.647l-.006-.007c.1-.334.2-.667.286-1.009,3.686-14.687-5.311-32.052-20.536-41.194,6.672,9.045,9.622,20,7,29.58a24.864,24.864,0,0,1-.825,2.472c-.337-.221-.762-.473-1.332-.787A191.992,191.992,0,0,1,20.453,13.81,196.557,196.557,0,0,0,39.628,37.947c-4.91-2.756-18.595-12.712-27.258-20.641a39.334,39.334,0,0,0,3.722,5.13c7.235,9.175,16.669,20.5,27.972,29.188-7.942,4.86-19.164,5.238-30.337.005a45.832,45.832,0,0,1-7.766-4.633A46.517,46.517,0,0,0,26.841,64.9c10.573,4.544,21.086,4.235,28.917.074l-.006.009c.036-.023.081-.047.118-.07.322-.173.641-.349.953-.535C60.585,62.423,68.016,60.442,72,68.2,72.981,70.1,75.057,60.037,67.426,50.647Z" transform="translate(-5.962 -8.436)" fill="#e9392b"/>
</svg>
