<svg xmlns="http://www.w3.org/2000/svg" xmlns:xlink="http://www.w3.org/1999/xlink" width="50" height="50" viewBox="0 0 50 50">
  <defs>
    <clipPath id="clip-path">
      <rect id="Rectangle_5661" data-name="Rectangle 5661" width="50" height="50" transform="translate(-226 5321)" fill="#fff"/>
    </clipPath>
  </defs>
  <g id="Mask_Group_9014" data-name="Mask Group 9014" transform="translate(226 -5321)" clip-path="url(#clip-path)">
    <g id="Group_11903" data-name="Group 11903" transform="translate(-224.333 5322.667)">
      <path id="Path_29701" data-name="Path 29701" d="M393.75,139.544a8.294,8.294,0,1,0,8.294-8.294A8.3,8.3,0,0,0,393.75,139.544Zm15.08,0a6.786,6.786,0,1,1-6.786-6.786A6.794,6.794,0,0,1,408.83,139.544Z" transform="translate(-366.605 -120.694)"/>
      <path id="Path_29702" data-name="Path 29702" d="M432.381,189.326l-1.066,1.066,3.549,3.549,6.565-6.565-1.066-1.066-5.5,5.5Z" transform="translate(-400.933 -171.009)"/>
      <path id="Path_29703" data-name="Path 29703" d="M116.451,38.682a11.312,11.312,0,0,0,0-22.166v-4a3.774,3.774,0,0,0-3.77-3.77H82.52a3.774,3.774,0,0,0-3.77,3.77V41.172a3.774,3.774,0,0,0,3.77,3.77h9.8v.13a4.425,4.425,0,0,1-1.087,2.886H87.8v1.508h19.6V47.958h-3.437a4.425,4.425,0,0,1-1.087-2.886v-.13h7.54v6.786a3.77,3.77,0,0,0,7.54,0v-7.54a2.257,2.257,0,0,0-1.521-2.127c0-.045.013-.089.013-.135Zm-3.016.189c.25.016.5.038.754.038s.5-.022.754-.038v3.054h-1.508ZM123.991,27.6a9.8,9.8,0,1,1-9.8-9.8,9.814,9.814,0,0,1,9.8,9.8ZM108.57,37.4H80.258v-18.1h26.267a11.274,11.274,0,0,0,2.045,18.1ZM82.52,10.258h30.161a2.265,2.265,0,0,1,2.262,2.262v3.808c-.25-.016-.5-.038-.754-.038A11.229,11.229,0,0,0,108.57,17.8H80.258V12.52a2.265,2.265,0,0,1,2.262-2.262Zm19.613,37.7H93.068a5.937,5.937,0,0,0,.762-2.886v-.13h7.54v.13a5.937,5.937,0,0,0,.762,2.886Zm8.424-4.524H82.52a2.265,2.265,0,0,1-2.262-2.262V38.91h31.669v3.016c0,.046.01.09.013.135a2.259,2.259,0,0,0-1.383,1.373Zm5.893,8.294a2.262,2.262,0,1,1-4.524,0v-7.54a.754.754,0,0,1,.754-.754H115.7a.754.754,0,0,1,.754.754Z" transform="translate(-78.75 -8.749)"/>
      <path id="Path_29704" data-name="Path 29704" d="M118.274,43.75H113.75v4.524h4.524Zm-1.508,3.016h-1.508V45.258h1.508Z" transform="translate(-110.734 -40.734)"/>
      <path id="Path_29705" data-name="Path 29705" d="M188.274,43.75H183.75v4.524h4.524Zm-1.508,3.016h-1.508V45.258h1.508Z" transform="translate(-174.702 -40.734)"/>
      <path id="Path_29706" data-name="Path 29706" d="M258.274,43.75H253.75v4.524h4.524Zm-1.508,3.016h-1.508V45.258h1.508Z" transform="translate(-238.67 -40.734)"/>
      <path id="Path_29707" data-name="Path 29707" d="M113.75,376.25h1.508v1.508H113.75Z" transform="translate(-110.734 -344.581)"/>
      <path id="Path_29708" data-name="Path 29708" d="M148.75,376.25h4.524v1.508H148.75Z" transform="translate(-142.718 -344.581)"/>
      <path id="Path_29709" data-name="Path 29709" d="M113.75,156.29h12.064v-7.54H113.75Zm1.508-6.032h9.048v4.524h-9.048Z" transform="translate(-110.734 -136.686)"/>
      <path id="Path_29710" data-name="Path 29710" d="M271.25,148.75h6.032v1.508H271.25Z" transform="translate(-254.662 -136.686)"/>
      <path id="Path_29711" data-name="Path 29711" d="M271.25,183.75h6.032v1.508H271.25Z" transform="translate(-254.662 -168.669)"/>
      <path id="Path_29712" data-name="Path 29712" d="M271.25,218.75h6.032v1.508H271.25Z" transform="translate(-254.662 -200.653)"/>
      <path id="Path_29713" data-name="Path 29713" d="M271.25,259.782h6.032V253.75H271.25Zm1.508-4.524h3.016v3.016h-3.016Z" transform="translate(-254.662 -232.638)"/>
      <path id="Path_29714" data-name="Path 29714" d="M113.75,253.75h1.508v1.508H113.75Z" transform="translate(-110.734 -232.638)"/>
      <path id="Path_29715" data-name="Path 29715" d="M148.75,253.75H157.8v1.508H148.75Z" transform="translate(-142.718 -232.638)"/>
      <path id="Path_29716" data-name="Path 29716" d="M113.75,288.75h12.064v1.508H113.75Z" transform="translate(-110.734 -264.622)"/>
    </g>
  </g>
</svg>
