<svg xmlns="http://www.w3.org/2000/svg" width="42.765" height="34.212" viewBox="0 0 42.765 34.212">
  <path id="commute_FILL1_wght400_GRAD0_opsz48" d="M21.8,41.036V28.9l3.047-8.981a1.282,1.282,0,0,1,.428-.641,1.382,1.382,0,0,1,.909-.267h16.2a1.371,1.371,0,0,1,.882.241,1.537,1.537,0,0,1,.454.668L46.765,28.9V41.036a1.186,1.186,0,0,1-1.176,1.176H44.413a1.186,1.186,0,0,1-1.176-1.176V38.63H25.329v2.406a1.186,1.186,0,0,1-1.176,1.176H22.977A1.186,1.186,0,0,1,21.8,41.036ZM24.634,27.3h19.3L41.9,21.15H26.665Zm2.887,7.8a2.012,2.012,0,1,0-1.5-.588A2.028,2.028,0,0,0,27.521,35.1Zm13.524,0a2.012,2.012,0,1,0-1.5-.588A2.028,2.028,0,0,0,41.045,35.1ZM8.49,42.212V41.089l3.047-3.047a7.717,7.717,0,0,1-5.265-2A5.975,5.975,0,0,1,4,31.467V13.934Q4,10.406,6.78,9.2T17.792,8Q25.436,8,28.51,9.31a4.659,4.659,0,0,1,3.074,4.624v3.475H28.376V13.292H7.207v14.38H20.2v14.54Zm1.443-8.66a2.085,2.085,0,1,0,0-4.17,2.085,2.085,0,1,0,0,4.17Z" transform="translate(-4 -8)" fill="#fff"/>
</svg>
