<svg xmlns="http://www.w3.org/2000/svg" width="45.994" height="45.382" viewBox="0 0 45.994 45.382">
  <g id="Understanding-icon" transform="translate(0.001 -0.992)">
    <path id="Union_6" data-name="Union 6" d="M18.568,44.45a3.171,3.171,0,0,1-.917-1.941,3.239,3.239,0,0,1-.5.039,3.187,3.187,0,0,1-3.187-3.187c0-.022,0-.043,0-.065h-.034a3.188,3.188,0,0,1-3.187-3.187,3.209,3.209,0,0,1,.037-.487,3.184,3.184,0,0,1-2-5.349l-4-5.4L.314,21.037A.9.9,0,0,1,.2,19.787L8.715,9.24A.9.9,0,0,1,9.9,9.046l5.067,3.223,5.215,1.426,5.026-1.447a.9.9,0,0,1,.248-.041H31.94l4.97-3.161a.9.9,0,0,1,1.2.211l7.7,10a.9.9,0,0,1-.126,1.234l-4.4,3.782-2.923,6.123a3.185,3.185,0,0,1-2.723,4.921A3.185,3.185,0,0,1,32.4,38.553a3.182,3.182,0,0,1-3.235,3.234,3.187,3.187,0,0,1-5.4,2.341l-.2-.165-.487.487a3.191,3.191,0,0,1-4.507,0Zm3.275-4.733-.048,0c-.039,0-.079.009-.117.016l-.016,0a1.378,1.378,0,0,0-.613.285l0,0c-.036.029-.07.061-.1.094l-1.1,1.1A1.383,1.383,0,0,0,21.8,43.175l1.061-1.061a1.428,1.428,0,0,0,.156-1.863,1.217,1.217,0,0,0-.089-.1,1.375,1.375,0,0,0-.987-.433h-.007C21.9,39.713,21.873,39.715,21.843,39.716ZM19.33,34.041a3.164,3.164,0,0,1,2.272,1,3.217,3.217,0,0,1,.772,2.9,3.155,3.155,0,0,1,2.689,2.715,3.251,3.251,0,0,1-.117,1.387c-.026.084-.052.168-.086.249s-.074.139-.1.211-.014.1.045.148a2.016,2.016,0,0,1,.2.163,1.383,1.383,0,1,0,1.956-1.957.8.8,0,0,1-.064-.071l-2.08-2.1A.9.9,0,1,1,26.1,37.417l2.14,2.163A1.384,1.384,0,1,0,30.2,37.623a.866.866,0,0,1-.063-.07l-3.861-3.9a.9.9,0,1,1,1.282-1.269l3.921,3.962a1.384,1.384,0,0,0,1.957-1.957l0,0-5.862-5.923a.9.9,0,0,1,1.282-1.269l5.8,5.86c.021.017.042.035.061.055a1.384,1.384,0,0,0,1.957-1.957L25.942,20.427l-4.028-.286-2.256,3.981a3.187,3.187,0,0,1-3.811,1.442,3.2,3.2,0,0,1-.383-.161l-.011-.005c-.047-.024-.094-.049-.14-.075a3.187,3.187,0,0,1-1.2-4.344l3.472-6.126-2.658-.727L6.584,24.287l3.486,4.7a3.2,3.2,0,0,1,2.177-.819,3.157,3.157,0,0,1,3.093,2.706,3.243,3.243,0,0,1,.77-.082,3.156,3.156,0,0,1,3.124,3.251h.1ZM18.308,36.25l-2.132,2.132a1.383,1.383,0,1,0,1.957,1.956l2.1-2.1a1.462,1.462,0,0,0,.41-.812,1.36,1.36,0,0,0-1.347-1.581A1.4,1.4,0,0,0,18.308,36.25ZM15.088,33l-2.133,2.133a1.383,1.383,0,0,0,1.957,1.956l2.1-2.1a1.461,1.461,0,0,0,.412-.833,1.378,1.378,0,0,0-.762-1.429,1.364,1.364,0,0,0-.588-.132A1.4,1.4,0,0,0,15.088,33ZM12.1,29.974h-.023a1.382,1.382,0,0,0-.751.3c-.036.029-.071.061-.1.094l-1.1,1.1a1.383,1.383,0,0,0,1.956,1.957l1.066-1.066A1.418,1.418,0,0,0,13.21,30.4a1.375,1.375,0,0,0-.987-.433h-.01C12.177,29.97,12.141,29.972,12.1,29.974ZM21.473,18.3l4.932.35a.9.9,0,0,1,.514.207c.021.017.041.035.06.055L37.041,28.975,39.5,23.829,31.774,14.01H25.587l-5.121,1.479-.027.009-1.372.395-3.386,5.975a1.383,1.383,0,1,0,2.407,1.364l2.536-4.476a.918.918,0,0,1,.789-.457ZM2.153,20.24l3.176,2.734,7.927-9.657L9.612,11Zm31.384-6.912,7.143,9.085,3.177-2.734-6.675-8.67Zm-6.31-3.08a.9.9,0,0,1,0-1.275l6.161-6.161a.9.9,0,1,1,1.275,1.276l-6.16,6.16a.9.9,0,0,1-1.276,0ZM22.1,9.611v-5.1a.9.9,0,1,1,1.8,0v5.1a.9.9,0,1,1-1.8,0Zm-4.6.638-6.16-6.16a.9.9,0,1,1,1.276-1.276l6.161,6.161a.9.9,0,1,1-1.276,1.275Zm4.673-9A.908.908,0,0,1,22.5.149a.912.912,0,0,1,1.049.034.909.909,0,0,1,.309.991.91.91,0,0,1-.814.625H23A.908.908,0,0,1,22.165,1.244Z" transform="translate(-0.001 0.992)" fill="#fff"/>
  </g>
</svg>
