<svg xmlns="http://www.w3.org/2000/svg" width="66" height="65.294" viewBox="0 0 66 65.294">
  <g id="visual-studio-code-seeklogo.com" transform="translate(-2.725 -13.961)">
    <path id="Path_38548" data-name="Path 38548" d="M3.353,251.08s-1.608-1.159.322-2.706l4.494-4.019a1.908,1.908,0,0,1,2.646-.174l41.474,31.4v15.057s-.02,2.364-3.054,2.1Z" transform="translate(0 -214.35)" fill="#2489ca"/>
    <path id="Path_38549" data-name="Path 38549" d="M15.989,498.8,5.3,508.519s-1.1.817,0,2.277l4.963,4.514s1.179,1.266,2.92-.174l11.333-8.593Z" transform="translate(-1.946 -452.364)" fill="#1070b3"/>
    <path id="Path_38550" data-name="Path 38550" d="M309.241,54.178l19.6-14.97-.127-14.977s-.837-3.269-3.63-1.567L299,46.409Z" transform="translate(-276.431 -7.662)" fill="#0877b9"/>
    <path id="Path_38551" data-name="Path 38551" d="M689.076,78.412a2.7,2.7,0,0,0,2.518.784l15.278-7.529a3.222,3.222,0,0,0,1.681-2.987V23.723a3.005,3.005,0,0,0-2.023-2.659l-13.242-6.383A3.677,3.677,0,0,0,688.5,15s2.438-1.755,3.63,1.567V76.014a2.7,2.7,0,0,1-.261,1.172c-.348.7-1.105,1.36-2.92,1.085Z" transform="translate(-639.842 0)" fill="#3c99d4"/>
  </g>
</svg>
