<svg xmlns="http://www.w3.org/2000/svg" xmlns:xlink="http://www.w3.org/1999/xlink" width="46" height="46" viewBox="0 0 46 46">
  <defs>
    <clipPath id="clip-path">
      <rect id="Rectangle_13002" data-name="Rectangle 13002" width="46" height="46" transform="translate(773 3382)" fill="#fff"/>
    </clipPath>
    <clipPath id="clip-path-2">
      <rect id="Rectangle_12993" data-name="Rectangle 12993" width="45.026" height="45.027" transform="translate(0 0)" fill="#fff" stroke="#fff" stroke-width="1"/>
    </clipPath>
    <clipPath id="clip-path-4">
      <rect id="Rectangle_13001" data-name="Rectangle 13001" width="44.391" height="44.392" fill="#fff" stroke="#fff" stroke-width="1"/>
    </clipPath>
  </defs>
  <g id="Mask_Group_9068" data-name="Mask Group 9068" transform="translate(-773 -3382)" clip-path="url(#clip-path)">
    <g id="Group_33118" data-name="Group 33118" transform="translate(774 3382)">
      <rect id="Rectangle_12991" data-name="Rectangle 12991" width="2.317" height="7.476" transform="translate(23.244 37.051)" fill="#fff" stroke="#fff" stroke-width="1"/>
      <g id="Group_33113" data-name="Group 33113">
        <g id="Group_33112" data-name="Group 33112" clip-path="url(#clip-path-2)">
          <rect id="Rectangle_12992" data-name="Rectangle 12992" width="2.318" height="7.477" transform="translate(23.244 37.05)" fill="#fff" stroke="#fff" stroke-width="1"/>
        </g>
      </g>
      <rect id="Rectangle_12994" data-name="Rectangle 12994" width="2.316" height="7.476" transform="translate(15.666 37.051)" fill="#fff" stroke="#fff" stroke-width="1"/>
      <g id="Group_33115" data-name="Group 33115">
        <g id="Group_33114" data-name="Group 33114" clip-path="url(#clip-path-2)">
          <rect id="Rectangle_12995" data-name="Rectangle 12995" width="2.316" height="7.477" transform="translate(15.666 37.05)" fill="#fff" stroke="#fff" stroke-width="1"/>
        </g>
      </g>
      <rect id="Rectangle_12997" data-name="Rectangle 12997" width="20.007" height="2.317" transform="translate(10.61 42.21)" fill="#fff" stroke="#fff" stroke-width="1"/>
      <g id="Group_33117" data-name="Group 33117" transform="translate(0 0.635)">
        <g id="Group_33116" data-name="Group 33116" transform="translate(0 0)" clip-path="url(#clip-path-4)">
          <rect id="Rectangle_12998" data-name="Rectangle 12998" width="19.725" height="2.284" transform="translate(10.46 41.615)" fill="#fff" stroke="#fff" stroke-width="1"/>
          <path id="Path_35171" data-name="Path 35171" d="M36.525,37.73H4.134A3.639,3.639,0,0,1,.5,34.1V7.933A3.638,3.638,0,0,1,4.134,4.3h30.4V6.585H4.134a1.351,1.351,0,0,0-1.35,1.349V34.1a1.351,1.351,0,0,0,1.35,1.35H36.525a1.352,1.352,0,0,0,1.351-1.35V9.928H40.16V34.1a3.639,3.639,0,0,1-3.635,3.634Z" transform="translate(-0.007 -0.061)" fill="#fff" stroke="#fff" stroke-width="1"/>
          <path id="Path_35172" data-name="Path 35172" d="M36.525,37.73H4.134A3.639,3.639,0,0,1,.5,34.1V7.933A3.638,3.638,0,0,1,4.134,4.3h30.4V6.585H4.134a1.351,1.351,0,0,0-1.35,1.349V34.1a1.351,1.351,0,0,0,1.35,1.35H36.525a1.352,1.352,0,0,0,1.351-1.35V9.928H40.16V34.1a3.639,3.639,0,0,1-3.635,3.634Z" transform="translate(-0.007 -0.061)" fill="#fff" stroke="#fff" stroke-width="1"/>
          <rect id="Rectangle_12999" data-name="Rectangle 12999" width="39.66" height="2.284" transform="translate(0.493 29.987)" fill="#fff" stroke="#fff" stroke-width="1"/>
          <rect id="Rectangle_13000" data-name="Rectangle 13000" width="39.66" height="2.284" transform="translate(0.493 29.987)" fill="#fff" stroke="#fff" stroke-width="1"/>
          <path id="Path_35173" data-name="Path 35173" d="M30.989,19.86l-6.1-6.1L36.909,1.74a4.313,4.313,0,0,1,6.1,6.1Zm-2.87-6.1,2.87,2.87,10.406-10.4a2.111,2.111,0,0,0,0-2.87,2.189,2.189,0,0,0-2.87,0L28.12,13.762Z" transform="translate(-0.351 -0.007)" fill="#fff" stroke="#fff" stroke-width="1"/>
          <path id="Path_35174" data-name="Path 35174" d="M30.989,19.86l-6.1-6.1L36.909,1.74a4.313,4.313,0,0,1,6.1,6.1Zm-2.87-6.1,2.87,2.87,10.406-10.4a2.111,2.111,0,0,0,0-2.87,2.189,2.189,0,0,0-2.87,0L28.12,13.762Z" transform="translate(-0.351 -0.007)" fill="#fff" stroke="#fff" stroke-width="1"/>
          <path id="Path_35175" data-name="Path 35175" d="M21.554,26.776h0a8.363,8.363,0,0,1-5.881-2.419l-1.948-1.949h2.761c.928,0,1.4-.27,1.4-.8a5.127,5.127,0,0,1,4.682-5.536,5.2,5.2,0,0,1,.554-.016,5.029,5.029,0,0,1,3.593,1.455,5.107,5.107,0,0,1,1.491,3.7,5.052,5.052,0,0,1-1.676,3.629,6.96,6.96,0,0,1-4.966,1.937ZM19.04,23.948a6.124,6.124,0,0,0,2.514.543,4.721,4.721,0,0,0,3.387-1.3,2.752,2.752,0,0,0,.323-3.881c-.054-.064-.111-.126-.172-.185a3.094,3.094,0,0,0-4.106.037,3.152,3.152,0,0,0-.823,2.444,2.923,2.923,0,0,1-1.123,2.344Z" transform="translate(-0.194 -0.227)" fill="#fff" stroke="#fff" stroke-width="1"/>
          <path id="Path_35176" data-name="Path 35176" d="M21.554,26.776h0a8.363,8.363,0,0,1-5.881-2.419l-1.948-1.949h2.761c.928,0,1.4-.27,1.4-.8a5.127,5.127,0,0,1,4.682-5.536,5.2,5.2,0,0,1,.554-.016,5.029,5.029,0,0,1,3.593,1.455,5.107,5.107,0,0,1,1.491,3.7,5.052,5.052,0,0,1-1.676,3.629,6.96,6.96,0,0,1-4.966,1.937ZM19.04,23.948a6.124,6.124,0,0,0,2.514.543,4.721,4.721,0,0,0,3.387-1.3,2.752,2.752,0,0,0,.323-3.881c-.054-.064-.111-.126-.172-.185a3.094,3.094,0,0,0-4.106.037,3.152,3.152,0,0,0-.823,2.444,2.923,2.923,0,0,1-1.123,2.344Z" transform="translate(-0.194 -0.227)" fill="#fff" stroke="#fff" stroke-width="1"/>
        </g>
      </g>
    </g>
  </g>
</svg>
