<svg xmlns="http://www.w3.org/2000/svg" xmlns:xlink="http://www.w3.org/1999/xlink" width="46" height="46" viewBox="0 0 46 46">
  <defs>
    <clipPath id="clip-path">
      <rect id="Rectangle_14100" data-name="Rectangle 14100" width="46" height="46" transform="translate(1430 3141)" fill="#fff"/>
    </clipPath>
  </defs>
  <g id="Mask_Group_9105" data-name="Mask Group 9105" transform="translate(-1430 -3141)" clip-path="url(#clip-path)">
    <g id="Maintenance_Services" data-name="Maintenance  Services" transform="translate(1430 3141)">
      <path id="Path_38529" data-name="Path 38529" d="M32.063,28.5H29.188V25.625h1.438v-5.75h-5.75v1.438H22V18.438A1.438,1.438,0,0,1,23.438,17h8.625A1.438,1.438,0,0,1,33.5,18.438v8.625A1.438,1.438,0,0,1,32.063,28.5Z" transform="translate(9.625 7.438)" fill="#fff"/>
      <path id="Path_38530" data-name="Path 38530" d="M27.063,33.5H18.438A1.438,1.438,0,0,1,17,32.063V23.438A1.438,1.438,0,0,1,18.438,22h8.625A1.438,1.438,0,0,1,28.5,23.438v8.625A1.438,1.438,0,0,1,27.063,33.5Zm-7.187-2.875h5.75v-5.75h-5.75Z" transform="translate(7.438 9.625)" fill="#fff"/>
      <path id="Path_38531" data-name="Path 38531" d="M17.188,24.173a5.741,5.741,0,1,1,7.188-5.546H27.25a8.625,8.625,0,1,0-10.062,8.5Z" transform="translate(4.375 4.372)" fill="#fff"/>
      <path id="Path_38532" data-name="Path 38532" d="M40.467,18.6l-3.321,2.918L35.105,19.48l3.464-3.047-3.393-5.865-4.945,1.667a13.467,13.467,0,0,0-3.881-2.257l-1.021-5.1H18.545l-1.021,5.1a12.737,12.737,0,0,0-3.9,2.257L8.7,10.568,5.306,16.433l3.91,3.436a12.786,12.786,0,0,0,0,4.5l-3.91,3.45L8.7,33.683l4.945-1.667a13.467,13.467,0,0,0,3.881,2.257l1.021,5.1H20.5V42.25H18.545a2.876,2.876,0,0,1-2.817-2.314l-.733-3.623a16.4,16.4,0,0,1-1.883-1.078L9.618,36.414a2.93,2.93,0,0,1-.92.144A2.836,2.836,0,0,1,6.211,35.12L2.819,29.255a2.875,2.875,0,0,1,.589-3.608l2.76-2.415c-.029-.374-.043-.733-.043-1.107s.029-.733.057-1.093L3.408,18.6a2.875,2.875,0,0,1-.589-3.608L6.211,9.13A2.836,2.836,0,0,1,8.7,7.693a2.93,2.93,0,0,1,.92.144L13.1,9.015a16.591,16.591,0,0,1,1.9-1.078l.733-3.622A2.876,2.876,0,0,1,18.545,2H25.33a2.876,2.876,0,0,1,2.817,2.314l.733,3.622a16.4,16.4,0,0,1,1.883,1.078l3.493-1.179a2.93,2.93,0,0,1,.92-.144A2.836,2.836,0,0,1,37.664,9.13l3.392,5.865a2.875,2.875,0,0,1-.589,3.608Z" transform="translate(1.062 0.875)" fill="#fff"/>
    </g>
  </g>
</svg>
