<svg xmlns="http://www.w3.org/2000/svg" width="76" height="73.835" viewBox="0 0 76 73.835">
  <g id="apple_xcode-icon" transform="translate(0 -0.921)">
    <path id="Path_38537" data-name="Path 38537" d="M55.977,31.708l.394-1.313a137.557,137.557,0,0,1,4.465-14.028A4.987,4.987,0,0,1,65.17,12.91c1.423-.154,2.933-.285,3.895,1.072a3.619,3.619,0,0,0,2.375,1.544,6.7,6.7,0,0,1,1.423.372c.634.241.875-.021,1.051-.613L75.6,9.551c.634-2.166.634-2.145-1.467-2.889a3.3,3.3,0,0,0-2.583-.044,3.426,3.426,0,0,1-4.037-.831,11.782,11.782,0,0,0-4.441-2.867,31.147,31.147,0,0,0-15.3-1.662,16.247,16.247,0,0,0-7.089,2.583,8.679,8.679,0,0,0-.831.745,38.794,38.794,0,0,1,8.448.088,6.8,6.8,0,0,1,4.814,2.472,10.124,10.124,0,0,1,1.781,5.69,22.34,22.34,0,0,1-1.072,8.229L51.4,29.643c-.109.372-.2.712.306.831l4.268,1.247ZM42.517,74.733a3.264,3.264,0,0,0,3.206-1.75,9.048,9.048,0,0,0,.94-2.342l6.258-26.085L55.46,33.723c.175-.712,0-.986-.677-1.138l-2.757-.766c-1.686-.5-1.357-.439-1.86.95L37.726,68.156a5.261,5.261,0,0,0-.35,1.51c-.119,2.976,1.971,5.055,5.142,5.078ZM.063,22.232l.261,1.926,1.9,12.6,1.86,12.706L6.013,62.25l1.2,8.1c.088.57.285.831.95.722l11.948-1.9,17.047-2.648c.218-.044.394-.306.591-.481-.241-.119-.525-.372-.745-.35l-9.3,1.4L8.888,70.043c-.657.109-.875-.044-.95-.677l-1.17-8.175-2.736-18.1L1.069,23.349c-.109-.722.119-1.051.855-1.138l3.786-.591L21.2,19.1l26.129-4.289,5.886-1.007c.241-.044.416-.394.613-.591l-.787-.306c-.065-.021-.154.021-.241.044l-7.331,1.225L.7,21.532c-.546.088-.831.241-.634.712Zm62.369-7.265a2.528,2.528,0,0,1-.394-.021,7.292,7.292,0,0,0-.2,1.662l.875,5.317,2.375,14.269,3.919,23.372c.088.46,0,.787-.57.875l-12.629,1.97-5.973.986c-.175.021-.328.306-.481.481.218.109.416.306.613.306.634-.044,1.247-.154,1.86-.241L70.081,61.01,62.421,14.966ZM45.822,42.54a.813.813,0,0,0,.065-1.291L41.8,36.325l-11.511-13.9a3.128,3.128,0,0,1-.657-1.357,2.066,2.066,0,0,1,1.4-2.166,2.21,2.21,0,0,1,2.669.875L45.012,33.319l2.757,3.261a.827.827,0,0,0,.065-1.291L43.3,29.87,34.179,19.017a3.024,3.024,0,0,0-4.441-.328,2.853,2.853,0,0,0-.154,4.289L43.764,40.092l2.057,2.451Zm-15.1-9.227a3.281,3.281,0,0,0-.525-.35L25.667,31.3c-.481-.175-.712,0-.875.416L16.52,52.046c-.218.5-.065.745.394.919l4.245,1.75c.766.35,1.072.175,1.357-.591L30.71,33.313Zm14.422,9.4-2.933-3.741c-.745-1.148-1.576-1.742-2.953-1.148A5.938,5.938,0,0,1,38.207,38l-8.787,1.51a1.147,1.147,0,0,0-1.051.745L26.6,45.092a3.961,3.961,0,0,0-.109.712l18.646-3.064Zm-24.6-1.947L10.02,42.474l.677,4.771c.088.677.372.766.986.677l5.427-.745a1.241,1.241,0,0,0,1.116-.787l2.035-4.726c.109-.261.154-.481.285-.9Z" transform="translate(0 0)" fill="#235ee1"/>
    <path id="Path_38538" data-name="Path 38538" d="M59.017,54.421,52.43,50.416c.088.416.044.9.261,1.138a5.249,5.249,0,0,0,1.467,1.138c.745.416,1.544.712,2.3,1.072a2.906,2.906,0,0,1,1.926,2.692,2.106,2.106,0,0,0,.2.677l.218-.109a.879.879,0,0,0,.154-.2,7.425,7.425,0,0,0,.831-6.294c-.634-2.451-1.773-4.574-4.158-5.8-.657-.328-1.072-.044-1.553.285a1.36,1.36,0,0,0-.657,1.51,4.957,4.957,0,0,0,.875-.591c.546-.57,1.051-.439,1.662-.044,2.407,1.686,3.919,5.93,3.064,8.514ZM15.009,63.592a1.316,1.316,0,0,0,.261.109l6.567-8.194-.745-.394-4.18-1.686c-.657-.285-.855-.088-.9.591l-.578,5.536-.416,4.037ZM29.124,25.863a2.814,2.814,0,0,0-2.583,1.773l-1.007,2.407c-.218.46-.154.745.372.919l4.377,1.62c.525.2.745.021.94-.439l1.051-2.494a2.007,2.007,0,0,0-.745-2.713,17.1,17.1,0,0,0-2.407-1.072Zm25.671,15.1,5.462-.766c.154-.021.35-.416.328-.591L59.8,35.271a.86.86,0,0,0-.634-.525c-.919.065-1.838.2-2.757.35-.46.065-.787.285-.525.94l2.539-.306c.2-.021.57.154.591.285l.634,3.393-4.071.546c-.481.065-.919.175-.766,1.007Zm1.183-9.256-4.245-1.225c-.5-.154-.416-.46-.306-.831l2.43-8.578a22.4,22.4,0,0,0,1.072-8.229,10.215,10.215,0,0,0-1.781-5.69A6.8,6.8,0,0,0,48.332,4.68a38.927,38.927,0,0,0-8.448-.088c.285-.241.525-.525.831-.745A16.263,16.263,0,0,1,47.8,1.265,31.383,31.383,0,0,1,63.1,2.927a11.518,11.518,0,0,1,4.441,2.867,3.43,3.43,0,0,0,4.037.831,3.308,3.308,0,0,1,2.583.044c2.1.745,2.1.722,1.467,2.889l-1.686,5.733c-.175.591-.416.831-1.051.613a6.489,6.489,0,0,0-1.423-.372,3.317,3.317,0,0,1-2.375-1.544c-.986-1.335-2.472-1.225-3.895-1.072a4.974,4.974,0,0,0-4.334,3.458A137.37,137.37,0,0,0,56.4,30.4l-.416,1.291ZM42.517,74.731c-3.173-.021-5.252-2.078-5.142-5.078a5.192,5.192,0,0,1,.35-1.51L50.176,32.8c.481-1.4.175-1.444,1.86-.95l2.757.766c.677.154.855.439.677,1.138L52.931,44.587,46.673,70.672a9.048,9.048,0,0,1-.94,2.342,3.3,3.3,0,0,1-3.206,1.729ZM.063,22.23c-.2-.46.088-.613.657-.712l44.773-7.331,7.331-1.225c.088-.021.175-.065.241-.044l.787.306c-.2.2-.372.546-.613.591l-5.886,1.007L34.769,16.864,21.222,19.1,5.728,21.614l-3.786.591c-.722.088-.95.416-.855,1.138L6.768,61.184,7.95,69.347c.088.634.285.787.95.677l18.821-2.954,9.3-1.4c.218-.021.5.218.745.35-.2.175-.372.439-.591.481L20.151,69.15,8.2,71.053c-.677.109-.875-.154-.95-.722l-1.2-8.1L4.123,49.452,2.263,36.746l-2.2-14.5Zm62.369-7.265,7.7,46.088-4.289.712L51.884,64l-1.86.241c-.2.021-.416-.2-.613-.306.154-.175.306-.439.481-.481l5.973-.986L68.47,60.5c.57-.088.634-.416.57-.875l-1.544-9.1-4.75-28.537-.875-5.317a6.822,6.822,0,0,1,.2-1.662,1.809,1.809,0,0,1,.35-.021Z" transform="translate(0 0.002)" fill="#235ee1"/>
    <path id="Path_38539" data-name="Path 38539" d="M44.24,39.868l-2.057-2.451L28,20.3a2.853,2.853,0,0,1,.154-4.289,2.988,2.988,0,0,1,4.441.328L46.254,32.6a.812.812,0,0,1-.065,1.291l-2.757-3.261L32.117,17.094a2.181,2.181,0,0,0-2.669-.875,2.037,2.037,0,0,0-1.4,2.166,2.713,2.713,0,0,0,.657,1.357l15.6,18.821a.8.8,0,0,1-.065,1.291Zm-15.1-9.227-.261.745L20.923,51.5c-.306.766-.591.94-1.357.591l-4.245-1.75c-.481-.2-.613-.416-.394-.919L23.2,29.089c.175-.439.394-.613.875-.416l4.53,1.662a1.829,1.829,0,0,1,.525.306Zm-5.165-1.092-1.051,2.6L16.14,48.763c-.261.657-.119.919.481,1.138L19.2,50.951c.657.328.919.2,1.182-.481l7.683-19.433L23.976,29.55ZM43.562,40.042,24.939,43.106a4.788,4.788,0,0,1,.109-.712l1.773-4.837a1.12,1.12,0,0,1,1.051-.745l8.787-1.51a5.581,5.581,0,0,0,1.051-.175c1.377-.546,2.188.044,2.954,1.16.81,1.247,1.817,2.375,2.909,3.741Zm-17.42,1.991,15.822-2.612-2.6-3.261a1.024,1.024,0,0,0-.766-.241l-2.254.35-7.79,1.357c-.328.065-.81.261-.919.525-.546,1.225-.986,2.494-1.488,3.895Zm-7.178-3.939-.285.855-2.035,4.726a1.184,1.184,0,0,1-1.116.787l-5.427.745c-.613.088-.9,0-.986-.677L8.438,39.76,18.964,38.1Zm-1.357,1.116-7.439,1.2c-.241.044-.634.439-.634.634a20.722,20.722,0,0,0,.439,2.823.76.76,0,0,0,.591.394L15,43.652c.285-.044.712-.2.81-.416L17.6,39.2Zm39.828,12.54c.855-2.583-.657-6.828-3.064-8.469a1.121,1.121,0,0,0-1.662.044,6.709,6.709,0,0,1-.875.591,1.364,1.364,0,0,1,.657-1.51,1.321,1.321,0,0,1,1.553-.285,8.377,8.377,0,0,1,4.159,5.8,7.441,7.441,0,0,1-.831,6.294,2.141,2.141,0,0,1-.154.2c-.044.044-.088.044-.218.109a2.96,2.96,0,0,1-.2-.677,2.907,2.907,0,0,0-1.926-2.692l-2.3-1.072a5.377,5.377,0,0,1-1.467-1.138c-.218-.241-.175-.722-.261-1.138l6.587,3.95ZM13.428,60.921l.394-4.037.591-5.537c.065-.677.241-.875.9-.591l4.18,1.686c.218.088.416.218.745.394l-6.567,8.194a1.98,1.98,0,0,1-.241-.109Zm1.116-2.539c.065.021.119.021.175.044l4.159-5.3-3.61-1.423-.722,6.674Zm13-35.191a15.086,15.086,0,0,1,2.407,1.092A2.006,2.006,0,0,1,30.693,27l-1.051,2.494c-.175.46-.416.634-.94.439l-4.377-1.62c-.525-.175-.57-.46-.372-.919l1.007-2.407A2.768,2.768,0,0,1,27.543,23.2Zm-2.669,4.354,3.655,1.335c.119.044.439-.154.525-.328l.855-1.947a1.1,1.1,0,0,0-.372-1.51,7.219,7.219,0,0,0-1.991-.81,1.411,1.411,0,0,0-1.706.919l-.95,2.342Zm28.34,10.747c-.175-.831.285-.94.766-1.007l4.071-.546-.634-3.393c-.021-.119-.394-.306-.591-.285l-2.539.306c-.241-.677.088-.875.525-.94l2.757-.35a.816.816,0,0,1,.634.525l.787,4.334c.021.175-.2.57-.328.591l-5.462.766Z" transform="translate(1.582 2.673)" fill="#235ee1"/>
    <path id="Path_38540" data-name="Path 38540" d="M23.8,28.138l4.092,1.488L20.209,49.059c-.261.677-.546.81-1.182.481a21.948,21.948,0,0,0-2.583-1.051c-.613-.218-.745-.481-.481-1.138l6.784-16.61,1.051-2.6ZM25.967,40.6l1.467-3.874c.109-.261.591-.46.919-.525l7.79-1.357,2.254-.35a1.042,1.042,0,0,1,.766.241L41.767,38l-15.8,2.6Zm-8.534-2.824-1.781,4.005a1.212,1.212,0,0,1-.81.416L10.4,42.81c-.2.021-.57-.218-.591-.394a20.225,20.225,0,0,1-.439-2.823c-.021-.2.372-.591.634-.634l7.441-1.182ZM14.369,56.946l.745-6.674,3.61,1.423-4.159,5.3a.629.629,0,0,1-.2-.044ZM24.7,26.112l.95-2.319a1.423,1.423,0,0,1,1.706-.919,6.579,6.579,0,0,1,1.991.81,1.1,1.1,0,0,1,.372,1.51l-.855,1.947c-.088.154-.394.372-.525.328l-3.655-1.357Z" transform="translate(1.756 4.107)" fill="#235ee1"/>
  </g>
</svg>
