<svg xmlns="http://www.w3.org/2000/svg" width="73.387" height="75" viewBox="0 0 73.387 75">
  <g id="Group_36770" data-name="Group 36770" transform="translate(-32.5 -27.502)">
    <g id="Group_36769" data-name="Group 36769" transform="translate(32.5 27.502)">
      <circle id="Ellipse_358" data-name="Ellipse 358" cx="1.613" cy="1.613" r="1.613" transform="translate(34.839 57.419)" fill="#ff5e85"/>
      <path id="Path_39288" data-name="Path 39288" d="M348.306,214.114h4.032a.806.806,0,0,0,0-1.613h-4.032a.806.806,0,0,0,0,1.613Z" transform="translate(-296.694 -182.663)" fill="#ff5e85"/>
      <path id="Path_39289" data-name="Path 39289" d="M388.306,214.114h3.226a.806.806,0,0,0,0-1.613h-3.226a.806.806,0,0,0,0,1.613Z" transform="translate(-330.242 -182.663)" fill="#ff5e85"/>
      <path id="Path_39290" data-name="Path 39290" d="M348.306,234.114h8.064a.806.806,0,1,0,0-1.613h-8.064a.806.806,0,0,0,0,1.613Z" transform="translate(-296.694 -199.437)" fill="#ff5e85"/>
      <path id="Path_39291" data-name="Path 39291" d="M414.919,232.5h-1.613a.806.806,0,0,0,0,1.613h1.613a.806.806,0,0,0,0-1.613Z" transform="translate(-351.21 -199.437)" fill="#ff5e85"/>
      <path id="Path_39292" data-name="Path 39292" d="M348.306,254.114h2.419a.807.807,0,0,0,0-1.613h-2.419a.807.807,0,0,0,0,1.613Z" transform="translate(-296.694 -216.211)" fill="#ff5e85"/>
      <path id="Path_39293" data-name="Path 39293" d="M377.5,253.308a.806.806,0,0,0,.806.806h6.452a.807.807,0,0,0,0-1.613h-6.452A.806.806,0,0,0,377.5,253.308Z" transform="translate(-321.855 -216.211)" fill="#ff5e85"/>
      <path id="Path_39294" data-name="Path 39294" d="M348.306,274.115h3.226a.806.806,0,0,0,0-1.613h-3.226a.806.806,0,1,0,0,1.613Z" transform="translate(-296.694 -232.986)" fill="#ff5e85"/>
      <path id="Path_39295" data-name="Path 39295" d="M389.758,272.5h-6.452a.806.806,0,1,0,0,1.613h6.452a.806.806,0,0,0,0-1.613Z" transform="translate(-326.048 -232.986)" fill="#ff5e85"/>
      <path id="Path_39296" data-name="Path 39296" d="M348.306,294.115h4.032a.806.806,0,1,0,0-1.613h-4.032a.806.806,0,1,0,0,1.613Z" transform="translate(-296.694 -249.76)" fill="#ff5e85"/>
      <path id="Path_39297" data-name="Path 39297" d="M392.339,294.115a.806.806,0,1,0,0-1.613h-4.032a.806.806,0,1,0,0,1.613Z" transform="translate(-330.242 -249.76)" fill="#ff5e85"/>
      <path id="Path_39298" data-name="Path 39298" d="M348.306,314.115h8.064a.806.806,0,1,0,0-1.613h-8.064a.806.806,0,1,0,0,1.613Z" transform="translate(-296.694 -266.534)" fill="#ff5e85"/>
      <path id="Path_39299" data-name="Path 39299" d="M414.919,312.5h-1.613a.806.806,0,1,0,0,1.613h1.613a.806.806,0,0,0,0-1.613Z" transform="translate(-351.21 -266.534)" fill="#ff5e85"/>
      <path id="Path_39300" data-name="Path 39300" d="M350.726,332.5h-2.419a.806.806,0,1,0,0,1.613h2.419a.806.806,0,0,0,0-1.613Z" transform="translate(-296.694 -283.309)" fill="#ff5e85"/>
      <path id="Path_39301" data-name="Path 39301" d="M384.758,332.5h-6.452a.806.806,0,1,0,0,1.613h6.452a.806.806,0,0,0,0-1.613Z" transform="translate(-321.855 -283.309)" fill="#ff5e85"/>
      <path id="Path_39302" data-name="Path 39302" d="M99.355,38.792H81.693V36.05a5.329,5.329,0,0,0-5.323-5.323h-1.21a4.033,4.033,0,0,0-7.9,0H37.823A5.329,5.329,0,0,0,32.5,36.05V86.292a5.732,5.732,0,0,0,5.726,5.726H60.081v8.871H57.823a.806.806,0,1,0,0,1.613H80.081a.806.806,0,0,0,0-1.613H77.822V92.018H99.355a5.732,5.732,0,0,0,5.726-5.726V44.518A5.732,5.732,0,0,0,99.355,38.792Zm-60.4,40.323H74.435a.806.806,0,1,0,0-1.613H38.952V75.889H59.113a.806.806,0,1,0,0-1.613H38.952V65.405H59.294l11.427,8.706a.807.807,0,0,0,1.3-.641V65.405h4.355a5.329,5.329,0,0,0,5.323-5.323V45.244H98.629V80.728H38.952ZM68.79,36.373h4.839V50.889H68.79Zm4.839-1.613H68.79v-.806h4.839ZM68.79,52.5h4.839v2.136L71.21,57.662,68.79,54.638ZM71.21,29.115a2.422,2.422,0,0,1,2.419,2.419v.806H68.79v-.806A2.422,2.422,0,0,1,71.21,29.115Zm-37.1,6.936a3.714,3.714,0,0,1,3.71-3.71H67.177V54.921a.806.806,0,0,0,.177.5l3.226,4.032a.806.806,0,0,0,1.259,0l3.226-4.032a.807.807,0,0,0,.177-.5V32.341h1.129a3.714,3.714,0,0,1,3.71,3.71V60.083a3.714,3.714,0,0,1-3.71,3.71H71.21a.806.806,0,0,0-.806.807v7.243L60.055,63.957a.806.806,0,0,0-.489-.165H37.823a3.714,3.714,0,0,1-3.71-3.71ZM61.693,92.018h2.419v8.871H61.693Zm4.032,8.871V92.018h6.452v8.871Zm10.484,0H73.79V92.018H76.21Zm27.258-14.6a4.118,4.118,0,0,1-4.113,4.113H38.226a4.118,4.118,0,0,1-4.113-4.113v-22.4a5.305,5.305,0,0,0,3.226,1.488V81.534a.807.807,0,0,0,.806.806h61.29a.806.806,0,0,0,.806-.806v-37.1a.806.806,0,0,0-.806-.806H81.693V40.405H99.355a4.118,4.118,0,0,1,4.113,4.113Z" transform="translate(-32.5 -27.502)" fill="#ff5e85"/>
      <circle id="Ellipse_359" data-name="Ellipse 359" cx="1.21" cy="1.21" r="1.21" transform="translate(52.419 4.839)" fill="#ff5e85"/>
      <circle id="Ellipse_360" data-name="Ellipse 360" cx="1.21" cy="1.21" r="1.21" transform="translate(60.484 2.419)" fill="#ff5e85"/>
      <circle id="Ellipse_361" data-name="Ellipse 361" cx="1.21" cy="1.21" r="1.21" transform="translate(48.387 66.129)" fill="#ff5e85"/>
      <circle id="Ellipse_362" data-name="Ellipse 362" cx="1.21" cy="1.21" r="1.21" transform="translate(69.355 66.129)" fill="#ff5e85"/>
      <circle id="Ellipse_363" data-name="Ellipse 363" cx="1.21" cy="1.21" r="1.21" transform="translate(22.58 65.322)" fill="#ff5e85"/>
      <circle id="Ellipse_364" data-name="Ellipse 364" cx="1.21" cy="1.21" r="1.21" transform="translate(4.032 68.548)" fill="#ff5e85"/>
      <path id="Path_39303" data-name="Path 39303" d="M53.131,84.593l3.3.736a10.35,10.35,0,0,0,.985,2.377L55.6,90.565a.806.806,0,0,0,.111,1L57.5,93.357a.806.806,0,0,0,1,.111l2.86-1.81a10.425,10.425,0,0,0,2.376.985l.736,3.3a.807.807,0,0,0,.787.631H67.8a.807.807,0,0,0,.787-.631l.736-3.3a10.349,10.349,0,0,0,2.377-.985l2.859,1.81a.807.807,0,0,0,1-.111l1.791-1.791a.807.807,0,0,0,.111-1l-1.81-2.86a10.424,10.424,0,0,0,.985-2.376l3.3-.736a.807.807,0,0,0,.631-.787V81.271a.807.807,0,0,0-.631-.787l-3.3-.736a10.421,10.421,0,0,0-.985-2.376l1.81-2.86a.807.807,0,0,0-.111-1L75.56,71.72a.806.806,0,0,0-1-.111L71.7,73.423a10.441,10.441,0,0,0-2.377-.988l-.737-3.3a.807.807,0,0,0-.787-.631H65.264a.807.807,0,0,0-.787.631l-.737,3.3a10.449,10.449,0,0,0-2.377.988L58.506,71.61a.806.806,0,0,0-1,.111l-1.791,1.79a.806.806,0,0,0-.111,1l1.81,2.86a10.426,10.426,0,0,0-.985,2.376l-3.3.736a.807.807,0,0,0-.631.787v2.535A.807.807,0,0,0,53.131,84.593Zm.982-2.676,3.152-.7a.806.806,0,0,0,.611-.612,8.828,8.828,0,0,1,1.165-2.81.806.806,0,0,0,0-.862L57.31,74.2l.877-.877,2.734,1.735a.807.807,0,0,0,.866,0A8.85,8.85,0,0,1,64.6,73.883a.807.807,0,0,0,.608-.611l.7-3.152h1.243l.7,3.152a.807.807,0,0,0,.608.611,8.846,8.846,0,0,1,2.811,1.169.807.807,0,0,0,.866,0l2.734-1.735.877.877-1.731,2.734a.806.806,0,0,0,0,.862,8.828,8.828,0,0,1,1.165,2.81.806.806,0,0,0,.611.612l3.152.7V83.16l-3.152.7a.806.806,0,0,0-.611.612,8.828,8.828,0,0,1-1.165,2.81.806.806,0,0,0,0,.863l1.731,2.734-.878.878L72.142,90.03a.806.806,0,0,0-.864,0,8.751,8.751,0,0,1-2.808,1.163.806.806,0,0,0-.612.611l-.7,3.152H65.911l-.7-3.152a.806.806,0,0,0-.612-.611,8.827,8.827,0,0,1-2.81-1.165.807.807,0,0,0-.863,0l-2.734,1.731-.878-.878,1.731-2.734a.807.807,0,0,0,0-.864,8.752,8.752,0,0,1-1.163-2.808.806.806,0,0,0-.611-.612l-3.152-.7Z" transform="translate(-49.274 -61.893)" fill="#ff5e85"/>
      <path id="Path_39304" data-name="Path 39304" d="M122.111,141.459a3.344,3.344,0,1,0-3.347-3.341A3.345,3.345,0,0,0,122.111,141.459Zm0-5.075a1.731,1.731,0,1,1-1.734,1.734A1.733,1.733,0,0,1,122.111,136.384Z" transform="translate(-104.85 -117.47)" fill="#ff5e85"/>
      <path id="Path_39305" data-name="Path 39305" d="M103.75,126.63a6.875,6.875,0,1,0-6.878-6.872A6.88,6.88,0,0,0,103.75,126.63Zm0-12.137a5.262,5.262,0,1,1-5.265,5.265A5.268,5.268,0,0,1,103.75,114.493Z" transform="translate(-86.489 -99.109)" fill="#ff5e85"/>
      <path id="Path_39306" data-name="Path 39306" d="M441.532,45.566a4.032,4.032,0,1,0-4.032-4.032A4.037,4.037,0,0,0,441.532,45.566Zm0-6.452a2.419,2.419,0,1,1-2.419,2.419A2.422,2.422,0,0,1,441.532,39.115Z" transform="translate(-372.178 -35.889)" fill="#ff5e85"/>
      <path id="Path_39307" data-name="Path 39307" d="M386.532,437.5a4.032,4.032,0,1,0,4.032,4.032A4.037,4.037,0,0,0,386.532,437.5Zm0,6.452a2.419,2.419,0,1,1,2.419-2.419A2.422,2.422,0,0,1,386.532,443.954Z" transform="translate(-326.048 -371.373)" fill="#ff5e85"/>
      <path id="Path_39308" data-name="Path 39308" d="M110.726,447.5a3.226,3.226,0,1,0,3.226,3.226A3.229,3.229,0,0,0,110.726,447.5Zm0,4.839a1.613,1.613,0,1,1,1.613-1.613A1.615,1.615,0,0,1,110.726,452.341Z" transform="translate(-95.403 -379.76)" fill="#ff5e85"/>
    </g>
  </g>
</svg>
