<svg xmlns="http://www.w3.org/2000/svg" width="70" height="70" viewBox="0 0 70 70">
  <g id="Group_36767" data-name="Group 36767" transform="translate(-20.188 -20.031)">
    <path id="Path_39267" data-name="Path 39267" d="M86.629,20.031H23.747a3.563,3.563,0,0,0-3.559,3.559V89.438a.593.593,0,0,0,.593.593H89.595a.593.593,0,0,0,.593-.593V23.59A3.563,3.563,0,0,0,86.629,20.031ZM21.374,23.59a2.376,2.376,0,0,1,2.373-2.373H86.629A2.376,2.376,0,0,1,89,23.59V27.15H21.374ZM26.12,88.845V54.438H46.29V88.845Zm21.356,0v-35a.593.593,0,0,0-.593-.593H25.527a.593.593,0,0,0-.593.593v35H23.747V37.828H86.629V88.845Zm39.153-52.2H23.747V30.709H86.629Zm1.186,52.2V30.116a.593.593,0,0,0-.593-.593H23.154a.593.593,0,0,0-.593.593V88.845H21.374V28.336H89V88.845Z" fill="#dba802"/>
    <path id="Path_39268" data-name="Path 39268" d="M37.968,36.031a1.78,1.78,0,1,0,1.78,1.78A1.78,1.78,0,0,0,37.968,36.031Zm0,2.373a.593.593,0,1,1,.593-.593A.593.593,0,0,1,37.968,38.4Z" transform="translate(-13.627 -13.627)" fill="#dba802"/>
    <path id="Path_39269" data-name="Path 39269" d="M69.968,36.031a1.78,1.78,0,1,0,1.78,1.78A1.78,1.78,0,0,0,69.968,36.031Zm0,2.373a.593.593,0,1,1,.593-.593A.593.593,0,0,1,69.968,38.4Z" transform="translate(-40.881 -13.627)" fill="#dba802"/>
    <path id="Path_39270" data-name="Path 39270" d="M101.968,36.031a1.78,1.78,0,1,0,1.78,1.78,1.78,1.78,0,0,0-1.78-1.78Zm0,2.373a.593.593,0,1,1,.593-.593A.593.593,0,0,1,101.968,38.4Z" transform="translate(-68.136 -13.627)" fill="#dba802"/>
    <path id="Path_39271" data-name="Path 39271" d="M248.85,153.014l-3.559-4.746a.593.593,0,0,0-.475-.237H216.341a.593.593,0,0,0-.475.237l-3.559,4.746a.592.592,0,0,0-.117.356h0v3.559a4.152,4.152,0,0,0,7.712,2.136,4.15,4.15,0,0,0,7.119,0,4.15,4.15,0,0,0,7.119,0,4.15,4.15,0,0,0,7.119,0,4.152,4.152,0,0,0,7.712-2.136v-3.559h0a.592.592,0,0,0-.117-.357Zm-1.661-.237h-5.566l-1.78-3.559h4.676Zm-19.743-3.559-.89,3.559h-5.695l1.78-3.559Zm1.223,0h3.819l.89,3.559h-5.6Zm5.932,3.559-.89-3.559h4.805l1.78,3.559Zm-17.963-3.559h4.676l-1.78,3.559h-5.565Zm-.3,10.678a2.969,2.969,0,0,1-2.966-2.966v-2.966h5.932v2.966A2.969,2.969,0,0,1,216.341,159.9Zm7.119,0a2.969,2.969,0,0,1-2.966-2.966v-2.966h5.932v2.966A2.969,2.969,0,0,1,223.46,159.9Zm7.119,0a2.969,2.969,0,0,1-2.966-2.966v-2.966h5.932v2.966A2.969,2.969,0,0,1,230.579,159.9Zm7.119,0a2.969,2.969,0,0,1-2.966-2.966v-2.966h5.932v2.966A2.969,2.969,0,0,1,237.7,159.9Zm7.119,0a2.969,2.969,0,0,1-2.966-2.966v-2.966h5.932v2.966A2.969,2.969,0,0,1,244.816,159.9Z" transform="translate(-163.526 -109.017)" fill="#dba802"/>
    <path id="Path_39272" data-name="Path 39272" d="M254,244.031h-33.22a.593.593,0,0,0-.593.593v18.983a.593.593,0,0,0,.593.593h21.875l-1.591,3.32a.593.593,0,0,0,.638.841l2.586-.453,1.562,8.926a.593.593,0,0,0,.584.491.608.608,0,0,0,.1-.009l4.227-.74a.593.593,0,0,0,.482-.687l-1.563-8.926,2.586-.453a.593.593,0,0,0,.314-1.007l-1.325-1.3H254a.593.593,0,0,0,.593-.593V244.624A.593.593,0,0,0,254,244.031ZM248.894,265.9a.593.593,0,0,0-.482.686l1.562,8.926-3.059.535-1.562-8.926a.593.593,0,0,0-.584-.491.609.609,0,0,0-.1.009l-2.035.356,3.132-6.534,5.165,5.081Zm4.514-2.884h-3.357L246,259.032a.593.593,0,0,0-.951.167l-1.829,3.816h-21.85v-17.8h32.034Z" transform="translate(-170.339 -190.78)" fill="#dba802"/>
    <path id="Path_39273" data-name="Path 39273" d="M52.781,103.59h9.492a.593.593,0,0,0,.593-.593v-2.373a.593.593,0,0,0-.593-.593H52.781a.593.593,0,0,0-.593.593V103A.593.593,0,0,0,52.781,103.59Zm.593-2.373H61.68V102.4H53.374Z" transform="translate(-27.254 -68.136)" fill="#dba802"/>
    <path id="Path_39274" data-name="Path 39274" d="M164.781,103.59h4.746a.593.593,0,0,0,.593-.593v-2.373a.593.593,0,0,0-.593-.593h-4.746a.593.593,0,0,0-.593.593V103A.593.593,0,0,0,164.781,103.59Zm.593-2.373h3.559V102.4h-3.559Z" transform="translate(-122.644 -68.136)" fill="#dba802"/>
    <path id="Path_39275" data-name="Path 39275" d="M212.781,103.59h4.746a.593.593,0,0,0,.593-.593v-2.373a.593.593,0,0,0-.593-.593h-4.746a.593.593,0,0,0-.593.593V103A.593.593,0,0,0,212.781,103.59Zm.593-2.373h3.559V102.4h-3.559Z" transform="translate(-163.525 -68.136)" fill="#dba802"/>
    <path id="Path_39276" data-name="Path 39276" d="M260.781,103.59h4.746a.593.593,0,0,0,.593-.593v-2.373a.593.593,0,0,0-.593-.593h-4.746a.593.593,0,0,0-.593.593V103A.593.593,0,0,0,260.781,103.59Zm.593-2.373h3.559V102.4h-3.559Z" transform="translate(-204.407 -68.136)" fill="#dba802"/>
    <path id="Path_39277" data-name="Path 39277" d="M308.781,103.59h4.746a.593.593,0,0,0,.593-.593v-2.373a.593.593,0,0,0-.593-.593h-4.746a.593.593,0,0,0-.593.593V103A.593.593,0,0,0,308.781,103.59Zm.593-2.373h3.559V102.4h-3.559Z" transform="translate(-245.288 -68.136)" fill="#dba802"/>
    <path id="Path_39278" data-name="Path 39278" d="M356.781,103.59h4.746a.593.593,0,0,0,.593-.593v-2.373a.593.593,0,0,0-.593-.593h-4.746a.593.593,0,0,0-.593.593V103A.593.593,0,0,0,356.781,103.59Zm.593-2.373h3.559V102.4h-3.559Z" transform="translate(-286.169 -68.136)" fill="#dba802"/>
    <path id="Path_39279" data-name="Path 39279" d="M404.781,103.59h4.746a.593.593,0,0,0,.593-.593v-2.373a.593.593,0,0,0-.593-.593h-4.746a.593.593,0,0,0-.593.593V103A.593.593,0,0,0,404.781,103.59Zm.593-2.373h3.559V102.4h-3.559Z" transform="translate(-327.051 -68.136)" fill="#dba802"/>
    <path id="Path_39280" data-name="Path 39280" d="M74.137,148.031H52.781a.593.593,0,0,0-.593.593v4.657a.593.593,0,0,0,.593.593H74.137a.593.593,0,0,0,.593-.593v-4.657A.593.593,0,0,0,74.137,148.031Zm-.593,4.657H53.374v-3.47H73.544Z" transform="translate(-27.254 -109.017)" fill="#dba802"/>
    <path id="Path_39281" data-name="Path 39281" d="M285.781,261.221h1.277l1.7,10.182a.593.593,0,0,0,.462.482,1.78,1.78,0,1,0,2.633.015h2.694a1.78,1.78,0,1,0,2.633-.013.593.593,0,0,0-.124-1.173h-7.21l-.2-1.186h7.407a.593.593,0,0,0,.59-.534l.593-5.932a.593.593,0,0,0-.59-.653h-9.187l-.313-1.877a.593.593,0,0,0-.585-.5h-1.78a.593.593,0,1,0,0,1.186Zm4.746,12.458a.593.593,0,1,1,.593-.593A.593.593,0,0,1,290.527,273.678Zm5.339,0a.593.593,0,1,1,.593-.593A.593.593,0,0,1,295.866,273.678Zm-6.715-7.119h1.729l.178,1.78h-1.61Zm4.576,0-.178,1.78h-1.3l-.178-1.78Zm-1.774-1.186-.178-1.78h2.248l-.178,1.78Zm2.788,2.966.178-1.78h1.774l-.178,1.78Zm2.07-2.966h-1.774l.178-1.78h1.774Zm-6.229-1.78.178,1.78h-1.808l-.3-1.78Z" transform="translate(-225.699 -204.41)" fill="#dba802"/>
    <path id="Path_39282" data-name="Path 39282" d="M52.781,197.217h9.492a.593.593,0,0,0,0-1.186H52.781a.593.593,0,0,0,0,1.186Z" transform="translate(-27.254 -149.898)" fill="#dba802"/>
    <path id="Path_39283" data-name="Path 39283" d="M52.781,213.217H65.832a.593.593,0,1,0,0-1.186H52.781a.593.593,0,1,0,0,1.186Z" transform="translate(-27.254 -163.525)" fill="#dba802"/>
    <path id="Path_39284" data-name="Path 39284" d="M162.713,212.031h-5.932a.593.593,0,1,0,0,1.186h5.932a.593.593,0,0,0,0-1.186Z" transform="translate(-115.831 -163.525)" fill="#dba802"/>
    <path id="Path_39285" data-name="Path 39285" d="M61.086,228.031H52.781a.593.593,0,1,0,0,1.186h8.305a.593.593,0,0,0,0-1.186Z" transform="translate(-27.254 -177.153)" fill="#dba802"/>
    <path id="Path_39286" data-name="Path 39286" d="M135.459,228.031H124.781a.593.593,0,1,0,0,1.186h10.678a.593.593,0,1,0,0-1.186Z" transform="translate(-88.576 -177.153)" fill="#dba802"/>
    <path id="Path_39287" data-name="Path 39287" d="M69.968,348.031H68.781a.593.593,0,1,0,0,1.186h1.186a.593.593,0,0,1,.593.593v2.373a.593.593,0,0,1-.593.593H68.781a.593.593,0,1,0,0,1.186h1.186a1.782,1.782,0,0,0,1.78-1.78v-2.373A1.782,1.782,0,0,0,69.968,348.031Z" transform="translate(-40.881 -279.356)" fill="#dba802"/>
  </g>
</svg>
