<svg xmlns="http://www.w3.org/2000/svg" width="70.658" height="75" viewBox="0 0 70.658 75">
  <g id="Group_36771" data-name="Group 36771" transform="translate(-10331.642 -1030)">
    <path id="Path_39309" data-name="Path 39309" d="M349.226,193.476h-1.942v3.913h-3.914v1.942h3.914v3.914h1.942v-3.914h3.913v-1.942h-3.913Z" transform="translate(10037.735 863.908)" fill="#0037ff"/>
    <path id="Path_39310" data-name="Path 39310" d="M110.955,79.752v3.265h-3.131v1.942h3.131v1.894H112.9v-1.9a3.569,3.569,0,0,0,0-7.137V74.782h3.131V72.84H112.9V71.071h-1.942v1.778a3.456,3.456,0,0,0,0,6.9Zm1.942.012a1.626,1.626,0,0,1,0,3.25Zm-1.942-4.972v3.016a1.518,1.518,0,0,1,0-3.016Z" transform="translate(10235.305 966.509)" fill="#0037ff"/>
    <rect id="Rectangle_15526" data-name="Rectangle 15526" width="1.836" height="1.942" transform="translate(10355.72 1090.876)" fill="#0037ff"/>
    <rect id="Rectangle_15527" data-name="Rectangle 15527" width="1.842" height="1.942" transform="translate(10344.665 1090.876)" fill="#0037ff"/>
    <rect id="Rectangle_15528" data-name="Rectangle 15528" width="1.842" height="1.942" transform="translate(10352.035 1090.876)" fill="#0037ff"/>
    <rect id="Rectangle_15529" data-name="Rectangle 15529" width="1.842" height="1.942" transform="translate(10348.351 1090.876)" fill="#0037ff"/>
    <rect id="Rectangle_15530" data-name="Rectangle 15530" width="1.942" height="1.942" transform="translate(10340.882 1090.876)" fill="#0037ff"/>
    <rect id="Rectangle_15531" data-name="Rectangle 15531" width="1.942" height="1.788" transform="translate(10340.882 1069.424)" fill="#0037ff"/>
    <rect id="Rectangle_15532" data-name="Rectangle 15532" width="1.942" height="1.788" transform="translate(10340.882 1072.999)" fill="#0037ff"/>
    <rect id="Rectangle_15533" data-name="Rectangle 15533" width="1.942" height="1.788" transform="translate(10340.882 1083.725)" fill="#0037ff"/>
    <rect id="Rectangle_15534" data-name="Rectangle 15534" width="1.942" height="1.788" transform="translate(10340.882 1080.15)" fill="#0037ff"/>
    <rect id="Rectangle_15535" data-name="Rectangle 15535" width="1.942" height="1.788" transform="translate(10340.882 1087.3)" fill="#0037ff"/>
    <rect id="Rectangle_15536" data-name="Rectangle 15536" width="1.942" height="1.788" transform="translate(10340.882 1076.574)" fill="#0037ff"/>
    <rect id="Rectangle_15537" data-name="Rectangle 15537" width="1.726" height="1.942" transform="translate(10359.524 1087.29)" fill="#0037ff"/>
    <rect id="Rectangle_15538" data-name="Rectangle 15538" width="1.842" height="1.942" transform="translate(10348.471 1087.29)" fill="#0037ff"/>
    <rect id="Rectangle_15539" data-name="Rectangle 15539" width="1.842" height="1.942" transform="translate(10352.155 1087.29)" fill="#0037ff"/>
    <rect id="Rectangle_15540" data-name="Rectangle 15540" width="1.842" height="1.942" transform="translate(10355.84 1087.29)" fill="#0037ff"/>
    <rect id="Rectangle_15541" data-name="Rectangle 15541" width="1.942" height="1.942" transform="translate(10344.687 1087.29)" fill="#0037ff"/>
    <rect id="Rectangle_15542" data-name="Rectangle 15542" width="1.942" height="1.788" transform="translate(10344.687 1080.14)" fill="#0037ff"/>
    <rect id="Rectangle_15543" data-name="Rectangle 15543" width="1.942" height="1.788" transform="translate(10344.687 1083.715)" fill="#0037ff"/>
    <rect id="Rectangle_15544" data-name="Rectangle 15544" width="1.942" height="1.788" transform="translate(10344.687 1072.989)" fill="#0037ff"/>
    <rect id="Rectangle_15545" data-name="Rectangle 15545" width="1.942" height="1.788" transform="translate(10344.687 1069.414)" fill="#0037ff"/>
    <rect id="Rectangle_15546" data-name="Rectangle 15546" width="1.942" height="1.788" transform="translate(10344.687 1076.564)" fill="#0037ff"/>
    <path id="Path_39311" data-name="Path 39311" d="M74.276,195.171l-7.406,9.813h5.342v-1.942H70.768l3.509-4.648,3.509,4.648H76.306v1.942h5.376Z" transform="translate(10269.501 862.487)" fill="#0037ff"/>
    <path id="Path_39312" data-name="Path 39312" d="M50.387,331.144a5.4,5.4,0,1,1-10.8,0V309.811H37.642v21.334A7.491,7.491,0,0,0,44.87,338.6v.006l.1,0,.129,0H89.6a7.468,7.468,0,0,0,7.459-7.46v-.971H50.387Zm44.64.971a5.527,5.527,0,0,1-5.432,4.548H49.882a7.45,7.45,0,0,0,2.384-4.548Z" transform="translate(10294 766.395)" fill="#0037ff"/>
    <path id="Path_39313" data-name="Path 39313" d="M39.584,26.165H87.39V38.8h1.942V24.223H37.642v34.85h1.942Z" transform="translate(10294 1005.777)" fill="#0037ff"/>
    <rect id="Rectangle_15547" data-name="Rectangle 15547" width="1.942" height="3.857" transform="translate(10331.642 1068.446)" fill="#0037ff"/>
    <path id="Path_39314" data-name="Path 39314" d="M321.658,161.744a10.018,10.018,0,1,0,10.018,10.018A10.03,10.03,0,0,0,321.658,161.744Zm0,18.1a8.077,8.077,0,1,1,8.077-8.077A8.086,8.086,0,0,1,321.658,179.839Z" transform="translate(10064.333 890.506)" fill="#0037ff"/>
    <path id="Path_39315" data-name="Path 39315" d="M453.386,144.268a19,19,0,0,0-1.826-2.246l-1.408,1.336a17.039,17.039,0,0,1,1.638,2.016Z" transform="translate(9948.231 907.037)" fill="#0037ff"/>
    <path id="Path_39316" data-name="Path 39316" d="M374.775,76.339q.2.011.4.027a16.4,16.4,0,0,1,9.379,3.87l1.258-1.478a18.32,18.32,0,0,0-10.436-4.323V68.179h-1.942v8.11l.937.032Q374.572,76.328,374.775,76.339Z" transform="translate(10012.538 968.933)" fill="#0037ff"/>
    <path id="Path_39317" data-name="Path 39317" d="M238.185,138.265a16.948,16.948,0,0,0-13.33-6.945c-.273-.006-.547-.006-.82,0a15.429,15.429,0,0,0-3.269.427l-.562.013a17.064,17.064,0,0,0-3.494-.44c-.275-.007-.554-.007-.822,0a15.355,15.355,0,0,0-10.773,4.754,15.723,15.723,0,0,0-4.41,10.951v1.688l-3.633,5.853a2.665,2.665,0,0,0,1.648,4l1.645.392v6.694a3.8,3.8,0,0,0,3.8,3.8h11.11v7.561h1.942V169.45h3.405v7.562h1.942v-7.562h3.685v7.561h1.942v-8.343l4.164-4.882-1.477-1.26-4.249,4.982H212.31a1.858,1.858,0,0,1-1.856-1.856v-8.228l-3.137-.746a.725.725,0,0,1-.448-1.088l3.926-6.322v-2.242a13.846,13.846,0,0,1,9.712-13.183l.429-.124a13.214,13.214,0,0,1,3.143-.456c.243-.006.489-.006.732,0a15.019,15.019,0,0,1,11.812,6.158,15.343,15.343,0,0,1,2.439,13.387l-2.366,8.347v15.858h1.942V161.423l2.293-8.087A17.271,17.271,0,0,0,238.185,138.265Zm-24.922-2.191a15.722,15.722,0,0,0-4.41,10.95v1.688l-3.634,5.852a2.667,2.667,0,0,0,1.648,4l1.644.391v6.694a3.774,3.774,0,0,0,.487,1.857h-4.837a1.859,1.859,0,0,1-1.856-1.857v-8.227l-3.138-.747a.724.724,0,0,1-.448-1.087l3.925-6.323v-2.241a13.767,13.767,0,0,1,13.288-13.764c.239-.006.48-.006.729,0l.222.008A15.611,15.611,0,0,0,213.263,136.074Z" transform="translate(10160.701 916.012)" fill="#0037ff"/>
    <path id="Path_39318" data-name="Path 39318" d="M89.865,52.844H68.185v21.68h21.68ZM87.924,72.583h-17.8v-17.8h17.8Z" transform="translate(10268.398 981.787)" fill="#0037ff"/>
    <rect id="Rectangle_15548" data-name="Rectangle 15548" width="10.57" height="1.942" transform="translate(10367.223 1034.631)" fill="#0037ff"/>
    <rect id="Rectangle_15549" data-name="Rectangle 15549" width="10.57" height="1.942" transform="translate(10367.223 1038.51)" fill="#0037ff"/>
    <rect id="Rectangle_15550" data-name="Rectangle 15550" width="1.942" height="2.67" transform="translate(10385.971 1032.245)" fill="#0037ff"/>
  </g>
</svg>
