<svg xmlns="http://www.w3.org/2000/svg" width="59.333" height="65" viewBox="0 0 59.333 65">
  <g id="Group_36457" data-name="Group 36457" transform="translate(-6.8 -2.5)">
    <path id="Path_38717" data-name="Path 38717" d="M28.238,17.942H28.17l-.205-.068a8.922,8.922,0,0,0,2.466-6.233,9.041,9.041,0,0,0-18.082,0,9.236,9.236,0,0,0,2.466,6.233l-.342.068a10.436,10.436,0,0,0-6.849,8.63L6.8,34.655a1.263,1.263,0,0,0,.274.89,1.1,1.1,0,0,0,.89.411H14.54l1.781-2.329H9.266l.685-6.781a8.147,8.147,0,0,1,5.274-6.712l1.918-.548a8.849,8.849,0,0,0,4.247,1.027,9.948,9.948,0,0,0,4.247-1.027l1.849.548a8.223,8.223,0,0,1,5.342,6.712l.685,6.781H26.458l1.781,2.329h6.575a1.206,1.206,0,0,0,.89-.411,1.079,1.079,0,0,0,.274-.89l-.822-8.082A10.421,10.421,0,0,0,28.238,17.942Zm-13.562-6.37a6.712,6.712,0,1,1,6.712,6.712A6.723,6.723,0,0,1,14.677,11.573Z" transform="translate(0 -0.032)" fill="#9fa320"/>
    <path id="Path_38718" data-name="Path 38718" d="M79.011,72.741a10.347,10.347,0,0,0-6.849-8.63h-.068l-.274-.137a9.041,9.041,0,1,0-13.014,0l-.342.068a10.324,10.324,0,0,0-6.849,8.63l-.822,8.082a1.013,1.013,0,0,0,.274.89,1.1,1.1,0,0,0,.89.411H78.805a1.206,1.206,0,0,0,.89-.411,1.079,1.079,0,0,0,.274-.89ZM65.244,51.029a6.712,6.712,0,1,1-6.712,6.712A6.723,6.723,0,0,1,65.244,51.029ZM53.121,79.8l.685-6.781a7.964,7.964,0,0,1,5.274-6.644L61,65.823a8.659,8.659,0,0,0,4.247,1.027,9.948,9.948,0,0,0,4.247-1.027l1.918.548a8.131,8.131,0,0,1,5.342,6.712l.685,6.781H53.121Z" transform="translate(-13.855 -14.556)" fill="#9fa320"/>
    <path id="Path_38719" data-name="Path 38719" d="M23.283,45.287a1.225,1.225,0,0,0-1.918,0L10,60.561a1.311,1.311,0,0,0-.137,1.233,1.13,1.13,0,0,0,1.027.616h5.89c1.027,8.9,7.945,16.027,15.959,16.164h0a1.22,1.22,0,0,0,1.1-.685,1.047,1.047,0,0,0-.205-1.233,25.548,25.548,0,0,1-5.616-14.178h5.616a1.273,1.273,0,0,0,1.027-.616,1.15,1.15,0,0,0-.137-1.233Zm3.493,14.795a1.134,1.134,0,0,0-.822.342,1.3,1.3,0,0,0-.342.89A29.082,29.082,0,0,0,30.133,75.9c-5.959-1.438-10.753-7.534-11.1-14.658a1.188,1.188,0,0,0-1.164-1.1H13.283l9.041-12.123L31.365,60.15H26.776Z" transform="translate(-0.935 -13.335)" fill="#9fa320"/>
    <path id="Path_38720" data-name="Path 38720" d="M65.473,30.514A14.007,14.007,0,1,0,51.5,16.473,13.987,13.987,0,0,0,65.473,30.514Zm0-25.685A11.644,11.644,0,1,1,53.829,16.473,11.634,11.634,0,0,1,65.473,4.829Z" transform="translate(-14.084)" fill="#9fa320"/>
    <path id="Path_38721" data-name="Path 38721" d="M65.907,25.587a1.264,1.264,0,0,0,.822.342,1.134,1.134,0,0,0,.822-.342l7.808-7.808a1.162,1.162,0,1,0-1.644-1.644L66.8,23.121,63.578,19.9a1.162,1.162,0,0,0-1.644,1.644Z" transform="translate(-17.258 -4.183)" fill="#9fa320"/>
  </g>
</svg>
