<svg id="Component_203_4" data-name="Component 203 – 4" xmlns="http://www.w3.org/2000/svg" width="49.834" height="65" viewBox="0 0 49.834 65">
  <path id="Path_36426" data-name="Path 36426" d="M152.856,62.828a3.251,3.251,0,0,0,3.051,2.167h8.666a3.251,3.251,0,0,0,3.051-2.167h13.2a4.334,4.334,0,0,0,4.334-4.333V9.56a3.255,3.255,0,0,0-.275-1.3c-.011-.026-.027-.048-.039-.072a3.262,3.262,0,0,0-.642-.933l-6.3-6.3a3.259,3.259,0,0,0-.936-.642C176.938.3,176.916.28,176.89.27a3.25,3.25,0,0,0-1.3-.275H139.656a4.334,4.334,0,0,0-4.334,4.333V58.494a4.334,4.334,0,0,0,4.334,4.333Zm-2.366-7.583h-5.435l1.773-9.75h3.662Zm19.5-9.75h3.662l1.776,9.75H169.99Zm-17.333-1.083V28.161h15.166v29.25h-4.333V46.578a2.166,2.166,0,0,0-2.167-2.166h-2.166a2.166,2.166,0,0,0-2.167,2.166V57.411h-4.333Zm.069-18.417c.666-5.171,5.861-9.553,7.5-10.833,1.666,1.283,6.863,5.665,7.529,10.833Zm8.6,32.5h-2.166V46.577h2.167V58.483Zm3.25,4.333h-8.666a1.083,1.083,0,0,1-1.084-1.083V59.577h2.468a2.159,2.159,0,0,0,1.866,1.084h2.166a2.159,2.159,0,0,0,1.866-1.084h2.468v2.167a1.083,1.083,0,0,1-1.084,1.083Zm16.885-55.25H179.74a2.166,2.166,0,0,1-2.167-2.166V3.693ZM137.49,58.494V4.328a2.166,2.166,0,0,1,2.167-2.166h35.75v3.25a4.333,4.333,0,0,0,4.333,4.333h3.25v48.75a2.167,2.167,0,0,1-2.167,2.167h-13V59.577a2.166,2.166,0,0,0,2.167-2.166h5.435a2.167,2.167,0,0,0,2.13-2.554l-1.771-9.75a2.167,2.167,0,0,0-2.132-1.78H169.99V27.078c0-6.442-5.905-11.683-8.443-13.636h0a2.14,2.14,0,0,0-2.612,0c-2.54,1.953-8.445,7.193-8.445,13.636v16.25h-3.662a2.167,2.167,0,0,0-2.131,1.78l-1.773,9.75a2.167,2.167,0,0,0,2.131,2.554h5.435a2.166,2.166,0,0,0,2.167,2.166v1.083h-13a2.167,2.167,0,0,1-2.167-2.167Z" transform="translate(-135.322 0.006)" fill="#ff5e85"/>
  <path id="Path_36427" data-name="Path 36427" d="M308.677,272.167a5.41,5.41,0,0,0,3.859-9.209c-.011-.012-.015-.028-.027-.04s-.028-.016-.04-.027a5.417,5.417,0,1,0-3.792,9.276Zm0-8.667a3.194,3.194,0,0,1,1.392.325l-2.158,2.158h0a1.083,1.083,0,1,0,1.532,1.532l2.159-2.157a3.2,3.2,0,0,1,.325,1.392,3.25,3.25,0,1,1-3.25-3.25Z" transform="translate(-283.759 -230.999)" fill="#ff5e85"/>
  <path id="Path_36428" data-name="Path 36428" d="M192.418,76.834H219.5a1.083,1.083,0,1,0,0-2.166H192.418a1.083,1.083,0,1,0,0,2.166Z" transform="translate(-184.833 -66.001)" fill="#ff5e85"/>
  <path id="Path_36429" data-name="Path 36429" d="M406,122.418a1.084,1.084,0,0,0,1.083,1.083h9.75a1.083,1.083,0,1,0,0-2.167h-9.75A1.084,1.084,0,0,0,406,122.418Z" transform="translate(-374.582 -107.25)" fill="#ff5e85"/>
  <path id="Path_36430" data-name="Path 36430" d="M192.418,123.5h9.75a1.083,1.083,0,0,0,0-2.167h-9.75a1.083,1.083,0,1,0,0,2.167Z" transform="translate(-184.833 -107.248)" fill="#ff5e85"/>
  <path id="Path_36431" data-name="Path 36431" d="M449.83,168h-5.416a1.083,1.083,0,1,0,0,2.167h5.416a1.083,1.083,0,1,0,0-2.167Z" transform="translate(-407.579 -148.499)" fill="#ff5e85"/>
  <path id="Path_36432" data-name="Path 36432" d="M192.418,170.169h5.416a1.083,1.083,0,1,0,0-2.167h-5.416a1.083,1.083,0,1,0,0,2.167Z" transform="translate(-184.833 -148.501)" fill="#ff5e85"/>
  <path id="Path_36433" data-name="Path 36433" d="M458.082,214.67h-4.333a1.083,1.083,0,0,0,0,2.166h4.333a1.083,1.083,0,1,0,0-2.166Z" transform="translate(-415.831 -189.752)" fill="#ff5e85"/>
  <path id="Path_36434" data-name="Path 36434" d="M192.418,216.832h4.333a1.083,1.083,0,1,0,0-2.166h-4.333a1.083,1.083,0,1,0,0,2.166Z" transform="translate(-184.833 -189.749)" fill="#ff5e85"/>
  <path id="Path_36435" data-name="Path 36435" d="M458.082,261.33h-4.333a1.083,1.083,0,0,0,0,2.167h4.333a1.083,1.083,0,1,0,0-2.167Z" transform="translate(-415.831 -230.997)" fill="#ff5e85"/>
  <path id="Path_36436" data-name="Path 36436" d="M192.418,263.5h4.333a1.083,1.083,0,0,0,0-2.167h-4.333a1.083,1.083,0,1,0,0,2.167Z" transform="translate(-184.833 -230.998)" fill="#ff5e85"/>
  <path id="Path_36437" data-name="Path 36437" d="M458.082,308h-4.333a1.083,1.083,0,0,0,0,2.167h4.333a1.083,1.083,0,1,0,0-2.167Z" transform="translate(-415.831 -272.249)" fill="#ff5e85"/>
  <path id="Path_36438" data-name="Path 36438" d="M192.418,310.169h4.333a1.083,1.083,0,0,0,0-2.167h-4.333a1.083,1.083,0,1,0,0,2.167Z" transform="translate(-184.833 -272.251)" fill="#ff5e85"/>
</svg>
