<svg xmlns="http://www.w3.org/2000/svg" width="65.5" height="65.5" viewBox="0 0 65.5 65.5">
  <g id="Component_204_5" data-name="Component 204 – 5" transform="translate(0.25 0.25)">
    <path id="Path_36422" data-name="Path 36422" d="M118.5,50.581a1.306,1.306,0,0,0,.69.3,1.065,1.065,0,0,0,.689-.3l4.235-3.841a.978.978,0,1,0-1.28-1.478l-2.659,2.364V44.476c0-2.856,2.659-5.22,5.909-5.22h15.166v8.371l-2.462-2.265a.978.978,0,1,0-1.28,1.478l4.038,3.644a1.47,1.47,0,0,0,.689.3.9.9,0,0,0,.788-.394l4.038-3.644a.978.978,0,1,0-1.28-1.478l-2.561,2.265V39.256h15.068c3.25,0,5.909,2.364,5.909,5.22v3.053l-2.364-2.167a.978.978,0,0,0-1.28,1.478l3.939,3.546a.97.97,0,0,0,1.478.1l4.235-3.841a.978.978,0,0,0-1.28-1.478l-2.757,2.461V44.475c0-3.939-3.546-7.189-7.879-7.189H143.217V33.937h9.947a.93.93,0,0,0,.985-.985V28.323a6.914,6.914,0,0,0-6.894-6.894h-1.871a6.978,6.978,0,1,0-10.143-6.2,6.957,6.957,0,0,0,3.841,6.2h-2.068a6.914,6.914,0,0,0-6.894,6.894v4.629a.93.93,0,0,0,.985.985h10.144v3.348H125.982c-4.333,0-7.879,3.25-7.879,7.189v3.152l-2.462-2.167a.978.978,0,0,0-1.28,1.478ZM137.21,15.226a5.023,5.023,0,1,1,5.023,5.023A5.044,5.044,0,0,1,137.21,15.226Zm-5.121,13.1a4.938,4.938,0,0,1,4.924-4.924h10.144a4.938,4.938,0,0,1,4.924,4.924v3.644H132.089Z" transform="translate(-109.732 -8.232)" fill="#0037ff" stroke="#0037ff" stroke-width="0.5"/>
    <path id="Path_36423" data-name="Path 36423" d="M91.337,387.613a5.669,5.669,0,0,0,2.56-4.727,5.738,5.738,0,0,0-5.811-5.712,5.8,5.8,0,0,0-5.811,5.712,5.542,5.542,0,0,0,2.56,4.727,6.993,6.993,0,0,0-6.6,6.894v2.462a.93.93,0,0,0,.985.985H96.851a.93.93,0,0,0,.985-.985v-2.462a6.979,6.979,0,0,0-6.5-6.894Zm-3.25-8.568a3.826,3.826,0,0,1,3.841,3.742,3.842,3.842,0,0,1-7.682,0A3.825,3.825,0,0,1,88.087,379.045Zm7.78,16.939H80.208v-1.477a4.938,4.938,0,0,1,4.924-4.924h5.712a4.938,4.938,0,0,1,4.924,4.924v1.477Z" transform="translate(-78.238 -333.052)" fill="#0037ff" stroke="#0037ff" stroke-width="0.5"/>
    <path id="Path_36424" data-name="Path 36424" d="M470.973,387.613a5.669,5.669,0,0,0,2.56-4.727,5.738,5.738,0,0,0-5.811-5.712,5.8,5.8,0,0,0-5.811,5.712,5.542,5.542,0,0,0,2.56,4.727,6.993,6.993,0,0,0-6.6,6.894v2.462a.93.93,0,0,0,.985.985h17.63a.93.93,0,0,0,.985-.985v-2.462a6.907,6.907,0,0,0-6.5-6.894Zm-3.25-8.568a3.826,3.826,0,0,1,3.841,3.742,3.763,3.763,0,0,1-3.841,3.742,3.744,3.744,0,1,1,0-7.485Zm7.78,16.939H459.845v-1.477a4.938,4.938,0,0,1,4.924-4.924h5.811a4.938,4.938,0,0,1,4.924,4.924Z" transform="translate(-412.473 -333.052)" fill="#0037ff" stroke="#0037ff" stroke-width="0.5"/>
    <path id="Path_36425" data-name="Path 36425" d="M280.743,388.433a5.541,5.541,0,0,0,2.56-4.727,5.738,5.738,0,0,0-5.811-5.712,5.8,5.8,0,0,0-5.811,5.712,5.543,5.543,0,0,0,2.56,4.727,6.993,6.993,0,0,0-6.6,6.894v2.462a.93.93,0,0,0,.985.985h17.629a.93.93,0,0,0,.985-.985v-2.462a7.054,7.054,0,0,0-6.5-6.894Zm-3.25-8.568a3.826,3.826,0,0,1,3.841,3.742,3.763,3.763,0,0,1-3.841,3.742,3.744,3.744,0,1,1,0-7.485Zm7.682,16.939H269.614v-1.477a4.938,4.938,0,0,1,4.924-4.924h5.712a4.939,4.939,0,0,1,4.924,4.924Z" transform="translate(-244.993 -333.774)" fill="#0037ff" stroke="#0037ff" stroke-width="0.5"/>
  </g>
</svg>
