<svg id="Component_202_3" data-name="Component 202 – 3" xmlns="http://www.w3.org/2000/svg" width="67.183" height="65" viewBox="0 0 67.183 65">
  <path id="Path_36416" data-name="Path 36416" d="M185.4,141.366a5.531,5.531,0,0,0,7.024,0,1.048,1.048,0,0,0-1.258-1.677,3.448,3.448,0,0,1-4.508,0,1.048,1.048,0,0,0-1.258,1.677Z" transform="translate(-171.183 -123.86)" fill="#21a5aa"/>
  <path id="Path_36417" data-name="Path 36417" d="M449.813,141.366a5.531,5.531,0,0,0,7.024,0,1.048,1.048,0,1,0-1.258-1.677,3.489,3.489,0,0,1-4.508,0,1.025,1.025,0,0,0-1.468.21A1.065,1.065,0,0,0,449.813,141.366Z" transform="translate(-403.94 -123.86)" fill="#21a5aa"/>
  <path id="Path_36418" data-name="Path 36418" d="M208.786,230.937v5.294a.315.315,0,0,0,.052.21,16.529,16.529,0,0,0,4.613,9.645c-.262.944-.891,2.464-2.359,2.726-3.04.524-8.858,2.988-9.225,8.649a22.988,22.988,0,0,0-.1,6.29,1.072,1.072,0,0,0,1.048.943h.1a1.057,1.057,0,0,0,.943-1.153,21,21,0,0,1,.052-5.713v-.157c.21-3.879,3.669-5.608,5.818-6.342l4.4,4.665a2.045,2.045,0,0,0,1.73.891,2.284,2.284,0,0,0,1.52-.577l1.835-2.2.1-.1.1.1,1.73,2.1.1.1a2.284,2.284,0,0,0,1.52.577h.315a2.155,2.155,0,0,0,1.415-.891l4.35-4.56c2.149.786,5.451,2.568,5.661,6.29v.1a26.993,26.993,0,0,1,0,5.818,1.054,1.054,0,1,0,2.1.21,27.584,27.584,0,0,0-.052-6.237c-.419-5.766-6.29-8.282-9.278-8.806a3.33,3.33,0,0,1-2.359-2.568,16.129,16.129,0,0,0,4.822-10.588v-4.77a4.985,4.985,0,0,0-4.822-5.137H213.608a5.066,5.066,0,0,0-4.822,5.189Zm8.911,21.648-1.835,2.2c-.052.052-.052.052-.1,0l-3.721-4.036a4.237,4.237,0,0,0,1.572-.891l4.141,2.568a.183.183,0,0,1,.052.1c-.052,0-.052,0-.1.052Zm1.782-1.834-.21.21-.21-.21-4.193-2.568c.1-.21.21-.472.315-.681a7.112,7.112,0,0,0,8.02.1c.1.21.21.419.314.681l-3.879,2.411Zm6.971.052-3.617,3.826-.1.157c-.052,0-.052,0-.1-.052l-1.677-2.044-.1-.1c-.052,0-.052-.052-.052-.1s0-.052.052-.1l4.036-2.464a3.861,3.861,0,0,0,1.572.891Zm-7.181-4.088c-4.246,0-7.915-5.975-8.334-10.221,1-1.415,1.73-1.205,3.46-.786,1.835.472,4.3,1.153,7.443-.891,1.468-1,2.778-1.363,3.826-1a3.788,3.788,0,0,1,1.992,1.939c-.052,4.246-3.879,10.955-8.387,10.955Zm8.387-15.778v1.572a6.225,6.225,0,0,0-1.31-.681c-1.677-.577-3.617-.157-5.713,1.206-2.359,1.52-4.088,1.048-5.713.629a11.361,11.361,0,0,0-2.254-.419,4.233,4.233,0,0,0-1.782.419v-2.778a2.936,2.936,0,0,1,2.726-3.092H224.93a3.059,3.059,0,0,1,2.726,3.145Z" transform="translate(-185.818 -199.802)" fill="#21a5aa"/>
  <path id="Path_36419" data-name="Path 36419" d="M322.419,357.129a3.489,3.489,0,0,1-4.508,0,1.048,1.048,0,0,0-1.258,1.677,5.531,5.531,0,0,0,7.024,0,1.048,1.048,0,0,0-1.258-1.677Z" transform="translate(-286.716 -315.249)" fill="#21a5aa"/>
  <path id="Path_36420" data-name="Path 36420" d="M79.412,32.2c-3.04.524-8.858,2.988-9.225,8.649a22.991,22.991,0,0,0-.1,6.29,1.072,1.072,0,0,0,1.048.943h.1a1.057,1.057,0,0,0,.943-1.153,20.283,20.283,0,0,1,.052-5.661V41.11c.21-3.879,3.669-5.608,5.818-6.342l4.4,4.665a2.045,2.045,0,0,0,1.73.891,2.284,2.284,0,0,0,1.52-.577l1.834-2.2.1-.1.1.1,1.73,2.1.1.1a2.639,2.639,0,0,0,1.363.577,7.9,7.9,0,0,1,.472-2.463l-.21.21-.1.157c-.052,0-.052,0-.1-.052l-1.677-2.044-.1-.1c-.052,0-.052-.052-.052-.1s0-.052.052-.1l4.036-2.463a3.775,3.775,0,0,0,1.415.786,6.593,6.593,0,0,1,3.25-.891h1a13.337,13.337,0,0,0-3.2-1,3.33,3.33,0,0,1-2.359-2.568A16.129,16.129,0,0,0,98.177,19.1v-4.77a4.985,4.985,0,0,0-4.822-5.137H81.981a4.985,4.985,0,0,0-4.822,5.137V19.62a.315.315,0,0,0,.052.21,16.529,16.529,0,0,0,4.613,9.645c-.262.943-.891,2.463-2.411,2.726Zm8.544,1.834-.314.314-.21-.21L83.239,31.57c.1-.21.21-.472.314-.681a7.106,7.106,0,0,0,4.088,1.258,7.474,7.474,0,0,0,3.931-1.153c.1.21.21.419.315.681Zm-8.7-19.708a2.936,2.936,0,0,1,2.726-3.092H93.3a2.9,2.9,0,0,1,2.726,3.092V15.9a6.227,6.227,0,0,0-1.31-.681C93.04,14.64,91.1,15.059,89,16.422c-2.359,1.52-4.088,1.048-5.713.629a11.361,11.361,0,0,0-2.254-.419,4.233,4.233,0,0,0-1.782.419Zm.052,5.5c1-1.415,1.73-1.206,3.459-.786,1.834.472,4.3,1.153,7.443-.891,1.52-1,2.83-1.31,3.879-1A3.788,3.788,0,0,1,96.08,19.1c-.052,4.246-3.879,10.955-8.387,10.955-4.3,0-7.967-5.923-8.387-10.221ZM81.981,33.2l4.141,2.568a.183.183,0,0,1,.052.1c0,.052-.052.052-.052.1l-1.834,2.2c-.052.052-.052.052-.1,0l-3.774-4.088a3.945,3.945,0,0,0,1.572-.891Z" transform="translate(-69.914 -9.189)" fill="#21a5aa"/>
  <path id="Path_36421" data-name="Path 36421" d="M391.7,32.2a14.114,14.114,0,0,0-3.2,1h1.048a6.969,6.969,0,0,1,3.25.839,4.007,4.007,0,0,0,1.363-.786l4.036,2.463a.183.183,0,0,1,.052.1c0,.052-.052.052-.052.1l-.1.1-1.677,2.044a.183.183,0,0,1-.1.052l-.1-.157-.157-.157a9.363,9.363,0,0,1,.472,2.411,2.475,2.475,0,0,0,1.311-.577l.1-.1,1.73-2.1.1-.1.1.1,1.835,2.2a2.284,2.284,0,0,0,1.52.577,2.113,2.113,0,0,0,1.73-.891l4.4-4.665c2.149.734,5.608,2.516,5.818,6.342v.157a20.587,20.587,0,0,1,.052,5.713,1.057,1.057,0,0,0,.944,1.153h.1a1.072,1.072,0,0,0,1.048-.943,21.094,21.094,0,0,0-.1-6.29c-.472-5.608-6.237-8.072-9.278-8.6a3.271,3.271,0,0,1-2.359-2.726,16.381,16.381,0,0,0,4.613-9.645c0-.052.052-.157.052-.21V14.323a4.985,4.985,0,0,0-4.822-5.137H394.058a4.985,4.985,0,0,0-4.822,5.137v4.77a16.02,16.02,0,0,0,4.822,10.588A3.343,3.343,0,0,1,391.7,32.2Zm8.02,2.149-.315-.314-3.879-2.411c.1-.21.21-.419.314-.681a7.112,7.112,0,0,0,8.02-.1,7.3,7.3,0,0,0,.314.681l-4.193,2.568c-.1.1-.21.157-.262.262Zm7.233-.262-3.826,4.036h-.1l-1.835-2.2c.052,0,0-.052,0-.052,0-.052,0-.052.052-.1l4.141-2.568a3.944,3.944,0,0,0,1.572.891ZM391.332,14.323a2.936,2.936,0,0,1,2.726-3.092h11.322a2.9,2.9,0,0,1,2.726,3.092V17.1a4.054,4.054,0,0,0-1.782-.419,8.161,8.161,0,0,0-2.254.419,6.06,6.06,0,0,1-5.713-.629c-2.1-1.363-4.036-1.782-5.713-1.206a4.473,4.473,0,0,0-1.31.681Zm0,4.77a3.615,3.615,0,0,1,1.992-1.939c1.048-.367,2.359,0,3.879,1,3.145,2.044,5.608,1.363,7.443.891,1.677-.472,2.463-.681,3.459.786-.419,4.246-4.089,10.221-8.334,10.221-4.56,0-8.387-6.657-8.439-10.955Z" transform="translate(-350.333 -9.186)" fill="#21a5aa"/>
</svg>
