<svg xmlns="http://www.w3.org/2000/svg" width="54.504" height="65" viewBox="0 0 54.504 65">
  <path id="Path_38716" data-name="Path 38716" d="M34.89,12.513A16.757,16.757,0,0,0,20.955,39.651a21,21,0,0,1,4.779,13.072v6.152A8.134,8.134,0,0,0,33.859,67h.474a8.134,8.134,0,0,0,8.125-8.125V52.717A20.243,20.243,0,0,1,47.043,39.89,16.756,16.756,0,0,0,34.89,12.513Zm-.556,52.455h-.474A6.081,6.081,0,0,1,29.207,62.8h9.779a6.081,6.081,0,0,1-4.653,2.168Zm6.094-6.093a6.083,6.083,0,0,1-.306,1.9H28.071a6.083,6.083,0,0,1-.306-1.9V58.6H40.427Zm0-2.3H27.766V54.406H40.427ZM45.478,38.6A22.275,22.275,0,0,0,40.43,52.375H35.112V38.961l3.723-6.7a3.114,3.114,0,0,0-2.112-4.566,13.311,13.311,0,0,0-5.254,0,3.114,3.114,0,0,0-2.112,4.566l3.723,6.7V52.375H27.763a23.064,23.064,0,0,0-5.214-13.986,14.726,14.726,0,1,1,22.929.208ZM34.1,36.608l-2.964-5.334a1.084,1.084,0,0,1,.735-1.589,11.343,11.343,0,0,1,4.457,0,1.084,1.084,0,0,1,.735,1.589Zm-1.016-27.3v-6.3a1.016,1.016,0,1,1,2.031,0v6.3a1.016,1.016,0,1,1-2.031,0Zm10.106,2.163,3.149-5.453a1.016,1.016,0,0,1,1.759,1.016l-3.149,5.453a1.016,1.016,0,1,1-1.76-1.016Zm7.3,8.314a1.016,1.016,0,0,1,.372-1.388l5.453-3.148a1.016,1.016,0,1,1,1.016,1.76l-5.453,3.148a1.016,1.016,0,0,1-1.388-.372Zm10.863,9.462a1.015,1.015,0,0,1-1.016,1.016h-6.3a1.016,1.016,0,1,1,0-2.031h6.3a1.015,1.015,0,0,1,1.016,1.016ZM57.7,42.879a1.016,1.016,0,0,1-1.388.372L50.857,40.1a1.016,1.016,0,0,1,1.016-1.759l5.453,3.148a1.015,1.015,0,0,1,.372,1.387ZM20.1,7.038a1.016,1.016,0,0,1,1.759-1.016l3.149,5.453a1.016,1.016,0,0,1-1.76,1.016Zm-9.6,8.588a1.015,1.015,0,0,1,1.388-.372L17.336,18.4a1.016,1.016,0,1,1-1.016,1.76l-5.453-3.148a1.016,1.016,0,0,1-.372-1.388Zm3.661,14.641H7.86a1.016,1.016,0,1,1,0-2.031h6.3a1.016,1.016,0,1,1,0,2.031Zm3.552,8.447a1.016,1.016,0,0,1-.372,1.388l-5.453,3.148a1.016,1.016,0,0,1-1.016-1.759l5.453-3.148a1.015,1.015,0,0,1,1.388.372Z" transform="translate(-6.844 -2)" fill="#b85bea"/>
</svg>
