<svg xmlns="http://www.w3.org/2000/svg" width="130" height="34.785" viewBox="0 0 130 34.785">
  <path id="FAC_Logo_White" d="M1.067,34.785A1.073,1.073,0,0,1,0,33.719V1.067A1.073,1.073,0,0,1,1.067,0H33.82a1.073,1.073,0,0,1,1.067,1.067V33.719a1.073,1.073,0,0,1-1.067,1.066Zm31-2.132-14.65-29.2L12.264,13.762H9.9L15.691,2.133H2.133V15.894H19.2l-1.168,2.133H2.133V29.2L6.678,20.16H9.065L2.805,32.652Zm.685-3.453V2.133H19.2Zm11.273,1.016a6.191,6.191,0,0,1-1.9-4.164A6.178,6.178,0,0,1,52.762,22.09L51.39,23.385a3.968,3.968,0,0,0-3.047-1.346,4.012,4.012,0,1,0,0,8.024,3.968,3.968,0,0,0,3.047-1.346l1.371,1.295a6.19,6.19,0,0,1-4.48,1.913A6.127,6.127,0,0,1,44.027,30.215Zm66.6.3.737-1.65a6.391,6.391,0,0,0,3.809,1.244c1.777,0,2.539-.635,2.539-1.473,0-2.463-6.779-.838-6.779-5.078,0-1.828,1.448-3.4,4.6-3.4a7.142,7.142,0,0,1,3.808,1.016l-.66,1.65a6.534,6.534,0,0,0-3.148-.888c-1.778,0-2.489.685-2.489,1.549,0,2.437,6.754.863,6.754,5,0,1.828-1.473,3.4-4.621,3.4q-.116,0-.232,0A7.446,7.446,0,0,1,110.627,30.519Zm-4.316,1.245-1.142-2.641H99.455l-1.117,2.641H96.154l5.129-11.4h2.082l5.155,11.4Zm-6.144-4.317h4.291l-2.158-5ZM64.8,31.764l-1.168-2.641H57.916L56.8,31.764H54.615l5.155-11.4h2.082l5.154,11.4Zm-6.144-4.317h4.291l-2.158-5Zm29.555,4.316-5-11.425h2.311l3.783,8.81,3.809-8.81h2.158L90.289,31.763Zm-9.75,0-6.246-7.718v7.718H70.1v-11.4h1.752l6.3,7.719V20.338h2.057V31.763ZM42.123,14.574V3.149h8.353V4.875H44.256V8.4h5.51v1.777h-5.51v4.392Zm81.96-.051V4.9h-3.758V3.1H130V4.9h-3.809v9.623Zm-20.972,0L99.1,5.23,97.424,9.09H95.367L98.084,3.1h2.082l5.154,11.426Zm-10.182,0L94.1,11.908H96.23l-1.117,2.615Zm-17.062,0V3.123H84.2V4.875H77.975v2.97h5.51V9.6h-5.51v3.148h6.449v1.778Zm-14.854,0V3.123H62.74l6.3,7.719V3.1h2.107V14.5H69.392L63.121,6.779v7.744Zm54.818-.026h.026l.025.025Zm.026,0L113.5,11.172h-3v3.3h-2.107V3.072h4.7c3,0,4.85,1.523,4.85,4.063A3.644,3.644,0,0,1,115.5,10.74l2.615,3.758Zm-5.307-5.053h2.488c1.9,0,2.844-.863,2.844-2.286S114.867,4.9,113.013,4.9h-2.462ZM54.158,14.5V3.1h2.107V14.5Zm37.2-3.275.838-1.448h6.754l-.685,1.448Z" fill="#fff"/>
</svg>
