<svg id="Component_120_1" data-name="Component 120 – 1" xmlns="http://www.w3.org/2000/svg" width="16" height="16" viewBox="0 0 16 16">
  <path id="Path_35176" data-name="Path 35176" d="M241.745,191.137l-3.183,3.469-1.6-1.65a.6.6,0,0,0-.909.792l1.937,2.476a.775.775,0,0,0,.118.118.74.74,0,0,0,1.027-.1l.017-.017,3.52-4.278a.6.6,0,0,0-.051-.825.629.629,0,0,0-.876.017Z" transform="translate(-231.354 -185.629)" fill="#50bceb"/>
  <path id="Path_35177" data-name="Path 35177" d="M92,14a8,8,0,1,0,8,8A8.007,8.007,0,0,0,92,14Zm0,14.6A6.6,6.6,0,1,1,98.6,22,6.613,6.613,0,0,1,92,28.6Z" transform="translate(-84 -14)" fill="#50bceb"/>
</svg>
